<svg width="500" height="7" viewBox="0 0 500 7" fill="none" xmlns="http://www.w3.org/2000/svg">
<g clip-path="url(#clip0_4734_1131)">
<path d="M-230 6.25673L-227.125 3.38173C-223.949 0.206091 -218.801 0.206091 -215.625 3.38173C-212.449 6.55737 -207.301 6.55737 -204.125 3.38173C-200.949 0.206091 -195.801 0.206091 -192.625 3.38173C-189.449 6.55737 -184.301 6.55737 -181.125 3.38173C-177.949 0.206091 -172.801 0.206091 -169.625 3.38173C-166.449 6.55737 -161.301 6.55737 -158.125 3.38173C-154.949 0.206091 -149.801 0.206091 -146.625 3.38173C-143.449 6.55737 -138.301 6.55737 -135.125 3.38173C-131.949 0.206091 -126.801 0.206091 -123.625 3.38173C-120.449 6.55737 -115.301 6.55737 -112.125 3.38173C-108.949 0.206091 -103.801 0.206091 -100.625 3.38173C-97.4494 6.55737 -92.3006 6.55737 -89.125 3.38173C-85.9494 0.206091 -80.8006 0.206091 -77.625 3.38173C-74.4494 6.55737 -69.3006 6.55737 -66.125 3.38173C-62.9494 0.206091 -57.8006 0.206091 -54.625 3.38173C-51.4494 6.55737 -46.3006 6.55737 -43.125 3.38173C-39.9494 0.206091 -34.8006 0.206091 -31.625 3.38173C-28.4494 6.55737 -23.3006 6.55737 -20.125 3.38173C-16.9494 0.206091 -11.8006 0.206091 -8.625 3.38173C-5.44936 6.55737 -0.300644 6.55737 2.875 3.38173C6.05064 0.206091 11.1994 0.206091 14.375 3.38173C15.931 4.93776 17.9608 5.73135 20 5.7625C22.0392 5.73135 24.069 4.93776 25.625 3.38173C28.8007 0.206091 33.9493 0.206091 37.125 3.38173C40.3007 6.55737 45.4493 6.55737 48.625 3.38173C51.8007 0.206091 56.9493 0.206091 60.125 3.38173C63.3007 6.55737 68.4493 6.55737 71.625 3.38173C74.8007 0.206091 79.9493 0.206091 83.125 3.38173C86.3007 6.55737 91.4493 6.55737 94.625 3.38173C97.8007 0.206091 102.949 0.206091 106.125 3.38173C109.301 6.55737 114.449 6.55737 117.625 3.38173C120.801 0.206091 125.949 0.206091 129.125 3.38173C132.301 6.55737 137.449 6.55737 140.625 3.38173C143.801 0.206091 148.949 0.206091 152.125 3.38173C155.301 6.55737 160.449 6.55737 163.625 3.38173C166.801 0.206091 171.949 0.206091 175.125 3.38173C178.301 6.55737 183.449 6.55737 186.625 3.38173C189.801 0.206091 194.949 0.206091 198.125 3.38173C201.301 6.55737 206.449 6.55737 209.625 3.38173C212.801 0.206091 217.949 0.206091 221.125 3.38173C224.301 6.55737 229.449 6.55737 232.625 3.38173C235.801 0.206091 240.949 0.206091 244.125 3.38173C245.745 5.00134 247.877 5.79493 250 5.7625C252.123 5.79493 254.255 5.00134 255.875 3.38173C259.051 0.206091 264.199 0.206091 267.375 3.38173C270.551 6.55737 275.699 6.55737 278.875 3.38173C282.051 0.206091 287.199 0.206091 290.375 3.38173C293.551 6.55737 298.699 6.55737 301.875 3.38173C305.051 0.206091 310.199 0.206091 313.375 3.38173C316.551 6.55737 321.699 6.55737 324.875 3.38173C328.051 0.206091 333.199 0.206091 336.375 3.38173C339.551 6.55737 344.699 6.55737 347.875 3.38173C351.051 0.206091 356.199 0.206091 359.375 3.38173C362.551 6.55737 367.699 6.55737 370.875 3.38173C374.051 0.206091 379.199 0.206091 382.375 3.38173C385.551 6.55737 390.699 6.55737 393.875 3.38173C397.051 0.206091 402.199 0.206091 405.375 3.38173C408.551 6.55737 413.699 6.55737 416.875 3.38173C420.051 0.206091 425.199 0.206091 428.375 3.38173C431.551 6.55737 436.699 6.55737 439.875 3.38173C443.051 0.206091 448.199 0.206091 451.375 3.38173C454.551 6.55737 459.699 6.55737 462.875 3.38173C466.051 0.206091 471.199 0.206091 474.375 3.38173C475.931 4.93776 477.961 5.73135 480 5.7625C482.039 5.73135 484.069 4.93776 485.625 3.38173C488.801 0.206091 493.949 0.206091 497.125 3.38173C500.301 6.55737 505.449 6.55737 508.625 3.38173C511.801 0.206091 516.949 0.206091 520.125 3.38173C523.301 6.55737 528.449 6.55737 531.625 3.38173C534.801 0.206091 539.949 0.206091 543.125 3.38173C546.301 6.55737 551.449 6.55737 554.625 3.38173C557.801 0.206091 562.949 0.206091 566.125 3.38173C569.301 6.55737 574.449 6.55737 577.625 3.38173C580.801 0.206091 585.949 0.206091 589.125 3.38173C592.301 6.55737 597.449 6.55737 600.625 3.38173C603.801 0.206091 608.949 0.206091 612.125 3.38173C615.301 6.55737 620.449 6.55737 623.625 3.38173C626.801 0.206091 631.949 0.206091 635.125 3.38173C638.301 6.55737 643.449 6.55737 646.625 3.38173C649.801 0.206091 654.949 0.206091 658.125 3.38173C661.301 6.55737 666.449 6.55737 669.625 3.38173C672.801 0.206091 677.949 0.206091 681.125 3.38173C684.301 6.55737 689.449 6.55737 692.625 3.38173C695.801 0.206091 700.949 0.206091 704.125 3.38173C707.301 6.55737 712.449 6.55737 715.625 3.38173C718.801 0.206091 723.949 0.206091 727.125 3.38173L730 6.25673" stroke="#FF2F85" stroke-width="2" stroke-linecap="round" stroke-linejoin="round"/>
</g>
<defs>
<clipPath id="clip0_4734_1131">
<rect width="500" height="7" fill="white"/>
</clipPath>
</defs>
</svg>
