<svg width="800" height="7" viewBox="0 0 800 7" fill="none" xmlns="http://www.w3.org/2000/svg">
<g clip-path="url(#clip0_4734_1122)">
<path d="M-80 6.25673L-77.125 3.38173C-73.9494 0.206091 -68.8006 0.206091 -65.625 3.38173C-62.4494 6.55737 -57.3006 6.55737 -54.125 3.38173C-50.9494 0.206091 -45.8006 0.206091 -42.625 3.38173C-39.4494 6.55737 -34.3006 6.55737 -31.125 3.38173C-27.9494 0.206091 -22.8006 0.206091 -19.625 3.38173C-16.4494 6.55737 -11.3006 6.55737 -8.125 3.38173C-4.94936 0.206091 0.199364 0.206091 3.375 3.38173C6.55064 6.55737 11.6994 6.55737 14.875 3.38173C18.0506 0.206091 23.1994 0.206091 26.375 3.38173C29.5506 6.55737 34.6994 6.55737 37.875 3.38173C41.0506 0.206091 46.1994 0.206091 49.375 3.38173C52.5506 6.55737 57.6994 6.55737 60.875 3.38173C64.0506 0.206091 69.1994 0.206091 72.375 3.38173C75.5506 6.55737 80.6994 6.55737 83.875 3.38173C87.0506 0.206091 92.1994 0.206091 95.375 3.38173C98.5506 6.55737 103.699 6.55737 106.875 3.38173C110.051 0.206091 115.199 0.206091 118.375 3.38173C121.551 6.55737 126.699 6.55737 129.875 3.38173C133.051 0.206091 138.199 0.206091 141.375 3.38173C144.551 6.55737 149.699 6.55737 152.875 3.38173C156.051 0.206091 161.199 0.206091 164.375 3.38173C165.931 4.93776 167.961 5.73135 170 5.7625C172.039 5.73135 174.069 4.93776 175.625 3.38173C178.801 0.206091 183.949 0.206091 187.125 3.38173C190.301 6.55737 195.449 6.55737 198.625 3.38173C201.801 0.206091 206.949 0.206091 210.125 3.38173C213.301 6.55737 218.449 6.55737 221.625 3.38173C224.801 0.206091 229.949 0.206091 233.125 3.38173C236.301 6.55737 241.449 6.55737 244.625 3.38173C247.801 0.206091 252.949 0.206091 256.125 3.38173C259.301 6.55737 264.449 6.55737 267.625 3.38173C270.801 0.206091 275.949 0.206091 279.125 3.38173C282.301 6.55737 287.449 6.55737 290.625 3.38173C293.801 0.206091 298.949 0.206091 302.125 3.38173C305.301 6.55737 310.449 6.55737 313.625 3.38173C316.801 0.206091 321.949 0.206091 325.125 3.38173C328.301 6.55737 333.449 6.55737 336.625 3.38173C339.801 0.206091 344.949 0.206091 348.125 3.38173C351.301 6.55737 356.449 6.55737 359.625 3.38173C362.801 0.206091 367.949 0.206091 371.125 3.38173C374.301 6.55737 379.449 6.55737 382.625 3.38173C385.801 0.206091 390.949 0.206091 394.125 3.38173C395.745 5.00134 397.877 5.79493 400 5.7625C402.123 5.79493 404.255 5.00134 405.875 3.38173C409.051 0.206091 414.199 0.206091 417.375 3.38173C420.551 6.55737 425.699 6.55737 428.875 3.38173C432.051 0.206091 437.199 0.206091 440.375 3.38173C443.551 6.55737 448.699 6.55737 451.875 3.38173C455.051 0.206091 460.199 0.206091 463.375 3.38173C466.551 6.55737 471.699 6.55737 474.875 3.38173C478.051 0.206091 483.199 0.206091 486.375 3.38173C489.551 6.55737 494.699 6.55737 497.875 3.38173C501.051 0.206091 506.199 0.206091 509.375 3.38173C512.551 6.55737 517.699 6.55737 520.875 3.38173C524.051 0.206091 529.199 0.206091 532.375 3.38173C535.551 6.55737 540.699 6.55737 543.875 3.38173C547.051 0.206091 552.199 0.206091 555.375 3.38173C558.551 6.55737 563.699 6.55737 566.875 3.38173C570.051 0.206091 575.199 0.206091 578.375 3.38173C581.551 6.55737 586.699 6.55737 589.875 3.38173C593.051 0.206091 598.199 0.206091 601.375 3.38173C604.551 6.55737 609.699 6.55737 612.875 3.38173C616.051 0.206091 621.199 0.206091 624.375 3.38173C625.931 4.93776 627.961 5.73135 630 5.7625C632.039 5.73135 634.069 4.93776 635.625 3.38173C638.801 0.206091 643.949 0.206091 647.125 3.38173C650.301 6.55737 655.449 6.55737 658.625 3.38173C661.801 0.206091 666.949 0.206091 670.125 3.38173C673.301 6.55737 678.449 6.55737 681.625 3.38173C684.801 0.206091 689.949 0.206091 693.125 3.38173C696.301 6.55737 701.449 6.55737 704.625 3.38173C707.801 0.206091 712.949 0.206091 716.125 3.38173C719.301 6.55737 724.449 6.55737 727.625 3.38173C730.801 0.206091 735.949 0.206091 739.125 3.38173C742.301 6.55737 747.449 6.55737 750.625 3.38173C753.801 0.206091 758.949 0.206091 762.125 3.38173C765.301 6.55737 770.449 6.55737 773.625 3.38173C776.801 0.206091 781.949 0.206091 785.125 3.38173C788.301 6.55737 793.449 6.55737 796.625 3.38173C799.801 0.206091 804.949 0.206091 808.125 3.38173C811.301 6.55737 816.449 6.55737 819.625 3.38173C822.801 0.206091 827.949 0.206091 831.125 3.38173C834.301 6.55737 839.449 6.55737 842.625 3.38173C845.801 0.206091 850.949 0.206091 854.125 3.38173C857.301 6.55737 862.449 6.55737 865.625 3.38173C868.801 0.206091 873.949 0.206091 877.125 3.38173L880 6.25673" stroke="#FFF3E1" stroke-width="2" stroke-linecap="round" stroke-linejoin="round"/>
</g>
<defs>
<clipPath id="clip0_4734_1122">
<rect width="800" height="7" fill="white"/>
</clipPath>
</defs>
</svg>
