<svg width="232" height="195" viewBox="0 0 232 195" fill="none" xmlns="http://www.w3.org/2000/svg">
<path d="M1.0001 193.774L1 1L230.254 1.4104C234.895 31.9629 201.238 47.3809 186.153 36.8034C174.518 64.6367 137.042 73.577 108.675 63.168C112.875 84.3987 99.4414 111.625 67.2333 118.06C79.0454 157.931 48.6529 197.316 1.0001 193.774Z" fill="#8BE3FF"/>
<path d="M108.675 63.168C137.042 73.577 174.518 64.6367 186.153 36.8034C201.238 47.3809 234.895 31.9629 230.254 1.4104L1 1L1.0001 193.774C48.6529 197.316 79.0454 157.931 67.2333 118.06M108.675 63.168C99.8457 59.928 91.8985 54.8133 85.888 47.8101M108.675 63.168C112.875 84.3987 99.4414 111.625 67.2333 118.06M67.2333 118.06C65.0308 110.626 61.3609 103.174 56.0619 95.9815M39.505 77.1344C43.7917 81.655 47.5395 90.261 46.8663 98.2827M46.8663 98.2827C46.1321 107.032 39.84 118.222 26.7203 120.59M46.8663 98.2827C51.5141 98.3823 61.9513 96.1574 62.3211 83.9463M171.394 29.5436C176.978 39.6901 194.092 40.194 197.086 24.0329M64.7389 55.171C78.1224 58.3014 92.022 46.923 88.757 32.407M88.757 32.407C88.2374 30.0967 87.2829 27.7068 85.8223 25.2833M88.757 32.407C88.7454 32.3963 88.7338 32.3855 88.7224 32.3747M88.757 32.407C92.934 36.2716 106.361 37.2397 109.335 26.7269" stroke="#1C0F00" stroke-linecap="round" stroke-linejoin="round"/>
<path d="M102.448 80.9588L102.207 83.0021C101.582 88.3109 97.5905 92.5959 92.3537 93.6054C97.5903 94.6146 101.587 98.8955 102.22 104.203L102.453 106.146C102.456 106.171 102.461 106.183 102.464 106.188C102.466 106.192 102.469 106.195 102.472 106.198C102.48 106.204 102.499 106.214 102.529 106.214C102.559 106.214 102.578 106.204 102.586 106.198C102.587 106.197 102.588 106.196 102.589 106.194C102.591 106.193 102.592 106.19 102.594 106.188C102.596 106.183 102.602 106.171 102.605 106.146L102.837 104.203C103.471 98.8954 107.467 94.6146 112.704 93.6054C107.467 92.5959 103.476 88.3109 102.85 83.0021L102.61 80.9588C102.607 80.9333 102.601 80.9204 102.598 80.9153C102.595 80.9101 102.592 80.9068 102.589 80.9039C102.58 80.8971 102.56 80.8869 102.529 80.8869C102.498 80.8869 102.477 80.8971 102.469 80.9039C102.465 80.9068 102.463 80.9101 102.46 80.9153C102.457 80.9204 102.451 80.9333 102.448 80.9588Z" fill="#FFE900" stroke="#1C0F00" stroke-linejoin="round"/>
</svg>
