<svg width="300" height="178" viewBox="0 0 300 178" fill="none" xmlns="http://www.w3.org/2000/svg">

<path d="M293.497 132.767C302.497 111.767 301.497 84.7664 274.997 68.7664C265.716 63.1629 256.736 60.9324 248.97 60.5311C246.055 35.9307 223.837 30.3083 213.367 32.8004C204.093 16.3579 182.57 -1.39434 139.997 1.26648C87.6556 4.53781 67.9587 42.7382 63.4228 66.569C15.63 49.2831 -16.1807 109.718 10.9972 144.267C33.9612 173.458 71.414 163.788 82.46 150.81C94.817 163.054 115.923 175.94 146.497 176.767C182.654 177.744 203.802 163.313 213.288 151.891C250.191 175.611 285.103 152.353 293.497 132.767Z" fill="#8BE3FF"/>
<path d="M75.9966 72.7666C71.7066 70.0903 67.5064 68.0459 63.4228 66.569M217.997 144.767C217.007 146.84 215.451 149.287 213.288 151.891M70.9971 135.767C73.0731 139.867 76.8719 145.273 82.46 150.81M226.997 64.7664C231.026 62.5175 238.996 60.0158 248.97 60.5311M213.367 32.8004C204.093 16.3579 182.57 -1.39434 139.997 1.26648C87.6556 4.53781 67.9587 42.7382 63.4228 66.569M213.367 32.8004C216.641 38.604 218.388 44.2445 218.997 48.7665M213.367 32.8004C223.837 30.3083 246.055 35.9307 248.97 60.5311M63.4228 66.569C15.63 49.2831 -16.1807 109.718 10.9972 144.267C33.9612 173.458 71.414 163.788 82.46 150.81M248.97 60.5311C256.736 60.9324 265.716 63.1629 274.997 68.7664C301.497 84.7664 302.497 111.767 293.497 132.767C285.103 152.353 250.191 175.611 213.288 151.891M213.288 151.891C203.802 163.313 182.654 177.744 146.497 176.767C115.923 175.94 94.817 163.054 82.46 150.81" stroke="#1C0F00" stroke-width="2" stroke-linecap="round" stroke-linejoin="round"/>
</svg>
