<svg width="122" height="74" viewBox="0 0 122 74" fill="none" xmlns="http://www.w3.org/2000/svg">
<path d="M118.742 55.472C122.322 47.119 122.323 32.8623 109.197 24.937C103.26 21.3524 96.0129 21.238 91.2484 22.0394C88.6641 11.234 75.4161 0.0111411 58.482 1.06952C37.6625 2.37074 29.031 19.6619 27.2268 29.141C8.2165 22.2653 -6.35321 43.7383 4.983 58.1488C13.5272 69.0102 29.3859 65.8357 33.1349 60.8636C37.6957 66.1785 46.6059 72.6044 60.2708 72.9737C74.653 73.3624 83.0647 67.6224 86.8379 63.0791C101.517 72.514 115.403 63.2629 118.742 55.472Z" fill="#8BE3FF"/>
<path d="M32.2282 31.6062C30.5218 30.5416 28.8511 29.7285 27.2268 29.141M88.711 60.2452C88.3172 61.0698 87.6981 62.0433 86.8379 63.0791M30.2396 56.6653C30.8395 57.8503 31.8013 59.3095 33.1349 60.8636M86.8379 23.3459C87.6816 22.8751 89.2456 22.3763 91.2484 22.0394M91.2484 22.0394C88.6641 11.234 75.4161 0.0111411 58.482 1.06952C37.6625 2.37074 29.031 19.6619 27.2268 29.141M91.2484 22.0394C96.0129 21.238 103.26 21.3524 109.197 24.937C122.323 32.8623 122.322 47.119 118.742 55.472C115.403 63.2629 101.517 72.514 86.8379 63.0791M27.2268 29.141C8.2165 22.2653 -6.35321 43.7382 4.983 58.1488C13.5272 69.0102 29.3859 65.8357 33.1349 60.8636M86.8379 63.0791C83.0647 67.6224 74.653 73.3624 60.2708 72.9737C46.6059 72.6044 37.6957 66.1785 33.1349 60.8636" stroke="#1C0F00" stroke-linecap="round" stroke-linejoin="round"/>
<path d="M44.1627 33.6248C42.3727 29.1467 31.2353 27.6591 30.6387 37.0066" stroke="#1C0F00" stroke-linecap="round" stroke-linejoin="round"/>
<path d="M91.1447 35.2773C92.3279 31.4852 90.6714 24.6592 84.0453 22.0047C75.7627 18.6866 69.1367 24.024 68.4268 27.3422" stroke="#1C0F00" stroke-linecap="round" stroke-linejoin="round"/>
</svg>
