<svg width="153" height="91" viewBox="0 0 153 91" fill="none" xmlns="http://www.w3.org/2000/svg">
<path d="M149.062 67.7001C153.617 57.0699 153.111 43.4024 139.697 35.3033C134.999 32.4668 130.453 31.3377 126.522 31.1346C125.047 18.6819 113.8 15.8358 108.5 17.0973C103.805 8.77417 92.9105 -0.212012 71.3601 1.13489C44.865 2.79084 34.8944 22.1278 32.5983 34.1909C8.40569 25.4408 -7.69685 56.0331 6.06055 73.5213C17.6849 88.2981 36.6435 83.4031 42.2349 76.8335C48.49 83.0316 59.174 89.5545 74.6504 89.9728C92.9532 90.4675 103.658 83.1627 108.46 77.3808C127.14 89.3877 144.812 77.6147 149.062 67.7001Z" fill="#8BE3FF"/>
<path d="M38.9632 37.3282C36.7916 35.9734 34.6654 34.9385 32.5983 34.1909M110.844 73.7744C110.342 74.8238 109.555 76.0627 108.46 77.3808M36.4324 69.2187C37.4833 71.2941 39.4062 74.0306 42.2349 76.8335M115.399 33.2785C117.439 32.1401 121.473 30.8737 126.522 31.1346M108.5 17.0973C103.805 8.77417 92.9105 -0.212012 71.3601 1.13489C44.865 2.79084 34.8944 22.1278 32.5983 34.1909M108.5 17.0973C110.157 20.0351 111.042 22.8903 111.35 25.1793M108.5 17.0973C113.8 15.8358 125.047 18.6819 126.522 31.1346M32.5983 34.1909C8.40569 25.4408 -7.69685 56.0331 6.06055 73.5213C17.6849 88.2981 36.6435 83.4031 42.2349 76.8335M126.522 31.1346C130.453 31.3377 134.999 32.4668 139.697 35.3033C153.111 43.4024 153.617 57.0699 149.062 67.7001C144.812 77.6147 127.14 89.3877 108.46 77.3808M108.46 77.3808C103.658 83.1627 92.9532 90.4675 74.6504 89.9728C59.174 89.5545 48.49 83.0316 42.2349 76.8335" stroke="#1C0F00" stroke-linecap="round" stroke-linejoin="round"/>
<path d="M84.0161 51.1135C85.7943 48.0378 88.6591 44.9268 93.1279 44.0268M108.774 51.9025C105.405 45.0559 98.0021 43.0452 93.1279 44.0268M93.1279 44.0268C93.1279 41.2427 89.8999 36.3796 83.2012 38.1101" stroke="#1C0F00" stroke-linecap="round" stroke-linejoin="round"/>
<path d="M31.045 52.1261C30.412 49.304 31.1721 41.7781 38.0085 38.0153C44.8448 34.2525 53.2004 36.1339 56.6818 39.2697" stroke="#1C0F00" stroke-linecap="round" stroke-linejoin="round"/>
</svg>
