<svg width="531" height="627" viewBox="0 0 531 627" fill="none" xmlns="http://www.w3.org/2000/svg">
<path d="M1.0001 193.774L1 1L230.254 1.4104C234.895 31.9629 201.238 47.3809 186.153 36.8034C174.518 64.6367 137.042 73.577 108.675 63.168C112.875 84.3987 99.4414 111.625 67.2333 118.06C79.0454 157.931 48.6529 197.316 1.0001 193.774Z" fill="#8BE3FF"/>
<path d="M108.675 63.168C137.042 73.577 174.518 64.6367 186.153 36.8034C201.238 47.3809 234.895 31.9629 230.254 1.4104L1 1L1.0001 193.774C48.6529 197.316 79.0454 157.931 67.2333 118.06M108.675 63.168C99.8457 59.928 91.8985 54.8133 85.888 47.8101M108.675 63.168C112.875 84.3987 99.4414 111.625 67.2333 118.06M67.2333 118.06C65.0308 110.626 61.3609 103.174 56.0619 95.9815M39.505 77.1344C43.7917 81.655 47.5395 90.261 46.8663 98.2827M46.8663 98.2827C46.1321 107.032 39.84 118.222 26.7203 120.59M46.8663 98.2827C51.5141 98.3823 61.9513 96.1574 62.3211 83.9463M171.394 29.5436C176.978 39.6901 194.092 40.194 197.086 24.0329M64.7389 55.171C78.1224 58.3014 92.022 46.923 88.757 32.407M88.757 32.407C88.2374 30.0967 87.2829 27.7068 85.8223 25.2833M88.757 32.407C88.7454 32.3963 88.7338 32.3855 88.7224 32.3747M88.757 32.407C92.934 36.2716 106.361 37.2397 109.335 26.7269" stroke="#1C0F00" stroke-linecap="round" stroke-linejoin="round"/>
<path d="M102.448 80.9588L102.207 83.0021C101.582 88.3109 97.5905 92.5959 92.3537 93.6054C97.5903 94.6146 101.587 98.8955 102.22 104.203L102.453 106.146C102.456 106.171 102.461 106.183 102.464 106.188C102.466 106.192 102.469 106.195 102.472 106.198C102.48 106.204 102.499 106.214 102.529 106.214C102.559 106.214 102.578 106.204 102.586 106.198C102.587 106.197 102.588 106.196 102.589 106.194C102.591 106.193 102.592 106.19 102.594 106.188C102.596 106.183 102.602 106.171 102.605 106.146L102.837 104.203C103.471 98.8954 107.467 94.6146 112.704 93.6054C107.467 92.5959 103.476 88.3109 102.85 83.0021L102.61 80.9588C102.607 80.9333 102.601 80.9204 102.598 80.9153C102.595 80.9101 102.592 80.9068 102.589 80.9039C102.58 80.8971 102.56 80.8869 102.529 80.8869C102.498 80.8869 102.477 80.8971 102.469 80.9039C102.465 80.9068 102.463 80.9101 102.46 80.9153C102.457 80.9204 102.451 80.9333 102.448 80.9588Z" fill="#FFE900" stroke="#1C0F00" stroke-linejoin="round"/>
<path d="M530.379 193.774L530.379 1L301.125 1.4104C296.484 31.9629 330.141 47.3809 345.226 36.8034C356.861 64.6367 394.337 73.577 422.704 63.168C418.504 84.3987 431.937 111.625 464.146 118.06C452.334 157.931 482.726 197.316 530.379 193.774Z" fill="#8BE3FF"/>
<path d="M422.704 63.168C394.337 73.577 356.861 64.6367 345.226 36.8034C330.141 47.3809 296.484 31.9629 301.125 1.4104L530.379 1L530.379 193.774C482.726 197.316 452.334 157.931 464.146 118.06M422.704 63.168C431.533 59.928 439.48 54.8133 445.491 47.8101M422.704 63.168C418.504 84.3987 431.937 111.625 464.146 118.06M464.146 118.06C466.348 110.626 470.018 103.174 475.317 95.9815M491.874 77.1344C487.587 81.655 483.839 90.261 484.513 98.2827M484.513 98.2827C485.247 107.032 491.539 118.222 504.659 120.59M484.513 98.2827C479.865 98.3823 469.428 96.1574 469.058 83.9463M359.985 29.5436C354.401 39.6901 337.286 40.194 334.293 24.0329M466.64 55.171C453.256 58.3014 439.357 46.923 442.622 32.407M442.622 32.407C443.142 30.0967 444.096 27.7068 445.557 25.2833M442.622 32.407C442.634 32.3963 442.645 32.3855 442.657 32.3747M442.622 32.407C438.445 36.2716 425.018 37.2397 422.044 26.7269" stroke="#1C0F00" stroke-linecap="round" stroke-linejoin="round"/>
<path d="M361.609 42.9588L361.368 45.0021C360.742 50.3109 356.751 54.5959 351.514 55.6054C356.751 56.6146 360.747 60.8955 361.381 66.203L361.613 68.1462C361.616 68.1709 361.622 68.1831 361.624 68.1878C361.627 68.1925 361.63 68.1953 361.633 68.1979C361.64 68.204 361.66 68.2139 361.689 68.2139C361.719 68.2139 361.739 68.204 361.746 68.1979C361.747 68.1968 361.749 68.1957 361.75 68.1944C361.751 68.1926 361.753 68.1905 361.754 68.1878C361.757 68.1831 361.763 68.1709 361.766 68.1462L361.998 66.203C362.632 60.8954 366.628 56.6146 371.865 55.6054C366.628 54.5959 362.637 50.3109 362.011 45.0021L361.77 42.9588C361.767 42.9333 361.761 42.9204 361.759 42.9153C361.756 42.9101 361.753 42.9068 361.749 42.9039C361.741 42.8971 361.72 42.8869 361.689 42.8869C361.658 42.8869 361.638 42.8971 361.63 42.9039C361.626 42.9068 361.623 42.9101 361.62 42.9153C361.618 42.9204 361.612 42.9333 361.609 42.9588Z" fill="#FFE900" stroke="#1C0F00" stroke-linejoin="round"/>
<path fill-rule="evenodd" clip-rule="evenodd" d="M102.25 468.48C102.25 468.215 102.035 468 101.77 468C101.505 468 101.29 468.215 101.29 468.48L101.29 472.641C101.29 474.232 100.001 475.522 98.4101 475.522L96.1695 475.522C95.9044 475.522 95.6895 475.737 95.6895 476.002C95.6895 476.267 95.9044 476.482 96.1695 476.482H98.4101C100.001 476.482 101.29 477.771 101.29 479.362L101.29 483.523C101.29 483.789 101.505 484.004 101.77 484.004C102.035 484.004 102.25 483.789 102.25 483.523V479.362C102.25 477.771 103.54 476.482 105.131 476.482H107.371C107.636 476.482 107.851 476.267 107.851 476.002C107.851 475.737 107.636 475.522 107.371 475.522L105.131 475.522C103.54 475.522 102.25 474.232 102.25 472.641V468.48Z" fill="#1C0F00"/>
<path fill-rule="evenodd" clip-rule="evenodd" d="M266.25 111.48C266.25 111.215 266.035 111 265.77 111C265.505 111 265.29 111.215 265.29 111.48L265.29 115.641C265.29 117.232 264.001 118.522 262.41 118.522L260.169 118.522C259.904 118.522 259.689 118.737 259.689 119.002C259.689 119.267 259.904 119.482 260.169 119.482H262.41C264.001 119.482 265.29 120.771 265.29 122.362L265.29 126.523C265.29 126.789 265.505 127.004 265.77 127.004C266.035 127.004 266.25 126.789 266.25 126.523V122.362C266.25 120.771 267.54 119.482 269.131 119.482H271.371C271.636 119.482 271.851 119.267 271.851 119.002C271.851 118.737 271.636 118.522 271.371 118.522L269.131 118.522C267.54 118.522 266.25 117.232 266.25 115.641V111.48Z" fill="#1C0F00"/>
<path fill-rule="evenodd" clip-rule="evenodd" d="M424.396 311.495C424.396 311.221 424.175 311 423.902 311C423.629 311 423.407 311.221 423.407 311.495V321.058C423.407 323.79 421.192 326.004 418.46 326.004L413.184 326.004C412.911 326.004 412.689 326.226 412.689 326.499C412.689 326.772 412.911 326.994 413.184 326.994L418.46 326.994C421.192 326.994 423.407 329.208 423.407 331.94V341.504C423.407 341.777 423.629 341.998 423.902 341.998C424.175 341.998 424.396 341.777 424.396 341.504V331.94C424.396 329.208 426.611 326.994 429.343 326.994L434.619 326.994C434.892 326.994 435.114 326.772 435.114 326.499C435.114 326.226 434.892 326.004 434.619 326.004L429.343 326.004C426.611 326.004 424.396 323.79 424.396 321.058V311.495Z" fill="#1C0F00"/>
<path d="M422.059 605.675L422.189 604.507L422.32 605.675C422.745 609.485 425.471 612.611 429.132 613.581C425.471 614.551 422.741 617.675 422.31 621.483L422.189 622.553L422.068 621.483C421.637 617.675 418.908 614.551 415.247 613.581C418.908 612.611 421.634 609.485 422.059 605.675Z" fill="#FFE900" stroke="#1C0F00" stroke-linejoin="round"/>
</svg>
