<svg width="232" height="195" viewBox="0 0 232 195" fill="none" xmlns="http://www.w3.org/2000/svg">
<path d="M230.689 193.774L230.689 1L1.43564 1.4104C-3.20568 31.9629 30.4513 47.3809 45.5367 36.8034C57.1714 64.6367 94.6473 73.577 123.014 63.168C118.815 84.3987 132.248 111.625 164.456 118.06C152.644 157.931 183.037 197.316 230.689 193.774Z" fill="#8BE3FF"/>
<path d="M123.014 63.168C94.6473 73.577 57.1714 64.6367 45.5367 36.8034C30.4513 47.3809 -3.20568 31.9629 1.43564 1.4104L230.689 1L230.689 193.774C183.037 197.316 152.644 157.931 164.456 118.06M123.014 63.168C131.844 59.928 139.791 54.8133 145.801 47.8101M123.014 63.168C118.815 84.3987 132.248 111.625 164.456 118.06M164.456 118.06C166.659 110.626 170.329 103.174 175.628 95.9815M192.184 77.1344C187.898 81.655 184.15 90.261 184.823 98.2827M184.823 98.2827C185.557 107.032 191.849 118.222 204.969 120.59M184.823 98.2827C180.175 98.3823 169.738 96.1574 169.368 83.9463M60.2951 29.5436C54.7111 39.6901 37.597 40.194 34.6039 24.0329M166.951 55.171C153.567 58.3014 139.667 46.923 142.932 32.407M142.932 32.407C143.452 30.0967 144.407 27.7068 145.867 25.2833M142.932 32.407C142.944 32.3963 142.956 32.3855 142.967 32.3747M142.932 32.407C138.755 36.2716 125.329 37.2397 122.354 26.7269" stroke="#1C0F00" stroke-linecap="round" stroke-linejoin="round"/>
<path d="M61.9192 42.9588L61.6784 45.0021C61.0528 50.3109 57.0617 54.5959 51.8249 55.6054C57.0615 56.6146 61.0577 60.8955 61.6917 66.203L61.9238 68.1462C61.9267 68.1709 61.9325 68.1831 61.935 68.1878C61.9376 68.1925 61.9402 68.1953 61.9433 68.1979C61.9509 68.204 61.9701 68.2139 62 68.2139C62.0299 68.2139 62.0491 68.204 62.0567 68.1979C62.058 68.1968 62.0593 68.1957 62.0604 68.1944C62.062 68.1926 62.0635 68.1905 62.065 68.1878C62.0675 68.1831 62.0733 68.1709 62.0762 68.1462L62.3083 66.203C62.9423 60.8954 66.9385 56.6146 72.1751 55.6054C66.9383 54.5959 62.9472 50.3109 62.3216 45.0021L62.0808 42.9588C62.0778 42.9333 62.0719 42.9204 62.0691 42.9153C62.0663 42.9101 62.0633 42.9068 62.0598 42.9039C62.0514 42.8971 62.031 42.8869 62 42.8869C61.969 42.8869 61.9486 42.8971 61.9402 42.9039C61.9367 42.9068 61.9337 42.9101 61.9309 42.9153C61.9281 42.9204 61.9222 42.9333 61.9192 42.9588Z" fill="#FFE900" stroke="#1C0F00" stroke-linejoin="round"/>
</svg>
