<svg width="162" height="97" viewBox="0 0 162 97" fill="none" xmlns="http://www.w3.org/2000/svg">
<path d="M4.8744 72.3572C13.9994 89.033 36.6036 85.889 43.4754 78.2606C49.8914 85.7343 62.4259 94.7701 81.6494 95.2895C103.159 95.8705 115.175 86.7115 119.951 80.1889C125.028 85.5746 146.92 84.82 156.482 70.4832C168.434 52.5622 156.482 20.1786 122.882 27.8138C117.145 13.8061 100.473 1 79.7346 1C50.9916 1 39.2659 20.3795 36.6036 33.698C13.5116 26.6604 -8.02192 48.7894 4.8744 72.3572Z" fill="#8BE3FF"/>
<path d="M49.5391 41.2437C45.4375 37.4982 41.0343 35.0483 36.6036 33.698M121.658 77.3911C121.258 78.2295 120.691 79.1775 119.951 80.1889M39.4022 72.3572C40.2463 74.0234 41.5992 76.0752 43.4754 78.2606M125.028 38.0996C125.028 34.7116 124.279 31.227 122.882 27.8138M43.4754 78.2606C36.6036 85.889 13.9994 89.033 4.8744 72.3572C-8.02193 48.7894 13.5116 26.6604 36.6036 33.698M43.4754 78.2606C49.8914 85.7343 62.4259 94.7701 81.6494 95.2895C103.159 95.8705 115.175 86.7115 119.951 80.1889M119.951 80.1889C125.028 85.5746 146.92 84.82 156.482 70.4832C168.434 52.5622 156.482 20.1786 122.882 27.8138M122.882 27.8138C117.145 13.8061 100.473 1 79.7346 1C50.9917 1 39.2659 20.3795 36.6036 33.698" stroke="#1C0F00" stroke-width="1.5" stroke-linecap="round" stroke-linejoin="round"/>
<path d="M94.6555 46.0767C95.5109 42.5872 101.945 34.2988 111.635 33.8896C121.324 33.4805 128.155 40.5256 130.297 45.938" stroke="#1C0F00" stroke-width="1.5" stroke-linecap="round" stroke-linejoin="round"/>
</svg>
