<svg width="82" height="82" viewBox="0 0 82 82" fill="none" xmlns="http://www.w3.org/2000/svg">
<rect x="-1" y="1" width="80" height="80" rx="40" transform="matrix(-1 0 0 1 80 0)" stroke="#1C0F00" stroke-width="2"/>
<path fill-rule="evenodd" clip-rule="evenodd" d="M31 27C31 24.2386 33.2386 22 36 22H55C57.7614 22 60 24.2386 60 27V46C60 48.7614 57.7614 51 55 51H54V36C54 31.5817 50.4183 28 46 28H31V27ZM27 31C24.2386 31 22 33.2386 22 36V55C22 57.7614 24.2386 60 27 60H46C48.7614 60 51 57.7614 51 55V36C51 33.2386 48.7614 31 46 31H27Z" fill="#1C0F00"/>
</svg>
