<svg width="82" height="82" viewBox="0 0 82 82" fill="none" xmlns="http://www.w3.org/2000/svg">
<rect x="-1" y="1" width="80" height="80" rx="40" transform="matrix(-1 0 0 1 80 0)" stroke="#1C0F00" stroke-width="2"/>
<path d="M31.7578 58C31.2027 58 30.771 57.7379 30.4626 57.2136C30.1542 56.6893 30.1542 56.1497 30.4626 55.5946C30.6476 55.2553 30.9868 55.024 31.4803 54.9007C32.1279 54.7465 32.5596 54.4227 32.7755 53.9293C32.9914 53.4358 33.0993 52.7728 33.0993 51.9401V38.9878C33.0993 38.371 33.0376 37.8467 32.9143 37.415C32.7909 36.9832 32.3746 36.7673 31.6653 36.7673C31.0485 36.7673 30.6168 36.6132 30.3701 36.3048C30.1234 35.9655 30 35.58 30 35.1483C30 34.6857 30.1542 34.2848 30.4626 33.9456C30.8018 33.6063 31.2027 33.4367 31.6653 33.4367H32.3129C31.3878 32.234 30.9252 31.0313 30.9252 29.8286C30.9252 28.6567 31.249 27.7007 31.8966 26.9605C32.5751 26.1896 33.4385 25.5882 34.4871 25.1565C35.5356 24.7247 36.6921 24.4317 37.9565 24.2776C39.2517 24.0925 40.5161 24 41.7497 24C43.0449 24 44.2939 24.1079 45.4966 24.3238C46.7302 24.5397 47.8095 24.8635 48.7347 25.2952C49.6907 25.6961 50.4463 26.1896 51.0014 26.7755C51.5873 27.3615 51.8803 28.0245 51.8803 28.7646C51.8803 29.659 51.5873 30.3837 51.0014 30.9388C50.4154 31.4939 49.6444 31.7714 48.6884 31.7714C47.8866 31.7714 47.2236 31.6018 46.6993 31.2626C46.1751 30.9234 45.5583 30.322 44.849 29.4585C44.7256 29.2735 44.556 29.0268 44.3401 28.7184C44.1243 28.3791 43.8776 28.0553 43.6 27.7469C43.3224 27.4077 43.0141 27.1147 42.6748 26.868C42.3664 26.6213 42.0272 26.498 41.6571 26.498C40.9787 26.498 40.4853 26.6676 40.1769 27.0068C39.8685 27.346 39.7143 27.8086 39.7143 28.3946C39.7143 28.7646 39.8222 29.181 40.0381 29.6435C40.254 30.1061 40.5161 30.5841 40.8245 31.0776C41.1637 31.5401 41.5338 31.9873 41.9347 32.419C42.3356 32.82 42.7365 33.1592 43.1374 33.4367H47.5782C48.0408 33.4367 48.4263 33.6063 48.7347 33.9456C49.0739 34.254 49.2435 34.6395 49.2435 35.102C49.2435 35.5646 49.0739 35.9655 48.7347 36.3048C48.4263 36.6132 48.0408 36.7673 47.5782 36.7673H43.785V51.3388C43.785 51.5855 43.785 51.9093 43.785 52.3102C43.785 52.7111 43.8621 53.112 44.0163 53.5129C44.2014 53.883 44.4789 54.2068 44.849 54.4844C45.2499 54.7619 45.8204 54.9007 46.5605 54.9007C46.8381 54.9007 47.1002 54.9932 47.3469 55.1782C47.5937 55.3324 47.7633 55.5329 47.8558 55.7796C47.9791 56.0263 48.0254 56.3039 47.9946 56.6122C47.9946 56.9206 47.8712 57.1982 47.6245 57.4449C47.3161 57.815 46.8689 58 46.283 58C44.9261 58 43.5846 57.9692 42.2585 57.9075C40.9324 57.8458 39.6063 57.815 38.2803 57.815C37.2009 57.815 36.1061 57.8458 34.9959 57.9075C33.9166 57.9692 32.8372 58 31.7578 58Z" fill="#1C0F00"/>
</svg>
