<svg width="913" height="608" viewBox="0 0 913 608" fill="none" xmlns="http://www.w3.org/2000/svg">
<path d="M673.567 184.64C582.01 155.389 577.284 69.2086 625.276 50.4847C649.575 41.0046 667.269 50.8232 676.689 58.7591C699.741 24.5524 771.718 43.2755 753.958 109.746C743.638 148.369 718.592 169.944 699.741 179.757C688.151 185.79 681.958 187.321 673.567 184.64Z" fill="#FF2F85"/>
<path d="M686.654 77.9137C685.719 69.488 680.897 62.304 676.689 58.7591M676.689 58.7591C667.269 50.8232 649.575 41.0046 625.276 50.4847C577.284 69.2086 582.01 155.389 673.567 184.64C681.958 187.321 688.151 185.79 699.741 179.757C718.592 169.944 743.638 148.369 753.958 109.746C771.718 43.2755 699.741 24.5524 676.689 58.7591Z" stroke="#1C0F00" stroke-width="1.5" stroke-linecap="round" stroke-linejoin="round"/>
<path d="M676.099 199.504C679.447 195.838 679.36 188.232 679.36 184.828C681.678 180.115 689.404 180.639 691.722 182.995C693.782 192.631 697.904 195.525 699.535 196.747C689.234 193.814 679.619 197.584 676.099 199.504Z" fill="#FF2F85" stroke="#1C0F00" stroke-width="1.5" stroke-linecap="round" stroke-linejoin="round"/>
<path d="M784.039 222.595C773.355 264.987 735.444 294.282 673.407 289.112" stroke="#1C0F00" stroke-width="1.5" stroke-linecap="round" stroke-linejoin="round"/>
<path d="M673.407 289.112C689.491 279.692 710.422 253.958 687.538 196.057" stroke="#1C0F00" stroke-width="1.5" stroke-linecap="round" stroke-linejoin="round"/>
<path d="M821.338 82.7506C827.037 78.7016 835.03 81.0542 837.5 87.5939C842.214 100.072 844.895 109.8 847.201 122.88C847.774 126.13 849.724 128.985 852.563 130.667C864.588 137.788 873.074 143.372 883.17 151.065C888.666 155.252 888.751 163.467 883.347 167.772C871.882 176.907 863.565 182.317 852.802 188.039C849.8 189.635 847.656 192.485 846.966 195.814C844.287 208.728 841.416 218.367 837.147 230.421C834.771 237.13 826.655 239.73 820.805 235.676C810.576 228.585 802.587 222.534 792.596 213.503C790.039 211.192 786.567 210.168 783.156 210.668C769.27 212.703 759.169 212.577 746.609 211.969C739.708 211.636 734.794 205.044 736.554 198.363C739.874 185.765 743.1 176.145 749.135 164.346C750.793 161.107 750.865 157.273 749.275 154C743.266 141.63 739.753 132.105 736.413 119.491C734.694 113.001 739.392 106.595 746.099 106.281C759.049 105.673 769.33 106.109 783.615 107.978C786.802 108.395 790.027 107.443 792.461 105.344C802.391 96.7815 810.343 90.563 821.338 82.7506Z" fill="#FFA41C" stroke="#1C0F00" stroke-width="1.5" stroke-linecap="round" stroke-linejoin="round"/>
<path d="M771.631 220.687C776.236 218.832 780.497 212.727 781.97 209.659C786.795 206.557 793.344 210.188 793.688 213.979C791.375 223.557 793.699 227.151 794.641 228.958C786.623 221.856 775.635 220.48 771.631 220.687Z" fill="#FFA41C" stroke="#1C0F00" stroke-width="1.5" stroke-linecap="round" stroke-linejoin="round"/>
<path d="M5.3126 539.67C-26.9532 498.206 130.284 494.906 195.94 459.313C257.876 425.737 290.234 407.263 339.297 401.522C388.36 395.781 462.336 413.769 502.966 431.374C543.596 448.979 553.945 432.522 606.841 431.374C659.737 430.226 669.702 441.325 696.917 459.313C724.131 477.301 852.155 468.116 896.235 504.091C940.315 540.067 851.388 561.5 823.407 566.858C795.426 572.216 776.261 569.537 705.733 594.031C635.205 618.525 652.454 561.117 591.509 589.821C530.564 618.525 483.417 590.587 413.273 597.858C343.128 605.13 296.539 620.318 233.504 581.784C188.761 554.432 46.7094 592.869 5.3126 539.67Z" fill="#00B261" stroke="#1C0F00" stroke-width="1.5" stroke-linecap="round" stroke-linejoin="round"/>
<path d="M622.054 422.146C629.636 425.937 628.602 434.553 627.224 437.655L650.315 442.135C642.733 428.694 646.524 419.044 651.349 413.53C639.976 418.355 637.103 425.477 636.184 429.039C632.048 423.524 625.615 422.031 622.054 422.146Z" fill="#00B261"/>
<path d="M626.535 438.689C627.913 435.587 629.636 425.937 622.054 422.146C625.616 422.031 632.049 423.524 636.185 429.039C637.104 425.477 639.976 418.355 651.349 413.53C646.524 419.044 642.733 428.694 650.315 442.135" stroke="#1C0F00" stroke-width="1.5" stroke-linecap="round" stroke-linejoin="round"/>
<path d="M450.42 473.498C434.911 479.702 429.626 492.454 427.673 496.589C432.843 497.968 447.801 500.518 466.274 499.691C454.211 496.589 455.934 483.148 461.104 480.391C449.8 480.391 444.216 486.48 443.182 489.697C442.631 483.355 448.008 474.877 450.42 473.498Z" fill="#00B261"/>
<path d="M427.673 496.589C429.626 492.454 434.911 479.702 450.42 473.498C448.008 474.877 442.631 483.355 443.182 489.697C444.216 486.48 449.8 480.391 461.104 480.391C455.934 483.148 454.211 496.589 466.274 499.691" stroke="#1C0F00" stroke-width="1.5" stroke-linecap="round" stroke-linejoin="round"/>
<path d="M779.213 471.775C778.661 465.434 783.997 456.266 787.14 454.887C778.33 458.411 772.693 463.358 769.218 468.329C769.635 466.605 767.839 459.368 760.257 457.3C763.359 462.47 764.738 468.26 755.087 480.391C764.738 482.229 787.829 484.941 802.993 481.081C790.931 477.979 792.654 464.537 797.824 461.78C786.519 461.78 780.247 468.558 779.213 471.775Z" fill="#00B261"/>
<path d="M802.993 481.081C790.931 477.979 792.654 464.537 797.824 461.78C786.519 461.78 779.902 469.018 778.868 473.843C778.523 463.159 784.727 456.266 787.14 454.887C778.33 458.411 772.693 463.358 769.218 468.329C769.635 466.605 767.495 458.678 759.912 457.3C763.704 460.746 764.393 471.775 755.087 480.391" stroke="#1C0F00" stroke-width="1.5" stroke-linecap="round" stroke-linejoin="round"/>
<path d="M95.0891 492.454C95.6405 486.112 90.3048 476.945 87.1622 475.566C95.9716 479.09 101.609 484.037 105.084 489.007C104.667 487.284 106.462 480.046 114.045 477.979C110.943 483.148 109.564 488.938 119.214 501.07C109.564 502.908 86.4729 505.619 71.3084 501.759C83.3711 498.657 81.6478 485.216 76.4781 482.459C87.7825 482.459 94.0551 489.237 95.0891 492.454Z" fill="#00B261"/>
<path d="M71.3084 501.759C83.3711 498.657 81.6478 485.216 76.4781 482.459C87.7825 482.459 94.3998 489.697 95.4337 494.522C95.7783 483.838 89.5747 476.945 87.1622 475.566C95.9716 479.09 101.609 484.037 105.084 489.007C104.667 487.284 106.807 479.357 114.389 477.979C110.598 481.425 109.909 492.454 119.214 501.07" stroke="#1C0F00" stroke-width="1.5" stroke-linecap="round" stroke-linejoin="round"/>
<path d="M459.135 403.19C465.834 414.165 460.252 423.387 456.624 426.626C462.689 430.486 467.71 426.139 469.462 423.482C471.248 412.965 463.322 405.572 459.135 403.19Z" fill="#00B261"/>
<path d="M456.624 426.626C460.252 423.387 465.834 414.165 459.135 403.19C463.322 405.572 471.248 412.965 469.462 423.482" stroke="#1C0F00" stroke-width="1.5" stroke-linecap="round" stroke-linejoin="round"/>
<path d="M201.83 444.548C195.132 455.523 200.713 464.745 204.342 467.984C198.276 471.844 193.255 467.496 191.503 464.84C189.717 454.323 197.643 446.93 201.83 444.548Z" fill="#00B261"/>
<path d="M204.342 467.984C200.713 464.745 195.132 455.523 201.83 444.548C197.643 446.93 189.717 454.323 191.503 464.84" stroke="#1C0F00" stroke-width="1.5" stroke-linecap="round" stroke-linejoin="round"/>
<path d="M867.197 476.255C873.896 487.23 868.314 496.452 864.686 499.691C870.751 503.551 875.772 499.204 877.524 496.547C879.31 486.03 871.384 478.637 867.197 476.255Z" fill="#00B261"/>
<path d="M864.686 499.691C868.314 496.452 873.896 487.23 867.197 476.255C871.384 478.637 879.31 486.03 877.524 496.547" stroke="#1C0F00" stroke-width="1.5" stroke-linecap="round" stroke-linejoin="round"/>
<path d="M303.6 392.851C319.109 399.054 324.394 411.806 326.347 415.942C321.177 417.321 306.219 419.871 287.746 419.044C299.809 415.942 298.086 402.501 292.916 399.744C304.22 399.744 309.804 405.832 310.838 409.049C311.389 402.708 306.013 394.229 303.6 392.851Z" fill="#00B261"/>
<path d="M326.347 415.942C324.394 411.806 319.109 399.054 303.6 392.851C306.013 394.229 311.389 402.708 310.838 409.049C309.804 405.832 304.22 399.744 292.916 399.744C298.086 402.501 299.809 415.942 287.746 419.044" stroke="#1C0F00" stroke-width="1.5" stroke-linecap="round" stroke-linejoin="round"/>
<path d="M685.359 499.486C685.523 499.499 685.686 499.507 685.849 499.508L685.359 499.486C677.449 498.852 667.838 485.186 676.754 472.808C669.883 474.619 662.826 484.062 664.052 491.198C663.48 487.868 661.34 480.37 650.148 478.784C654.879 482.239 654.651 496.131 642.272 497.509L685.359 499.486Z" fill="#00B261"/>
<path d="M684.091 495.211C675.474 495.211 667.547 483.148 676.754 472.808C669.883 474.619 664.598 482.905 665.824 490.041C665.252 486.711 661.341 480.37 650.148 478.784C652.977 480.925 654.99 493.742 644.61 495.752" stroke="#1C0F00" stroke-width="1.5" stroke-linecap="round" stroke-linejoin="round"/>
<ellipse cx="344.22" cy="472.809" rx="83.4046" ry="13.0966" fill="#1C0F00"/>
<ellipse cx="528.31" cy="459.712" rx="83.4046" ry="13.0966" fill="#1C0F00"/>
<path d="M439.392 381.822C407.186 364.228 410.441 321.853 425.95 300.485L454.211 293.937C438.587 313.008 425.14 349.561 450.765 362.522C474.209 374.38 506.192 350.454 519.005 328.985C516.248 325.989 514.069 319.634 515.903 311.859C520.157 293.83 551.057 288.423 562.086 312.61C562.086 312.61 631.37 456.266 600.789 456.266H515.214C483.162 456.266 466.563 415.372 492.467 395.953C496.113 393.032 500.193 390.931 504.555 389.542C505.99 382.82 510.341 374.229 517.2 367.463C493.785 390.05 462.407 394.395 439.392 381.822Z" fill="#EEB36F"/>
<path d="M519.005 328.985C516.248 325.989 514.069 319.634 515.903 311.859C520.157 293.83 551.057 288.423 562.086 312.61C562.086 312.61 631.37 456.266 600.789 456.266H515.214C483.162 456.266 466.563 415.372 492.467 395.953C496.113 393.032 500.193 390.931 504.555 389.542M519.005 328.985C506.192 350.454 474.209 374.38 450.765 362.522C425.14 349.561 438.587 313.008 454.211 293.937L425.95 300.485C410.441 321.853 407.186 364.228 439.392 381.822C462.562 394.48 494.21 389.99 517.674 367.002M519.005 328.985C521.572 324.683 523.37 320.48 524.175 316.684M579.663 415.942C565.245 397.592 530.07 381.414 504.555 389.542M504.555 389.542C506.023 382.666 510.541 373.836 517.674 367.002M517.674 367.002C525.352 359.48 531.654 350.841 536.582 339.775" stroke="#1C0F00" stroke-width="1.5" stroke-linecap="round" stroke-linejoin="round"/>
<path d="M405.145 479.095C426.019 468.658 424.857 447.693 421.999 437.256L500.738 302.553C485.244 287.985 475.396 300.956 472.409 309.263L417.334 383.201C418.712 358.042 411.475 328.458 392.519 318.063C349.438 294.438 315.663 323.232 307.736 345.29C326.347 346.668 354.134 354.014 376.695 392.878C389.342 414.665 403.905 460.346 405.145 479.095Z" fill="#EEB36F"/>
<path d="M612.096 248.839C602.528 244.117 579.667 243.993 567.739 260.767C559.857 271.85 561.402 282.759 563.638 287.978C565.925 293.315 570.939 296.429 574.12 298.074C567.976 304.94 564.881 315.79 569.603 327.489C577.876 347.99 605.013 343.517 613.586 335.317C615.45 339.79 625.291 347.841 637.815 342.772C645.238 339.767 648.974 333.998 650.055 327.489C658.689 327.862 674.494 320.332 673.599 294.687C672.481 262.631 650.054 250.703 638.126 250.703C638.878 228.397 638.615 187.987 637.815 178.389C636.697 164.97 629.242 149.306 613.214 144.096C601.286 140.22 586.806 142.545 578.978 145.155C573.53 151.755 567.319 166.113 586.06 170.741C592.024 166.268 605.61 166.089 609.486 176.526C613.363 186.963 612.841 229.083 612.096 248.839Z" fill="#EEB36F"/>
<path d="M574.12 298.074C570.939 296.429 565.925 293.315 563.638 287.978C561.402 282.759 559.857 271.85 567.739 260.767C579.667 243.993 602.528 244.117 612.096 248.839C612.841 229.083 613.363 186.963 609.486 176.526C605.61 166.089 592.024 166.268 586.06 170.741C567.319 166.113 573.53 151.755 578.978 145.155C586.806 142.545 601.286 140.22 613.214 144.096C629.242 149.306 636.697 164.97 637.815 178.389C638.615 187.987 638.878 228.397 638.126 250.703M574.12 298.074C567.976 304.94 564.881 315.79 569.603 327.489C577.876 347.99 605.013 343.517 613.586 335.317M574.12 298.074C578.742 292.909 585.089 289.998 591.132 290.677M619.923 309.597C620.917 315.685 620.486 328.718 613.586 335.317M613.586 335.317C615.45 339.79 625.291 347.841 637.815 342.772C645.238 339.767 648.974 333.998 650.055 327.489M591.132 290.677C589.165 281.322 583.971 277.308 580.784 276.423M591.132 290.677C591.925 294.451 592.194 299.094 591.594 304.751M650.055 327.489C658.689 327.862 674.494 320.332 673.599 294.687C672.481 262.631 650.054 250.703 638.126 250.703M650.055 327.489C651.255 320.27 649.19 312.142 645.27 305.87M638.126 250.703C638.037 253.345 637.934 255.732 637.815 257.785" stroke="#1C0F00" stroke-width="1.5" stroke-linecap="round" stroke-linejoin="round"/>
<path d="M332.895 409.049C309.434 374.498 308.081 357.05 308.081 345.979C325.297 345.979 354.013 353.725 376.574 392.589C389.221 414.376 403.784 460.057 405.024 478.805C384.522 468.741 353.397 439.242 332.895 409.049Z" fill="#1C0F00"/>
<path d="M416.458 447.01L501.772 300.865C486.278 286.297 476.431 299.268 473.443 307.575L417.678 382.536M422.05 437.319C424.907 447.756 425.898 468.368 405.024 478.805M405.024 478.805C384.522 468.741 353.397 439.242 332.895 409.049C309.434 374.498 308.081 357.05 308.081 345.979M405.024 478.805C403.784 460.057 389.221 414.376 376.574 392.589C354.013 353.725 325.297 345.979 308.081 345.979M414.921 401.123C419.84 375.101 418.165 335.563 394.587 319.441C354.263 291.869 312.561 323.922 308.081 345.979" stroke="#1C0F00" stroke-width="1.5" stroke-linecap="round" stroke-linejoin="round"/>
<path d="M297.589 248.839C307.156 244.118 330.018 243.993 341.946 260.767C349.827 271.85 348.282 282.759 346.046 287.978C343.759 293.315 338.745 296.429 335.565 298.074C341.708 304.94 344.803 315.79 340.082 327.489C331.809 347.99 304.672 343.518 296.098 335.317C294.234 339.79 284.394 347.841 271.869 342.772C264.447 339.768 260.711 333.998 259.629 327.489C250.996 327.862 235.191 320.332 236.086 294.687C237.204 262.631 259.631 250.703 271.559 250.703C270.806 228.398 271.07 187.988 271.869 178.389C272.988 164.97 280.443 149.306 296.471 144.097C308.399 140.22 324.017 140.921 334.454 145.767C339.822 170.815 328.987 172.605 322.899 170.368C316.935 165.895 304.075 166.089 300.198 176.526C296.322 186.963 296.843 229.083 297.589 248.839Z" fill="#EEB36F"/>
<path d="M335.565 298.074C338.745 296.429 343.759 293.315 346.046 287.978C348.282 282.759 349.827 271.85 341.946 260.767C330.018 243.993 307.156 244.118 297.589 248.839C296.843 229.083 296.322 186.963 300.198 176.526C304.075 166.089 316.935 165.895 322.899 170.368M335.565 298.074C341.708 304.94 344.803 315.79 340.082 327.489C331.809 347.99 304.672 343.518 296.098 335.317M335.565 298.074C330.943 292.909 324.595 289.999 318.553 290.678M289.761 309.597C288.767 315.685 289.199 328.718 296.098 335.317M296.098 335.317C294.234 339.79 284.394 347.841 271.869 342.772C264.447 339.768 260.711 333.998 259.629 327.489M318.553 290.678C320.52 281.322 325.713 277.308 328.9 276.423M318.553 290.678C317.759 294.452 317.491 299.094 318.091 304.752M334.454 145.767C324.017 140.921 308.399 140.22 296.471 144.097C280.443 149.306 272.988 164.97 271.869 178.389C271.07 187.988 270.806 228.398 271.559 250.703M259.629 327.489C250.996 327.862 235.191 320.332 236.086 294.687C237.204 262.631 259.631 250.703 271.559 250.703M259.629 327.489C258.429 320.27 260.494 312.142 264.415 305.87M271.559 250.703C271.648 253.345 271.751 255.733 271.869 257.785" stroke="#1C0F00" stroke-width="1.5" stroke-linecap="round" stroke-linejoin="round"/>
<path d="M409.214 75.3629C403.667 73.1673 388.691 71.9654 377.32 80.5631C369.416 86.8568 365.831 94.1675 364.446 100.671C355.447 102.52 335.717 114.885 341.635 141.641C335.966 144.319 329.538 149.399 326.009 158.221C320.463 172.088 325.547 184.8 328.783 189.422C318.521 216.325 331.61 230.909 339.437 234.838C339.643 241.693 341.482 249.215 346.465 255.986C352.525 264.221 360.028 267.618 366.573 268.626C369.069 288.595 388.76 293.428 398.336 291.694C402.464 296.961 408.544 301.798 416.495 303.828C436.316 308.889 447.004 302.904 449.777 299.668C451.51 302.326 457.751 307.781 468.845 308.335C482.157 308.89 488.888 302.788 490.589 299.668C498.212 303.09 508.337 304.71 518.421 299.668C526.818 295.47 531.536 289.476 534.136 283.692C558.82 280.364 563.258 260.907 562.45 251.581C568.598 249.194 575.363 244.713 579.09 236.918C585.192 224.16 581.633 210.339 579.09 205.023C582.21 201.903 587.965 194.137 587.411 179.715C586.856 165.293 580.593 159.807 577.01 157.307C578.869 151.66 580.08 144.5 578.397 137.766C575.624 126.672 565.879 121.588 561.354 120.432C560.788 114.442 558.727 107.598 553.436 99.9777C546.502 89.9932 532.981 85.8792 527.088 85.0703C520.431 68.4294 503.975 68.0635 496.579 69.9607C492.863 66.0644 487.189 62.1508 478.898 59.762C467.513 56.4815 457.874 60.368 451.661 64.9626C448.078 62.3046 439.237 57.5433 427.588 59.7621C415.94 61.9808 410.254 71.2028 409.214 75.3629Z" fill="#EEB36F"/>
<path d="M364.492 114.885C363.728 111.665 363.206 106.491 364.446 100.671M451.661 64.9626C448.078 62.3046 439.237 57.5433 427.588 59.7621C415.94 61.9808 410.254 71.2028 409.214 75.3629C403.667 73.1673 388.691 71.9654 377.32 80.5631C369.416 86.8568 365.831 94.1675 364.446 100.671M451.661 64.9626C457.874 60.368 467.513 56.4815 478.898 59.762C487.189 62.1508 492.863 66.0644 496.579 69.9607M451.661 64.9626C448.944 66.9717 446.882 69.1162 445.617 70.856M502.473 79.8698C501.96 77.5323 500.198 73.7547 496.579 69.9607M496.579 69.9607C503.975 68.0635 520.431 68.4294 527.088 85.0703C532.981 85.8792 546.502 89.9932 553.436 99.9777C558.727 107.598 560.788 114.442 561.354 120.432M561.063 130.833C561.468 127.727 561.715 124.253 561.354 120.432M561.354 120.432C565.879 121.588 575.624 126.672 578.397 137.766C580.08 144.5 578.869 151.66 577.01 157.307M573.197 165.848C574.332 163.986 575.807 160.963 577.01 157.307M577.01 157.307C580.593 159.807 586.856 165.293 587.411 179.715C587.965 194.137 582.21 201.903 579.09 205.023C581.633 210.339 585.192 224.16 579.09 236.918C575.363 244.713 568.598 249.194 562.45 251.581M552.396 253.906C554.868 253.771 558.534 253.101 562.45 251.581M562.45 251.581C563.258 260.907 558.82 280.364 534.136 283.692M534.136 283.692C531.536 289.476 526.818 295.47 518.421 299.668C508.337 304.71 498.212 303.09 490.589 299.668M534.136 283.692C536.689 278.014 537.199 272.538 537.142 269.16M479.592 292.041C481.732 294.455 485.631 297.443 490.589 299.668M490.589 299.668C488.888 302.788 482.157 308.89 468.845 308.335C457.751 307.781 451.51 302.326 449.777 299.668C447.004 302.904 436.316 308.889 416.495 303.828C408.544 301.798 402.464 296.961 398.336 291.694M391.881 276.44C391.821 280.168 394.004 286.168 398.336 291.694M398.336 291.694C388.76 293.428 369.069 288.595 366.573 268.626M366.573 268.626C360.028 267.618 352.525 264.221 346.465 255.986C341.482 249.215 339.643 241.693 339.437 234.838M366.573 268.626C371.71 269.418 376.258 268.739 379.053 267.773M342.998 215.77C341.191 219.697 339.195 226.811 339.437 234.838M364.446 100.671C355.447 102.52 335.717 114.885 341.635 141.641M341.635 141.641C335.966 144.319 329.538 149.399 326.009 158.221C320.463 172.088 325.547 184.8 328.783 189.422C318.521 216.325 331.61 230.909 339.437 234.838M341.635 141.641C344.877 140.109 347.871 139.363 349.932 139.153" stroke="#1C0F00" stroke-width="1.5" stroke-linecap="round" stroke-linejoin="round"/>
<path d="M527.438 217.262C527.88 224.056 519.594 236.645 507.223 233.597M498.343 228.95C501.473 231.445 504.451 232.913 507.223 233.597M507.223 233.597C505.536 236.739 500.379 241.82 493.245 237.012" stroke="#1C0F00" stroke-width="1.5" stroke-linecap="round" stroke-linejoin="round"/>
<path d="M371.93 227.605C376.72 228.458 383.679 236.296 377.183 245.024" stroke="#1C0F00" stroke-width="1.5" stroke-linecap="round" stroke-linejoin="round"/>
<path d="M567.478 187.88C563.484 190.659 554.186 191.252 552.621 180.485" stroke="#1C0F00" stroke-width="1.5" stroke-linecap="round" stroke-linejoin="round"/>
<path d="M513.544 153.86C511.315 148.644 514.502 138.581 524.023 135.983M532.753 135.687C529.404 135.136 526.499 135.307 524.023 135.983M524.023 135.983C522.277 133.119 519.921 126.155 524.467 121.214" stroke="#1C0F00" stroke-width="1.5" stroke-linecap="round" stroke-linejoin="round"/>
<path d="M430.246 172.231C430.246 186.42 419.12 197.201 404.903 197.201C390.687 197.201 379.188 186.047 379.188 171.859C379.188 157.628 389.983 146.144 404.158 146.144C419.38 146.144 430.246 158.01 430.246 172.231Z" fill="#FFF3E1" stroke="#1C0F00" stroke-width="1.5"/>
<circle cx="409.751" cy="176.965" r="20.1285" fill="#1C0F00"/>
<path d="M374.712 175.959C367.853 174.468 360.92 179.314 360.175 183.041L371.357 202.797C373.594 203.915 383.658 201.306 385.149 193.851C386.64 186.396 383.285 177.823 374.712 175.959Z" fill="#EEB36F"/>
<path d="M359.056 185.507C359.46 180.378 365.623 174.971 373.204 175.643C382.097 176.432 387.756 186.296 385.33 194.187C382.961 201.894 374.416 204.05 371.991 202.867" stroke="#1C0F00" stroke-width="1.5" stroke-linecap="round" stroke-linejoin="round"/>
<path d="M413.105 240.817C418.199 243.551 430.997 246.632 441.434 237.09" stroke="#1C0F00" stroke-width="1.5" stroke-linecap="round" stroke-linejoin="round"/>
<path d="M468.641 172.231C468.641 186.434 457.127 197.947 442.925 197.947C428.723 197.947 416.837 186.061 416.837 171.859C416.837 157.657 428.35 146.144 442.553 146.144C457.775 146.144 468.641 158.01 468.641 172.231Z" fill="#FFF3E1" stroke="#1C0F00" stroke-width="1.5" stroke-linejoin="round"/>
<circle cx="447.771" cy="176.965" r="20.1285" fill="#1C0F00"/>
<circle cx="435.552" cy="164.35" r="7.23759" fill="#FFF3E1"/>
<circle cx="397.64" cy="164.35" r="7.23759" fill="#FFF3E1"/>
<path d="M407.887 196.833C404.607 192.658 403.041 192.36 400.804 192.733C399.329 192.979 396.27 194.831 395.214 203.542C393.722 215.843 400.432 238.208 424.661 236.717C448.889 235.226 450.38 213.979 449.635 206.152C448.889 198.324 445.535 191.614 441.434 190.496C437.334 189.378 436.332 192.426 433.98 196.46C431.371 200.933 426.898 203.542 420.934 203.542C416.088 203.542 411.987 202.051 407.887 196.833Z" fill="#FDDEDC" stroke="#1C0F00" stroke-width="1.5" stroke-linecap="round" stroke-linejoin="round"/>
<path d="M435.216 211.743C444.162 217.707 443.789 229.262 439.316 231.872C434.545 235.748 424.033 237.835 416.95 236.344C421.423 233.959 422.093 229.883 421.869 228.144C420.636 228.618 419.325 228.836 418.069 228.777C412.979 228.538 407.741 224.765 408.377 218.825C409.497 208.388 424.033 204.288 435.216 211.743Z" fill="#FFBAC2"/>
<path d="M427.387 218.452C428.213 223.41 425.358 226.802 421.869 228.144M421.869 228.144C420.636 228.618 419.325 228.836 418.069 228.777C412.979 228.538 407.741 224.765 408.377 218.825C409.497 208.388 424.033 204.288 435.216 211.743C444.162 217.707 443.789 229.262 439.316 231.872C434.545 235.748 424.033 237.835 416.95 236.344C421.423 233.959 422.093 229.883 421.869 228.144Z" stroke="#1C0F00" stroke-width="1.5" stroke-linecap="round" stroke-linejoin="round"/>
<path d="M450.615 133.933C452.891 134.998 454.18 136.063 454.784 137.006C455.353 137.893 455.332 138.69 454.913 139.437C454.461 140.242 453.506 141.051 452.084 141.739C450.677 142.42 448.884 142.948 446.863 143.237C442.606 143.847 438.263 143.455 435.013 142.394C433.387 141.863 432.075 141.178 431.185 140.405C430.298 139.634 429.882 138.828 429.882 138.021C429.882 136.507 430.679 135.328 432.106 134.416C433.556 133.49 435.602 132.885 437.901 132.582C442.514 131.974 447.81 132.621 450.615 133.933Z" fill="#6C3712" stroke="#1C0F00" stroke-width="1.5" stroke-linejoin="round"/>
<path d="M388.178 140.362C387.192 139.501 386.683 138.557 386.644 137.573C386.65 136.747 387.186 135.324 389.128 134.158C391.088 132.982 394.478 132.076 400.089 132.429C403.577 132.648 406.192 133.369 408.008 134.319C409.831 135.273 410.791 136.424 411.11 137.488C411.42 138.521 411.166 139.605 410.266 140.584C409.349 141.58 407.753 142.464 405.437 142.935C400.713 143.897 395.962 143.629 392.401 142.528C390.62 141.978 389.174 141.231 388.178 140.362Z" fill="#6C3712" stroke="#1C0F00" stroke-width="1.5" stroke-linejoin="round"/>
<path d="M434.351 274.689C436.671 272.267 442.974 269.268 449.629 276.646C449.617 274.578 450.657 270.132 454.91 268.882" stroke="#1C0F00" stroke-width="1.5" stroke-linecap="round" stroke-linejoin="round"/>
<path d="M474.607 180.06C483.852 180.954 487.902 186.645 488.772 189.378L472.744 209.134C470.508 209.134 462.679 208.389 459.325 200.188C455.97 191.988 463.052 178.941 474.607 180.06Z" fill="#EEB36F"/>
<path d="M488.773 189.378C488.028 186.023 483.555 180.589 474.236 179.687C462.681 178.568 455.971 191.615 459.325 199.815C462.68 208.016 470.509 209.134 472.745 209.134" stroke="#1C0F00" stroke-width="1.5" stroke-linecap="round" stroke-linejoin="round"/>
<circle cx="477.598" cy="185.718" r="1.03394" fill="#1C0F00"/>
<circle cx="374.894" cy="183.65" r="1.03394" fill="#1C0F00"/>
<circle cx="465.881" cy="191.922" r="1.03394" fill="#1C0F00"/>
<circle cx="365.932" cy="183.65" r="1.03394" fill="#1C0F00"/>
<circle cx="472.773" cy="193.99" r="1.03394" fill="#1C0F00"/>
<circle cx="371.448" cy="191.922" r="1.03394" fill="#1C0F00"/>
<circle cx="482.424" cy="191.922" r="1.03394" fill="#1C0F00"/>
<circle cx="379.719" cy="191.922" r="1.03394" fill="#1C0F00"/>
<path d="M368.566 127.147C370.762 126.107 374.183 122.154 370.3 114.666C373.536 120.906 387.634 125.413 392.834 112.933" stroke="#1C0F00" stroke-width="1.5" stroke-linecap="round" stroke-linejoin="round"/>
<path d="M434.686 93.7371C440.926 90.2702 455.833 90.2705 458.881 103.791M458.953 110.032C459.3 108.645 459.167 105.06 458.881 103.791M458.881 103.791C464.5 101.364 474.901 105.178 473.861 116.618" stroke="#1C0F00" stroke-width="1.5" stroke-linecap="round" stroke-linejoin="round"/>
<path d="M504.292 462.26C499.091 464.902 498.194 468.961 498.411 470.612L504.292 477.119H512.907C513.719 477.45 517.458 475.799 518.271 471.836C519.571 464.737 510.794 458.958 504.292 462.26Z" fill="#FFA41C"/>
<path d="M501.857 473.025C502.51 472.189 504.665 470.33 508.061 469.578M498.411 470.612C498.194 468.961 499.091 464.902 504.292 462.26C510.794 458.958 519.571 464.737 518.271 471.836C517.458 475.799 513.719 477.45 512.907 477.119H504.292L498.411 470.612Z" stroke="#1C0F00" stroke-width="1.5" stroke-linecap="round" stroke-linejoin="round"/>
<path d="M494.743 459.785C499.32 462.557 498.86 468.467 498.066 470.612L487.161 474.604L483.935 473.025C482.505 472.805 479.288 470.66 479.923 465.644C480.718 459.373 489.023 456.319 494.743 459.785Z" fill="#FFA41C"/>
<path d="M492.207 470.612C492.306 469.886 491.518 467.166 488.76 464.753M498.066 470.612C498.86 468.467 499.32 462.557 494.743 459.785C489.023 456.319 480.718 459.373 479.923 465.644C479.288 470.66 482.505 472.805 483.935 473.025L487.161 474.604L498.066 470.612Z" stroke="#1C0F00" stroke-width="1.5" stroke-linecap="round" stroke-linejoin="round"/>
<path d="M497.373 470.455C491.346 469.493 488.201 472.46 487.382 474.064C488.531 475.67 491.655 479.022 494.964 479.573C499.1 480.262 503.58 477.85 503.925 475.782C503.161 474.293 500.78 471.143 497.373 470.455Z" fill="#FFE900" stroke="#1C0F00" stroke-width="1.5" stroke-linecap="round" stroke-linejoin="round"/>
<path d="M479.924 489.424C470.4 485.633 473.25 474.182 480.487 473.025C485.013 472.301 486.771 474.236 487.828 475.61C491.129 475.029 494.589 476.461 494.934 480.652C495.431 486.683 488.202 492.72 479.924 489.424Z" fill="#FFA41C"/>
<path d="M483.37 477.706C484.481 476.737 486.378 475.865 487.828 475.61M487.828 475.61C486.771 474.236 485.013 472.301 480.487 473.025C473.25 474.182 470.4 485.633 479.924 489.424C488.202 492.72 495.431 486.683 494.934 480.652C494.589 476.461 491.129 475.029 487.828 475.61Z" stroke="#1C0F00" stroke-width="1.5" stroke-linecap="round" stroke-linejoin="round"/>
<path d="M512.383 487.969C517.974 481.974 513.371 475.33 508.761 474.52C505.143 473.884 503.066 475.379 502.247 476.738C499.22 475.62 495.627 476.445 494.619 481.296C492.803 490.046 506.517 494.26 512.383 487.969Z" fill="#FFA41C"/>
<path d="M506.456 480.516C505.755 478.845 504.108 477.424 502.247 476.738M502.247 476.738C499.22 475.62 495.627 476.445 494.619 481.296C492.803 490.046 506.517 494.26 512.383 487.969C517.974 481.974 513.371 475.33 508.761 474.52C505.143 473.884 503.066 475.379 502.247 476.738Z" stroke="#1C0F00" stroke-width="1.5" stroke-linecap="round" stroke-linejoin="round"/>
<path d="M559.574 451.441C552.876 462.416 558.458 471.638 562.086 474.877C556.02 478.737 550.999 474.389 549.247 471.733C547.461 461.215 555.387 453.822 559.574 451.441Z" fill="#00B261"/>
<path d="M562.086 474.877C558.458 471.638 552.876 462.416 559.574 451.441C555.387 453.822 547.461 461.215 549.247 471.733" stroke="#1C0F00" stroke-width="1.5" stroke-linecap="round" stroke-linejoin="round"/>
<path d="M306.012 457.3C300.843 461.436 296.362 474.877 302.911 485.216C307.716 492.803 280.509 485.561 273.96 484.182C282.576 480.391 277.407 466.95 272.926 465.916C282.232 464.882 287.516 470.511 288.435 472.12C290.917 467.157 297.396 458.678 306.012 457.3Z" fill="#00B261"/>
<path d="M305.324 490.041C294.295 477.634 301.188 460.057 307.047 456.955C296.707 458.678 290.917 467.157 288.436 472.12C287.517 470.511 281.888 464.882 272.582 465.916C277.062 466.95 282.577 479.702 274.65 484.182" stroke="#1C0F00" stroke-width="1.5" stroke-linecap="round" stroke-linejoin="round"/>
<path d="M51.0286 482.772C46.3577 485.497 46.6194 490.865 47.4304 492.974C49.3884 495.721 55.7768 500.212 62.0025 495.624C63.4622 495.408 66.4435 492.627 65.7947 487.697C64.9331 481.149 56.8673 479.366 51.0286 482.772Z" fill="#FF2F85" stroke="#1C0F00" stroke-width="1.5" stroke-linecap="round" stroke-linejoin="round"/>
<path d="M41.4597 484.881C46.6496 487.476 47.0063 490.632 47.2983 492.99L43.7303 498.342L33.3504 498.829C32.5395 499.153 28.1792 498.887 27.3204 494.271C26.0229 487.297 34.9723 481.637 41.4597 484.881Z" fill="#FF2F85" stroke="#1C0F00" stroke-width="1.5" stroke-linecap="round" stroke-linejoin="round"/>
<path d="M53.4646 492.887C53.3565 492.184 54.6329 488.744 57.0327 487.534" stroke="#1C0F00" stroke-width="1.5" stroke-linecap="round" stroke-linejoin="round"/>
<path d="M43.5669 494.612C42.9182 493.747 40.9097 492.455 37.5363 491.676" stroke="#1C0F00" stroke-width="1.5" stroke-linecap="round" stroke-linejoin="round"/>
<path d="M47.7839 492.828C53.7523 491.919 57.0284 495.044 57.8394 496.558C58.1637 503.208 48.2704 502.721 45.6755 501.586C43.5995 500.678 42.1074 498.18 41.6208 497.045C42.3777 495.639 44.4104 493.476 47.7839 492.828Z" fill="#FFF3E1" stroke="#1C0F00" stroke-width="1.5" stroke-linecap="round" stroke-linejoin="round"/>
<path d="M33.3482 511.155C27.4302 505.559 32.3471 497.632 36.8883 496.821C40.8951 496.106 42.5316 497.575 43.3576 499.068C46.4968 498.044 50.0737 498.946 50.9984 503.471C52.7881 512.229 39.3514 516.831 33.3482 511.155Z" fill="#FF2F85"/>
<path d="M38.3788 503.753C38.994 501.603 41.0583 499.819 43.3576 499.068M43.3576 499.068C46.4968 498.044 50.0737 498.946 50.9984 503.471C52.7881 512.229 39.3514 516.831 33.3482 511.155C27.4302 505.559 32.3471 497.632 36.8883 496.821C40.8951 496.106 42.5316 497.575 43.3576 499.068Z" stroke="#1C0F00" stroke-width="1.5" stroke-linecap="round" stroke-linejoin="round"/>
<path d="M65.6371 510.889C74.2696 507.843 72.2391 496.026 64.9589 494.813C60.1843 494.018 58.2151 495.755 56.9169 496.94C53.8408 496.8 50.892 498.47 50.5746 502.489C50.0668 508.919 57.0046 513.935 65.6371 510.889Z" fill="#FF2F85"/>
<path d="M62.0505 499.027C60.6541 497.758 58.7625 497.023 56.9169 496.94M56.9169 496.94C53.8408 496.8 50.892 498.47 50.5746 502.489C50.0668 508.919 57.0046 513.935 65.6371 510.889C74.2696 507.843 72.2391 496.026 64.9589 494.813C60.1843 494.018 58.2151 495.755 56.9169 496.94Z" stroke="#1C0F00" stroke-width="1.5" stroke-linecap="round" stroke-linejoin="round"/>
<path d="M158.396 459.776C153.195 462.417 152.299 466.477 152.516 468.128C153.338 468.421 154.671 469.352 155.961 470.633C157.194 471.858 158.389 473.404 159.063 475.021C159.339 475.296 164.477 474.534 167.011 474.635C167.824 474.965 171.562 473.314 172.375 469.352C173.676 462.252 164.898 456.474 158.396 459.776Z" fill="#FFA41C"/>
<path d="M148.724 457.788C153.3 460.561 152.965 465.982 152.17 468.128L141.486 471.919L138.04 470.54C136.61 470.32 133.613 468.319 134.248 463.302C135.043 457.032 143.003 454.323 148.724 457.788Z" fill="#FFA41C" stroke="#1C0F00" stroke-width="1.5" stroke-linecap="round" stroke-linejoin="round"/>
<path d="M155.961 470.54C156.614 469.705 158.769 467.846 162.165 467.094M152.516 468.128C152.299 466.477 153.195 462.417 158.396 459.776C164.898 456.474 173.676 462.252 172.375 469.352C171.562 473.314 167.824 474.965 167.011 474.635" stroke="#1C0F00" stroke-width="1.5" stroke-linecap="round" stroke-linejoin="round"/>
<path d="M146.311 468.128C146.411 467.401 145.622 464.681 142.865 462.269M152.17 468.128C152.965 465.982 153.3 460.561 148.724 457.788C143.003 454.323 135.043 457.032 134.248 463.302C133.613 468.319 136.61 470.32 138.04 470.54" stroke="#1C0F00" stroke-width="1.5" stroke-linecap="round" stroke-linejoin="round"/>
<path d="M151.478 467.971C145.45 467.008 142.305 469.975 141.486 471.579C142.635 473.186 145.76 476.537 149.069 477.088C153.204 477.778 157.685 475.365 158.029 473.297C157.265 471.808 154.885 468.658 151.478 467.971Z" fill="#FFE900" stroke="#1C0F00" stroke-width="1.5" stroke-linecap="round" stroke-linejoin="round"/>
<path d="M134.248 486.394C125.809 483.537 127.354 471.697 134.591 470.54C139.144 469.812 140.976 471.733 142.032 473.108C145.303 472.573 148.697 474.018 149.039 478.167C149.535 484.198 142.688 489.251 134.248 486.394Z" fill="#FFA41C"/>
<path d="M137.952 474.992C141.592 471.818 148.542 472.135 149.039 478.167C149.535 484.198 142.688 489.251 134.248 486.394C125.809 483.537 127.354 471.697 134.591 470.54C139.15 469.811 140.981 471.738 142.036 473.113" stroke="#1C0F00" stroke-width="1.5" stroke-linecap="round" stroke-linejoin="round"/>
<path d="M166.488 485.485C172.078 479.489 167.475 472.846 162.865 472.036C159.247 471.4 157.17 472.894 156.352 474.253C153.325 473.136 149.731 473.961 148.724 478.812C146.907 487.562 160.622 491.776 166.488 485.485Z" fill="#FFA41C"/>
<path d="M160.56 478.031C159.859 476.36 158.213 474.94 156.352 474.253M156.352 474.253C153.325 473.136 149.731 473.961 148.724 478.812C146.907 487.562 160.622 491.776 166.488 485.485C172.078 479.489 167.475 472.846 162.865 472.036C159.247 471.4 157.17 472.894 156.352 474.253Z" stroke="#1C0F00" stroke-width="1.5" stroke-linecap="round" stroke-linejoin="round"/>
<path d="M176.403 478.804C181.604 481.445 182.501 485.504 182.284 487.155L176.403 493.663H167.788C166.975 493.993 163.237 492.342 162.424 488.379C161.124 481.28 169.901 475.502 176.403 478.804Z" fill="#8BE3FF"/>
<path d="M178.838 489.568C178.185 488.732 176.03 486.873 172.634 486.122M182.284 487.155C182.501 485.504 181.604 481.445 176.403 478.804C169.901 475.502 161.124 481.28 162.424 488.379C163.237 492.342 166.975 493.993 167.788 493.663H176.403L182.284 487.155Z" stroke="#1C0F00" stroke-width="1.5" stroke-linecap="round" stroke-linejoin="round"/>
<path d="M185.952 476.328C181.376 479.1 181.835 485.01 182.629 487.155L193.534 491.147L196.76 489.568C198.19 489.348 201.407 487.203 200.772 482.187C199.977 475.916 191.673 472.862 185.952 476.328Z" fill="#8BE3FF"/>
<path d="M188.488 487.155C188.389 486.429 189.178 483.709 191.935 481.296M182.629 487.155C181.835 485.01 181.376 479.1 185.952 476.328C191.673 472.862 199.977 475.916 200.772 482.187C201.407 487.203 198.19 489.348 196.76 489.568L193.534 491.147L182.629 487.155Z" stroke="#1C0F00" stroke-width="1.5" stroke-linecap="round" stroke-linejoin="round"/>
<path d="M183.322 486.999C189.35 486.037 192.495 489.003 193.313 490.607C192.165 492.214 189.04 495.565 185.731 496.116C181.595 496.806 177.115 494.393 176.77 492.325C177.535 490.836 179.915 487.686 183.322 486.999Z" fill="#FFE900" stroke="#1C0F00" stroke-width="1.5" stroke-linecap="round" stroke-linejoin="round"/>
<path d="M200.772 505.967C210.295 502.176 207.445 490.725 200.208 489.568C195.682 488.844 193.925 490.779 192.867 492.153C189.566 491.572 186.106 493.004 185.761 497.195C185.265 503.226 192.494 509.263 200.772 505.967Z" fill="#8BE3FF"/>
<path d="M197.325 494.249C196.214 493.28 194.317 492.408 192.867 492.153M192.867 492.153C193.925 490.779 195.682 488.844 200.208 489.568C207.445 490.725 210.295 502.176 200.772 505.967C192.494 509.263 185.265 503.226 185.761 497.195C186.106 493.004 189.566 491.572 192.867 492.153Z" stroke="#1C0F00" stroke-width="1.5" stroke-linecap="round" stroke-linejoin="round"/>
<path d="M168.312 504.512C162.722 498.517 167.325 491.874 171.934 491.064C175.553 490.428 177.629 491.922 178.448 493.281C181.475 492.163 185.069 492.989 186.076 497.839C187.893 506.589 174.178 510.804 168.312 504.512Z" fill="#8BE3FF"/>
<path d="M174.239 497.059C174.94 495.388 176.587 493.968 178.448 493.281M178.448 493.281C181.475 492.163 185.069 492.989 186.076 497.839C187.893 506.589 174.178 510.804 168.312 504.512C162.722 498.517 167.325 491.874 171.934 491.064C175.553 490.428 177.629 491.922 178.448 493.281Z" stroke="#1C0F00" stroke-width="1.5" stroke-linecap="round" stroke-linejoin="round"/>
<path d="M290.611 416.767C285.41 419.409 284.514 423.468 284.73 425.119L290.611 431.626H299.226C300.039 431.956 303.777 430.305 304.59 426.343C305.89 419.244 297.113 413.465 290.611 416.767Z" fill="#FFBAC2"/>
<path d="M288.176 427.531C288.829 426.696 290.984 424.837 294.38 424.085M284.73 425.119C284.514 423.468 285.41 419.409 290.611 416.767C297.113 413.465 305.89 419.244 304.59 426.343C303.777 430.305 300.039 431.956 299.226 431.626H290.611L284.73 425.119Z" stroke="#1C0F00" stroke-width="1.5" stroke-linecap="round" stroke-linejoin="round"/>
<path d="M281.063 414.291C285.639 417.064 285.18 422.974 284.385 425.119L273.48 429.111L270.255 427.531C268.825 427.311 265.607 425.167 266.243 420.15C267.037 413.879 275.342 410.826 281.063 414.291Z" fill="#FFBAC2"/>
<path d="M278.526 425.119C278.626 424.392 277.837 421.672 275.08 419.26M284.385 425.119C285.18 422.974 285.639 417.064 281.063 414.291C275.342 410.826 267.037 413.879 266.243 420.15C265.607 425.167 268.825 427.311 270.255 427.531L273.48 429.111L284.385 425.119Z" stroke="#1C0F00" stroke-width="1.5" stroke-linecap="round" stroke-linejoin="round"/>
<path d="M283.693 424.962C277.665 424 274.52 426.967 273.701 428.57C274.85 430.177 277.975 433.528 281.283 434.08C285.419 434.769 289.9 432.356 290.244 430.288C289.48 428.799 287.099 425.649 283.693 424.962Z" fill="#FFE900" stroke="#1C0F00" stroke-width="1.5" stroke-linecap="round" stroke-linejoin="round"/>
<path d="M266.243 443.931C256.72 440.14 259.57 428.688 266.807 427.532C271.333 426.808 273.09 428.742 274.148 430.116C277.449 429.535 280.909 430.968 281.254 435.158C281.751 441.19 274.521 447.226 266.243 443.931Z" fill="#FFBAC2"/>
<path d="M269.69 432.213C270.801 431.244 272.698 430.371 274.148 430.116M274.148 430.116C273.09 428.742 271.333 426.808 266.807 427.532C259.57 428.688 256.72 440.14 266.243 443.931C274.521 447.226 281.751 441.19 281.254 435.158C280.909 430.968 277.449 429.535 274.148 430.116Z" stroke="#1C0F00" stroke-width="1.5" stroke-linecap="round" stroke-linejoin="round"/>
<path d="M298.703 442.476C304.293 436.48 299.69 429.837 295.08 429.027C291.462 428.391 289.385 429.886 288.567 431.244C285.539 430.127 281.946 430.952 280.939 435.803C279.122 444.553 292.837 448.767 298.703 442.476Z" fill="#FFBAC2"/>
<path d="M292.775 435.022C292.074 433.351 290.427 431.931 288.567 431.244M288.567 431.244C285.539 430.127 281.946 430.952 280.939 435.803C279.122 444.553 292.837 448.767 298.703 442.476C304.293 436.48 299.69 429.837 295.08 429.027C291.462 428.391 289.385 429.886 288.567 431.244Z" stroke="#1C0F00" stroke-width="1.5" stroke-linecap="round" stroke-linejoin="round"/>
<path d="M833.989 482.25C839.19 484.892 840.086 488.951 839.87 490.602L833.989 497.109H825.374C824.561 497.44 820.823 495.789 820.01 491.826C818.71 484.727 827.487 478.948 833.989 482.25Z" fill="#FFBAC2"/>
<path d="M836.424 493.015C835.771 492.179 833.616 490.32 830.22 489.568M839.87 490.602C840.086 488.951 839.19 484.892 833.989 482.25C827.487 478.948 818.71 484.727 820.01 491.826C820.823 495.789 824.561 497.44 825.374 497.109H833.989L839.87 490.602Z" stroke="#1C0F00" stroke-width="1.5" stroke-linecap="round" stroke-linejoin="round"/>
<path d="M843.538 479.775C838.962 482.547 839.421 488.457 840.215 490.602L851.12 494.594L854.346 493.015C855.776 492.795 858.993 490.65 858.358 485.634C857.563 479.363 849.259 476.309 843.538 479.775Z" fill="#FFBAC2"/>
<path d="M846.074 490.602C845.975 489.876 846.764 487.156 849.521 484.743M840.215 490.602C839.421 488.457 838.962 482.547 843.538 479.775C849.259 476.309 857.563 479.363 858.358 485.634C858.993 490.65 855.776 492.795 854.346 493.015L851.12 494.594L840.215 490.602Z" stroke="#1C0F00" stroke-width="1.5" stroke-linecap="round" stroke-linejoin="round"/>
<path d="M840.908 490.445C846.936 489.483 850.08 492.45 850.899 494.054C849.751 495.66 846.626 499.011 843.317 499.563C839.181 500.252 834.701 497.84 834.356 495.772C835.121 494.283 837.501 491.133 840.908 490.445Z" fill="#FFE900" stroke="#1C0F00" stroke-width="1.5" stroke-linecap="round" stroke-linejoin="round"/>
<path d="M858.357 509.414C867.881 505.623 865.031 494.171 857.794 493.015C853.267 492.291 851.51 494.226 850.452 495.599C847.151 495.019 843.691 496.451 843.346 500.641C842.85 506.673 850.079 512.709 858.357 509.414Z" fill="#FFBAC2"/>
<path d="M854.911 497.696C853.799 496.727 851.903 495.854 850.452 495.599M850.452 495.599C851.51 494.226 853.267 492.291 857.794 493.015C865.031 494.171 867.881 505.623 858.357 509.414C850.079 512.709 842.85 506.673 843.346 500.641C843.691 496.451 847.151 495.019 850.452 495.599Z" stroke="#1C0F00" stroke-width="1.5" stroke-linecap="round" stroke-linejoin="round"/>
<path d="M825.898 507.959C820.308 501.964 824.911 495.32 829.52 494.51C833.139 493.874 835.215 495.369 836.034 496.727C839.061 495.61 842.655 496.435 843.662 501.286C845.479 510.036 831.764 514.25 825.898 507.959Z" fill="#FFBAC2"/>
<path d="M831.825 500.505C832.526 498.835 834.173 497.414 836.034 496.727M836.034 496.727C839.061 495.61 842.655 496.435 843.662 501.286C845.479 510.036 831.764 514.25 825.898 507.959C820.308 501.964 824.911 495.32 829.52 494.51C833.139 493.874 835.215 495.369 836.034 496.727Z" stroke="#1C0F00" stroke-width="1.5" stroke-linecap="round" stroke-linejoin="round"/>
<path d="M707.074 444.611C701.873 447.253 700.977 451.312 701.193 452.963C702.015 453.257 703.348 454.187 704.639 455.469C705.872 456.694 707.067 458.239 707.741 459.856C708.016 460.132 713.154 459.369 715.689 459.47C716.502 459.801 720.24 458.15 721.053 454.187C722.353 447.088 713.576 441.309 707.074 444.611Z" fill="#8BE3FF"/>
<path d="M697.401 442.624C701.978 445.396 701.642 450.818 700.848 452.963L690.163 456.754L686.717 455.376C685.287 455.156 682.29 453.155 682.926 448.138C683.72 441.867 691.68 439.158 697.401 442.624Z" fill="#8BE3FF" stroke="#1C0F00" stroke-width="1.5" stroke-linecap="round" stroke-linejoin="round"/>
<path d="M704.639 455.376C705.292 454.54 706.888 451.848 710.284 451.096M701.193 452.963C700.977 451.312 701.873 447.253 707.074 444.611C713.576 441.309 721.924 446.754 720.623 453.853C719.81 457.816 716.502 459.801 715.689 459.47" stroke="#1C0F00" stroke-width="1.5" stroke-linecap="round" stroke-linejoin="round"/>
<path d="M694.988 452.963C695.088 452.237 694.299 449.517 691.542 447.104M700.848 452.963C701.642 450.818 701.978 445.396 697.401 442.624C691.68 439.158 683.72 441.867 682.926 448.138C682.29 453.155 685.287 455.156 686.717 455.376" stroke="#1C0F00" stroke-width="1.5" stroke-linecap="round" stroke-linejoin="round"/>
<path d="M700.155 452.806C694.127 451.844 690.983 454.811 690.164 456.415C691.312 458.021 694.437 461.372 697.746 461.924C701.882 462.613 706.362 460.201 706.707 458.133C705.942 456.644 703.562 453.494 700.155 452.806Z" fill="#FFE900" stroke="#1C0F00" stroke-width="1.5" stroke-linecap="round" stroke-linejoin="round"/>
<path d="M682.926 471.229C674.487 468.372 676.032 456.532 683.269 455.375C687.822 454.648 689.654 456.568 690.71 457.943C693.98 457.408 697.375 458.854 697.717 463.002C698.213 469.034 691.365 474.086 682.926 471.229Z" fill="#8BE3FF"/>
<path d="M686.63 459.828C690.27 456.653 697.22 456.971 697.717 463.002C698.213 469.034 691.365 474.086 682.926 471.229C674.487 468.372 676.032 456.532 683.269 455.375C687.828 454.647 689.658 456.573 690.714 457.949" stroke="#1C0F00" stroke-width="1.5" stroke-linecap="round" stroke-linejoin="round"/>
<path d="M715.166 470.32C720.756 464.325 716.153 457.681 711.543 456.871C707.925 456.235 705.848 457.73 705.03 459.088C702.002 457.971 698.409 458.796 697.402 463.647C695.585 472.397 709.299 476.611 715.166 470.32Z" fill="#8BE3FF"/>
<path d="M709.238 462.866C708.537 461.196 706.89 459.775 705.03 459.088M705.03 459.088C702.002 457.971 698.409 458.796 697.402 463.647C695.585 472.397 709.299 476.611 715.166 470.32C720.756 464.325 716.153 457.681 711.543 456.871C707.925 456.235 705.848 457.73 705.03 459.088Z" stroke="#1C0F00" stroke-width="1.5" stroke-linecap="round" stroke-linejoin="round"/>
<path d="M734.809 462.094C730.138 464.818 730.4 470.187 731.211 472.295C733.169 475.042 739.557 479.533 745.783 474.945C747.242 474.729 750.224 471.949 749.575 467.018C748.713 460.47 740.648 458.688 734.809 462.094Z" fill="#FF2F85" stroke="#1C0F00" stroke-width="1.5" stroke-linecap="round" stroke-linejoin="round"/>
<path d="M725.239 464.202C730.429 466.797 730.786 469.954 731.078 472.311L727.51 477.664L717.13 478.15C716.319 478.474 711.959 478.209 711.1 473.592C709.803 466.618 718.752 460.958 725.239 464.202Z" fill="#FF2F85" stroke="#1C0F00" stroke-width="1.5" stroke-linecap="round" stroke-linejoin="round"/>
<path d="M737.244 472.208C737.136 471.505 738.413 468.066 740.812 466.856" stroke="#1C0F00" stroke-width="1.5" stroke-linecap="round" stroke-linejoin="round"/>
<path d="M727.347 473.933C726.698 473.068 724.69 471.776 721.316 470.998" stroke="#1C0F00" stroke-width="1.5" stroke-linecap="round" stroke-linejoin="round"/>
<path d="M731.564 472.149C737.533 471.241 740.809 474.366 741.62 475.879C741.944 482.529 732.051 482.042 729.456 480.907C727.38 479.999 725.888 477.501 725.401 476.366C726.158 474.96 728.191 472.798 731.564 472.149Z" fill="#FFF3E1" stroke="#1C0F00" stroke-width="1.5" stroke-linecap="round" stroke-linejoin="round"/>
<path d="M717.128 490.476C711.21 484.88 716.127 476.953 720.669 476.143C724.675 475.427 726.312 476.896 727.138 478.39C730.277 477.365 733.854 478.267 734.779 482.792C736.568 491.55 723.132 496.153 717.128 490.476Z" fill="#FF2F85"/>
<path d="M722.159 483.074C722.774 480.924 724.839 479.14 727.138 478.39M727.138 478.39C730.277 477.365 733.854 478.267 734.779 482.792C736.568 491.55 723.132 496.153 717.128 490.476C711.21 484.88 716.127 476.953 720.669 476.143C724.675 475.427 726.312 476.896 727.138 478.39Z" stroke="#1C0F00" stroke-width="1.5" stroke-linecap="round" stroke-linejoin="round"/>
<path d="M749.417 490.211C758.049 487.165 756.019 475.347 748.739 474.135C743.964 473.339 741.995 475.076 740.697 476.261C737.621 476.122 734.672 477.791 734.354 481.81C733.847 488.241 740.784 493.257 749.417 490.211Z" fill="#FF2F85"/>
<path d="M745.83 478.348C744.434 477.079 742.542 476.344 740.697 476.261M740.697 476.261C737.621 476.122 734.672 477.791 734.354 481.81C733.847 488.241 740.784 493.257 749.417 490.211C758.049 487.165 756.019 475.347 748.739 474.135C743.964 473.339 741.995 475.076 740.697 476.261Z" stroke="#1C0F00" stroke-width="1.5" stroke-linecap="round" stroke-linejoin="round"/>
<path d="M124 309.93L124.527 314.524C125.822 325.808 134.338 334.922 145.509 336.98C145.602 336.997 145.642 337.034 145.665 337.063C145.693 337.1 145.715 337.158 145.715 337.228C145.715 337.299 145.693 337.357 145.664 337.394C145.641 337.424 145.6 337.461 145.507 337.478C134.337 339.536 125.812 348.641 124.499 359.923L123.99 364.302C123.969 364.479 123.899 364.574 123.829 364.631C123.749 364.696 123.632 364.738 123.5 364.738C123.368 364.738 123.251 364.696 123.171 364.631C123.101 364.574 123.031 364.478 123.01 364.302L122.501 359.923C121.188 348.641 112.663 339.536 101.493 337.478C101.4 337.461 101.359 337.424 101.336 337.394C101.307 337.357 101.285 337.299 101.285 337.228C101.285 337.158 101.307 337.1 101.335 337.063C101.358 337.034 101.398 336.997 101.491 336.98C112.662 334.922 121.178 325.808 122.473 314.524L123 309.93C123.021 309.751 123.092 309.653 123.164 309.595C123.246 309.528 123.365 309.484 123.5 309.484C123.635 309.484 123.754 309.528 123.836 309.595C123.908 309.653 123.979 309.751 124 309.93Z" fill="#FFE900" stroke="#1C0F00" stroke-width="1.5" stroke-linejoin="round"/>
<path d="M514.948 6.6544L515 6.2284L515.052 6.6544C515.659 11.6629 519.226 15.7592 524.005 17.1024C519.226 18.4446 515.654 22.5369 515.038 27.5441L515 27.8546L514.962 27.5441C514.346 22.5369 510.774 18.4446 505.995 17.1024C510.774 15.7592 514.341 11.6629 514.948 6.6544Z" fill="#FFE900" stroke="#1C0F00" stroke-width="1.5" stroke-linejoin="round"/>
<path fill-rule="evenodd" clip-rule="evenodd" d="M745.75 345.75C745.75 345.336 745.414 345 745 345C744.585 345 744.25 345.336 744.25 345.75V360.249C744.25 364.391 740.892 367.749 736.75 367.749L728.75 367.749C728.336 367.749 728 368.085 728 368.499C728 368.913 728.336 369.249 728.75 369.249L736.75 369.249C740.892 369.249 744.25 372.607 744.25 376.749V391.248C744.25 391.662 744.585 391.998 745 391.998C745.414 391.998 745.75 391.662 745.75 391.248V376.749C745.75 372.607 749.107 369.249 753.25 369.249L761.249 369.249C761.663 369.249 761.999 368.913 761.999 368.499C761.999 368.085 761.663 367.749 761.249 367.749L753.25 367.749C749.107 367.749 745.75 364.391 745.75 360.249V345.75Z" fill="#1C0F00"/>
<path fill-rule="evenodd" clip-rule="evenodd" d="M190.25 191.75C190.25 191.336 189.915 191 189.5 191C189.086 191 188.75 191.336 188.75 191.75V198.252C188.75 200.737 186.736 202.752 184.25 202.752L180.75 202.752C180.336 202.752 180 203.087 180 203.502C180 203.916 180.336 204.252 180.75 204.252L184.25 204.252C186.736 204.252 188.75 206.266 188.75 208.752V215.254C188.75 215.668 189.086 216.004 189.5 216.004C189.915 216.004 190.25 215.668 190.25 215.254V208.752C190.25 206.266 192.265 204.252 194.75 204.252L198.251 204.252C198.665 204.252 199.001 203.916 199.001 203.502C199.001 203.087 198.665 202.752 198.251 202.752L194.75 202.752C192.265 202.752 190.25 200.737 190.25 198.252V191.75Z" fill="#1C0F00"/>
</svg>
