<svg width="974" height="605" viewBox="0 0 974 605" fill="none" xmlns="http://www.w3.org/2000/svg">
<path d="M718.801 153.233C621.087 122.015 616.043 30.0385 667.263 10.0554C693.196 -0.0623327 712.08 10.4167 722.133 18.8862C746.735 -17.621 823.554 2.36128 804.599 73.3023C793.585 114.523 766.855 137.549 746.735 148.022C734.366 154.46 727.757 156.094 718.801 153.233Z" fill="#FF2F85"/>
<path d="M732.768 39.3292C731.771 30.3367 726.624 22.6695 722.133 18.8862M722.133 18.8862C712.08 10.4167 693.196 -0.0623328 667.263 10.0554C616.043 30.0385 621.087 122.015 718.801 153.233C727.757 156.094 734.366 154.46 746.735 148.022C766.855 137.549 793.585 114.523 804.599 73.3023C823.554 2.36128 746.735 -17.621 722.133 18.8862Z" stroke="#1C0F00" stroke-width="1.5" stroke-linecap="round" stroke-linejoin="round"/>
<path d="M721.504 169.097C725.077 165.185 724.984 157.067 724.984 153.434C727.458 148.404 735.704 148.963 738.177 151.478C740.376 161.761 744.775 164.85 746.516 166.154C735.522 163.025 725.26 167.048 721.504 169.097Z" fill="#FF2F85" stroke="#1C0F00" stroke-width="1.5" stroke-linecap="round" stroke-linejoin="round"/>
<path d="M836.703 193.741C825.301 238.984 784.84 270.249 718.631 264.732" stroke="#1C0F00" stroke-width="1.5" stroke-linecap="round" stroke-linejoin="round"/>
<path d="M718.631 264.732C735.796 254.678 758.135 227.214 733.712 165.419" stroke="#1C0F00" stroke-width="1.5" stroke-linecap="round" stroke-linejoin="round"/>
<path d="M877.253 43.9648C882.958 39.9239 890.949 42.278 893.438 48.8105C898.711 62.6502 901.647 73.2333 904.174 87.6632C904.743 90.9134 906.695 93.7718 909.535 95.4516C922.81 103.304 932.037 109.386 943.212 117.943C948.698 122.143 948.783 130.354 943.39 134.672C930.675 144.854 921.631 150.745 909.769 157.032C906.765 158.624 904.622 161.476 903.935 164.806C900.99 179.082 897.839 189.586 893.068 202.979C890.68 209.684 882.573 212.283 876.718 208.238C865.332 200.372 856.606 193.794 845.565 183.792C843.01 181.478 839.533 180.452 836.124 180.958C820.787 183.235 809.796 183.047 795.862 182.357C788.962 182.015 784.052 175.427 785.798 168.743C789.455 154.745 792.936 144.247 799.631 131.227C801.295 127.99 801.366 124.153 799.771 120.881C793.123 107.239 789.318 96.8711 785.655 82.8738C783.956 76.3781 788.652 69.9791 795.358 69.6453C809.687 68.932 820.853 69.386 836.589 71.4598C839.775 71.8797 843.002 70.9261 845.434 68.826C856.376 59.3804 865.036 52.6198 877.253 43.9648Z" fill="#FFA41C" stroke="#1C0F00" stroke-width="1.5" stroke-linecap="round" stroke-linejoin="round"/>
<path d="M823.461 191.705C828.375 189.725 832.923 183.209 834.496 179.935C839.645 176.624 846.634 180.5 847.002 184.546C844.533 194.768 847.013 198.603 848.018 200.532C839.462 192.952 827.734 191.484 823.461 191.705Z" fill="#FFA41C" stroke="#1C0F00" stroke-width="1.5" stroke-linecap="round" stroke-linejoin="round"/>
<path d="M5.60265 532.142C-28.8333 487.889 138.98 484.367 209.051 446.38C275.152 410.546 309.687 390.829 362.049 384.702C414.412 378.575 493.363 397.773 536.726 416.562C580.089 435.351 591.134 417.788 647.588 416.562C704.041 415.337 714.677 427.182 743.722 446.38C772.767 465.578 909.401 455.775 956.445 494.17C1003.49 532.566 908.582 555.44 878.719 561.158C848.856 566.877 828.402 564.017 753.131 590.159C677.86 616.301 696.268 555.031 631.224 585.666C566.18 616.301 515.863 586.483 441.001 594.244C366.139 602.004 316.416 618.214 249.141 577.088C201.389 547.897 49.7836 588.918 5.60265 532.142Z" fill="#00B261" stroke="#1C0F00" stroke-width="1.5" stroke-linecap="round" stroke-linejoin="round"/>
<path d="M663.824 406.713C671.916 410.759 670.813 419.955 669.342 423.265L693.986 428.047C685.894 413.702 689.94 403.403 695.09 397.517C682.951 402.667 679.886 410.269 678.905 414.07C674.491 408.184 667.625 406.59 663.824 406.713Z" fill="#00B261"/>
<path d="M668.606 424.369C670.078 421.058 671.917 410.759 663.824 406.713C667.625 406.59 674.491 408.184 678.905 414.07C679.886 410.269 682.951 402.667 695.09 397.517C689.94 403.403 685.894 413.702 693.986 428.047" stroke="#1C0F00" stroke-width="1.5" stroke-linecap="round" stroke-linejoin="round"/>
<path d="M480.646 461.519C464.094 468.14 458.454 481.75 456.37 486.164C461.887 487.635 477.851 490.357 497.566 489.474C484.693 486.164 486.532 471.818 492.049 468.876C479.984 468.876 474.026 475.374 472.922 478.807C472.334 472.039 478.072 462.991 480.646 461.519Z" fill="#00B261"/>
<path d="M456.37 486.164C458.454 481.75 464.094 468.14 480.646 461.519C478.072 462.991 472.334 472.039 472.922 478.807C474.026 475.374 479.984 468.876 492.049 468.876C486.532 471.818 484.693 486.164 497.566 489.474" stroke="#1C0F00" stroke-width="1.5" stroke-linecap="round" stroke-linejoin="round"/>
<path d="M831.553 459.68C830.965 452.912 836.659 443.128 840.013 441.657C830.611 445.418 824.595 450.698 820.886 456.002C821.331 454.163 819.415 446.438 811.323 444.232C814.633 449.749 816.104 455.928 805.805 468.876C816.104 470.838 840.749 473.731 856.933 469.612C844.059 466.301 845.898 451.956 851.416 449.013C839.351 449.013 832.657 456.247 831.553 459.68Z" fill="#00B261"/>
<path d="M856.933 469.612C844.059 466.301 845.898 451.956 851.416 449.013C839.351 449.013 832.289 456.738 831.185 461.887C830.817 450.485 837.438 443.128 840.013 441.657C830.611 445.418 824.595 450.698 820.886 456.002C821.331 454.163 819.047 445.703 810.955 444.232C815.001 447.91 815.737 459.68 805.805 468.876" stroke="#1C0F00" stroke-width="1.5" stroke-linecap="round" stroke-linejoin="round"/>
<path d="M101.417 481.75C102.006 474.982 96.3114 465.198 92.9574 463.726C102.359 467.487 108.376 472.767 112.084 478.071C111.639 476.232 113.556 468.508 121.648 466.301C118.337 471.818 116.866 477.998 127.165 490.945C116.866 492.907 92.2217 495.801 76.0373 491.681C88.9113 488.371 87.0721 474.025 81.5547 471.083C93.6195 471.083 100.314 478.317 101.417 481.75Z" fill="#00B261"/>
<path d="M76.0373 491.681C88.9113 488.371 87.0721 474.025 81.5547 471.083C93.6195 471.083 100.682 478.807 101.785 483.957C102.153 472.554 95.5322 465.198 92.9574 463.726C102.359 467.487 108.376 472.767 112.084 478.071C111.639 476.232 113.924 467.772 122.016 466.301C117.97 469.979 117.234 481.75 127.165 490.945" stroke="#1C0F00" stroke-width="1.5" stroke-linecap="round" stroke-linejoin="round"/>
<path d="M489.948 386.482C497.097 398.195 491.139 408.038 487.267 411.495C493.741 415.614 499.099 410.974 500.969 408.139C502.876 396.914 494.416 389.024 489.948 386.482Z" fill="#00B261"/>
<path d="M487.267 411.495C491.139 408.038 497.097 398.195 489.948 386.482C494.416 389.024 502.876 396.914 500.969 408.139" stroke="#1C0F00" stroke-width="1.5" stroke-linecap="round" stroke-linejoin="round"/>
<path d="M215.337 430.622C208.188 442.335 214.145 452.177 218.018 455.634C211.544 459.754 206.186 455.114 204.316 452.279C202.409 441.054 210.869 433.164 215.337 430.622Z" fill="#00B261"/>
<path d="M218.018 455.634C214.145 452.177 208.188 442.335 215.337 430.622C210.869 433.164 202.409 441.054 204.316 452.279" stroke="#1C0F00" stroke-width="1.5" stroke-linecap="round" stroke-linejoin="round"/>
<path d="M925.455 464.462C932.604 476.175 926.646 486.017 922.774 489.474C929.248 493.594 934.606 488.954 936.476 486.119C938.382 474.894 929.923 467.004 925.455 464.462Z" fill="#00B261"/>
<path d="M922.774 489.474C926.646 486.017 932.604 476.175 925.455 464.462C929.923 467.004 938.382 474.894 936.476 486.119" stroke="#1C0F00" stroke-width="1.5" stroke-linecap="round" stroke-linejoin="round"/>
<path d="M323.952 375.448C340.504 382.069 346.144 395.678 348.229 400.092C342.711 401.563 326.747 404.285 307.032 403.403C319.906 400.092 318.067 385.747 312.549 382.804C324.614 382.804 330.573 389.303 331.676 392.736C332.265 385.968 326.527 376.919 323.952 375.448Z" fill="#00B261"/>
<path d="M348.229 400.092C346.144 395.678 340.504 382.069 323.952 375.448C326.527 376.919 332.265 385.968 331.676 392.736C330.573 389.303 324.614 382.804 312.549 382.804C318.067 385.747 319.906 400.092 307.032 403.403" stroke="#1C0F00" stroke-width="1.5" stroke-linecap="round" stroke-linejoin="round"/>
<path d="M731.387 489.255C731.562 489.269 731.736 489.277 731.909 489.279L731.387 489.255C722.944 488.579 712.687 473.993 722.203 460.783C714.87 462.716 707.339 472.793 708.647 480.409C708.037 476.855 705.753 468.854 693.808 467.16C698.857 470.848 698.614 485.674 685.402 487.145L731.387 489.255Z" fill="#00B261"/>
<path d="M730.033 484.692C720.837 484.692 712.377 471.818 722.203 460.783C714.87 462.716 709.229 471.559 710.538 479.175C709.927 475.621 705.753 468.854 693.808 467.16C696.827 469.446 698.975 483.125 687.897 485.269" stroke="#1C0F00" stroke-width="1.5" stroke-linecap="round" stroke-linejoin="round"/>
<ellipse cx="367.304" cy="460.784" rx="89.0141" ry="13.9774" fill="#1C0F00"/>
<ellipse cx="563.775" cy="446.806" rx="89.0141" ry="13.9774" fill="#1C0F00"/>
<path d="M468.876 363.677C434.505 344.9 437.978 299.675 454.531 276.87L484.693 269.881C468.018 290.234 453.667 329.246 481.015 343.079C506.036 355.735 540.169 330.199 553.844 307.286C550.902 304.089 548.576 297.307 550.534 289.008C555.074 269.767 588.052 263.996 599.823 289.81C599.823 289.81 673.766 443.128 641.129 443.128H549.798C515.59 443.128 497.875 399.484 525.522 378.758C529.412 375.641 533.767 373.399 538.422 371.916C539.954 364.742 544.597 355.574 551.918 348.352C526.929 372.458 493.44 377.096 468.876 363.677Z" fill="#EEB36F"/>
<path d="M553.844 307.286C550.902 304.089 548.576 297.307 550.534 289.008C555.074 269.767 588.052 263.996 599.823 289.81C599.823 289.81 673.766 443.128 641.129 443.128H549.798C515.59 443.128 497.875 399.484 525.522 378.758C529.412 375.641 533.767 373.399 538.422 371.916M553.844 307.286C540.169 330.199 506.036 355.735 481.015 343.079C453.667 329.246 468.018 290.234 484.693 269.881L454.531 276.87C437.978 299.675 434.505 344.9 468.876 363.677C493.606 377.187 527.382 372.395 552.423 347.861M553.844 307.286C556.584 302.695 558.502 298.21 559.362 294.158M618.582 400.092C603.194 380.508 565.654 363.242 538.422 371.916M538.422 371.916C539.989 364.578 544.811 355.154 552.423 347.861M552.423 347.861C560.618 339.832 567.344 330.612 572.604 318.802" stroke="#1C0F00" stroke-width="1.5" stroke-linecap="round" stroke-linejoin="round"/>
<path d="M432.327 467.492C454.605 456.353 453.365 433.978 450.315 422.839L534.349 279.077C517.813 263.529 507.303 277.373 504.115 286.238L445.335 365.149C446.806 338.297 439.082 306.724 418.852 295.63C372.873 270.416 336.826 301.147 328.366 324.688C348.229 326.159 377.885 333.999 401.963 375.477C415.461 398.729 431.004 447.482 432.327 467.492Z" fill="#EEB36F"/>
<path d="M653.196 221.75C642.985 216.711 618.586 216.578 605.855 234.48C597.444 246.308 599.093 257.951 601.479 263.521C603.92 269.218 609.271 272.541 612.666 274.297C606.109 281.624 602.806 293.204 607.845 305.69C616.674 327.57 645.637 322.796 654.787 314.044C656.776 318.818 667.278 327.411 680.645 322.001C688.567 318.794 692.554 312.636 693.709 305.69C702.923 306.088 719.79 298.052 718.836 270.682C717.642 236.469 693.707 223.739 680.977 223.739C681.78 199.934 681.499 156.806 680.645 146.562C679.452 132.24 671.495 115.522 654.389 109.963C641.659 105.825 626.205 108.308 617.851 111.092C612.036 118.137 605.408 133.46 625.409 138.399C631.774 133.625 646.273 133.434 650.411 144.573C654.548 155.712 653.991 200.666 653.196 221.75Z" fill="#EEB36F"/>
<path d="M612.666 274.297C609.271 272.541 603.92 269.218 601.479 263.521C599.093 257.951 597.444 246.308 605.855 234.48C618.586 216.578 642.985 216.711 653.196 221.75C653.991 200.666 654.548 155.712 650.411 144.573C646.273 133.434 631.774 133.625 625.409 138.399C605.408 133.46 612.036 118.137 617.851 111.092C626.205 108.308 641.659 105.825 654.389 109.963C671.495 115.522 679.452 132.24 680.645 146.562C681.499 156.806 681.78 199.934 680.977 223.739M612.666 274.297C606.109 281.624 602.806 293.204 607.845 305.69C616.674 327.57 645.637 322.796 654.787 314.044M612.666 274.297C617.599 268.784 624.373 265.678 630.822 266.402M661.55 286.594C662.611 293.092 662.15 307.001 654.787 314.044M654.787 314.044C656.776 318.818 667.278 327.411 680.645 322.001C688.567 318.794 692.554 312.636 693.709 305.69M630.822 266.402C628.723 256.418 623.18 252.134 619.778 251.189M630.822 266.402C631.669 270.43 631.955 275.385 631.315 281.423M693.709 305.69C702.923 306.088 719.79 298.052 718.836 270.682C717.642 236.469 693.707 223.739 680.977 223.739M693.709 305.69C694.989 297.985 692.785 289.311 688.601 282.616M680.977 223.739C680.882 226.559 680.771 229.107 680.645 231.298" stroke="#1C0F00" stroke-width="1.5" stroke-linecap="round" stroke-linejoin="round"/>
<path d="M355.217 392.736C330.178 355.861 328.734 337.239 328.734 325.424C347.108 325.424 377.755 333.69 401.834 375.168C415.332 398.421 430.874 447.174 432.197 467.183C410.317 456.442 377.098 424.959 355.217 392.736Z" fill="#1C0F00"/>
<path d="M444.401 433.25L535.453 277.275C518.917 261.728 508.406 275.571 505.218 284.436L445.703 364.439M450.368 422.907C453.418 434.046 454.475 456.044 432.197 467.183M432.197 467.183C410.317 456.442 377.098 424.959 355.217 392.736C330.178 355.861 328.734 337.239 328.734 325.424M432.197 467.183C430.874 447.174 415.332 398.421 401.834 375.168C377.755 333.69 347.108 325.424 328.734 325.424M442.76 384.276C448.01 356.504 446.222 314.307 421.058 297.101C378.023 267.675 333.516 301.883 328.734 325.424" stroke="#1C0F00" stroke-width="1.5" stroke-linecap="round" stroke-linejoin="round"/>
<path d="M317.536 221.75C327.747 216.711 352.147 216.579 364.877 234.48C373.288 246.309 371.639 257.952 369.253 263.521C366.812 269.218 361.461 272.541 358.066 274.297C364.623 281.625 367.926 293.204 362.887 305.69C354.058 327.57 325.096 322.796 315.945 314.044C313.956 318.818 303.454 327.411 290.087 322.001C282.165 318.794 278.178 312.636 277.024 305.69C267.809 306.088 250.942 298.052 251.897 270.682C253.09 236.469 277.025 223.739 289.755 223.739C288.952 199.934 289.234 156.806 290.087 146.562C291.281 132.241 299.237 115.523 316.343 109.963C329.073 105.826 345.742 106.574 356.881 111.745C362.61 138.479 351.047 140.388 344.549 138.002C338.184 133.228 324.459 133.434 320.321 144.573C316.184 155.712 316.741 200.666 317.536 221.75Z" fill="#EEB36F"/>
<path d="M358.066 274.297C361.461 272.541 366.812 269.218 369.253 263.521C371.639 257.952 373.288 246.309 364.877 234.48C352.147 216.579 327.747 216.711 317.536 221.75C316.741 200.666 316.184 155.712 320.321 144.573C324.459 133.434 338.184 133.228 344.549 138.002M358.066 274.297C364.623 281.625 367.926 293.204 362.887 305.69C354.058 327.57 325.096 322.796 315.945 314.044M358.066 274.297C353.133 268.784 346.359 265.678 339.91 266.403M309.182 286.595C308.122 293.092 308.582 307.001 315.945 314.044M315.945 314.044C313.956 318.818 303.454 327.411 290.087 322.001C282.165 318.794 278.178 312.636 277.024 305.69M339.91 266.403C342.01 256.418 347.552 252.134 350.954 251.189M339.91 266.403C339.063 270.43 338.777 275.386 339.417 281.423M356.881 111.745C345.742 106.574 329.073 105.826 316.343 109.963C299.237 115.523 291.281 132.241 290.087 146.562C289.234 156.806 288.952 199.934 289.755 223.739M277.024 305.69C267.809 306.088 250.942 298.052 251.897 270.682C253.09 236.469 277.025 223.739 289.755 223.739M277.024 305.69C275.743 297.986 277.947 289.311 282.131 282.617M289.755 223.739C289.85 226.559 289.961 229.107 290.087 231.298" stroke="#1C0F00" stroke-width="1.5" stroke-linecap="round" stroke-linejoin="round"/>
<path d="M436.669 36.6068C430.749 34.2635 414.766 32.9807 402.63 42.1567C394.195 48.8737 390.369 56.6761 388.89 63.6171C379.286 65.5904 358.229 78.787 364.545 107.342C358.495 110.2 351.635 115.622 347.869 125.037C341.949 139.837 347.375 153.404 350.829 158.338C339.877 187.05 353.846 202.614 362.199 206.808C362.42 214.124 364.382 222.151 369.7 229.378C376.167 238.167 384.175 241.792 391.16 242.868C393.824 264.181 414.839 269.338 425.059 267.488C429.465 273.109 435.954 278.271 444.44 280.438C465.594 285.839 477 279.451 479.96 275.998C481.81 278.835 488.47 284.656 500.31 285.248C514.518 285.84 521.702 279.328 523.517 275.998C531.653 279.65 542.459 281.379 553.221 275.998C562.182 271.517 567.219 265.121 569.993 258.948C596.338 255.396 601.074 234.63 600.211 224.677C606.773 222.13 613.992 217.346 617.971 209.028C624.483 195.412 620.684 180.661 617.971 174.988C621.301 171.658 627.443 163.37 626.851 147.977C626.259 132.585 619.574 126.73 615.751 124.062C617.734 118.035 619.027 110.394 617.231 103.207C614.271 91.3672 603.871 85.9405 599.042 84.7072C598.438 78.3141 596.238 71.0094 590.591 62.8771C583.191 52.2211 568.761 47.8303 562.471 46.967C555.367 29.2069 537.804 28.8165 529.911 30.8412C525.944 26.6829 519.889 22.5061 511.04 19.9566C498.89 16.4555 488.602 20.6034 481.971 25.5069C478.148 22.6702 468.711 17.5886 456.279 19.9567C443.847 22.3247 437.779 32.1668 436.669 36.6068Z" fill="#EEB36F"/>
<path d="M388.939 78.787C388.124 75.3504 387.567 69.8287 388.89 63.6171M481.971 25.5069C478.148 22.6702 468.711 17.5886 456.279 19.9567C443.847 22.3247 437.779 32.1668 436.669 36.6068C430.749 34.2635 414.766 32.9807 402.63 42.1567C394.195 48.8737 390.369 56.6761 388.89 63.6171M481.971 25.5069C488.602 20.6034 498.89 16.4555 511.04 19.9566C519.889 22.5061 525.944 26.6829 529.911 30.8412M481.971 25.5069C479.071 27.6511 476.871 29.9399 475.52 31.7967M536.2 41.4167C535.653 38.922 533.772 34.8904 529.911 30.8412M529.911 30.8412C537.804 28.8165 555.367 29.2069 562.471 46.967C568.761 47.8303 583.191 52.221 590.591 62.8771C596.238 71.0094 598.438 78.3141 599.042 84.7072M598.731 95.8072C599.163 92.4928 599.427 88.7855 599.042 84.7072M599.042 84.7072C603.871 85.9405 614.271 91.3672 617.231 103.207C619.028 110.394 617.734 118.035 615.751 124.062M611.681 133.177C612.893 131.19 614.467 127.964 615.751 124.062M615.751 124.062C619.574 126.73 626.259 132.585 626.851 147.977C627.443 163.37 621.301 171.658 617.971 174.988C620.684 180.661 624.483 195.412 617.971 209.028C613.992 217.346 606.773 222.13 600.211 224.677M589.481 227.158C592.12 227.014 596.032 226.299 600.211 224.677M600.211 224.677C601.074 234.63 596.338 255.396 569.993 258.948M569.993 258.948C567.219 265.121 562.182 271.517 553.221 275.998C542.459 281.379 531.653 279.65 523.517 275.998M569.993 258.948C572.718 252.887 573.262 247.043 573.201 243.438M511.78 267.858C514.065 270.434 518.226 273.623 523.517 275.998M523.517 275.998C521.702 279.328 514.518 285.84 500.31 285.248C488.47 284.656 481.81 278.835 479.96 275.998C477 279.451 465.594 285.839 444.44 280.438C435.954 278.271 429.465 273.109 425.059 267.488M418.17 251.208C418.107 255.186 420.436 261.59 425.059 267.488M425.059 267.488C414.839 269.338 393.824 264.181 391.16 242.868M391.16 242.868C384.175 241.792 376.167 238.167 369.7 229.378C364.382 222.151 362.42 214.124 362.199 206.808M391.16 242.868C396.643 243.714 401.496 242.988 404.479 241.958M366 186.458C364.071 190.649 361.941 198.241 362.199 206.808M388.89 63.6171C379.286 65.5904 358.229 78.787 364.545 107.342M364.545 107.342C358.495 110.2 351.635 115.622 347.869 125.037C341.949 139.837 347.375 153.404 350.829 158.338C339.877 187.05 353.846 202.614 362.199 206.808M364.545 107.342C368.005 105.708 371.2 104.912 373.4 104.687" stroke="#1C0F00" stroke-width="1.5" stroke-linecap="round" stroke-linejoin="round"/>
<path d="M562.844 188.049C563.316 195.301 554.473 208.736 541.27 205.483M531.792 200.523C535.133 203.186 538.311 204.754 541.27 205.483M541.27 205.483C539.469 208.836 533.965 214.259 526.352 209.128" stroke="#1C0F00" stroke-width="1.5" stroke-linecap="round" stroke-linejoin="round"/>
<path d="M396.877 199.089C401.99 199.999 409.417 208.363 402.484 217.679" stroke="#1C0F00" stroke-width="1.5" stroke-linecap="round" stroke-linejoin="round"/>
<path d="M605.578 156.691C601.315 159.658 591.391 160.29 589.722 148.799" stroke="#1C0F00" stroke-width="1.5" stroke-linecap="round" stroke-linejoin="round"/>
<path d="M548.016 120.383C545.637 114.817 549.038 104.077 559.199 101.303M568.517 100.988C564.942 100.4 561.842 100.582 559.199 101.303M559.199 101.303C557.336 98.2467 554.822 90.8149 559.673 85.5415" stroke="#1C0F00" stroke-width="1.5" stroke-linecap="round" stroke-linejoin="round"/>
<path d="M459.166 139.99C459.166 155.161 447.268 166.69 432.069 166.69C416.87 166.69 404.574 154.764 404.574 139.593C404.574 124.379 416.116 112.097 431.273 112.097C447.548 112.097 459.166 124.786 459.166 139.99Z" fill="#FFF3E1" stroke="#1C0F00" stroke-width="1.5"/>
<circle cx="437.242" cy="145.042" r="21.4822" fill="#1C0F00"/>
<path d="M399.847 143.969C392.527 142.377 385.127 147.549 384.332 151.527L396.266 172.612C398.653 173.805 409.394 171.02 410.986 163.064C412.577 155.108 408.997 145.958 399.847 143.969Z" fill="#EEB36F"/>
<path d="M383.138 154.159C383.569 148.685 390.147 142.914 398.237 143.632C407.728 144.474 413.768 155.001 411.179 163.422C408.651 171.648 399.531 173.949 396.943 172.686" stroke="#1C0F00" stroke-width="1.5" stroke-linecap="round" stroke-linejoin="round"/>
<path d="M440.822 213.189C446.259 216.106 459.917 219.395 471.056 209.211" stroke="#1C0F00" stroke-width="1.5" stroke-linecap="round" stroke-linejoin="round"/>
<path d="M500.143 139.99C500.143 155.176 487.833 167.486 472.648 167.486C457.462 167.486 444.755 154.778 444.755 139.593C444.755 124.407 457.065 112.097 472.25 112.097C488.525 112.097 500.143 124.786 500.143 139.99Z" fill="#FFF3E1" stroke="#1C0F00" stroke-width="1.5" stroke-linejoin="round"/>
<circle cx="477.819" cy="145.042" r="21.4822" fill="#1C0F00"/>
<circle cx="464.778" cy="131.579" r="7.72437" fill="#FFF3E1"/>
<circle cx="424.317" cy="131.579" r="7.72437" fill="#FFF3E1"/>
<path d="M435.253 166.246C431.752 161.791 430.081 161.473 427.694 161.87C426.119 162.133 422.854 164.11 421.727 173.407C420.135 186.535 427.296 210.404 453.155 208.813C479.013 207.222 480.604 184.546 479.808 176.192C479.013 167.838 475.432 160.677 471.056 159.483C466.68 158.29 465.611 161.543 463.1 165.848C460.316 170.622 455.543 173.407 449.177 173.407C444.005 173.407 439.629 171.816 435.253 166.246Z" fill="#FDDEDC" stroke="#1C0F00" stroke-width="1.5" stroke-linecap="round" stroke-linejoin="round"/>
<path d="M464.419 182.16C473.967 188.525 473.569 200.857 468.795 203.642C463.704 207.779 452.484 210.007 444.926 208.415C449.699 205.869 450.414 201.52 450.175 199.663C448.859 200.169 447.46 200.402 446.119 200.339C440.687 200.084 435.096 196.057 435.776 189.718C436.97 178.579 452.485 174.203 464.419 182.16Z" fill="#FFBAC2"/>
<path d="M456.064 189.32C456.946 194.611 453.898 198.231 450.175 199.663M450.175 199.663C448.859 200.169 447.46 200.402 446.119 200.339C440.687 200.084 435.096 196.057 435.776 189.718C436.97 178.579 452.485 174.203 464.419 182.16C473.967 188.525 473.569 200.857 468.795 203.642C463.704 207.779 452.484 210.007 444.926 208.415C449.699 205.869 450.414 201.52 450.175 199.663Z" stroke="#1C0F00" stroke-width="1.5" stroke-linecap="round" stroke-linejoin="round"/>
<path d="M480.877 99.0708C483.309 100.208 484.694 101.35 485.347 102.368C485.964 103.331 485.943 104.201 485.486 105.015C484.997 105.887 483.967 106.756 482.445 107.492C480.937 108.221 479.018 108.786 476.858 109.096C472.307 109.747 467.665 109.329 464.188 108.194C462.448 107.626 461.042 106.892 460.085 106.061C459.131 105.233 458.677 104.359 458.677 103.479C458.677 101.841 459.54 100.569 461.074 99.5893C462.63 98.5954 464.822 97.948 467.279 97.624C472.208 96.9742 477.871 97.6649 480.877 99.0708Z" fill="#6C3712" stroke="#1C0F00" stroke-width="1.5" stroke-linejoin="round"/>
<path d="M414.186 106.015C413.125 105.09 412.573 104.07 412.531 103.002C412.537 102.099 413.121 100.565 415.207 99.3126C417.31 98.0502 420.94 97.0839 426.934 97.4605C430.661 97.6946 433.46 98.4648 435.406 99.4833C437.358 100.505 438.396 101.743 438.741 102.896C439.078 104.017 438.801 105.193 437.829 106.249C436.841 107.322 435.127 108.269 432.649 108.773C427.599 109.801 422.52 109.515 418.711 108.338C416.805 107.749 415.256 106.949 414.186 106.015Z" fill="#6C3712" stroke="#1C0F00" stroke-width="1.5" stroke-linejoin="round"/>
<path d="M463.496 249.338C465.972 246.754 472.7 243.553 479.802 251.427C479.79 249.221 480.9 244.475 485.439 243.141" stroke="#1C0F00" stroke-width="1.5" stroke-linecap="round" stroke-linejoin="round"/>
<path d="M506.461 148.345C516.327 149.3 520.65 155.373 521.578 158.29L504.472 179.375C502.085 179.375 493.731 178.579 490.15 169.827C486.57 161.075 494.129 147.151 506.461 148.345Z" fill="#EEB36F"/>
<path d="M521.579 158.29C520.784 154.71 516.01 148.909 506.065 147.947C493.732 146.753 486.571 160.677 490.151 169.429C493.731 178.181 502.086 179.374 504.473 179.374" stroke="#1C0F00" stroke-width="1.5" stroke-linecap="round" stroke-linejoin="round"/>
<circle cx="509.653" cy="154.384" r="1.10348" fill="#1C0F00"/>
<circle cx="400.04" cy="152.177" r="1.10348" fill="#1C0F00"/>
<circle cx="497.147" cy="161.005" r="1.10348" fill="#1C0F00"/>
<circle cx="390.477" cy="152.177" r="1.10348" fill="#1C0F00"/>
<circle cx="504.503" cy="163.212" r="1.10348" fill="#1C0F00"/>
<circle cx="396.363" cy="161.005" r="1.10348" fill="#1C0F00"/>
<circle cx="514.803" cy="161.005" r="1.10348" fill="#1C0F00"/>
<circle cx="405.19" cy="161.005" r="1.10348" fill="#1C0F00"/>
<path d="M393.288 91.8732C395.631 90.7632 399.282 86.5452 395.138 78.5531C398.591 85.2132 413.638 90.0232 419.188 76.7031" stroke="#1C0F00" stroke-width="1.5" stroke-linecap="round" stroke-linejoin="round"/>
<path d="M463.854 56.2168C470.514 52.5167 486.424 52.517 489.677 66.947M489.754 73.6071C490.124 72.1271 489.983 68.3009 489.677 66.947M489.677 66.947C495.674 64.3571 506.774 68.4271 505.664 80.637" stroke="#1C0F00" stroke-width="1.5" stroke-linecap="round" stroke-linejoin="round"/>
<path d="M538.142 449.526C532.59 452.345 531.634 456.677 531.865 458.439L538.142 465.384H547.336C548.203 465.737 552.193 463.974 553.06 459.746C554.448 452.169 545.081 446.002 538.142 449.526Z" fill="#FFA41C"/>
<path d="M535.543 461.014C536.24 460.122 538.54 458.138 542.164 457.336M531.865 458.439C531.634 456.677 532.59 452.345 538.142 449.526C545.081 446.002 554.448 452.169 553.06 459.746C552.193 463.974 548.203 465.737 547.336 465.384H538.142L531.865 458.439Z" stroke="#1C0F00" stroke-width="1.5" stroke-linecap="round" stroke-linejoin="round"/>
<path d="M527.95 446.883C532.835 449.842 532.344 456.15 531.496 458.439L519.858 462.7L516.416 461.014C514.889 460.779 511.455 458.491 512.134 453.137C512.982 446.444 521.845 443.185 527.95 446.883Z" fill="#FFA41C"/>
<path d="M525.243 458.439C525.35 457.664 524.508 454.761 521.565 452.186M531.496 458.439C532.344 456.15 532.835 449.842 527.95 446.883C521.845 443.185 512.982 446.444 512.134 453.137C511.455 458.491 514.889 460.779 516.416 461.014L519.858 462.7L531.496 458.439Z" stroke="#1C0F00" stroke-width="1.5" stroke-linecap="round" stroke-linejoin="round"/>
<path d="M530.757 458.272C524.324 457.245 520.968 460.411 520.094 462.123C521.32 463.838 524.655 467.414 528.186 468.003C532.6 468.738 537.382 466.164 537.749 463.957C536.934 462.367 534.393 459.005 530.757 458.272Z" fill="#FFE900" stroke="#1C0F00" stroke-width="1.5" stroke-linecap="round" stroke-linejoin="round"/>
<path d="M512.134 478.517C501.97 474.471 505.012 462.249 512.735 461.014C517.566 460.242 519.442 462.307 520.571 463.773C524.094 463.153 527.786 464.682 528.154 469.154C528.684 475.591 520.969 482.034 512.134 478.517Z" fill="#FFA41C"/>
<path d="M515.812 466.011C516.998 464.976 519.023 464.045 520.571 463.773M520.571 463.773C519.442 462.307 517.566 460.242 512.735 461.014C505.012 462.249 501.97 474.471 512.134 478.517C520.969 482.034 528.684 475.591 528.154 469.154C527.786 464.682 524.094 463.153 520.571 463.773Z" stroke="#1C0F00" stroke-width="1.5" stroke-linecap="round" stroke-linejoin="round"/>
<path d="M546.777 476.964C552.743 470.565 547.831 463.475 542.911 462.61C539.049 461.932 536.833 463.527 535.959 464.977C532.728 463.784 528.893 464.665 527.818 469.842C525.879 479.18 540.516 483.678 546.777 476.964Z" fill="#FFA41C"/>
<path d="M540.451 469.009C539.703 467.226 537.945 465.71 535.959 464.977M535.959 464.977C532.728 463.784 528.893 464.665 527.818 469.842C525.879 479.18 540.516 483.678 546.777 476.964C552.743 470.565 547.831 463.475 542.911 462.61C539.049 461.932 536.833 463.527 535.959 464.977Z" stroke="#1C0F00" stroke-width="1.5" stroke-linecap="round" stroke-linejoin="round"/>
<path d="M597.141 437.978C589.993 449.691 595.95 459.534 599.822 462.991C593.348 467.11 587.99 462.47 586.12 459.635C584.214 448.41 592.673 440.52 597.141 437.978Z" fill="#00B261"/>
<path d="M599.822 462.991C595.95 459.534 589.993 449.691 597.141 437.978C592.673 440.52 584.214 448.41 586.12 459.635" stroke="#1C0F00" stroke-width="1.5" stroke-linecap="round" stroke-linejoin="round"/>
<path d="M326.527 444.231C321.009 448.645 316.228 462.99 323.216 474.025C328.345 482.123 299.308 474.393 292.319 472.922C301.514 468.876 295.997 454.53 291.215 453.427C301.147 452.324 306.787 458.331 307.768 460.048C310.416 454.751 317.331 445.703 326.527 444.231Z" fill="#00B261"/>
<path d="M325.791 479.175C314.021 465.933 321.377 447.174 327.63 443.864C316.596 445.703 310.416 454.751 307.768 460.048C306.787 458.331 300.779 452.324 290.848 453.427C295.629 454.531 301.515 468.14 293.055 472.922" stroke="#1C0F00" stroke-width="1.5" stroke-linecap="round" stroke-linejoin="round"/>
<path d="M54.3931 471.417C49.408 474.325 49.6874 480.054 50.5529 482.305C52.6427 485.237 59.4607 490.03 66.1051 485.133C67.663 484.902 70.8448 481.935 70.1524 476.673C69.2328 469.685 60.6245 467.782 54.3931 471.417Z" fill="#FF2F85" stroke="#1C0F00" stroke-width="1.5" stroke-linecap="round" stroke-linejoin="round"/>
<path d="M50.4054 482.27L50.4119 482.322L46.6038 488.034L35.5258 488.554C34.6604 488.9 30.0068 488.616 29.0903 483.689C27.7055 476.246 37.2568 470.206 44.1805 473.668C49.6811 476.418 50.0946 479.759 50.4054 482.27Z" fill="#FF2F85" stroke="#1C0F00" stroke-width="1.5" stroke-linecap="round" stroke-linejoin="round"/>
<path d="M56.993 482.212C56.8776 481.462 58.2398 477.791 60.801 476.5" stroke="#1C0F00" stroke-width="1.5" stroke-linecap="round" stroke-linejoin="round"/>
<path d="M46.4297 484.053C45.7373 483.13 43.5938 481.751 39.9935 480.92" stroke="#1C0F00" stroke-width="1.5" stroke-linecap="round" stroke-linejoin="round"/>
<path d="M50.9298 482.149C57.2996 481.18 60.7961 484.515 61.6616 486.13C62.0078 493.227 51.4491 492.708 48.6796 491.496C46.464 490.527 44.8715 487.861 44.3523 486.649C45.16 485.149 47.3295 482.841 50.9298 482.149Z" fill="#FFF3E1" stroke="#1C0F00" stroke-width="1.5" stroke-linecap="round" stroke-linejoin="round"/>
<path d="M35.5234 501.709C29.2074 495.736 34.455 487.276 39.3017 486.411C43.5779 485.648 45.3245 487.215 46.2061 488.809C49.5563 487.716 53.3739 488.678 54.3608 493.508C56.2709 502.855 41.9304 507.767 35.5234 501.709Z" fill="#FF2F85"/>
<path d="M40.8924 493.809C41.5489 491.514 43.7522 489.61 46.2061 488.809M46.2061 488.809C49.5563 487.716 53.3739 488.678 54.3608 493.508C56.2709 502.855 41.9304 507.767 35.5234 501.709C29.2074 495.736 34.455 487.276 39.3017 486.411C43.5779 485.648 45.3245 487.215 46.2061 488.809Z" stroke="#1C0F00" stroke-width="1.5" stroke-linecap="round" stroke-linejoin="round"/>
<path d="M69.9842 501.425C79.1973 498.174 77.0302 485.562 69.2604 484.268C64.1647 483.419 62.063 485.273 60.6775 486.537C57.3945 486.389 54.2474 488.171 53.9086 492.46C53.3667 499.323 60.7711 504.676 69.9842 501.425Z" fill="#FF2F85"/>
<path d="M66.1564 488.765C64.666 487.41 62.6473 486.626 60.6775 486.537M60.6775 486.537C57.3945 486.389 54.2474 488.171 53.9086 492.46C53.3667 499.323 60.7711 504.676 69.9842 501.425C79.1973 498.174 77.0302 485.562 69.2604 484.268C64.1647 483.419 62.063 485.273 60.6775 486.537Z" stroke="#1C0F00" stroke-width="1.5" stroke-linecap="round" stroke-linejoin="round"/>
<path d="M168.982 446.874C163.431 449.693 162.475 454.025 162.706 455.787C163.583 456.101 165.006 457.094 166.383 458.462C167.7 459.769 168.975 461.418 169.694 463.144C169.988 463.438 175.472 462.624 178.177 462.732C179.044 463.085 183.034 461.323 183.901 457.094C185.289 449.517 175.921 443.35 168.982 446.874Z" fill="#FFA41C"/>
<path d="M158.659 444.753C163.543 447.712 163.185 453.498 162.337 455.787L150.934 459.834L147.256 458.362C145.73 458.127 142.531 455.992 143.21 450.638C144.058 443.945 152.553 441.054 158.659 444.753Z" fill="#FFA41C" stroke="#1C0F00" stroke-width="1.5" stroke-linecap="round" stroke-linejoin="round"/>
<path d="M166.384 458.362C167.081 457.47 169.38 455.486 173.005 454.684M162.706 455.787C162.475 454.025 163.431 449.693 168.982 446.874C175.921 443.35 185.289 449.517 183.901 457.094C183.034 461.323 179.044 463.085 178.177 462.732" stroke="#1C0F00" stroke-width="1.5" stroke-linecap="round" stroke-linejoin="round"/>
<path d="M156.084 455.787C156.19 455.012 155.348 452.109 152.406 449.534M162.337 455.787C163.185 453.498 163.543 447.712 158.659 444.753C152.553 441.054 144.058 443.945 143.21 450.638C142.531 455.992 145.73 458.127 147.256 458.362" stroke="#1C0F00" stroke-width="1.5" stroke-linecap="round" stroke-linejoin="round"/>
<path d="M161.598 455.62C155.165 454.593 151.809 457.759 150.935 459.471C152.161 461.186 155.496 464.762 159.027 465.351C163.441 466.087 168.222 463.512 168.59 461.305C167.774 459.716 165.234 456.354 161.598 455.62Z" fill="#FFE900" stroke="#1C0F00" stroke-width="1.5" stroke-linecap="round" stroke-linejoin="round"/>
<path d="M143.21 475.282C134.203 472.233 135.852 459.597 143.576 458.362C148.435 457.586 150.39 459.635 151.517 461.103C155.008 460.532 158.631 462.074 158.995 466.502C159.525 472.939 152.217 478.331 143.21 475.282Z" fill="#FFA41C"/>
<path d="M147.162 463.114C151.048 459.726 158.465 460.065 158.995 466.502C159.525 472.939 152.217 478.331 143.21 475.282C134.203 472.233 135.852 459.597 143.576 458.362C148.441 457.585 150.395 459.641 151.521 461.108" stroke="#1C0F00" stroke-width="1.5" stroke-linecap="round" stroke-linejoin="round"/>
<path d="M177.618 474.312C183.584 467.913 178.671 460.823 173.752 459.958C169.89 459.28 167.674 460.875 166.8 462.325C163.569 461.132 159.734 462.013 158.659 467.19C156.72 476.528 171.357 481.026 177.618 474.312Z" fill="#FFA41C"/>
<path d="M171.292 466.357C170.543 464.574 168.786 463.058 166.8 462.325M166.8 462.325C163.569 461.132 159.734 462.013 158.659 467.19C156.72 476.528 171.357 481.026 177.618 474.312C183.584 467.913 178.671 460.823 173.752 459.958C169.89 459.28 167.674 460.875 166.8 462.325Z" stroke="#1C0F00" stroke-width="1.5" stroke-linecap="round" stroke-linejoin="round"/>
<path d="M188.2 467.182C193.751 470.001 194.707 474.333 194.476 476.095L188.2 483.04H179.006C178.138 483.392 174.148 481.63 173.281 477.401C171.893 469.825 181.261 463.658 188.2 467.182Z" fill="#8BE3FF"/>
<path d="M190.798 478.67C190.102 477.778 187.802 475.794 184.178 474.992M194.476 476.095C194.707 474.333 193.751 470.001 188.2 467.182C181.261 463.658 171.893 469.825 173.281 477.401C174.148 481.63 178.138 483.392 179.006 483.04H188.2L194.476 476.095Z" stroke="#1C0F00" stroke-width="1.5" stroke-linecap="round" stroke-linejoin="round"/>
<path d="M198.391 464.539C193.507 467.498 193.997 473.805 194.845 476.095L206.483 480.356L209.926 478.67C211.452 478.435 214.886 476.146 214.208 470.792C213.36 464.1 204.497 460.841 198.391 464.539Z" fill="#8BE3FF"/>
<path d="M201.098 476.095C200.992 475.32 201.834 472.417 204.777 469.842M194.845 476.095C193.997 473.805 193.507 467.498 198.391 464.539C204.497 460.841 213.36 464.1 214.208 470.792C214.886 476.146 211.452 478.435 209.926 478.67L206.483 480.356L194.845 476.095Z" stroke="#1C0F00" stroke-width="1.5" stroke-linecap="round" stroke-linejoin="round"/>
<path d="M195.585 475.928C202.018 474.901 205.374 478.067 206.248 479.779C205.022 481.493 201.687 485.07 198.156 485.659C193.742 486.394 188.96 483.819 188.592 481.612C189.408 480.023 191.949 476.661 195.585 475.928Z" fill="#FFE900" stroke="#1C0F00" stroke-width="1.5" stroke-linecap="round" stroke-linejoin="round"/>
<path d="M214.207 496.172C224.372 492.126 221.33 479.904 213.606 478.67C208.775 477.898 206.9 479.962 205.771 481.428C202.248 480.809 198.555 482.337 198.187 486.81C197.657 493.247 205.373 499.689 214.207 496.172Z" fill="#8BE3FF"/>
<path d="M210.529 483.666C209.343 482.632 207.319 481.701 205.771 481.428M205.771 481.428C206.9 479.962 208.775 477.898 213.606 478.67C221.33 479.904 224.372 492.126 214.207 496.172C205.373 499.689 197.657 493.247 198.187 486.81C198.555 482.337 202.248 480.809 205.771 481.428Z" stroke="#1C0F00" stroke-width="1.5" stroke-linecap="round" stroke-linejoin="round"/>
<path d="M179.565 494.619C173.599 488.221 178.511 481.13 183.431 480.266C187.293 479.587 189.509 481.182 190.383 482.632C193.613 481.44 197.449 482.32 198.524 487.498C200.462 496.836 185.826 501.334 179.565 494.619Z" fill="#8BE3FF"/>
<path d="M185.891 486.664C186.639 484.881 188.397 483.365 190.383 482.632M190.383 482.632C193.613 481.44 197.449 482.32 198.524 487.498C200.462 496.836 185.826 501.334 179.565 494.619C173.599 488.221 178.511 481.13 183.431 480.266C187.293 479.587 189.509 481.182 190.383 482.632Z" stroke="#1C0F00" stroke-width="1.5" stroke-linecap="round" stroke-linejoin="round"/>
<path d="M310.089 400.973C304.538 403.792 303.581 408.124 303.813 409.886L310.089 416.831H319.283C320.151 417.183 324.141 415.421 325.008 411.192C326.396 403.616 317.028 397.449 310.089 400.973Z" fill="#FFBAC2"/>
<path d="M307.49 412.461C308.187 411.569 310.487 409.585 314.111 408.783M303.813 409.886C303.581 408.124 304.538 403.792 310.089 400.973C317.028 397.449 326.396 403.616 325.008 411.192C324.141 415.421 320.151 417.183 319.283 416.831H310.089L303.813 409.886Z" stroke="#1C0F00" stroke-width="1.5" stroke-linecap="round" stroke-linejoin="round"/>
<path d="M299.898 398.33C304.783 401.289 304.292 407.597 303.444 409.886L291.806 414.147L288.364 412.461C286.837 412.226 283.403 409.937 284.082 404.583C284.93 397.891 293.793 394.632 299.898 398.33Z" fill="#FFBAC2"/>
<path d="M297.191 409.886C297.298 409.111 296.456 406.208 293.513 403.633M303.444 409.886C304.292 407.597 304.783 401.289 299.898 398.33C293.793 394.632 284.93 397.891 284.082 404.583C283.403 409.937 286.837 412.226 288.364 412.461L291.806 414.147L303.444 409.886Z" stroke="#1C0F00" stroke-width="1.5" stroke-linecap="round" stroke-linejoin="round"/>
<path d="M302.705 409.719C296.272 408.692 292.916 411.858 292.042 413.57C293.268 415.284 296.603 418.861 300.134 419.45C304.548 420.185 309.329 417.61 309.697 415.403C308.881 413.814 306.341 410.452 302.705 409.719Z" fill="#FFE900" stroke="#1C0F00" stroke-width="1.5" stroke-linecap="round" stroke-linejoin="round"/>
<path d="M284.082 429.963C273.918 425.917 276.96 413.695 284.683 412.461C289.514 411.689 291.39 413.753 292.519 415.219C296.042 414.6 299.734 416.128 300.102 420.601C300.632 427.038 292.917 433.48 284.082 429.963Z" fill="#FFBAC2"/>
<path d="M287.76 417.457C288.946 416.423 290.971 415.492 292.519 415.219M292.519 415.219C291.39 413.753 289.514 411.689 284.683 412.461C276.96 413.695 273.918 425.917 284.082 429.963C292.917 433.48 300.632 427.038 300.102 420.601C299.734 416.128 296.042 414.6 292.519 415.219Z" stroke="#1C0F00" stroke-width="1.5" stroke-linecap="round" stroke-linejoin="round"/>
<path d="M318.725 428.41C324.691 422.012 319.778 414.922 314.858 414.057C310.997 413.378 308.781 414.973 307.907 416.423C304.676 415.231 300.841 416.112 299.766 421.289C297.827 430.627 312.464 435.125 318.725 428.41Z" fill="#FFBAC2"/>
<path d="M312.399 420.455C311.65 418.672 309.893 417.156 307.907 416.423M307.907 416.423C304.676 415.231 300.841 416.112 299.766 421.289C297.827 430.627 312.464 435.125 318.725 428.41C324.691 422.012 319.778 414.922 314.858 414.057C310.997 413.378 308.781 414.973 307.907 416.423Z" stroke="#1C0F00" stroke-width="1.5" stroke-linecap="round" stroke-linejoin="round"/>
<path d="M890.013 470.86C895.564 473.679 896.52 478.012 896.289 479.774L890.013 486.718H880.819C879.951 487.071 875.961 485.309 875.094 481.08C873.706 473.503 883.074 467.336 890.013 470.86Z" fill="#FFBAC2"/>
<path d="M892.611 482.348C891.915 481.457 889.615 479.473 885.991 478.67M896.289 479.774C896.52 478.012 895.564 473.679 890.013 470.86C883.074 467.336 873.706 473.503 875.094 481.08C875.961 485.309 879.951 487.071 880.819 486.718H890.013L896.289 479.774Z" stroke="#1C0F00" stroke-width="1.5" stroke-linecap="round" stroke-linejoin="round"/>
<path d="M900.204 468.218C895.319 471.177 895.81 477.484 896.658 479.774L908.296 484.034L911.739 482.348C913.265 482.113 916.699 479.825 916.02 474.471C915.172 467.778 906.309 464.519 900.204 468.218Z" fill="#FFBAC2"/>
<path d="M902.911 479.774C902.804 478.998 903.646 476.095 906.589 473.52M896.658 479.774C895.81 477.484 895.319 471.177 900.204 468.218C906.309 464.519 915.172 467.778 916.02 474.471C916.699 479.825 913.265 482.113 911.739 482.348L908.296 484.034L896.658 479.774Z" stroke="#1C0F00" stroke-width="1.5" stroke-linecap="round" stroke-linejoin="round"/>
<path d="M897.397 479.606C903.83 478.579 907.187 481.746 908.061 483.457C906.834 485.172 903.499 488.749 899.968 489.337C895.554 490.073 890.773 487.498 890.405 485.291C891.221 483.702 893.761 480.34 897.397 479.606Z" fill="#FFE900" stroke="#1C0F00" stroke-width="1.5" stroke-linecap="round" stroke-linejoin="round"/>
<path d="M916.02 499.851C926.184 495.805 923.142 483.583 915.419 482.348C910.588 481.576 908.712 483.641 907.583 485.107C904.06 484.487 900.368 486.016 900 490.488C899.47 496.925 907.185 503.368 916.02 499.851Z" fill="#FFBAC2"/>
<path d="M912.342 487.345C911.156 486.311 909.131 485.379 907.583 485.107M907.583 485.107C908.712 483.641 910.588 481.576 915.419 482.348C923.142 483.583 926.184 495.805 916.02 499.851C907.185 503.368 899.47 496.925 900 490.488C900.368 486.016 904.06 484.487 907.583 485.107Z" stroke="#1C0F00" stroke-width="1.5" stroke-linecap="round" stroke-linejoin="round"/>
<path d="M881.377 498.298C875.411 491.899 880.323 484.809 885.243 483.945C889.105 483.266 891.321 484.861 892.195 486.311C895.426 485.118 899.261 485.999 900.336 491.176C902.275 500.515 887.638 505.012 881.377 498.298Z" fill="#FFBAC2"/>
<path d="M887.703 490.343C888.451 488.56 890.209 487.044 892.195 486.311M892.195 486.311C895.426 485.118 899.261 485.999 900.336 491.176C902.275 500.515 887.638 505.012 881.377 498.298C875.411 491.899 880.323 484.809 885.243 483.945C889.105 483.266 891.321 484.861 892.195 486.311Z" stroke="#1C0F00" stroke-width="1.5" stroke-linecap="round" stroke-linejoin="round"/>
<path d="M754.562 430.689C749.011 433.509 748.054 437.841 748.286 439.603C749.163 439.916 750.586 440.909 751.963 442.277C753.279 443.584 754.554 445.234 755.273 446.959C755.568 447.254 761.051 446.44 763.756 446.548C764.624 446.9 768.614 445.138 769.481 440.909C770.869 433.332 761.501 427.165 754.562 430.689Z" fill="#8BE3FF"/>
<path d="M744.238 428.568C749.123 431.527 748.765 437.313 747.917 439.603L736.514 443.649L732.836 442.178C731.309 441.943 728.111 439.807 728.789 434.453C729.637 427.761 738.133 424.87 744.238 428.568Z" fill="#8BE3FF" stroke="#1C0F00" stroke-width="1.5" stroke-linecap="round" stroke-linejoin="round"/>
<path d="M751.963 442.178C752.66 441.286 754.363 438.413 757.987 437.61M748.286 439.603C748.054 437.841 749.011 433.509 754.562 430.689C761.501 427.165 770.41 432.976 769.022 440.553C768.155 444.782 764.624 446.9 763.756 446.548" stroke="#1C0F00" stroke-width="1.5" stroke-linecap="round" stroke-linejoin="round"/>
<path d="M741.664 439.603C741.77 438.828 740.928 435.925 737.985 433.35M747.917 439.603C748.765 437.313 749.123 431.527 744.238 428.568C738.133 424.87 729.637 427.761 728.789 434.453C728.111 439.807 731.309 441.943 732.836 442.178" stroke="#1C0F00" stroke-width="1.5" stroke-linecap="round" stroke-linejoin="round"/>
<path d="M747.177 439.436C740.745 438.409 737.388 441.575 736.514 443.287C737.74 445.001 741.075 448.578 744.606 449.167C749.02 449.902 753.802 447.327 754.17 445.12C753.354 443.531 750.814 440.169 747.177 439.436Z" fill="#FFE900" stroke="#1C0F00" stroke-width="1.5" stroke-linecap="round" stroke-linejoin="round"/>
<path d="M728.79 459.098C719.783 456.049 721.432 443.412 729.156 442.178C734.015 441.401 735.97 443.451 737.097 444.918C740.588 444.347 744.211 445.89 744.575 450.317C745.105 456.754 737.797 462.147 728.79 459.098Z" fill="#8BE3FF"/>
<path d="M732.742 446.929C736.628 443.541 744.045 443.88 744.575 450.317C745.105 456.754 737.797 462.147 728.79 459.098C719.783 456.049 721.432 443.412 729.156 442.178C734.021 441.4 735.975 443.456 737.101 444.924" stroke="#1C0F00" stroke-width="1.5" stroke-linecap="round" stroke-linejoin="round"/>
<path d="M763.197 458.127C769.164 451.729 764.251 444.639 759.331 443.774C755.47 443.095 753.253 444.69 752.38 446.14C749.149 444.948 745.314 445.828 744.239 451.006C742.3 460.344 756.937 464.842 763.197 458.127Z" fill="#8BE3FF"/>
<path d="M756.871 450.172C756.123 448.389 754.366 446.873 752.38 446.14M752.38 446.14C749.149 444.948 745.314 445.828 744.239 451.006C742.3 460.344 756.937 464.842 763.197 458.127C769.164 451.729 764.251 444.639 759.331 443.774C755.47 443.095 753.253 444.69 752.38 446.14Z" stroke="#1C0F00" stroke-width="1.5" stroke-linecap="round" stroke-linejoin="round"/>
<path d="M784.162 449.348C779.177 452.256 779.456 457.985 780.321 460.235C782.411 463.167 789.229 467.96 795.874 463.064C797.432 462.833 800.613 459.866 799.921 454.604C799.001 447.615 790.393 445.713 784.162 449.348Z" fill="#FF2F85" stroke="#1C0F00" stroke-width="1.5" stroke-linecap="round" stroke-linejoin="round"/>
<path d="M780.174 460.2L780.18 460.253L776.372 465.965L765.294 466.484C764.429 466.83 759.775 466.546 758.859 461.62C757.474 454.177 767.025 448.136 773.949 451.598C779.449 454.348 779.863 457.69 780.174 460.2Z" fill="#FF2F85" stroke="#1C0F00" stroke-width="1.5" stroke-linecap="round" stroke-linejoin="round"/>
<path d="M786.761 460.142C786.646 459.392 788.008 455.721 790.569 454.43" stroke="#1C0F00" stroke-width="1.5" stroke-linecap="round" stroke-linejoin="round"/>
<path d="M776.198 461.984C775.506 461.06 773.362 459.681 769.762 458.85" stroke="#1C0F00" stroke-width="1.5" stroke-linecap="round" stroke-linejoin="round"/>
<path d="M780.699 460.079C787.069 459.11 790.565 462.445 791.431 464.061C791.777 471.157 781.218 470.638 778.449 469.426C776.233 468.457 774.641 465.791 774.121 464.58C774.929 463.08 777.099 460.772 780.699 460.079Z" fill="#FFF3E1" stroke="#1C0F00" stroke-width="1.5" stroke-linecap="round" stroke-linejoin="round"/>
<path d="M765.292 479.639C758.976 473.667 764.224 465.207 769.07 464.341C773.347 463.578 775.093 465.146 775.975 466.74C779.325 465.646 783.143 466.609 784.13 471.438C786.04 480.785 771.699 485.697 765.292 479.639Z" fill="#FF2F85"/>
<path d="M770.661 471.739C771.318 469.444 773.521 467.54 775.975 466.74M775.975 466.74C779.325 465.646 783.143 466.609 784.13 471.438C786.04 480.785 771.699 485.697 765.292 479.639C758.976 473.667 764.224 465.207 769.07 464.341C773.347 463.578 775.093 465.146 775.975 466.74Z" stroke="#1C0F00" stroke-width="1.5" stroke-linecap="round" stroke-linejoin="round"/>
<path d="M799.753 479.356C808.966 476.105 806.799 463.493 799.029 462.198C793.933 461.35 791.832 463.203 790.446 464.468C787.163 464.319 784.016 466.101 783.677 470.39C783.135 477.253 790.54 482.606 799.753 479.356Z" fill="#FF2F85"/>
<path d="M795.925 466.695C794.435 465.341 792.416 464.557 790.446 464.468M790.446 464.468C787.163 464.319 784.016 466.101 783.677 470.39C783.135 477.253 790.54 482.606 799.753 479.356C808.966 476.105 806.799 463.493 799.029 462.198C793.933 461.35 791.832 463.203 790.446 464.468Z" stroke="#1C0F00" stroke-width="1.5" stroke-linecap="round" stroke-linejoin="round"/>
</svg>
