<svg width="913" height="567" viewBox="0 0 913 567" fill="none" xmlns="http://www.w3.org/2000/svg">
<path d="M673.567 143.64C582.01 114.389 577.284 28.2086 625.276 9.48472C649.575 0.00461352 667.269 9.82323 676.689 17.7591C699.741 -16.4476 771.718 2.27549 753.958 68.746C743.638 107.369 718.592 128.944 699.741 138.757C688.151 144.79 681.958 146.321 673.567 143.64Z" fill="#FF2F85"/>
<path d="M686.654 36.9137C685.719 28.488 680.897 21.304 676.689 17.7591M676.689 17.7591C667.269 9.82323 649.575 0.00461354 625.276 9.48472C577.284 28.2086 582.01 114.389 673.567 143.64C681.958 146.321 688.151 144.79 699.741 138.757C718.592 128.944 743.638 107.369 753.958 68.746C771.718 2.27549 699.741 -16.4476 676.689 17.7591Z" stroke="#1C0F00" stroke-width="1.5" stroke-linecap="round" stroke-linejoin="round"/>
<path d="M676.099 158.504C679.447 154.838 679.36 147.232 679.36 143.828C681.678 139.115 689.404 139.639 691.722 141.995C693.782 151.631 697.904 154.525 699.535 155.747C689.234 152.814 679.619 156.584 676.099 158.504Z" fill="#FF2F85" stroke="#1C0F00" stroke-width="1.5" stroke-linecap="round" stroke-linejoin="round"/>
<path d="M784.039 181.595C773.355 223.987 735.444 253.282 673.407 248.112" stroke="#1C0F00" stroke-width="1.5" stroke-linecap="round" stroke-linejoin="round"/>
<path d="M673.407 248.112C689.491 238.692 710.422 212.958 687.538 155.057" stroke="#1C0F00" stroke-width="1.5" stroke-linecap="round" stroke-linejoin="round"/>
<path d="M821.338 41.7505C827.037 37.7015 835.03 40.0541 837.5 46.5937C842.214 59.0723 844.895 68.8002 847.201 81.8799C847.774 85.1294 849.724 87.9851 852.563 89.6664C864.588 96.7875 873.074 102.372 883.17 110.065C888.666 114.252 888.751 122.467 883.347 126.772C871.882 135.907 863.565 141.317 852.802 147.039C849.8 148.635 847.656 151.485 846.966 154.814C844.287 167.728 841.416 177.367 837.147 189.421C834.771 196.13 826.655 198.73 820.805 194.676C810.576 187.585 802.587 181.534 792.596 172.503C790.039 170.192 786.567 169.168 783.156 169.668C769.27 171.703 759.169 171.577 746.609 170.969C739.708 170.636 734.794 164.043 736.554 157.363C739.874 144.765 743.1 135.145 749.135 123.346C750.793 120.106 750.865 116.273 749.275 113C743.266 100.63 739.753 91.1052 736.413 78.4911C734.694 72.0005 739.392 65.5954 746.099 65.2807C759.049 64.673 769.33 65.1086 783.615 66.9779C786.802 67.3949 790.027 66.4428 792.461 64.3442C802.391 55.7814 810.343 49.5629 821.338 41.7505Z" fill="#FFA41C" stroke="#1C0F00" stroke-width="1.5" stroke-linecap="round" stroke-linejoin="round"/>
<path d="M771.631 179.687C776.236 177.832 780.497 171.727 781.97 168.658C786.795 165.557 793.344 169.188 793.688 172.979C791.375 182.557 793.699 186.151 794.641 187.958C786.623 180.856 775.635 179.48 771.631 179.687Z" fill="#FFA41C" stroke="#1C0F00" stroke-width="1.5" stroke-linecap="round" stroke-linejoin="round"/>
<path d="M5.3126 498.67C-26.9532 457.206 130.284 453.906 195.94 418.313C257.876 384.737 290.234 366.263 339.297 360.522C388.36 354.781 462.336 372.769 502.966 390.374C543.596 407.979 553.945 391.522 606.841 390.374C659.737 389.226 669.702 400.325 696.917 418.313C724.131 436.301 852.155 427.116 896.235 463.091C940.315 499.067 851.388 520.5 823.407 525.858C795.426 531.216 776.261 528.537 705.733 553.031C635.205 577.525 652.454 520.117 591.509 548.821C530.564 577.525 483.417 549.587 413.273 556.858C343.128 564.13 296.539 579.318 233.504 540.784C188.761 513.432 46.7094 551.869 5.3126 498.67Z" fill="#00B261" stroke="#1C0F00" stroke-width="1.5" stroke-linecap="round" stroke-linejoin="round"/>
<path d="M622.054 381.146C629.636 384.937 628.602 393.553 627.224 396.655L650.315 401.135C642.733 387.694 646.524 378.044 651.349 372.53C639.976 377.355 637.103 384.477 636.184 388.039C632.048 382.524 625.615 381.031 622.054 381.146Z" fill="#00B261"/>
<path d="M626.535 397.689C627.913 394.587 629.636 384.937 622.054 381.146C625.616 381.031 632.049 382.524 636.185 388.039C637.104 384.477 639.976 377.355 651.349 372.53C646.524 378.044 642.733 387.694 650.315 401.135" stroke="#1C0F00" stroke-width="1.5" stroke-linecap="round" stroke-linejoin="round"/>
<path d="M450.42 432.498C434.911 438.702 429.626 451.454 427.673 455.589C432.843 456.968 447.801 459.518 466.274 458.691C454.211 455.589 455.934 442.148 461.104 439.391C449.8 439.391 444.216 445.48 443.182 448.696C442.631 442.355 448.008 433.877 450.42 432.498Z" fill="#00B261"/>
<path d="M427.673 455.589C429.626 451.454 434.911 438.702 450.42 432.498C448.008 433.877 442.631 442.355 443.182 448.696C444.216 445.48 449.8 439.391 461.104 439.391C455.934 442.148 454.211 455.589 466.274 458.691" stroke="#1C0F00" stroke-width="1.5" stroke-linecap="round" stroke-linejoin="round"/>
<path d="M779.213 430.775C778.661 424.433 783.997 415.266 787.14 413.887C778.33 417.411 772.693 422.358 769.218 427.328C769.635 425.605 767.839 418.368 760.257 416.3C763.359 421.469 764.738 427.26 755.087 439.391C764.738 441.229 787.829 443.94 802.993 440.08C790.931 436.979 792.654 423.537 797.824 420.78C786.519 420.78 780.247 427.558 779.213 430.775Z" fill="#00B261"/>
<path d="M802.993 440.08C790.931 436.979 792.654 423.537 797.824 420.78C786.519 420.78 779.902 428.018 778.868 432.843C778.523 422.159 784.727 415.266 787.14 413.887C778.33 417.411 772.693 422.358 769.218 427.328C769.635 425.605 767.495 417.678 759.912 416.3C763.704 419.746 764.393 430.775 755.087 439.391" stroke="#1C0F00" stroke-width="1.5" stroke-linecap="round" stroke-linejoin="round"/>
<path d="M95.0891 451.454C95.6405 445.112 90.3048 435.945 87.1622 434.566C95.9716 438.09 101.609 443.037 105.084 448.007C104.667 446.284 106.462 439.046 114.045 436.978C110.943 442.148 109.564 447.938 119.214 460.07C109.564 461.908 86.4729 464.619 71.3084 460.759C83.3711 457.657 81.6478 444.216 76.4781 441.459C87.7825 441.459 94.0551 448.237 95.0891 451.454Z" fill="#00B261"/>
<path d="M71.3084 460.759C83.3711 457.657 81.6478 444.216 76.4781 441.459C87.7825 441.459 94.3998 448.696 95.4337 453.522C95.7783 442.837 89.5747 435.945 87.1622 434.566C95.9716 438.09 101.609 443.037 105.084 448.007C104.667 446.284 106.807 438.357 114.389 436.978C110.598 440.425 109.909 451.454 119.214 460.07" stroke="#1C0F00" stroke-width="1.5" stroke-linecap="round" stroke-linejoin="round"/>
<path d="M459.135 362.19C465.834 373.165 460.252 382.387 456.624 385.626C462.689 389.486 467.71 385.139 469.462 382.482C471.248 371.965 463.322 364.572 459.135 362.19Z" fill="#00B261"/>
<path d="M456.624 385.626C460.252 382.387 465.834 373.165 459.135 362.19C463.322 364.572 471.248 371.965 469.462 382.482" stroke="#1C0F00" stroke-width="1.5" stroke-linecap="round" stroke-linejoin="round"/>
<path d="M201.83 403.548C195.132 414.523 200.713 423.745 204.342 426.984C198.276 430.844 193.255 426.496 191.503 423.84C189.717 413.322 197.643 405.93 201.83 403.548Z" fill="#00B261"/>
<path d="M204.342 426.984C200.713 423.745 195.132 414.523 201.83 403.548C197.643 405.93 189.717 413.322 191.503 423.84" stroke="#1C0F00" stroke-width="1.5" stroke-linecap="round" stroke-linejoin="round"/>
<path d="M867.197 435.255C873.896 446.23 868.314 455.452 864.686 458.691C870.751 462.551 875.772 458.204 877.524 455.547C879.31 445.03 871.384 437.637 867.197 435.255Z" fill="#00B261"/>
<path d="M864.686 458.691C868.314 455.452 873.896 446.23 867.197 435.255C871.384 437.637 879.31 445.03 877.524 455.547" stroke="#1C0F00" stroke-width="1.5" stroke-linecap="round" stroke-linejoin="round"/>
<path d="M303.6 351.851C319.109 358.054 324.394 370.806 326.347 374.942C321.177 376.321 306.219 378.871 287.746 378.044C299.809 374.942 298.086 361.501 292.916 358.744C304.22 358.744 309.804 364.832 310.838 368.049C311.389 361.707 306.013 353.229 303.6 351.851Z" fill="#00B261"/>
<path d="M326.347 374.942C324.394 370.806 319.109 358.054 303.6 351.851C306.013 353.229 311.389 361.707 310.838 368.049C309.804 364.832 304.22 358.744 292.916 358.744C298.086 361.501 299.809 374.942 287.746 378.044" stroke="#1C0F00" stroke-width="1.5" stroke-linecap="round" stroke-linejoin="round"/>
<path d="M685.359 458.486C685.523 458.499 685.686 458.506 685.849 458.508L685.359 458.486C677.449 457.852 667.838 444.185 676.754 431.808C669.883 433.619 662.826 443.062 664.052 450.197C663.48 446.867 661.34 439.37 650.148 437.784C654.879 441.239 654.651 455.13 642.272 456.509L685.359 458.486Z" fill="#00B261"/>
<path d="M684.091 454.211C675.474 454.211 667.547 442.148 676.754 431.808C669.883 433.619 664.598 441.905 665.824 449.041C665.252 445.711 661.341 439.37 650.148 437.784C652.977 439.925 654.99 452.742 644.61 454.751" stroke="#1C0F00" stroke-width="1.5" stroke-linecap="round" stroke-linejoin="round"/>
<ellipse cx="344.22" cy="431.809" rx="83.4046" ry="13.0966" fill="#1C0F00"/>
<ellipse cx="528.31" cy="418.712" rx="83.4046" ry="13.0966" fill="#1C0F00"/>
<path d="M439.392 340.822C407.186 323.228 410.441 280.853 425.95 259.485L454.211 252.937C438.587 272.007 425.14 308.561 450.765 321.522C474.209 333.38 506.192 309.454 519.005 287.985C516.248 284.989 514.069 278.634 515.903 270.859C520.157 252.83 551.057 247.423 562.086 271.61C562.086 271.61 631.37 415.266 600.789 415.266H515.214C483.162 415.266 466.563 374.372 492.467 354.953C496.113 352.031 500.193 349.931 504.555 348.542C505.99 341.82 510.341 333.229 517.2 326.463C493.785 349.05 462.407 353.395 439.392 340.822Z" fill="#EEB36F"/>
<path d="M519.005 287.985C516.248 284.989 514.069 278.634 515.903 270.859C520.157 252.83 551.057 247.423 562.086 271.61C562.086 271.61 631.37 415.266 600.789 415.266H515.214C483.162 415.266 466.563 374.372 492.467 354.953C496.113 352.031 500.193 349.931 504.555 348.542M519.005 287.985C506.192 309.454 474.209 333.38 450.765 321.522C425.14 308.561 438.587 272.007 454.211 252.937L425.95 259.485C410.441 280.853 407.186 323.228 439.392 340.822C462.562 353.48 494.21 348.99 517.674 326.002M519.005 287.985C521.572 283.683 523.37 279.48 524.175 275.684M579.663 374.942C565.245 356.592 530.07 340.414 504.555 348.542M504.555 348.542C506.023 341.666 510.541 332.836 517.674 326.002M517.674 326.002C525.352 318.48 531.654 309.841 536.582 298.775" stroke="#1C0F00" stroke-width="1.5" stroke-linecap="round" stroke-linejoin="round"/>
<path d="M405.145 438.094C426.019 427.658 424.857 406.693 421.999 396.256L500.738 261.553C485.244 246.985 475.396 259.956 472.409 268.263L417.334 342.201C418.712 317.042 411.475 287.458 392.519 277.063C349.438 253.438 315.663 282.232 307.736 304.29C326.347 305.668 354.134 313.014 376.695 351.878C389.342 373.665 403.905 419.346 405.145 438.094Z" fill="#EEB36F"/>
<path d="M612.096 207.839C602.528 203.117 579.667 202.993 567.739 219.767C559.857 230.85 561.402 241.759 563.638 246.978C565.925 252.315 570.939 255.429 574.12 257.074C567.976 263.94 564.881 274.79 569.603 286.489C577.876 306.99 605.013 302.517 613.586 294.317C615.45 298.79 625.291 306.841 637.815 301.772C645.238 298.767 648.974 292.998 650.055 286.489C658.689 286.862 674.494 279.332 673.599 253.687C672.481 221.631 650.054 209.703 638.126 209.703C638.878 187.397 638.615 146.987 637.815 137.389C636.697 123.97 629.242 108.306 613.214 103.096C601.286 99.2198 586.806 101.545 578.978 104.155C573.53 110.755 567.319 125.113 586.06 129.741C592.024 125.268 605.61 125.089 609.486 135.526C613.363 145.963 612.841 188.083 612.096 207.839Z" fill="#EEB36F"/>
<path d="M574.12 257.074C570.939 255.429 565.925 252.315 563.638 246.978C561.402 241.759 559.857 230.85 567.739 219.767C579.667 202.993 602.528 203.117 612.096 207.839C612.841 188.083 613.363 145.963 609.486 135.526C605.61 125.089 592.024 125.268 586.06 129.741C567.319 125.113 573.53 110.755 578.978 104.155C586.806 101.545 601.286 99.2198 613.214 103.096C629.242 108.306 636.697 123.97 637.815 137.389C638.615 146.987 638.878 187.397 638.126 209.703M574.12 257.074C567.976 263.94 564.881 274.79 569.603 286.489C577.876 306.99 605.013 302.517 613.586 294.317M574.12 257.074C578.742 251.909 585.089 248.999 591.132 249.678M619.923 268.597C620.917 274.685 620.486 287.718 613.586 294.317M613.586 294.317C615.45 298.79 625.291 306.841 637.815 301.772C645.238 298.767 648.974 292.998 650.055 286.489M591.132 249.678C589.165 240.322 583.971 236.308 580.784 235.423M591.132 249.678C591.925 253.451 592.194 258.094 591.594 263.751M650.055 286.489C658.689 286.862 674.494 279.332 673.599 253.687C672.481 221.631 650.054 209.703 638.126 209.703M650.055 286.489C651.255 279.27 649.19 271.142 645.27 264.87M638.126 209.703C638.037 212.345 637.934 214.732 637.815 216.785" stroke="#1C0F00" stroke-width="1.5" stroke-linecap="round" stroke-linejoin="round"/>
<path d="M332.895 368.049C309.434 333.498 308.081 316.05 308.081 304.979C325.297 304.979 354.013 312.725 376.574 351.589C389.221 373.376 403.784 419.057 405.024 437.805C384.522 427.741 353.397 398.242 332.895 368.049Z" fill="#1C0F00"/>
<path d="M416.458 406.01L501.772 259.865C486.278 245.297 476.431 258.268 473.443 266.575L417.678 341.536M422.05 396.319C424.907 406.756 425.898 427.368 405.024 437.805M405.024 437.805C384.522 427.741 353.397 398.242 332.895 368.049C309.434 333.498 308.081 316.05 308.081 304.979M405.024 437.805C403.784 419.057 389.221 373.376 376.574 351.589C354.013 312.725 325.297 304.979 308.081 304.979M414.921 360.123C419.84 334.101 418.165 294.563 394.587 278.441C354.263 250.869 312.561 282.922 308.081 304.979" stroke="#1C0F00" stroke-width="1.5" stroke-linecap="round" stroke-linejoin="round"/>
<path d="M297.589 207.839C307.156 203.118 330.018 202.993 341.946 219.767C349.827 230.85 348.282 241.759 346.046 246.978C343.759 252.315 338.745 255.429 335.565 257.075C341.708 263.94 344.803 274.79 340.082 286.489C331.809 306.99 304.672 302.518 296.098 294.317C294.234 298.79 284.394 306.842 271.869 301.772C264.447 298.768 260.711 292.998 259.629 286.489C250.996 286.862 235.191 279.332 236.086 253.687C237.204 221.631 259.631 209.703 271.559 209.703C270.806 187.398 271.07 146.988 271.869 137.389C272.988 123.97 280.443 108.306 296.471 103.097C308.399 99.22 324.017 99.921 334.454 104.767C339.822 129.815 328.987 131.605 322.899 129.368C316.935 124.895 304.075 125.089 300.198 135.526C296.322 145.963 296.843 188.083 297.589 207.839Z" fill="#EEB36F"/>
<path d="M335.565 257.075C338.745 255.429 343.759 252.315 346.046 246.978C348.282 241.759 349.827 230.85 341.946 219.767C330.018 202.993 307.156 203.118 297.589 207.839C296.843 188.083 296.322 145.963 300.198 135.526C304.075 125.089 316.935 124.895 322.899 129.368M335.565 257.075C341.708 263.94 344.803 274.79 340.082 286.489C331.809 306.99 304.672 302.518 296.098 294.317M335.565 257.075C330.943 251.909 324.595 248.999 318.553 249.678M289.761 268.597C288.767 274.686 289.199 287.718 296.098 294.317M296.098 294.317C294.234 298.79 284.394 306.842 271.869 301.772C264.447 298.768 260.711 292.998 259.629 286.489M318.553 249.678C320.52 240.323 325.713 236.308 328.9 235.423M318.553 249.678C317.759 253.452 317.491 258.095 318.091 263.752M334.454 104.767C324.017 99.921 308.399 99.22 296.471 103.097C280.443 108.306 272.988 123.97 271.869 137.389C271.07 146.988 270.806 187.398 271.559 209.703M259.629 286.489C250.996 286.862 235.191 279.332 236.086 253.687C237.204 221.631 259.631 209.703 271.559 209.703M259.629 286.489C258.429 279.27 260.494 271.142 264.415 264.87M271.559 209.703C271.648 212.345 271.751 214.733 271.869 216.785" stroke="#1C0F00" stroke-width="1.5" stroke-linecap="round" stroke-linejoin="round"/>
<path d="M409.214 34.363C403.667 32.1673 388.691 30.9654 377.32 39.5632C369.416 45.8569 365.831 53.1676 364.446 59.6712C355.447 61.5201 335.717 73.8851 341.635 100.641C335.966 103.319 329.538 108.399 326.009 117.221C320.463 131.088 325.547 143.8 328.783 148.422C318.521 175.325 331.61 189.909 339.437 193.838C339.643 200.693 341.482 208.215 346.465 214.986C352.525 223.221 360.028 226.618 366.573 227.626C369.069 247.595 388.76 252.428 398.336 250.694C402.464 255.961 408.544 260.798 416.495 262.828C436.316 267.889 447.004 261.904 449.777 258.668C451.51 261.326 457.751 266.781 468.845 267.335C482.157 267.89 488.888 261.788 490.589 258.668C498.212 262.09 508.337 263.71 518.421 258.668C526.818 254.47 531.536 248.476 534.136 242.692C558.82 239.364 563.258 219.908 562.45 210.581C568.598 208.195 575.363 203.713 579.09 195.918C585.192 183.16 581.633 169.339 579.09 164.023C582.21 160.903 587.965 153.137 587.411 138.715C586.856 124.293 580.593 118.807 577.01 116.307C578.869 110.66 580.08 103.5 578.397 96.7664C575.624 85.6725 565.879 80.5878 561.354 79.4322C560.788 73.442 558.727 66.5976 553.436 58.9778C546.502 48.9933 532.981 44.8793 527.088 44.0703C520.431 27.4295 503.975 27.0636 496.579 28.9608C492.863 25.0645 487.189 21.1509 478.898 18.762C467.513 15.4816 457.874 19.3681 451.661 23.9626C448.078 21.3047 439.237 16.5433 427.588 18.7621C415.94 20.9809 410.254 30.2028 409.214 34.363Z" fill="#EEB36F"/>
<path d="M364.492 73.8851C363.728 70.6651 363.206 65.4913 364.446 59.6712M451.661 23.9626C448.078 21.3047 439.237 16.5433 427.588 18.7621C415.94 20.9809 410.254 30.2028 409.214 34.363C403.667 32.1673 388.691 30.9654 377.32 39.5632C369.416 45.8569 365.831 53.1676 364.446 59.6712M451.661 23.9626C457.874 19.3681 467.513 15.4816 478.898 18.762C487.189 21.1509 492.863 25.0645 496.579 28.9608M451.661 23.9626C448.944 25.9717 446.882 28.1162 445.617 29.856M502.473 38.8698C501.96 36.5324 500.198 32.7548 496.579 28.9608M496.579 28.9608C503.975 27.0636 520.431 27.4295 527.088 44.0703C532.981 44.8793 546.502 48.9933 553.436 58.9778C558.727 66.5976 560.788 73.442 561.354 79.4322M561.063 89.8327C561.468 86.7272 561.715 83.2535 561.354 79.4322M561.354 79.4322C565.879 80.5878 575.624 85.6725 578.397 96.7664C580.08 103.5 578.869 110.66 577.01 116.307M573.197 124.848C574.332 122.986 575.807 119.963 577.01 116.307M577.01 116.307C580.593 118.807 586.856 124.293 587.411 138.715C587.965 153.137 582.21 160.903 579.09 164.023C581.633 169.339 585.192 183.16 579.09 195.918C575.363 203.713 568.598 208.195 562.45 210.581M552.396 212.906C554.868 212.771 558.534 212.101 562.45 210.581M562.45 210.581C563.258 219.908 558.82 239.364 534.136 242.692M534.136 242.692C531.536 248.476 526.818 254.47 518.421 258.668C508.337 263.71 498.212 262.09 490.589 258.668M534.136 242.692C536.689 237.014 537.199 231.538 537.142 228.16M479.592 251.041C481.732 253.455 485.631 256.443 490.589 258.668M490.589 258.668C488.888 261.788 482.157 267.89 468.845 267.335C457.751 266.781 451.51 261.326 449.777 258.668C447.004 261.904 436.316 267.889 416.495 262.828C408.544 260.798 402.464 255.961 398.336 250.694M391.881 235.44C391.821 239.168 394.004 245.168 398.336 250.694M398.336 250.694C388.76 252.428 369.069 247.595 366.573 227.626M366.573 227.626C360.028 226.618 352.525 223.221 346.465 214.986C341.482 208.215 339.643 200.693 339.437 193.838M366.573 227.626C371.71 228.418 376.258 227.739 379.053 226.773M342.998 174.77C341.191 178.697 339.195 185.811 339.437 193.838M364.446 59.6712C355.447 61.5201 335.717 73.8851 341.635 100.641M341.635 100.641C335.966 103.319 329.538 108.399 326.009 117.221C320.463 131.088 325.547 143.8 328.783 148.422C318.521 175.325 331.61 189.909 339.437 193.838M341.635 100.641C344.877 99.1091 347.871 98.3634 349.932 98.1532" stroke="#1C0F00" stroke-width="1.5" stroke-linecap="round" stroke-linejoin="round"/>
<path d="M527.438 176.262C527.88 183.056 519.594 195.645 507.223 192.597M498.343 187.95C501.473 190.445 504.451 191.913 507.223 192.597M507.223 192.597C505.536 195.738 500.379 200.82 493.245 196.012" stroke="#1C0F00" stroke-width="1.5" stroke-linecap="round" stroke-linejoin="round"/>
<path d="M371.93 186.606C376.72 187.458 383.679 195.296 377.183 204.024" stroke="#1C0F00" stroke-width="1.5" stroke-linecap="round" stroke-linejoin="round"/>
<path d="M567.478 146.88C563.484 149.659 554.186 150.252 552.621 139.485" stroke="#1C0F00" stroke-width="1.5" stroke-linecap="round" stroke-linejoin="round"/>
<path d="M513.544 112.86C511.315 107.644 514.502 97.5811 524.023 94.9827M532.753 94.6867C529.404 94.136 526.499 94.3068 524.023 94.9827M524.023 94.9827C522.277 92.1186 519.921 85.1551 524.467 80.214" stroke="#1C0F00" stroke-width="1.5" stroke-linecap="round" stroke-linejoin="round"/>
<path d="M430.246 131.231C430.246 145.42 419.12 156.201 404.903 156.201C390.687 156.201 379.188 145.047 379.188 130.859C379.188 116.628 389.983 105.144 404.158 105.144C419.38 105.144 430.246 117.01 430.246 131.231Z" fill="#FFF3E1" stroke="#1C0F00" stroke-width="1.5"/>
<circle cx="409.751" cy="135.965" r="20.1285" fill="#1C0F00"/>
<path d="M374.712 134.959C367.853 133.468 360.92 138.314 360.175 142.041L371.357 161.797C373.594 162.915 383.658 160.306 385.149 152.851C386.64 145.396 383.285 136.823 374.712 134.959Z" fill="#EEB36F"/>
<path d="M359.056 144.507C359.46 139.378 365.623 133.971 373.204 134.643C382.097 135.432 387.756 145.296 385.33 153.187C382.961 160.894 374.416 163.05 371.991 161.867" stroke="#1C0F00" stroke-width="1.5" stroke-linecap="round" stroke-linejoin="round"/>
<path d="M413.105 199.817C418.199 202.551 430.997 205.632 441.434 196.09" stroke="#1C0F00" stroke-width="1.5" stroke-linecap="round" stroke-linejoin="round"/>
<path d="M468.641 131.231C468.641 145.434 457.127 156.947 442.925 156.947C428.723 156.947 416.837 145.061 416.837 130.859C416.837 116.657 428.35 105.144 442.553 105.144C457.775 105.144 468.641 117.01 468.641 131.231Z" fill="#FFF3E1" stroke="#1C0F00" stroke-width="1.5" stroke-linejoin="round"/>
<circle cx="447.771" cy="135.965" r="20.1285" fill="#1C0F00"/>
<circle cx="435.552" cy="123.35" r="7.23759" fill="#FFF3E1"/>
<circle cx="397.64" cy="123.35" r="7.23759" fill="#FFF3E1"/>
<path d="M407.887 155.833C404.607 151.658 403.041 151.36 400.804 151.733C399.329 151.979 396.27 153.831 395.214 162.542C393.722 174.843 400.432 197.208 424.661 195.717C448.889 194.226 450.38 172.979 449.635 165.152C448.889 157.324 445.535 150.614 441.434 149.496C437.334 148.378 436.332 151.426 433.98 155.46C431.371 159.933 426.898 162.542 420.934 162.542C416.088 162.542 411.987 161.052 407.887 155.833Z" fill="#FDDEDC" stroke="#1C0F00" stroke-width="1.5" stroke-linecap="round" stroke-linejoin="round"/>
<path d="M435.216 170.743C444.162 176.707 443.789 188.262 439.316 190.872C434.545 194.748 424.033 196.835 416.95 195.344C421.423 192.959 422.093 188.883 421.869 187.144C420.636 187.618 419.325 187.836 418.069 187.777C412.979 187.538 407.741 183.765 408.377 177.825C409.497 167.388 424.033 163.288 435.216 170.743Z" fill="#FFBAC2"/>
<path d="M427.387 177.452C428.213 182.41 425.358 185.802 421.869 187.144M421.869 187.144C420.636 187.618 419.325 187.836 418.069 187.777C412.979 187.538 407.741 183.765 408.377 177.825C409.497 167.388 424.033 163.288 435.216 170.743C444.162 176.707 443.789 188.262 439.316 190.872C434.545 194.748 424.033 196.835 416.95 195.344C421.423 192.959 422.093 188.883 421.869 187.144Z" stroke="#1C0F00" stroke-width="1.5" stroke-linecap="round" stroke-linejoin="round"/>
<path d="M450.615 92.9335C452.891 93.9979 454.18 95.0627 454.784 96.0057C455.353 96.8936 455.332 97.6898 454.913 98.4374C454.461 99.2425 453.506 100.051 452.084 100.739C450.677 101.42 448.884 101.948 446.863 102.237C442.606 102.847 438.263 102.455 435.013 101.394C433.387 100.863 432.075 100.178 431.185 99.4049C430.298 98.6344 429.882 97.8279 429.882 97.0211C429.882 95.5072 430.679 94.3282 432.106 93.4164C433.556 92.4904 435.602 91.8851 437.901 91.582C442.514 90.9739 447.81 91.6212 450.615 92.9335Z" fill="#6C3712" stroke="#1C0F00" stroke-width="1.5" stroke-linejoin="round"/>
<path d="M388.178 99.3621C387.192 98.5012 386.683 97.5571 386.644 96.573C386.65 95.7467 387.186 94.3239 389.128 93.1578C391.088 91.9817 394.478 91.0766 400.089 91.4291C403.577 91.6482 406.192 92.3687 408.008 93.3191C409.831 94.2729 410.791 95.4243 411.11 96.4881C411.42 97.5208 411.166 98.6055 410.266 99.5843C409.349 100.58 407.753 101.464 405.437 101.935C400.713 102.897 395.962 102.629 392.401 101.529C390.62 100.978 389.174 100.231 388.178 99.3621Z" fill="#6C3712" stroke="#1C0F00" stroke-width="1.5" stroke-linejoin="round"/>
<path d="M434.351 233.689C436.671 231.267 442.974 228.268 449.629 235.646C449.617 233.578 450.657 229.132 454.91 227.882" stroke="#1C0F00" stroke-width="1.5" stroke-linecap="round" stroke-linejoin="round"/>
<path d="M474.607 139.06C483.852 139.954 487.902 145.645 488.772 148.378L472.744 168.134C470.508 168.134 462.679 167.389 459.325 159.188C455.97 150.988 463.052 137.941 474.607 139.06Z" fill="#EEB36F"/>
<path d="M488.773 148.378C488.028 145.024 483.555 139.589 474.236 138.687C462.681 137.568 455.971 150.615 459.325 158.815C462.68 167.016 470.509 168.134 472.745 168.134" stroke="#1C0F00" stroke-width="1.5" stroke-linecap="round" stroke-linejoin="round"/>
<circle cx="477.598" cy="144.718" r="1.03394" fill="#1C0F00"/>
<circle cx="374.894" cy="142.65" r="1.03394" fill="#1C0F00"/>
<circle cx="465.881" cy="150.922" r="1.03394" fill="#1C0F00"/>
<circle cx="365.932" cy="142.65" r="1.03394" fill="#1C0F00"/>
<circle cx="472.773" cy="152.99" r="1.03394" fill="#1C0F00"/>
<circle cx="371.448" cy="150.922" r="1.03394" fill="#1C0F00"/>
<circle cx="482.424" cy="150.922" r="1.03394" fill="#1C0F00"/>
<circle cx="379.719" cy="150.922" r="1.03394" fill="#1C0F00"/>
<path d="M368.566 86.1467C370.762 85.1066 374.183 81.1544 370.3 73.666C373.536 79.9064 387.634 84.4133 392.834 71.9326" stroke="#1C0F00" stroke-width="1.5" stroke-linecap="round" stroke-linejoin="round"/>
<path d="M434.686 52.7373C440.926 49.2703 455.833 49.2706 458.881 62.7912M458.953 69.0317C459.3 67.6449 459.167 64.0599 458.881 62.7912M458.881 62.7912C464.5 60.3646 474.901 64.1781 473.861 75.6186" stroke="#1C0F00" stroke-width="1.5" stroke-linecap="round" stroke-linejoin="round"/>
<path d="M504.292 421.26C499.091 423.902 498.194 427.961 498.411 429.612L504.292 436.119H512.907C513.719 436.45 517.458 434.799 518.271 430.836C519.571 423.737 510.794 417.958 504.292 421.26Z" fill="#FFA41C"/>
<path d="M501.857 432.025C502.51 431.189 504.665 429.33 508.061 428.578M498.411 429.612C498.194 427.961 499.091 423.902 504.292 421.26C510.794 417.958 519.571 423.737 518.271 430.836C517.458 434.799 513.719 436.45 512.907 436.119H504.292L498.411 429.612Z" stroke="#1C0F00" stroke-width="1.5" stroke-linecap="round" stroke-linejoin="round"/>
<path d="M494.743 418.785C499.32 421.557 498.86 427.467 498.066 429.612L487.161 433.604L483.935 432.025C482.505 431.805 479.288 429.66 479.923 424.644C480.718 418.373 489.023 415.319 494.743 418.785Z" fill="#FFA41C"/>
<path d="M492.207 429.612C492.306 428.886 491.518 426.166 488.76 423.753M498.066 429.612C498.86 427.467 499.32 421.557 494.743 418.785C489.023 415.319 480.718 418.373 479.923 424.644C479.288 429.66 482.505 431.805 483.935 432.025L487.161 433.604L498.066 429.612Z" stroke="#1C0F00" stroke-width="1.5" stroke-linecap="round" stroke-linejoin="round"/>
<path d="M497.373 429.455C491.346 428.493 488.201 431.46 487.382 433.064C488.531 434.67 491.655 438.022 494.964 438.573C499.1 439.262 503.58 436.85 503.925 434.782C503.161 433.293 500.78 430.143 497.373 429.455Z" fill="#FFE900" stroke="#1C0F00" stroke-width="1.5" stroke-linecap="round" stroke-linejoin="round"/>
<path d="M479.924 448.424C470.4 444.633 473.25 433.182 480.487 432.025C485.013 431.301 486.771 433.236 487.828 434.61C491.129 434.029 494.589 435.461 494.934 439.652C495.431 445.683 488.202 451.72 479.924 448.424Z" fill="#FFA41C"/>
<path d="M483.37 436.706C484.481 435.737 486.378 434.865 487.828 434.61M487.828 434.61C486.771 433.236 485.013 431.301 480.487 432.025C473.25 433.182 470.4 444.633 479.924 448.424C488.202 451.72 495.431 445.683 494.934 439.652C494.589 435.461 491.129 434.029 487.828 434.61Z" stroke="#1C0F00" stroke-width="1.5" stroke-linecap="round" stroke-linejoin="round"/>
<path d="M512.383 446.969C517.974 440.974 513.371 434.33 508.761 433.52C505.143 432.884 503.066 434.379 502.247 435.737C499.22 434.62 495.627 435.445 494.619 440.296C492.803 449.046 506.517 453.26 512.383 446.969Z" fill="#FFA41C"/>
<path d="M506.456 439.515C505.755 437.845 504.108 436.424 502.247 435.737M502.247 435.737C499.22 434.62 495.627 435.445 494.619 440.296C492.803 449.046 506.517 453.26 512.383 446.969C517.974 440.974 513.371 434.33 508.761 433.52C505.143 432.884 503.066 434.379 502.247 435.737Z" stroke="#1C0F00" stroke-width="1.5" stroke-linecap="round" stroke-linejoin="round"/>
<path d="M559.574 410.441C552.876 421.416 558.458 430.638 562.086 433.877C556.02 437.737 550.999 433.389 549.247 430.733C547.461 420.215 555.387 412.822 559.574 410.441Z" fill="#00B261"/>
<path d="M562.086 433.877C558.458 430.638 552.876 421.416 559.574 410.441C555.387 412.822 547.461 420.215 549.247 430.733" stroke="#1C0F00" stroke-width="1.5" stroke-linecap="round" stroke-linejoin="round"/>
<path d="M306.012 416.3C300.843 420.435 296.362 433.877 302.911 444.216C307.716 451.803 280.509 444.561 273.96 443.182C282.576 439.391 277.407 425.95 272.926 424.916C282.232 423.882 287.516 429.511 288.435 431.119C290.917 426.156 297.396 417.678 306.012 416.3Z" fill="#00B261"/>
<path d="M305.324 449.041C294.295 436.634 301.188 419.057 307.047 415.955C296.707 417.678 290.917 426.156 288.436 431.119C287.517 429.511 281.888 423.882 272.582 424.916C277.062 425.95 282.577 438.702 274.65 443.182" stroke="#1C0F00" stroke-width="1.5" stroke-linecap="round" stroke-linejoin="round"/>
<path d="M51.0286 441.772C46.3577 444.497 46.6194 449.865 47.4304 451.973C49.3884 454.721 55.7768 459.212 62.0025 454.624C63.4622 454.408 66.4435 451.627 65.7947 446.697C64.9331 440.149 56.8673 438.366 51.0286 441.772Z" fill="#FF2F85" stroke="#1C0F00" stroke-width="1.5" stroke-linecap="round" stroke-linejoin="round"/>
<path d="M41.4597 443.881C46.6496 446.476 47.0063 449.632 47.2983 451.99L43.7303 457.342L33.3504 457.829C32.5395 458.153 28.1792 457.887 27.3204 453.271C26.0229 446.297 34.9723 440.637 41.4597 443.881Z" fill="#FF2F85" stroke="#1C0F00" stroke-width="1.5" stroke-linecap="round" stroke-linejoin="round"/>
<path d="M53.4646 451.886C53.3565 451.183 54.6329 447.744 57.0327 446.534" stroke="#1C0F00" stroke-width="1.5" stroke-linecap="round" stroke-linejoin="round"/>
<path d="M43.5669 453.612C42.9182 452.747 40.9097 451.455 37.5363 450.676" stroke="#1C0F00" stroke-width="1.5" stroke-linecap="round" stroke-linejoin="round"/>
<path d="M47.7839 451.828C53.7523 450.919 57.0284 454.044 57.8394 455.558C58.1637 462.208 48.2704 461.721 45.6755 460.586C43.5995 459.677 42.1074 457.18 41.6208 456.044C42.3777 454.639 44.4104 452.476 47.7839 451.828Z" fill="#FFF3E1" stroke="#1C0F00" stroke-width="1.5" stroke-linecap="round" stroke-linejoin="round"/>
<path d="M33.3482 470.155C27.4302 464.559 32.3471 456.632 36.8883 455.821C40.8951 455.106 42.5316 456.575 43.3576 458.068C46.4968 457.044 50.0737 457.946 50.9984 462.471C52.7881 471.229 39.3514 475.831 33.3482 470.155Z" fill="#FF2F85"/>
<path d="M38.3788 462.753C38.994 460.602 41.0583 458.819 43.3576 458.068M43.3576 458.068C46.4968 457.044 50.0737 457.946 50.9984 462.471C52.7881 471.229 39.3514 475.831 33.3482 470.155C27.4302 464.559 32.3471 456.632 36.8883 455.821C40.8951 455.106 42.5316 456.575 43.3576 458.068Z" stroke="#1C0F00" stroke-width="1.5" stroke-linecap="round" stroke-linejoin="round"/>
<path d="M65.6371 469.889C74.2696 466.843 72.2391 455.026 64.9589 453.813C60.1843 453.018 58.2151 454.755 56.9169 455.939C53.8408 455.8 50.892 457.47 50.5746 461.489C50.0668 467.919 57.0046 472.935 65.6371 469.889Z" fill="#FF2F85"/>
<path d="M62.0505 458.027C60.6541 456.757 58.7625 456.023 56.9169 455.939M56.9169 455.939C53.8408 455.8 50.892 457.47 50.5746 461.489C50.0668 467.919 57.0046 472.935 65.6371 469.889C74.2696 466.843 72.2391 455.026 64.9589 453.813C60.1843 453.018 58.2151 454.755 56.9169 455.939Z" stroke="#1C0F00" stroke-width="1.5" stroke-linecap="round" stroke-linejoin="round"/>
<path d="M158.396 418.776C153.195 421.417 152.299 425.476 152.516 427.127C153.338 427.421 154.671 428.352 155.961 429.633C157.194 430.858 158.389 432.404 159.063 434.02C159.339 434.296 164.477 433.534 167.011 433.635C167.824 433.965 171.562 432.314 172.375 428.351C173.676 421.252 164.898 415.474 158.396 418.776Z" fill="#FFA41C"/>
<path d="M148.724 416.788C153.3 419.56 152.965 424.982 152.17 427.127L141.486 430.918L138.04 429.54C136.61 429.32 133.613 427.319 134.248 422.302C135.043 416.031 143.003 413.323 148.724 416.788Z" fill="#FFA41C" stroke="#1C0F00" stroke-width="1.5" stroke-linecap="round" stroke-linejoin="round"/>
<path d="M155.961 429.54C156.614 428.705 158.769 426.846 162.165 426.094M152.516 427.127C152.299 425.476 153.195 421.417 158.396 418.776C164.898 415.474 173.676 421.252 172.375 428.351C171.562 432.314 167.824 433.965 167.011 433.635" stroke="#1C0F00" stroke-width="1.5" stroke-linecap="round" stroke-linejoin="round"/>
<path d="M146.311 427.127C146.411 426.401 145.622 423.681 142.865 421.268M152.17 427.127C152.965 424.982 153.3 419.56 148.724 416.788C143.003 413.323 135.043 416.031 134.248 422.302C133.613 427.319 136.61 429.32 138.04 429.54" stroke="#1C0F00" stroke-width="1.5" stroke-linecap="round" stroke-linejoin="round"/>
<path d="M151.478 426.97C145.45 426.008 142.305 428.975 141.486 430.579C142.635 432.185 145.76 435.537 149.069 436.088C153.204 436.777 157.685 434.365 158.029 432.297C157.265 430.808 154.885 427.658 151.478 426.97Z" fill="#FFE900" stroke="#1C0F00" stroke-width="1.5" stroke-linecap="round" stroke-linejoin="round"/>
<path d="M134.248 445.394C125.809 442.537 127.354 430.697 134.591 429.54C139.144 428.812 140.976 430.733 142.032 432.108C145.303 431.573 148.697 433.018 149.039 437.167C149.535 443.198 142.688 448.251 134.248 445.394Z" fill="#FFA41C"/>
<path d="M137.952 433.992C141.592 430.818 148.542 431.135 149.039 437.167C149.535 443.198 142.688 448.251 134.248 445.394C125.809 442.537 127.354 430.697 134.591 429.54C139.15 428.811 140.981 430.738 142.036 432.113" stroke="#1C0F00" stroke-width="1.5" stroke-linecap="round" stroke-linejoin="round"/>
<path d="M166.488 444.484C172.078 438.489 167.475 431.846 162.865 431.035C159.247 430.4 157.17 431.894 156.352 433.253C153.325 432.135 149.731 432.961 148.724 437.811C146.907 446.561 160.622 450.776 166.488 444.484Z" fill="#FFA41C"/>
<path d="M160.56 437.031C159.859 435.36 158.213 433.939 156.352 433.253M156.352 433.253C153.325 432.135 149.731 432.961 148.724 437.811C146.907 446.561 160.622 450.776 166.488 444.484C172.078 438.489 167.475 431.846 162.865 431.035C159.247 430.4 157.17 431.894 156.352 433.253Z" stroke="#1C0F00" stroke-width="1.5" stroke-linecap="round" stroke-linejoin="round"/>
<path d="M176.403 437.804C181.604 440.445 182.501 444.504 182.284 446.155L176.403 452.663H167.788C166.975 452.993 163.237 451.342 162.424 447.379C161.124 440.28 169.901 434.502 176.403 437.804Z" fill="#8BE3FF"/>
<path d="M178.838 448.568C178.185 447.732 176.03 445.873 172.634 445.121M182.284 446.155C182.501 444.504 181.604 440.445 176.403 437.804C169.901 434.502 161.124 440.28 162.424 447.379C163.237 451.342 166.975 452.993 167.788 452.663H176.403L182.284 446.155Z" stroke="#1C0F00" stroke-width="1.5" stroke-linecap="round" stroke-linejoin="round"/>
<path d="M185.952 435.328C181.376 438.1 181.835 444.01 182.629 446.155L193.534 450.147L196.76 448.568C198.19 448.348 201.407 446.203 200.772 441.187C199.977 434.916 191.673 431.862 185.952 435.328Z" fill="#8BE3FF"/>
<path d="M188.488 446.155C188.389 445.429 189.178 442.709 191.935 440.296M182.629 446.155C181.835 444.01 181.376 438.1 185.952 435.328C191.673 431.862 199.977 434.916 200.772 441.187C201.407 446.203 198.19 448.348 196.76 448.568L193.534 450.147L182.629 446.155Z" stroke="#1C0F00" stroke-width="1.5" stroke-linecap="round" stroke-linejoin="round"/>
<path d="M183.322 445.999C189.35 445.036 192.495 448.003 193.313 449.607C192.165 451.214 189.04 454.565 185.731 455.116C181.595 455.806 177.115 453.393 176.77 451.325C177.535 449.836 179.915 446.686 183.322 445.999Z" fill="#FFE900" stroke="#1C0F00" stroke-width="1.5" stroke-linecap="round" stroke-linejoin="round"/>
<path d="M200.772 464.967C210.295 461.176 207.445 449.725 200.208 448.568C195.682 447.844 193.925 449.779 192.867 451.152C189.566 450.572 186.106 452.004 185.761 456.195C185.265 462.226 192.494 468.263 200.772 464.967Z" fill="#8BE3FF"/>
<path d="M197.325 453.249C196.214 452.28 194.317 451.408 192.867 451.152M192.867 451.152C193.925 449.779 195.682 447.844 200.208 448.568C207.445 449.725 210.295 461.176 200.772 464.967C192.494 468.263 185.265 462.226 185.761 456.195C186.106 452.004 189.566 450.572 192.867 451.152Z" stroke="#1C0F00" stroke-width="1.5" stroke-linecap="round" stroke-linejoin="round"/>
<path d="M168.312 463.512C162.722 457.517 167.325 450.874 171.934 450.064C175.553 449.428 177.629 450.922 178.448 452.281C181.475 451.163 185.069 451.989 186.076 456.839C187.893 465.589 174.178 469.804 168.312 463.512Z" fill="#8BE3FF"/>
<path d="M174.239 456.059C174.94 454.388 176.587 452.968 178.448 452.281M178.448 452.281C181.475 451.163 185.069 451.989 186.076 456.839C187.893 465.589 174.178 469.804 168.312 463.512C162.722 457.517 167.325 450.874 171.934 450.064C175.553 449.428 177.629 450.922 178.448 452.281Z" stroke="#1C0F00" stroke-width="1.5" stroke-linecap="round" stroke-linejoin="round"/>
<path d="M290.611 375.767C285.41 378.409 284.514 382.468 284.73 384.119L290.611 390.626H299.226C300.039 390.956 303.777 389.305 304.59 385.343C305.89 378.244 297.113 372.465 290.611 375.767Z" fill="#FFBAC2"/>
<path d="M288.176 386.531C288.829 385.696 290.984 383.837 294.38 383.085M284.73 384.119C284.514 382.468 285.41 378.409 290.611 375.767C297.113 372.465 305.89 378.244 304.59 385.343C303.777 389.305 300.039 390.956 299.226 390.626H290.611L284.73 384.119Z" stroke="#1C0F00" stroke-width="1.5" stroke-linecap="round" stroke-linejoin="round"/>
<path d="M281.063 373.291C285.639 376.064 285.18 381.974 284.385 384.119L273.48 388.111L270.255 386.531C268.825 386.311 265.607 384.167 266.243 379.15C267.037 372.879 275.342 369.826 281.063 373.291Z" fill="#FFBAC2"/>
<path d="M278.526 384.119C278.626 383.392 277.837 380.672 275.08 378.26M284.385 384.119C285.18 381.974 285.639 376.064 281.063 373.291C275.342 369.826 267.037 372.879 266.243 379.15C265.607 384.167 268.825 386.311 270.255 386.531L273.48 388.111L284.385 384.119Z" stroke="#1C0F00" stroke-width="1.5" stroke-linecap="round" stroke-linejoin="round"/>
<path d="M283.693 383.962C277.665 383 274.52 385.967 273.701 387.57C274.85 389.177 277.975 392.528 281.283 393.08C285.419 393.769 289.9 391.356 290.244 389.289C289.48 387.799 287.099 384.649 283.693 383.962Z" fill="#FFE900" stroke="#1C0F00" stroke-width="1.5" stroke-linecap="round" stroke-linejoin="round"/>
<path d="M266.243 402.931C256.72 399.14 259.57 387.688 266.807 386.532C271.333 385.808 273.09 387.742 274.148 389.116C277.449 388.536 280.909 389.968 281.254 394.158C281.751 400.19 274.521 406.226 266.243 402.931Z" fill="#FFBAC2"/>
<path d="M269.69 391.213C270.801 390.244 272.698 389.371 274.148 389.116M274.148 389.116C273.09 387.742 271.333 385.808 266.807 386.532C259.57 387.688 256.72 399.14 266.243 402.931C274.521 406.226 281.751 400.19 281.254 394.158C280.909 389.968 277.449 388.536 274.148 389.116Z" stroke="#1C0F00" stroke-width="1.5" stroke-linecap="round" stroke-linejoin="round"/>
<path d="M298.703 401.476C304.293 395.481 299.69 388.837 295.08 388.027C291.462 387.391 289.385 388.886 288.567 390.244C285.539 389.127 281.946 389.952 280.939 394.803C279.122 403.553 292.837 407.767 298.703 401.476Z" fill="#FFBAC2"/>
<path d="M292.775 394.022C292.074 392.351 290.427 390.931 288.567 390.244M288.567 390.244C285.539 389.127 281.946 389.952 280.939 394.803C279.122 403.553 292.837 407.767 298.703 401.476C304.293 395.481 299.69 388.837 295.08 388.027C291.462 387.391 289.385 388.886 288.567 390.244Z" stroke="#1C0F00" stroke-width="1.5" stroke-linecap="round" stroke-linejoin="round"/>
<path d="M833.989 441.25C839.19 443.892 840.086 447.951 839.87 449.602L833.989 456.109H825.374C824.561 456.439 820.823 454.788 820.01 450.826C818.71 443.727 827.487 437.948 833.989 441.25Z" fill="#FFBAC2"/>
<path d="M836.424 452.014C835.771 451.179 833.616 449.32 830.22 448.568M839.87 449.602C840.086 447.951 839.19 443.892 833.989 441.25C827.487 437.948 818.71 443.727 820.01 450.826C820.823 454.788 824.561 456.439 825.374 456.109H833.989L839.87 449.602Z" stroke="#1C0F00" stroke-width="1.5" stroke-linecap="round" stroke-linejoin="round"/>
<path d="M843.538 438.774C838.962 441.547 839.421 447.457 840.215 449.602L851.12 453.594L854.346 452.015C855.776 451.794 858.993 449.65 858.358 444.633C857.563 438.363 849.259 435.309 843.538 438.774Z" fill="#FFBAC2"/>
<path d="M846.074 449.602C845.975 448.875 846.764 446.156 849.521 443.743M840.215 449.602C839.421 447.457 838.962 441.547 843.538 438.774C849.259 435.309 857.563 438.363 858.358 444.633C858.993 449.65 855.776 451.794 854.346 452.015L851.12 453.594L840.215 449.602Z" stroke="#1C0F00" stroke-width="1.5" stroke-linecap="round" stroke-linejoin="round"/>
<path d="M840.908 449.445C846.936 448.483 850.08 451.45 850.899 453.053C849.751 454.66 846.626 458.011 843.317 458.563C839.181 459.252 834.701 456.84 834.356 454.772C835.121 453.283 837.501 450.133 840.908 449.445Z" fill="#FFE900" stroke="#1C0F00" stroke-width="1.5" stroke-linecap="round" stroke-linejoin="round"/>
<path d="M858.357 468.414C867.881 464.623 865.031 453.171 857.794 452.014C853.267 451.291 851.51 453.225 850.452 454.599C847.151 454.018 843.691 455.451 843.346 459.641C842.85 465.673 850.079 471.709 858.357 468.414Z" fill="#FFBAC2"/>
<path d="M854.911 456.696C853.799 455.727 851.903 454.854 850.452 454.599M850.452 454.599C851.51 453.225 853.267 451.291 857.794 452.014C865.031 453.171 867.881 464.623 858.357 468.414C850.079 471.709 842.85 465.673 843.346 459.641C843.691 455.451 847.151 454.018 850.452 454.599Z" stroke="#1C0F00" stroke-width="1.5" stroke-linecap="round" stroke-linejoin="round"/>
<path d="M825.898 466.959C820.308 460.964 824.911 454.32 829.52 453.51C833.139 452.874 835.215 454.369 836.034 455.727C839.061 454.61 842.655 455.435 843.662 460.286C845.479 469.036 831.764 473.25 825.898 466.959Z" fill="#FFBAC2"/>
<path d="M831.825 459.505C832.526 457.835 834.173 456.414 836.034 455.727M836.034 455.727C839.061 454.61 842.655 455.435 843.662 460.286C845.479 469.036 831.764 473.25 825.898 466.959C820.308 460.964 824.911 454.32 829.52 453.51C833.139 452.874 835.215 454.369 836.034 455.727Z" stroke="#1C0F00" stroke-width="1.5" stroke-linecap="round" stroke-linejoin="round"/>
<path d="M707.074 403.611C701.873 406.253 700.977 410.312 701.193 411.963C702.015 412.257 703.348 413.187 704.639 414.469C705.872 415.694 707.067 417.239 707.741 418.856C708.016 419.132 713.154 418.369 715.689 418.47C716.502 418.8 720.24 417.149 721.053 413.187C722.353 406.088 713.576 400.309 707.074 403.611Z" fill="#8BE3FF"/>
<path d="M697.401 401.624C701.978 404.396 701.642 409.818 700.848 411.963L690.163 415.754L686.717 414.376C685.287 414.155 682.29 412.155 682.926 407.138C683.72 400.867 691.68 398.158 697.401 401.624Z" fill="#8BE3FF" stroke="#1C0F00" stroke-width="1.5" stroke-linecap="round" stroke-linejoin="round"/>
<path d="M704.639 414.376C705.292 413.54 706.888 410.848 710.284 410.096M701.193 411.963C700.977 410.312 701.873 406.253 707.074 403.611C713.576 400.309 721.924 405.754 720.623 412.853C719.81 416.816 716.502 418.8 715.689 418.47" stroke="#1C0F00" stroke-width="1.5" stroke-linecap="round" stroke-linejoin="round"/>
<path d="M694.988 411.963C695.088 411.236 694.299 408.517 691.542 406.104M700.848 411.963C701.642 409.818 701.978 404.396 697.401 401.624C691.68 398.158 683.72 400.867 682.926 407.138C682.29 412.155 685.287 414.155 686.717 414.376" stroke="#1C0F00" stroke-width="1.5" stroke-linecap="round" stroke-linejoin="round"/>
<path d="M700.155 411.806C694.127 410.844 690.983 413.811 690.164 415.415C691.312 417.021 694.437 420.372 697.746 420.924C701.882 421.613 706.362 419.201 706.707 417.133C705.942 415.644 703.562 412.494 700.155 411.806Z" fill="#FFE900" stroke="#1C0F00" stroke-width="1.5" stroke-linecap="round" stroke-linejoin="round"/>
<path d="M682.926 430.229C674.487 427.372 676.032 415.532 683.269 414.375C687.822 413.648 689.654 415.568 690.71 416.943C693.98 416.408 697.375 417.853 697.717 422.002C698.213 428.033 691.365 433.086 682.926 430.229Z" fill="#8BE3FF"/>
<path d="M686.63 418.828C690.27 415.653 697.22 415.971 697.717 422.002C698.213 428.033 691.365 433.086 682.926 430.229C674.487 427.372 676.032 415.532 683.269 414.375C687.828 413.647 689.658 415.573 690.714 416.948" stroke="#1C0F00" stroke-width="1.5" stroke-linecap="round" stroke-linejoin="round"/>
<path d="M715.166 429.32C720.756 423.325 716.153 416.681 711.543 415.871C707.925 415.235 705.848 416.73 705.03 418.088C702.002 416.971 698.409 417.796 697.402 422.647C695.585 431.397 709.299 435.611 715.166 429.32Z" fill="#8BE3FF"/>
<path d="M709.238 421.866C708.537 420.196 706.89 418.775 705.03 418.088M705.03 418.088C702.002 416.971 698.409 417.796 697.402 422.647C695.585 431.397 709.299 435.611 715.166 429.32C720.756 423.325 716.153 416.681 711.543 415.871C707.925 415.235 705.848 416.73 705.03 418.088Z" stroke="#1C0F00" stroke-width="1.5" stroke-linecap="round" stroke-linejoin="round"/>
<path d="M734.809 421.094C730.138 423.818 730.4 429.186 731.211 431.295C733.169 434.042 739.557 438.533 745.783 433.945C747.242 433.729 750.224 430.949 749.575 426.018C748.713 419.47 740.648 417.688 734.809 421.094Z" fill="#FF2F85" stroke="#1C0F00" stroke-width="1.5" stroke-linecap="round" stroke-linejoin="round"/>
<path d="M725.239 423.202C730.429 425.797 730.786 428.953 731.078 431.311L727.51 436.663L717.13 437.15C716.319 437.474 711.959 437.208 711.1 432.592C709.803 425.618 718.752 419.958 725.239 423.202Z" fill="#FF2F85" stroke="#1C0F00" stroke-width="1.5" stroke-linecap="round" stroke-linejoin="round"/>
<path d="M737.244 431.208C737.136 430.505 738.413 427.066 740.812 425.855" stroke="#1C0F00" stroke-width="1.5" stroke-linecap="round" stroke-linejoin="round"/>
<path d="M727.347 432.933C726.698 432.068 724.69 430.776 721.316 429.997" stroke="#1C0F00" stroke-width="1.5" stroke-linecap="round" stroke-linejoin="round"/>
<path d="M731.564 431.149C737.533 430.24 740.809 433.365 741.62 434.879C741.944 441.529 732.051 441.042 729.456 439.907C727.38 438.999 725.888 436.501 725.401 435.366C726.158 433.96 728.191 431.797 731.564 431.149Z" fill="#FFF3E1" stroke="#1C0F00" stroke-width="1.5" stroke-linecap="round" stroke-linejoin="round"/>
<path d="M717.128 449.476C711.21 443.88 716.127 435.953 720.669 435.142C724.675 434.427 726.312 435.896 727.138 437.389C730.277 436.365 733.854 437.267 734.779 441.792C736.568 450.55 723.132 455.152 717.128 449.476Z" fill="#FF2F85"/>
<path d="M722.159 442.074C722.774 439.924 724.839 438.14 727.138 437.389M727.138 437.389C730.277 436.365 733.854 437.267 734.779 441.792C736.568 450.55 723.132 455.152 717.128 449.476C711.21 443.88 716.127 435.953 720.669 435.142C724.675 434.427 726.312 435.896 727.138 437.389Z" stroke="#1C0F00" stroke-width="1.5" stroke-linecap="round" stroke-linejoin="round"/>
<path d="M749.417 449.21C758.049 446.164 756.019 434.347 748.739 433.134C743.964 432.339 741.995 434.076 740.697 435.261C737.621 435.121 734.672 436.791 734.354 440.81C733.847 447.24 740.784 452.256 749.417 449.21Z" fill="#FF2F85"/>
<path d="M745.83 437.348C744.434 436.079 742.542 435.344 740.697 435.261M740.697 435.261C737.621 435.121 734.672 436.791 734.354 440.81C733.847 447.24 740.784 452.256 749.417 449.21C758.049 446.164 756.019 434.347 748.739 433.134C743.964 432.339 741.995 434.076 740.697 435.261Z" stroke="#1C0F00" stroke-width="1.5" stroke-linecap="round" stroke-linejoin="round"/>
</svg>
