<svg width="1324" height="822" viewBox="0 0 1324 822" fill="none" xmlns="http://www.w3.org/2000/svg">
<path d="M976.731 207.936C843.905 165.5 837.049 40.4731 906.673 13.3093C941.925 -0.444066 967.595 13.8004 981.261 25.3133C1014.7 -24.3122 1119.13 2.85043 1093.36 99.2831C1078.39 155.316 1042.05 186.616 1014.7 200.852C997.889 209.604 988.905 211.825 976.731 207.936Z" fill="#FF2F85"/>
<path d="M995.717 53.1022C994.361 40.8785 987.365 30.4561 981.261 25.3133M981.261 25.3133C967.595 13.8004 941.925 -0.444066 906.673 13.3093C837.049 40.4731 843.905 165.5 976.731 207.936C988.905 211.825 997.889 209.604 1014.7 200.852C1042.05 186.616 1078.39 155.316 1093.36 99.2831C1119.13 2.85043 1014.7 -24.3122 981.261 25.3133Z" stroke="#1C0F00" stroke-width="2" stroke-linecap="round" stroke-linejoin="round"/>
<path d="M980.405 229.5C985.262 224.182 985.136 213.147 985.136 208.209C988.499 201.372 999.707 202.131 1003.07 205.55C1006.06 219.529 1012.04 223.727 1014.41 225.5C999.46 221.246 985.512 226.714 980.405 229.5Z" fill="#FF2F85" stroke="#1C0F00" stroke-width="2" stroke-linecap="round" stroke-linejoin="round"/>
<path d="M1137 263C1121.5 324.5 1066.5 367 976.5 359.5" stroke="#1C0F00" stroke-width="2" stroke-linecap="round" stroke-linejoin="round"/>
<path d="M976.5 359.5C999.833 345.833 1030.2 308.5 997 224.5" stroke="#1C0F00" stroke-width="2" stroke-linecap="round" stroke-linejoin="round"/>
<path d="M1196.11 56.5963C1201.83 52.5837 1209.81 54.9376 1212.36 61.4444C1220.9 83.1733 1225.26 98.5062 1229.04 120.655C1229.59 123.908 1231.54 126.764 1234.39 128.438C1254.81 140.465 1268.14 149.308 1285.57 162.892C1291.02 167.14 1291.1 175.332 1285.75 179.697C1265.82 195.937 1252.74 204.504 1234.61 214.001C1231.6 215.579 1229.45 218.432 1228.78 221.765C1224.33 243.827 1219.6 259.124 1211.92 280.28C1209.49 286.97 1201.4 289.564 1195.53 285.547C1177.44 273.182 1164.62 263.711 1147.59 248.149C1145.04 245.824 1141.57 244.797 1138.16 245.327C1114.53 249.006 1098.6 248.43 1076.7 247.28C1069.81 246.918 1064.91 240.348 1066.61 233.652C1072.22 211.551 1077.09 196.164 1087.57 176.167C1089.26 172.944 1089.33 169.102 1087.72 165.838C1077.4 144.918 1071.99 129.867 1066.47 107.861C1064.84 101.348 1069.53 94.9648 1076.23 94.5634C1098.54 93.2268 1114.63 93.7691 1138.65 97.0196C1141.83 97.4505 1145.06 96.497 1147.49 94.3915C1164.2 79.8994 1176.8 70.1299 1196.11 56.5963Z" fill="#FFA41C" stroke="#1C0F00" stroke-width="2" stroke-linecap="round" stroke-linejoin="round"/>
<path d="M1119 260.232C1125.68 257.541 1131.86 248.684 1134 244.232C1141 239.732 1150.5 245 1151 250.5C1147.64 264.395 1151.02 269.609 1152.38 272.231C1140.75 261.928 1124.81 259.931 1119 260.232Z" fill="#FFA41C" stroke="#1C0F00" stroke-width="2" stroke-linecap="round" stroke-linejoin="round"/>
<path d="M7.25655 723C-39.5534 662.845 188.561 658.058 283.812 606.421C373.665 557.71 420.609 530.908 491.787 522.58C562.965 514.251 670.287 540.348 729.231 565.888C788.176 591.429 803.19 567.554 879.929 565.888C956.668 564.223 971.126 580.325 1010.61 606.421C1050.09 632.517 1235.82 619.191 1299.77 671.384C1363.72 723.576 1234.71 754.669 1194.11 762.443C1153.52 770.216 1125.72 766.329 1023.4 801.864C921.079 837.4 946.103 754.114 857.686 795.757C769.269 837.4 700.871 796.867 599.109 807.417C497.346 817.966 429.756 840 338.307 784.097C273.395 744.416 67.3133 800.178 7.25655 723Z" fill="#00B261" stroke="#1C0F00" stroke-width="2" stroke-linecap="round" stroke-linejoin="round"/>
<path d="M902 552.5C913 558 911.5 570.5 909.5 575L943 581.5C932 562 937.5 548 944.5 540C928 547 923.833 557.333 922.5 562.5C916.5 554.5 907.167 552.333 902 552.5Z" fill="#00B261"/>
<path d="M908.5 576.5C910.5 572 913 558 902 552.5C907.167 552.333 916.5 554.5 922.5 562.5C923.834 557.333 928 547 944.5 540C937.5 548 932 562 943 581.5" stroke="#1C0F00" stroke-width="2" stroke-linecap="round" stroke-linejoin="round"/>
<path d="M653 627C630.5 636 622.833 654.5 620 660.5C627.5 662.5 649.2 666.2 676 665C658.5 660.5 661 641 668.5 637C652.1 637 644 645.833 642.5 650.5C641.7 641.3 649.5 629 653 627Z" fill="#00B261"/>
<path d="M620 660.5C622.833 654.5 630.5 636 653 627C649.5 629 641.7 641.3 642.5 650.5C644 645.833 652.1 637 668.5 637C661 641 658.5 660.5 676 665" stroke="#1C0F00" stroke-width="2" stroke-linecap="round" stroke-linejoin="round"/>
<path d="M1130 624.5C1129.2 615.3 1136.94 602 1141.5 600C1128.72 605.112 1120.54 612.289 1115.5 619.5C1116.11 617 1113.5 606.5 1102.5 603.5C1107 611 1109 619.4 1095 637C1109 639.667 1142.5 643.6 1164.5 638C1147 633.5 1149.5 614 1157 610C1140.6 610 1131.5 619.833 1130 624.5Z" fill="#00B261"/>
<path d="M1164.5 638C1147 633.5 1149.5 614 1157 610C1140.6 610 1131 620.5 1129.5 627.5C1129 612 1138 602 1141.5 600C1128.72 605.112 1120.54 612.289 1115.5 619.5C1116.11 617 1113 605.5 1102 603.5C1107.5 608.5 1108.5 624.5 1095 637" stroke="#1C0F00" stroke-width="2" stroke-linecap="round" stroke-linejoin="round"/>
<path d="M137.5 654.5C138.3 645.3 130.559 632 126 630C138.78 635.112 146.959 642.289 152 649.5C151.395 647 154 636.5 165 633.5C160.5 641 158.5 649.4 172.5 667C158.5 669.667 125 673.6 103 668C120.5 663.5 118 644 110.5 640C126.9 640 136 649.833 137.5 654.5Z" fill="#00B261"/>
<path d="M103 668C120.5 663.5 118 644 110.5 640C126.9 640 136.5 650.5 138 657.5C138.5 642 129.5 632 126 630C138.78 635.112 146.959 642.289 152 649.5C151.395 647 154.5 635.5 165.5 633.5C160 638.5 159 654.5 172.5 667" stroke="#1C0F00" stroke-width="2" stroke-linecap="round" stroke-linejoin="round"/>
<path d="M665.644 525C675.362 540.922 667.264 554.301 662 559C670.8 564.6 678.084 558.293 680.626 554.439C683.217 539.18 671.718 528.455 665.644 525Z" fill="#00B261"/>
<path d="M662 559C667.264 554.301 675.362 540.922 665.644 525C671.718 528.455 683.217 539.18 680.626 554.439" stroke="#1C0F00" stroke-width="2" stroke-linecap="round" stroke-linejoin="round"/>
<path d="M292.356 585C282.638 600.922 290.736 614.301 296 619C287.2 624.6 279.916 618.293 277.374 614.439C274.783 599.18 286.282 588.455 292.356 585Z" fill="#00B261"/>
<path d="M296 619C290.736 614.301 282.638 600.922 292.356 585C286.282 588.455 274.783 599.18 277.374 614.439" stroke="#1C0F00" stroke-width="2" stroke-linecap="round" stroke-linejoin="round"/>
<path d="M1257.64 631C1267.36 646.922 1259.26 660.301 1254 665C1262.8 670.6 1270.08 664.293 1272.63 660.439C1275.22 645.18 1263.72 634.455 1257.64 631Z" fill="#00B261"/>
<path d="M1254 665C1259.26 660.301 1267.36 646.922 1257.64 631C1263.72 634.455 1275.22 645.18 1272.63 660.439" stroke="#1C0F00" stroke-width="2" stroke-linecap="round" stroke-linejoin="round"/>
<path d="M440 510C462.5 519 470.167 537.5 473 543.5C465.5 545.5 443.8 549.2 417 548C434.5 543.5 432 524 424.5 520C440.9 520 449 528.833 450.5 533.5C451.3 524.3 443.5 512 440 510Z" fill="#00B261"/>
<path d="M473 543.5C470.167 537.5 462.5 519 440 510C443.5 512 451.3 524.3 450.5 533.5C449 528.833 440.9 520 424.5 520C432 524 434.5 543.5 417 548" stroke="#1C0F00" stroke-width="2" stroke-linecap="round" stroke-linejoin="round"/>
<path d="M993.84 664.702C994.078 664.721 994.315 664.732 994.55 664.734L993.84 664.702C982.364 663.783 968.421 643.956 981.356 625.999C971.389 628.627 961.15 642.325 962.93 652.677C962.099 647.846 958.995 636.97 942.757 634.668C949.622 639.681 949.29 659.834 931.332 661.834L993.84 664.702Z" fill="#00B261"/>
<path d="M992 658.5C979.5 658.5 968 641 981.356 625.999C971.389 628.626 963.721 640.648 965.5 651C964.669 646.169 958.995 636.97 942.757 634.668C946.862 637.775 949.781 656.369 934.723 659.284" stroke="#1C0F00" stroke-width="2" stroke-linecap="round" stroke-linejoin="round"/>
<ellipse cx="498.93" cy="626" rx="121" ry="19" fill="#1C0F00"/>
<ellipse cx="766" cy="607" rx="121" ry="19" fill="#1C0F00"/>
<path d="M637 494C590.278 468.475 595 407 617.5 376L658.5 366.5C635.834 394.167 616.325 447.197 653.5 466C687.512 483.203 733.911 448.492 752.5 417.346C748.5 413 745.339 403.781 748 392.5C754.172 366.345 799 358.5 815 393.589C815 393.589 915.514 602 871.149 602H747C700.5 602 676.42 542.673 714 514.5C719.289 510.262 725.208 507.216 731.536 505.2C733.618 495.448 739.93 482.984 749.881 473.168C715.913 505.937 670.39 512.24 637 494Z" fill="#EEB36F"/>
<path d="M752.5 417.346C748.5 413 745.339 403.781 748 392.5C754.172 366.345 799 358.5 815 393.589C815 393.589 915.514 602 871.149 602H747C700.5 602 676.42 542.673 714 514.5C719.289 510.262 725.208 507.216 731.536 505.2M752.5 417.346C733.911 448.492 687.512 483.203 653.5 466C616.325 447.197 635.834 394.167 658.5 366.5L617.5 376C595 407 590.278 468.475 637 494C670.615 512.364 716.528 505.85 750.569 472.5M752.5 417.346C756.224 411.105 758.832 405.008 760 399.5M840.5 543.5C819.583 516.878 768.553 493.408 731.536 505.2M731.536 505.2C733.666 495.225 740.22 482.414 750.569 472.5M750.569 472.5C761.708 461.586 770.85 449.054 778 433" stroke="#1C0F00" stroke-width="2" stroke-linecap="round" stroke-linejoin="round"/>
<path d="M587.317 635.119C617.6 619.977 615.915 589.562 611.769 574.421L726 379C703.522 357.865 689.235 376.683 684.902 388.734L605 496C607 459.5 596.5 416.581 569 401.5C506.5 367.226 457.5 409 446 441C473 443 513.312 453.657 546.043 510.04C564.391 541.647 585.519 607.919 587.317 635.119Z" fill="#EEB36F"/>
<path d="M887.552 301.073C873.672 294.224 840.505 294.043 823.201 318.378C811.767 334.456 814.008 350.283 817.252 357.854C820.57 365.598 827.844 370.115 832.458 372.502C823.546 382.463 819.055 398.203 825.905 415.176C837.907 444.918 877.277 438.429 889.715 426.532C892.419 433.021 906.695 444.702 924.865 437.347C935.634 432.989 941.053 424.618 942.623 415.176C955.148 415.717 978.076 404.793 976.779 367.588C975.156 321.082 942.62 303.777 925.316 303.777C926.407 271.418 926.025 212.792 924.865 198.867C923.242 179.4 912.427 156.674 889.174 149.117C871.869 143.493 850.862 146.867 839.506 150.652C831.603 160.228 822.593 181.058 849.781 187.772C858.433 181.282 878.142 181.022 883.766 196.164C889.39 211.306 888.634 272.412 887.552 301.073Z" fill="#EEB36F"/>
<path d="M832.458 372.502C827.844 370.115 820.57 365.598 817.252 357.854C814.008 350.283 811.767 334.456 823.201 318.378C840.505 294.043 873.672 294.224 887.552 301.073C888.634 272.412 889.39 211.306 883.766 196.164C878.142 181.022 858.433 181.282 849.781 187.772C822.593 181.058 831.603 160.228 839.506 150.652C850.862 146.867 871.869 143.493 889.174 149.117C912.427 156.674 923.242 179.4 924.865 198.867C926.025 212.792 926.407 271.418 925.316 303.777M832.458 372.502C823.546 382.463 819.055 398.203 825.905 415.176C837.907 444.918 877.277 438.429 889.715 426.532M832.458 372.502C839.164 365.008 848.372 360.786 857.139 361.771M898.908 389.219C900.35 398.051 899.724 416.958 889.715 426.532M889.715 426.532C892.419 433.021 906.695 444.702 924.865 437.347C935.634 432.989 941.053 424.618 942.623 415.176M857.139 361.771C854.285 348.199 846.751 342.375 842.127 341.09M857.139 361.771C858.29 367.246 858.679 373.982 857.809 382.189M942.623 415.176C955.148 415.717 978.076 404.793 976.779 367.588C975.156 321.082 942.62 303.777 925.316 303.777M942.623 415.176C944.363 404.703 941.367 392.911 935.68 383.811M925.316 303.777C925.186 307.61 925.037 311.074 924.865 314.052" stroke="#1C0F00" stroke-width="2" stroke-linecap="round" stroke-linejoin="round"/>
<path d="M482.5 533.5C448.464 483.374 446.5 458.061 446.5 442C471.476 442 513.136 453.238 545.867 509.62C564.216 541.227 585.343 607.499 587.141 634.699C557.398 620.098 512.243 577.302 482.5 533.5Z" fill="#1C0F00"/>
<path d="M603.73 588.572L727.5 376.551C705.022 355.416 690.735 374.234 686.402 386.284L605.5 495.035M611.841 574.512C615.987 589.654 617.425 619.558 587.141 634.699M587.141 634.699C557.398 620.098 512.243 577.302 482.5 533.5C448.464 483.374 446.5 458.061 446.5 442M587.141 634.699C585.343 607.499 564.216 541.227 545.867 509.62C513.136 453.238 471.476 442 446.5 442M601.5 522C608.636 484.249 606.205 426.888 572 403.5C513.5 363.5 453 410 446.5 442" stroke="#1C0F00" stroke-width="2" stroke-linecap="round" stroke-linejoin="round"/>
<path d="M431.279 301.074C445.159 294.224 478.326 294.043 495.631 318.378C507.064 334.457 504.823 350.283 501.579 357.854C498.261 365.598 490.987 370.116 486.373 372.502C495.286 382.463 499.776 398.203 492.927 415.176C480.924 444.918 441.555 438.429 429.116 426.532C426.413 433.021 412.136 444.702 393.966 437.348C383.198 432.989 377.778 424.618 376.209 415.176C363.684 415.717 340.755 404.793 342.053 367.588C343.675 321.082 376.211 303.777 393.515 303.777C392.424 271.418 392.806 212.793 393.967 198.868C395.589 179.4 406.404 156.675 429.657 149.117C446.962 143.493 469.621 144.51 484.762 151.54C492.549 187.88 476.831 190.476 467.998 187.231C459.346 180.742 440.689 181.023 435.065 196.164C429.441 211.306 430.198 272.413 431.279 301.074Z" fill="#EEB36F"/>
<path d="M486.373 372.502C490.987 370.116 498.261 365.598 501.579 357.854C504.823 350.283 507.064 334.457 495.631 318.378C478.326 294.043 445.159 294.224 431.279 301.074C430.198 272.413 429.441 211.306 435.065 196.164C440.689 181.023 459.346 180.742 467.998 187.231M486.373 372.502C495.286 382.463 499.776 398.203 492.927 415.176C480.924 444.918 441.555 438.429 429.116 426.532M486.373 372.502C479.667 365.009 470.459 360.786 461.693 361.771M419.923 389.219C418.481 398.051 419.107 416.958 429.116 426.532M429.116 426.532C426.413 433.021 412.136 444.702 393.966 437.348C383.198 432.989 377.778 424.618 376.209 415.176M461.693 361.771C464.546 348.199 472.081 342.375 476.705 341.091M461.693 361.771C460.542 367.246 460.152 373.982 461.022 382.189M484.762 151.54C469.621 144.51 446.962 143.493 429.657 149.117C406.404 156.675 395.589 179.4 393.967 198.868C392.806 212.793 392.424 271.418 393.515 303.777M376.209 415.176C363.684 415.717 340.755 404.793 342.053 367.588C343.675 321.082 376.211 303.777 393.515 303.777M376.209 415.176C374.468 404.703 377.464 392.911 383.151 383.811M393.515 303.777C393.645 307.61 393.795 311.074 393.967 314.052" stroke="#1C0F00" stroke-width="2" stroke-linecap="round" stroke-linejoin="round"/>
<path d="M593.22 49.4015C585.173 46.2161 563.445 44.4724 546.949 56.9457C535.483 66.0763 530.282 76.6824 528.272 86.1175C515.218 88.7999 486.594 106.738 495.179 145.555C486.955 149.44 477.629 156.81 472.51 169.608C464.463 189.726 471.84 208.168 476.534 214.874C461.647 253.904 480.635 275.061 491.99 280.762C492.29 290.707 494.958 301.619 502.186 311.442C510.977 323.389 521.863 328.317 531.358 329.78C534.979 358.75 563.546 365.761 577.438 363.246C583.427 370.887 592.248 377.905 603.783 380.85C632.538 388.191 648.043 379.509 652.067 374.814C654.582 378.67 663.635 386.583 679.73 387.388C699.043 388.193 708.807 379.341 711.276 374.814C722.334 379.779 737.024 382.128 751.652 374.814C763.834 368.723 770.68 360.028 774.452 351.637C810.263 346.809 816.701 318.582 815.528 305.051C824.448 301.589 834.261 295.087 839.67 283.779C848.522 265.27 843.358 245.219 839.67 237.507C844.196 232.981 852.545 221.714 851.74 200.791C850.935 179.869 841.849 171.909 836.652 168.282C839.348 160.089 841.106 149.703 838.664 139.934C834.64 123.839 820.504 116.463 813.939 114.786C813.117 106.096 810.128 96.1661 802.451 85.1116C792.392 70.6265 772.776 64.658 764.226 63.4845C754.569 39.3426 730.696 38.8118 719.966 41.5642C714.575 35.9115 706.343 30.2338 694.315 26.7682C677.798 22.0091 663.814 27.6475 654.8 34.313C649.603 30.457 636.776 23.5494 619.877 26.7684C602.977 29.9873 594.729 43.3661 593.22 49.4015Z" fill="#EEB36F"/>
<path d="M528.339 106.738C527.231 102.067 526.474 94.5611 528.272 86.1175M654.8 34.313C649.603 30.457 636.776 23.5494 619.877 26.7684C602.977 29.9873 594.729 43.3661 593.22 49.4015C585.173 46.2161 563.445 44.4724 546.949 56.9457C535.483 66.0763 530.282 76.6824 528.272 86.1175M654.8 34.313C663.814 27.6475 677.798 22.0091 694.315 26.7682C706.343 30.2338 714.575 35.9115 719.966 41.5642M654.8 34.313C650.859 37.2277 647.868 40.3389 646.032 42.8629M728.516 55.9398C727.772 52.5487 725.216 47.0683 719.966 41.5642M719.966 41.5642C730.696 38.8118 754.569 39.3426 764.226 63.4845C772.776 64.658 792.392 70.6265 802.451 85.1116C810.128 96.1661 813.117 106.096 813.939 114.786M813.516 129.875C814.104 125.369 814.462 120.33 813.939 114.786M813.939 114.786C820.504 116.463 834.64 123.839 838.664 139.934C841.106 149.703 839.348 160.089 836.652 168.282M831.119 180.673C832.767 177.972 834.906 173.587 836.652 168.282M836.652 168.282C841.849 171.909 850.935 179.869 851.74 200.791C852.545 221.714 844.196 232.981 839.67 237.507C843.358 245.219 848.522 265.27 839.67 283.779C834.261 295.087 824.448 301.589 815.528 305.051M800.942 308.424C804.529 308.228 809.847 307.256 815.528 305.051M815.528 305.051C816.701 318.582 810.263 346.809 774.452 351.637M774.452 351.637C770.68 360.028 763.834 368.723 751.652 374.814C737.024 382.128 722.334 379.779 711.276 374.814M774.452 351.637C778.155 343.399 778.895 335.454 778.812 330.554M695.321 363.749C698.426 367.251 704.083 371.586 711.276 374.814M711.276 374.814C708.808 379.341 699.043 388.193 679.73 387.388C663.635 386.583 654.582 378.67 652.067 374.814C648.043 379.509 632.538 388.191 603.783 380.85C592.248 377.905 583.427 370.887 577.438 363.246M568.073 341.116C567.988 346.524 571.154 355.229 577.438 363.246M577.438 363.246C563.546 365.761 534.979 358.75 531.358 329.78M531.358 329.78C521.863 328.317 510.977 323.389 502.186 311.442C494.958 301.619 492.29 290.707 491.99 280.762M531.358 329.78C538.811 330.929 545.408 329.943 549.463 328.542M497.157 253.099C494.534 258.796 491.639 269.116 491.99 280.762M528.272 86.1175C515.218 88.7999 486.594 106.738 495.179 145.555M495.179 145.555C486.955 149.44 477.629 156.81 472.51 169.608C464.463 189.726 471.84 208.168 476.534 214.874C461.647 253.904 480.635 275.061 491.99 280.762M495.179 145.555C499.883 143.333 504.226 142.251 507.215 141.946" stroke="#1C0F00" stroke-width="2" stroke-linecap="round" stroke-linejoin="round"/>
<path d="M764.735 255.263C765.375 265.12 753.354 283.383 735.407 278.96M722.524 272.219C727.066 275.839 731.385 277.969 735.407 278.96M735.407 278.96C732.96 283.519 725.477 290.891 715.129 283.916" stroke="#1C0F00" stroke-width="2" stroke-linecap="round" stroke-linejoin="round"/>
<path d="M539.129 270.269C546.079 271.506 556.175 282.876 546.751 295.539" stroke="#1C0F00" stroke-width="2" stroke-linecap="round" stroke-linejoin="round"/>
<path d="M822.823 212.636C817.029 216.669 803.539 217.528 801.27 201.908" stroke="#1C0F00" stroke-width="2" stroke-linecap="round" stroke-linejoin="round"/>
<path d="M744.577 163.282C741.344 155.715 745.967 141.116 759.78 137.346M772.445 136.917C767.586 136.118 763.372 136.366 759.78 137.346M759.78 137.346C757.247 133.191 753.829 123.089 760.424 115.92" stroke="#1C0F00" stroke-width="2" stroke-linecap="round" stroke-linejoin="round"/>
<path d="M623.821 189.934C623.821 210.568 607.638 226.247 586.967 226.247C566.296 226.247 549.572 210.028 549.572 189.394C549.572 168.703 565.27 151.999 585.885 151.999C608.02 151.999 623.821 169.256 623.821 189.934Z" fill="#FFF3E1" stroke="#1C0F00" stroke-width="2"/>
<circle cx="593.998" cy="196.802" r="29.2015" fill="#1C0F00"/>
<path d="M543.166 195.342C533.216 193.179 523.158 200.209 522.076 205.617L538.299 234.278C541.544 235.9 556.145 232.115 558.308 221.299C560.471 210.484 555.604 198.046 543.166 195.342Z" fill="#EEB36F"/>
<path d="M520.453 209.194C521.04 201.753 529.981 193.909 540.978 194.884C553.88 196.029 562.09 210.338 558.571 221.786C555.134 232.968 542.738 236.096 539.219 234.379" stroke="#1C0F00" stroke-width="2" stroke-linecap="round" stroke-linejoin="round"/>
<path d="M598.865 289.436C606.256 293.402 624.822 297.872 639.964 284.028" stroke="#1C0F00" stroke-width="2" stroke-linecap="round" stroke-linejoin="round"/>
<path d="M679.521 189.934C679.521 210.587 662.779 227.329 642.127 227.329C621.474 227.329 604.191 210.046 604.191 189.394C604.191 168.741 620.934 151.999 641.586 151.999C663.721 151.999 679.521 169.256 679.521 189.934Z" fill="#FFF3E1" stroke="#1C0F00" stroke-width="2" stroke-linejoin="round"/>
<circle cx="649.157" cy="196.802" r="29.2015" fill="#1C0F00"/>
<circle cx="631.43" cy="178.5" r="10.5" fill="#FFF3E1"/>
<circle cx="576.43" cy="178.5" r="10.5" fill="#FFF3E1"/>
<path d="M591.295 225.625C586.536 219.569 584.265 219.136 581.02 219.677C578.879 220.034 574.442 222.721 572.909 235.359C570.744 253.205 580.48 285.651 615.63 283.487C650.78 281.324 652.943 250.501 651.861 239.144C650.78 227.788 645.913 218.054 639.964 216.432C634.016 214.81 632.562 219.231 629.149 225.084C625.364 231.574 618.876 235.359 610.223 235.359C603.193 235.359 597.243 233.196 591.295 225.625Z" fill="#FDDEDC" stroke="#1C0F00" stroke-width="2" stroke-linecap="round" stroke-linejoin="round"/>
<path d="M630.942 247.256C643.921 255.909 643.38 272.672 636.891 276.458C629.969 282.082 614.718 285.11 604.443 282.947C610.933 279.486 611.904 273.573 611.579 271.05C609.791 271.738 607.888 272.054 606.066 271.969C598.682 271.622 591.082 266.148 592.006 257.531C593.63 242.389 614.719 236.441 630.942 247.256Z" fill="#FFBAC2"/>
<path d="M619.585 256.99C620.783 264.182 616.64 269.103 611.579 271.05M611.579 271.05C609.791 271.738 607.888 272.054 606.066 271.969C598.682 271.622 591.082 266.148 592.006 257.531C593.63 242.389 614.719 236.441 630.942 247.256C643.921 255.909 643.38 272.672 636.891 276.458C629.969 282.082 614.718 285.11 604.443 282.947C610.933 279.486 611.904 273.573 611.579 271.05Z" stroke="#1C0F00" stroke-width="2" stroke-linecap="round" stroke-linejoin="round"/>
<path d="M653.321 134.293C656.629 135.84 658.516 137.394 659.406 138.783C660.248 140.098 660.22 141.288 659.596 142.401C658.928 143.591 657.524 144.774 655.453 145.776C653.402 146.768 650.791 147.537 647.853 147.958C641.664 148.844 635.351 148.274 630.622 146.731C628.255 145.959 626.341 144.96 625.037 143.828C623.738 142.7 623.117 141.507 623.117 140.303C623.117 138.069 624.295 136.334 626.384 134.999C628.503 133.646 631.486 132.766 634.827 132.325C641.53 131.441 649.231 132.38 653.321 134.293Z" fill="#6C3712" stroke="#1C0F00" stroke-width="2" stroke-linejoin="round"/>
<path d="M562.645 143.766C561.2 142.505 560.446 141.114 560.389 139.655C560.396 138.42 561.195 136.329 564.036 134.623C566.899 132.904 571.838 131.591 579.988 132.103C585.056 132.421 588.863 133.468 591.512 134.854C594.169 136.245 595.584 137.931 596.056 139.505C596.515 141.037 596.136 142.642 594.811 144.081C593.465 145.544 591.13 146.832 587.759 147.519C580.892 148.916 573.985 148.528 568.803 146.927C566.211 146.126 564.102 145.037 562.645 143.766Z" fill="#6C3712" stroke="#1C0F00" stroke-width="2" stroke-linejoin="round"/>
<path d="M629.688 338.575C633.053 335.062 642.198 330.711 651.852 341.414C651.835 338.415 653.344 331.964 659.515 330.151" stroke="#1C0F00" stroke-width="2" stroke-linecap="round" stroke-linejoin="round"/>
<path d="M688.09 201.291C701.502 202.589 707.378 210.845 708.64 214.81L685.387 243.471C682.143 243.471 670.786 242.39 665.919 230.493C661.052 218.596 671.327 199.669 688.09 201.291Z" fill="#EEB36F"/>
<path d="M708.642 214.81C707.561 209.943 701.071 202.058 687.552 200.75C670.788 199.127 661.053 218.055 665.92 229.952C670.787 241.849 682.145 243.47 685.389 243.47" stroke="#1C0F00" stroke-width="2" stroke-linecap="round" stroke-linejoin="round"/>
<circle cx="692.43" cy="209.5" r="1.5" fill="#1C0F00"/>
<circle cx="543.43" cy="206.5" r="1.5" fill="#1C0F00"/>
<circle cx="675.43" cy="218.5" r="1.5" fill="#1C0F00"/>
<circle cx="530.43" cy="206.5" r="1.5" fill="#1C0F00"/>
<circle cx="685.43" cy="221.5" r="1.5" fill="#1C0F00"/>
<circle cx="538.43" cy="218.5" r="1.5" fill="#1C0F00"/>
<circle cx="699.43" cy="218.5" r="1.5" fill="#1C0F00"/>
<circle cx="550.43" cy="218.5" r="1.5" fill="#1C0F00"/>
<path d="M534.25 124.527C537.435 123.018 542.398 117.284 536.765 106.421C541.459 115.474 561.913 122.012 569.457 103.906" stroke="#1C0F00" stroke-width="2" stroke-linecap="round" stroke-linejoin="round"/>
<path d="M630.174 76.058C639.227 71.0283 660.854 71.0288 665.276 90.6439M665.381 99.6973C665.884 97.6854 665.691 92.4844 665.276 90.6439M665.276 90.6439C673.428 87.1234 688.517 92.656 687.008 109.253" stroke="#1C0F00" stroke-width="2" stroke-linecap="round" stroke-linejoin="round"/>
<path d="M731.156 610.697C723.61 614.529 722.309 620.418 722.624 622.813L731.156 632.254H743.654C744.833 632.733 750.256 630.337 751.435 624.589C753.322 614.29 740.588 605.906 731.156 610.697Z" fill="#FFA41C"/>
<path d="M727.623 626.313C728.57 625.101 731.697 622.404 736.623 621.313M722.624 622.813C722.309 620.418 723.61 614.529 731.156 610.697C740.588 605.906 753.322 614.29 751.435 624.589C750.256 630.337 744.833 632.733 743.654 632.254H731.156L722.624 622.813Z" stroke="#1C0F00" stroke-width="2" stroke-linecap="round" stroke-linejoin="round"/>
<path d="M717.302 607.105C723.941 611.127 723.275 619.701 722.122 622.813L706.302 628.605L701.622 626.313C699.548 625.994 694.88 622.883 695.802 615.605C696.955 606.507 709.003 602.077 717.302 607.105Z" fill="#FFA41C"/>
<path d="M713.622 622.813C713.767 621.759 712.622 617.813 708.622 614.313M722.122 622.813C723.275 619.701 723.941 611.127 717.302 607.105C709.003 602.077 696.955 606.507 695.802 615.605C694.88 622.883 699.548 625.994 701.622 626.313L706.302 628.605L722.122 622.813Z" stroke="#1C0F00" stroke-width="2" stroke-linecap="round" stroke-linejoin="round"/>
<path d="M721.117 622.586C712.373 621.19 707.811 625.494 706.622 627.82C708.289 630.151 712.822 635.013 717.622 635.813C723.622 636.813 730.122 633.313 730.622 630.313C729.514 628.153 726.06 623.583 721.117 622.586Z" fill="#FFE900" stroke="#1C0F00" stroke-width="2" stroke-linecap="round" stroke-linejoin="round"/>
<path d="M695.803 650.105C681.986 644.605 686.121 627.991 696.62 626.313C703.187 625.264 705.736 628.07 707.271 630.063C712.06 629.221 717.079 631.299 717.58 637.378C718.3 646.128 707.812 654.886 695.803 650.105Z" fill="#FFA41C"/>
<path d="M700.803 633.105C702.415 631.699 705.167 630.433 707.271 630.063M707.271 630.063C705.736 628.07 703.187 625.264 696.62 626.313C686.121 627.991 681.986 644.605 695.803 650.105C707.812 654.886 718.3 646.128 717.58 637.378C717.079 631.299 712.06 629.221 707.271 630.063Z" stroke="#1C0F00" stroke-width="2" stroke-linecap="round" stroke-linejoin="round"/>
<path d="M742.894 647.994C751.004 639.296 744.326 629.658 737.638 628.483C732.389 627.56 729.376 629.729 728.189 631.7C723.797 630.079 718.584 631.276 717.123 638.313C714.487 651.007 734.383 657.121 742.894 647.994Z" fill="#FFA41C"/>
<path d="M734.294 637.181C733.277 634.757 730.888 632.696 728.189 631.7M728.189 631.7C723.797 630.079 718.584 631.276 717.123 638.313C714.487 651.007 734.383 657.121 742.894 647.994C751.004 639.296 744.326 629.658 737.638 628.483C732.389 627.56 729.376 629.729 728.189 631.7Z" stroke="#1C0F00" stroke-width="2" stroke-linecap="round" stroke-linejoin="round"/>
<path d="M811.356 595C801.638 610.922 809.736 624.301 815 629C806.2 634.6 798.916 628.293 796.374 624.439C793.783 609.18 805.282 598.455 811.356 595Z" fill="#00B261"/>
<path d="M815 629C809.736 624.301 801.638 610.922 811.356 595C805.282 598.455 793.783 609.18 796.374 624.439" stroke="#1C0F00" stroke-width="2" stroke-linecap="round" stroke-linejoin="round"/>
<path d="M443.5 603.5C436 609.5 429.5 629 439 644C445.971 655.007 406.5 644.5 397 642.5C409.5 637 402 617.5 395.5 616C409 614.5 416.667 622.667 418 625C421.6 617.8 431 605.5 443.5 603.5Z" fill="#00B261"/>
<path d="M442.5 651C426.5 633 436.5 607.5 445 603C430 605.5 421.6 617.8 418 625C416.667 622.667 408.5 614.5 395 616C401.5 617.5 409.5 636 398 642.5" stroke="#1C0F00" stroke-width="2" stroke-linecap="round" stroke-linejoin="round"/>
<path d="M73.5787 640.455C66.8023 644.408 67.1821 652.196 68.3586 655.254C71.1993 659.24 80.4672 665.755 89.4993 659.099C91.6169 658.786 95.942 654.752 95.0008 647.599C93.7508 638.1 82.0492 635.514 73.5787 640.455Z" fill="#FF2F85" stroke="#1C0F00" stroke-width="2" stroke-linecap="round" stroke-linejoin="round"/>
<path d="M68.1581 655.207L68.1669 655.278L62.9905 663.043L47.9318 663.749C46.7554 664.219 40.4296 663.834 39.1837 657.137C37.3014 647.019 50.2847 638.808 59.6964 643.514C67.1736 647.252 67.7357 651.794 68.1581 655.207Z" fill="#FF2F85" stroke="#1C0F00" stroke-width="2" stroke-linecap="round" stroke-linejoin="round"/>
<path d="M77.1127 655.128C76.9558 654.108 78.8075 649.119 82.2891 647.363" stroke="#1C0F00" stroke-width="2" stroke-linecap="round" stroke-linejoin="round"/>
<path d="M62.754 657.631C61.8128 656.376 58.899 654.501 54.005 653.372" stroke="#1C0F00" stroke-width="2" stroke-linecap="round" stroke-linejoin="round"/>
<path d="M68.8713 655.043C77.53 653.725 82.2829 658.259 83.4594 660.455C83.93 670.102 69.5772 669.396 65.8125 667.749C62.8008 666.431 60.6361 662.807 59.9302 661.16C61.0282 659.121 63.9772 655.984 68.8713 655.043Z" fill="#FFF3E1" stroke="#1C0F00" stroke-width="2" stroke-linecap="round" stroke-linejoin="round"/>
<path d="M47.9291 681.631C39.3435 673.513 46.4768 662.013 53.065 660.836C58.8778 659.799 61.2521 661.929 62.4504 664.096C67.0045 662.61 72.1939 663.918 73.5354 670.483C76.1318 683.189 56.6383 689.866 47.9291 681.631Z" fill="#FF2F85"/>
<path d="M55.2273 670.892C56.1198 667.773 59.1147 665.185 62.4504 664.096M62.4504 664.096C67.0045 662.61 72.1939 663.918 73.5354 670.483C76.1318 683.189 56.6383 689.866 47.9291 681.631C39.3435 673.513 46.4768 662.013 53.065 660.836C58.8778 659.799 61.2521 661.929 62.4504 664.096Z" stroke="#1C0F00" stroke-width="2" stroke-linecap="round" stroke-linejoin="round"/>
<path d="M94.7725 681.246C107.296 676.827 104.35 659.683 93.7886 657.923C86.8618 656.769 84.005 659.289 82.1215 661.008C77.6588 660.806 73.3808 663.229 72.9204 669.059C72.1837 678.388 82.2488 685.665 94.7725 681.246Z" fill="#FF2F85"/>
<path d="M89.5692 664.036C87.5433 662.195 84.7992 661.129 82.1215 661.008M82.1215 661.008C77.6588 660.806 73.3808 663.229 72.9204 669.059C72.1837 678.388 82.2488 685.665 94.7725 681.246C107.296 676.827 104.35 659.683 93.7886 657.923C86.8618 656.769 84.005 659.289 82.1215 661.008Z" stroke="#1C0F00" stroke-width="2" stroke-linecap="round" stroke-linejoin="round"/>
<path d="M229.344 607.092C221.798 610.924 220.497 616.813 220.812 619.208C222.005 619.635 223.938 620.985 225.811 622.844C227.6 624.621 229.333 626.863 230.311 629.208C230.711 629.608 238.165 628.502 241.842 628.649C243.021 629.128 248.444 626.733 249.623 620.984C251.51 610.685 238.776 602.302 229.344 607.092Z" fill="#FFA41C"/>
<path d="M215.311 604.209C221.95 608.231 221.463 616.096 220.311 619.208L204.811 624.708L199.811 622.708C197.736 622.389 193.388 619.486 194.31 612.208C195.463 603.111 207.011 599.181 215.311 604.209Z" fill="#FFA41C" stroke="#1C0F00" stroke-width="2" stroke-linecap="round" stroke-linejoin="round"/>
<path d="M225.811 622.708C226.758 621.496 229.885 618.799 234.811 617.708M220.812 619.208C220.497 616.813 221.798 610.924 229.344 607.092C238.776 602.302 251.51 610.685 249.623 620.984C248.444 626.733 243.021 629.128 241.842 628.649" stroke="#1C0F00" stroke-width="2" stroke-linecap="round" stroke-linejoin="round"/>
<path d="M211.81 619.208C211.955 618.154 210.81 614.208 206.81 610.708M220.311 619.208C221.463 616.096 221.95 608.231 215.311 604.209C207.011 599.181 195.463 603.111 194.31 612.208C193.388 619.486 197.736 622.389 199.811 622.708" stroke="#1C0F00" stroke-width="2" stroke-linecap="round" stroke-linejoin="round"/>
<path d="M219.306 618.981C210.561 617.585 205.999 621.889 204.811 624.216C206.477 626.547 211.011 631.408 215.811 632.208C221.811 633.208 228.311 629.708 228.811 626.708C227.702 624.548 224.248 619.978 219.306 618.981Z" fill="#FFE900" stroke="#1C0F00" stroke-width="2" stroke-linecap="round" stroke-linejoin="round"/>
<path d="M194.31 645.708C182.067 641.564 184.309 624.387 194.808 622.708C201.413 621.653 204.07 624.439 205.602 626.434C210.348 625.658 215.272 627.754 215.768 633.773C216.488 642.523 206.554 649.853 194.31 645.708Z" fill="#FFA41C"/>
<path d="M199.683 629.168C204.965 624.562 215.048 625.023 215.768 633.773C216.488 642.523 206.554 649.853 194.31 645.708C182.067 641.564 184.309 624.387 194.808 622.708C201.421 621.651 204.077 624.446 205.608 626.441" stroke="#1C0F00" stroke-width="2" stroke-linecap="round" stroke-linejoin="round"/>
<path d="M241.082 644.389C249.192 635.692 242.514 626.054 235.826 624.878C230.577 623.956 227.565 626.124 226.377 628.095C221.985 626.474 216.772 627.671 215.311 634.708C212.675 647.402 232.571 653.516 241.082 644.389Z" fill="#FFA41C"/>
<path d="M232.483 633.576C231.466 631.152 229.076 629.091 226.377 628.095M226.377 628.095C221.985 626.474 216.772 627.671 215.311 634.708C212.675 647.402 232.571 653.516 241.082 644.389C249.192 635.692 242.514 626.054 235.826 624.878C230.577 623.956 227.565 626.124 226.377 628.095Z" stroke="#1C0F00" stroke-width="2" stroke-linecap="round" stroke-linejoin="round"/>
<path d="M255.468 634.697C263.014 638.529 264.314 644.418 263.999 646.813L255.468 656.254H242.969C241.79 656.733 236.367 654.337 235.188 648.589C233.301 638.29 246.035 629.906 255.468 634.697Z" fill="#8BE3FF"/>
<path d="M259 650.313C258.053 649.101 254.926 646.404 250 645.313M263.999 646.813C264.314 644.418 263.014 638.529 255.468 634.697C246.035 629.906 233.301 638.29 235.188 648.589C236.367 654.337 241.79 656.733 242.969 656.254H255.468L263.999 646.813Z" stroke="#1C0F00" stroke-width="2" stroke-linecap="round" stroke-linejoin="round"/>
<path d="M269.321 631.105C262.682 635.127 263.348 643.701 264.501 646.813L280.321 652.605L285.001 650.313C287.075 649.994 291.743 646.883 290.821 639.605C289.668 630.507 277.62 626.077 269.321 631.105Z" fill="#8BE3FF"/>
<path d="M273.001 646.813C272.856 645.759 274.001 641.813 278.001 638.313M264.501 646.813C263.348 643.701 262.682 635.127 269.321 631.105C277.62 626.077 289.668 630.507 290.821 639.605C291.743 646.883 287.075 649.994 285.001 650.313L280.321 652.605L264.501 646.813Z" stroke="#1C0F00" stroke-width="2" stroke-linecap="round" stroke-linejoin="round"/>
<path d="M265.506 646.586C274.25 645.19 278.812 649.494 280.001 651.82C278.334 654.151 273.801 659.013 269.001 659.813C263.001 660.813 256.501 657.313 256.001 654.313C257.11 652.153 260.563 647.583 265.506 646.586Z" fill="#FFE900" stroke="#1C0F00" stroke-width="2" stroke-linecap="round" stroke-linejoin="round"/>
<path d="M290.82 674.105C304.637 668.605 300.502 651.991 290.003 650.313C283.436 649.264 280.887 652.07 279.352 654.063C274.563 653.221 269.544 655.299 269.043 661.378C268.323 670.128 278.811 678.886 290.82 674.105Z" fill="#8BE3FF"/>
<path d="M285.82 657.105C284.208 655.699 281.456 654.433 279.352 654.063M279.352 654.063C280.887 652.07 283.436 649.264 290.003 650.313C300.502 651.991 304.637 668.605 290.82 674.105C278.811 678.886 268.323 670.128 269.043 661.378C269.544 655.299 274.563 653.221 279.352 654.063Z" stroke="#1C0F00" stroke-width="2" stroke-linecap="round" stroke-linejoin="round"/>
<path d="M243.729 671.994C235.619 663.296 242.297 653.658 248.985 652.483C254.234 651.56 257.247 653.729 258.434 655.7C262.826 654.079 268.039 655.276 269.5 662.313C272.136 675.007 252.24 681.121 243.729 671.994Z" fill="#8BE3FF"/>
<path d="M252.329 661.181C253.346 658.757 255.735 656.696 258.434 655.7M258.434 655.7C262.826 654.079 268.039 655.276 269.5 662.313C272.136 675.007 252.24 681.121 243.729 671.994C235.619 663.296 242.297 653.658 248.985 652.483C254.234 651.56 257.247 653.729 258.434 655.7Z" stroke="#1C0F00" stroke-width="2" stroke-linecap="round" stroke-linejoin="round"/>
<path d="M421.156 544.697C413.61 548.529 412.309 554.418 412.624 556.813L421.156 566.254H433.654C434.833 566.733 440.256 564.337 441.435 558.589C443.322 548.29 430.588 539.906 421.156 544.697Z" fill="#FFBAC2"/>
<path d="M417.623 560.313C418.57 559.101 421.697 556.404 426.623 555.313M412.624 556.813C412.309 554.418 413.61 548.529 421.156 544.697C430.588 539.906 443.322 548.29 441.435 558.589C440.256 564.337 434.833 566.733 433.654 566.254H421.156L412.624 556.813Z" stroke="#1C0F00" stroke-width="2" stroke-linecap="round" stroke-linejoin="round"/>
<path d="M407.302 541.105C413.941 545.127 413.275 553.701 412.122 556.813L396.302 562.605L391.622 560.313C389.548 559.994 384.88 556.883 385.802 549.605C386.955 540.507 399.003 536.077 407.302 541.105Z" fill="#FFBAC2"/>
<path d="M403.622 556.813C403.767 555.759 402.622 551.813 398.622 548.313M412.122 556.813C413.275 553.701 413.941 545.127 407.302 541.105C399.003 536.077 386.955 540.507 385.802 549.605C384.88 556.883 389.548 559.994 391.622 560.313L396.302 562.605L412.122 556.813Z" stroke="#1C0F00" stroke-width="2" stroke-linecap="round" stroke-linejoin="round"/>
<path d="M411.117 556.586C402.373 555.19 397.811 559.494 396.622 561.82C398.289 564.151 402.822 569.013 407.622 569.813C413.622 570.813 420.122 567.313 420.622 564.313C419.514 562.153 416.06 557.583 411.117 556.586Z" fill="#FFE900" stroke="#1C0F00" stroke-width="2" stroke-linecap="round" stroke-linejoin="round"/>
<path d="M385.803 584.105C371.986 578.605 376.121 561.991 386.62 560.313C393.187 559.264 395.736 562.07 397.271 564.063C402.06 563.221 407.079 565.299 407.58 571.378C408.3 580.128 397.812 588.886 385.803 584.105Z" fill="#FFBAC2"/>
<path d="M390.803 567.105C392.415 565.699 395.167 564.433 397.271 564.063M397.271 564.063C395.736 562.07 393.187 559.264 386.62 560.313C376.121 561.991 371.986 578.605 385.803 584.105C397.812 588.886 408.3 580.128 407.58 571.378C407.079 565.299 402.06 563.221 397.271 564.063Z" stroke="#1C0F00" stroke-width="2" stroke-linecap="round" stroke-linejoin="round"/>
<path d="M432.894 581.994C441.004 573.296 434.326 563.658 427.638 562.483C422.389 561.56 419.376 563.729 418.189 565.7C413.797 564.079 408.584 565.276 407.123 572.313C404.487 585.007 424.383 591.121 432.894 581.994Z" fill="#FFBAC2"/>
<path d="M424.294 571.181C423.277 568.757 420.888 566.696 418.189 565.7M418.189 565.7C413.797 564.079 408.584 565.276 407.123 572.313C404.487 585.007 424.383 591.121 432.894 581.994C441.004 573.296 434.326 563.658 427.638 562.483C422.389 561.56 419.376 563.729 418.189 565.7Z" stroke="#1C0F00" stroke-width="2" stroke-linecap="round" stroke-linejoin="round"/>
<path d="M1209.47 639.697C1217.01 643.529 1218.31 649.418 1218 651.813L1209.47 661.254H1196.97C1195.79 661.733 1190.37 659.337 1189.19 653.589C1187.3 643.29 1200.04 634.906 1209.47 639.697Z" fill="#FFBAC2"/>
<path d="M1213 655.313C1212.05 654.101 1208.93 651.404 1204 650.313M1218 651.813C1218.31 649.418 1217.01 643.529 1209.47 639.697C1200.04 634.906 1187.3 643.29 1189.19 653.589C1190.37 659.337 1195.79 661.733 1196.97 661.254H1209.47L1218 651.813Z" stroke="#1C0F00" stroke-width="2" stroke-linecap="round" stroke-linejoin="round"/>
<path d="M1223.32 636.105C1216.68 640.127 1217.35 648.701 1218.5 651.813L1234.32 657.605L1239 655.313C1241.08 654.994 1245.74 651.883 1244.82 644.605C1243.67 635.507 1231.62 631.077 1223.32 636.105Z" fill="#FFBAC2"/>
<path d="M1227 651.813C1226.86 650.759 1228 646.813 1232 643.313M1218.5 651.813C1217.35 648.701 1216.68 640.127 1223.32 636.105C1231.62 631.077 1243.67 635.507 1244.82 644.605C1245.74 651.883 1241.08 654.994 1239 655.313L1234.32 657.605L1218.5 651.813Z" stroke="#1C0F00" stroke-width="2" stroke-linecap="round" stroke-linejoin="round"/>
<path d="M1219.51 651.586C1228.25 650.19 1232.81 654.494 1234 656.82C1232.33 659.151 1227.8 664.013 1223 664.813C1217 665.813 1210.5 662.313 1210 659.313C1211.11 657.153 1214.56 652.583 1219.51 651.586Z" fill="#FFE900" stroke="#1C0F00" stroke-width="2" stroke-linecap="round" stroke-linejoin="round"/>
<path d="M1244.82 679.105C1258.64 673.605 1254.5 656.991 1244 655.313C1237.44 654.264 1234.89 657.07 1233.35 659.063C1228.56 658.221 1223.54 660.299 1223.04 666.378C1222.32 675.128 1232.81 683.886 1244.82 679.105Z" fill="#FFBAC2"/>
<path d="M1239.82 662.105C1238.21 660.699 1235.46 659.433 1233.35 659.063M1233.35 659.063C1234.89 657.07 1237.44 654.264 1244 655.313C1254.5 656.991 1258.64 673.605 1244.82 679.105C1232.81 683.886 1222.32 675.128 1223.04 666.378C1223.54 660.299 1228.56 658.221 1233.35 659.063Z" stroke="#1C0F00" stroke-width="2" stroke-linecap="round" stroke-linejoin="round"/>
<path d="M1197.73 676.994C1189.62 668.296 1196.3 658.658 1202.98 657.483C1208.23 656.56 1211.25 658.729 1212.43 660.7C1216.83 659.079 1222.04 660.276 1223.5 667.313C1226.14 680.007 1206.24 686.121 1197.73 676.994Z" fill="#FFBAC2"/>
<path d="M1206.33 666.181C1207.35 663.757 1209.73 661.696 1212.43 660.7M1212.43 660.7C1216.83 659.079 1222.04 660.276 1223.5 667.313C1226.14 680.007 1206.24 686.121 1197.73 676.994C1189.62 668.296 1196.3 658.658 1202.98 657.483C1208.23 656.56 1211.25 658.729 1212.43 660.7Z" stroke="#1C0F00" stroke-width="2" stroke-linecap="round" stroke-linejoin="round"/>
<path d="M1025.34 585.092C1017.8 588.924 1016.5 594.813 1016.81 597.208C1018 597.635 1019.94 598.985 1021.81 600.844C1023.6 602.621 1025.33 604.863 1026.31 607.208C1026.71 607.608 1034.16 606.502 1037.84 606.649C1039.02 607.128 1044.44 604.733 1045.62 598.984C1047.51 588.685 1034.78 580.302 1025.34 585.092Z" fill="#8BE3FF"/>
<path d="M1011.31 582.209C1017.95 586.231 1017.46 594.096 1016.31 597.208L1000.81 602.708L995.811 600.708C993.736 600.389 989.388 597.486 990.31 590.208C991.463 581.111 1003.01 577.181 1011.31 582.209Z" fill="#8BE3FF" stroke="#1C0F00" stroke-width="2" stroke-linecap="round" stroke-linejoin="round"/>
<path d="M1021.81 600.708C1022.76 599.496 1025.07 595.591 1030 594.5M1016.81 597.208C1016.5 594.813 1017.8 588.924 1025.34 585.092C1034.78 580.302 1046.89 588.2 1045 598.5C1043.82 604.248 1039.02 607.128 1037.84 606.649" stroke="#1C0F00" stroke-width="2" stroke-linecap="round" stroke-linejoin="round"/>
<path d="M1007.81 597.208C1007.95 596.154 1006.81 592.208 1002.81 588.708M1016.31 597.208C1017.46 594.096 1017.95 586.231 1011.31 582.209C1003.01 577.181 991.463 581.111 990.31 590.208C989.388 597.486 993.736 600.389 995.811 600.708" stroke="#1C0F00" stroke-width="2" stroke-linecap="round" stroke-linejoin="round"/>
<path d="M1015.31 596.981C1006.56 595.585 1002 599.889 1000.81 602.216C1002.48 604.547 1007.01 609.408 1011.81 610.208C1017.81 611.208 1024.31 607.708 1024.81 604.708C1023.7 602.548 1020.25 597.978 1015.31 596.981Z" fill="#FFE900" stroke="#1C0F00" stroke-width="2" stroke-linecap="round" stroke-linejoin="round"/>
<path d="M990.31 623.708C978.067 619.564 980.309 602.387 990.808 600.708C997.413 599.653 1000.07 602.439 1001.6 604.434C1006.35 603.658 1011.27 605.754 1011.77 611.773C1012.49 620.523 1002.55 627.853 990.31 623.708Z" fill="#8BE3FF"/>
<path d="M995.683 607.168C1000.96 602.562 1011.05 603.023 1011.77 611.773C1012.49 620.523 1002.55 627.853 990.31 623.708C978.067 619.564 980.309 602.387 990.808 600.708C997.421 599.651 1000.08 602.446 1001.61 604.441" stroke="#1C0F00" stroke-width="2" stroke-linecap="round" stroke-linejoin="round"/>
<path d="M1037.08 622.389C1045.19 613.692 1038.51 604.054 1031.83 602.878C1026.58 601.956 1023.56 604.124 1022.38 606.095C1017.99 604.474 1012.77 605.671 1011.31 612.708C1008.68 625.402 1028.57 631.516 1037.08 622.389Z" fill="#8BE3FF"/>
<path d="M1028.48 611.576C1027.47 609.152 1025.08 607.091 1022.38 606.095M1022.38 606.095C1017.99 604.474 1012.77 605.671 1011.31 612.708C1008.68 625.402 1028.57 631.516 1037.08 622.389C1045.19 613.692 1038.51 604.054 1031.83 602.878C1026.58 601.956 1023.56 604.124 1022.38 606.095Z" stroke="#1C0F00" stroke-width="2" stroke-linecap="round" stroke-linejoin="round"/>
<path d="M1065.58 610.455C1058.8 614.408 1059.18 622.196 1060.36 625.254C1063.2 629.24 1072.47 635.755 1081.5 629.099C1083.62 628.786 1087.94 624.752 1087 617.599C1085.75 608.1 1074.05 605.514 1065.58 610.455Z" fill="#FF2F85" stroke="#1C0F00" stroke-width="2" stroke-linecap="round" stroke-linejoin="round"/>
<path d="M1060.16 625.207L1060.17 625.278L1054.99 633.043L1039.93 633.749C1038.76 634.219 1032.43 633.834 1031.18 627.137C1029.3 617.019 1042.28 608.808 1051.7 613.514C1059.17 617.252 1059.74 621.794 1060.16 625.207Z" fill="#FF2F85" stroke="#1C0F00" stroke-width="2" stroke-linecap="round" stroke-linejoin="round"/>
<path d="M1069.11 625.128C1068.96 624.108 1070.81 619.119 1074.29 617.363" stroke="#1C0F00" stroke-width="2" stroke-linecap="round" stroke-linejoin="round"/>
<path d="M1054.75 627.631C1053.81 626.376 1050.9 624.501 1046.01 623.372" stroke="#1C0F00" stroke-width="2" stroke-linecap="round" stroke-linejoin="round"/>
<path d="M1060.87 625.043C1069.53 623.725 1074.28 628.259 1075.46 630.455C1075.93 640.102 1061.58 639.396 1057.81 637.749C1054.8 636.431 1052.64 632.807 1051.93 631.16C1053.03 629.121 1055.98 625.984 1060.87 625.043Z" fill="#FFF3E1" stroke="#1C0F00" stroke-width="2" stroke-linecap="round" stroke-linejoin="round"/>
<path d="M1039.93 651.631C1031.34 643.513 1038.48 632.013 1045.06 630.836C1050.88 629.799 1053.25 631.929 1054.45 634.096C1059 632.61 1064.19 633.918 1065.54 640.483C1068.13 653.189 1048.64 659.866 1039.93 651.631Z" fill="#FF2F85"/>
<path d="M1047.23 640.892C1048.12 637.773 1051.11 635.185 1054.45 634.096M1054.45 634.096C1059 632.61 1064.19 633.918 1065.54 640.483C1068.13 653.189 1048.64 659.866 1039.93 651.631C1031.34 643.513 1038.48 632.013 1045.06 630.836C1050.88 629.799 1053.25 631.929 1054.45 634.096Z" stroke="#1C0F00" stroke-width="2" stroke-linecap="round" stroke-linejoin="round"/>
<path d="M1086.77 651.246C1099.3 646.827 1096.35 629.683 1085.79 627.923C1078.86 626.769 1076 629.289 1074.12 631.008C1069.66 630.806 1065.38 633.229 1064.92 639.059C1064.18 648.388 1074.25 655.665 1086.77 651.246Z" fill="#FF2F85"/>
<path d="M1081.57 634.036C1079.54 632.195 1076.8 631.129 1074.12 631.008M1074.12 631.008C1069.66 630.806 1065.38 633.229 1064.92 639.059C1064.18 648.388 1074.25 655.665 1086.77 651.246C1099.3 646.827 1096.35 629.683 1085.79 627.923C1078.86 626.769 1076 629.289 1074.12 631.008Z" stroke="#1C0F00" stroke-width="2" stroke-linecap="round" stroke-linejoin="round"/>
</svg>
