<svg width="690" height="429" viewBox="0 0 690 429" fill="none" xmlns="http://www.w3.org/2000/svg">
<path d="M509.294 108.8C440.1 86.6939 436.528 21.563 472.798 7.41234C491.162 0.247734 504.534 7.66818 511.653 13.6657C529.075 -12.186 583.472 1.96396 570.049 52.1992C562.25 81.3887 543.321 97.6939 529.075 105.11C520.315 109.669 515.635 110.826 509.294 108.8Z" fill="#FF2F85"/>
<path d="M519.184 28.1419C518.478 21.7741 514.833 16.3448 511.653 13.6657M511.653 13.6657C504.534 7.66818 491.162 0.247734 472.798 7.41234C436.528 21.563 440.1 86.6939 509.294 108.8C515.635 110.826 520.315 109.669 529.075 105.11C543.321 97.6939 562.25 81.3887 570.049 52.1992C583.472 1.96396 529.075 -12.186 511.653 13.6657Z" stroke="#1C0F00" stroke-linecap="round" stroke-linejoin="round"/>
<path d="M511.208 120.034C513.738 117.264 513.672 111.515 513.672 108.943C515.424 105.381 521.263 105.777 523.015 107.558C524.572 114.84 527.687 117.027 528.92 117.95C521.134 115.734 513.868 118.583 511.208 120.034Z" fill="#FF2F85" stroke="#1C0F00" stroke-linecap="round" stroke-linejoin="round"/>
<path d="M592.784 137.485C584.709 169.523 556.058 191.662 509.173 187.755" stroke="#1C0F00" stroke-linecap="round" stroke-linejoin="round"/>
<path d="M509.173 187.755C521.329 180.636 537.148 161.188 519.853 117.429" stroke="#1C0F00" stroke-linecap="round" stroke-linejoin="round"/>
<path d="M618.277 33.7282C623.942 29.6318 631.974 31.988 634.332 38.569C637.063 46.1896 638.798 52.6972 640.293 60.8717C640.886 64.1176 642.831 66.9708 645.665 68.6604C653.156 73.1262 658.855 76.8448 665.1 81.4712C670.652 85.584 670.74 93.835 665.276 98.0633C658.276 103.479 652.689 107.081 645.911 110.747C642.92 112.365 640.779 115.208 640.069 118.534C638.366 126.507 636.533 132.888 634.04 140.181C631.738 146.915 623.586 149.528 617.777 145.416C611.65 141.079 606.422 137.027 600.245 131.508C597.674 129.211 594.207 128.192 590.792 128.659C582.164 129.837 575.417 129.899 567.744 129.598C560.841 129.328 555.894 122.686 557.745 116.031C559.861 108.423 562.101 102.092 565.764 94.7323C567.385 91.4743 567.461 87.648 565.893 84.3636C562.194 76.6115 559.787 70.2512 557.61 62.5639C555.78 56.1038 560.509 49.6629 567.22 49.4594C575.252 49.2159 582.212 49.5701 591.236 50.7056C594.425 51.1068 597.645 50.1571 600.085 48.0663C606.339 42.7086 611.635 38.5315 618.277 33.7282Z" fill="#FFA41C" stroke="#1C0F00" stroke-linecap="round" stroke-linejoin="round"/>
<path d="M583.406 136.043C586.886 134.641 590.107 130.027 591.22 127.708C594.867 125.364 599.815 128.109 600.076 130.974C598.328 138.212 600.084 140.928 600.796 142.294C594.736 136.927 586.432 135.887 583.406 136.043Z" fill="#FFA41C" stroke="#1C0F00" stroke-linecap="round" stroke-linejoin="round"/>
<path d="M4.25926 377.116C-20.1257 345.779 98.707 343.285 148.327 316.385C195.134 291.01 219.589 277.048 256.669 272.71C293.748 268.371 349.655 281.966 380.362 295.271C411.068 308.576 418.889 296.138 458.866 295.271C498.842 294.403 506.373 302.791 526.941 316.385C547.508 329.98 644.262 323.038 677.576 350.227C710.889 377.416 643.683 393.613 622.536 397.663C601.389 401.712 586.905 399.687 533.603 418.199C480.302 436.711 493.338 393.324 447.278 415.017C401.219 436.711 365.588 415.596 312.576 421.091C259.564 426.587 224.354 438.065 176.715 408.943C142.9 388.272 35.545 417.321 4.25926 377.116Z" fill="#00B261" stroke="#1C0F00" stroke-linecap="round" stroke-linejoin="round"/>
<path d="M470.363 288.296C476.093 291.161 475.312 297.673 474.27 300.017L491.721 303.403C485.991 293.245 488.856 285.952 492.503 281.784C483.907 285.431 481.737 290.814 481.042 293.505C477.916 289.338 473.054 288.209 470.363 288.296Z" fill="#00B261"/>
<path d="M473.749 300.798C474.791 298.454 476.093 291.161 470.363 288.296C473.054 288.209 477.916 289.338 481.042 293.505C481.737 290.814 483.907 285.431 492.503 281.784C488.856 285.952 485.991 293.245 491.721 303.403" stroke="#1C0F00" stroke-linecap="round" stroke-linejoin="round"/>
<path d="M340.65 327.106C328.929 331.794 324.935 341.432 323.459 344.557C327.366 345.599 338.671 347.526 352.632 346.901C343.515 344.557 344.818 334.399 348.725 332.315C340.182 332.315 335.962 336.917 335.181 339.348C334.764 334.555 338.827 328.148 340.65 327.106Z" fill="#00B261"/>
<path d="M323.459 344.557C324.935 341.432 328.929 331.794 340.65 327.106C338.827 328.148 334.764 334.555 335.181 339.348C335.962 336.917 340.182 332.315 348.725 332.315C344.818 334.399 343.515 344.557 352.632 346.901" stroke="#1C0F00" stroke-linecap="round" stroke-linejoin="round"/>
<path d="M589.137 325.804C588.72 321.011 592.753 314.083 595.128 313.041C588.47 315.704 584.21 319.443 581.583 323.199C581.899 321.897 580.542 316.427 574.811 314.864C577.156 318.771 578.197 323.147 570.904 332.315C578.197 333.704 595.649 335.753 607.109 332.836C597.993 330.492 599.295 320.334 603.202 318.25C594.659 318.25 589.918 323.373 589.137 325.804Z" fill="#00B261"/>
<path d="M607.109 332.836C597.993 330.492 599.295 320.334 603.202 318.25C594.659 318.25 589.658 323.72 588.877 327.366C588.616 319.292 593.305 314.083 595.128 313.041C588.47 315.704 584.21 319.443 581.583 323.199C581.899 321.897 580.281 315.906 574.551 314.864C577.416 317.469 577.937 325.804 570.904 332.315" stroke="#1C0F00" stroke-linecap="round" stroke-linejoin="round"/>
<path d="M72.1095 341.431C72.5263 336.639 68.4938 329.71 66.1188 328.668C72.7766 331.331 77.0369 335.07 79.6631 338.827C79.3477 337.524 80.705 332.054 86.4353 330.492C84.0911 334.399 83.0492 338.775 90.3423 347.943C83.0492 349.332 65.5978 351.381 54.1373 348.464C63.2536 346.12 61.9513 335.961 58.0443 333.878C66.5876 333.878 71.3281 339 72.1095 341.431Z" fill="#00B261"/>
<path d="M54.1373 348.464C63.2536 346.12 61.9513 335.961 58.0443 333.878C66.5876 333.878 71.5886 339.348 72.37 342.994C72.6305 334.92 67.9421 329.71 66.1188 328.668C72.7766 331.331 77.0369 335.07 79.6631 338.827C79.3477 337.524 80.9654 331.534 86.6957 330.492C83.8306 333.096 83.3097 341.431 90.3423 347.943" stroke="#1C0F00" stroke-linecap="round" stroke-linejoin="round"/>
<path d="M347.237 273.97C352.299 282.264 348.081 289.234 345.339 291.682C349.923 294.599 353.717 291.314 355.041 289.306C356.391 281.357 350.401 275.77 347.237 273.97Z" fill="#00B261"/>
<path d="M345.339 291.682C348.081 289.234 352.299 282.264 347.237 273.97C350.401 275.77 356.391 281.357 355.041 289.306" stroke="#1C0F00" stroke-linecap="round" stroke-linejoin="round"/>
<path d="M152.776 305.226C147.714 313.521 151.933 320.49 154.675 322.938C150.09 325.855 146.296 322.57 144.972 320.562C143.622 312.614 149.612 307.026 152.776 305.226Z" fill="#00B261"/>
<path d="M154.675 322.938C151.933 320.49 147.714 313.521 152.776 305.226C149.612 307.026 143.622 312.614 144.972 320.562" stroke="#1C0F00" stroke-linecap="round" stroke-linejoin="round"/>
<path d="M655.632 329.189C660.694 337.483 656.476 344.453 653.734 346.901C658.318 349.818 662.112 346.532 663.436 344.525C664.786 336.576 658.796 330.989 655.632 329.189Z" fill="#00B261"/>
<path d="M653.734 346.901C656.476 344.453 660.694 337.483 655.632 329.189C658.796 330.989 664.786 336.576 663.436 344.525" stroke="#1C0F00" stroke-linecap="round" stroke-linejoin="round"/>
<path d="M229.691 266.156C241.412 270.845 245.406 280.482 246.882 283.607C242.975 284.649 231.671 286.577 217.71 285.952C226.826 283.607 225.524 273.449 221.617 271.365C230.16 271.365 234.38 275.967 235.161 278.398C235.578 273.606 231.515 267.198 229.691 266.156Z" fill="#00B261"/>
<path d="M246.882 283.607C245.406 280.482 241.412 270.845 229.691 266.156C231.515 267.198 235.578 273.606 235.161 278.398C234.38 275.967 230.16 271.365 221.617 271.365C225.524 273.449 226.826 283.607 217.71 285.952" stroke="#1C0F00" stroke-linecap="round" stroke-linejoin="round"/>
<path d="M518.206 346.746C518.33 346.756 518.453 346.761 518.576 346.763L518.206 346.746C512.228 346.267 504.965 335.938 511.703 326.584C506.51 327.953 501.177 335.089 502.104 340.482C501.671 337.965 500.054 332.299 491.595 331.1C495.171 333.712 494.999 344.21 485.643 345.252L518.206 346.746Z" fill="#00B261"/>
<path d="M517.248 343.515C510.736 343.515 504.745 334.399 511.703 326.585C506.511 327.953 502.516 334.215 503.443 339.608C503.01 337.092 500.054 332.299 491.596 331.1C493.734 332.719 495.255 342.405 487.41 343.924" stroke="#1C0F00" stroke-linecap="round" stroke-linejoin="round"/>
<ellipse cx="260.389" cy="326.585" rx="63.0332" ry="9.89778" fill="#1C0F00"/>
<ellipse cx="399.515" cy="316.687" rx="63.0332" ry="9.89778" fill="#1C0F00"/>
<path d="M332.315 257.821C307.976 244.524 310.436 212.499 322.157 196.35L343.516 191.402C331.708 205.814 321.545 233.439 340.911 243.235C358.629 252.197 382.8 234.114 392.483 217.889C390.399 215.625 388.753 210.822 390.139 204.946C393.354 191.321 416.707 187.234 425.042 205.514C425.042 205.514 477.403 314.082 454.292 314.082H389.618C365.395 314.082 352.85 283.176 372.427 268.5C375.182 266.293 378.266 264.705 381.563 263.655C382.647 258.575 385.935 252.083 391.119 246.969C373.424 264.039 349.709 267.323 332.315 257.821Z" fill="#EEB36F"/>
<path d="M392.483 217.889C390.4 215.625 388.753 210.822 390.139 204.946C393.354 191.321 416.707 187.234 425.042 205.514C425.042 205.514 477.403 314.082 454.292 314.082H389.618C365.395 314.082 352.85 283.176 372.427 268.5C375.182 266.293 378.266 264.705 381.563 263.655M392.483 217.889C382.8 234.114 358.629 252.197 340.911 243.235C321.545 233.439 331.708 205.814 343.516 191.402L322.157 196.35C310.436 212.499 307.976 244.524 332.315 257.821C349.827 267.387 373.744 263.994 391.477 246.621M392.483 217.889C394.423 214.638 395.782 211.462 396.391 208.593M438.326 283.607C427.429 269.739 400.846 257.513 381.563 263.655M381.563 263.655C382.672 258.459 386.086 251.785 391.477 246.621M391.477 246.621C397.28 240.936 402.043 234.407 405.767 226.044" stroke="#1C0F00" stroke-linecap="round" stroke-linejoin="round"/>
<path d="M306.433 331.335C322.208 323.447 321.33 307.603 319.17 299.715L378.677 197.913C366.968 186.904 359.525 196.707 357.268 202.984L315.644 258.863C316.686 239.849 311.216 217.491 296.891 209.635C264.332 191.78 238.806 213.542 232.815 230.212C246.881 231.254 267.881 236.805 284.931 266.177C294.49 282.642 305.496 317.165 306.433 331.335Z" fill="#EEB36F"/>
<path d="M462.836 157.319C455.606 153.75 438.328 153.657 429.313 166.333C423.357 174.709 424.525 182.954 426.215 186.898C427.943 190.932 431.732 193.285 434.136 194.528C429.493 199.717 427.154 207.917 430.722 216.759C436.975 232.253 457.484 228.872 463.963 222.675C465.371 226.055 472.809 232.14 482.274 228.309C487.884 226.038 490.707 221.678 491.525 216.759C498.049 217.041 509.994 211.35 509.318 191.969C508.473 167.742 491.523 158.727 482.509 158.727C483.078 141.87 482.878 111.33 482.274 104.076C481.429 93.9347 475.795 82.0961 463.681 78.1593C454.667 75.2296 443.723 76.9871 437.808 78.9591C433.69 83.9474 428.997 94.7983 443.16 98.2958C447.667 94.9154 457.934 94.78 460.864 102.668C463.794 110.556 463.4 142.388 462.836 157.319Z" fill="#EEB36F"/>
<path d="M434.136 194.528C431.732 193.285 427.943 190.932 426.215 186.898C424.525 182.954 423.357 174.709 429.313 166.333C438.328 153.657 455.606 153.75 462.836 157.319C463.4 142.388 463.794 110.556 460.864 102.668C457.934 94.78 447.667 94.9154 443.16 98.2958C428.997 94.7983 433.69 83.9474 437.808 78.9591C443.723 76.9871 454.667 75.2296 463.681 78.1593C475.795 82.0961 481.429 93.9347 482.274 104.076C482.878 111.33 483.078 141.87 482.509 158.727M434.136 194.528C429.493 199.717 427.154 207.917 430.722 216.759C436.975 232.253 457.484 228.872 463.963 222.675M434.136 194.528C437.629 190.625 442.426 188.425 446.993 188.938M468.752 203.237C469.503 207.838 469.177 217.687 463.963 222.675M463.963 222.675C465.371 226.055 472.809 232.14 482.274 228.309C487.884 226.038 490.707 221.678 491.525 216.759M446.993 188.938C445.506 181.868 441.581 178.834 439.173 178.165M446.993 188.938C447.593 191.79 447.796 195.299 447.342 199.575M491.525 216.759C498.049 217.041 509.994 211.35 509.318 191.969C508.473 167.742 491.523 158.727 482.509 158.727M491.525 216.759C492.431 211.303 490.871 205.16 487.908 200.42M482.509 158.727C482.442 160.724 482.363 162.528 482.274 164.08" stroke="#1C0F00" stroke-linecap="round" stroke-linejoin="round"/>
<path d="M251.831 278.398C234.1 252.286 233.077 239.1 233.077 230.733C246.088 230.733 267.79 236.587 284.841 265.958C294.399 282.424 305.406 316.947 306.342 331.116C290.848 323.51 267.325 301.216 251.831 278.398Z" fill="#1C0F00"/>
<path d="M314.984 307.087L379.46 196.638C367.751 185.628 360.308 195.431 358.05 201.708L315.906 258.361M319.209 299.763C321.369 307.651 322.118 323.229 306.342 331.116M306.342 331.116C290.848 323.51 267.325 301.216 251.831 278.398C234.1 252.286 233.077 239.1 233.077 230.733M306.342 331.116C305.406 316.947 294.399 282.424 284.841 265.958C267.79 236.587 246.088 230.733 233.077 230.733M313.822 272.407C317.539 252.742 316.273 222.86 298.455 210.677C267.98 189.839 236.463 214.063 233.077 230.733" stroke="#1C0F00" stroke-linecap="round" stroke-linejoin="round"/>
<path d="M225.147 157.319C232.377 153.75 249.655 153.657 258.67 166.333C264.626 174.709 263.459 182.954 261.769 186.898C260.04 190.932 256.251 193.285 253.847 194.529C258.49 199.717 260.829 207.917 257.261 216.759C251.009 232.253 230.5 228.872 224.02 222.675C222.612 226.055 215.175 232.14 205.709 228.309C200.1 226.038 197.276 221.678 196.459 216.759C189.934 217.041 177.99 211.35 178.666 191.969C179.511 167.742 196.46 158.727 205.475 158.727C204.906 141.87 205.105 111.33 205.71 104.076C206.555 93.9347 212.189 82.0962 224.302 78.1593C233.317 75.2296 245.12 75.7593 253.008 79.4215C257.065 98.3521 248.877 99.7043 244.275 98.0141C239.768 94.6337 230.049 94.78 227.119 102.668C224.189 110.556 224.584 142.388 225.147 157.319Z" fill="#EEB36F"/>
<path d="M253.847 194.529C256.251 193.285 260.04 190.932 261.769 186.898C263.459 182.954 264.626 174.709 258.67 166.333C249.655 153.657 232.377 153.75 225.147 157.319C224.584 142.388 224.189 110.556 227.119 102.668C230.049 94.78 239.768 94.6337 244.275 98.0141M253.847 194.529C258.49 199.717 260.829 207.917 257.261 216.759C251.009 232.253 230.5 228.872 224.02 222.675M253.847 194.529C250.354 190.625 245.557 188.425 240.99 188.938M219.231 203.237C218.48 207.838 218.806 217.687 224.02 222.675M224.02 222.675C222.612 226.055 215.175 232.14 205.709 228.309C200.1 226.038 197.276 221.678 196.459 216.759M240.99 188.938C242.477 181.868 246.402 178.834 248.811 178.165M240.99 188.938C240.391 191.79 240.188 195.299 240.641 199.575M253.008 79.4215C245.12 75.7593 233.317 75.2296 224.302 78.1593C212.189 82.0962 206.555 93.9347 205.71 104.076C205.105 111.33 204.906 141.87 205.475 158.727M196.459 216.759C189.934 217.041 177.99 211.35 178.666 191.969C179.511 167.742 196.46 158.727 205.475 158.727M196.459 216.759C195.552 211.303 197.113 205.16 200.075 200.42M205.475 158.727C205.542 160.724 205.62 162.528 205.71 164.08" stroke="#1C0F00" stroke-linecap="round" stroke-linejoin="round"/>
<path d="M309.509 26.214C305.317 24.5546 293.998 23.6462 285.405 30.144C279.432 34.9005 276.722 40.4256 275.675 45.3407C268.875 46.7381 253.964 56.0829 258.436 76.3037C254.152 78.3275 249.294 82.1671 246.627 88.834C242.435 99.3143 246.278 108.921 248.723 112.415C240.968 132.746 250.859 143.768 256.775 146.738C256.931 151.919 258.321 157.603 262.086 162.72C266.666 168.944 272.336 171.511 277.283 172.273C279.169 187.365 294.051 191.017 301.288 189.707C304.408 193.688 309.003 197.343 315.012 198.877C329.991 202.702 338.068 198.179 340.164 195.733C341.475 197.742 346.191 201.864 354.575 202.283C364.636 202.703 369.723 198.091 371.008 195.733C376.769 198.319 384.422 199.543 392.042 195.733C398.388 192.56 401.954 188.031 403.919 183.659C422.574 181.144 425.928 166.44 425.317 159.391C429.964 157.588 435.076 154.2 437.893 148.31C442.505 138.668 439.815 128.222 437.893 124.205C440.251 121.847 444.601 115.978 444.181 105.078C443.762 94.1789 439.029 90.0328 436.321 88.1431C437.726 83.8753 438.642 78.4645 437.369 73.3755C435.273 64.9913 427.909 61.1485 424.489 60.2751C424.061 55.748 422.504 50.5753 418.505 44.8167C413.265 37.2708 403.046 34.1617 398.592 33.5503C393.562 20.9739 381.125 20.6974 375.536 22.1312C372.727 19.1866 368.439 16.2289 362.173 14.4235C353.569 11.9443 346.284 14.8815 341.588 18.3539C338.881 16.3451 332.199 12.7467 323.395 14.4236C314.592 16.1004 310.295 23.0699 309.509 26.214Z" fill="#EEB36F"/>
<path d="M275.71 56.0829C275.133 53.6493 274.738 49.7393 275.675 45.3407M341.588 18.3539C338.881 16.3451 332.199 12.7467 323.395 14.4236C314.592 16.1004 310.295 23.0699 309.509 26.214C305.317 24.5546 293.998 23.6462 285.405 30.144C279.432 34.9005 276.722 40.4256 275.675 45.3407M341.588 18.3539C346.284 14.8815 353.569 11.9443 362.173 14.4235C368.439 16.2289 372.727 19.1866 375.536 22.1312M341.588 18.3539C339.535 19.8722 337.977 21.493 337.02 22.8078M379.99 29.62C379.602 27.8535 378.27 24.9985 375.536 22.1312M375.536 22.1312C381.125 20.6974 393.562 20.9739 398.592 33.5503C403.046 34.1617 413.265 37.2708 418.505 44.8167C422.504 50.5753 424.061 55.748 424.489 60.2751M424.269 68.1354C424.575 65.7883 424.762 63.1631 424.489 60.2751M424.489 60.2751C427.909 61.1485 435.273 64.9913 437.369 73.3755C438.642 78.4645 437.726 83.8753 436.321 88.1431M433.439 94.5981C434.297 93.1908 435.412 90.9066 436.321 88.1431M436.321 88.1431C439.029 90.0328 443.762 94.1789 444.181 105.078C444.601 115.978 440.251 121.847 437.893 124.205C439.815 128.222 442.505 138.668 437.893 148.31C435.076 154.2 429.964 157.588 425.317 159.391M417.719 161.148C419.588 161.046 422.358 160.54 425.317 159.391M425.317 159.391C425.928 166.44 422.574 181.144 403.919 183.659M403.919 183.659C401.954 188.031 398.388 192.56 392.042 195.733C384.422 199.543 376.769 198.319 371.008 195.733M403.919 183.659C405.848 179.368 406.234 175.229 406.19 172.676M362.697 189.969C364.315 191.793 367.262 194.051 371.008 195.733M371.008 195.733C369.723 198.091 364.636 202.703 354.575 202.283C346.191 201.864 341.475 197.742 340.164 195.733C338.068 198.179 329.991 202.702 315.012 198.877C309.003 197.343 304.408 193.687 301.288 189.707M296.409 178.179C296.364 180.996 298.014 185.53 301.288 189.707M301.288 189.707C294.051 191.017 279.169 187.365 277.283 172.273M277.283 172.273C272.336 171.511 266.666 168.944 262.086 162.72C258.321 157.603 256.931 151.919 256.775 146.738M277.283 172.273C281.165 172.872 284.602 172.358 286.714 171.628M259.466 132.327C258.1 135.295 256.592 140.671 256.775 146.738M275.675 45.3407C268.875 46.7381 253.964 56.0829 258.436 76.3037M258.436 76.3037C254.152 78.3275 249.294 82.1671 246.627 88.834C242.435 99.3143 246.278 108.921 248.723 112.415C240.968 132.746 250.859 143.768 256.775 146.738M258.436 76.3037C260.886 75.146 263.149 74.5824 264.706 74.4235" stroke="#1C0F00" stroke-linecap="round" stroke-linejoin="round"/>
<path d="M398.856 133.454C399.19 138.589 392.928 148.103 383.579 145.799M376.867 142.288C379.233 144.173 381.483 145.283 383.579 145.799M383.579 145.799C382.304 148.174 378.406 152.014 373.015 148.381" stroke="#1C0F00" stroke-linecap="round" stroke-linejoin="round"/>
<path d="M281.331 141.272C284.951 141.916 290.211 147.839 285.301 154.436" stroke="#1C0F00" stroke-linecap="round" stroke-linejoin="round"/>
<path d="M429.116 111.249C426.098 113.349 419.071 113.797 417.889 105.66" stroke="#1C0F00" stroke-linecap="round" stroke-linejoin="round"/>
<path d="M388.355 85.5382C386.67 81.5963 389.079 73.9911 396.274 72.0273M402.872 71.8036C400.341 71.3874 398.146 71.5166 396.274 72.0273M396.274 72.0273C394.955 69.8628 393.174 64.6001 396.61 60.8659" stroke="#1C0F00" stroke-linecap="round" stroke-linejoin="round"/>
<path d="M325.47 99.4225C325.47 110.183 317.03 118.36 306.251 118.36C295.471 118.36 286.75 109.902 286.75 99.1408C286.75 88.3517 294.936 79.6396 305.687 79.6396C317.23 79.6396 325.47 88.6395 325.47 99.4225Z" fill="#FFF3E1" stroke="#1C0F00"/>
<circle cx="309.913" cy="103" r="15.2121" fill="#1C0F00"/>
<path d="M283.433 102.24C278.25 101.113 273.01 104.775 272.447 107.592L280.898 122.522C282.588 123.367 290.194 121.396 291.321 115.761C292.448 110.127 289.913 103.648 283.433 102.24Z" fill="#EEB36F"/>
<path d="M271.602 109.456C271.907 105.579 276.565 101.493 282.294 102.001C289.015 102.597 293.292 110.052 291.459 116.015C289.668 121.84 283.21 123.47 281.377 122.575" stroke="#1C0F00" stroke-linecap="round" stroke-linejoin="round"/>
<path d="M312.448 151.256C316.298 153.322 325.97 155.651 333.858 148.439" stroke="#1C0F00" stroke-linecap="round" stroke-linejoin="round"/>
<path d="M354.487 99.4225C354.487 110.193 345.756 118.924 334.986 118.924C324.216 118.924 315.203 109.911 315.203 99.1408C315.203 88.3706 323.934 79.6396 334.704 79.6396C346.247 79.6396 354.487 88.6395 354.487 99.4225Z" fill="#FFF3E1" stroke="#1C0F00" stroke-linejoin="round"/>
<circle cx="338.647" cy="103" r="15.2121" fill="#1C0F00"/>
<circle cx="329.413" cy="93.4659" r="5.46983" fill="#FFF3E1"/>
<circle cx="300.761" cy="93.4659" r="5.46983" fill="#FFF3E1"/>
<path d="M308.505 118.015C306.026 114.86 304.843 114.635 303.152 114.916C302.037 115.102 299.726 116.502 298.927 123.086C297.8 132.382 302.871 149.284 321.182 148.157C339.493 147.031 340.62 130.973 340.056 125.058C339.493 119.142 336.958 114.071 333.859 113.226C330.76 112.381 330.003 114.684 328.225 117.733C326.253 121.114 322.873 123.086 318.365 123.086C314.703 123.086 311.604 121.959 308.505 118.015Z" fill="#FDDEDC" stroke="#1C0F00" stroke-linecap="round" stroke-linejoin="round"/>
<path d="M329.159 129.283C335.92 133.791 335.638 142.524 332.258 144.496C328.652 147.425 320.707 149.003 315.355 147.876C318.735 146.073 319.241 142.993 319.072 141.678C318.14 142.037 317.149 142.202 316.2 142.157C312.353 141.976 308.394 139.125 308.876 134.636C309.722 126.748 320.708 123.649 329.159 129.283Z" fill="#FFBAC2"/>
<path d="M323.243 134.354C323.867 138.101 321.709 140.664 319.072 141.678M319.072 141.678C318.14 142.037 317.149 142.202 316.2 142.157C312.353 141.976 308.394 139.125 308.876 134.636C309.722 126.748 320.708 123.649 329.159 129.283C335.92 133.791 335.638 142.524 332.258 144.496C328.652 147.425 320.707 149.003 315.355 147.876C318.735 146.073 319.241 142.993 319.072 141.678Z" stroke="#1C0F00" stroke-linecap="round" stroke-linejoin="round"/>
<path d="M340.827 70.4182C342.551 71.2248 343.539 72.0363 344.005 72.7645C344.448 73.4559 344.434 74.084 344.105 74.6709C343.754 75.2962 343.018 75.9148 341.937 76.4377C340.867 76.9558 339.504 77.3567 337.972 77.5761C334.745 78.038 331.453 77.7413 328.986 76.9363C327.752 76.5334 326.752 76.0122 326.07 75.4199C325.39 74.8295 325.062 74.2031 325.062 73.5679C325.062 72.3949 325.682 71.485 326.774 70.7873C327.881 70.0801 329.439 69.6207 331.181 69.391C334.675 68.9304 338.691 69.4194 340.827 70.4182Z" fill="#6C3712" stroke="#1C0F00" stroke-linejoin="round"/>
<path d="M293.568 75.3874C292.812 74.728 292.415 73.998 292.385 73.2304C292.389 72.5788 292.81 71.4827 294.295 70.5909C295.792 69.6926 298.369 69.0082 302.617 69.275C305.26 69.441 307.246 69.9872 308.629 70.7109C310.016 71.4369 310.759 72.3191 311.006 73.1459C311.248 73.9519 311.048 74.7956 310.353 75.5503C309.648 76.3165 308.427 76.9891 306.668 77.3472C303.088 78.0759 299.486 77.8734 296.783 77.0382C295.431 76.6204 294.33 76.0523 293.568 75.3874Z" fill="#6C3712" stroke="#1C0F00" stroke-linejoin="round"/>
<path d="M328.504 176.855C330.258 175.025 335.022 172.758 340.051 178.334C340.042 176.771 340.828 173.411 344.043 172.466" stroke="#1C0F00" stroke-linecap="round" stroke-linejoin="round"/>
<path d="M358.93 105.339C365.916 106.015 368.977 110.316 369.635 112.381L357.522 127.312C355.831 127.312 349.915 126.748 347.38 120.551C344.845 114.353 350.197 104.494 358.93 105.339Z" fill="#EEB36F"/>
<path d="M369.635 112.381C369.072 109.846 365.691 105.738 358.649 105.057C349.916 104.211 344.845 114.071 347.38 120.269C349.915 126.467 355.832 127.311 357.522 127.311" stroke="#1C0F00" stroke-linecap="round" stroke-linejoin="round"/>
<circle cx="361.19" cy="109.615" r="0.781404" fill="#1C0F00"/>
<circle cx="283.57" cy="108.052" r="0.781404" fill="#1C0F00"/>
<circle cx="352.334" cy="114.303" r="0.781404" fill="#1C0F00"/>
<circle cx="276.798" cy="108.052" r="0.781404" fill="#1C0F00"/>
<circle cx="357.544" cy="115.866" r="0.781404" fill="#1C0F00"/>
<circle cx="280.966" cy="114.303" r="0.781404" fill="#1C0F00"/>
<circle cx="364.837" cy="114.303" r="0.781404" fill="#1C0F00"/>
<circle cx="287.216" cy="114.303" r="0.781404" fill="#1C0F00"/>
<path d="M278.789 65.3493C280.448 64.5633 283.034 61.5764 280.099 55.9171C282.545 60.6332 293.199 64.0393 297.13 54.607" stroke="#1C0F00" stroke-linecap="round" stroke-linejoin="round"/>
<path d="M328.758 40.1002C333.474 37.48 344.74 37.4803 347.044 47.6985M347.098 52.4147C347.36 51.3667 347.26 48.6573 347.044 47.6985M347.044 47.6985C351.29 45.8646 359.151 48.7467 358.365 57.3928" stroke="#1C0F00" stroke-linecap="round" stroke-linejoin="round"/>
<path d="M381.364 318.613C377.434 320.61 376.756 323.677 376.92 324.925L381.364 329.843H387.875C388.489 330.092 391.315 328.845 391.929 325.85C392.912 320.485 386.278 316.118 381.364 318.613Z" fill="#FFA41C"/>
<path d="M379.524 326.748C380.018 326.117 381.646 324.712 384.213 324.144M376.92 324.925C376.756 323.677 377.434 320.61 381.364 318.613C386.278 316.118 392.912 320.485 391.929 325.85C391.315 328.845 388.489 330.092 387.875 329.843H381.364L376.92 324.925Z" stroke="#1C0F00" stroke-linecap="round" stroke-linejoin="round"/>
<path d="M374.148 316.742C377.607 318.837 377.259 323.304 376.659 324.925L368.418 327.942L365.98 326.748C364.899 326.582 362.467 324.961 362.948 321.17C363.548 316.431 369.825 314.123 374.148 316.742Z" fill="#FFA41C"/>
<path d="M372.231 324.925C372.306 324.376 371.71 322.32 369.626 320.497M376.659 324.925C377.259 323.304 377.607 318.837 374.148 316.742C369.825 314.123 363.548 316.431 362.948 321.17C362.467 324.961 364.899 326.582 365.98 326.748L368.418 327.942L376.659 324.925Z" stroke="#1C0F00" stroke-linecap="round" stroke-linejoin="round"/>
<path d="M376.135 324.807C371.58 324.079 369.203 326.321 368.584 327.533C369.452 328.748 371.814 331.28 374.314 331.697C377.44 332.218 380.826 330.395 381.086 328.832C380.509 327.707 378.71 325.326 376.135 324.807Z" fill="#FFE900" stroke="#1C0F00" stroke-linecap="round" stroke-linejoin="round"/>
<path d="M362.948 339.142C355.75 336.277 357.904 327.622 363.374 326.748C366.795 326.201 368.123 327.663 368.922 328.702C371.417 328.263 374.032 329.345 374.292 332.512C374.667 337.07 369.204 341.633 362.948 339.142Z" fill="#FFA41C"/>
<path d="M365.553 330.286C366.392 329.554 367.826 328.894 368.922 328.702M368.922 328.702C368.123 327.663 366.795 326.201 363.374 326.748C357.904 327.622 355.75 336.277 362.948 339.142C369.204 341.633 374.667 337.07 374.292 332.512C374.032 329.345 371.417 328.263 368.922 328.702Z" stroke="#1C0F00" stroke-linecap="round" stroke-linejoin="round"/>
<path d="M387.479 338.042C391.704 333.512 388.225 328.491 384.741 327.878C382.007 327.398 380.437 328.527 379.819 329.554C377.531 328.71 374.815 329.333 374.054 332.999C372.681 339.612 383.046 342.797 387.479 338.042Z" fill="#FFA41C"/>
<path d="M382.999 332.409C382.47 331.147 381.225 330.073 379.819 329.554M379.819 329.554C377.531 328.71 374.815 329.333 374.054 332.999C372.681 339.612 383.046 342.797 387.479 338.042C391.704 333.512 388.225 328.491 384.741 327.878C382.007 327.398 380.437 328.527 379.819 329.554Z" stroke="#1C0F00" stroke-linecap="round" stroke-linejoin="round"/>
<path d="M423.144 310.436C418.082 318.73 422.301 325.7 425.043 328.148C420.459 331.065 416.664 327.779 415.34 325.772C413.99 317.823 419.98 312.236 423.144 310.436Z" fill="#00B261"/>
<path d="M425.043 328.148C422.301 325.7 418.082 318.73 423.144 310.436C419.98 312.236 413.99 317.823 415.34 325.772" stroke="#1C0F00" stroke-linecap="round" stroke-linejoin="round"/>
<path d="M231.516 314.864C227.609 317.989 224.223 328.148 229.171 335.962C232.803 341.696 212.241 336.222 207.292 335.18C213.804 332.315 209.897 322.157 206.511 321.376C213.543 320.594 217.537 324.848 218.232 326.064C220.107 322.313 225.004 315.906 231.516 314.864Z" fill="#00B261"/>
<path d="M230.994 339.608C222.659 330.231 227.868 316.948 232.296 314.603C224.482 315.906 220.106 322.313 218.231 326.064C217.536 324.848 213.282 320.594 206.25 321.376C209.636 322.157 213.803 331.794 207.812 335.18" stroke="#1C0F00" stroke-linecap="round" stroke-linejoin="round"/>
<path d="M38.8088 334.115C35.2787 336.174 35.4766 340.231 36.0894 341.825C37.5692 343.901 42.3972 347.295 47.1024 343.828C48.2055 343.664 50.4586 341.563 49.9683 337.837C49.3171 332.888 43.2214 331.541 38.8088 334.115Z" fill="#FF2F85" stroke="#1C0F00" stroke-linecap="round" stroke-linejoin="round"/>
<path d="M35.9861 341.8L35.9907 341.837L33.2941 345.882L25.4495 346.25C24.8367 346.495 21.5414 346.294 20.8923 342.805C19.9118 337.535 26.6753 333.257 31.5781 335.709C35.4732 337.656 35.7661 340.022 35.9861 341.8Z" fill="#FF2F85" stroke="#1C0F00" stroke-linecap="round" stroke-linejoin="round"/>
<path d="M40.6511 341.759C40.5694 341.228 41.534 338.629 43.3477 337.714" stroke="#1C0F00" stroke-linecap="round" stroke-linejoin="round"/>
<path d="M33.1709 343.063C32.6806 342.409 31.1627 341.433 28.6132 340.844" stroke="#1C0F00" stroke-linecap="round" stroke-linejoin="round"/>
<path d="M36.3571 341.715C40.8677 341.028 43.3437 343.39 43.9565 344.534C44.2017 349.559 36.7248 349.192 34.7636 348.334C33.1947 347.647 32.067 345.76 31.6993 344.902C32.2713 343.839 33.8076 342.205 36.3571 341.715Z" fill="#FFF3E1" stroke="#1C0F00" stroke-linecap="round" stroke-linejoin="round"/>
<path d="M25.4475 355.566C20.9749 351.336 24.6909 345.346 28.1229 344.733C31.1511 344.192 32.3879 345.302 33.0121 346.431C35.3846 345.657 38.0879 346.338 38.7867 349.758C40.1393 356.377 29.9844 359.856 25.4475 355.566Z" fill="#FF2F85"/>
<path d="M29.2494 349.971C29.7143 348.346 31.2745 346.998 33.0121 346.431M33.0121 346.431C35.3846 345.657 38.0879 346.338 38.7867 349.758C40.1393 356.377 29.9844 359.856 25.4475 355.566C20.9749 351.336 24.6909 345.346 28.1229 344.733C31.1511 344.192 32.3879 345.302 33.0121 346.431Z" stroke="#1C0F00" stroke-linecap="round" stroke-linejoin="round"/>
<path d="M49.8498 355.365C56.3739 353.063 54.8393 344.132 49.3373 343.215C45.7289 342.614 44.2407 343.927 43.2595 344.822C40.9347 344.717 38.7062 345.979 38.4663 349.016C38.0826 353.876 43.3258 357.667 49.8498 355.365Z" fill="#FF2F85"/>
<path d="M47.1393 346.4C46.0839 345.44 44.6544 344.885 43.2595 344.822M43.2595 344.822C40.9347 344.717 38.7062 345.979 38.4663 349.016C38.0826 353.876 43.3258 357.667 49.8498 355.365C56.3739 353.063 54.8393 344.132 49.3373 343.215C45.7289 342.614 44.2407 343.927 43.2595 344.822Z" stroke="#1C0F00" stroke-linecap="round" stroke-linejoin="round"/>
<path d="M119.953 316.735C116.022 318.732 115.345 321.8 115.509 323.047C116.13 323.269 117.138 323.973 118.113 324.941C119.045 325.867 119.948 327.035 120.457 328.257C120.665 328.465 124.549 327.889 126.464 327.965C127.078 328.215 129.904 326.967 130.518 323.972C131.501 318.607 124.867 314.24 119.953 316.735Z" fill="#FFA41C"/>
<path d="M112.643 315.233C116.102 317.328 115.848 321.426 115.248 323.047L107.173 325.912L104.568 324.87C103.488 324.704 101.223 323.192 101.703 319.401C102.304 314.661 108.32 312.614 112.643 315.233Z" fill="#FFA41C" stroke="#1C0F00" stroke-linecap="round" stroke-linejoin="round"/>
<path d="M118.113 324.871C118.607 324.239 120.235 322.834 122.802 322.266M115.509 323.047C115.345 321.8 116.022 318.732 119.953 316.735C124.867 314.24 131.501 318.607 130.518 323.972C129.904 326.967 127.078 328.215 126.464 327.965" stroke="#1C0F00" stroke-linecap="round" stroke-linejoin="round"/>
<path d="M110.82 323.047C110.895 322.498 110.299 320.442 108.215 318.619M115.248 323.047C115.848 321.426 116.102 317.328 112.643 315.233C108.32 312.614 102.304 314.661 101.703 319.401C101.223 323.192 103.488 324.704 104.568 324.87" stroke="#1C0F00" stroke-linecap="round" stroke-linejoin="round"/>
<path d="M114.723 322.929C110.168 322.202 107.791 324.444 107.172 325.656C108.041 326.87 110.402 329.403 112.903 329.819C116.028 330.34 119.414 328.517 119.675 326.954C119.097 325.829 117.298 323.448 114.723 322.929Z" fill="#FFE900" stroke="#1C0F00" stroke-linecap="round" stroke-linejoin="round"/>
<path d="M101.702 336.852C95.3241 334.693 96.4922 325.745 101.962 324.871C105.402 324.321 106.787 325.772 107.585 326.811C110.057 326.407 112.622 327.499 112.88 330.634C113.255 335.193 108.08 339.011 101.702 336.852Z" fill="#FFA41C"/>
<path d="M104.501 328.235C107.252 325.836 112.505 326.076 112.88 330.634C113.255 335.193 108.08 339.011 101.702 336.852C95.3241 334.693 96.4922 325.745 101.962 324.871C105.407 324.32 106.79 325.776 107.588 326.815" stroke="#1C0F00" stroke-linecap="round" stroke-linejoin="round"/>
<path d="M126.067 336.165C130.292 331.634 126.814 326.613 123.33 326.001C120.595 325.52 119.026 326.65 118.407 327.676C116.119 326.832 113.404 327.456 112.642 331.122C111.269 337.734 121.634 340.919 126.067 336.165Z" fill="#FFA41C"/>
<path d="M121.588 330.532C121.058 329.269 119.813 328.195 118.407 327.676M118.407 327.676C116.119 326.832 113.404 327.456 112.642 331.122C111.269 337.734 121.634 340.919 126.067 336.165C130.292 331.634 126.814 326.613 123.33 326.001C120.595 325.52 119.026 326.65 118.407 327.676Z" stroke="#1C0F00" stroke-linecap="round" stroke-linejoin="round"/>
<path d="M133.561 331.115C137.492 333.112 138.17 336.18 138.006 337.427L133.561 342.345H127.051C126.436 342.595 123.611 341.347 122.997 338.352C122.014 332.987 128.648 328.62 133.561 331.115Z" fill="#8BE3FF"/>
<path d="M135.401 339.251C134.908 338.619 133.279 337.214 130.713 336.646M138.006 337.427C138.17 336.18 137.492 333.112 133.561 331.115C128.648 328.62 122.014 332.987 122.997 338.352C123.611 341.347 126.436 342.595 127.051 342.345H133.561L138.006 337.427Z" stroke="#1C0F00" stroke-linecap="round" stroke-linejoin="round"/>
<path d="M140.778 329.244C137.32 331.34 137.667 335.806 138.267 337.427L146.509 340.444L148.946 339.251C150.027 339.084 152.459 337.464 151.978 333.672C151.378 328.933 145.102 326.625 140.778 329.244Z" fill="#8BE3FF"/>
<path d="M142.695 337.427C142.62 336.878 143.216 334.823 145.3 332.999M138.267 337.427C137.667 335.806 137.32 331.34 140.778 329.244C145.102 326.625 151.378 328.933 151.978 333.672C152.459 337.464 150.027 339.084 148.946 339.251L146.509 340.444L138.267 337.427Z" stroke="#1C0F00" stroke-linecap="round" stroke-linejoin="round"/>
<path d="M138.792 337.309C143.347 336.582 145.724 338.824 146.343 340.036C145.475 341.25 143.113 343.783 140.612 344.199C137.487 344.72 134.101 342.897 133.84 341.334C134.418 340.209 136.217 337.828 138.792 337.309Z" fill="#FFE900" stroke="#1C0F00" stroke-linecap="round" stroke-linejoin="round"/>
<path d="M151.978 351.645C159.176 348.779 157.022 340.125 151.553 339.251C148.132 338.704 146.804 340.166 146.004 341.204C143.51 340.765 140.895 341.848 140.634 345.014C140.259 349.573 145.722 354.135 151.978 351.645Z" fill="#8BE3FF"/>
<path d="M149.374 342.789C148.534 342.056 147.1 341.397 146.004 341.204M146.004 341.204C146.804 340.166 148.132 338.704 151.553 339.251C157.022 340.125 159.176 348.779 151.978 351.645C145.722 354.135 140.259 349.573 140.634 345.014C140.895 341.848 143.51 340.765 146.004 341.204Z" stroke="#1C0F00" stroke-linecap="round" stroke-linejoin="round"/>
<path d="M127.446 350.545C123.221 346.014 126.7 340.993 130.184 340.381C132.918 339.9 134.488 341.03 135.107 342.057C137.394 341.212 140.11 341.836 140.871 345.502C142.244 352.115 131.88 355.3 127.446 350.545Z" fill="#8BE3FF"/>
<path d="M131.926 344.912C132.456 343.649 133.7 342.576 135.106 342.057M135.106 342.057C137.394 341.212 140.11 341.836 140.871 345.502C142.244 352.115 131.88 355.3 127.446 350.545C123.221 346.014 126.7 340.993 130.184 340.381C132.918 339.9 134.488 341.03 135.106 342.057Z" stroke="#1C0F00" stroke-linecap="round" stroke-linejoin="round"/>
<path d="M219.874 284.231C215.943 286.228 215.266 289.295 215.43 290.543L219.874 295.461H226.385C226.999 295.71 229.825 294.463 230.439 291.468C231.421 286.103 224.788 281.736 219.874 284.231Z" fill="#FFBAC2"/>
<path d="M218.034 292.366C218.528 291.735 220.156 290.33 222.722 289.762M215.43 290.543C215.266 289.295 215.943 286.228 219.874 284.231C224.788 281.736 231.421 286.103 230.439 291.468C229.825 294.463 226.999 295.71 226.385 295.461H219.874L215.43 290.543Z" stroke="#1C0F00" stroke-linecap="round" stroke-linejoin="round"/>
<path d="M212.658 282.36C216.117 284.455 215.77 288.922 215.169 290.543L206.928 293.56L204.49 292.366C203.409 292.2 200.978 290.579 201.458 286.788C202.059 282.049 208.335 279.741 212.658 282.36Z" fill="#FFBAC2"/>
<path d="M210.741 290.543C210.817 289.994 210.22 287.938 208.137 286.115M215.169 290.543C215.77 288.922 216.117 284.455 212.658 282.36C208.335 279.741 202.059 282.049 201.458 286.788C200.978 290.579 203.409 292.2 204.49 292.366L206.928 293.56L215.169 290.543Z" stroke="#1C0F00" stroke-linecap="round" stroke-linejoin="round"/>
<path d="M214.645 290.425C210.09 289.697 207.713 291.939 207.094 293.151C207.962 294.366 210.324 296.898 212.825 297.315C215.95 297.836 219.336 296.013 219.597 294.45C219.019 293.325 217.22 290.944 214.645 290.425Z" fill="#FFE900" stroke="#1C0F00" stroke-linecap="round" stroke-linejoin="round"/>
<path d="M201.458 304.76C194.26 301.895 196.414 293.241 201.883 292.366C205.304 291.82 206.632 293.281 207.432 294.32C209.927 293.881 212.541 294.963 212.802 298.13C213.177 302.689 207.714 307.251 201.458 304.76Z" fill="#FFBAC2"/>
<path d="M204.062 295.904C204.902 295.172 206.336 294.512 207.432 294.32M207.432 294.32C206.632 293.281 205.304 291.82 201.883 292.366C196.414 293.241 194.26 301.895 201.458 304.76C207.714 307.251 213.177 302.689 212.802 298.13C212.541 294.963 209.927 293.881 207.432 294.32Z" stroke="#1C0F00" stroke-linecap="round" stroke-linejoin="round"/>
<path d="M225.989 303.661C230.214 299.13 226.735 294.109 223.252 293.497C220.517 293.016 218.948 294.146 218.329 295.172C216.041 294.328 213.325 294.951 212.564 298.617C211.191 305.23 221.556 308.415 225.989 303.661Z" fill="#FFBAC2"/>
<path d="M221.51 298.027C220.98 296.765 219.735 295.691 218.329 295.172M218.329 295.172C216.041 294.328 213.325 294.951 212.564 298.617C211.191 305.23 221.556 308.415 225.989 303.661C230.214 299.13 226.735 294.109 223.252 293.497C220.517 293.016 218.948 294.146 218.329 295.172Z" stroke="#1C0F00" stroke-linecap="round" stroke-linejoin="round"/>
<path d="M630.533 333.72C634.464 335.717 635.142 338.785 634.978 340.032L630.533 344.95H624.023C623.409 345.2 620.583 343.952 619.969 340.957C618.986 335.592 625.62 331.225 630.533 333.72Z" fill="#FFBAC2"/>
<path d="M632.374 341.856C631.88 341.224 630.252 339.819 627.685 339.251M634.978 340.032C635.142 338.785 634.464 335.717 630.533 333.72C625.62 331.225 618.986 335.592 619.969 340.957C620.583 343.952 623.409 345.2 624.023 344.95H630.533L634.978 340.032Z" stroke="#1C0F00" stroke-linecap="round" stroke-linejoin="round"/>
<path d="M637.75 331.849C634.291 333.945 634.638 338.411 635.238 340.032L643.48 343.049L645.918 341.856C646.998 341.689 649.43 340.069 648.95 336.277C648.349 331.538 642.073 329.23 637.75 331.849Z" fill="#FFBAC2"/>
<path d="M639.666 340.032C639.591 339.483 640.187 337.428 642.271 335.604M635.238 340.032C634.638 338.411 634.291 333.945 637.75 331.849C642.073 329.23 648.349 331.538 648.95 336.277C649.43 340.069 646.998 341.689 645.918 341.856L643.48 343.049L635.238 340.032Z" stroke="#1C0F00" stroke-linecap="round" stroke-linejoin="round"/>
<path d="M635.762 339.914C640.318 339.187 642.695 341.429 643.313 342.641C642.445 343.855 640.084 346.388 637.583 346.804C634.458 347.325 631.071 345.502 630.811 343.939C631.389 342.814 633.188 340.433 635.762 339.914Z" fill="#FFE900" stroke="#1C0F00" stroke-linecap="round" stroke-linejoin="round"/>
<path d="M648.95 354.25C656.148 351.384 653.994 342.73 648.525 341.856C645.104 341.309 643.776 342.771 642.976 343.809C640.482 343.37 637.867 344.453 637.606 347.62C637.231 352.178 642.694 356.74 648.95 354.25Z" fill="#FFBAC2"/>
<path d="M646.346 345.394C645.506 344.661 644.072 344.002 642.976 343.809M642.976 343.809C643.776 342.771 645.104 341.309 648.525 341.856C653.994 342.73 656.148 351.384 648.95 354.25C642.694 356.74 637.231 352.178 637.606 347.62C637.867 344.453 640.482 343.37 642.976 343.809Z" stroke="#1C0F00" stroke-linecap="round" stroke-linejoin="round"/>
<path d="M624.418 353.15C620.194 348.619 623.672 343.598 627.156 342.986C629.891 342.505 631.46 343.635 632.079 344.661C634.367 343.817 637.082 344.441 637.844 348.107C639.217 354.72 628.852 357.904 624.418 353.15Z" fill="#FFBAC2"/>
<path d="M628.898 347.517C629.428 346.254 630.672 345.18 632.079 344.661M632.079 344.661C634.367 343.817 637.082 344.441 637.844 348.107C639.217 354.72 628.852 357.904 624.418 353.15C620.194 348.619 623.672 343.598 627.156 342.986C629.891 342.505 631.46 343.635 632.079 344.661Z" stroke="#1C0F00" stroke-linecap="round" stroke-linejoin="round"/>
<path d="M534.617 305.274C530.686 307.271 530.009 310.338 530.172 311.586C530.794 311.808 531.801 312.511 532.776 313.48C533.709 314.406 534.612 315.574 535.121 316.795C535.329 317.004 539.212 316.428 541.128 316.504C541.742 316.754 544.567 315.506 545.181 312.511C546.164 307.146 539.531 302.779 534.617 305.274Z" fill="#8BE3FF"/>
<path d="M527.307 303.772C530.765 305.868 530.512 309.965 529.911 311.586L521.837 314.452L519.232 313.41C518.151 313.243 515.886 311.731 516.367 307.94C516.967 303.201 522.983 301.153 527.307 303.772Z" fill="#8BE3FF" stroke="#1C0F00" stroke-linecap="round" stroke-linejoin="round"/>
<path d="M532.777 313.41C533.27 312.778 534.476 310.744 537.043 310.175M530.172 311.586C530.009 310.339 530.686 307.271 534.617 305.275C539.531 302.779 545.839 306.894 544.857 312.259C544.242 315.254 541.742 316.754 541.128 316.504" stroke="#1C0F00" stroke-linecap="round" stroke-linejoin="round"/>
<path d="M525.483 311.586C525.558 311.037 524.962 308.982 522.879 307.158M529.911 311.586C530.512 309.965 530.765 305.868 527.307 303.772C522.983 301.153 516.967 303.201 516.367 307.94C515.886 311.731 518.151 313.243 519.232 313.41" stroke="#1C0F00" stroke-linecap="round" stroke-linejoin="round"/>
<path d="M529.389 311.468C524.834 310.741 522.457 312.983 521.838 314.195C522.706 315.409 525.068 317.942 527.568 318.358C530.694 318.879 534.08 317.056 534.34 315.493C533.763 314.368 531.964 311.987 529.389 311.468Z" fill="#FFE900" stroke="#1C0F00" stroke-linecap="round" stroke-linejoin="round"/>
<path d="M516.368 325.391C509.99 323.232 511.158 314.284 516.627 313.41C520.068 312.86 521.452 314.311 522.25 315.35C524.722 314.946 527.288 316.038 527.546 319.173C527.921 323.732 522.746 327.55 516.368 325.391Z" fill="#8BE3FF"/>
<path d="M519.167 316.774C521.918 314.375 527.171 314.615 527.546 319.173C527.921 323.732 522.746 327.55 516.368 325.391C509.99 323.232 511.158 314.284 516.627 313.41C520.072 312.859 521.456 314.315 522.253 315.354" stroke="#1C0F00" stroke-linecap="round" stroke-linejoin="round"/>
<path d="M540.732 324.704C544.957 320.173 541.479 315.152 537.995 314.54C535.26 314.059 533.691 315.189 533.072 316.215C530.784 315.371 528.069 315.995 527.307 319.661C525.934 326.273 536.299 329.458 540.732 324.704Z" fill="#8BE3FF"/>
<path d="M536.253 319.071C535.723 317.808 534.478 316.734 533.072 316.215M533.072 316.215C530.784 315.371 528.069 315.995 527.307 319.661C525.934 326.273 536.299 329.458 540.732 324.704C544.957 320.173 541.479 315.152 537.995 314.54C535.26 314.059 533.691 315.189 533.072 316.215Z" stroke="#1C0F00" stroke-linecap="round" stroke-linejoin="round"/>
<path d="M555.577 318.487C552.047 320.546 552.245 324.603 552.858 326.197C554.338 328.273 559.166 331.667 563.871 328.2C564.974 328.036 567.227 325.935 566.737 322.209C566.086 317.26 559.99 315.913 555.577 318.487Z" fill="#FF2F85" stroke="#1C0F00" stroke-linecap="round" stroke-linejoin="round"/>
<path d="M552.753 326.172L552.758 326.209L550.061 330.254L542.217 330.622C541.604 330.867 538.308 330.666 537.659 327.177C536.679 321.907 543.442 317.629 548.345 320.081C552.24 322.028 552.533 324.394 552.753 326.172Z" fill="#FF2F85" stroke="#1C0F00" stroke-linecap="round" stroke-linejoin="round"/>
<path d="M557.418 326.131C557.336 325.6 558.301 323.001 560.114 322.086" stroke="#1C0F00" stroke-linecap="round" stroke-linejoin="round"/>
<path d="M549.938 327.435C549.447 326.781 547.929 325.805 545.38 325.216" stroke="#1C0F00" stroke-linecap="round" stroke-linejoin="round"/>
<path d="M553.125 326.087C557.635 325.4 560.111 327.762 560.724 328.906C560.969 333.931 553.492 333.564 551.531 332.706C549.962 332.019 548.835 330.131 548.467 329.273C549.039 328.211 550.575 326.577 553.125 326.087Z" fill="#FFF3E1" stroke="#1C0F00" stroke-linecap="round" stroke-linejoin="round"/>
<path d="M542.215 339.937C537.743 335.708 541.458 329.718 544.891 329.105C547.919 328.564 549.155 329.674 549.78 330.803C552.152 330.029 554.855 330.71 555.554 334.13C556.907 340.749 546.752 344.228 542.215 339.937Z" fill="#FF2F85"/>
<path d="M546.017 334.343C546.482 332.718 548.042 331.37 549.78 330.803M549.78 330.803C552.152 330.029 554.855 330.71 555.554 334.13C556.907 340.749 546.752 344.228 542.215 339.937C537.743 335.708 541.458 329.718 544.891 329.105C547.919 328.564 549.155 329.674 549.78 330.803Z" stroke="#1C0F00" stroke-linecap="round" stroke-linejoin="round"/>
<path d="M566.617 339.737C573.141 337.435 571.607 328.504 566.105 327.587C562.496 326.986 561.008 328.299 560.027 329.194C557.702 329.089 555.474 330.351 555.234 333.388C554.85 338.248 560.093 342.039 566.617 339.737Z" fill="#FF2F85"/>
<path d="M563.907 330.772C562.851 329.812 561.422 329.257 560.027 329.194M560.027 329.194C557.702 329.089 555.474 330.351 555.234 333.388C554.85 338.248 560.093 342.039 566.617 339.737C573.141 337.435 571.607 328.504 566.105 327.587C562.496 326.986 561.008 328.299 560.027 329.194Z" stroke="#1C0F00" stroke-linecap="round" stroke-linejoin="round"/>
</svg>
