<svg width="1369" height="877" viewBox="0 0 1369 877" fill="none" xmlns="http://www.w3.org/2000/svg">
<path d="M910.995 425.233C813.281 394.015 808.237 302.039 859.457 282.055C885.39 271.938 904.274 282.417 914.327 290.886C938.929 254.379 1015.75 274.361 996.793 345.302C985.779 386.523 959.048 409.549 938.929 420.022C926.56 426.46 919.951 428.094 910.995 425.233Z" fill="#FF2F85"/>
<path d="M924.962 311.329C923.965 302.337 918.818 294.67 914.327 290.886M914.327 290.886C904.274 282.417 885.39 271.938 859.457 282.055C808.237 302.039 813.281 394.015 910.995 425.233C919.951 428.094 926.56 426.46 938.929 420.022C959.048 409.549 985.779 386.523 996.793 345.302C1015.75 274.361 938.929 254.379 914.327 290.886Z" stroke="#1C0F00" stroke-width="1.5" stroke-linecap="round" stroke-linejoin="round"/>
<path d="M913.697 441.097C917.27 437.185 917.177 429.067 917.177 425.434C919.651 420.404 927.897 420.963 930.371 423.478C932.57 433.761 936.969 436.85 938.709 438.154C927.715 435.025 917.454 439.048 913.697 441.097Z" fill="#FF2F85" stroke="#1C0F00" stroke-width="1.5" stroke-linecap="round" stroke-linejoin="round"/>
<path d="M1028.9 465.741C1017.49 510.984 977.033 542.249 910.824 536.732" stroke="#1C0F00" stroke-width="1.5" stroke-linecap="round" stroke-linejoin="round"/>
<path d="M910.824 536.732C927.989 526.678 950.329 499.214 925.905 437.419" stroke="#1C0F00" stroke-width="1.5" stroke-linecap="round" stroke-linejoin="round"/>
<path d="M1069.45 315.965C1075.15 311.924 1083.14 314.278 1085.63 320.811C1090.91 334.65 1093.84 345.233 1096.37 359.663C1096.94 362.914 1098.89 365.772 1101.73 367.452C1115 375.304 1124.23 381.386 1135.41 389.943C1140.89 394.144 1140.98 402.354 1135.58 406.673C1122.87 416.854 1113.83 422.745 1101.96 429.032C1098.96 430.624 1096.82 433.476 1096.13 436.806C1093.18 451.082 1090.03 461.586 1085.26 474.979C1082.87 481.684 1074.77 484.283 1068.91 480.238C1057.53 472.372 1048.8 465.795 1037.76 455.792C1035.2 453.478 1031.73 452.452 1028.32 452.958C1012.98 455.235 1001.99 455.047 988.056 454.357C981.157 454.016 976.247 447.427 977.993 440.743C981.65 426.745 985.13 416.248 991.825 403.227C993.489 399.991 993.56 396.153 991.966 392.882C985.317 379.239 981.512 368.871 977.85 354.874C976.15 348.378 980.846 341.979 987.552 341.645C1001.88 340.932 1013.05 341.386 1028.78 343.46C1031.97 343.88 1035.2 342.926 1037.63 340.826C1048.57 331.38 1057.23 324.62 1069.45 315.965Z" fill="#FFA41C" stroke="#1C0F00" stroke-width="1.5" stroke-linecap="round" stroke-linejoin="round"/>
<path d="M1015.65 463.705C1020.57 461.725 1025.12 455.209 1026.69 451.935C1031.84 448.624 1038.83 452.5 1039.2 456.546C1036.73 466.768 1039.21 470.603 1040.21 472.532C1031.65 464.952 1019.93 463.484 1015.65 463.705Z" fill="#FFA41C" stroke="#1C0F00" stroke-width="1.5" stroke-linecap="round" stroke-linejoin="round"/>
<path d="M197.796 804.142C163.36 759.889 331.173 756.367 401.245 718.38C467.346 682.546 501.88 662.829 554.243 656.702C606.605 650.575 685.557 669.773 728.919 688.562C772.282 707.351 783.328 689.788 839.781 688.562C896.234 687.337 906.87 699.182 935.915 718.38C964.96 737.578 1101.59 727.775 1148.64 766.17C1195.68 804.566 1100.78 827.44 1070.91 833.158C1041.05 838.877 1020.6 836.017 945.324 862.159C870.053 888.301 888.462 827.031 823.418 857.666C758.374 888.301 708.056 858.483 633.194 866.244C558.332 874.004 508.609 890.214 441.335 849.088C393.582 819.897 241.977 860.918 197.796 804.142Z" fill="#00B261" stroke="#1C0F00" stroke-width="1.5" stroke-linecap="round" stroke-linejoin="round"/>
<path d="M856.018 678.713C864.11 682.759 863.007 691.955 861.535 695.265L886.18 700.047C878.087 685.702 882.134 675.403 887.283 669.517C875.145 674.667 872.079 682.269 871.098 686.07C866.685 680.184 859.818 678.59 856.018 678.713Z" fill="#00B261"/>
<path d="M860.799 696.369C862.271 693.058 864.11 682.759 856.018 678.713C859.818 678.59 866.685 680.184 871.098 686.07C872.079 682.269 875.145 674.667 887.283 669.517C882.133 675.403 878.087 685.702 886.179 700.047" stroke="#1C0F00" stroke-width="1.5" stroke-linecap="round" stroke-linejoin="round"/>
<path d="M672.84 733.519C656.288 740.14 650.648 753.75 648.563 758.164C654.081 759.635 670.045 762.357 689.76 761.474C676.886 758.164 678.725 743.818 684.243 740.876C672.178 740.876 666.219 747.374 665.116 750.807C664.527 744.039 670.265 734.991 672.84 733.519Z" fill="#00B261"/>
<path d="M648.563 758.164C650.648 753.75 656.288 740.14 672.84 733.519C670.265 734.991 664.527 744.039 665.116 750.807C666.219 747.374 672.178 740.876 684.243 740.876C678.725 743.818 676.886 758.164 689.76 761.474" stroke="#1C0F00" stroke-width="1.5" stroke-linecap="round" stroke-linejoin="round"/>
<path d="M1023.75 731.68C1023.16 724.912 1028.85 715.128 1032.21 713.657C1022.8 717.417 1016.79 722.697 1013.08 728.002C1013.53 726.163 1011.61 718.438 1003.52 716.231C1006.83 721.749 1008.3 727.928 997.999 740.876C1008.3 742.838 1032.94 745.731 1049.13 741.612C1036.25 738.301 1038.09 723.956 1043.61 721.013C1031.54 721.013 1024.85 728.247 1023.75 731.68Z" fill="#00B261"/>
<path d="M1049.13 741.612C1036.25 738.301 1038.09 723.956 1043.61 721.013C1031.54 721.013 1024.48 728.738 1023.38 733.887C1023.01 722.485 1029.63 715.128 1032.21 713.657C1022.8 717.417 1016.79 722.697 1013.08 728.002C1013.53 726.163 1011.24 717.703 1003.15 716.231C1007.19 719.91 1007.93 731.68 997.999 740.876" stroke="#1C0F00" stroke-width="1.5" stroke-linecap="round" stroke-linejoin="round"/>
<path d="M293.611 753.75C294.199 746.982 288.504 737.198 285.15 735.726C294.552 739.487 300.569 744.767 304.277 750.072C303.832 748.232 305.749 740.508 313.841 738.301C310.531 743.818 309.059 749.998 319.358 762.945C309.059 764.907 284.415 767.801 268.23 763.681C281.104 760.371 279.265 746.025 273.748 743.083C285.813 743.083 292.507 750.317 293.611 753.75Z" fill="#00B261"/>
<path d="M268.23 763.681C281.104 760.371 279.265 746.025 273.748 743.083C285.813 743.083 292.875 750.807 293.978 755.957C294.346 744.554 287.725 737.198 285.15 735.726C294.552 739.487 300.569 744.767 304.277 750.072C303.832 748.232 306.117 739.772 314.209 738.301C310.163 741.979 309.427 753.75 319.358 762.945" stroke="#1C0F00" stroke-width="1.5" stroke-linecap="round" stroke-linejoin="round"/>
<path d="M682.142 658.483C689.291 670.196 683.333 680.038 679.461 683.495C685.935 687.615 691.293 682.975 693.163 680.14C695.069 668.915 686.61 661.025 682.142 658.483Z" fill="#00B261"/>
<path d="M679.461 683.495C683.333 680.038 689.291 670.196 682.142 658.483C686.61 661.025 695.069 668.915 693.163 680.14" stroke="#1C0F00" stroke-width="1.5" stroke-linecap="round" stroke-linejoin="round"/>
<path d="M407.53 702.622C400.381 714.335 406.339 724.177 410.211 727.634C403.737 731.754 398.379 727.114 396.509 724.279C394.602 713.054 403.062 705.164 407.53 702.622Z" fill="#00B261"/>
<path d="M410.211 727.634C406.339 724.177 400.381 714.335 407.53 702.622C403.062 705.164 394.602 713.054 396.509 724.279" stroke="#1C0F00" stroke-width="1.5" stroke-linecap="round" stroke-linejoin="round"/>
<path d="M1117.65 736.462C1124.8 748.175 1118.84 758.017 1114.97 761.474C1121.44 765.594 1126.8 760.954 1128.67 758.119C1130.58 746.894 1122.12 739.004 1117.65 736.462Z" fill="#00B261"/>
<path d="M1114.97 761.474C1118.84 758.017 1124.8 748.175 1117.65 736.462C1122.12 739.004 1130.58 746.894 1128.67 758.119" stroke="#1C0F00" stroke-width="1.5" stroke-linecap="round" stroke-linejoin="round"/>
<path d="M516.145 647.448C532.698 654.069 538.338 667.678 540.422 672.092C534.904 673.563 518.941 676.285 499.225 675.403C512.099 672.092 510.26 657.747 504.743 654.804C516.807 654.804 522.766 661.303 523.87 664.736C524.458 657.968 518.72 648.919 516.145 647.448Z" fill="#00B261"/>
<path d="M540.422 672.092C538.338 667.678 532.698 654.069 516.145 647.448C518.72 648.919 524.458 657.968 523.87 664.736C522.766 661.303 516.807 654.804 504.743 654.804C510.26 657.747 512.099 672.092 499.225 675.403" stroke="#1C0F00" stroke-width="1.5" stroke-linecap="round" stroke-linejoin="round"/>
<path d="M923.58 761.255C923.755 761.269 923.93 761.277 924.103 761.279L923.58 761.255C915.138 760.579 904.881 745.993 914.396 732.783C907.064 734.716 899.532 744.793 900.841 752.409C900.23 748.855 897.946 740.854 886.001 739.16C891.051 742.848 890.807 757.674 877.596 759.145L923.58 761.255Z" fill="#00B261"/>
<path d="M922.227 756.692C913.031 756.692 904.571 743.818 914.396 732.783C907.064 734.716 901.423 743.559 902.732 751.175C902.121 747.621 897.946 740.854 886.001 739.16C889.021 741.446 891.168 755.125 880.091 757.269" stroke="#1C0F00" stroke-width="1.5" stroke-linecap="round" stroke-linejoin="round"/>
<ellipse cx="559.497" cy="732.784" rx="89.0141" ry="13.9774" fill="#1C0F00"/>
<ellipse cx="755.969" cy="718.806" rx="89.0141" ry="13.9774" fill="#1C0F00"/>
<path d="M661.071 635.677C626.699 616.9 630.173 571.675 646.725 548.87L676.887 541.881C660.213 562.235 645.861 601.246 673.209 615.079C698.23 627.735 732.364 602.199 746.038 579.286C743.096 576.089 740.77 569.307 742.728 561.008C747.268 541.767 780.246 535.996 792.017 561.81C792.017 561.81 865.961 715.128 833.323 715.128H741.993C707.784 715.128 690.07 671.484 717.716 650.758C721.607 647.641 725.961 645.399 730.617 643.916C732.148 636.742 736.792 627.574 744.112 620.352C719.123 644.458 685.634 649.096 661.071 635.677Z" fill="#EEB36F"/>
<path d="M746.038 579.286C743.096 576.089 740.77 569.307 742.728 561.008C747.268 541.767 780.246 535.996 792.017 561.81C792.017 561.81 865.961 715.128 833.323 715.128H741.993C707.784 715.128 690.07 671.484 717.716 650.758C721.607 647.641 725.961 645.399 730.617 643.916M746.038 579.286C732.364 602.199 698.23 627.735 673.209 615.079C645.861 601.246 660.213 562.235 676.887 541.881L646.725 548.87C630.173 571.675 626.699 616.9 661.071 635.677C685.8 649.187 719.576 644.395 744.618 619.861M746.038 579.286C748.778 574.695 750.697 570.21 751.556 566.158M810.776 672.092C795.388 652.508 757.848 635.242 730.617 643.916M730.617 643.916C732.183 636.578 737.005 627.154 744.618 619.861M744.618 619.861C752.812 611.832 759.538 602.612 764.798 590.802" stroke="#1C0F00" stroke-width="1.5" stroke-linecap="round" stroke-linejoin="round"/>
<path d="M624.52 739.492C646.798 728.353 645.558 705.978 642.508 694.839L726.543 551.077C710.007 535.529 699.497 549.373 696.308 558.238L637.529 637.149C639 610.297 631.275 578.724 611.045 567.63C565.067 542.416 529.02 573.147 520.56 596.688C540.422 598.159 570.078 605.999 594.156 647.477C607.655 670.729 623.197 719.482 624.52 739.492Z" fill="#EEB36F"/>
<path d="M845.39 493.75C835.179 488.711 810.78 488.578 798.049 506.48C789.638 518.308 791.287 529.952 793.673 535.521C796.114 541.218 801.466 544.541 804.86 546.297C798.303 553.624 795 565.204 800.039 577.69C808.869 599.57 837.831 594.796 846.981 586.044C848.97 590.818 859.472 599.411 872.839 594.001C880.761 590.794 884.748 584.636 885.903 577.69C895.117 578.088 911.984 570.052 911.03 542.682C909.836 508.469 885.901 495.739 873.171 495.739C873.974 471.934 873.693 428.806 872.839 418.562C871.646 404.24 863.689 387.522 846.583 381.963C833.853 377.826 818.399 380.308 810.045 383.092C804.23 390.137 797.602 405.46 817.603 410.399C823.968 405.625 838.468 405.434 842.605 416.573C846.742 427.712 846.185 472.666 845.39 493.75Z" fill="#EEB36F"/>
<path d="M804.86 546.297C801.466 544.541 796.114 541.218 793.673 535.521C791.287 529.952 789.638 518.308 798.049 506.48C810.78 488.578 835.179 488.711 845.39 493.75C846.185 472.666 846.742 427.712 842.605 416.573C838.468 405.434 823.968 405.625 817.603 410.399C797.602 405.46 804.23 390.137 810.045 383.092C818.399 380.308 833.853 377.826 846.583 381.963C863.689 387.522 871.646 404.24 872.839 418.562C873.693 428.806 873.974 471.934 873.171 495.739M804.86 546.297C798.303 553.624 795 565.204 800.039 577.69C808.869 599.57 837.831 594.796 846.981 586.044M804.86 546.297C809.793 540.784 816.567 537.678 823.016 538.403M853.744 558.595C854.805 565.092 854.344 579.001 846.981 586.044M846.981 586.044C848.97 590.818 859.472 599.411 872.839 594.001C880.761 590.794 884.748 584.636 885.903 577.69M823.016 538.403C820.917 528.418 815.374 524.134 811.972 523.189M823.016 538.403C823.863 542.43 824.15 547.385 823.509 553.423M885.903 577.69C895.117 578.088 911.984 570.052 911.03 542.682C909.836 508.469 885.901 495.739 873.171 495.739M885.903 577.69C887.183 569.986 884.979 561.311 880.795 554.617M873.171 495.739C873.076 498.559 872.965 501.107 872.839 503.298" stroke="#1C0F00" stroke-width="1.5" stroke-linecap="round" stroke-linejoin="round"/>
<path d="M547.411 664.736C522.372 627.861 520.928 609.239 520.928 597.423C539.302 597.423 569.949 605.69 594.028 647.168C607.526 670.42 623.068 719.173 624.391 739.183C602.511 728.442 569.292 696.959 547.411 664.736Z" fill="#1C0F00"/>
<path d="M636.595 705.25L727.646 549.275C711.111 533.727 700.6 547.571 697.412 556.436L637.897 636.439M642.562 694.907C645.612 706.046 646.669 728.044 624.391 739.183M624.391 739.183C602.511 728.442 569.292 696.959 547.411 664.736C522.372 627.861 520.928 609.239 520.928 597.423M624.391 739.183C623.068 719.173 607.526 670.42 594.028 647.168C569.949 605.69 539.302 597.423 520.928 597.423M634.954 656.276C640.203 628.504 638.416 586.306 613.252 569.101C570.217 539.675 525.709 573.882 520.928 597.423" stroke="#1C0F00" stroke-width="1.5" stroke-linecap="round" stroke-linejoin="round"/>
<path d="M509.73 493.75C519.941 488.711 544.34 488.579 557.071 506.48C565.482 518.309 563.833 529.952 561.447 535.521C559.006 541.218 553.655 544.541 550.26 546.297C556.817 553.625 560.12 565.204 555.081 577.69C546.252 599.57 517.289 594.796 508.139 586.044C506.15 590.818 495.648 599.411 482.281 594.001C474.359 590.794 470.372 584.636 469.217 577.69C460.003 578.088 443.136 570.052 444.09 542.682C445.284 508.469 469.219 495.739 481.949 495.739C481.146 471.934 481.427 428.806 482.281 418.562C483.474 404.241 491.431 387.523 508.537 381.963C521.267 377.826 537.936 378.574 549.075 383.745C554.804 410.479 543.241 412.388 536.743 410.002C530.378 405.228 516.653 405.434 512.515 416.573C508.378 427.712 508.935 472.666 509.73 493.75Z" fill="#EEB36F"/>
<path d="M550.26 546.297C553.655 544.541 559.006 541.218 561.447 535.521C563.833 529.952 565.482 518.309 557.071 506.48C544.34 488.579 519.941 488.711 509.73 493.75C508.935 472.666 508.378 427.712 512.515 416.573C516.653 405.434 530.378 405.228 536.743 410.002M550.26 546.297C556.817 553.625 560.12 565.204 555.081 577.69C546.252 599.57 517.289 594.796 508.139 586.044M550.26 546.297C545.327 540.784 538.553 537.678 532.104 538.403M501.376 558.595C500.315 565.092 500.776 579.001 508.139 586.044M508.139 586.044C506.15 590.818 495.648 599.411 482.281 594.001C474.359 590.794 470.372 584.636 469.217 577.69M532.104 538.403C534.203 528.418 539.746 524.134 543.148 523.189M532.104 538.403C531.257 542.43 530.971 547.386 531.611 553.423M549.075 383.745C537.936 378.574 521.267 377.826 508.537 381.963C491.431 387.523 483.474 404.241 482.281 418.562C481.427 428.806 481.146 471.934 481.949 495.739M469.217 577.69C460.003 578.088 443.136 570.052 444.09 542.682C445.284 508.469 469.219 495.739 481.949 495.739M469.217 577.69C467.937 569.986 470.141 561.311 474.325 554.617M481.949 495.739C482.044 498.559 482.155 501.107 482.281 503.298" stroke="#1C0F00" stroke-width="1.5" stroke-linecap="round" stroke-linejoin="round"/>
<path d="M628.863 308.607C622.943 306.263 606.96 304.981 594.824 314.157C586.389 320.874 582.563 328.676 581.084 335.617C571.481 337.59 550.424 350.787 556.739 379.342C550.689 382.2 543.829 387.622 540.063 397.037C534.143 411.837 539.57 425.404 543.023 430.337C532.071 459.05 546.04 474.614 554.393 478.808C554.614 486.124 556.576 494.151 561.894 501.378C568.361 510.167 576.369 513.792 583.354 514.868C586.018 536.181 607.033 541.338 617.253 539.488C621.659 545.109 628.148 550.271 636.634 552.438C657.788 557.839 669.194 551.451 672.154 547.998C674.004 550.835 680.664 556.656 692.504 557.248C706.713 557.84 713.896 551.328 715.711 547.998C723.847 551.65 734.653 553.379 745.415 547.998C754.376 543.517 759.413 537.121 762.187 530.948C788.532 527.396 793.268 506.63 792.405 496.677C798.967 494.13 806.186 489.346 810.165 481.028C816.677 467.412 812.878 452.661 810.165 446.988C813.495 443.658 819.637 435.369 819.045 419.977C818.453 404.585 811.768 398.73 807.945 396.062C809.928 390.035 811.222 382.394 809.425 375.207C806.465 363.367 796.066 357.94 791.236 356.707C790.632 350.314 788.432 343.009 782.785 334.877C775.385 324.221 760.955 319.83 754.665 318.967C747.561 301.207 729.998 300.816 722.105 302.841C718.139 298.683 712.083 294.506 703.235 291.957C691.084 288.455 680.796 292.603 674.165 297.507C670.342 294.67 660.905 289.589 648.473 291.957C636.041 294.325 629.973 304.167 628.863 308.607Z" fill="#EEB36F"/>
<path d="M581.133 350.787C580.318 347.35 579.761 341.829 581.084 335.617M674.165 297.507C670.342 294.67 660.905 289.589 648.473 291.957C636.041 294.325 629.973 304.167 628.863 308.607C622.943 306.263 606.96 304.981 594.824 314.157C586.389 320.874 582.563 328.676 581.084 335.617M674.165 297.507C680.796 292.603 691.084 288.455 703.235 291.957C712.083 294.506 718.139 298.683 722.105 302.841M674.165 297.507C671.265 299.651 669.065 301.94 667.714 303.797M728.394 313.417C727.847 310.922 725.966 306.89 722.105 302.841M722.105 302.841C729.998 300.816 747.561 301.207 754.665 318.967C760.955 319.83 775.385 324.221 782.785 334.877C788.432 343.009 790.632 350.314 791.236 356.707M790.925 367.807C791.357 364.493 791.621 360.785 791.236 356.707M791.236 356.707C796.066 357.94 806.465 363.367 809.425 375.207C811.222 382.394 809.928 390.035 807.945 396.062M803.875 405.177C805.087 403.19 806.661 399.964 807.945 396.062M807.945 396.062C811.768 398.73 818.453 404.585 819.045 419.977C819.637 435.369 813.495 443.658 810.165 446.988C812.878 452.661 816.677 467.412 810.165 481.028C806.186 489.346 798.967 494.13 792.405 496.677M781.675 499.158C784.314 499.014 788.226 498.299 792.405 496.677M792.405 496.677C793.268 506.63 788.532 527.396 762.187 530.948M762.187 530.948C759.413 537.121 754.376 543.517 745.415 547.998C734.653 553.379 723.847 551.65 715.711 547.998M762.187 530.948C764.912 524.887 765.456 519.043 765.395 515.438M703.975 539.858C706.259 542.434 710.42 545.623 715.711 547.998M715.711 547.998C713.896 551.328 706.713 557.84 692.504 557.248C680.664 556.656 674.004 550.835 672.154 547.998C669.194 551.451 657.788 557.839 636.634 552.438C628.148 550.271 621.659 545.109 617.253 539.488M610.364 523.208C610.301 527.186 612.631 533.59 617.253 539.488M617.253 539.488C607.033 541.338 586.018 536.181 583.354 514.868M583.354 514.868C576.369 513.792 568.361 510.167 561.894 501.378C556.576 494.151 554.614 486.124 554.393 478.808M583.354 514.868C588.837 515.714 593.69 514.988 596.673 513.958M558.194 458.458C556.265 462.648 554.135 470.241 554.393 478.808M581.084 335.617C571.481 337.59 550.424 350.787 556.739 379.342M556.739 379.342C550.689 382.2 543.829 387.622 540.063 397.037C534.143 411.837 539.57 425.404 543.023 430.337C532.071 459.05 546.04 474.614 554.393 478.808M556.739 379.342C560.199 377.708 563.395 376.912 565.594 376.687" stroke="#1C0F00" stroke-width="1.5" stroke-linecap="round" stroke-linejoin="round"/>
<path d="M755.038 460.049C755.509 467.301 746.666 480.736 733.463 477.483M723.986 472.523C727.327 475.186 730.505 476.754 733.463 477.483M733.463 477.483C731.663 480.836 726.159 486.259 718.546 481.128" stroke="#1C0F00" stroke-width="1.5" stroke-linecap="round" stroke-linejoin="round"/>
<path d="M589.071 471.088C594.184 471.999 601.611 480.363 594.678 489.678" stroke="#1C0F00" stroke-width="1.5" stroke-linecap="round" stroke-linejoin="round"/>
<path d="M797.771 428.691C793.508 431.657 783.585 432.29 781.915 420.799" stroke="#1C0F00" stroke-width="1.5" stroke-linecap="round" stroke-linejoin="round"/>
<path d="M740.209 392.383C737.831 386.817 741.232 376.077 751.393 373.303M760.71 372.988C757.136 372.4 754.036 372.582 751.393 373.303M751.393 373.303C749.53 370.247 747.016 362.815 751.867 357.542" stroke="#1C0F00" stroke-width="1.5" stroke-linecap="round" stroke-linejoin="round"/>
<path d="M651.36 411.99C651.36 427.161 639.462 438.69 624.263 438.69C609.064 438.69 596.768 426.764 596.768 411.593C596.768 396.379 608.31 384.097 623.467 384.097C639.742 384.097 651.36 396.786 651.36 411.99Z" fill="#FFF3E1" stroke="#1C0F00" stroke-width="1.5"/>
<circle cx="629.435" cy="417.042" r="21.4822" fill="#1C0F00"/>
<path d="M592.04 415.969C584.72 414.377 577.321 419.549 576.525 423.527L588.46 444.612C590.847 445.805 601.588 443.02 603.179 435.064C604.771 427.108 601.19 417.958 592.04 415.969Z" fill="#EEB36F"/>
<path d="M575.331 426.159C575.762 420.685 582.34 414.914 590.43 415.632C599.922 416.474 605.961 427.001 603.373 435.422C600.844 443.648 591.725 445.949 589.136 444.686" stroke="#1C0F00" stroke-width="1.5" stroke-linecap="round" stroke-linejoin="round"/>
<path d="M633.016 485.189C638.452 488.106 652.111 491.395 663.25 481.211" stroke="#1C0F00" stroke-width="1.5" stroke-linecap="round" stroke-linejoin="round"/>
<path d="M692.336 411.99C692.336 427.176 680.026 439.486 664.841 439.486C649.656 439.486 636.948 426.778 636.948 411.593C636.948 396.407 649.258 384.097 664.443 384.097C680.719 384.097 692.336 396.786 692.336 411.99Z" fill="#FFF3E1" stroke="#1C0F00" stroke-width="1.5" stroke-linejoin="round"/>
<circle cx="670.013" cy="417.042" r="21.4822" fill="#1C0F00"/>
<circle cx="656.972" cy="403.578" r="7.72437" fill="#FFF3E1"/>
<circle cx="616.51" cy="403.578" r="7.72437" fill="#FFF3E1"/>
<path d="M627.447 438.246C623.946 433.791 622.275 433.472 619.888 433.87C618.313 434.133 615.049 436.11 613.921 445.407C612.329 458.535 619.491 482.404 645.349 480.813C671.207 479.222 672.798 456.546 672.003 448.192C671.207 439.838 667.627 432.677 663.251 431.483C658.875 430.29 657.805 433.543 655.294 437.848C652.51 442.622 647.737 445.407 641.371 445.407C636.2 445.407 631.823 443.816 627.447 438.246Z" fill="#FDDEDC" stroke="#1C0F00" stroke-width="1.5" stroke-linecap="round" stroke-linejoin="round"/>
<path d="M656.614 454.159C666.161 460.524 665.764 472.857 660.99 475.642C655.898 479.779 644.678 482.006 637.12 480.415C641.894 477.869 642.608 473.52 642.369 471.663C641.054 472.169 639.654 472.402 638.313 472.339C632.881 472.084 627.291 468.057 627.97 461.718C629.165 450.579 644.679 446.203 656.614 454.159Z" fill="#FFBAC2"/>
<path d="M648.259 461.32C649.14 466.611 646.092 470.231 642.369 471.663M642.369 471.663C641.054 472.169 639.654 472.402 638.313 472.339C632.881 472.084 627.291 468.057 627.97 461.718C629.165 450.579 644.679 446.203 656.614 454.159C666.161 460.524 665.764 472.857 660.99 475.642C655.898 479.779 644.678 482.006 637.12 480.415C641.894 477.869 642.608 473.52 642.369 471.663Z" stroke="#1C0F00" stroke-width="1.5" stroke-linecap="round" stroke-linejoin="round"/>
<path d="M673.07 371.071C675.503 372.208 676.888 373.35 677.54 374.368C678.158 375.331 678.137 376.201 677.68 377.015C677.19 377.887 676.161 378.756 674.639 379.492C673.131 380.221 671.212 380.786 669.052 381.096C664.501 381.747 659.859 381.329 656.382 380.194C654.642 379.626 653.236 378.892 652.279 378.061C651.325 377.233 650.871 376.359 650.871 375.479C650.871 373.841 651.734 372.569 653.268 371.589C654.824 370.595 657.016 369.948 659.473 369.624C664.402 368.974 670.065 369.665 673.07 371.071Z" fill="#6C3712" stroke="#1C0F00" stroke-width="1.5" stroke-linejoin="round"/>
<path d="M606.379 378.015C605.319 377.09 604.766 376.07 604.725 375.002C604.73 374.099 605.314 372.565 607.401 371.313C609.503 370.05 613.134 369.084 619.127 369.46C622.855 369.695 625.653 370.465 627.6 371.483C629.552 372.505 630.59 373.743 630.935 374.896C631.271 376.017 630.994 377.193 630.023 378.249C629.035 379.322 627.32 380.269 624.842 380.773C619.793 381.801 614.714 381.515 610.905 380.338C608.999 379.749 607.449 378.949 606.379 378.015Z" fill="#6C3712" stroke="#1C0F00" stroke-width="1.5" stroke-linejoin="round"/>
<path d="M655.69 521.338C658.166 518.754 664.894 515.553 671.996 523.427C671.984 521.221 673.094 516.475 677.633 515.141" stroke="#1C0F00" stroke-width="1.5" stroke-linecap="round" stroke-linejoin="round"/>
<path d="M698.654 420.345C708.52 421.3 712.843 427.373 713.771 430.29L696.666 451.375C694.279 451.375 685.924 450.579 682.344 441.827C678.763 433.075 686.322 419.152 698.654 420.345Z" fill="#EEB36F"/>
<path d="M713.773 430.29C712.977 426.71 708.204 420.909 698.258 419.947C685.926 418.753 678.764 432.677 682.345 441.429C685.925 450.181 694.28 451.374 696.667 451.374" stroke="#1C0F00" stroke-width="1.5" stroke-linecap="round" stroke-linejoin="round"/>
<circle cx="701.847" cy="426.384" r="1.10348" fill="#1C0F00"/>
<circle cx="592.234" cy="424.177" r="1.10348" fill="#1C0F00"/>
<circle cx="689.341" cy="433.005" r="1.10348" fill="#1C0F00"/>
<circle cx="582.671" cy="424.177" r="1.10348" fill="#1C0F00"/>
<circle cx="696.697" cy="435.212" r="1.10348" fill="#1C0F00"/>
<circle cx="588.557" cy="433.005" r="1.10348" fill="#1C0F00"/>
<circle cx="706.996" cy="433.005" r="1.10348" fill="#1C0F00"/>
<circle cx="597.384" cy="433.005" r="1.10348" fill="#1C0F00"/>
<path d="M585.481 363.873C587.825 362.763 591.475 358.545 587.331 350.553C590.785 357.213 605.832 362.023 611.382 348.703" stroke="#1C0F00" stroke-width="1.5" stroke-linecap="round" stroke-linejoin="round"/>
<path d="M656.048 328.217C662.708 324.517 678.618 324.517 681.871 338.947M681.948 345.607C682.318 344.127 682.176 340.301 681.871 338.947M681.871 338.947C687.868 336.357 698.968 340.427 697.858 352.637" stroke="#1C0F00" stroke-width="1.5" stroke-linecap="round" stroke-linejoin="round"/>
<path d="M730.335 721.526C724.784 724.345 723.827 728.677 724.058 730.439L730.335 737.384H739.529C740.397 737.737 744.386 735.975 745.254 731.746C746.642 724.169 737.274 718.002 730.335 721.526Z" fill="#FFA41C"/>
<path d="M727.736 733.014C728.433 732.122 730.733 730.138 734.357 729.336M724.058 730.439C723.827 728.677 724.784 724.345 730.335 721.526C737.274 718.002 746.642 724.169 745.254 731.746C744.386 735.975 740.397 737.737 739.529 737.384H730.335L724.058 730.439Z" stroke="#1C0F00" stroke-width="1.5" stroke-linecap="round" stroke-linejoin="round"/>
<path d="M720.143 718.884C725.028 721.842 724.538 728.15 723.69 730.439L712.051 734.7L708.609 733.014C707.082 732.779 703.649 730.491 704.327 725.137C705.175 718.444 714.038 715.185 720.143 718.884Z" fill="#FFA41C"/>
<path d="M717.436 730.439C717.543 729.664 716.701 726.761 713.758 724.186M723.69 730.439C724.538 728.15 725.028 721.842 720.143 718.884C714.038 715.185 705.175 718.444 704.327 725.137C703.649 730.491 707.082 732.779 708.609 733.014L712.051 734.7L723.69 730.439Z" stroke="#1C0F00" stroke-width="1.5" stroke-linecap="round" stroke-linejoin="round"/>
<path d="M722.95 730.272C716.517 729.245 713.161 732.411 712.287 734.123C713.513 735.838 716.848 739.414 720.379 740.003C724.793 740.738 729.575 738.164 729.943 735.957C729.127 734.367 726.586 731.006 722.95 730.272Z" fill="#FFE900" stroke="#1C0F00" stroke-width="1.5" stroke-linecap="round" stroke-linejoin="round"/>
<path d="M704.327 750.517C694.163 746.471 697.205 734.249 704.928 733.014C709.759 732.242 711.635 734.307 712.764 735.773C716.287 735.153 719.979 736.682 720.348 741.154C720.877 747.591 713.162 754.034 704.327 750.517Z" fill="#FFA41C"/>
<path d="M708.006 738.011C709.192 736.976 711.216 736.045 712.764 735.773M712.764 735.773C711.635 734.307 709.759 732.242 704.928 733.014C697.205 734.249 694.163 746.471 704.327 750.517C713.162 754.034 720.877 747.591 720.348 741.154C719.979 736.682 716.287 735.153 712.764 735.773Z" stroke="#1C0F00" stroke-width="1.5" stroke-linecap="round" stroke-linejoin="round"/>
<path d="M738.97 748.964C744.936 742.565 740.024 735.475 735.104 734.61C731.242 733.932 729.026 735.527 728.152 736.977C724.921 735.784 721.086 736.665 720.011 741.842C718.072 751.18 732.709 755.678 738.97 748.964Z" fill="#FFA41C"/>
<path d="M732.644 741.009C731.896 739.226 730.138 737.71 728.152 736.977M728.152 736.977C724.921 735.784 721.086 736.665 720.011 741.842C718.072 751.18 732.709 755.678 738.97 748.964C744.936 742.565 740.024 735.475 735.104 734.61C731.242 733.932 729.026 735.527 728.152 736.977Z" stroke="#1C0F00" stroke-width="1.5" stroke-linecap="round" stroke-linejoin="round"/>
<path d="M789.335 709.978C782.186 721.691 788.143 731.534 792.016 734.99C785.542 739.11 780.183 734.47 778.313 731.635C776.407 720.41 784.867 712.52 789.335 709.978Z" fill="#00B261"/>
<path d="M792.016 734.99C788.143 731.534 782.186 721.691 789.335 709.978C784.867 712.52 776.407 720.41 778.313 731.635" stroke="#1C0F00" stroke-width="1.5" stroke-linecap="round" stroke-linejoin="round"/>
<path d="M518.721 716.232C513.203 720.645 508.421 734.991 515.41 746.026C520.539 754.123 491.501 746.393 484.513 744.922C493.708 740.876 488.191 726.531 483.409 725.427C493.341 724.324 498.981 730.332 499.961 732.048C502.61 726.751 509.525 717.703 518.721 716.232Z" fill="#00B261"/>
<path d="M517.985 751.175C506.214 737.933 513.571 719.174 519.824 715.864C508.789 717.703 502.609 726.751 499.961 732.048C498.98 730.332 492.972 724.324 483.041 725.427C487.823 726.531 493.708 740.14 485.248 744.922" stroke="#1C0F00" stroke-width="1.5" stroke-linecap="round" stroke-linejoin="round"/>
<path d="M590.136 746.36C585.151 749.268 585.43 754.997 586.296 757.247C588.385 760.18 595.203 764.972 601.848 760.076C603.406 759.845 606.587 756.878 605.895 751.616C604.975 744.627 596.367 742.725 590.136 746.36Z" fill="#FF2F85" stroke="#1C0F00" stroke-width="1.5" stroke-linecap="round" stroke-linejoin="round"/>
<path d="M586.149 757.212L586.155 757.265L582.347 762.977L571.269 763.496C570.404 763.842 565.75 763.559 564.834 758.632C563.449 751.189 573 745.148 579.924 748.61C585.425 751.361 585.838 754.702 586.149 757.212Z" fill="#FF2F85" stroke="#1C0F00" stroke-width="1.5" stroke-linecap="round" stroke-linejoin="round"/>
<path d="M592.736 757.154C592.62 756.404 593.983 752.734 596.544 751.442" stroke="#1C0F00" stroke-width="1.5" stroke-linecap="round" stroke-linejoin="round"/>
<path d="M582.173 758.996C581.48 758.073 579.337 756.694 575.737 755.863" stroke="#1C0F00" stroke-width="1.5" stroke-linecap="round" stroke-linejoin="round"/>
<path d="M586.673 757.092C593.043 756.122 596.539 759.457 597.405 761.073C597.751 768.17 587.192 767.651 584.423 766.439C582.207 765.47 580.615 762.804 580.095 761.592C580.903 760.092 583.073 757.784 586.673 757.092Z" fill="#FFF3E1" stroke="#1C0F00" stroke-width="1.5" stroke-linecap="round" stroke-linejoin="round"/>
<path d="M571.267 776.651C564.951 770.679 570.199 762.219 575.046 761.354C579.322 760.59 581.068 762.158 581.95 763.752C585.3 762.659 589.118 763.621 590.105 768.451C592.015 777.798 577.674 782.71 571.267 776.651Z" fill="#FF2F85"/>
<path d="M576.636 768.752C577.293 766.457 579.496 764.553 581.95 763.752M581.95 763.752C585.3 762.659 589.118 763.621 590.105 768.451C592.015 777.798 577.674 782.71 571.267 776.651C564.951 770.679 570.199 762.219 575.046 761.354C579.322 760.59 581.068 762.158 581.95 763.752Z" stroke="#1C0F00" stroke-width="1.5" stroke-linecap="round" stroke-linejoin="round"/>
<path d="M605.728 776.368C614.941 773.117 612.774 760.505 605.004 759.211C599.908 758.362 597.807 760.216 596.421 761.48C593.138 761.332 589.991 763.114 589.652 767.403C589.11 774.266 596.515 779.619 605.728 776.368Z" fill="#FF2F85"/>
<path d="M601.9 763.708C600.41 762.353 598.391 761.569 596.421 761.48M596.421 761.48C593.138 761.332 589.991 763.114 589.652 767.403C589.11 774.266 596.515 779.619 605.728 776.368C614.941 773.117 612.774 760.505 605.004 759.211C599.908 758.362 597.807 760.216 596.421 761.48Z" stroke="#1C0F00" stroke-width="1.5" stroke-linecap="round" stroke-linejoin="round"/>
<path d="M246.586 743.417C241.601 746.325 241.88 752.055 242.746 754.305C244.836 757.237 251.654 762.03 258.298 757.133C259.856 756.903 263.038 753.935 262.345 748.673C261.426 741.685 252.817 739.783 246.586 743.417Z" fill="#FF2F85" stroke="#1C0F00" stroke-width="1.5" stroke-linecap="round" stroke-linejoin="round"/>
<path d="M242.599 754.27L242.605 754.322L238.797 760.034L227.719 760.554C226.854 760.9 222.2 760.616 221.284 755.689C219.899 748.246 229.45 742.206 236.374 745.668C241.875 748.418 242.288 751.759 242.599 754.27Z" fill="#FF2F85" stroke="#1C0F00" stroke-width="1.5" stroke-linecap="round" stroke-linejoin="round"/>
<path d="M249.186 754.212C249.071 753.462 250.433 749.791 252.994 748.5" stroke="#1C0F00" stroke-width="1.5" stroke-linecap="round" stroke-linejoin="round"/>
<path d="M238.623 756.053C237.931 755.13 235.787 753.751 232.187 752.92" stroke="#1C0F00" stroke-width="1.5" stroke-linecap="round" stroke-linejoin="round"/>
<path d="M243.123 754.149C249.493 753.18 252.989 756.515 253.855 758.13C254.201 765.227 243.642 764.708 240.873 763.496C238.657 762.527 237.065 759.861 236.546 758.65C237.353 757.149 239.523 754.842 243.123 754.149Z" fill="#FFF3E1" stroke="#1C0F00" stroke-width="1.5" stroke-linecap="round" stroke-linejoin="round"/>
<path d="M227.717 773.709C221.401 767.737 226.648 759.276 231.495 758.411C235.771 757.648 237.518 759.215 238.399 760.809C241.749 759.716 245.567 760.678 246.554 765.508C248.464 774.855 234.124 779.767 227.717 773.709Z" fill="#FF2F85"/>
<path d="M233.085 765.809C233.742 763.514 235.945 761.61 238.399 760.809M238.399 760.809C241.749 759.716 245.567 760.678 246.554 765.508C248.464 774.855 234.124 779.767 227.717 773.709C221.401 767.737 226.648 759.276 231.495 758.411C235.771 757.648 237.518 759.215 238.399 760.809Z" stroke="#1C0F00" stroke-width="1.5" stroke-linecap="round" stroke-linejoin="round"/>
<path d="M262.177 773.425C271.39 770.175 269.223 757.563 261.453 756.268C256.358 755.419 254.256 757.273 252.87 758.537C249.587 758.389 246.44 760.171 246.102 764.46C245.56 771.323 252.964 776.676 262.177 773.425Z" fill="#FF2F85"/>
<path d="M258.349 760.765C256.859 759.411 254.84 758.627 252.87 758.537M252.87 758.537C249.587 758.389 246.44 760.171 246.102 764.46C245.56 771.323 252.964 776.676 262.177 773.425C271.39 770.175 269.223 757.563 261.453 756.268C256.358 755.419 254.256 757.273 252.87 758.537Z" stroke="#1C0F00" stroke-width="1.5" stroke-linecap="round" stroke-linejoin="round"/>
<path d="M361.175 718.874C355.624 721.693 354.667 726.025 354.898 727.788C355.776 728.101 357.198 729.094 358.576 730.462C359.892 731.769 361.167 733.418 361.886 735.144C362.18 735.438 367.664 734.624 370.369 734.732C371.236 735.085 375.226 733.323 376.094 729.094C377.481 721.517 368.114 715.35 361.175 718.874Z" fill="#FFA41C"/>
<path d="M350.852 716.753C355.736 719.712 355.378 725.498 354.53 727.788L343.127 731.834L339.449 730.362C337.923 730.127 334.724 727.992 335.403 722.638C336.251 715.945 344.746 713.054 350.852 716.753Z" fill="#FFA41C" stroke="#1C0F00" stroke-width="1.5" stroke-linecap="round" stroke-linejoin="round"/>
<path d="M358.576 730.362C359.273 729.471 361.573 727.487 365.197 726.684M354.898 727.788C354.667 726.025 355.624 721.693 361.175 718.874C368.114 715.35 377.481 721.517 376.094 729.094C375.226 733.323 371.236 735.085 370.369 734.732" stroke="#1C0F00" stroke-width="1.5" stroke-linecap="round" stroke-linejoin="round"/>
<path d="M348.277 727.787C348.383 727.012 347.541 724.109 344.599 721.534M354.53 727.788C355.378 725.498 355.736 719.712 350.852 716.753C344.746 713.054 336.251 715.945 335.403 722.638C334.724 727.992 337.923 730.127 339.449 730.362" stroke="#1C0F00" stroke-width="1.5" stroke-linecap="round" stroke-linejoin="round"/>
<path d="M353.79 727.62C347.357 726.593 344.001 729.76 343.127 731.471C344.353 733.186 347.688 736.762 351.219 737.351C355.633 738.087 360.415 735.512 360.783 733.305C359.967 731.716 357.426 728.354 353.79 727.62Z" fill="#FFE900" stroke="#1C0F00" stroke-width="1.5" stroke-linecap="round" stroke-linejoin="round"/>
<path d="M335.403 747.282C326.396 744.233 328.045 731.597 335.769 730.362C340.628 729.586 342.583 731.635 343.71 733.103C347.201 732.532 350.823 734.074 351.188 738.502C351.718 744.939 344.409 750.332 335.403 747.282Z" fill="#FFA41C"/>
<path d="M339.355 735.114C343.241 731.726 350.658 732.065 351.188 738.502C351.718 744.939 344.409 750.332 335.403 747.282C326.396 744.233 328.045 731.597 335.769 730.362C340.634 729.585 342.588 731.641 343.714 733.108" stroke="#1C0F00" stroke-width="1.5" stroke-linecap="round" stroke-linejoin="round"/>
<path d="M369.811 746.312C375.777 739.913 370.865 732.823 365.945 731.958C362.083 731.28 359.867 732.875 358.993 734.325C355.762 733.132 351.927 734.013 350.852 739.19C348.913 748.529 363.55 753.026 369.811 746.312Z" fill="#FFA41C"/>
<path d="M363.485 738.357C362.737 736.574 360.979 735.058 358.993 734.325M358.993 734.325C355.762 733.132 351.927 734.013 350.852 739.19C348.913 748.529 363.55 753.026 369.811 746.312C375.777 739.913 370.865 732.823 365.945 731.958C362.083 731.28 359.867 732.875 358.993 734.325Z" stroke="#1C0F00" stroke-width="1.5" stroke-linecap="round" stroke-linejoin="round"/>
<path d="M380.393 739.182C385.944 742.001 386.9 746.333 386.669 748.095L380.393 755.04H371.198C370.331 755.392 366.341 753.63 365.474 749.402C364.086 741.825 373.454 735.658 380.393 739.182Z" fill="#8BE3FF"/>
<path d="M382.991 750.67C382.294 749.778 379.995 747.794 376.37 746.992M386.669 748.095C386.9 746.333 385.944 742.001 380.393 739.182C373.454 735.658 364.086 741.825 365.474 749.402C366.341 753.63 370.331 755.392 371.198 755.04H380.393L386.669 748.095Z" stroke="#1C0F00" stroke-width="1.5" stroke-linecap="round" stroke-linejoin="round"/>
<path d="M390.584 736.539C385.7 739.498 386.19 745.805 387.038 748.095L398.676 752.356L402.119 750.67C403.645 750.435 407.079 748.146 406.401 742.792C405.553 736.1 396.689 732.841 390.584 736.539Z" fill="#8BE3FF"/>
<path d="M393.291 748.095C393.185 747.32 394.027 744.417 396.969 741.842M387.038 748.095C386.19 745.805 385.7 739.498 390.584 736.539C396.689 732.841 405.553 736.1 406.401 742.792C407.079 748.146 403.645 750.435 402.119 750.67L398.676 752.356L387.038 748.095Z" stroke="#1C0F00" stroke-width="1.5" stroke-linecap="round" stroke-linejoin="round"/>
<path d="M387.777 747.928C394.21 746.901 397.566 750.067 398.44 751.779C397.214 753.493 393.879 757.07 390.348 757.659C385.934 758.394 381.153 755.819 380.785 753.612C381.601 752.023 384.141 748.661 387.777 747.928Z" fill="#FFE900" stroke="#1C0F00" stroke-width="1.5" stroke-linecap="round" stroke-linejoin="round"/>
<path d="M406.4 768.172C416.564 764.126 413.523 751.904 405.799 750.67C400.968 749.898 399.093 751.962 397.964 753.428C394.441 752.809 390.748 754.337 390.38 758.81C389.85 765.247 397.565 771.689 406.4 768.172Z" fill="#8BE3FF"/>
<path d="M402.722 755.666C401.536 754.632 399.512 753.701 397.964 753.428M397.964 753.428C399.093 751.962 400.968 749.898 405.799 750.67C413.523 751.904 416.564 764.126 406.4 768.172C397.565 771.689 389.85 765.247 390.38 758.81C390.748 754.337 394.441 752.809 397.964 753.428Z" stroke="#1C0F00" stroke-width="1.5" stroke-linecap="round" stroke-linejoin="round"/>
<path d="M371.758 766.619C365.791 760.221 370.704 753.131 375.624 752.266C379.485 751.587 381.702 753.182 382.575 754.632C385.806 753.44 389.641 754.321 390.716 759.498C392.655 768.836 378.018 773.334 371.758 766.619Z" fill="#8BE3FF"/>
<path d="M378.084 758.664C378.832 756.881 380.589 755.365 382.575 754.632M382.575 754.632C385.806 753.44 389.641 754.321 390.716 759.498C392.655 768.836 378.018 773.334 371.758 766.619C365.791 760.221 370.704 753.131 375.624 752.266C379.485 751.587 381.702 753.182 382.575 754.632Z" stroke="#1C0F00" stroke-width="1.5" stroke-linecap="round" stroke-linejoin="round"/>
<path d="M502.282 672.973C496.731 675.792 495.774 680.124 496.006 681.886L502.282 688.831H511.476C512.344 689.184 516.334 687.421 517.201 683.193C518.589 675.616 509.221 669.449 502.282 672.973Z" fill="#FFBAC2"/>
<path d="M499.683 684.461C500.38 683.569 502.68 681.585 506.304 680.783M496.006 681.886C495.774 680.124 496.731 675.792 502.282 672.973C509.221 669.449 518.589 675.616 517.201 683.193C516.334 687.421 512.344 689.184 511.476 688.831H502.282L496.006 681.886Z" stroke="#1C0F00" stroke-width="1.5" stroke-linecap="round" stroke-linejoin="round"/>
<path d="M492.091 670.33C496.975 673.289 496.485 679.597 495.637 681.886L483.999 686.147L480.556 684.461C479.03 684.226 475.596 681.938 476.274 676.583C477.122 669.891 485.985 666.632 492.091 670.33Z" fill="#FFBAC2"/>
<path d="M489.384 681.886C489.49 681.111 488.648 678.208 485.705 675.633M495.637 681.886C496.485 679.597 496.975 673.289 492.091 670.33C485.985 666.632 477.122 669.891 476.274 676.583C475.596 681.938 479.03 684.226 480.556 684.461L483.999 686.147L495.637 681.886Z" stroke="#1C0F00" stroke-width="1.5" stroke-linecap="round" stroke-linejoin="round"/>
<path d="M494.898 681.719C488.465 680.692 485.108 683.858 484.234 685.57C485.46 687.284 488.795 690.861 492.327 691.45C496.74 692.185 501.522 689.61 501.89 687.403C501.074 685.814 498.534 682.452 494.898 681.719Z" fill="#FFE900" stroke="#1C0F00" stroke-width="1.5" stroke-linecap="round" stroke-linejoin="round"/>
<path d="M476.275 701.963C466.11 697.917 469.152 685.696 476.876 684.461C481.707 683.689 483.582 685.753 484.711 687.219C488.234 686.6 491.927 688.128 492.295 692.601C492.825 699.038 485.109 705.48 476.275 701.963Z" fill="#FFBAC2"/>
<path d="M479.953 689.457C481.139 688.423 483.163 687.492 484.711 687.219M484.711 687.219C483.582 685.753 481.707 683.689 476.876 684.461C469.152 685.696 466.11 697.917 476.275 701.963C485.109 705.48 492.825 699.038 492.295 692.601C491.927 688.128 488.234 686.6 484.711 687.219Z" stroke="#1C0F00" stroke-width="1.5" stroke-linecap="round" stroke-linejoin="round"/>
<path d="M510.917 700.411C516.883 694.012 511.971 686.922 507.051 686.057C503.19 685.378 500.973 686.974 500.1 688.423C496.869 687.231 493.034 688.112 491.959 693.289C490.02 702.627 504.657 707.125 510.917 700.411Z" fill="#FFBAC2"/>
<path d="M504.591 692.456C503.843 690.672 502.085 689.156 500.1 688.423M500.1 688.423C496.869 687.231 493.034 688.112 491.959 693.289C490.02 702.627 504.657 707.125 510.917 700.411C516.883 694.012 511.971 686.922 507.051 686.057C503.19 685.378 500.973 686.974 500.1 688.423Z" stroke="#1C0F00" stroke-width="1.5" stroke-linecap="round" stroke-linejoin="round"/>
<path d="M1082.21 742.86C1087.76 745.68 1088.71 750.012 1088.48 751.774L1082.21 758.719H1073.01C1072.14 759.071 1068.15 757.309 1067.29 753.08C1065.9 745.503 1075.27 739.336 1082.21 742.86Z" fill="#FFBAC2"/>
<path d="M1084.8 754.349C1084.11 753.457 1081.81 751.473 1078.18 750.67M1088.48 751.774C1088.71 750.012 1087.76 745.68 1082.21 742.86C1075.27 739.336 1065.9 745.503 1067.29 753.08C1068.15 757.309 1072.14 759.071 1073.01 758.719H1082.21L1088.48 751.774Z" stroke="#1C0F00" stroke-width="1.5" stroke-linecap="round" stroke-linejoin="round"/>
<path d="M1092.4 740.218C1087.51 743.177 1088 749.484 1088.85 751.774L1100.49 756.034L1103.93 754.349C1105.46 754.114 1108.89 751.825 1108.21 746.471C1107.37 739.778 1098.5 736.519 1092.4 740.218Z" fill="#FFBAC2"/>
<path d="M1095.1 751.774C1095 750.998 1095.84 748.095 1098.78 745.521M1088.85 751.774C1088 749.484 1087.51 743.177 1092.4 740.218C1098.5 736.519 1107.37 739.778 1108.21 746.471C1108.89 751.825 1105.46 754.114 1103.93 754.349L1100.49 756.034L1088.85 751.774Z" stroke="#1C0F00" stroke-width="1.5" stroke-linecap="round" stroke-linejoin="round"/>
<path d="M1089.59 751.606C1096.02 750.58 1099.38 753.746 1100.25 755.457C1099.03 757.172 1095.69 760.749 1092.16 761.337C1087.75 762.073 1082.97 759.498 1082.6 757.291C1083.41 755.702 1085.95 752.34 1089.59 751.606Z" fill="#FFE900" stroke="#1C0F00" stroke-width="1.5" stroke-linecap="round" stroke-linejoin="round"/>
<path d="M1108.21 771.851C1118.38 767.805 1115.34 755.583 1107.61 754.349C1102.78 753.576 1100.91 755.641 1099.78 757.107C1096.25 756.487 1092.56 758.016 1092.19 762.488C1091.66 768.925 1099.38 775.368 1108.21 771.851Z" fill="#FFBAC2"/>
<path d="M1104.53 759.345C1103.35 758.311 1101.32 757.379 1099.78 757.107M1099.78 757.107C1100.91 755.641 1102.78 753.576 1107.61 754.349C1115.34 755.583 1118.38 767.805 1108.21 771.851C1099.38 775.368 1091.66 768.925 1092.19 762.488C1092.56 758.016 1096.25 756.487 1099.78 757.107Z" stroke="#1C0F00" stroke-width="1.5" stroke-linecap="round" stroke-linejoin="round"/>
<path d="M1073.57 770.298C1067.6 763.9 1072.52 756.809 1077.44 755.945C1081.3 755.266 1083.51 756.861 1084.39 758.311C1087.62 757.119 1091.45 757.999 1092.53 763.176C1094.47 772.515 1079.83 777.012 1073.57 770.298Z" fill="#FFBAC2"/>
<path d="M1079.9 762.343C1080.64 760.56 1082.4 759.044 1084.39 758.311M1084.39 758.311C1087.62 757.119 1091.45 757.999 1092.53 763.176C1094.47 772.515 1079.83 777.012 1073.57 770.298C1067.6 763.9 1072.52 756.809 1077.44 755.945C1081.3 755.266 1083.51 756.861 1084.39 758.311Z" stroke="#1C0F00" stroke-width="1.5" stroke-linecap="round" stroke-linejoin="round"/>
<path d="M946.755 702.689C941.204 705.509 940.247 709.841 940.478 711.603C941.356 711.916 942.778 712.909 944.156 714.277C945.472 715.584 946.747 717.234 947.466 718.96C947.76 719.254 953.244 718.44 955.949 718.548C956.816 718.9 960.806 717.138 961.674 712.909C963.062 705.332 953.694 699.165 946.755 702.689Z" fill="#8BE3FF"/>
<path d="M936.431 700.568C941.315 703.527 940.957 709.313 940.109 711.603L928.706 715.649L925.028 714.178C923.502 713.943 920.303 711.807 920.982 706.453C921.83 699.761 930.325 696.87 936.431 700.568Z" fill="#8BE3FF" stroke="#1C0F00" stroke-width="1.5" stroke-linecap="round" stroke-linejoin="round"/>
<path d="M944.156 714.178C944.853 713.286 946.556 710.413 950.18 709.61M940.478 711.603C940.247 709.841 941.204 705.509 946.755 702.689C953.694 699.165 962.603 704.976 961.215 712.553C960.348 716.782 956.816 718.9 955.949 718.548" stroke="#1C0F00" stroke-width="1.5" stroke-linecap="round" stroke-linejoin="round"/>
<path d="M933.856 711.603C933.962 710.828 933.12 707.925 930.178 705.35M940.109 711.603C940.957 709.313 941.315 703.527 936.431 700.568C930.325 696.87 921.83 699.761 920.982 706.453C920.303 711.807 923.502 713.943 925.028 714.178" stroke="#1C0F00" stroke-width="1.5" stroke-linecap="round" stroke-linejoin="round"/>
<path d="M939.37 711.436C932.937 710.409 929.581 713.575 928.707 715.287C929.933 717.001 933.268 720.578 936.799 721.167C941.213 721.902 945.995 719.327 946.363 717.12C945.547 715.531 943.006 712.169 939.37 711.436Z" fill="#FFE900" stroke="#1C0F00" stroke-width="1.5" stroke-linecap="round" stroke-linejoin="round"/>
<path d="M920.983 731.098C911.976 728.049 913.625 715.412 921.349 714.178C926.208 713.401 928.163 715.451 929.29 716.918C932.781 716.347 936.404 717.89 936.768 722.317C937.298 728.755 929.99 734.147 920.983 731.098Z" fill="#8BE3FF"/>
<path d="M924.935 718.929C928.821 715.541 936.238 715.88 936.768 722.317C937.298 728.755 929.99 734.147 920.983 731.098C911.976 728.049 913.625 715.412 921.349 714.178C926.214 713.4 928.168 715.456 929.294 716.924" stroke="#1C0F00" stroke-width="1.5" stroke-linecap="round" stroke-linejoin="round"/>
<path d="M955.391 730.127C961.357 723.729 956.445 716.639 951.525 715.774C947.663 715.095 945.447 716.69 944.573 718.14C941.342 716.948 937.507 717.829 936.432 723.006C934.493 732.344 949.13 736.842 955.391 730.127Z" fill="#8BE3FF"/>
<path d="M949.065 722.172C948.317 720.389 946.559 718.873 944.573 718.14M944.573 718.14C941.342 716.948 937.507 717.829 936.432 723.006C934.493 732.344 949.13 736.842 955.391 730.127C961.357 723.729 956.445 716.639 951.525 715.774C947.663 715.095 945.447 716.69 944.573 718.14Z" stroke="#1C0F00" stroke-width="1.5" stroke-linecap="round" stroke-linejoin="round"/>
<path d="M976.356 721.348C971.37 724.256 971.65 729.985 972.515 732.235C974.605 735.168 981.423 739.96 988.068 735.064C989.625 734.833 992.807 731.866 992.115 726.604C991.195 719.615 982.587 717.713 976.356 721.348Z" fill="#FF2F85" stroke="#1C0F00" stroke-width="1.5" stroke-linecap="round" stroke-linejoin="round"/>
<path d="M972.368 732.2L972.374 732.253L968.566 737.965L957.488 738.484C956.623 738.83 951.969 738.546 951.052 733.62C949.668 726.177 959.219 720.136 966.143 723.598C971.643 726.348 972.057 729.69 972.368 732.2Z" fill="#FF2F85" stroke="#1C0F00" stroke-width="1.5" stroke-linecap="round" stroke-linejoin="round"/>
<path d="M978.955 732.142C978.839 731.392 980.201 727.722 982.763 726.43" stroke="#1C0F00" stroke-width="1.5" stroke-linecap="round" stroke-linejoin="round"/>
<path d="M968.392 733.984C967.699 733.061 965.556 731.681 961.955 730.851" stroke="#1C0F00" stroke-width="1.5" stroke-linecap="round" stroke-linejoin="round"/>
<path d="M972.892 732.079C979.262 731.11 982.758 734.445 983.624 736.061C983.97 743.158 973.411 742.638 970.642 741.427C968.426 740.457 966.833 737.792 966.314 736.58C967.122 735.08 969.291 732.772 972.892 732.079Z" fill="#FFF3E1" stroke="#1C0F00" stroke-width="1.5" stroke-linecap="round" stroke-linejoin="round"/>
<path d="M957.486 751.639C951.17 745.667 956.418 737.207 961.264 736.342C965.541 735.578 967.287 737.146 968.169 738.74C971.519 737.646 975.337 738.609 976.323 743.438C978.234 752.785 963.893 757.698 957.486 751.639Z" fill="#FF2F85"/>
<path d="M962.855 743.739C963.512 741.444 965.715 739.541 968.169 738.74M968.169 738.74C971.519 737.646 975.337 738.609 976.323 743.438C978.234 752.785 963.893 757.698 957.486 751.639C951.17 745.667 956.418 737.207 961.264 736.342C965.541 735.578 967.287 737.146 968.169 738.74Z" stroke="#1C0F00" stroke-width="1.5" stroke-linecap="round" stroke-linejoin="round"/>
<path d="M991.946 751.356C1001.16 748.105 998.992 735.493 991.222 734.199C986.126 733.35 984.024 735.203 982.639 736.468C979.356 736.319 976.209 738.101 975.87 742.391C975.328 749.253 982.733 754.607 991.946 751.356Z" fill="#FF2F85"/>
<path d="M988.118 738.695C986.627 737.341 984.609 736.557 982.639 736.468M982.639 736.468C979.356 736.319 976.209 738.101 975.87 742.39C975.328 749.253 982.733 754.607 991.946 751.356C1001.16 748.105 998.992 735.493 991.222 734.199C986.126 733.35 984.024 735.203 982.639 736.468Z" stroke="#1C0F00" stroke-width="1.5" stroke-linecap="round" stroke-linejoin="round"/>
<path d="M834.373 749.303C829.388 752.211 829.667 757.94 830.533 760.19C832.623 763.122 839.441 767.915 846.085 763.019C847.643 762.788 850.825 759.821 850.132 754.559C849.213 747.57 840.604 745.668 834.373 749.303Z" fill="#8BE3FF" stroke="#1C0F00" stroke-width="1.5" stroke-linecap="round" stroke-linejoin="round"/>
<path d="M830.386 760.155L830.393 760.208L826.585 765.92L815.507 766.439C814.641 766.785 809.988 766.501 809.071 761.575C807.686 754.132 817.237 748.091 824.161 751.553C829.662 754.303 830.075 757.644 830.386 760.155Z" fill="#8BE3FF" stroke="#1C0F00" stroke-width="1.5" stroke-linecap="round" stroke-linejoin="round"/>
<path d="M836.973 760.097C836.858 759.347 838.22 755.676 840.781 754.385" stroke="#1C0F00" stroke-width="1.5" stroke-linecap="round" stroke-linejoin="round"/>
<path d="M826.41 761.938C825.718 761.015 823.574 759.636 819.974 758.805" stroke="#1C0F00" stroke-width="1.5" stroke-linecap="round" stroke-linejoin="round"/>
<path d="M830.91 760.034C837.28 759.065 840.777 762.4 841.642 764.016C841.988 771.112 831.43 770.593 828.66 769.382C826.444 768.412 824.852 765.747 824.333 764.535C825.141 763.035 827.31 760.727 830.91 760.034Z" fill="#FFE900" stroke="#1C0F00" stroke-width="1.5" stroke-linecap="round" stroke-linejoin="round"/>
<path d="M815.505 779.594C809.189 773.622 814.436 765.162 819.283 764.296C823.559 763.533 825.306 765.1 826.187 766.695C829.538 765.601 833.355 766.564 834.342 771.393C836.252 780.74 821.912 785.652 815.505 779.594Z" fill="#8BE3FF"/>
<path d="M820.874 771.694C821.53 769.399 823.733 767.495 826.187 766.695M826.187 766.695C829.538 765.601 833.355 766.564 834.342 771.393C836.252 780.74 821.912 785.652 815.505 779.594C809.189 773.622 814.436 765.162 819.283 764.296C823.559 763.533 825.306 765.1 826.187 766.695Z" stroke="#1C0F00" stroke-width="1.5" stroke-linecap="round" stroke-linejoin="round"/>
<path d="M849.965 779.311C859.178 776.06 857.011 763.448 849.241 762.153C844.146 761.305 842.044 763.158 840.658 764.423C837.375 764.274 834.228 766.056 833.89 770.345C833.348 777.208 840.752 782.561 849.965 779.311Z" fill="#8BE3FF"/>
<path d="M846.137 766.65C844.647 765.296 842.628 764.512 840.658 764.423M840.658 764.423C837.375 764.274 834.228 766.056 833.89 770.345C833.348 777.208 840.752 782.561 849.965 779.311C859.178 776.06 857.011 763.448 849.241 762.153C844.146 761.305 842.044 763.158 840.658 764.423Z" stroke="#1C0F00" stroke-width="1.5" stroke-linecap="round" stroke-linejoin="round"/>
<path d="M27.9998 357.93L28.5271 362.524C29.8224 373.808 38.3378 382.922 49.5086 384.98C49.6016 384.997 49.6422 385.034 49.6647 385.063C49.693 385.1 49.7152 385.158 49.7151 385.228C49.715 385.299 49.6928 385.357 49.6641 385.394C49.6412 385.424 49.6002 385.461 49.507 385.478C38.3375 387.536 29.8122 396.641 28.4994 407.923L27.9898 412.302C27.9693 412.479 27.8993 412.574 27.8288 412.631C27.7488 412.696 27.6324 412.738 27.5 412.738C27.3676 412.738 27.2512 412.696 27.1712 412.631C27.1007 412.574 27.0307 412.478 27.0102 412.302L26.5006 407.923C25.1878 396.641 16.6625 387.536 5.49296 385.478C5.39983 385.461 5.35876 385.424 5.33591 385.394C5.3072 385.357 5.28495 385.299 5.28489 385.228C5.28483 385.158 5.30697 385.1 5.33532 385.063C5.35779 385.034 5.39841 384.997 5.49144 384.98C16.6622 382.922 25.1776 373.808 26.4729 362.524L27.0002 357.93C27.0208 357.751 27.0922 357.653 27.1644 357.595C27.2463 357.528 27.365 357.484 27.5 357.484C27.635 357.484 27.7538 357.528 27.8356 357.595C27.9078 357.653 27.9792 357.751 27.9998 357.93Z" fill="#FFE900" stroke="#1C0F00" stroke-width="1.5" stroke-linejoin="round"/>
<path d="M1342 442.93L1342.53 447.524C1343.82 458.808 1352.34 467.922 1363.51 469.98C1363.6 469.997 1363.64 470.034 1363.66 470.063C1363.69 470.1 1363.72 470.158 1363.72 470.228C1363.72 470.299 1363.69 470.357 1363.66 470.394C1363.64 470.424 1363.6 470.461 1363.51 470.478C1352.34 472.536 1343.81 481.641 1342.5 492.923L1341.99 497.302C1341.97 497.479 1341.9 497.574 1341.83 497.631C1341.75 497.696 1341.63 497.738 1341.5 497.738C1341.37 497.738 1341.25 497.696 1341.17 497.631C1341.1 497.574 1341.03 497.478 1341.01 497.302L1340.5 492.923C1339.19 481.641 1330.66 472.536 1319.49 470.478C1319.4 470.461 1319.36 470.424 1319.34 470.394C1319.31 470.357 1319.28 470.299 1319.28 470.228C1319.28 470.158 1319.31 470.1 1319.34 470.063C1319.36 470.034 1319.4 469.997 1319.49 469.98C1330.66 467.922 1339.18 458.808 1340.47 447.524L1341 442.93C1341.02 442.751 1341.09 442.653 1341.16 442.595C1341.25 442.528 1341.37 442.484 1341.5 442.484C1341.63 442.484 1341.75 442.528 1341.84 442.595C1341.91 442.653 1341.98 442.751 1342 442.93Z" fill="#FFE900" stroke="#1C0F00" stroke-width="1.5" stroke-linejoin="round"/>
<path fill-rule="evenodd" clip-rule="evenodd" d="M71.2505 207.75C71.2505 207.336 70.9147 207 70.5005 207C70.0862 207 69.7505 207.336 69.7505 207.75V214.252C69.7505 216.737 67.7357 218.752 65.2505 218.752L61.75 218.752C61.3358 218.752 61 219.087 61 219.502C61 219.916 61.3358 220.252 61.75 220.252L65.2505 220.252C67.7357 220.252 69.7505 222.266 69.7505 224.752V231.254C69.7505 231.668 70.0862 232.004 70.5005 232.004C70.9147 232.004 71.2505 231.668 71.2505 231.254V224.752C71.2505 222.266 73.2652 220.252 75.7505 220.252L79.2512 220.252C79.6654 220.252 80.0012 219.916 80.0012 219.502C80.0012 219.087 79.6654 218.752 79.2512 218.752L75.7505 218.752C73.2652 218.752 71.2505 216.737 71.2505 214.252V207.75Z" fill="#1C0F00"/>
<path fill-rule="evenodd" clip-rule="evenodd" d="M1255.25 267.75C1255.25 267.336 1254.91 267 1254.5 267C1254.09 267 1253.75 267.336 1253.75 267.75V274.252C1253.75 276.737 1251.74 278.752 1249.25 278.752L1245.75 278.752C1245.34 278.752 1245 279.087 1245 279.502C1245 279.916 1245.34 280.252 1245.75 280.252L1249.25 280.252C1251.74 280.252 1253.75 282.266 1253.75 284.752V291.254C1253.75 291.668 1254.09 292.004 1254.5 292.004C1254.91 292.004 1255.25 291.668 1255.25 291.254V284.752C1255.25 282.266 1257.27 280.252 1259.75 280.252L1263.25 280.252C1263.67 280.252 1264 279.916 1264 279.502C1264 279.087 1263.67 278.752 1263.25 278.752L1259.75 278.752C1257.27 278.752 1255.25 276.737 1255.25 274.252V267.75Z" fill="#1C0F00"/>
<path fill-rule="evenodd" clip-rule="evenodd" d="M510.25 292.75C510.25 292.336 509.915 292 509.5 292C509.086 292 508.75 292.336 508.75 292.75V299.252C508.75 301.737 506.736 303.752 504.25 303.752L500.75 303.752C500.336 303.752 500 304.087 500 304.502C500 304.916 500.336 305.252 500.75 305.252L504.25 305.252C506.736 305.252 508.75 307.266 508.75 309.752V316.254C508.75 316.668 509.086 317.004 509.5 317.004C509.915 317.004 510.25 316.668 510.25 316.254V309.752C510.25 307.266 512.265 305.252 514.75 305.252L518.251 305.252C518.665 305.252 519.001 304.916 519.001 304.502C519.001 304.087 518.665 303.752 518.251 303.752L514.75 303.752C512.265 303.752 510.25 301.737 510.25 299.252V292.75Z" fill="#1C0F00"/>
<path fill-rule="evenodd" clip-rule="evenodd" d="M998.25 0.75C998.25 0.335786 997.915 0 997.5 0C997.086 0 996.75 0.335786 996.75 0.75V7.25165C996.75 9.73693 994.736 11.7517 992.25 11.7517L988.75 11.7517C988.336 11.7517 988 12.0874 988 12.5017C988 12.9159 988.336 13.2517 988.75 13.2517L992.25 13.2517C994.736 13.2517 996.75 15.2664 996.75 17.7517V24.2535C996.75 24.6677 997.086 25.0035 997.5 25.0035C997.915 25.0035 998.25 24.6677 998.25 24.2535V17.7517C998.25 15.2664 1000.27 13.2517 1002.75 13.2517L1006.25 13.2517C1006.67 13.2517 1007 12.9159 1007 12.5017C1007 12.0874 1006.67 11.7517 1006.25 11.7517L1002.75 11.7517C1000.27 11.7517 998.25 9.73693 998.25 7.25165V0.75Z" fill="#1C0F00"/>
<path fill-rule="evenodd" clip-rule="evenodd" d="M391.75 56.75C391.75 56.3358 391.414 56 391 56C390.585 56 390.25 56.3358 390.25 56.75V71.249C390.25 75.3912 386.892 78.749 382.75 78.749L374.75 78.749C374.336 78.749 374 79.0848 374 79.499C374 79.9133 374.336 80.249 374.75 80.249L382.75 80.249C386.892 80.249 390.25 83.6069 390.25 87.749V102.248C390.25 102.662 390.585 102.998 391 102.998C391.414 102.998 391.75 102.662 391.75 102.248V87.749C391.75 83.6069 395.107 80.249 399.25 80.249L407.249 80.2491C407.663 80.2491 407.999 79.9133 407.999 79.4991C407.999 79.0848 407.663 78.7491 407.249 78.7491L399.25 78.749C395.107 78.749 391.75 75.3912 391.75 71.249V56.75Z" fill="#1C0F00"/>
<path fill-rule="evenodd" clip-rule="evenodd" d="M117.75 669.75C117.75 669.336 117.414 669 117 669C116.585 669 116.25 669.336 116.25 669.75V684.249C116.25 688.391 112.892 691.749 108.75 691.749L100.75 691.749C100.336 691.749 100 692.085 100 692.499C100 692.913 100.336 693.249 100.75 693.249L108.75 693.249C112.892 693.249 116.25 696.607 116.25 700.749V715.248C116.25 715.662 116.585 715.998 117 715.998C117.414 715.998 117.75 715.662 117.75 715.248V700.749C117.75 696.607 121.107 693.249 125.25 693.249L133.249 693.249C133.663 693.249 133.999 692.913 133.999 692.499C133.999 692.085 133.663 691.749 133.249 691.749L125.25 691.749C121.107 691.749 117.75 688.391 117.75 684.249V669.75Z" fill="#1C0F00"/>
<path fill-rule="evenodd" clip-rule="evenodd" d="M1224.75 676.75C1224.75 676.336 1224.41 676 1224 676C1223.59 676 1223.25 676.336 1223.25 676.75V691.249C1223.25 695.391 1219.89 698.749 1215.75 698.749L1207.75 698.749C1207.34 698.749 1207 699.085 1207 699.499C1207 699.913 1207.34 700.249 1207.75 700.249L1215.75 700.249C1219.89 700.249 1223.25 703.607 1223.25 707.749V722.248C1223.25 722.662 1223.59 722.998 1224 722.998C1224.41 722.998 1224.75 722.662 1224.75 722.248V707.749C1224.75 703.607 1228.11 700.249 1232.25 700.249L1240.25 700.249C1240.66 700.249 1241 699.913 1241 699.499C1241 699.085 1240.66 698.749 1240.25 698.749L1232.25 698.749C1228.11 698.749 1224.75 695.391 1224.75 691.249V676.75Z" fill="#1C0F00"/>
<path d="M342.948 488.654L343 488.228L343.052 488.654C343.659 493.663 347.226 497.759 352.005 499.102C347.226 500.445 343.654 504.537 343.038 509.544L343 509.855L342.962 509.544C342.346 504.537 338.774 500.445 333.995 499.102C338.774 497.759 342.341 493.663 342.948 488.654Z" fill="#FFE900" stroke="#1C0F00" stroke-width="1.5" stroke-linejoin="round"/>
<path d="M796.948 274.654L797 274.228L797.052 274.654C797.659 279.663 801.226 283.759 806.005 285.102C801.226 286.445 797.654 290.537 797.038 295.544L797 295.855L796.962 295.544C796.346 290.537 792.774 286.445 787.995 285.102C792.774 283.759 796.341 279.663 796.948 274.654Z" fill="#FFE900" stroke="#1C0F00" stroke-width="1.5" stroke-linejoin="round"/>
<path d="M1032.95 583.654L1033 583.228L1033.05 583.654C1033.66 588.663 1037.23 592.759 1042 594.102C1037.23 595.445 1033.65 599.537 1033.04 604.544L1033 604.855L1032.96 604.544C1032.35 599.537 1028.77 595.445 1024 594.102C1028.77 592.759 1032.34 588.663 1032.95 583.654Z" fill="#FFE900" stroke="#1C0F00" stroke-width="1.5" stroke-linejoin="round"/>
</svg>
