<svg width="360" height="429" viewBox="0 0 360 429" fill="none" xmlns="http://www.w3.org/2000/svg">
<path d="M343.68 108.8C274.486 86.6939 270.915 21.563 307.185 7.41234C325.548 0.247734 338.921 7.66818 346.04 13.6657C363.461 -12.186 417.859 1.96396 404.436 52.1992C396.637 81.3887 377.708 97.6939 363.461 105.11C354.702 109.669 350.022 110.826 343.68 108.8Z" fill="#FF2F85"/>
<path d="M353.571 28.1419C352.864 21.7741 349.22 16.3448 346.04 13.6657M346.04 13.6657C338.921 7.66818 325.548 0.247734 307.185 7.41234C270.915 21.563 274.486 86.6939 343.68 108.8C350.022 110.826 354.702 109.669 363.461 105.11C377.708 97.6939 396.637 81.3887 404.436 52.1992C417.859 1.96396 363.461 -12.186 346.04 13.6657Z" stroke="#1C0F00" stroke-linecap="round" stroke-linejoin="round"/>
<path d="M345.595 120.034C348.125 117.264 348.059 111.515 348.059 108.943C349.811 105.381 355.65 105.777 357.402 107.558C358.959 114.84 362.074 117.027 363.307 117.95C355.521 115.734 348.255 118.583 345.595 120.034Z" fill="#FF2F85" stroke="#1C0F00" stroke-linecap="round" stroke-linejoin="round"/>
<path d="M427.17 137.485C419.096 169.523 390.444 191.662 343.56 187.755" stroke="#1C0F00" stroke-linecap="round" stroke-linejoin="round"/>
<path d="M343.56 187.755C355.715 180.636 371.534 161.188 354.239 117.429" stroke="#1C0F00" stroke-linecap="round" stroke-linejoin="round"/>
<path d="M-161.354 377.116C-185.739 345.779 -66.9063 343.285 -17.2867 316.385C29.521 291.01 53.976 277.048 91.0553 272.71C128.135 268.371 184.042 281.966 214.748 295.271C245.455 308.576 253.276 296.138 293.252 295.271C333.228 294.403 340.76 302.791 361.328 316.385C381.895 329.98 478.649 323.038 511.962 350.227C545.276 377.416 478.069 393.613 456.922 397.663C435.776 401.712 421.292 399.687 367.99 418.199C314.689 436.711 327.724 393.324 281.665 415.017C235.606 436.711 199.975 415.596 146.963 421.091C93.9511 426.587 58.741 438.065 11.102 408.943C-22.7128 388.272 -130.068 417.321 -161.354 377.116Z" fill="#00B261" stroke="#1C0F00" stroke-linecap="round" stroke-linejoin="round"/>
<path d="M304.75 288.296C310.48 291.161 309.699 297.673 308.657 300.017L326.108 303.403C320.378 293.245 323.243 285.952 326.889 281.784C318.294 285.431 316.123 290.814 315.429 293.505C312.303 289.338 307.441 288.209 304.75 288.296Z" fill="#00B261"/>
<path d="M308.136 300.798C309.177 298.454 310.48 291.161 304.75 288.296C307.441 288.209 312.303 289.338 315.429 293.505C316.123 290.814 318.294 285.431 326.889 281.784C323.243 285.952 320.378 293.245 326.108 303.403" stroke="#1C0F00" stroke-linecap="round" stroke-linejoin="round"/>
<path d="M175.037 327.106C163.316 331.794 159.322 341.432 157.846 344.557C161.753 345.599 173.058 347.526 187.019 346.901C177.902 344.557 179.205 334.399 183.112 332.315C174.568 332.315 170.349 336.917 169.567 339.348C169.15 334.555 173.214 328.148 175.037 327.106Z" fill="#00B261"/>
<path d="M157.846 344.557C159.322 341.432 163.316 331.794 175.037 327.106C173.214 328.148 169.15 334.555 169.567 339.348C170.349 336.917 174.568 332.315 183.112 332.315C179.205 334.399 177.902 344.557 187.019 346.901" stroke="#1C0F00" stroke-linecap="round" stroke-linejoin="round"/>
<path d="M181.624 273.97C186.686 282.264 182.467 289.234 179.725 291.682C184.31 294.599 188.104 291.314 189.428 289.306C190.778 281.357 184.788 275.77 181.624 273.97Z" fill="#00B261"/>
<path d="M179.725 291.682C182.467 289.234 186.686 282.264 181.624 273.97C184.788 275.77 190.778 281.357 189.428 289.306" stroke="#1C0F00" stroke-linecap="round" stroke-linejoin="round"/>
<path d="M64.0782 266.156C75.7992 270.845 79.7931 280.482 81.269 283.607C77.362 284.649 66.0577 286.577 52.0966 285.952C61.213 283.607 59.9107 273.449 56.0037 271.365C64.547 271.365 68.7666 275.967 69.548 278.398C69.9647 273.606 65.9014 267.198 64.0782 266.156Z" fill="#00B261"/>
<path d="M81.269 283.607C79.7931 280.482 75.7992 270.845 64.0782 266.156C65.9014 267.198 69.9647 273.606 69.548 278.398C68.7666 275.967 64.547 271.365 56.0037 271.365C59.9107 273.449 61.213 283.607 52.0966 285.952" stroke="#1C0F00" stroke-linecap="round" stroke-linejoin="round"/>
<path d="M352.593 346.746C352.717 346.756 352.84 346.761 352.963 346.763L352.593 346.746C346.615 346.267 339.351 335.938 346.089 326.584C340.897 327.953 335.564 335.089 336.49 340.482C336.058 337.965 334.441 332.299 325.982 331.1C329.558 333.712 329.385 344.21 320.03 345.252L352.593 346.746Z" fill="#00B261"/>
<path d="M351.635 343.515C345.123 343.515 339.132 334.399 346.09 326.585C340.897 327.953 336.903 334.215 337.83 339.608C337.397 337.092 334.441 332.299 325.982 331.1C328.121 332.719 329.641 342.405 321.797 343.924" stroke="#1C0F00" stroke-linecap="round" stroke-linejoin="round"/>
<ellipse cx="94.7754" cy="326.585" rx="63.0332" ry="9.89778" fill="#1C0F00"/>
<ellipse cx="233.902" cy="316.687" rx="63.0332" ry="9.89778" fill="#1C0F00"/>
<path d="M166.702 257.821C142.363 244.524 144.822 212.499 156.544 196.35L177.902 191.402C166.094 205.814 155.932 233.439 175.298 243.235C193.015 252.197 217.186 234.114 226.87 217.889C224.786 215.625 223.139 210.822 224.526 204.946C227.741 191.321 251.093 187.234 259.428 205.514C259.428 205.514 311.79 314.082 288.678 314.082H224.005C199.781 314.082 187.237 283.176 206.814 268.5C209.569 266.293 212.653 264.705 215.949 263.655C217.034 258.575 220.322 252.083 225.506 246.969C207.81 264.039 184.096 267.323 166.702 257.821Z" fill="#EEB36F"/>
<path d="M226.87 217.889C224.786 215.625 223.139 210.822 224.526 204.946C227.741 191.321 251.093 187.234 259.428 205.514C259.428 205.514 311.79 314.082 288.678 314.082H224.005C199.781 314.082 187.237 283.176 206.814 268.5C209.569 266.293 212.653 264.705 215.949 263.655M226.87 217.889C217.186 234.114 193.015 252.197 175.298 243.235C155.932 233.439 166.094 205.814 177.902 191.402L156.544 196.35C144.822 212.499 142.363 244.524 166.702 257.821C184.213 267.387 208.131 263.994 225.864 246.621M226.87 217.889C228.81 214.638 230.169 211.462 230.777 208.593M272.712 283.607C261.816 269.739 235.233 257.513 215.949 263.655M215.949 263.655C217.059 258.459 220.473 251.785 225.864 246.621M225.864 246.621C231.667 240.936 236.429 234.407 240.154 226.044" stroke="#1C0F00" stroke-linecap="round" stroke-linejoin="round"/>
<path d="M140.819 331.335C156.595 323.447 155.717 307.603 153.557 299.715L213.064 197.913C201.355 186.904 193.912 196.707 191.655 202.984L150.031 258.863C151.073 239.849 145.603 217.491 131.277 209.635C98.7188 191.78 73.1929 213.542 67.2021 230.212C81.2674 231.254 102.268 236.805 119.318 266.177C128.876 282.642 139.883 317.165 140.819 331.335Z" fill="#EEB36F"/>
<path d="M297.223 157.319C289.993 153.75 272.715 153.657 263.7 166.333C257.744 174.709 258.911 182.954 260.601 186.898C262.33 190.932 266.119 193.285 268.523 194.528C263.88 199.717 261.541 207.917 265.109 216.759C271.361 232.253 291.87 228.872 298.35 222.675C299.758 226.055 307.195 232.14 316.661 228.309C322.27 226.038 325.094 221.678 325.911 216.759C332.436 217.041 344.38 211.35 343.704 191.969C342.859 167.742 325.91 158.727 316.896 158.727C317.464 141.87 317.265 111.33 316.661 104.076C315.815 93.9347 310.181 82.0961 298.068 78.1593C289.053 75.2296 278.11 76.9871 272.194 78.9591C268.077 83.9474 263.383 94.7983 277.547 98.2958C282.054 94.9154 292.321 94.78 295.251 102.668C298.181 110.556 297.786 142.388 297.223 157.319Z" fill="#EEB36F"/>
<path d="M268.523 194.528C266.119 193.285 262.33 190.932 260.601 186.898C258.911 182.954 257.744 174.709 263.7 166.333C272.715 153.657 289.993 153.75 297.223 157.319C297.786 142.388 298.181 110.556 295.251 102.668C292.321 94.78 282.054 94.9154 277.547 98.2958C263.383 94.7983 268.077 83.9474 272.194 78.9591C278.11 76.9871 289.053 75.2296 298.068 78.1593C310.181 82.0961 315.815 93.9347 316.661 104.076C317.265 111.33 317.464 141.87 316.896 158.727M268.523 194.528C263.88 199.717 261.541 207.917 265.109 216.759C271.361 232.253 291.87 228.872 298.35 222.675M268.523 194.528C272.016 190.625 276.813 188.425 281.38 188.938M303.139 203.237C303.89 207.838 303.564 217.687 298.35 222.675M298.35 222.675C299.758 226.055 307.195 232.14 316.661 228.309C322.27 226.038 325.094 221.678 325.911 216.759M281.38 188.938C279.893 181.868 275.968 178.834 273.559 178.165M281.38 188.938C281.979 191.79 282.182 195.299 281.729 199.575M325.911 216.759C332.436 217.041 344.38 211.35 343.704 191.969C342.859 167.742 325.91 158.727 316.896 158.727M325.911 216.759C326.818 211.303 325.257 205.16 322.295 200.42M316.896 158.727C316.828 160.724 316.75 162.528 316.661 164.08" stroke="#1C0F00" stroke-linecap="round" stroke-linejoin="round"/>
<path d="M86.2176 278.398C68.4867 252.286 67.4639 239.1 67.4639 230.733C80.4749 230.733 102.177 236.587 119.228 265.958C128.786 282.424 139.792 316.947 140.729 331.116C125.235 323.51 101.712 301.216 86.2176 278.398Z" fill="#1C0F00"/>
<path d="M149.371 307.087L213.847 196.638C202.137 185.628 194.695 195.431 192.437 201.708L150.293 258.361M153.596 299.763C155.756 307.651 156.505 323.229 140.729 331.116M140.729 331.116C125.235 323.51 101.712 301.216 86.2176 278.398C68.4867 252.286 67.4639 239.1 67.4639 230.733M140.729 331.116C139.792 316.947 128.786 282.424 119.228 265.958C102.177 236.587 80.4749 230.733 67.4639 230.733M148.209 272.407C151.926 252.742 150.66 222.86 132.841 210.677C102.367 189.839 70.8499 214.063 67.4639 230.733" stroke="#1C0F00" stroke-linecap="round" stroke-linejoin="round"/>
<path d="M59.5338 157.319C66.7642 153.75 84.0421 153.657 93.0567 166.333C99.0129 174.709 97.8455 182.954 96.1556 186.898C94.4272 190.932 90.6377 193.285 88.234 194.529C92.877 199.717 95.2161 207.917 91.648 216.759C85.3954 232.253 64.8866 228.872 58.4071 222.675C56.9986 226.055 49.5615 232.14 40.0962 228.309C34.4864 226.038 31.6631 221.678 30.8455 216.759C24.3207 217.041 12.3763 211.35 13.0524 191.969C13.8976 167.742 30.8467 158.727 39.8612 158.727C39.2926 141.87 39.4917 111.33 40.0962 104.076C40.9413 93.9347 46.5755 82.0962 58.6888 78.1593C67.7034 75.2296 79.5072 75.7593 87.395 79.4215C91.4516 98.3521 83.2633 99.7043 78.6621 98.0141C74.1548 94.6337 64.4356 94.78 61.5059 102.668C58.5761 110.556 58.9703 142.388 59.5338 157.319Z" fill="#EEB36F"/>
<path d="M88.234 194.529C90.6377 193.285 94.4272 190.932 96.1556 186.898C97.8455 182.954 99.0129 174.709 93.0567 166.333C84.0421 153.657 66.7642 153.75 59.5338 157.319C58.9703 142.388 58.5761 110.556 61.5059 102.668C64.4356 94.78 74.1548 94.6337 78.6621 98.0141M88.234 194.529C92.877 199.717 95.2161 207.917 91.648 216.759C85.3954 232.253 64.8866 228.872 58.4071 222.675M88.234 194.529C84.7409 190.625 79.9438 188.425 75.3772 188.938M53.618 203.237C52.8668 207.838 53.193 217.687 58.4071 222.675M58.4071 222.675C56.9986 226.055 49.5615 232.14 40.0962 228.309C34.4864 226.038 31.6631 221.678 30.8455 216.759M75.3772 188.938C76.8638 181.868 80.7887 178.834 83.1975 178.165M75.3772 188.938C74.7775 191.79 74.5745 195.299 75.028 199.575M87.395 79.4215C79.5072 75.7593 67.7034 75.2296 58.6888 78.1593C46.5755 82.0962 40.9413 93.9347 40.0962 104.076C39.4917 111.33 39.2926 141.87 39.8612 158.727M30.8455 216.759C24.3207 217.041 12.3763 211.35 13.0524 191.969C13.8976 167.742 30.8467 158.727 39.8612 158.727M30.8455 216.759C29.9388 211.303 31.4994 205.16 34.4621 200.42M39.8612 158.727C39.9286 160.724 40.0067 162.528 40.0962 164.08" stroke="#1C0F00" stroke-linecap="round" stroke-linejoin="round"/>
<path d="M143.896 26.214C139.704 24.5546 128.385 23.6462 119.791 30.144C113.818 34.9005 111.109 40.4256 110.062 45.3407C103.261 46.7381 88.3504 56.0829 92.8226 76.3037C88.5385 78.3275 83.6804 82.1671 81.0136 88.834C76.8215 99.3143 80.6644 108.921 83.1099 112.415C75.3545 132.746 85.2461 143.768 91.1613 146.738C91.3176 151.919 92.7074 157.603 96.4729 162.72C101.053 168.944 106.723 171.511 111.669 172.273C113.556 187.365 128.437 191.017 135.674 189.707C138.794 193.688 143.389 197.343 149.398 198.877C164.378 202.702 172.455 198.179 174.551 195.733C175.861 197.742 180.577 201.864 188.962 202.283C199.023 202.703 204.109 198.091 205.395 195.733C211.156 198.319 218.808 199.543 226.429 195.733C232.775 192.56 236.341 188.031 238.306 183.659C256.961 181.144 260.315 166.44 259.704 159.391C264.351 157.588 269.463 154.2 272.28 148.31C276.891 138.668 274.201 128.222 272.28 124.205C274.638 121.847 278.987 115.978 278.568 105.078C278.149 94.1789 273.415 90.0328 270.708 88.1431C272.113 83.8753 273.028 78.4645 271.756 73.3755C269.66 64.9913 262.296 61.1485 258.876 60.2751C258.448 55.748 256.891 50.5753 252.892 44.8167C247.651 37.2708 237.433 34.1617 232.979 33.5503C227.948 20.9739 215.512 20.6974 209.922 22.1312C207.114 19.1866 202.826 16.2289 196.56 14.4235C187.956 11.9443 180.67 14.8815 175.975 18.3539C173.268 16.3451 166.586 12.7467 157.782 14.4236C148.979 16.1004 144.682 23.0699 143.896 26.214Z" fill="#EEB36F"/>
<path d="M110.097 56.0829C109.519 53.6493 109.125 49.7393 110.062 45.3407M175.975 18.3539C173.268 16.3451 166.586 12.7467 157.782 14.4236C148.979 16.1004 144.682 23.0699 143.896 26.214C139.704 24.5546 128.385 23.6462 119.791 30.144C113.818 34.9005 111.109 40.4256 110.062 45.3407M175.975 18.3539C180.67 14.8815 187.956 11.9443 196.56 14.4235C202.826 16.2289 207.114 19.1866 209.922 22.1312M175.975 18.3539C173.922 19.8722 172.364 21.493 171.407 22.8078M214.376 29.62C213.988 27.8535 212.657 24.9985 209.922 22.1312M209.922 22.1312C215.512 20.6974 227.948 20.9739 232.979 33.5503C237.433 34.1617 247.651 37.2708 252.892 44.8167C256.891 50.5753 258.448 55.748 258.876 60.2751M258.656 68.1354C258.962 65.7883 259.149 63.1631 258.876 60.2751M258.876 60.2751C262.296 61.1485 269.66 64.9913 271.756 73.3755C273.028 78.4645 272.113 83.8753 270.708 88.1431M267.826 94.5981C268.684 93.1908 269.799 90.9066 270.708 88.1431M270.708 88.1431C273.415 90.0328 278.149 94.1789 278.568 105.078C278.987 115.978 274.638 121.847 272.28 124.205C274.201 128.222 276.891 138.668 272.28 148.31C269.463 154.2 264.351 157.588 259.704 159.391M252.106 161.148C253.974 161.046 256.745 160.54 259.704 159.391M259.704 159.391C260.315 166.44 256.961 181.144 238.306 183.659M238.306 183.659C236.341 188.031 232.775 192.56 226.429 195.733C218.808 199.543 211.156 198.319 205.395 195.733M238.306 183.659C240.235 179.368 240.62 175.229 240.577 172.676M197.084 189.969C198.701 191.793 201.648 194.051 205.395 195.733M205.395 195.733C204.109 198.091 199.023 202.703 188.962 202.283C180.577 201.864 175.861 197.742 174.551 195.733C172.455 198.179 164.378 202.702 149.398 198.877C143.389 197.343 138.794 193.687 135.674 189.707M130.796 178.179C130.751 180.996 132.401 185.53 135.674 189.707M135.674 189.707C128.437 191.017 113.556 187.365 111.669 172.273M111.669 172.273C106.723 171.511 101.053 168.944 96.4729 162.72C92.7074 157.603 91.3176 151.919 91.1613 146.738M111.669 172.273C115.552 172.872 118.989 172.358 121.101 171.628M93.8528 132.327C92.4867 135.295 90.9784 140.671 91.1613 146.738M110.062 45.3407C103.261 46.7381 88.3504 56.0829 92.8226 76.3037M92.8226 76.3037C88.5385 78.3275 83.6804 82.1671 81.0136 88.834C76.8215 99.3143 80.6644 108.921 83.1099 112.415C75.3545 132.746 85.2461 143.768 91.1613 146.738M92.8226 76.3037C95.273 75.146 97.5355 74.5824 99.0928 74.4235" stroke="#1C0F00" stroke-linecap="round" stroke-linejoin="round"/>
<path d="M233.243 133.454C233.577 138.589 227.315 148.103 217.965 145.799M211.254 142.288C213.62 144.173 215.87 145.283 217.965 145.799M217.965 145.799C216.69 148.174 212.793 152.014 207.402 148.381" stroke="#1C0F00" stroke-linecap="round" stroke-linejoin="round"/>
<path d="M115.717 141.272C119.338 141.916 124.597 147.839 119.688 154.436" stroke="#1C0F00" stroke-linecap="round" stroke-linejoin="round"/>
<path d="M263.503 111.249C260.485 113.349 253.457 113.797 252.275 105.66" stroke="#1C0F00" stroke-linecap="round" stroke-linejoin="round"/>
<path d="M222.741 85.5382C221.057 81.5963 223.466 73.9911 230.661 72.0273M237.259 71.8036C234.727 71.3874 232.532 71.5166 230.661 72.0273M230.661 72.0273C229.341 69.8628 227.561 64.6001 230.996 60.8659" stroke="#1C0F00" stroke-linecap="round" stroke-linejoin="round"/>
<path d="M159.857 99.4225C159.857 110.183 151.417 118.36 140.637 118.36C129.858 118.36 121.136 109.902 121.136 99.1408C121.136 88.3517 129.322 79.6396 140.074 79.6396C151.617 79.6396 159.857 88.6395 159.857 99.4225Z" fill="#FFF3E1" stroke="#1C0F00"/>
<circle cx="144.3" cy="103" r="15.2121" fill="#1C0F00"/>
<path d="M117.82 102.24C112.637 101.113 107.397 104.775 106.833 107.592L115.285 122.522C116.975 123.367 124.581 121.396 125.708 115.761C126.835 110.127 124.299 103.648 117.82 102.24Z" fill="#EEB36F"/>
<path d="M105.988 109.456C106.294 105.579 110.952 101.493 116.681 102.001C123.401 102.597 127.678 110.052 125.845 116.015C124.055 121.84 117.597 123.47 115.764 122.575" stroke="#1C0F00" stroke-linecap="round" stroke-linejoin="round"/>
<path d="M146.835 151.256C150.685 153.322 160.357 155.651 168.245 148.439" stroke="#1C0F00" stroke-linecap="round" stroke-linejoin="round"/>
<path d="M188.874 99.4225C188.874 110.193 180.143 118.924 169.373 118.924C158.603 118.924 149.59 109.911 149.59 99.1408C149.59 88.3706 158.321 79.6396 169.091 79.6396C180.634 79.6396 188.874 88.6395 188.874 99.4225Z" fill="#FFF3E1" stroke="#1C0F00" stroke-linejoin="round"/>
<circle cx="173.034" cy="103" r="15.2121" fill="#1C0F00"/>
<circle cx="163.8" cy="93.4659" r="5.46983" fill="#FFF3E1"/>
<circle cx="135.148" cy="93.4659" r="5.46983" fill="#FFF3E1"/>
<path d="M142.892 118.015C140.413 114.86 139.23 114.635 137.539 114.916C136.424 115.102 134.112 116.502 133.314 123.086C132.186 132.382 137.258 149.284 155.569 148.157C173.88 147.031 175.006 130.973 174.443 125.058C173.88 119.142 171.344 114.071 168.245 113.226C165.147 112.381 164.39 114.684 162.611 117.733C160.64 121.114 157.26 123.086 152.752 123.086C149.09 123.086 145.991 121.959 142.892 118.015Z" fill="#FDDEDC" stroke="#1C0F00" stroke-linecap="round" stroke-linejoin="round"/>
<path d="M163.546 129.283C170.307 133.791 170.025 142.524 166.644 144.496C163.039 147.425 155.094 149.003 149.742 147.876C153.122 146.073 153.628 142.993 153.459 141.678C152.527 142.037 151.536 142.202 150.587 142.157C146.74 141.976 142.781 139.125 143.263 134.636C144.108 126.748 155.094 123.649 163.546 129.283Z" fill="#FFBAC2"/>
<path d="M157.629 134.354C158.254 138.101 156.095 140.664 153.459 141.678M153.459 141.678C152.527 142.037 151.536 142.202 150.587 142.157C146.74 141.976 142.781 139.125 143.263 134.636C144.108 126.748 155.094 123.649 163.546 129.283C170.307 133.791 170.025 142.524 166.644 144.496C163.039 147.425 155.094 149.003 149.742 147.876C153.122 146.073 153.628 142.993 153.459 141.678Z" stroke="#1C0F00" stroke-linecap="round" stroke-linejoin="round"/>
<path d="M175.213 70.4182C176.938 71.2248 177.925 72.0363 178.392 72.7645C178.835 73.4559 178.821 74.084 178.491 74.6709C178.14 75.2962 177.405 75.9148 176.324 76.4377C175.253 76.9558 173.891 77.3567 172.359 77.5761C169.132 78.038 165.84 77.7413 163.373 76.9363C162.138 76.5334 161.138 76.0122 160.457 75.4199C159.777 74.8295 159.449 74.2031 159.449 73.5679C159.449 72.3949 160.068 71.485 161.161 70.7873C162.268 70.0801 163.825 69.6207 165.568 69.391C169.062 68.9304 173.078 69.4194 175.213 70.4182Z" fill="#6C3712" stroke="#1C0F00" stroke-linejoin="round"/>
<path d="M127.954 75.3874C127.199 74.728 126.802 73.998 126.772 73.2304C126.776 72.5788 127.197 71.4827 128.682 70.5909C130.178 69.6926 132.756 69.0082 137.004 69.275C139.646 69.441 141.633 69.9872 143.016 70.7109C144.403 71.4369 145.145 72.3191 145.393 73.1459C145.635 73.9519 145.435 74.7956 144.74 75.5503C144.035 76.3165 142.814 76.9891 141.055 77.3472C137.475 78.0759 133.873 77.8734 131.17 77.0382C129.818 76.6204 128.716 76.0523 127.954 75.3874Z" fill="#6C3712" stroke="#1C0F00" stroke-linejoin="round"/>
<path d="M162.891 176.855C164.644 175.025 169.408 172.758 174.438 178.334C174.429 176.771 175.215 173.411 178.429 172.466" stroke="#1C0F00" stroke-linecap="round" stroke-linejoin="round"/>
<path d="M193.317 105.339C200.303 106.015 203.364 110.316 204.021 112.381L191.908 127.312C190.218 127.312 184.302 126.748 181.767 120.551C179.231 114.353 184.584 104.494 193.317 105.339Z" fill="#EEB36F"/>
<path d="M204.022 112.381C203.459 109.846 200.078 105.738 193.035 105.057C184.303 104.211 179.231 114.071 181.767 120.269C184.302 126.467 190.218 127.311 191.909 127.311" stroke="#1C0F00" stroke-linecap="round" stroke-linejoin="round"/>
<circle cx="195.576" cy="109.615" r="0.781404" fill="#1C0F00"/>
<circle cx="117.957" cy="108.052" r="0.781404" fill="#1C0F00"/>
<circle cx="186.721" cy="114.303" r="0.781404" fill="#1C0F00"/>
<circle cx="111.185" cy="108.052" r="0.781404" fill="#1C0F00"/>
<circle cx="191.93" cy="115.866" r="0.781404" fill="#1C0F00"/>
<circle cx="115.353" cy="114.303" r="0.781404" fill="#1C0F00"/>
<circle cx="199.224" cy="114.303" r="0.781404" fill="#1C0F00"/>
<circle cx="121.603" cy="114.303" r="0.781404" fill="#1C0F00"/>
<path d="M113.176 65.3493C114.835 64.5633 117.42 61.5764 114.486 55.9171C116.931 60.6332 127.586 64.0393 131.516 54.607" stroke="#1C0F00" stroke-linecap="round" stroke-linejoin="round"/>
<path d="M163.145 40.1002C167.861 37.48 179.127 37.4803 181.431 47.6985M181.485 52.4147C181.747 51.3667 181.647 48.6573 181.431 47.6985M181.431 47.6985C185.677 45.8646 193.537 48.7467 192.751 57.3928" stroke="#1C0F00" stroke-linecap="round" stroke-linejoin="round"/>
<path d="M215.751 318.613C211.82 320.61 211.143 323.677 211.307 324.925L215.751 329.843H222.262C222.876 330.092 225.701 328.845 226.316 325.85C227.298 320.485 220.665 316.118 215.751 318.613Z" fill="#FFA41C"/>
<path d="M213.911 326.748C214.405 326.117 216.033 324.712 218.599 324.144M211.307 324.925C211.143 323.677 211.82 320.61 215.751 318.613C220.665 316.118 227.298 320.485 226.316 325.85C225.701 328.845 222.876 330.092 222.262 329.843H215.751L211.307 324.925Z" stroke="#1C0F00" stroke-linecap="round" stroke-linejoin="round"/>
<path d="M208.535 316.742C211.993 318.837 211.646 323.304 211.046 324.925L202.804 327.942L200.367 326.748C199.286 326.582 196.854 324.961 197.335 321.17C197.935 316.431 204.211 314.123 208.535 316.742Z" fill="#FFA41C"/>
<path d="M206.618 324.925C206.693 324.376 206.097 322.32 204.013 320.497M211.046 324.925C211.646 323.304 211.993 318.837 208.535 316.742C204.211 314.123 197.935 316.431 197.335 321.17C196.854 324.961 199.286 326.582 200.367 326.748L202.804 327.942L211.046 324.925Z" stroke="#1C0F00" stroke-linecap="round" stroke-linejoin="round"/>
<path d="M210.522 324.807C205.966 324.079 203.59 326.321 202.971 327.533C203.839 328.748 206.201 331.28 208.701 331.697C211.827 332.218 215.213 330.395 215.473 328.832C214.895 327.707 213.096 325.326 210.522 324.807Z" fill="#FFE900" stroke="#1C0F00" stroke-linecap="round" stroke-linejoin="round"/>
<path d="M197.335 339.142C190.137 336.277 192.291 327.622 197.76 326.748C201.181 326.201 202.509 327.663 203.309 328.702C205.803 328.263 208.418 329.345 208.679 332.512C209.054 337.07 203.591 341.633 197.335 339.142Z" fill="#FFA41C"/>
<path d="M199.939 330.286C200.779 329.554 202.213 328.894 203.309 328.702M203.309 328.702C202.509 327.663 201.181 326.201 197.76 326.748C192.291 327.622 190.137 336.277 197.335 339.142C203.591 341.633 209.054 337.07 208.679 332.512C208.418 329.345 205.803 328.263 203.309 328.702Z" stroke="#1C0F00" stroke-linecap="round" stroke-linejoin="round"/>
<path d="M221.866 338.042C226.091 333.512 222.612 328.491 219.128 327.878C216.394 327.398 214.824 328.527 214.206 329.554C211.918 328.71 209.202 329.333 208.441 332.999C207.068 339.612 217.432 342.797 221.866 338.042Z" fill="#FFA41C"/>
<path d="M217.386 332.409C216.856 331.147 215.612 330.073 214.206 329.554M214.206 329.554C211.918 328.71 209.202 329.333 208.441 332.999C207.068 339.612 217.432 342.797 221.866 338.042C226.091 333.512 222.612 328.491 219.128 327.878C216.394 327.398 214.824 328.527 214.206 329.554Z" stroke="#1C0F00" stroke-linecap="round" stroke-linejoin="round"/>
<path d="M257.531 310.436C252.469 318.73 256.687 325.7 259.43 328.148C254.845 331.065 251.051 327.779 249.727 325.772C248.377 317.823 254.367 312.236 257.531 310.436Z" fill="#00B261"/>
<path d="M259.43 328.148C256.687 325.7 252.469 318.73 257.531 310.436C254.367 312.236 248.377 317.823 249.727 325.772" stroke="#1C0F00" stroke-linecap="round" stroke-linejoin="round"/>
<path d="M65.9024 314.864C61.9954 317.989 58.6093 328.148 63.5582 335.962C67.1898 341.696 46.6278 336.222 41.6789 335.18C48.1906 332.315 44.2835 322.157 40.8975 321.376C47.9301 320.594 51.9239 324.848 52.6185 326.064C54.4939 322.313 59.3907 315.906 65.9024 314.864Z" fill="#00B261"/>
<path d="M65.3807 339.608C57.0457 330.231 62.2551 316.948 66.683 314.603C58.869 315.906 54.4931 322.313 52.6178 326.064C51.9232 324.848 47.6689 320.594 40.6362 321.376C44.0223 322.157 48.1898 331.794 42.199 335.18" stroke="#1C0F00" stroke-linecap="round" stroke-linejoin="round"/>
<path d="M54.261 284.231C50.33 286.228 49.6527 289.295 49.8165 290.543L54.261 295.461H60.7717C61.3859 295.71 64.2113 294.463 64.8255 291.468C65.8082 286.103 59.1747 281.736 54.261 284.231Z" fill="#FFBAC2"/>
<path d="M52.4208 292.366C52.9143 291.735 54.5429 290.33 57.1092 289.762M49.8165 290.543C49.6527 289.295 50.33 286.228 54.261 284.231C59.1747 281.736 65.8082 286.103 64.8255 291.468C64.2113 294.463 61.3859 295.71 60.7717 295.461H54.261L49.8165 290.543Z" stroke="#1C0F00" stroke-linecap="round" stroke-linejoin="round"/>
<path d="M47.0449 282.36C50.5036 284.455 50.1565 288.922 49.556 290.543L41.3146 293.56L38.8768 292.366C37.796 292.2 35.3644 290.579 35.8448 286.788C36.4453 282.049 42.7215 279.741 47.0449 282.36Z" fill="#FFBAC2"/>
<path d="M45.128 290.543C45.2032 289.994 44.607 287.938 42.5233 286.115M49.556 290.543C50.1565 288.922 50.5036 284.455 47.0449 282.36C42.7215 279.741 36.4453 282.049 35.8448 286.788C35.3644 290.579 37.796 292.2 38.8768 292.366L41.3146 293.56L49.556 290.543Z" stroke="#1C0F00" stroke-linecap="round" stroke-linejoin="round"/>
<path d="M49.0319 290.425C44.4766 289.697 42.0999 291.939 41.481 293.151C42.3492 294.366 44.7108 296.898 47.2112 297.315C50.3369 297.836 53.7229 296.013 53.9834 294.45C53.4057 293.325 51.6067 290.944 49.0319 290.425Z" fill="#FFE900" stroke="#1C0F00" stroke-linecap="round" stroke-linejoin="round"/>
<path d="M35.8444 304.76C28.6469 301.895 30.8008 293.241 36.2701 292.366C39.691 291.82 41.0191 293.282 41.8185 294.32C44.3132 293.881 46.9281 294.963 47.1888 298.13C47.5639 302.689 42.1006 307.251 35.8444 304.76Z" fill="#FFBAC2"/>
<path d="M38.4491 295.904C39.2889 295.172 40.7225 294.512 41.8185 294.32M41.8185 294.32C41.0191 293.282 39.691 291.82 36.2701 292.366C30.8008 293.241 28.6469 301.895 35.8444 304.76C42.1006 307.251 47.5639 302.689 47.1888 298.13C46.9281 294.963 44.3132 293.881 41.8185 294.32Z" stroke="#1C0F00" stroke-linecap="round" stroke-linejoin="round"/>
<path d="M60.376 303.661C64.6008 299.13 61.1222 294.109 57.6383 293.497C54.9038 293.016 53.3343 294.146 52.7158 295.172C50.4279 294.328 47.7121 294.951 46.9509 298.617C45.5779 305.23 55.9426 308.415 60.376 303.661Z" fill="#FFBAC2"/>
<path d="M55.8963 298.027C55.3665 296.765 54.1219 295.691 52.7158 295.172M52.7158 295.172C50.4279 294.328 47.7121 294.951 46.9509 298.617C45.5779 305.23 55.9426 308.415 60.376 303.661C64.6008 299.13 61.1222 294.109 57.6383 293.497C54.9038 293.016 53.3343 294.146 52.7158 295.172Z" stroke="#1C0F00" stroke-linecap="round" stroke-linejoin="round"/>
<path d="M361.693 303.772C365.152 305.868 364.898 309.965 364.298 311.586L356.223 314.452L353.619 313.41C352.538 313.243 350.273 311.731 350.753 307.94C351.354 303.201 357.37 301.153 361.693 303.772Z" fill="#8BE3FF" stroke="#1C0F00" stroke-linecap="round" stroke-linejoin="round"/>
<path d="M359.87 311.586C359.945 311.037 359.349 308.982 357.265 307.158M364.298 311.586C364.898 309.965 365.152 305.868 361.693 303.772C357.37 301.153 351.354 303.201 350.753 307.94C350.273 311.731 352.538 313.243 353.619 313.41" stroke="#1C0F00" stroke-linecap="round" stroke-linejoin="round"/>
<path d="M363.776 311.468C359.22 310.741 356.844 312.983 356.225 314.195C357.093 315.409 359.454 317.942 361.955 318.358C365.081 318.879 368.467 317.056 368.727 315.493C368.149 314.368 366.35 311.987 363.776 311.468Z" fill="#FFE900" stroke="#1C0F00" stroke-linecap="round" stroke-linejoin="round"/>
<path d="M350.754 325.391C344.376 323.232 345.544 314.284 351.014 313.41C354.454 312.86 355.839 314.311 356.637 315.35C359.109 314.946 361.674 316.038 361.932 319.173C362.308 323.732 357.132 327.55 350.754 325.391Z" fill="#8BE3FF"/>
<path d="M353.553 316.774C356.305 314.375 361.557 314.615 361.932 319.173C362.308 323.732 357.132 327.55 350.754 325.391C344.376 323.232 345.544 314.284 351.014 313.41C354.459 312.859 355.842 314.315 356.64 315.354" stroke="#1C0F00" stroke-linecap="round" stroke-linejoin="round"/>
</svg>
