<svg width="209" height="29" viewBox="0 0 209 29" fill="none" xmlns="http://www.w3.org/2000/svg">
<path d="M19.4724 2.19867C15.9423 4.25787 16.1401 8.31482 16.753 9.90825C18.2328 11.9847 23.0608 15.3786 27.7659 11.9113C28.8691 11.7478 31.1222 9.64665 30.6319 5.92047C29.9807 0.97169 23.885 -0.375345 19.4724 2.19867Z" fill="#FF2F85" stroke="#1C0F00" stroke-linecap="round" stroke-linejoin="round"/>
<path d="M16.6487 9.88351L16.6533 9.92065L13.9567 13.9656L6.11213 14.3332C5.49927 14.5784 2.20398 14.3774 1.55494 10.8888C0.57436 5.61817 7.33785 1.34061 12.2407 3.79205C16.1358 5.73961 16.4287 8.10565 16.6487 9.88351Z" fill="#FF2F85" stroke="#1C0F00" stroke-linecap="round" stroke-linejoin="round"/>
<path d="M21.3137 9.8425C21.232 9.31136 22.1966 6.71213 24.0103 5.79763" stroke="#1C0F00" stroke-linecap="round" stroke-linejoin="round"/>
<path d="M13.8335 11.1465C13.3432 10.4928 11.8253 9.51623 9.27583 8.92789" stroke="#1C0F00" stroke-linecap="round" stroke-linejoin="round"/>
<path d="M17.0206 9.79804C21.5313 9.11164 24.0072 11.4733 24.6201 12.6173C24.8652 17.6427 17.3883 17.275 15.4272 16.417C13.8583 15.7306 12.7306 13.843 12.3629 12.9849C12.9349 11.9227 14.4711 10.2884 17.0206 9.79804Z" fill="#FFF3E1" stroke="#1C0F00" stroke-linecap="round" stroke-linejoin="round"/>
<path d="M6.11105 23.6487C1.63851 19.4196 5.35449 13.4288 8.78652 12.8161C11.8146 12.2754 13.0515 13.3855 13.6757 14.5143C16.0481 13.7401 18.7514 14.4216 19.4503 17.8415C20.8029 24.4604 10.648 27.9387 6.11105 23.6487Z" fill="#FF2F85"/>
<path d="M9.91294 18.0547C10.3779 16.4295 11.938 15.0814 13.6757 14.5143M13.6757 14.5143C16.0481 13.7401 18.7514 14.4216 19.4503 17.8415C20.8029 24.4604 10.648 27.9387 6.11105 23.6487C1.63851 19.4196 5.35449 13.4288 8.78652 12.8161C11.8146 12.2754 13.0515 13.3855 13.6757 14.5143Z" stroke="#1C0F00" stroke-linecap="round" stroke-linejoin="round"/>
<path d="M30.5149 23.448C37.0389 21.1461 35.5044 12.2151 30.0024 11.2985C26.3939 10.6974 24.9057 12.0101 23.9246 12.9055C21.5998 12.8003 19.3712 14.0622 19.1314 17.0995C18.7476 21.9592 23.9908 25.75 30.5149 23.448Z" fill="#FF2F85"/>
<path d="M27.8043 14.483C26.749 13.5238 25.3194 12.9686 23.9246 12.9055M23.9246 12.9055C21.5998 12.8003 19.3712 14.0622 19.1314 17.0995C18.7476 21.9592 23.9908 25.75 30.5149 23.448C37.0389 21.1461 35.5044 12.2151 30.0024 11.2985C26.3939 10.6974 24.9057 12.0101 23.9246 12.9055Z" stroke="#1C0F00" stroke-linecap="round" stroke-linejoin="round"/>
<path d="M192.424 4.28258C188.893 6.34179 189.091 10.3987 189.704 11.9922C191.184 14.0686 196.012 17.4625 200.717 13.9952C201.82 13.8317 204.073 11.7306 203.583 8.00439C202.932 3.05561 196.836 1.70857 192.424 4.28258Z" fill="#8BE3FF" stroke="#1C0F00" stroke-linecap="round" stroke-linejoin="round"/>
<path d="M189.6 11.9678L189.604 12.0049L186.908 16.0499L179.063 16.4175C178.45 16.6627 175.155 16.4617 174.506 12.9731C173.526 7.70246 180.289 3.4249 185.192 5.87634C189.087 7.82389 189.38 10.1899 189.6 11.9678Z" fill="#8BE3FF" stroke="#1C0F00" stroke-linecap="round" stroke-linejoin="round"/>
<path d="M194.264 11.9265C194.183 11.3954 195.147 8.79617 196.961 7.88167" stroke="#1C0F00" stroke-linecap="round" stroke-linejoin="round"/>
<path d="M186.784 13.2303C186.293 12.5766 184.776 11.6 182.226 11.0117" stroke="#1C0F00" stroke-linecap="round" stroke-linejoin="round"/>
<path d="M189.971 11.8821C194.482 11.1957 196.958 13.5573 197.571 14.7013C197.816 19.7268 190.339 19.359 188.378 18.501C186.809 17.8146 185.681 15.927 185.314 15.069C185.886 14.0067 187.422 12.3724 189.971 11.8821Z" fill="#FFE900" stroke="#1C0F00" stroke-linecap="round" stroke-linejoin="round"/>
<path d="M179.062 25.7329C174.589 21.5038 178.305 15.513 181.737 14.9002C184.765 14.3596 186.002 15.4696 186.626 16.5985C188.999 15.8242 191.702 16.5058 192.401 19.9256C193.754 26.5446 183.599 30.0229 179.062 25.7329Z" fill="#8BE3FF"/>
<path d="M182.864 20.1388C183.329 18.5137 184.889 17.1655 186.626 16.5985M186.626 16.5985C188.999 15.8242 191.702 16.5058 192.401 19.9256C193.754 26.5446 183.599 30.0229 179.062 25.7329C174.589 21.5038 178.305 15.513 181.737 14.9002C184.765 14.3596 186.002 15.4696 186.626 16.5985Z" stroke="#1C0F00" stroke-linecap="round" stroke-linejoin="round"/>
<path d="M203.464 25.5322C209.988 23.2302 208.453 14.2993 202.951 13.3827C199.343 12.7816 197.854 14.0943 196.873 14.9896C194.549 14.8845 192.32 16.1464 192.08 19.1837C191.696 24.0434 196.94 27.8342 203.464 25.5322Z" fill="#8BE3FF"/>
<path d="M200.753 16.5671C199.698 15.608 198.268 15.0527 196.873 14.9896M196.873 14.9896C194.549 14.8845 192.32 16.1464 192.08 19.1837C191.696 24.0434 196.94 27.8342 203.464 25.5322C209.988 23.2302 208.453 14.2993 202.951 13.3827C199.343 12.7816 197.854 14.0943 196.873 14.9896Z" stroke="#1C0F00" stroke-linecap="round" stroke-linejoin="round"/>
</svg>
