<svg width="36" height="27" viewBox="0 0 36 27" fill="none" xmlns="http://www.w3.org/2000/svg">
<path d="M19.4235 2.28258C15.8935 4.34179 16.0913 8.39874 16.7042 9.99217C18.184 12.0686 23.012 15.4625 27.7171 11.9952C28.8203 11.8317 31.0734 9.73057 30.5831 6.00439C29.9319 1.05561 23.8361 -0.291426 19.4235 2.28258Z" fill="#8BE3FF" stroke="#1C0F00" stroke-linecap="round" stroke-linejoin="round"/>
<path d="M16.5999 9.96779L16.6045 10.0049L13.9079 14.0499L6.06331 14.4175C5.45045 14.6627 2.15515 14.4617 1.50611 10.9731C0.525532 5.70246 7.28903 1.4249 12.1919 3.87634C16.087 5.82389 16.3799 8.18993 16.5999 9.96779Z" fill="#8BE3FF" stroke="#1C0F00" stroke-linecap="round" stroke-linejoin="round"/>
<path d="M21.2644 9.92654C21.1826 9.3954 22.1473 6.79617 23.9609 5.88167" stroke="#1C0F00" stroke-linecap="round" stroke-linejoin="round"/>
<path d="M13.7837 11.2303C13.2934 10.5766 11.7755 9.60003 9.22603 9.01168" stroke="#1C0F00" stroke-linecap="round" stroke-linejoin="round"/>
<path d="M16.9713 9.88208C21.482 9.19568 23.9579 11.5573 24.5708 12.7013C24.8159 17.7268 17.339 17.359 15.3779 16.501C13.809 15.8146 12.6813 13.927 12.3136 13.069C12.8856 12.0067 14.4218 10.3724 16.9713 9.88208Z" fill="#FFE900" stroke="#1C0F00" stroke-linecap="round" stroke-linejoin="round"/>
<path d="M6.06173 23.7329C1.5892 19.5038 5.30517 13.513 8.7372 12.9002C11.7653 12.3596 13.0022 13.4696 13.6264 14.5985C15.9988 13.8242 18.7021 14.5058 19.401 17.9256C20.7535 24.5446 10.5987 28.0229 6.06173 23.7329Z" fill="#8BE3FF"/>
<path d="M9.86363 18.1388C10.3286 16.5137 11.8887 15.1655 13.6264 14.5985M13.6264 14.5985C15.9988 13.8242 18.7021 14.5058 19.401 17.9256C20.7535 24.5446 10.5987 28.0229 6.06173 23.7329C1.58919 19.5038 5.30517 13.513 8.7372 12.9002C11.7653 12.3596 13.0022 13.4696 13.6264 14.5985Z" stroke="#1C0F00" stroke-linecap="round" stroke-linejoin="round"/>
<path d="M30.4636 23.5322C36.9877 21.2302 35.4531 12.2993 29.9511 11.3827C26.3427 10.7816 24.8544 12.0943 23.8733 12.9896C21.5485 12.8845 19.32 14.1464 19.0801 17.1837C18.6963 22.0434 23.9396 25.8342 30.4636 23.5322Z" fill="#8BE3FF"/>
<path d="M27.7531 14.5671C26.6977 13.608 25.2682 13.0527 23.8733 12.9896M23.8733 12.9896C21.5485 12.8845 19.32 14.1464 19.0801 17.1837C18.6963 22.0434 23.9396 25.8342 30.4636 23.5322C36.9877 21.2302 35.4531 12.2993 29.9511 11.3827C26.3427 10.7816 24.8544 12.0943 23.8733 12.9896Z" stroke="#1C0F00" stroke-linecap="round" stroke-linejoin="round"/>
</svg>
