<svg width="36" height="27" viewBox="0 0 36 27" fill="none" xmlns="http://www.w3.org/2000/svg">
<path d="M19.4724 2.19867C15.9423 4.25787 16.1401 8.31482 16.753 9.90825C18.2328 11.9847 23.0608 15.3786 27.7659 11.9113C28.8691 11.7478 31.1222 9.64665 30.6319 5.92047C29.9807 0.97169 23.885 -0.375345 19.4724 2.19867Z" fill="#FF2F85" stroke="#1C0F00" stroke-linecap="round" stroke-linejoin="round"/>
<path d="M16.6487 9.88351L16.6533 9.92065L13.9567 13.9656L6.11213 14.3332C5.49927 14.5784 2.20398 14.3774 1.55494 10.8888C0.57436 5.61817 7.33785 1.34061 12.2407 3.79205C16.1358 5.73961 16.4287 8.10565 16.6487 9.88351Z" fill="#FF2F85" stroke="#1C0F00" stroke-linecap="round" stroke-linejoin="round"/>
<path d="M21.3137 9.8425C21.232 9.31136 22.1966 6.71213 24.0103 5.79763" stroke="#1C0F00" stroke-linecap="round" stroke-linejoin="round"/>
<path d="M13.8335 11.1465C13.3432 10.4928 11.8253 9.51623 9.27583 8.92789" stroke="#1C0F00" stroke-linecap="round" stroke-linejoin="round"/>
<path d="M17.0206 9.79804C21.5313 9.11164 24.0072 11.4733 24.6201 12.6173C24.8652 17.6427 17.3883 17.275 15.4272 16.417C13.8583 15.7306 12.7306 13.843 12.3629 12.9849C12.9349 11.9227 14.4711 10.2884 17.0206 9.79804Z" fill="#FFF3E1" stroke="#1C0F00" stroke-linecap="round" stroke-linejoin="round"/>
<path d="M6.11105 23.6487C1.63851 19.4196 5.35449 13.4288 8.78652 12.8161C11.8146 12.2754 13.0515 13.3855 13.6757 14.5143C16.0481 13.7401 18.7514 14.4216 19.4503 17.8415C20.8029 24.4604 10.648 27.9387 6.11105 23.6487Z" fill="#FF2F85"/>
<path d="M9.91294 18.0547C10.3779 16.4295 11.938 15.0814 13.6757 14.5143M13.6757 14.5143C16.0481 13.7401 18.7514 14.4216 19.4503 17.8415C20.8029 24.4604 10.648 27.9387 6.11105 23.6487C1.63851 19.4196 5.35449 13.4288 8.78652 12.8161C11.8146 12.2754 13.0515 13.3855 13.6757 14.5143Z" stroke="#1C0F00" stroke-linecap="round" stroke-linejoin="round"/>
<path d="M30.5149 23.448C37.0389 21.1461 35.5044 12.2151 30.0024 11.2985C26.3939 10.6974 24.9057 12.0101 23.9246 12.9055C21.5998 12.8003 19.3712 14.0622 19.1314 17.0995C18.7476 21.9592 23.9908 25.75 30.5149 23.448Z" fill="#FF2F85"/>
<path d="M27.8043 14.483C26.749 13.5238 25.3194 12.9686 23.9246 12.9055M23.9246 12.9055C21.5998 12.8003 19.3712 14.0622 19.1314 17.0995C18.7476 21.9592 23.9908 25.75 30.5149 23.448C37.0389 21.1461 35.5044 12.2151 30.0024 11.2985C26.3939 10.6974 24.9057 12.0101 23.9246 12.9055Z" stroke="#1C0F00" stroke-linecap="round" stroke-linejoin="round"/>
</svg>
