<svg width="82" height="82" viewBox="0 0 82 82" fill="none" xmlns="http://www.w3.org/2000/svg">
<rect x="-1" y="1" width="80" height="80" rx="40" transform="matrix(-1 0 0 1 80 0)" stroke="#1C0F00" stroke-width="2"/>
<path d="M31.0874 29.2111C31.0874 29.9229 30.9455 30.6064 30.6618 31.2613C30.4064 31.9162 30.0375 32.4858 29.5552 32.9699C29.0728 33.4255 28.5195 33.7956 27.8953 34.0804C27.2711 34.3652 26.5901 34.5075 25.8524 34.5075C25.143 34.5075 24.462 34.3652 23.8094 34.0804C23.1852 33.7956 22.6319 33.4255 22.1495 32.9699C21.6955 32.4858 21.3267 31.9162 21.0429 31.2613C20.7876 30.6064 20.6599 29.9229 20.6599 29.2111C20.6599 28.4992 20.7876 27.83 21.0429 27.2035C21.3267 26.5486 21.6955 25.9933 22.1495 25.5377C22.6319 25.0536 23.1852 24.6834 23.8094 24.4271C24.462 24.1424 25.143 24 25.8524 24C26.5901 24 27.2711 24.1424 27.8953 24.4271C28.5195 24.6834 29.0728 25.0536 29.5552 25.5377C30.0375 25.9933 30.4064 26.5486 30.6618 27.2035C30.9455 27.83 31.0874 28.4992 31.0874 29.2111ZM21.8516 40.8719C21.8516 40.3593 21.7523 39.9322 21.5537 39.5905C21.3834 39.2203 21.0571 39.0352 20.5748 39.0352H20.4896C20.0924 39.0352 19.7377 38.8928 19.4256 38.608C19.1419 38.3233 19 37.9673 19 37.5402C19 37.1415 19.1135 36.8141 19.3405 36.5578C19.5959 36.273 19.9222 36.1022 20.3194 36.0452C20.8869 35.9598 21.5679 35.8601 22.3623 35.7462C23.1852 35.6323 24.0364 35.5184 24.916 35.4045C25.824 35.2621 26.7178 35.1198 27.5974 34.9774C28.5053 34.8065 29.3282 34.6499 30.0659 34.5075C30.605 34.3652 31.059 34.5075 31.4279 34.9347C31.5697 35.0771 31.6691 35.2479 31.7258 35.4472C31.8109 35.6466 31.8251 35.8459 31.7684 36.0452C31.74 36.4154 31.7116 36.8141 31.6832 37.2412C31.6832 37.6683 31.6832 38.0528 31.6832 38.3945V51.8492C31.6832 52.191 31.6974 52.5469 31.7258 52.9171C31.7542 53.2873 31.8109 53.629 31.8961 53.9422C32.0095 54.2554 32.1656 54.526 32.3642 54.7538C32.5628 54.9531 32.8324 55.0812 33.1729 55.1382C33.5418 55.1951 33.8539 55.3375 34.1092 55.5653C34.3646 55.7931 34.4923 56.1491 34.4923 56.6332C34.4923 56.9179 34.4214 57.16 34.2795 57.3593C34.166 57.5302 34.0241 57.6725 33.8539 57.7864C33.6836 57.8719 33.4992 57.9288 33.3006 57.9573C33.1303 57.9858 32.9885 58 32.875 58C32.421 58 31.8961 57.9858 31.3002 57.9573C30.7327 57.9573 30.1652 57.9431 29.5977 57.9146C29.0303 57.8861 28.4912 57.8576 27.9804 57.8291C27.4697 57.8291 27.0583 57.8291 26.7461 57.8291C26.434 57.8291 26.0226 57.8291 25.5119 57.8291C25.0011 57.8576 24.462 57.8861 23.8945 57.9146C23.3271 57.9431 22.7454 57.9573 22.1495 57.9573C21.582 57.9858 21.0713 58 20.6173 58C20.5038 58 20.3478 57.9858 20.1492 57.9573C19.9789 57.9288 19.8087 57.8719 19.6384 57.7864C19.4682 57.6725 19.3121 57.5302 19.1702 57.3593C19.0567 57.16 19 56.9179 19 56.6332C19 56.1491 19.1277 55.7931 19.3831 55.5653C19.6384 55.3375 19.9505 55.1951 20.3194 55.1382C20.6599 55.0812 20.9294 54.9531 21.1281 54.7538C21.3551 54.526 21.5111 54.2554 21.5962 53.9422C21.7097 53.629 21.7807 53.2873 21.809 52.9171C21.8374 52.5469 21.8516 52.191 21.8516 51.8492V40.8719Z" fill="#1C0F00"/>
<path d="M61.6806 55.1382C62.0495 55.1951 62.3616 55.3518 62.6169 55.608C62.8723 55.8358 63 56.1776 63 56.6332C63 56.9179 62.9432 57.16 62.8298 57.3593C62.7163 57.5302 62.5744 57.6725 62.4041 57.7864C62.2339 57.8719 62.0495 57.9288 61.8508 57.9573C61.6806 57.9858 61.5387 58 61.4252 58C60.9429 58 60.3754 57.9858 59.7228 57.9573C59.0986 57.9573 58.4743 57.9431 57.8501 57.9146C57.2259 57.8861 56.6442 57.8576 56.1051 57.8291C55.5943 57.8291 55.1971 57.8291 54.9134 57.8291C54.6012 57.8291 54.1898 57.8291 53.6791 57.8291C53.1967 57.8576 52.7002 57.8861 52.1894 57.9146C51.6787 57.9431 51.1822 57.9573 50.6998 57.9573C50.2458 57.9858 49.8628 58 49.5507 58C49.1534 58 48.8129 57.8861 48.5292 57.6583C48.2738 57.402 48.1461 57.0603 48.1461 56.6332C48.1461 56.263 48.2313 55.964 48.4015 55.7362C48.5717 55.4799 48.8697 55.2806 49.2953 55.1382C49.7209 54.9958 49.9621 54.6968 50.0188 54.2412C50.1039 53.7856 50.1465 53.1734 50.1465 52.4045V41.299C50.1465 40.3308 50.0188 39.7186 49.7635 39.4623C49.5365 39.1776 49.2669 39.0352 48.9548 39.0352C48.5292 39.0352 48.0184 39.2345 47.4226 39.6332C46.8267 40.0034 46.3302 40.459 45.9329 41V52.4045C45.9329 53.1734 45.9613 53.7856 46.0181 54.2412C46.1032 54.6968 46.3444 54.9958 46.7416 55.1382C47.1956 55.2806 47.5077 55.4799 47.678 55.7362C47.8482 55.964 47.9333 56.263 47.9333 56.6332C47.9333 57.0603 47.7915 57.402 47.5077 57.6583C47.2523 57.8861 46.926 58 46.5288 58C46.2451 58 45.862 57.9858 45.3797 57.9573C44.8973 57.9573 44.4007 57.9431 43.89 57.9146C43.3793 57.8861 42.8685 57.8576 42.3578 57.8291C41.8754 57.8291 41.4782 57.8291 41.1661 57.8291C40.8823 57.8291 40.4851 57.8291 39.9744 57.8291C39.4636 57.8576 38.9103 57.8861 38.3145 57.9146C37.7186 57.9431 37.1086 57.9573 36.4844 57.9573C35.8885 57.9858 35.3494 58 34.867 58C34.7535 58 34.5975 57.9858 34.3989 57.9573C34.2286 57.9288 34.0584 57.8719 33.8881 57.7864C33.7179 57.6725 33.5618 57.5302 33.4199 57.3593C33.3064 57.16 33.2497 56.9179 33.2497 56.6332C33.2497 56.1491 33.3774 55.7931 33.6328 55.5653C33.8881 55.3375 34.2002 55.1951 34.5691 55.1382C34.9096 55.0812 35.1791 54.9531 35.3778 54.7538C35.6048 54.526 35.7608 54.2554 35.8459 53.9422C35.9594 53.629 36.0304 53.2873 36.0587 52.9171C36.0871 52.5469 36.1013 52.191 36.1013 51.8492V40.8719C36.1013 40.3593 36.002 39.9322 35.8034 39.5905C35.6331 39.2487 35.3068 39.0779 34.8245 39.0779H34.7393C34.3421 39.0779 33.9874 38.9355 33.6753 38.6508C33.3916 38.3375 33.2497 37.9673 33.2497 37.5402C33.2497 37.17 33.3632 36.8425 33.5902 36.5578C33.8456 36.273 34.1719 36.1022 34.5691 36.0452C35.1366 35.9598 35.8176 35.8601 36.612 35.7462C37.4349 35.6323 38.2861 35.5184 39.1657 35.4045C40.0737 35.2621 40.9675 35.1198 41.8471 34.9774C42.755 34.8065 43.5779 34.6499 44.3156 34.5075C44.8831 34.4221 45.3371 34.5645 45.6776 34.9347C45.8194 35.0771 45.9188 35.2479 45.9755 35.4472C46.0606 35.6466 46.0748 35.8601 46.0181 36.0879C46.0181 36.2018 46.0039 36.3157 45.9755 36.4296C45.9755 36.5436 45.9755 36.6717 45.9755 36.8141C47.0537 35.9883 48.1036 35.4045 49.125 35.0628C50.1465 34.6926 51.2531 34.5075 52.4448 34.5075C54.8566 34.5075 56.7151 35.1767 58.0203 36.5151C59.3255 37.825 59.9782 39.6616 59.9782 42.0251V51.8492C59.9782 52.191 59.9923 52.5469 60.0207 52.9171C60.0491 53.2873 60.12 53.629 60.2335 53.9422C60.347 54.2554 60.5173 54.526 60.7443 54.7538C60.9712 54.9531 61.2834 55.0812 61.6806 55.1382Z" fill="#1C0F00"/>
</svg>
