<svg width="135" height="58" viewBox="0 0 135 58" fill="none" xmlns="http://www.w3.org/2000/svg">
<path d="M47.8371 4.5152C46.9135 4.5152 45.8993 5.13174 44.7946 6.3648C43.708 7.59787 42.549 9.28427 41.3176 11.424C40.0861 13.5637 38.8184 15.8123 37.5145 18.1696C36.2287 20.5088 34.6984 23.0656 32.9236 25.84C31.7372 27.7016 30.559 29.3812 29.3891 30.8789C28.4923 32.0269 28.5965 33.6915 29.691 34.6528C30.7233 35.5595 31.4115 36.167 31.7556 36.4752C32.1178 36.7835 32.7697 37.3366 33.7114 38.1344C34.6531 38.9323 35.3323 39.4854 35.7488 39.7936C36.1834 40.12 36.8173 40.6006 37.6503 41.2352C38.5015 41.8699 39.1715 42.3232 39.6605 42.5952C40.1495 42.8672 40.7652 43.2027 41.5077 43.6016C42.2502 44.0187 42.8931 44.3088 43.4364 44.472C43.9797 44.6534 44.5592 44.8166 45.1749 44.9616C45.8088 45.1067 46.4155 45.1792 46.995 45.1792C48.0453 45.1792 48.8693 44.9254 49.467 44.4176C50.0827 43.9099 50.3906 43.3206 50.3906 42.6496C50.3906 42.3958 50.3091 42.1328 50.1461 41.8608C49.9844 41.5573 49.83 41.0875 50.1237 40.9085C50.3797 40.7526 50.695 40.6076 51.0697 40.4736C51.8484 40.2198 52.6271 40.0928 53.4058 40.0928C55.5428 40.0928 57.3447 40.7638 58.8116 42.1056C60.2966 43.4475 61.0391 45.1339 61.0391 47.1648C61.0391 49.0507 60.4506 50.7643 59.2734 52.3056C58.0963 53.847 56.5388 55.0347 54.6011 55.8688C52.6633 56.7211 50.5626 57.1472 48.2989 57.1472C46.343 57.1472 44.3328 56.7483 42.2683 55.9504C40.2038 55.1707 38.2932 54.1824 36.5366 52.9856C34.798 51.7888 32.987 50.3019 31.1036 48.5248C29.2383 46.7659 27.6175 45.0976 26.2411 43.52C25.5818 42.7643 24.9037 41.9648 24.2069 41.1216C22.8686 39.5021 20.5376 39.1848 18.6164 40.0349C16.4392 40.9983 14.2179 41.48 11.9525 41.48C9.81552 41.48 7.84155 41.063 6.03057 40.2288C4.21959 39.3947 2.76175 38.1979 1.65705 36.6384C0.552349 35.0608 0 33.3019 0 31.3616C0 28.6598 0.923601 26.511 2.7708 24.9152C4.63611 23.3013 7.05377 22.4944 10.0238 22.4944C12.5014 22.4944 15.4306 23.5984 18.8114 25.8063C20.3446 26.8076 22.3732 26.8214 23.6295 25.489C24.1322 24.9557 24.6406 24.3746 25.1545 23.7456C26.4766 22.1317 27.6899 20.4997 28.7946 18.8496C29.9174 17.1813 31.0764 15.4405 32.2717 13.6272C33.4851 11.7957 34.7075 10.0912 35.9389 8.51361C37.1885 6.91787 38.4743 5.47627 39.7963 4.1888C41.1365 2.8832 42.6033 1.85867 44.197 1.1152C45.7907 0.371734 47.4296 0 49.1138 0C51.3413 0 53.27 0.6256 54.8999 1.8768C56.5298 3.10987 57.3447 4.80534 57.3447 6.9632C57.3447 8.90347 56.6294 10.6624 55.1987 12.24C53.7681 13.7995 52.0567 14.5792 50.0646 14.5792C48.5615 14.5792 47.3572 14.1893 46.4517 13.4096C45.5643 12.6117 45.1387 11.6507 45.1749 10.5264C45.2112 9.81921 45.4194 9.13921 45.7997 8.48641C46.01 8.13231 46.2632 7.81861 46.5592 7.54533C46.9254 7.2072 47.6646 7.5616 48.1631 7.5616C48.5977 7.5616 48.9418 7.41654 49.1953 7.12641C49.4489 6.81814 49.5756 6.46454 49.5756 6.0656C49.5756 5.032 48.9961 4.5152 47.8371 4.5152ZM15.1308 29.3488C14.5331 28.6235 13.9446 28.0795 13.365 27.7168C12.7855 27.3542 12.3328 27.1728 12.0068 27.1728C11.6265 27.1728 11.3367 27.2726 11.1375 27.472C10.9383 27.6534 10.8387 27.8891 10.8387 28.1792C10.8387 28.7958 11.1919 29.3126 11.8981 29.7296C12.6225 30.1467 13.4194 30.3552 14.2886 30.3552C14.4066 30.3552 14.5399 30.3514 14.6886 30.3437C15.1843 30.318 15.4302 29.7447 15.1308 29.3488Z" fill="#1C0F00"/>
<path d="M53.7276 16.864C55.9158 16.864 57.3591 19.1417 56.4249 21.1204L53.2461 27.8528C53.065 28.2155 52.9201 28.5238 52.8115 28.7776C52.7028 29.0134 52.5579 29.3398 52.3769 29.7568C52.2139 30.1558 52.1052 30.4912 52.0509 30.7632C51.9965 31.0352 51.9603 31.3072 51.9422 31.5792C51.9422 31.8512 52.0147 32.0598 52.1595 32.2048C52.3044 32.3499 52.5217 32.4224 52.8115 32.4224C53.7713 32.4224 54.8126 31.5248 55.9354 29.7296C55.9916 29.6333 56.139 29.6961 56.1084 29.8033L56.0441 30.0288C55.6276 31.0624 55.1658 32.0416 54.6587 32.9664C54.1516 33.8912 53.5268 34.8432 52.7843 35.8224C52.0418 36.8016 51.1907 37.5814 50.2308 38.1616C49.271 38.7419 48.275 39.032 47.2427 39.032C46.4278 39.032 45.7487 38.8416 45.2054 38.4608C44.6802 38.08 44.327 37.5814 44.1459 36.9648C43.9648 36.3483 43.8562 35.6411 43.82 34.8432C43.8056 34.5267 43.0482 34.2876 42.8788 34.5554C42.2514 35.5467 41.5781 36.4133 40.859 37.1552C39.6638 38.3702 38.4142 38.9776 37.1103 38.9776C35.9875 38.9776 35.091 38.5606 34.421 37.7264C33.7328 36.8923 33.3887 35.768 33.3887 34.3536C33.3887 32.5947 33.8052 30.6454 34.6383 28.5056C35.4894 26.3659 36.5579 24.3984 37.8437 22.6032C39.1295 20.808 40.6145 19.3029 42.2987 18.088C44.0011 16.8731 45.6309 16.2656 47.1884 16.2656C48.3293 16.2656 49.1352 16.6464 49.606 17.408C50.0738 18.1366 50.2764 18.9897 50.2138 19.9672C50.2092 20.039 50.2656 20.1008 50.3375 20.1008C50.3879 20.1008 50.4331 20.07 50.4516 20.0232L51.0594 18.4824C51.4446 17.5058 52.3877 16.864 53.4375 16.864H53.7276ZM46.129 26.792C46.2376 26.5744 46.3553 26.3115 46.4821 26.0032C46.627 25.6768 46.799 25.2779 46.9982 24.8064C47.1974 24.335 47.3695 23.8816 47.5144 23.4464C47.6592 22.9931 47.777 22.5669 47.8675 22.168C47.9762 21.7691 48.0124 21.4517 47.9762 21.216C47.9399 20.9621 47.8222 20.8352 47.623 20.8352C46.9711 20.8352 46.0656 21.7872 44.9065 23.6912C43.6389 25.7766 42.8149 27.6715 42.4346 29.376C42.1629 30.6272 42.3168 31.2528 42.8964 31.2528C43.5302 31.2528 44.6077 29.7659 46.129 26.792Z" fill="#1C0F00"/>
<path d="M72.9405 5.0592C73.8163 4.88383 74.6514 5.82268 74.271 6.63073L64.5738 27.2272C63.5778 29.367 63.0435 30.6907 62.9711 31.1984C62.8987 31.5611 62.9349 31.8603 63.0798 32.096C63.2246 32.3136 63.451 32.4224 63.7589 32.4224C64.3757 32.4224 65.0257 32.0508 65.7089 31.3075C65.934 31.0626 66.3989 31.3051 66.258 31.6064C65.8596 32.4587 65.3706 33.3382 64.7911 34.2448C64.2116 35.1515 63.5959 35.9584 62.9439 36.6656C62.3101 37.3547 61.5766 37.9259 60.7436 38.3792C59.9105 38.8144 59.0775 39.032 58.2444 39.032C56.9224 39.032 55.9445 38.6784 55.3106 37.9712C54.6768 37.2459 54.387 36.312 54.4414 35.1696C54.4776 34.0091 54.6859 32.8214 55.0662 31.6064C55.4284 30.3734 55.9354 29.1403 56.5874 27.9072L66.4287 7.22087C67.0498 5.91549 68.6155 5.304 70.0611 5.304C71.0933 5.304 72.0532 5.2224 72.9405 5.0592Z" fill="#1C0F00"/>
<path d="M86.2167 16.864C88.4048 16.864 89.8482 19.1417 88.9139 21.1204L85.7351 27.8528C85.554 28.2155 85.4092 28.5238 85.3005 28.7776C85.1918 29.0134 85.047 29.3398 84.8659 29.7568C84.7029 30.1558 84.5942 30.4912 84.5399 30.7632C84.4856 31.0352 84.4493 31.3072 84.4312 31.5792C84.4312 31.8512 84.5037 32.0598 84.6485 32.2048C84.7934 32.3499 85.0107 32.4224 85.3005 32.4224C86.2603 32.4224 87.3016 31.5248 88.4244 29.7296C88.4806 29.6333 88.628 29.6961 88.5975 29.8033L88.5331 30.0288C88.1166 31.0624 87.6548 32.0416 87.1477 32.9664C86.6406 33.8912 86.0158 34.8432 85.2733 35.8224C84.5308 36.8016 83.6797 37.5814 82.7198 38.1616C81.76 38.7419 80.764 39.032 79.7317 39.032C78.9168 39.032 78.2377 38.8416 77.6944 38.4608C77.1692 38.08 76.816 37.5814 76.6349 36.9648C76.4538 36.3483 76.3452 35.6411 76.309 34.8432C76.2946 34.5267 75.5372 34.2876 75.3678 34.5554C74.7404 35.5467 74.0672 36.4133 73.348 37.1552C72.1528 38.3702 70.9032 38.9776 69.5993 38.9776C68.4765 38.9776 67.58 38.5606 66.91 37.7264C66.2218 36.8923 65.8777 35.768 65.8777 34.3536C65.8777 32.5947 66.2943 30.6454 67.1273 28.5056C67.9785 26.3659 69.0469 24.3984 70.3327 22.6032C71.6185 20.808 73.1035 19.3029 74.7878 18.088C76.4901 16.8731 78.12 16.2656 79.6774 16.2656C80.8183 16.2656 81.6242 16.6464 82.0951 17.408C82.5628 18.1366 82.7654 18.9897 82.7028 19.9672C82.6982 20.039 82.7546 20.1008 82.8265 20.1008C82.8769 20.1008 82.9221 20.07 82.9406 20.0232L83.5484 18.4824C83.9336 17.5058 84.8767 16.864 85.9265 16.864H86.2167ZM78.618 26.792C78.7266 26.5744 78.8444 26.3115 78.9711 26.0032C79.116 25.6768 79.288 25.2779 79.4873 24.8064C79.6865 24.335 79.8585 23.8816 80.0034 23.4464C80.1483 22.9931 80.266 22.5669 80.3565 22.168C80.4652 21.7691 80.5014 21.4517 80.4652 21.216C80.429 20.9621 80.3112 20.8352 80.112 20.8352C79.4601 20.8352 78.5546 21.7872 77.3956 23.6912C76.1279 25.7766 75.3039 27.6715 74.9236 29.376C74.6519 30.6272 74.8059 31.2528 75.3854 31.2528C76.0192 31.2528 77.0968 29.7659 78.618 26.792Z" fill="#1C0F00"/>
<path d="M107.657 7.3984C106.154 7.3984 104.461 9.06667 102.577 12.4032C101.623 14.0559 100.415 16.8017 98.954 20.6405C98.6929 21.3265 99.2016 22.0592 99.9356 22.0592H100.221C100.821 22.0592 101.235 22.6599 101.022 23.2207C100.895 23.5531 100.576 23.7728 100.221 23.7728H99.3119C98.4012 23.7728 97.5872 24.3403 97.2823 25.1985C97.0103 25.9644 96.6745 26.9217 96.275 28.0704C95.5688 30.1014 95.0074 31.679 94.5908 32.8032C94.1743 33.9094 93.6491 35.2694 93.0153 36.8832C92.3996 38.479 91.8019 39.9024 91.2224 41.1536C90.6429 42.423 90.0543 43.5744 89.4567 44.608C87.5371 47.9446 85.2914 50.456 82.7198 52.1424C80.1483 53.847 77.3322 54.6992 74.2716 54.6992C73.2394 54.6992 72.2162 54.5179 71.202 54.1552C70.1697 53.8107 69.228 53.3211 68.3769 52.6864C67.5257 52.0518 66.8375 51.2358 66.3124 50.2384C65.7872 49.2411 65.5246 48.144 65.5246 46.9472C65.5246 46.0406 65.7238 45.152 66.1222 44.2816C66.5025 43.4294 67.0277 42.695 67.6978 42.0784C68.3678 41.48 69.1103 41.0086 69.9253 40.664C70.7402 40.3376 71.6276 40.2198 72.5874 40.3104C73.0204 40.3595 73.4442 40.4584 73.8587 40.6071C74.5442 40.853 74.3658 41.7683 74.1358 42.4592C73.9728 42.9126 74.0452 43.3115 74.3531 43.656C74.6429 44.0187 75.0594 44.2272 75.6027 44.2816C76.146 44.336 76.7255 44.2907 77.3412 44.1456C77.957 44.0187 78.6904 43.6923 79.5416 43.1664C80.3746 42.6587 81.1986 41.9787 82.0136 41.1264C82.8104 40.2923 83.6706 39.1227 84.5942 37.6176C85.5178 36.1126 86.378 34.3808 87.1749 32.4224C88.7678 28.495 89.8828 25.8166 90.5199 24.3871C90.5891 24.2319 90.634 24.0672 90.6407 23.8974C90.6545 23.5437 90.6363 23.1713 90.5861 22.7802C90.5381 22.4066 90.8169 22.0592 91.1936 22.0592C91.4261 22.0592 91.6372 21.9225 91.7335 21.7109C93.8263 17.1097 95.7295 13.5266 97.4431 10.9616C99.2179 8.33227 100.938 6.49174 102.604 5.44C104.289 4.37014 106.19 3.8352 108.309 3.8352C109.106 3.8352 109.921 3.98934 110.754 4.2976C111.587 4.60587 112.348 5.032 113.036 5.576C113.742 6.10187 114.258 6.8 114.584 7.67041C114.91 8.52267 114.937 9.43841 114.666 10.4176C114.448 11.1792 114.041 11.832 113.443 12.376C112.864 12.92 112.203 13.2827 111.46 13.464C110.736 13.6453 110.002 13.7088 109.26 13.6544C108.535 13.6 107.883 13.3824 107.304 13.0016C106.462 12.4034 107.15 11.3047 107.803 10.5043C107.982 10.2839 108.142 10.0284 108.282 9.73761C108.698 8.88534 108.735 8.22347 108.391 7.75201C108.209 7.51627 107.965 7.3984 107.657 7.3984Z" fill="#1C0F00"/>
<path d="M116.375 28.1552C116.432 28.079 116.555 28.1187 116.555 28.2139C116.555 28.2269 116.552 28.2399 116.547 28.2519C115.1 31.6704 113.182 34.348 110.796 36.2848C108.424 38.2251 105.988 39.1952 103.489 39.1952C101.406 39.1952 99.8579 38.5878 98.8437 37.3728C97.8296 36.1398 97.3225 34.4896 97.3225 32.4224C97.3225 31.1168 97.567 29.7206 98.056 28.2336C98.563 26.7286 99.2784 25.2779 100.202 23.8816C101.144 22.4853 102.212 21.216 103.407 20.0736C104.621 18.9312 105.997 18.0155 107.536 17.3264C109.076 16.6192 110.633 16.2656 112.209 16.2656C113.893 16.2656 115.179 16.7371 116.066 17.68C116.972 18.6048 117.379 19.8379 117.289 21.3792C117.18 23.5915 116.238 25.5952 114.463 27.3904C112.707 29.1856 110.679 30.0832 108.379 30.0832C107.529 30.0832 106.877 29.8594 106.424 29.4118C106.139 29.1297 105.309 29.1651 105.309 29.5664C105.309 31.6518 106.459 32.6944 108.759 32.6944C109.845 32.6944 111.158 32.2592 112.698 31.3888C114.164 30.5521 115.39 29.4743 116.375 28.1552ZM111.149 20.2096C110.733 20.2096 110.153 20.5995 109.411 21.3792C108.668 22.1589 107.971 23.1291 107.319 24.2896C107.247 24.3984 107.183 24.5344 107.129 24.6976C107.075 24.8427 107.029 25.0059 106.993 25.1872C106.957 25.3686 106.984 25.5227 107.075 25.6496C107.183 25.7766 107.355 25.84 107.591 25.84C108.297 25.84 109.166 25.2325 110.199 24.0176C111.249 22.8027 111.774 21.7419 111.774 20.8352C111.774 20.6539 111.711 20.5088 111.584 20.4C111.457 20.2731 111.312 20.2096 111.149 20.2096Z" fill="#1C0F00"/>
<path d="M132.609 5.0592C133.485 4.88383 134.32 5.82268 133.94 6.63073L124.243 27.2272C123.247 29.367 122.712 30.6907 122.64 31.1984C122.568 31.5611 122.604 31.8603 122.749 32.096C122.894 32.3136 123.12 32.4224 123.428 32.4224C124.045 32.4224 124.695 32.0508 125.378 31.3075C125.603 31.0626 126.068 31.3051 125.927 31.6064C125.529 32.4587 125.04 33.3382 124.46 34.2448C123.881 35.1515 123.265 35.9584 122.613 36.6656C121.979 37.3547 121.246 37.9259 120.413 38.3792C119.579 38.8144 118.746 39.032 117.913 39.032C116.591 39.032 115.613 38.6784 114.98 37.9712C114.346 37.2459 114.056 36.312 114.11 35.1696C114.147 34.0091 114.355 32.8214 114.735 31.6064C115.097 30.3734 115.604 29.1403 116.256 27.9072L126.098 7.22088C126.719 5.91549 128.284 5.304 129.73 5.304C130.762 5.304 131.722 5.2224 132.609 5.0592Z" fill="#1C0F00"/>
</svg>
