<svg width="81" height="41" viewBox="0 0 81 41" fill="none" xmlns="http://www.w3.org/2000/svg">
<path fill-rule="evenodd" clip-rule="evenodd" d="M50.4754 0H50.5286C51.4946 0.00082101 52.2769 0.780535 52.2761 1.74154C52.2753 2.70254 51.4916 3.48093 50.5256 3.48011H50.4784C49.5125 3.48093 48.7288 2.70254 48.7279 1.74154C48.7271 0.780535 49.5095 0.000820906 50.4754 0ZM43.3027 2.58919C43.6002 3.50347 43.0965 4.4846 42.1775 4.7806C42.1626 4.7854 42.1477 4.7902 42.1329 4.79502C41.2144 5.09262 40.2274 4.59313 39.9282 3.67936C39.6291 2.7656 40.1311 1.78359 41.0496 1.48599C41.0664 1.48054 41.0832 1.47511 41.1 1.46969C42.019 1.17369 43.0052 1.6749 43.3027 2.58919ZM57.7014 2.58919C57.9989 1.67491 58.985 1.17369 59.904 1.4697C59.9208 1.47511 59.9377 1.48055 59.9545 1.48599C60.8729 1.7836 61.375 2.7656 61.0758 3.67937C60.7767 4.59313 59.7897 5.09262 58.8712 4.79502L58.8266 4.78061C57.9076 4.4846 57.4038 3.50347 57.7014 2.58919ZM35.038 6.16346C35.6058 6.94096 35.4325 8.02913 34.651 8.59395C34.6426 8.60001 34.6342 8.60607 34.6258 8.61213C34.6216 8.61522 34.6173 8.6183 34.6131 8.62139C33.8326 9.18755 32.7385 9.01702 32.1694 8.2405C31.6004 7.46398 31.7718 6.37551 32.5523 5.80935C32.5665 5.79901 32.5808 5.78869 32.5951 5.77837C33.3766 5.21355 34.4703 5.38596 35.038 6.16346ZM65.966 6.16347C66.5338 5.38597 67.6275 5.21355 68.409 5.77838C68.4233 5.78869 68.4375 5.79902 68.4518 5.80935C69.2323 6.37552 69.4037 7.46398 68.8346 8.2405C68.2655 9.01703 67.1715 9.18756 66.391 8.62139C66.3784 8.61224 66.3657 8.60309 66.3531 8.59396C65.5716 8.02913 65.3983 6.94097 65.966 6.16347ZM28.2869 12.1032C29.0674 12.6694 29.2388 13.7579 28.6697 14.5344C28.665 14.5409 28.6602 14.5474 28.6554 14.5539C28.651 14.56 28.6466 14.566 28.6421 14.5721C28.0744 15.3496 26.9807 15.522 26.1992 14.9572C25.4177 14.3923 25.2444 13.3042 25.8121 12.5267C25.8225 12.5125 25.8329 12.4983 25.8432 12.4841C26.4123 11.7076 27.5064 11.5371 28.2869 12.1032ZM72.7172 12.1032C73.4977 11.5371 74.5917 11.7076 75.1608 12.4841C75.1712 12.4983 75.1816 12.5125 75.1919 12.5267C75.7597 13.3042 75.5864 14.3924 74.8049 14.9572C74.0234 15.522 72.9296 15.3496 72.3619 14.5721C72.3527 14.5595 72.3435 14.5469 72.3343 14.5344C71.7653 13.7579 71.9367 12.6694 72.7172 12.1032ZM23.7023 19.8224C24.6208 20.12 25.1228 21.102 24.8237 22.0158C24.8189 22.0305 24.814 22.0453 24.8092 22.0601C24.5117 22.9744 23.5255 23.4756 22.6065 23.1796C21.6876 22.8836 21.1838 21.9025 21.4813 20.9882C21.4867 20.9715 21.4922 20.9548 21.4977 20.938C21.7968 20.0243 22.7839 19.5248 23.7023 19.8224ZM77.3017 19.8224C78.2202 19.5248 79.2072 20.0243 79.5064 20.938C79.5118 20.9548 79.5173 20.9715 79.5228 20.9882C79.8203 21.9025 79.3165 22.8836 78.3975 23.1796C77.4785 23.4756 76.4924 22.9744 76.1948 22.0601C76.19 22.0453 76.1852 22.0305 76.1804 22.0158C75.8812 21.102 76.3833 20.12 77.3017 19.8224ZM79.2495 28.5772C80.2155 28.5763 80.9992 29.3547 81 30.3157L81 30.3422L81 30.3686C80.9992 31.3296 80.2155 32.108 79.2495 32.1072C78.2836 32.1064 77.5012 31.3267 77.502 30.3657V30.3187C77.5012 29.3577 78.2836 28.578 79.2495 28.5772ZM78.3975 37.5047C79.3165 37.8007 79.8203 38.7819 79.5228 39.6961C79.5173 39.7129 79.5118 39.7296 79.5064 39.7463C79.2072 40.6601 78.2202 41.1596 77.3017 40.862C76.3833 40.5644 75.8812 39.5824 76.1804 38.6686C76.1852 38.6538 76.19 38.639 76.1948 38.6242C76.4924 37.7099 77.4785 37.2087 78.3975 37.5047Z" fill="#266C75"/>
<path d="M12.4051 32.6928C12.4051 35.0427 10.6597 36.7536 7.50126 36.7536H0V22.0769H7.08567C10.2441 22.0769 11.9895 23.6435 11.9895 25.9935C11.9895 27.6013 11.1792 28.8175 9.51683 29.2091C11.4493 29.5802 12.4051 30.9407 12.4051 32.6928ZM9.57917 32.4867C9.57917 31.1674 8.76878 30.3017 7.18957 30.3017H2.82596V34.6511H7.18957C8.76878 34.6511 9.57917 33.8059 9.57917 32.4867ZM9.16359 26.2202C9.16359 24.901 8.3532 24.1795 6.77399 24.1795H2.82596V28.2403H6.77399C8.3532 28.2403 9.16359 27.5395 9.16359 26.2202Z" fill="#266C75"/>
<path d="M16.6173 36.7536H13.9368V26.1171H16.4926V28.4877C17.0536 26.6119 17.9887 25.9728 19.4848 25.9728C19.7757 25.9728 20.2121 26.0553 20.4614 26.1171V28.4465L19.3601 28.4258C17.7186 28.4258 16.6173 29.642 16.6173 31.8064V36.7536Z" fill="#266C75"/>
<path d="M24.5312 36.7536H21.8507V26.1171H24.5312V36.7536Z" fill="#266C75"/>
<path d="M30.7786 36.3414C27.8903 36.3414 26.0617 34.2594 26.0617 31.1262C26.0617 27.993 27.8903 25.911 30.7786 25.911C32.5656 25.911 33.6253 26.6943 34.2071 27.9311V26.1171H36.7629V35.8879C36.7629 39.186 34.9759 41 31.4643 41C28.2435 41 26.6435 39.4746 26.6435 37.1865H29.1578C29.324 38.5264 30.1344 39.2479 31.5889 39.2479C33.1682 39.2479 34.0824 38.4027 34.0824 36.63V34.5274C33.4798 35.6818 32.3993 36.3414 30.7786 36.3414ZM31.4019 34.4449C33.0019 34.4449 34.0824 33.3318 34.0824 31.1262C34.0824 28.9206 33.0019 27.8074 31.4019 27.8074C29.8227 27.8074 28.7422 28.9206 28.7422 31.1262C28.7422 33.3318 29.8227 34.4449 31.4019 34.4449Z" fill="#266C75"/>
<path d="M48.2303 36.7536H45.5497V30.2398C45.5497 28.7969 45.0303 28.0754 43.7212 28.0754C42.3082 28.0754 41.3939 29.0855 41.3939 30.817V36.7536H38.7134V22.0769H41.3939V27.6425C41.9757 26.6119 42.9316 25.911 44.5523 25.911C47.0043 25.911 48.2303 27.1478 48.2303 29.7245V36.7536Z" fill="#266C75"/>
<path d="M54.1314 36.8567C51.7002 36.8567 50.8898 36.1146 50.8898 33.7647V28.0136H49.2067V26.1171H50.8898V22.9015H53.5703V26.1171H55.8976V28.0136H53.5703V33.8678C53.5703 34.6923 53.9236 34.9809 54.7755 34.9809L55.8976 34.9603V36.7536C55.4612 36.7949 54.6093 36.8567 54.1314 36.8567Z" fill="#266C75"/>
<path d="M60.1032 36.7536H57.4227V26.1171H59.9786V28.4877C60.5396 26.6119 61.4747 25.9728 62.9707 25.9728C63.2617 25.9728 63.698 26.0553 63.9474 26.1171V28.4465L62.8461 28.4258C61.2045 28.4258 60.1032 29.642 60.1032 31.8064V36.7536Z" fill="#266C75"/>
</svg>
