<svg width="135" height="61" viewBox="0 0 135 61" fill="none" xmlns="http://www.w3.org/2000/svg">
<path d="M49.8054 5.64776C48.8535 5.64776 47.8082 6.28239 46.6696 7.55166C45.5497 8.82093 44.355 10.5568 43.0858 12.7594C41.8165 14.9619 40.5099 17.2765 39.166 19.703C37.8407 22.1109 36.2635 24.7428 34.4342 27.5986C33.2115 29.5147 31.9972 31.2435 30.7915 32.7849C29.8673 33.9665 29.9747 35.681 31.1024 36.6701C32.1663 37.6034 32.8756 38.2287 33.2303 38.546C33.6036 38.8634 34.2756 39.4327 35.2462 40.254C36.2168 41.0752 36.9168 41.6445 37.3461 41.9619C37.7941 42.2978 38.4474 42.7925 39.306 43.4458C40.1833 44.0991 40.8739 44.5657 41.3779 44.8457C41.8818 45.1257 42.5165 45.471 43.2818 45.8817C44.0471 46.311 44.7097 46.6096 45.2697 46.7776C45.8296 46.9643 46.4269 47.1323 47.0616 47.2816C47.7149 47.4309 48.3402 47.5056 48.9375 47.5056C50.0201 47.5056 50.8694 47.2443 51.4853 46.7216C52.12 46.199 52.4373 45.5923 52.4373 44.9017C52.4373 44.6404 52.3533 44.3697 52.1853 44.0898C52.0186 43.7772 51.8597 43.2936 52.1623 43.1095C52.4262 42.9489 52.7511 42.7997 53.1373 42.6618C53.9399 42.4005 54.7425 42.2698 55.5451 42.2698C57.7477 42.2698 59.6049 42.9605 61.1168 44.3417C62.6474 45.723 63.4127 47.4589 63.4127 49.5495C63.4127 51.4907 62.8061 53.2546 61.5928 54.8412C60.3795 56.4278 58.7743 57.6504 56.7771 58.509C54.7798 59.3863 52.6146 59.8249 50.2814 59.8249C48.2655 59.8249 46.1936 59.4143 44.0657 58.593C41.9378 57.7904 39.9686 56.7731 38.158 55.5412C36.3661 54.3092 34.4996 52.7786 32.5583 50.9494C30.6358 49.1388 28.9652 47.4216 27.5466 45.7977C26.8437 44.993 26.1201 44.1402 25.376 43.2393C24.0392 41.621 21.7101 41.3021 19.7955 42.1623C17.517 43.1859 15.1916 43.6978 12.8194 43.6978C10.6168 43.6978 8.58224 43.2685 6.71568 42.4098C4.84911 41.5512 3.34652 40.3193 2.20791 38.714C1.0693 37.0901 0.5 35.2795 0.5 33.2823C0.5 30.5011 1.45195 28.2892 3.35585 26.6467C5.27842 24.9854 7.77029 24.1548 10.8315 24.1548C13.4053 24.1548 16.4521 25.3092 19.9716 27.6181C21.5012 28.6215 23.5273 28.6341 24.7876 27.3081C25.3277 26.74 25.874 26.1182 26.4266 25.4427C27.7892 23.7815 29.0398 22.1016 30.1785 20.403C31.3357 18.6857 32.5303 16.8938 33.7623 15.0273C35.0129 13.142 36.2728 11.3875 37.5421 9.76354C38.83 8.12096 40.1553 6.63704 41.5179 5.31178C42.8991 3.96785 44.411 2.91323 46.0536 2.14794C47.6962 1.38265 49.3855 1 51.1214 1C53.4172 1 55.4051 1.64397 57.085 2.9319C58.765 4.20117 59.6049 5.94641 59.6049 8.16763C59.6049 10.1649 58.8676 11.9754 57.393 13.5993C55.9184 15.2046 54.1545 16.0072 52.1013 16.0072C50.5521 16.0072 49.3108 15.6059 48.3775 14.8033C47.4629 13.982 47.0242 12.9927 47.0616 11.8354C47.0989 11.1075 47.3136 10.4075 47.7055 9.73554C47.9223 9.37099 48.1833 9.04804 48.4885 8.7667C48.8661 8.41856 49.6278 8.78359 50.1414 8.78359C50.5894 8.78359 50.944 8.63427 51.2054 8.33562C51.4667 8.0183 51.5973 7.65432 51.5973 7.24367C51.5973 6.17973 51 5.64776 49.8054 5.64776ZM16.0952 31.2104C15.4792 30.4638 14.8726 29.9038 14.2753 29.5305C13.678 29.1572 13.2113 28.9705 12.8754 28.9705C12.4834 28.9705 12.1847 29.0732 11.9794 29.2785C11.7741 29.4652 11.6714 29.7078 11.6714 30.0065C11.6714 30.6411 12.0354 31.1731 12.7634 31.6024C13.51 32.0317 14.3313 32.2464 15.2272 32.2464C15.349 32.2464 15.4868 32.2424 15.6404 32.2344C16.1507 32.208 16.4037 31.6177 16.0952 31.2104Z" fill="#1C0F00"/>
<path d="M55.9612 27.6676C55.9659 27.6592 55.9731 27.6523 55.9817 27.648C56.0193 27.6292 56.0611 27.6646 56.0492 27.705C55.2524 30.3963 54.2829 32.4421 53.1406 33.8423C52.4134 34.7337 51.5793 35.3598 50.6383 35.7206C49.5555 36.1357 48.4601 36.6206 47.6631 37.4629C46.7252 38.4541 45.7418 39.2818 44.7131 39.946C43.2571 40.8793 41.8292 41.3459 40.4293 41.3459C38.4694 41.3459 37.0321 40.7206 36.1175 39.47C35.2215 38.2007 34.8202 36.5022 34.9136 34.3743C34.9882 33.0677 35.2869 31.6584 35.8095 30.1465C36.3322 28.6346 37.0601 27.16 37.9934 25.7227C38.9454 24.2668 40.0093 22.9509 41.1852 21.7749C42.3798 20.5803 43.7331 19.619 45.245 18.8911C46.757 18.1631 48.2875 17.7991 49.8368 17.7991C51.2181 17.7991 52.31 18.2938 53.1126 19.283C53.9339 20.2537 54.3446 21.4949 54.3446 23.0069C54.3446 24.1964 54.1502 25.4715 53.7616 26.8322C53.1938 28.8199 54.4486 30.0984 55.5537 28.3514C55.6901 28.1356 55.826 27.9077 55.9612 27.6676ZM44.0971 34.6542C45.2116 34.6542 45.4688 33.239 45.6605 32.1411C45.7598 31.5723 45.9853 31.0288 46.337 30.5105C46.6792 29.9782 47.1375 29.5499 47.7121 29.2258C48.8567 28.58 50.0739 27.8848 50.5259 26.6509C51.04 25.2473 51.2116 24.1447 51.0407 23.3428C50.8727 22.7642 50.5274 22.4655 50.0048 22.4469C49.1648 22.4469 48.0355 23.5388 46.617 25.7227C45.1424 27.9813 44.1344 30.0998 43.5931 32.0784C43.1265 33.7956 43.2945 34.6542 44.0971 34.6542Z" fill="#1C0F00"/>
<path d="M71.5357 6.20773C72.4382 6.02722 73.2984 6.9951 72.9059 7.82762L62.9121 29.0265C61.8855 31.2291 61.3349 32.5917 61.2602 33.1143C61.1855 33.4876 61.2229 33.7956 61.3722 34.0383C61.5215 34.2623 61.7548 34.3743 62.0722 34.3743C62.708 34.3743 63.3781 33.9916 64.0825 33.2261C64.3145 32.9739 64.7933 33.2239 64.648 33.5343C64.2374 34.4116 63.7334 35.3169 63.1361 36.2502C62.5388 37.1834 61.9042 38.0141 61.2322 38.742C60.5789 39.4513 59.8229 40.0393 58.9643 40.5059C58.1057 40.9539 57.2471 41.1779 56.3884 41.1779C55.0259 41.1779 54.0179 40.8139 53.3646 40.086C52.7113 39.3393 52.4127 38.3781 52.4687 37.2021C52.506 36.0075 52.7206 34.7849 53.1126 33.5343C53.4859 32.265 54.0086 30.9958 54.6805 29.7265L64.8228 8.43528C65.4637 7.08986 67.0775 6.45972 68.5678 6.45972C69.6318 6.45972 70.621 6.37572 71.5357 6.20773Z" fill="#1C0F00"/>
<path d="M85.2178 18.3591C87.4732 18.3591 88.9605 20.7074 87.9965 22.7464L84.723 29.6705C84.5363 30.0438 84.387 30.3611 84.275 30.6225C84.163 30.8651 84.0137 31.2011 83.827 31.6304C83.659 32.041 83.547 32.3864 83.491 32.6663C83.435 32.9463 83.3977 33.2263 83.379 33.5063C83.379 33.7863 83.4537 34.0009 83.603 34.1503C83.7524 34.2996 83.9763 34.3743 84.275 34.3743C85.2643 34.3743 86.3376 33.4503 87.4948 31.6024C87.5527 31.5032 87.7047 31.568 87.6731 31.6784L87.6068 31.9104C87.1775 32.9743 86.7015 33.9823 86.1789 34.9342C85.6563 35.8862 85.0123 36.8661 84.247 37.8741C83.4817 38.882 82.6044 39.6847 81.6151 40.282C80.6258 40.8793 79.5992 41.1779 78.5353 41.1779C77.6953 41.1779 76.9954 40.9819 76.4354 40.5899C75.8941 40.198 75.5301 39.6847 75.3435 39.05C75.1568 38.4154 75.0448 37.6874 75.0075 36.8661C74.9927 36.54 74.2125 36.2934 74.0378 36.5692C73.391 37.5899 72.697 38.4822 71.9556 39.246C70.7237 40.4966 69.4358 41.1219 68.0918 41.1219C66.9346 41.1219 66.0106 40.6926 65.32 39.834C64.6107 38.9754 64.256 37.8181 64.256 36.3622C64.256 34.5516 64.6853 32.545 65.544 30.3425C66.4213 28.1399 67.5225 26.1147 68.8478 24.2668C70.1731 22.4189 71.7037 20.8696 73.4396 19.619C75.1941 18.3684 76.874 17.7431 78.4793 17.7431C79.6552 17.7431 80.4859 18.1351 80.9712 18.9191C81.4533 19.669 81.6621 20.5471 81.5976 21.5532C81.5928 21.6272 81.6509 21.6909 81.7251 21.6909C81.777 21.6909 81.8237 21.6592 81.8427 21.6109L82.4691 20.025C82.8662 19.0197 83.8373 18.3591 84.9182 18.3591H85.2178ZM77.3874 28.5786C77.4994 28.3546 77.6207 28.0839 77.7513 27.7666C77.9007 27.4306 78.078 27.02 78.2833 26.5347C78.4886 26.0494 78.666 25.5827 78.8153 25.1347C78.9646 24.6681 79.0859 24.2295 79.1793 23.8188C79.2913 23.4082 79.3286 23.0815 79.2913 22.8389C79.2539 22.5775 79.1326 22.4469 78.9273 22.4469C78.2553 22.4469 77.322 23.4268 76.1274 25.3867C74.8208 27.5333 73.9715 29.4839 73.5796 31.2384C73.2996 32.5264 73.4582 33.1703 74.0555 33.1703C74.7088 33.1703 75.8194 31.6397 77.3874 28.5786Z" fill="#1C0F00"/>
<path d="M107.318 8.6156C105.769 8.6156 104.023 10.3328 102.082 13.7673C101.098 15.4683 99.8536 18.2941 98.3482 22.2448C98.0789 22.9516 98.6029 23.7068 99.3593 23.7068H99.6544C100.272 23.7068 100.698 24.3255 100.479 24.9027C100.348 25.2447 100.02 25.4707 99.6544 25.4707H98.7165C97.7777 25.4707 96.9386 26.0554 96.624 26.94C96.3437 27.728 95.9979 28.7129 95.5864 29.8945C94.8584 31.9851 94.2798 33.609 93.8505 34.7662C93.4212 35.9048 92.8799 37.3048 92.2266 38.966C91.5919 40.6086 90.976 42.0739 90.3787 43.3618C89.7814 44.6684 89.1747 45.8537 88.5588 46.9176C86.5802 50.3521 84.2657 52.9373 81.6151 54.6732C78.9646 56.4278 76.0621 57.3051 72.9076 57.3051C71.8436 57.3051 70.789 57.1184 69.7438 56.7451C68.6798 56.3904 67.7092 55.8865 66.8319 55.2332C65.9546 54.5799 65.2453 53.7399 64.704 52.7133C64.1627 51.6867 63.8921 50.5574 63.8921 49.3255C63.8921 48.3922 64.0974 47.4776 64.508 46.5816C64.9 45.7043 65.4413 44.9484 66.1319 44.3137C66.8226 43.6978 67.5879 43.2125 68.4278 42.8578C69.2678 42.5218 70.1824 42.4005 71.1717 42.4938C71.6181 42.5444 72.0551 42.6462 72.4825 42.7994C73.1882 43.0523 73.0047 43.9945 72.7676 44.7057C72.5996 45.1724 72.6743 45.583 72.9916 45.9377C73.2902 46.311 73.7196 46.5256 74.2795 46.5816C74.8395 46.6376 75.4368 46.591 76.0714 46.4416C76.7061 46.311 77.462 45.975 78.3393 45.4337C79.1979 44.911 80.0472 44.2111 80.8872 43.3338C81.7085 42.4752 82.5951 41.2712 83.547 39.722C84.499 38.1727 85.3856 36.3902 86.2069 34.3743C87.8486 30.3317 88.9979 27.5746 89.6546 26.1032C89.7259 25.9433 89.7723 25.7737 89.7791 25.5987C89.7933 25.2351 89.7746 24.8522 89.723 24.4501C89.6735 24.065 89.9609 23.7068 90.3492 23.7068C90.5887 23.7068 90.8062 23.566 90.9055 23.348C93.0625 18.6118 95.0241 14.9236 96.7903 12.2834C98.6196 9.57689 100.393 7.68232 102.11 6.59971C103.846 5.49843 105.806 4.94779 107.99 4.94779C108.811 4.94779 109.651 5.10645 110.51 5.42377C111.368 5.74109 112.152 6.17973 112.862 6.7397C113.589 7.28101 114.121 7.99964 114.457 8.89559C114.793 9.77288 114.821 10.7155 114.541 11.7234C114.317 12.5074 113.897 13.1794 113.281 13.7393C112.684 14.2993 112.003 14.6726 111.238 14.8593C110.491 15.0459 109.735 15.1113 108.97 15.0553C108.223 14.9993 107.551 14.7753 106.954 14.3833C106.087 13.7679 106.794 12.6369 107.467 11.8134C107.653 11.5864 107.818 11.3231 107.962 11.0235C108.391 10.1462 108.428 9.46489 108.074 8.97958C107.887 8.73693 107.635 8.6156 107.318 8.6156Z" fill="#1C0F00"/>
<path d="M116.303 29.9817C116.362 29.9032 116.489 29.9441 116.489 30.0421C116.489 30.0555 116.486 30.0689 116.481 30.0813C114.989 33.6001 113.013 36.3564 110.553 38.3501C108.108 40.3473 105.598 41.3459 103.022 41.3459C100.875 41.3459 99.2792 40.7206 98.2339 39.47C97.1887 38.2007 96.666 36.5022 96.666 34.3743C96.666 33.0303 96.918 31.5931 97.422 30.0625C97.9446 28.5132 98.6819 27.02 99.6339 25.5827C100.604 24.1455 101.706 22.8389 102.938 21.6629C104.188 20.487 105.607 19.5444 107.193 18.8351C108.78 18.1071 110.385 17.7431 112.009 17.7431C113.745 17.7431 115.07 18.2284 115.985 19.1991C116.918 20.151 117.338 21.4203 117.245 23.0069C117.133 25.2841 116.162 27.3466 114.333 29.1945C112.523 31.0424 110.432 31.9664 108.061 31.9664C107.186 31.9664 106.514 31.7359 106.047 31.2749C105.752 30.9845 104.898 31.0208 104.898 31.4344C104.898 33.581 106.083 34.6542 108.453 34.6542C109.573 34.6542 110.927 34.2063 112.513 33.3103C114.025 32.449 115.288 31.3395 116.303 29.9817ZM110.917 21.8029C110.488 21.8029 109.891 22.2042 109.125 23.0069C108.36 23.8095 107.641 24.8081 106.969 26.0027C106.895 26.1147 106.829 26.2547 106.773 26.4227C106.717 26.572 106.671 26.74 106.634 26.9266C106.596 27.1133 106.624 27.272 106.718 27.4026C106.829 27.5333 107.007 27.5986 107.249 27.5986C107.977 27.5986 108.873 26.9733 109.937 25.7227C111.02 24.4721 111.561 23.3802 111.561 22.4469C111.561 22.2602 111.496 22.1109 111.365 21.9989C111.235 21.8682 111.085 21.8029 110.917 21.8029Z" fill="#1C0F00"/>
<path d="M133.036 6.20773C133.939 6.02722 134.799 6.99509 134.406 7.82762L124.413 29.0265C123.386 31.2291 122.835 32.5917 122.761 33.1143C122.686 33.4876 122.723 33.7956 122.873 34.0383C123.022 34.2623 123.255 34.3743 123.573 34.3743C124.208 34.3743 124.879 33.9916 125.583 33.2261C125.815 32.9739 126.294 33.2239 126.148 33.5343C125.738 34.4116 125.234 35.3169 124.637 36.2502C124.039 37.1834 123.405 38.0141 122.733 38.742C122.079 39.4513 121.323 40.0393 120.465 40.5059C119.606 40.9539 118.748 41.1779 117.889 41.1779C116.526 41.1779 115.518 40.8139 114.865 40.086C114.212 39.3393 113.913 38.3781 113.969 37.2021C114.006 36.0075 114.221 34.7849 114.613 33.5343C114.986 32.265 115.509 30.9958 116.181 29.7265L126.323 8.43528C126.964 7.08986 128.578 6.45972 130.068 6.45972C131.132 6.45972 132.122 6.37572 133.036 6.20773Z" fill="#1C0F00"/>
</svg>
