<svg width="136" height="61" viewBox="0 0 136 61" fill="none" xmlns="http://www.w3.org/2000/svg">
<path d="M50.3054 5.64776C49.3535 5.64776 48.3082 6.28239 47.1696 7.55166C46.0497 8.82093 44.855 10.5568 43.5858 12.7594C42.3165 14.9619 41.0099 17.2765 39.666 19.703C38.3407 22.1109 36.7635 24.7428 34.9342 27.5986C33.7115 29.5147 32.4972 31.2435 31.2915 32.7849C30.3673 33.9665 30.4747 35.681 31.6024 36.6701C32.6663 37.6034 33.3756 38.2287 33.7303 38.546C34.1036 38.8634 34.7756 39.4327 35.7462 40.254C36.7168 41.0752 37.4168 41.6445 37.8461 41.9619C38.2941 42.2978 38.9474 42.7925 39.806 43.4458C40.6833 44.0991 41.3739 44.5657 41.8779 44.8457C42.3818 45.1257 43.0165 45.471 43.7818 45.8817C44.5471 46.311 45.2097 46.6096 45.7697 46.7776C46.3296 46.9643 46.9269 47.1323 47.5616 47.2816C48.2149 47.4309 48.8402 47.5056 49.4375 47.5056C50.5201 47.5056 51.3694 47.2443 51.9853 46.7216C52.62 46.199 52.9373 45.5923 52.9373 44.9017C52.9373 44.6404 52.8533 44.3697 52.6853 44.0898C52.5186 43.7772 52.3597 43.2936 52.6623 43.1095C52.9262 42.9489 53.2511 42.7997 53.6373 42.6618C54.4399 42.4005 55.2425 42.2698 56.0451 42.2698C58.2477 42.2698 60.1049 42.9605 61.6168 44.3417C63.1474 45.723 63.9127 47.4589 63.9127 49.5495C63.9127 51.4907 63.3061 53.2546 62.0928 54.8412C60.8795 56.4278 59.2743 57.6504 57.2771 58.509C55.2798 59.3863 53.1146 59.8249 50.7814 59.8249C48.7655 59.8249 46.6936 59.4143 44.5657 58.593C42.4378 57.7904 40.4686 56.7731 38.658 55.5412C36.8661 54.3092 34.9996 52.7786 33.0583 50.9494C31.1358 49.1388 29.4652 47.4216 28.0466 45.7977C27.3437 44.993 26.6201 44.1402 25.876 43.2393C24.5392 41.621 22.2101 41.3021 20.2955 42.1623C18.017 43.1859 15.6916 43.6978 13.3194 43.6978C11.1168 43.6978 9.08224 43.2685 7.21568 42.4098C5.34911 41.5512 3.84652 40.3193 2.70791 38.714C1.5693 37.0901 1 35.2795 1 33.2823C1 30.5011 1.95195 28.2892 3.85585 26.6467C5.77842 24.9854 8.27029 24.1548 11.3315 24.1548C13.9053 24.1548 16.9521 25.3092 20.4716 27.6181C22.0012 28.6215 24.0273 28.6341 25.2876 27.3081C25.8277 26.74 26.374 26.1182 26.9266 25.4427C28.2892 23.7815 29.5398 22.1016 30.6785 20.403C31.8357 18.6857 33.0303 16.8938 34.2623 15.0273C35.5129 13.142 36.7728 11.3875 38.0421 9.76354C39.33 8.12096 40.6553 6.63704 42.0179 5.31178C43.3991 3.96785 44.911 2.91323 46.5536 2.14794C48.1962 1.38265 49.8855 1 51.6214 1C53.9172 1 55.9051 1.64397 57.585 2.9319C59.265 4.20117 60.1049 5.94641 60.1049 8.16763C60.1049 10.1649 59.3676 11.9754 57.893 13.5993C56.4184 15.2046 54.6545 16.0072 52.6013 16.0072C51.0521 16.0072 49.8108 15.6059 48.8775 14.8033C47.9629 13.982 47.5242 12.9927 47.5616 11.8354C47.5989 11.1075 47.8136 10.4075 48.2055 9.73554C48.4223 9.37099 48.6833 9.04804 48.9885 8.7667C49.3661 8.41856 50.1278 8.78359 50.6414 8.78359C51.0894 8.78359 51.444 8.63427 51.7054 8.33562C51.9667 8.0183 52.0973 7.65432 52.0973 7.24367C52.0973 6.17973 51.5 5.64776 50.3054 5.64776ZM16.5952 31.2104C15.9792 30.4638 15.3726 29.9038 14.7753 29.5305C14.178 29.1572 13.7113 28.9705 13.3754 28.9705C12.9834 28.9705 12.6847 29.0732 12.4794 29.2785C12.2741 29.4652 12.1714 29.7078 12.1714 30.0065C12.1714 30.6411 12.5354 31.1731 13.2634 31.6024C14.01 32.0317 14.8313 32.2464 15.7272 32.2464C15.849 32.2464 15.9868 32.2424 16.1404 32.2344C16.6507 32.208 16.9037 31.6177 16.5952 31.2104Z" fill="#FFF3E1"/>
<path d="M56.4612 27.6676C56.4659 27.6592 56.4731 27.6523 56.4817 27.648C56.5193 27.6292 56.5611 27.6646 56.5492 27.705C55.7524 30.3963 54.7829 32.4421 53.6406 33.8423C52.9134 34.7337 52.0793 35.3598 51.1383 35.7206C50.0555 36.1357 48.9601 36.6206 48.1631 37.4629C47.2252 38.4541 46.2418 39.2818 45.2131 39.946C43.7571 40.8793 42.3292 41.3459 40.9293 41.3459C38.9694 41.3459 37.5321 40.7206 36.6175 39.47C35.7215 38.2007 35.3202 36.5022 35.4136 34.3743C35.4882 33.0677 35.7869 31.6584 36.3095 30.1465C36.8322 28.6346 37.5601 27.16 38.4934 25.7227C39.4454 24.2668 40.5093 22.9509 41.6852 21.7749C42.8798 20.5803 44.2331 19.619 45.745 18.8911C47.257 18.1631 48.7875 17.7991 50.3368 17.7991C51.7181 17.7991 52.81 18.2938 53.6126 19.283C54.4339 20.2537 54.8446 21.4949 54.8446 23.0069C54.8446 24.1964 54.6502 25.4715 54.2616 26.8322C53.6938 28.8199 54.9486 30.0984 56.0537 28.3514C56.1901 28.1356 56.326 27.9077 56.4612 27.6676ZM44.5971 34.6542C45.7116 34.6542 45.9688 33.239 46.1605 32.1411C46.2598 31.5723 46.4853 31.0288 46.837 30.5105C47.1792 29.9782 47.6375 29.5499 48.2121 29.2258C49.3567 28.58 50.5739 27.8848 51.0259 26.6509C51.54 25.2473 51.7116 24.1447 51.5407 23.3428C51.3727 22.7642 51.0274 22.4655 50.5048 22.4469C49.6648 22.4469 48.5355 23.5388 47.117 25.7227C45.6424 27.9813 44.6344 30.0998 44.0931 32.0784C43.6265 33.7956 43.7945 34.6542 44.5971 34.6542Z" fill="#FFF3E1"/>
<path d="M72.0357 6.20773C72.9382 6.02722 73.7984 6.9951 73.4059 7.82762L63.4121 29.0265C62.3855 31.2291 61.8349 32.5917 61.7602 33.1143C61.6855 33.4876 61.7229 33.7956 61.8722 34.0383C62.0215 34.2623 62.2548 34.3743 62.5722 34.3743C63.208 34.3743 63.8781 33.9916 64.5825 33.2261C64.8145 32.9739 65.2933 33.2239 65.148 33.5343C64.7374 34.4116 64.2334 35.3169 63.6361 36.2502C63.0388 37.1834 62.4042 38.0141 61.7322 38.742C61.0789 39.4513 60.3229 40.0393 59.4643 40.5059C58.6057 40.9539 57.7471 41.1779 56.8884 41.1779C55.5259 41.1779 54.5179 40.8139 53.8646 40.086C53.2113 39.3393 52.9127 38.3781 52.9687 37.2021C53.006 36.0075 53.2206 34.7849 53.6126 33.5343C53.9859 32.265 54.5086 30.9958 55.1805 29.7265L65.3228 8.43528C65.9637 7.08986 67.5775 6.45972 69.0678 6.45972C70.1318 6.45972 71.121 6.37572 72.0357 6.20773Z" fill="#FFF3E1"/>
<path d="M85.7178 18.3591C87.9732 18.3591 89.4605 20.7074 88.4965 22.7464L85.223 29.6705C85.0363 30.0438 84.887 30.3611 84.775 30.6225C84.663 30.8651 84.5137 31.2011 84.327 31.6304C84.159 32.041 84.047 32.3864 83.991 32.6663C83.935 32.9463 83.8977 33.2263 83.879 33.5063C83.879 33.7863 83.9537 34.0009 84.103 34.1503C84.2524 34.2996 84.4763 34.3743 84.775 34.3743C85.7643 34.3743 86.8376 33.4503 87.9948 31.6024C88.0527 31.5032 88.2047 31.568 88.1731 31.6784L88.1068 31.9104C87.6775 32.9743 87.2015 33.9823 86.6789 34.9342C86.1563 35.8862 85.5123 36.8661 84.747 37.8741C83.9817 38.882 83.1044 39.6847 82.1151 40.282C81.1258 40.8793 80.0992 41.1779 79.0353 41.1779C78.1953 41.1779 77.4954 40.9819 76.9354 40.5899C76.3941 40.198 76.0301 39.6847 75.8435 39.05C75.6568 38.4154 75.5448 37.6874 75.5075 36.8661C75.4927 36.54 74.7125 36.2934 74.5378 36.5692C73.891 37.5899 73.197 38.4822 72.4556 39.246C71.2237 40.4966 69.9358 41.1219 68.5918 41.1219C67.4346 41.1219 66.5106 40.6926 65.82 39.834C65.1107 38.9754 64.756 37.8181 64.756 36.3622C64.756 34.5516 65.1853 32.545 66.044 30.3425C66.9213 28.1399 68.0225 26.1147 69.3478 24.2668C70.6731 22.4189 72.2037 20.8696 73.9396 19.619C75.6941 18.3684 77.374 17.7431 78.9793 17.7431C80.1552 17.7431 80.9859 18.1351 81.4712 18.9191C81.9533 19.669 82.1621 20.5471 82.0976 21.5532C82.0928 21.6272 82.1509 21.6909 82.2251 21.6909C82.277 21.6909 82.3237 21.6592 82.3427 21.6109L82.9691 20.025C83.3662 19.0197 84.3373 18.3591 85.4182 18.3591H85.7178ZM77.8874 28.5786C77.9994 28.3546 78.1207 28.0839 78.2513 27.7666C78.4007 27.4306 78.578 27.02 78.7833 26.5347C78.9886 26.0494 79.166 25.5827 79.3153 25.1347C79.4646 24.6681 79.5859 24.2295 79.6793 23.8188C79.7913 23.4082 79.8286 23.0815 79.7913 22.8389C79.7539 22.5775 79.6326 22.4469 79.4273 22.4469C78.7553 22.4469 77.822 23.4268 76.6274 25.3867C75.3208 27.5333 74.4715 29.4839 74.0796 31.2384C73.7996 32.5264 73.9582 33.1703 74.5555 33.1703C75.2088 33.1703 76.3194 31.6397 77.8874 28.5786Z" fill="#FFF3E1"/>
<path d="M107.818 8.6156C106.269 8.6156 104.523 10.3328 102.582 13.7673C101.598 15.4683 100.354 18.2941 98.8482 22.2448C98.5789 22.9516 99.1029 23.7068 99.8593 23.7068H100.154C100.772 23.7068 101.198 24.3255 100.979 24.9027C100.848 25.2447 100.52 25.4707 100.154 25.4707H99.2165C98.2777 25.4707 97.4386 26.0554 97.124 26.94C96.8437 27.728 96.4979 28.7129 96.0864 29.8945C95.3584 31.9851 94.7798 33.609 94.3505 34.7662C93.9212 35.9048 93.3799 37.3048 92.7266 38.966C92.0919 40.6086 91.476 42.0739 90.8787 43.3618C90.2814 44.6684 89.6747 45.8537 89.0588 46.9176C87.0802 50.3521 84.7657 52.9373 82.1151 54.6732C79.4646 56.4278 76.5621 57.3051 73.4076 57.3051C72.3436 57.3051 71.289 57.1184 70.2438 56.7451C69.1798 56.3904 68.2092 55.8865 67.3319 55.2332C66.4546 54.5799 65.7453 53.7399 65.204 52.7133C64.6627 51.6867 64.3921 50.5574 64.3921 49.3255C64.3921 48.3922 64.5974 47.4776 65.008 46.5816C65.4 45.7043 65.9413 44.9484 66.6319 44.3137C67.3226 43.6978 68.0879 43.2125 68.9278 42.8578C69.7678 42.5218 70.6824 42.4005 71.6717 42.4938C72.1181 42.5444 72.5551 42.6462 72.9825 42.7994C73.6882 43.0523 73.5047 43.9945 73.2676 44.7057C73.0996 45.1724 73.1743 45.583 73.4916 45.9377C73.7902 46.311 74.2196 46.5256 74.7795 46.5816C75.3395 46.6376 75.9368 46.591 76.5714 46.4416C77.2061 46.311 77.962 45.975 78.8393 45.4337C79.6979 44.911 80.5472 44.2111 81.3872 43.3338C82.2085 42.4752 83.0951 41.2712 84.047 39.722C84.999 38.1727 85.8856 36.3902 86.7069 34.3743C88.3486 30.3317 89.4979 27.5746 90.1546 26.1032C90.2259 25.9433 90.2723 25.7737 90.2791 25.5987C90.2933 25.2351 90.2746 24.8522 90.223 24.4501C90.1735 24.065 90.4609 23.7068 90.8492 23.7068C91.0887 23.7068 91.3062 23.566 91.4055 23.348C93.5625 18.6118 95.5241 14.9236 97.2903 12.2834C99.1196 9.57689 100.893 7.68232 102.61 6.59971C104.346 5.49843 106.306 4.94779 108.49 4.94779C109.311 4.94779 110.151 5.10645 111.01 5.42377C111.868 5.74109 112.652 6.17973 113.362 6.7397C114.089 7.28101 114.621 7.99964 114.957 8.89559C115.293 9.77288 115.321 10.7155 115.041 11.7234C114.817 12.5074 114.397 13.1794 113.781 13.7393C113.184 14.2993 112.503 14.6726 111.738 14.8593C110.991 15.0459 110.235 15.1113 109.47 15.0553C108.723 14.9993 108.051 14.7753 107.454 14.3833C106.587 13.7679 107.294 12.6369 107.967 11.8134C108.153 11.5864 108.318 11.3231 108.462 11.0235C108.891 10.1462 108.928 9.46489 108.574 8.97958C108.387 8.73693 108.135 8.6156 107.818 8.6156Z" fill="#FFF3E1"/>
<path d="M116.803 29.9817C116.862 29.9032 116.989 29.9441 116.989 30.0421C116.989 30.0555 116.986 30.0689 116.981 30.0813C115.489 33.6001 113.513 36.3564 111.053 38.3501C108.608 40.3473 106.098 41.3459 103.522 41.3459C101.375 41.3459 99.7792 40.7206 98.7339 39.47C97.6887 38.2007 97.166 36.5022 97.166 34.3743C97.166 33.0303 97.418 31.5931 97.922 30.0625C98.4446 28.5132 99.1819 27.02 100.134 25.5827C101.104 24.1455 102.206 22.8389 103.438 21.6629C104.688 20.487 106.107 19.5444 107.693 18.8351C109.28 18.1071 110.885 17.7431 112.509 17.7431C114.245 17.7431 115.57 18.2284 116.485 19.1991C117.418 20.151 117.838 21.4203 117.745 23.0069C117.633 25.2841 116.662 27.3466 114.833 29.1945C113.023 31.0424 110.932 31.9664 108.561 31.9664C107.686 31.9664 107.014 31.7359 106.547 31.2749C106.252 30.9845 105.398 31.0208 105.398 31.4344C105.398 33.581 106.583 34.6542 108.953 34.6542C110.073 34.6542 111.427 34.2063 113.013 33.3103C114.525 32.449 115.788 31.3395 116.803 29.9817ZM111.417 21.8029C110.988 21.8029 110.391 22.2042 109.625 23.0069C108.86 23.8095 108.141 24.8081 107.469 26.0027C107.395 26.1147 107.329 26.2547 107.273 26.4227C107.217 26.572 107.171 26.74 107.134 26.9266C107.096 27.1133 107.124 27.272 107.218 27.4026C107.329 27.5333 107.507 27.5986 107.749 27.5986C108.477 27.5986 109.373 26.9733 110.437 25.7227C111.52 24.4721 112.061 23.3802 112.061 22.4469C112.061 22.2602 111.996 22.1109 111.865 21.9989C111.735 21.8682 111.585 21.8029 111.417 21.8029Z" fill="#FFF3E1"/>
<path d="M133.536 6.20773C134.439 6.02722 135.299 6.99509 134.906 7.82762L124.913 29.0265C123.886 31.2291 123.335 32.5917 123.261 33.1143C123.186 33.4876 123.223 33.7956 123.373 34.0383C123.522 34.2623 123.755 34.3743 124.073 34.3743C124.708 34.3743 125.379 33.9916 126.083 33.2261C126.315 32.9739 126.794 33.2239 126.648 33.5343C126.238 34.4116 125.734 35.3169 125.137 36.2502C124.539 37.1834 123.905 38.0141 123.233 38.742C122.579 39.4513 121.823 40.0393 120.965 40.5059C120.106 40.9539 119.248 41.1779 118.389 41.1779C117.026 41.1779 116.018 40.8139 115.365 40.086C114.712 39.3393 114.413 38.3781 114.469 37.2021C114.506 36.0075 114.721 34.7849 115.113 33.5343C115.486 32.265 116.009 30.9958 116.681 29.7265L126.823 8.43528C127.464 7.08986 129.078 6.45972 130.568 6.45972C131.632 6.45972 132.622 6.37572 133.536 6.20773Z" fill="#FFF3E1"/>
</svg>
