<svg width="974" height="605" viewBox="0 0 974 605" fill="none" xmlns="http://www.w3.org/2000/svg">
<path d="M718.802 153.233C621.088 122.015 616.044 30.0385 667.263 10.0554C693.196 -0.0623327 712.081 10.4167 722.134 18.8862C746.736 -17.621 823.555 2.36128 804.599 73.3023C793.585 114.523 766.855 137.549 746.736 148.022C734.366 154.46 727.757 156.094 718.802 153.233Z" fill="#FF2F85"/>
<path d="M732.769 39.3292C731.771 30.3367 726.624 22.6695 722.134 18.8862M722.134 18.8862C712.081 10.4167 693.196 -0.0623328 667.263 10.0554C616.044 30.0385 621.088 122.015 718.802 153.233C727.757 156.094 734.366 154.46 746.736 148.022C766.855 137.549 793.585 114.523 804.599 73.3023C823.555 2.36128 746.736 -17.621 722.134 18.8862Z" stroke="#1C0F00" stroke-width="1.5" stroke-linecap="round" stroke-linejoin="round"/>
<path d="M721.504 169.097C725.077 165.185 724.984 157.067 724.984 153.434C727.458 148.404 735.704 148.963 738.177 151.478C740.376 161.762 744.775 164.85 746.516 166.154C735.522 163.025 725.26 167.048 721.504 169.097Z" fill="#FF2F85" stroke="#1C0F00" stroke-width="1.5" stroke-linecap="round" stroke-linejoin="round"/>
<path d="M836.703 193.741C825.301 238.984 784.84 270.249 718.631 264.732" stroke="#1C0F00" stroke-width="1.5" stroke-linecap="round" stroke-linejoin="round"/>
<path d="M718.631 264.732C735.796 254.678 758.135 227.214 733.712 165.419" stroke="#1C0F00" stroke-width="1.5" stroke-linecap="round" stroke-linejoin="round"/>
<path d="M877.254 43.9649C882.959 39.924 890.95 42.2782 893.439 48.8106C898.712 62.6503 901.648 73.2335 904.175 87.6633C904.744 90.9135 906.696 93.7719 909.536 95.4518C922.811 103.304 932.038 109.386 943.213 117.943C948.699 122.144 948.784 130.354 943.391 134.673C930.676 144.854 921.632 150.745 909.77 157.032C906.766 158.624 904.623 161.476 903.936 164.806C900.991 179.082 897.84 189.586 893.069 202.979C890.681 209.684 882.574 212.283 876.719 208.238C865.333 200.372 856.607 193.795 845.566 183.792C843.011 181.478 839.534 180.452 836.125 180.958C820.788 183.235 809.797 183.047 795.863 182.357C788.963 182.016 784.053 175.427 785.799 168.743C789.456 154.745 792.937 144.248 799.632 131.227C801.296 127.991 801.367 124.153 799.772 120.882C793.124 107.239 789.319 96.8712 785.656 82.8739C783.957 76.3783 788.653 69.9792 795.359 69.6454C809.688 68.9321 820.854 69.3861 836.59 71.4599C839.776 71.8798 843.003 70.9262 845.435 68.8262C856.377 59.3805 865.037 52.6199 877.254 43.9649Z" fill="#FFA41C" stroke="#1C0F00" stroke-width="1.5" stroke-linecap="round" stroke-linejoin="round"/>
<path d="M823.461 191.705C828.375 189.725 832.923 183.209 834.496 179.935C839.645 176.624 846.634 180.5 847.002 184.546C844.533 194.768 847.013 198.603 848.018 200.532C839.462 192.952 827.734 191.484 823.461 191.705Z" fill="#FFA41C" stroke="#1C0F00" stroke-width="1.5" stroke-linecap="round" stroke-linejoin="round"/>
<path d="M5.60265 532.142C-28.8333 487.889 138.98 484.367 209.051 446.38C275.152 410.546 309.687 390.829 362.049 384.702C414.412 378.575 493.363 397.773 536.726 416.562C580.089 435.351 591.134 417.788 647.588 416.562C704.041 415.337 714.677 427.182 743.722 446.38C772.767 465.578 909.401 455.775 956.445 494.17C1003.49 532.566 908.582 555.44 878.719 561.158C848.856 566.877 828.402 564.017 753.131 590.159C677.86 616.301 696.268 555.031 631.224 585.666C566.18 616.301 515.863 586.483 441.001 594.244C366.139 602.004 316.416 618.214 249.141 577.088C201.389 547.897 49.7836 588.918 5.60265 532.142Z" fill="#00B261" stroke="#1C0F00" stroke-width="1.5" stroke-linecap="round" stroke-linejoin="round"/>
<path d="M663.824 406.713C671.916 410.759 670.813 419.955 669.342 423.265L693.986 428.047C685.894 413.702 689.94 403.403 695.09 397.517C682.952 402.667 679.886 410.269 678.905 414.07C674.491 408.184 667.625 406.591 663.824 406.713Z" fill="#00B261"/>
<path d="M668.606 424.369C670.077 421.058 671.916 410.759 663.824 406.713C667.625 406.591 674.491 408.184 678.905 414.07C679.886 410.269 682.951 402.667 695.09 397.517C689.94 403.403 685.894 413.702 693.986 428.047" stroke="#1C0F00" stroke-width="1.5" stroke-linecap="round" stroke-linejoin="round"/>
<path d="M480.647 461.519C464.094 468.14 458.454 481.75 456.37 486.164C461.888 487.635 477.851 490.357 497.567 489.474C484.693 486.164 486.532 471.819 492.049 468.876C479.985 468.876 474.026 475.374 472.922 478.807C472.334 472.039 478.072 462.991 480.647 461.519Z" fill="#00B261"/>
<path d="M456.37 486.164C458.454 481.75 464.094 468.14 480.647 461.519C478.072 462.991 472.334 472.039 472.922 478.807C474.026 475.374 479.985 468.876 492.049 468.876C486.532 471.819 484.693 486.164 497.567 489.474" stroke="#1C0F00" stroke-width="1.5" stroke-linecap="round" stroke-linejoin="round"/>
<path d="M831.554 459.68C830.965 452.912 836.66 443.128 840.014 441.657C830.612 445.417 824.595 450.697 820.887 456.002C821.332 454.163 819.415 446.438 811.323 444.231C814.634 449.749 816.105 455.928 805.806 468.876C816.105 470.838 840.749 473.731 856.934 469.612C844.06 466.301 845.899 451.956 851.416 449.013C839.351 449.013 832.657 456.247 831.554 459.68Z" fill="#00B261"/>
<path d="M856.934 469.612C844.06 466.301 845.899 451.956 851.416 449.013C839.351 449.013 832.289 456.738 831.186 461.887C830.818 450.485 837.439 443.128 840.014 441.657C830.612 445.417 824.595 450.697 820.887 456.002C821.332 454.163 819.047 445.703 810.955 444.231C815.001 447.91 815.737 459.68 805.806 468.876" stroke="#1C0F00" stroke-width="1.5" stroke-linecap="round" stroke-linejoin="round"/>
<path d="M101.417 481.75C102.006 474.982 96.3111 465.198 92.9571 463.726C102.359 467.487 108.375 472.767 112.084 478.072C111.639 476.232 113.555 468.508 121.648 466.301C118.337 471.819 116.866 477.998 127.165 490.946C116.866 492.907 92.2215 495.801 76.0371 491.681C88.911 488.371 87.0719 474.025 81.5545 471.083C93.6192 471.083 100.314 478.317 101.417 481.75Z" fill="#00B261"/>
<path d="M76.0371 491.681C88.911 488.371 87.0719 474.025 81.5545 471.083C93.6192 471.083 100.681 478.807 101.785 483.957C102.153 472.554 95.5319 465.198 92.9571 463.726C102.359 467.487 108.375 472.767 112.084 478.072C111.639 476.232 113.923 467.772 122.015 466.301C117.969 469.979 117.234 481.75 127.165 490.946" stroke="#1C0F00" stroke-width="1.5" stroke-linecap="round" stroke-linejoin="round"/>
<path d="M489.948 386.483C497.097 398.196 491.14 408.038 487.268 411.495C493.741 415.615 499.1 410.975 500.97 408.14C502.876 396.915 494.417 389.025 489.948 386.483Z" fill="#00B261"/>
<path d="M487.268 411.495C491.14 408.038 497.097 398.196 489.948 386.483C494.417 389.025 502.876 396.915 500.97 408.14" stroke="#1C0F00" stroke-width="1.5" stroke-linecap="round" stroke-linejoin="round"/>
<path d="M215.337 430.622C208.188 442.335 214.145 452.177 218.017 455.634C211.544 459.754 206.185 455.114 204.315 452.279C202.409 441.054 210.869 433.164 215.337 430.622Z" fill="#00B261"/>
<path d="M218.017 455.634C214.145 452.177 208.188 442.335 215.337 430.622C210.869 433.164 202.409 441.054 204.315 452.279" stroke="#1C0F00" stroke-width="1.5" stroke-linecap="round" stroke-linejoin="round"/>
<path d="M925.455 464.462C932.604 476.175 926.647 486.017 922.775 489.474C929.248 493.594 934.607 488.954 936.477 486.119C938.383 474.894 929.923 467.004 925.455 464.462Z" fill="#00B261"/>
<path d="M922.775 489.474C926.647 486.017 932.604 476.175 925.455 464.462C929.923 467.004 938.383 474.894 936.477 486.119" stroke="#1C0F00" stroke-width="1.5" stroke-linecap="round" stroke-linejoin="round"/>
<path d="M323.952 375.448C340.504 382.069 346.144 395.678 348.229 400.092C342.711 401.563 326.747 404.285 307.032 403.403C319.906 400.092 318.067 385.747 312.549 382.804C324.614 382.804 330.573 389.303 331.676 392.736C332.265 385.968 326.527 376.919 323.952 375.448Z" fill="#00B261"/>
<path d="M348.229 400.092C346.144 395.678 340.504 382.069 323.952 375.448C326.527 376.919 332.265 385.968 331.676 392.736C330.573 389.303 324.614 382.804 312.549 382.804C318.067 385.747 319.906 400.092 307.032 403.403" stroke="#1C0F00" stroke-width="1.5" stroke-linecap="round" stroke-linejoin="round"/>
<path d="M731.387 489.255C731.562 489.269 731.736 489.277 731.909 489.279L731.387 489.255C722.944 488.579 712.687 473.993 722.203 460.783C714.87 462.716 707.339 472.793 708.647 480.409C708.037 476.855 705.753 468.854 693.808 467.16C698.857 470.848 698.614 485.674 685.402 487.145L731.387 489.255Z" fill="#00B261"/>
<path d="M730.033 484.692C720.837 484.692 712.377 471.818 722.203 460.783C714.87 462.716 709.229 471.559 710.538 479.175C709.927 475.621 705.753 468.854 693.808 467.16C696.827 469.446 698.975 483.125 687.897 485.269" stroke="#1C0F00" stroke-width="1.5" stroke-linecap="round" stroke-linejoin="round"/>
<ellipse cx="367.304" cy="460.784" rx="89.0141" ry="13.9774" fill="#1C0F00"/>
<ellipse cx="563.776" cy="446.806" rx="89.0141" ry="13.9774" fill="#1C0F00"/>
<path d="M468.877 363.677C434.506 344.9 437.979 299.675 454.532 276.87L484.694 269.881C468.019 290.235 453.668 329.246 481.016 343.079C506.037 355.735 540.17 330.2 553.845 307.286C550.902 304.089 548.577 297.307 550.535 289.009C555.075 269.767 588.053 263.996 599.824 289.81C599.824 289.81 673.767 443.128 641.13 443.128H549.799C515.591 443.128 497.876 399.484 525.522 378.758C529.413 375.641 533.768 373.399 538.423 371.916C539.955 364.742 544.598 355.574 551.919 348.352C526.93 372.459 493.441 377.096 468.877 363.677Z" fill="#EEB36F"/>
<path d="M553.845 307.286C550.902 304.089 548.577 297.307 550.535 289.009C555.075 269.767 588.053 263.996 599.823 289.81C599.823 289.81 673.767 443.128 641.13 443.128H549.799C515.591 443.128 497.876 399.484 525.522 378.758C529.413 375.641 533.768 373.399 538.423 371.916M553.845 307.286C540.17 330.2 506.037 355.735 481.016 343.079C453.668 329.246 468.019 290.235 484.694 269.881L454.532 276.87C437.979 299.675 434.506 344.9 468.877 363.677C493.607 377.187 527.383 372.395 552.424 347.861M553.845 307.286C556.585 302.695 558.503 298.21 559.363 294.158M618.583 400.092C603.195 380.508 565.655 363.242 538.423 371.916M538.423 371.916C539.99 364.579 544.812 355.154 552.424 347.861M552.424 347.861C560.619 339.832 567.345 330.612 572.605 318.802" stroke="#1C0F00" stroke-width="1.5" stroke-linecap="round" stroke-linejoin="round"/>
<path d="M432.327 467.492C454.605 456.353 453.365 433.978 450.315 422.839L534.349 279.077C517.813 263.529 507.303 277.373 504.115 286.238L445.335 365.149C446.806 338.297 439.082 306.724 418.852 295.63C372.873 270.416 336.826 301.147 328.366 324.688C348.229 326.159 377.885 333.999 401.963 375.477C415.461 398.729 431.004 447.482 432.327 467.492Z" fill="#EEB36F"/>
<path d="M653.196 221.75C642.986 216.711 618.586 216.578 605.856 234.48C597.445 246.308 599.094 257.952 601.48 263.521C603.921 269.218 609.272 272.541 612.667 274.297C606.11 281.624 602.807 293.204 607.845 305.69C616.675 327.57 645.637 322.796 654.788 314.044C656.777 318.818 667.279 327.411 680.646 322.001C688.568 318.794 692.555 312.636 693.709 305.69C702.924 306.088 719.791 298.052 718.836 270.682C717.643 236.469 693.708 223.739 680.978 223.739C681.781 199.934 681.499 156.806 680.646 146.562C679.452 132.24 671.496 115.522 654.39 109.963C641.659 105.826 626.206 108.308 617.851 111.092C612.037 118.137 605.409 133.46 625.41 138.399C631.775 133.625 646.274 133.434 650.411 144.573C654.549 155.712 653.992 200.666 653.196 221.75Z" fill="#EEB36F"/>
<path d="M612.667 274.297C609.272 272.541 603.921 269.218 601.48 263.521C599.094 257.952 597.445 246.308 605.856 234.48C618.586 216.578 642.986 216.711 653.196 221.75C653.992 200.666 654.549 155.712 650.411 144.573C646.274 133.434 631.775 133.625 625.41 138.399C605.409 133.46 612.037 118.137 617.851 111.092C626.206 108.308 641.659 105.826 654.39 109.963C671.496 115.522 679.452 132.24 680.646 146.562C681.499 156.806 681.781 199.934 680.978 223.739M612.667 274.297C606.11 281.624 602.807 293.204 607.845 305.69C616.675 327.57 645.637 322.796 654.788 314.044M612.667 274.297C617.6 268.784 624.374 265.678 630.823 266.403M661.551 286.595C662.611 293.092 662.151 307.001 654.788 314.044M654.788 314.044C656.777 318.818 667.279 327.411 680.646 322.001C688.568 318.794 692.555 312.636 693.709 305.69M630.823 266.403C628.723 256.418 623.181 252.134 619.779 251.189M630.823 266.403C631.67 270.43 631.956 275.385 631.316 281.423M693.709 305.69C702.924 306.088 719.791 298.052 718.836 270.682C717.643 236.469 693.708 223.739 680.978 223.739M693.709 305.69C694.99 297.986 692.786 289.311 688.602 282.617M680.978 223.739C680.882 226.559 680.772 229.107 680.646 231.298" stroke="#1C0F00" stroke-width="1.5" stroke-linecap="round" stroke-linejoin="round"/>
<path d="M355.218 392.736C330.179 355.861 328.734 337.239 328.734 325.423C347.108 325.423 377.756 333.69 401.834 375.168C415.332 398.42 430.875 447.173 432.198 467.183C410.317 456.442 377.098 424.959 355.218 392.736Z" fill="#1C0F00"/>
<path d="M444.401 433.25L535.453 277.275C518.917 261.727 508.407 275.571 505.219 284.436L445.703 364.439M450.368 422.907C453.418 434.046 454.476 456.044 432.198 467.183M432.198 467.183C410.317 456.442 377.098 424.959 355.218 392.736C330.179 355.861 328.734 337.239 328.734 325.423M432.198 467.183C430.875 447.173 415.332 398.42 401.834 375.168C377.756 333.69 347.108 325.423 328.734 325.423M442.761 384.276C448.01 356.504 446.222 314.306 421.059 297.101C378.023 267.675 333.516 301.883 328.734 325.423" stroke="#1C0F00" stroke-width="1.5" stroke-linecap="round" stroke-linejoin="round"/>
<path d="M317.537 221.75C327.748 216.711 352.147 216.579 364.877 234.48C373.289 246.309 371.64 257.952 369.253 263.521C366.813 269.218 361.461 272.541 358.067 274.297C364.623 281.625 367.927 293.204 362.888 305.69C354.058 327.57 325.096 322.796 315.946 314.044C313.957 318.818 303.454 327.411 290.088 322.001C282.166 318.794 278.179 312.636 277.024 305.69C267.81 306.088 250.942 298.052 251.897 270.682C253.09 236.469 277.026 223.739 289.756 223.739C288.953 199.934 289.234 156.806 290.088 146.562C291.281 132.241 299.238 115.523 316.344 109.963C329.074 105.826 345.743 106.574 356.882 111.745C362.611 138.479 351.047 140.388 344.55 138.002C338.184 133.228 324.459 133.434 320.322 144.573C316.185 155.712 316.741 200.666 317.537 221.75Z" fill="#EEB36F"/>
<path d="M358.067 274.297C361.461 272.541 366.813 269.218 369.253 263.521C371.64 257.952 373.289 246.309 364.877 234.48C352.147 216.579 327.748 216.711 317.537 221.75C316.741 200.666 316.185 155.712 320.322 144.573C324.459 133.434 338.184 133.228 344.55 138.002M358.067 274.297C364.623 281.625 367.927 293.204 362.888 305.69C354.058 327.57 325.096 322.796 315.946 314.044M358.067 274.297C353.134 268.784 346.36 265.678 339.911 266.403M309.183 286.595C308.122 293.092 308.583 307.001 315.946 314.044M315.946 314.044C313.957 318.818 303.454 327.411 290.088 322.001C282.166 318.794 278.179 312.636 277.024 305.69M339.911 266.403C342.01 256.418 347.553 252.134 350.954 251.189M339.911 266.403C339.064 270.43 338.777 275.386 339.418 281.423M356.882 111.745C345.743 106.574 329.074 105.826 316.344 109.963C299.238 115.523 291.281 132.241 290.088 146.562C289.234 156.806 288.953 199.934 289.756 223.739M277.024 305.69C267.81 306.088 250.942 298.052 251.897 270.682C253.09 236.469 277.026 223.739 289.756 223.739M277.024 305.69C275.744 297.986 277.947 289.311 282.131 282.617M289.756 223.739C289.851 226.559 289.961 229.107 290.088 231.298" stroke="#1C0F00" stroke-width="1.5" stroke-linecap="round" stroke-linejoin="round"/>
<path d="M436.67 36.6068C430.75 34.2634 414.766 32.9807 402.631 42.1567C394.195 48.8737 390.369 56.6761 388.891 63.6171C379.287 65.5904 358.23 78.7869 364.546 107.342C358.496 110.2 351.635 115.622 347.869 125.037C341.949 139.837 347.376 153.404 350.83 158.337C339.878 187.05 353.846 202.614 362.2 206.808C362.42 214.124 364.383 222.151 369.701 229.378C376.168 238.167 384.176 241.792 391.161 242.868C393.825 264.181 414.84 269.338 425.06 267.488C429.466 273.109 435.955 278.271 444.441 280.438C465.594 285.839 477.001 279.451 479.961 275.998C481.811 278.835 488.471 284.656 500.311 285.248C514.519 285.84 521.702 279.328 523.518 275.998C531.654 279.65 542.46 281.379 553.221 275.998C562.183 271.517 567.219 265.121 569.994 258.948C596.338 255.396 601.075 234.63 600.212 224.677C606.774 222.13 613.993 217.346 617.972 209.028C624.484 195.412 620.685 180.661 617.972 174.988C621.301 171.658 627.443 163.369 626.851 147.977C626.259 132.585 619.575 126.73 615.752 124.062C617.735 118.035 619.028 110.394 617.232 103.207C614.272 91.3672 603.872 85.9405 599.042 84.7072C598.438 78.3141 596.239 71.0093 590.591 62.8771C583.191 52.221 568.761 47.8303 562.471 46.967C555.367 29.2069 537.805 28.8164 529.911 30.8412C525.945 26.6828 519.889 22.506 511.041 19.9565C498.89 16.4555 488.602 20.6033 481.972 25.5069C478.148 22.6702 468.712 17.5886 456.28 19.9566C443.848 22.3246 437.78 32.1668 436.67 36.6068Z" fill="#EEB36F"/>
<path d="M388.94 78.7869C388.125 75.3504 387.568 69.8287 388.891 63.6171M481.972 25.5069C478.148 22.6702 468.712 17.5886 456.28 19.9566C443.848 22.3246 437.78 32.1668 436.67 36.6068C430.75 34.2634 414.766 32.9807 402.631 42.1567C394.195 48.8737 390.369 56.6761 388.891 63.6171M481.972 25.5069C488.602 20.6033 498.89 16.4555 511.041 19.9565C519.889 22.506 525.945 26.6828 529.911 30.8412M481.972 25.5069C479.072 27.6511 476.872 29.9398 475.521 31.7967M536.201 41.4167C535.653 38.922 533.773 34.8904 529.911 30.8412M529.911 30.8412C537.805 28.8164 555.367 29.2069 562.471 46.967C568.761 47.8303 583.191 52.221 590.591 62.8771C596.239 71.0093 598.438 78.3141 599.042 84.7072M598.732 95.8072C599.164 92.4928 599.428 88.7855 599.042 84.7072M599.042 84.7072C603.872 85.9405 614.272 91.3672 617.232 103.207C619.028 110.394 617.735 118.035 615.752 124.062M611.682 133.177C612.893 131.19 614.467 127.964 615.752 124.062M615.752 124.062C619.575 126.73 626.259 132.585 626.851 147.977C627.443 163.369 621.301 171.658 617.972 174.988C620.685 180.661 624.484 195.412 617.972 209.028C613.993 217.346 606.774 222.13 600.212 224.677M589.481 227.158C592.121 227.014 596.033 226.299 600.212 224.677M600.212 224.677C601.075 234.63 596.338 255.396 569.994 258.948M569.994 258.948C567.219 265.121 562.183 271.517 553.221 275.998C542.46 281.379 531.654 279.65 523.518 275.998M569.994 258.948C572.718 252.887 573.263 247.043 573.201 243.438M511.781 267.858C514.065 270.434 518.227 273.623 523.518 275.998M523.518 275.998C521.702 279.328 514.519 285.84 500.311 285.248C488.471 284.656 481.811 278.835 479.961 275.998C477.001 279.451 465.594 285.839 444.441 280.438C435.955 278.271 429.466 273.109 425.06 267.488M418.171 251.208C418.108 255.186 420.437 261.59 425.06 267.488M425.06 267.488C414.84 269.338 393.825 264.181 391.161 242.868M391.161 242.868C384.176 241.792 376.168 238.167 369.701 229.378C364.383 222.151 362.42 214.124 362.2 206.808M391.161 242.868C396.644 243.714 401.497 242.988 404.48 241.958M366.001 186.458C364.071 190.648 361.941 198.241 362.2 206.808M388.891 63.6171C379.287 65.5904 358.23 78.7869 364.546 107.342M364.546 107.342C358.496 110.2 351.635 115.622 347.869 125.037C341.949 139.837 347.376 153.404 350.83 158.337C339.878 187.05 353.846 202.614 362.2 206.808M364.546 107.342C368.006 105.708 371.201 104.912 373.4 104.687" stroke="#1C0F00" stroke-width="1.5" stroke-linecap="round" stroke-linejoin="round"/>
<path d="M562.845 188.049C563.316 195.301 554.473 208.736 541.27 205.483M531.793 200.523C535.134 203.186 538.311 204.754 541.27 205.483M541.27 205.483C539.47 208.836 533.965 214.259 526.352 209.128" stroke="#1C0F00" stroke-width="1.5" stroke-linecap="round" stroke-linejoin="round"/>
<path d="M396.877 199.089C401.99 199.999 409.417 208.363 402.484 217.679" stroke="#1C0F00" stroke-width="1.5" stroke-linecap="round" stroke-linejoin="round"/>
<path d="M605.578 156.691C601.315 159.657 591.391 160.29 589.722 148.798" stroke="#1C0F00" stroke-width="1.5" stroke-linecap="round" stroke-linejoin="round"/>
<path d="M548.016 120.383C545.637 114.817 549.039 104.077 559.2 101.303M568.517 100.988C564.942 100.4 561.842 100.582 559.2 101.303M559.2 101.303C557.336 98.2467 554.822 90.8149 559.673 85.5415" stroke="#1C0F00" stroke-width="1.5" stroke-linecap="round" stroke-linejoin="round"/>
<path d="M459.167 139.99C459.167 155.161 447.269 166.69 432.069 166.69C416.87 166.69 404.574 154.764 404.574 139.593C404.574 124.379 416.116 112.097 431.274 112.097C447.549 112.097 459.167 124.786 459.167 139.99Z" fill="#FFF3E1" stroke="#1C0F00" stroke-width="1.5"/>
<circle cx="437.242" cy="145.042" r="21.4822" fill="#1C0F00"/>
<path d="M399.847 143.969C392.527 142.377 385.128 147.549 384.332 151.527L396.267 172.612C398.654 173.805 409.395 171.02 410.986 163.064C412.577 155.108 408.997 145.958 399.847 143.969Z" fill="#EEB36F"/>
<path d="M383.138 154.159C383.569 148.685 390.147 142.914 398.237 143.632C407.728 144.474 413.768 155.001 411.179 163.422C408.651 171.648 399.531 173.949 396.943 172.686" stroke="#1C0F00" stroke-width="1.5" stroke-linecap="round" stroke-linejoin="round"/>
<path d="M440.822 213.189C446.259 216.106 459.918 219.395 471.057 209.211" stroke="#1C0F00" stroke-width="1.5" stroke-linecap="round" stroke-linejoin="round"/>
<path d="M500.143 139.99C500.143 155.176 487.833 167.486 472.648 167.486C457.463 167.486 444.755 154.778 444.755 139.593C444.755 124.407 457.065 112.097 472.25 112.097C488.525 112.097 500.143 124.786 500.143 139.99Z" fill="#FFF3E1" stroke="#1C0F00" stroke-width="1.5" stroke-linejoin="round"/>
<circle cx="477.819" cy="145.042" r="21.4822" fill="#1C0F00"/>
<circle cx="464.779" cy="131.578" r="7.72437" fill="#FFF3E1"/>
<circle cx="424.317" cy="131.578" r="7.72437" fill="#FFF3E1"/>
<path d="M435.254 166.246C431.753 161.791 430.082 161.472 427.695 161.87C426.12 162.133 422.855 164.11 421.728 173.407C420.136 186.535 427.297 210.404 453.156 208.813C479.014 207.222 480.605 184.546 479.809 176.192C479.014 167.838 475.433 160.677 471.057 159.483C466.681 158.29 465.612 161.543 463.101 165.848C460.317 170.622 455.544 173.407 449.178 173.407C444.006 173.407 439.63 171.816 435.254 166.246Z" fill="#FDDEDC" stroke="#1C0F00" stroke-width="1.5" stroke-linecap="round" stroke-linejoin="round"/>
<path d="M464.42 182.159C473.968 188.524 473.57 200.857 468.796 203.642C463.705 207.779 452.485 210.006 444.926 208.415C449.7 205.869 450.415 201.52 450.176 199.663C448.86 200.169 447.461 200.402 446.12 200.339C440.688 200.084 435.097 196.057 435.777 189.718C436.971 178.579 452.486 174.203 464.42 182.159Z" fill="#FFBAC2"/>
<path d="M456.065 189.32C456.947 194.611 453.899 198.231 450.176 199.663M450.176 199.663C448.86 200.169 447.461 200.402 446.12 200.339C440.688 200.084 435.097 196.057 435.777 189.718C436.971 178.579 452.486 174.203 464.42 182.159C473.968 188.524 473.57 200.857 468.796 203.642C463.705 207.779 452.485 210.006 444.926 208.415C449.7 205.869 450.415 201.52 450.176 199.663Z" stroke="#1C0F00" stroke-width="1.5" stroke-linecap="round" stroke-linejoin="round"/>
<path d="M480.877 99.0708C483.309 100.208 484.695 101.35 485.347 102.368C485.964 103.331 485.943 104.201 485.486 105.015C484.997 105.887 483.967 106.756 482.445 107.492C480.938 108.221 479.019 108.786 476.858 109.096C472.308 109.747 467.665 109.329 464.189 108.194C462.449 107.626 461.042 106.892 460.085 106.061C459.132 105.233 458.678 104.359 458.678 103.479C458.678 101.841 459.541 100.569 461.075 99.5893C462.631 98.5954 464.823 97.948 467.28 97.624C472.209 96.9742 477.871 97.6649 480.877 99.0708Z" fill="#6C3712" stroke="#1C0F00" stroke-width="1.5" stroke-linejoin="round"/>
<path d="M414.186 106.015C413.126 105.09 412.573 104.07 412.531 103.002C412.537 102.099 413.121 100.565 415.207 99.3126C417.31 98.0502 420.94 97.0839 426.934 97.4605C430.661 97.6946 433.46 98.4648 435.406 99.4833C437.359 100.505 438.396 101.743 438.742 102.896C439.078 104.017 438.801 105.193 437.829 106.249C436.841 107.322 435.127 108.269 432.649 108.773C427.6 109.801 422.521 109.515 418.711 108.338C416.805 107.749 415.256 106.949 414.186 106.015Z" fill="#6C3712" stroke="#1C0F00" stroke-width="1.5" stroke-linejoin="round"/>
<path d="M463.497 249.338C465.973 246.754 472.7 243.553 479.803 251.427C479.79 249.221 480.9 244.475 485.44 243.141" stroke="#1C0F00" stroke-width="1.5" stroke-linecap="round" stroke-linejoin="round"/>
<path d="M506.461 148.345C516.327 149.3 520.65 155.373 521.578 158.29L504.472 179.375C502.085 179.375 493.731 178.579 490.15 169.827C486.57 161.075 494.129 147.152 506.461 148.345Z" fill="#EEB36F"/>
<path d="M521.579 158.29C520.784 154.71 516.01 148.909 506.065 147.947C493.732 146.753 486.571 160.677 490.151 169.429C493.732 178.181 502.087 179.374 504.474 179.374" stroke="#1C0F00" stroke-width="1.5" stroke-linecap="round" stroke-linejoin="round"/>
<circle cx="509.653" cy="154.384" r="1.10348" fill="#1C0F00"/>
<circle cx="400.041" cy="152.177" r="1.10348" fill="#1C0F00"/>
<circle cx="497.147" cy="161.005" r="1.10348" fill="#1C0F00"/>
<circle cx="390.478" cy="152.177" r="1.10348" fill="#1C0F00"/>
<circle cx="504.504" cy="163.212" r="1.10348" fill="#1C0F00"/>
<circle cx="396.363" cy="161.005" r="1.10348" fill="#1C0F00"/>
<circle cx="514.803" cy="161.005" r="1.10348" fill="#1C0F00"/>
<circle cx="405.19" cy="161.005" r="1.10348" fill="#1C0F00"/>
<path d="M393.288 91.8731C395.631 90.7631 399.282 86.5451 395.138 78.5531C398.591 85.2131 413.638 90.0231 419.188 76.7031" stroke="#1C0F00" stroke-width="1.5" stroke-linecap="round" stroke-linejoin="round"/>
<path d="M463.854 56.2167C470.515 52.5165 486.425 52.5169 489.678 66.9469M489.755 73.607C490.125 72.127 489.983 68.3008 489.678 66.9469M489.678 66.9469C495.675 64.357 506.775 68.427 505.665 80.6369" stroke="#1C0F00" stroke-width="1.5" stroke-linecap="round" stroke-linejoin="round"/>
<path d="M538.142 449.526C532.59 452.345 531.634 456.677 531.865 458.439L538.142 465.384H547.336C548.203 465.737 552.193 463.975 553.06 459.746C554.448 452.169 545.081 446.002 538.142 449.526Z" fill="#FFA41C"/>
<path d="M535.543 461.014C536.24 460.122 538.54 458.138 542.164 457.336M531.865 458.439C531.634 456.677 532.59 452.345 538.142 449.526C545.081 446.002 554.448 452.169 553.06 459.746C552.193 463.975 548.203 465.737 547.336 465.384H538.142L531.865 458.439Z" stroke="#1C0F00" stroke-width="1.5" stroke-linecap="round" stroke-linejoin="round"/>
<path d="M527.95 446.884C532.834 449.842 532.344 456.15 531.496 458.439L519.858 462.7L516.415 461.014C514.889 460.779 511.455 458.491 512.134 453.137C512.982 446.444 521.845 443.185 527.95 446.884Z" fill="#FFA41C"/>
<path d="M525.243 458.439C525.349 457.664 524.507 454.761 521.565 452.186M531.496 458.439C532.344 456.15 532.834 449.842 527.95 446.884C521.845 443.185 512.982 446.444 512.134 453.137C511.455 458.491 514.889 460.779 516.415 461.014L519.858 462.7L531.496 458.439Z" stroke="#1C0F00" stroke-width="1.5" stroke-linecap="round" stroke-linejoin="round"/>
<path d="M530.757 458.272C524.324 457.245 520.968 460.411 520.094 462.123C521.32 463.838 524.655 467.414 528.186 468.003C532.6 468.739 537.382 466.164 537.749 463.957C536.934 462.368 534.393 459.006 530.757 458.272Z" fill="#FFE900" stroke="#1C0F00" stroke-width="1.5" stroke-linecap="round" stroke-linejoin="round"/>
<path d="M512.134 478.517C501.97 474.471 505.011 462.249 512.735 461.014C517.566 460.242 519.441 462.307 520.57 463.773C524.093 463.153 527.786 464.682 528.154 469.154C528.684 475.591 520.969 482.034 512.134 478.517Z" fill="#FFA41C"/>
<path d="M515.812 466.011C516.998 464.976 519.023 464.045 520.57 463.773M520.57 463.773C519.441 462.307 517.566 460.242 512.735 461.014C505.011 462.249 501.97 474.471 512.134 478.517C520.969 482.034 528.684 475.591 528.154 469.154C527.786 464.682 524.093 463.153 520.57 463.773Z" stroke="#1C0F00" stroke-width="1.5" stroke-linecap="round" stroke-linejoin="round"/>
<path d="M546.777 476.964C552.743 470.565 547.83 463.475 542.91 462.61C539.049 461.932 536.833 463.527 535.959 464.977C532.728 463.784 528.893 464.665 527.818 469.842C525.879 479.18 540.516 483.678 546.777 476.964Z" fill="#FFA41C"/>
<path d="M540.451 469.009C539.702 467.226 537.945 465.71 535.959 464.977M535.959 464.977C532.728 463.784 528.893 464.665 527.818 469.842C525.879 479.18 540.516 483.678 546.777 476.964C552.743 470.565 547.83 463.475 542.91 462.61C539.049 461.932 536.833 463.527 535.959 464.977Z" stroke="#1C0F00" stroke-width="1.5" stroke-linecap="round" stroke-linejoin="round"/>
<path d="M597.141 437.978C589.993 449.691 595.95 459.534 599.822 462.991C593.348 467.11 587.99 462.47 586.12 459.635C584.214 448.41 592.673 440.52 597.141 437.978Z" fill="#00B261"/>
<path d="M599.822 462.991C595.95 459.534 589.993 449.691 597.141 437.978C592.673 440.52 584.214 448.41 586.12 459.635" stroke="#1C0F00" stroke-width="1.5" stroke-linecap="round" stroke-linejoin="round"/>
<path d="M326.527 444.232C321.01 448.645 316.228 462.991 323.217 474.026C328.345 482.123 299.308 474.393 292.319 472.922C301.515 468.876 295.998 454.531 291.216 453.427C301.147 452.324 306.787 458.332 307.768 460.048C310.416 454.751 317.332 445.703 326.527 444.232Z" fill="#00B261"/>
<path d="M325.791 479.175C314.021 465.933 321.377 447.174 327.63 443.864C316.596 445.703 310.416 454.751 307.768 460.048C306.787 458.332 300.779 452.324 290.848 453.427C295.629 454.531 301.515 468.14 293.055 472.922" stroke="#1C0F00" stroke-width="1.5" stroke-linecap="round" stroke-linejoin="round"/>
<path d="M397.942 474.36C392.957 477.268 393.237 482.997 394.102 485.247C396.192 488.18 403.01 492.973 409.654 488.076C411.212 487.845 414.394 484.878 413.702 479.616C412.782 472.627 404.174 470.725 397.942 474.36Z" fill="#FF2F85" stroke="#1C0F00" stroke-width="1.5" stroke-linecap="round" stroke-linejoin="round"/>
<path d="M393.955 485.213L393.962 485.265L390.154 490.977L379.076 491.496C378.21 491.842 373.557 491.559 372.64 486.632C371.256 479.189 380.807 473.148 387.731 476.61C393.231 479.361 393.645 482.702 393.955 485.213Z" fill="#FF2F85" stroke="#1C0F00" stroke-width="1.5" stroke-linecap="round" stroke-linejoin="round"/>
<path d="M400.543 485.154C400.427 484.404 401.789 480.734 404.351 479.442" stroke="#1C0F00" stroke-width="1.5" stroke-linecap="round" stroke-linejoin="round"/>
<path d="M389.979 486.996C389.287 486.073 387.144 484.694 383.543 483.863" stroke="#1C0F00" stroke-width="1.5" stroke-linecap="round" stroke-linejoin="round"/>
<path d="M394.48 485.092C400.849 484.122 404.346 487.457 405.211 489.073C405.558 496.17 394.999 495.651 392.229 494.439C390.014 493.47 388.421 490.804 387.902 489.592C388.71 488.092 390.879 485.784 394.48 485.092Z" fill="#FFF3E1" stroke="#1C0F00" stroke-width="1.5" stroke-linecap="round" stroke-linejoin="round"/>
<path d="M379.074 504.651C372.758 498.679 378.006 490.219 382.852 489.354C387.128 488.59 388.875 490.158 389.757 491.752C393.107 490.659 396.924 491.621 397.911 496.451C399.821 505.798 385.481 510.71 379.074 504.651Z" fill="#FF2F85"/>
<path d="M384.443 496.752C385.099 494.457 387.303 492.553 389.757 491.752M389.757 491.752C393.107 490.659 396.924 491.621 397.911 496.451C399.821 505.798 385.481 510.71 379.074 504.651C372.758 498.679 378.006 490.219 382.852 489.354C387.128 488.59 388.875 490.158 389.757 491.752Z" stroke="#1C0F00" stroke-width="1.5" stroke-linecap="round" stroke-linejoin="round"/>
<path d="M413.534 504.368C422.748 501.117 420.58 488.505 412.811 487.211C407.715 486.362 405.613 488.216 404.228 489.48C400.945 489.332 397.798 491.114 397.459 495.403C396.917 502.266 404.321 507.619 413.534 504.368Z" fill="#FF2F85"/>
<path d="M409.707 491.708C408.216 490.353 406.198 489.569 404.228 489.48M404.228 489.48C400.945 489.332 397.798 491.114 397.459 495.403C396.917 502.266 404.321 507.619 413.534 504.368C422.748 501.117 420.58 488.505 412.811 487.211C407.715 486.362 405.613 488.216 404.228 489.48Z" stroke="#1C0F00" stroke-width="1.5" stroke-linecap="round" stroke-linejoin="round"/>
<path d="M54.3926 471.417C49.4075 474.325 49.6869 480.055 50.5524 482.305C52.6422 485.237 59.4602 490.03 66.1046 485.133C67.6625 484.903 70.8443 481.935 70.1519 476.673C69.2323 469.685 60.624 467.783 54.3926 471.417Z" fill="#FF2F85" stroke="#1C0F00" stroke-width="1.5" stroke-linecap="round" stroke-linejoin="round"/>
<path d="M50.4056 482.27L50.4121 482.322L46.6041 488.034L35.5261 488.554C34.6606 488.9 30.0071 488.616 29.0905 483.689C27.7058 476.246 37.257 470.206 44.1807 473.668C49.6813 476.418 50.0949 479.759 50.4056 482.27Z" fill="#FF2F85" stroke="#1C0F00" stroke-width="1.5" stroke-linecap="round" stroke-linejoin="round"/>
<path d="M56.9927 482.212C56.8773 481.462 58.2395 477.791 60.8008 476.5" stroke="#1C0F00" stroke-width="1.5" stroke-linecap="round" stroke-linejoin="round"/>
<path d="M46.4297 484.053C45.7373 483.13 43.5938 481.751 39.9935 480.92" stroke="#1C0F00" stroke-width="1.5" stroke-linecap="round" stroke-linejoin="round"/>
<path d="M50.9298 482.149C57.2996 481.18 60.7961 484.515 61.6616 486.13C62.0078 493.227 51.4491 492.708 48.6796 491.496C46.464 490.527 44.8715 487.861 44.3523 486.65C45.16 485.149 47.3295 482.842 50.9298 482.149Z" fill="#FFF3E1" stroke="#1C0F00" stroke-width="1.5" stroke-linecap="round" stroke-linejoin="round"/>
<path d="M35.5232 501.709C29.2071 495.737 34.4548 487.276 39.3014 486.411C43.5776 485.648 45.3243 487.215 46.2058 488.809C49.5561 487.716 53.3736 488.679 54.3605 493.508C56.2706 502.855 41.9301 507.767 35.5232 501.709Z" fill="#FF2F85"/>
<path d="M40.8921 493.809C41.5487 491.514 43.7519 489.61 46.2058 488.809M46.2058 488.809C49.5561 487.716 53.3736 488.679 54.3605 493.508C56.2706 502.855 41.9301 507.767 35.5232 501.709C29.2072 495.737 34.4548 487.276 39.3014 486.411C43.5776 485.648 45.3243 487.215 46.2058 488.809Z" stroke="#1C0F00" stroke-width="1.5" stroke-linecap="round" stroke-linejoin="round"/>
<path d="M69.9837 501.425C79.1968 498.175 77.0297 485.563 69.2599 484.268C64.1642 483.419 62.0625 485.273 60.677 486.537C57.394 486.389 54.2469 488.171 53.9082 492.46C53.3662 499.323 60.7706 504.676 69.9837 501.425Z" fill="#FF2F85"/>
<path d="M66.1559 488.765C64.6655 487.411 62.6468 486.627 60.677 486.537M60.677 486.537C57.394 486.389 54.2469 488.171 53.9082 492.46C53.3662 499.323 60.7706 504.676 69.9837 501.425C79.1968 498.175 77.0297 485.563 69.2599 484.268C64.1642 483.419 62.0625 485.273 60.677 486.537Z" stroke="#1C0F00" stroke-width="1.5" stroke-linecap="round" stroke-linejoin="round"/>
<path d="M168.981 446.874C163.43 449.693 162.474 454.025 162.705 455.788C163.583 456.101 165.005 457.094 166.382 458.462C167.699 459.769 168.974 461.418 169.693 463.144C169.987 463.438 175.471 462.624 178.176 462.732C179.043 463.085 183.033 461.323 183.9 457.094C185.288 449.517 175.92 443.35 168.981 446.874Z" fill="#FFA41C"/>
<path d="M158.658 444.753C163.543 447.712 163.185 453.498 162.337 455.788L150.934 459.834L147.256 458.362C145.729 458.127 142.531 455.992 143.209 450.638C144.057 443.945 152.553 441.054 158.658 444.753Z" fill="#FFA41C" stroke="#1C0F00" stroke-width="1.5" stroke-linecap="round" stroke-linejoin="round"/>
<path d="M166.383 458.362C167.08 457.471 169.38 455.487 173.004 454.684M162.705 455.788C162.474 454.025 163.43 449.693 168.981 446.874C175.92 443.35 185.288 449.517 183.9 457.094C183.033 461.323 179.043 463.085 178.176 462.732" stroke="#1C0F00" stroke-width="1.5" stroke-linecap="round" stroke-linejoin="round"/>
<path d="M156.083 455.788C156.19 455.012 155.348 452.109 152.405 449.534M162.337 455.788C163.185 453.498 163.543 447.712 158.658 444.753C152.553 441.054 144.057 443.945 143.209 450.638C142.531 455.992 145.729 458.127 147.256 458.362" stroke="#1C0F00" stroke-width="1.5" stroke-linecap="round" stroke-linejoin="round"/>
<path d="M161.597 455.62C155.164 454.593 151.808 457.76 150.934 459.471C152.16 461.186 155.495 464.762 159.026 465.351C163.44 466.087 168.221 463.512 168.589 461.305C167.774 459.716 165.233 456.354 161.597 455.62Z" fill="#FFE900" stroke="#1C0F00" stroke-width="1.5" stroke-linecap="round" stroke-linejoin="round"/>
<path d="M143.209 475.282C134.202 472.233 135.852 459.597 143.575 458.362C148.434 457.586 150.389 459.635 151.516 461.103C155.007 460.532 158.63 462.074 158.995 466.502C159.524 472.939 152.216 478.332 143.209 475.282Z" fill="#FFA41C"/>
<path d="M147.162 463.114C151.047 459.726 158.465 460.065 158.995 466.502C159.524 472.939 152.216 478.332 143.209 475.282C134.202 472.233 135.852 459.597 143.575 458.362C148.441 457.585 150.394 459.641 151.521 461.108" stroke="#1C0F00" stroke-width="1.5" stroke-linecap="round" stroke-linejoin="round"/>
<path d="M177.617 474.312C183.584 467.913 178.671 460.823 173.751 459.959C169.89 459.28 167.673 460.875 166.8 462.325C163.569 461.132 159.734 462.013 158.659 467.19C156.72 476.529 171.357 481.026 177.617 474.312Z" fill="#FFA41C"/>
<path d="M171.291 466.357C170.543 464.574 168.786 463.058 166.8 462.325M166.8 462.325C163.569 461.132 159.734 462.013 158.659 467.19C156.72 476.529 171.357 481.026 177.617 474.312C183.584 467.913 178.671 460.823 173.751 459.959C169.89 459.28 167.673 460.875 166.8 462.325Z" stroke="#1C0F00" stroke-width="1.5" stroke-linecap="round" stroke-linejoin="round"/>
<path d="M188.199 467.182C193.75 470.001 194.707 474.333 194.476 476.095L188.199 483.04H179.005C178.138 483.392 174.148 481.63 173.28 477.402C171.893 469.825 181.26 463.658 188.199 467.182Z" fill="#8BE3FF"/>
<path d="M190.798 478.67C190.101 477.778 187.801 475.794 184.177 474.992M194.476 476.095C194.707 474.333 193.75 470.001 188.199 467.182C181.26 463.658 171.893 469.825 173.28 477.402C174.148 481.63 178.138 483.392 179.005 483.04H188.199L194.476 476.095Z" stroke="#1C0F00" stroke-width="1.5" stroke-linecap="round" stroke-linejoin="round"/>
<path d="M198.391 464.539C193.506 467.498 193.997 473.805 194.845 476.095L206.483 480.356L209.926 478.67C211.452 478.435 214.886 476.146 214.207 470.792C213.359 464.1 204.496 460.841 198.391 464.539Z" fill="#8BE3FF"/>
<path d="M201.098 476.095C200.991 475.32 201.833 472.417 204.776 469.842M194.845 476.095C193.997 473.805 193.506 467.498 198.391 464.539C204.496 460.841 213.359 464.1 214.207 470.792C214.886 476.146 211.452 478.435 209.926 478.67L206.483 480.356L194.845 476.095Z" stroke="#1C0F00" stroke-width="1.5" stroke-linecap="round" stroke-linejoin="round"/>
<path d="M195.584 475.928C202.017 474.901 205.373 478.067 206.247 479.779C205.021 481.493 201.686 485.07 198.155 485.659C193.741 486.394 188.959 483.819 188.591 481.612C189.407 480.023 191.948 476.661 195.584 475.928Z" fill="#FFE900" stroke="#1C0F00" stroke-width="1.5" stroke-linecap="round" stroke-linejoin="round"/>
<path d="M214.207 496.172C224.371 492.126 221.329 479.904 213.606 478.67C208.775 477.898 206.899 479.962 205.77 481.428C202.247 480.809 198.555 482.337 198.187 486.81C197.657 493.247 205.372 499.689 214.207 496.172Z" fill="#8BE3FF"/>
<path d="M210.529 483.666C209.343 482.632 207.318 481.701 205.77 481.428M205.77 481.428C206.899 479.962 208.775 477.898 213.606 478.67C221.329 479.904 224.371 492.126 214.207 496.172C205.372 499.689 197.657 493.247 198.187 486.81C198.555 482.337 202.247 480.809 205.77 481.428Z" stroke="#1C0F00" stroke-width="1.5" stroke-linecap="round" stroke-linejoin="round"/>
<path d="M179.564 494.619C173.598 488.221 178.51 481.131 183.43 480.266C187.292 479.587 189.508 481.182 190.382 482.632C193.613 481.44 197.448 482.321 198.523 487.498C200.462 496.836 185.825 501.334 179.564 494.619Z" fill="#8BE3FF"/>
<path d="M185.89 486.664C186.638 484.881 188.396 483.365 190.382 482.632M190.382 482.632C193.613 481.44 197.448 482.321 198.523 487.498C200.462 496.836 185.825 501.334 179.564 494.619C173.598 488.221 178.51 481.131 183.43 480.266C187.292 479.587 189.508 481.182 190.382 482.632Z" stroke="#1C0F00" stroke-width="1.5" stroke-linecap="round" stroke-linejoin="round"/>
<path d="M310.089 400.973C304.538 403.792 303.581 408.124 303.812 409.886L310.089 416.831H319.283C320.15 417.184 324.14 415.422 325.008 411.193C326.396 403.616 317.028 397.449 310.089 400.973Z" fill="#FFBAC2"/>
<path d="M307.49 412.461C308.187 411.569 310.487 409.585 314.111 408.783M303.812 409.886C303.581 408.124 304.538 403.792 310.089 400.973C317.028 397.449 326.396 403.616 325.008 411.193C324.14 415.422 320.15 417.184 319.283 416.831H310.089L303.812 409.886Z" stroke="#1C0F00" stroke-width="1.5" stroke-linecap="round" stroke-linejoin="round"/>
<path d="M299.897 398.33C304.782 401.289 304.291 407.597 303.443 409.886L291.805 414.147L288.363 412.461C286.836 412.226 283.402 409.938 284.081 404.583C284.929 397.891 293.792 394.632 299.897 398.33Z" fill="#FFBAC2"/>
<path d="M297.19 409.886C297.297 409.111 296.455 406.208 293.512 403.633M303.443 409.886C304.291 407.597 304.782 401.289 299.897 398.33C293.792 394.632 284.929 397.891 284.081 404.583C283.402 409.938 286.836 412.226 288.363 412.461L291.805 414.147L303.443 409.886Z" stroke="#1C0F00" stroke-width="1.5" stroke-linecap="round" stroke-linejoin="round"/>
<path d="M302.704 409.719C296.271 408.692 292.915 411.858 292.041 413.57C293.267 415.284 296.602 418.861 300.133 419.45C304.547 420.185 309.329 417.611 309.697 415.404C308.881 413.814 306.34 410.452 302.704 409.719Z" fill="#FFE900" stroke="#1C0F00" stroke-width="1.5" stroke-linecap="round" stroke-linejoin="round"/>
<path d="M284.081 429.963C273.917 425.917 276.959 413.696 284.682 412.461C289.513 411.689 291.389 413.753 292.518 415.219C296.041 414.6 299.733 416.128 300.101 420.601C300.631 427.038 292.916 433.48 284.081 429.963Z" fill="#FFBAC2"/>
<path d="M287.76 417.457C288.945 416.423 290.97 415.492 292.518 415.219M292.518 415.219C291.389 413.753 289.513 411.689 284.682 412.461C276.959 413.696 273.917 425.917 284.081 429.963C292.916 433.48 300.631 427.038 300.101 420.601C299.733 416.128 296.041 414.6 292.518 415.219Z" stroke="#1C0F00" stroke-width="1.5" stroke-linecap="round" stroke-linejoin="round"/>
<path d="M318.724 428.411C324.69 422.012 319.778 414.922 314.858 414.057C310.996 413.378 308.78 414.974 307.906 416.424C304.675 415.231 300.84 416.112 299.765 421.289C297.826 430.627 312.463 435.125 318.724 428.411Z" fill="#FFBAC2"/>
<path d="M312.398 420.456C311.65 418.673 309.892 417.156 307.906 416.424M307.906 416.424C304.675 415.231 300.84 416.112 299.765 421.289C297.826 430.627 312.463 435.125 318.724 428.411C324.69 422.012 319.778 414.922 314.858 414.057C310.996 413.378 308.78 414.974 307.906 416.424Z" stroke="#1C0F00" stroke-width="1.5" stroke-linecap="round" stroke-linejoin="round"/>
<path d="M890.012 470.86C895.563 473.68 896.519 478.012 896.288 479.774L890.012 486.719H880.818C879.95 487.071 875.96 485.309 875.093 481.08C873.705 473.503 883.073 467.336 890.012 470.86Z" fill="#FFBAC2"/>
<path d="M892.61 482.349C891.914 481.457 889.614 479.473 885.99 478.67M896.288 479.774C896.519 478.012 895.563 473.68 890.012 470.86C883.073 467.336 873.705 473.503 875.093 481.08C875.96 485.309 879.95 487.071 880.818 486.719H890.012L896.288 479.774Z" stroke="#1C0F00" stroke-width="1.5" stroke-linecap="round" stroke-linejoin="round"/>
<path d="M900.203 468.218C895.319 471.177 895.809 477.484 896.657 479.774L908.295 484.034L911.738 482.349C913.264 482.114 916.698 479.825 916.02 474.471C915.172 467.778 906.309 464.519 900.203 468.218Z" fill="#FFBAC2"/>
<path d="M902.91 479.774C902.804 478.998 903.646 476.096 906.589 473.521M896.657 479.774C895.809 477.484 895.319 471.177 900.203 468.218C906.309 464.519 915.172 467.778 916.02 474.471C916.698 479.825 913.264 482.114 911.738 482.349L908.295 484.034L896.657 479.774Z" stroke="#1C0F00" stroke-width="1.5" stroke-linecap="round" stroke-linejoin="round"/>
<path d="M897.396 479.607C903.829 478.58 907.186 481.746 908.06 483.457C906.833 485.172 903.499 488.749 899.967 489.337C895.553 490.073 890.772 487.498 890.404 485.291C891.22 483.702 893.76 480.34 897.396 479.607Z" fill="#FFE900" stroke="#1C0F00" stroke-width="1.5" stroke-linecap="round" stroke-linejoin="round"/>
<path d="M916.019 499.851C926.184 495.805 923.142 483.583 915.418 482.349C910.587 481.576 908.712 483.641 907.583 485.107C904.06 484.487 900.367 486.016 899.999 490.488C899.469 496.925 907.185 503.368 916.019 499.851Z" fill="#FFBAC2"/>
<path d="M912.341 487.345C911.155 486.311 909.131 485.379 907.583 485.107M907.583 485.107C908.712 483.641 910.587 481.576 915.418 482.349C923.142 483.583 926.184 495.805 916.019 499.851C907.185 503.368 899.469 496.925 899.999 490.488C900.367 486.016 904.06 484.487 907.583 485.107Z" stroke="#1C0F00" stroke-width="1.5" stroke-linecap="round" stroke-linejoin="round"/>
<path d="M881.377 498.298C875.411 491.9 880.323 484.809 885.243 483.945C889.104 483.266 891.321 484.861 892.194 486.311C895.425 485.119 899.26 485.999 900.335 491.176C902.274 500.515 887.637 505.012 881.377 498.298Z" fill="#FFBAC2"/>
<path d="M887.703 490.343C888.451 488.56 890.209 487.044 892.194 486.311M892.194 486.311C895.425 485.119 899.26 485.999 900.335 491.176C902.274 500.515 887.637 505.012 881.377 498.298C875.411 491.9 880.323 484.809 885.243 483.945C889.104 483.266 891.321 484.861 892.194 486.311Z" stroke="#1C0F00" stroke-width="1.5" stroke-linecap="round" stroke-linejoin="round"/>
<path d="M754.561 430.689C749.01 433.509 748.054 437.841 748.285 439.603C749.163 439.916 750.585 440.909 751.962 442.277C753.279 443.584 754.554 445.234 755.273 446.959C755.567 447.254 761.051 446.44 763.756 446.548C764.623 446.9 768.613 445.138 769.48 440.909C770.868 433.332 761.5 427.165 754.561 430.689Z" fill="#8BE3FF"/>
<path d="M744.237 428.568C749.122 431.527 748.764 437.313 747.916 439.603L736.513 443.649L732.835 442.178C731.308 441.943 728.11 439.807 728.788 434.453C729.636 427.761 738.132 424.87 744.237 428.568Z" fill="#8BE3FF" stroke="#1C0F00" stroke-width="1.5" stroke-linecap="round" stroke-linejoin="round"/>
<path d="M751.963 442.178C752.66 441.286 754.363 438.413 757.987 437.61M748.285 439.603C748.054 437.841 749.01 433.509 754.561 430.689C761.5 427.165 770.41 432.976 769.022 440.553C768.154 444.782 764.623 446.9 763.756 446.548" stroke="#1C0F00" stroke-width="1.5" stroke-linecap="round" stroke-linejoin="round"/>
<path d="M741.663 439.603C741.769 438.828 740.927 435.925 737.984 433.35M747.916 439.603C748.764 437.313 749.122 431.527 744.237 428.568C738.132 424.87 729.636 427.761 728.788 434.453C728.11 439.807 731.308 441.943 732.835 442.178" stroke="#1C0F00" stroke-width="1.5" stroke-linecap="round" stroke-linejoin="round"/>
<path d="M747.177 439.436C740.744 438.409 737.388 441.575 736.514 443.287C737.74 445.001 741.075 448.578 744.606 449.167C749.02 449.902 753.802 447.327 754.169 445.12C753.354 443.531 750.813 440.169 747.177 439.436Z" fill="#FFE900" stroke="#1C0F00" stroke-width="1.5" stroke-linecap="round" stroke-linejoin="round"/>
<path d="M728.789 459.098C719.782 456.049 721.432 443.412 729.156 442.178C734.014 441.401 735.969 443.451 737.096 444.918C740.587 444.347 744.21 445.89 744.575 450.317C745.104 456.755 737.796 462.147 728.789 459.098Z" fill="#8BE3FF"/>
<path d="M732.742 446.929C736.627 443.542 744.045 443.88 744.575 450.317C745.104 456.755 737.796 462.147 728.789 459.098C719.782 456.049 721.432 443.412 729.156 442.178C734.021 441.4 735.974 443.456 737.101 444.924" stroke="#1C0F00" stroke-width="1.5" stroke-linecap="round" stroke-linejoin="round"/>
<path d="M763.197 458.127C769.164 451.729 764.251 444.639 759.331 443.774C755.47 443.095 753.253 444.69 752.38 446.14C749.149 444.948 745.314 445.829 744.239 451.006C742.3 460.344 756.937 464.842 763.197 458.127Z" fill="#8BE3FF"/>
<path d="M756.871 450.172C756.123 448.389 754.366 446.873 752.38 446.14M752.38 446.14C749.149 444.948 745.314 445.829 744.239 451.006C742.3 460.344 756.937 464.842 763.197 458.127C769.164 451.729 764.251 444.639 759.331 443.774C755.47 443.095 753.253 444.69 752.38 446.14Z" stroke="#1C0F00" stroke-width="1.5" stroke-linecap="round" stroke-linejoin="round"/>
<path d="M784.162 449.348C779.177 452.256 779.456 457.985 780.322 460.235C782.412 463.168 789.23 467.96 795.874 463.064C797.432 462.833 800.614 459.866 799.921 454.604C799.002 447.615 790.394 445.713 784.162 449.348Z" fill="#FF2F85" stroke="#1C0F00" stroke-width="1.5" stroke-linecap="round" stroke-linejoin="round"/>
<path d="M780.174 460.2L780.181 460.253L776.373 465.965L765.295 466.484C764.429 466.83 759.776 466.547 758.859 461.62C757.474 454.177 767.026 448.136 773.949 451.598C779.45 454.348 779.863 457.69 780.174 460.2Z" fill="#FF2F85" stroke="#1C0F00" stroke-width="1.5" stroke-linecap="round" stroke-linejoin="round"/>
<path d="M786.761 460.142C786.646 459.392 788.008 455.722 790.569 454.43" stroke="#1C0F00" stroke-width="1.5" stroke-linecap="round" stroke-linejoin="round"/>
<path d="M776.198 461.984C775.506 461.061 773.362 459.681 769.762 458.851" stroke="#1C0F00" stroke-width="1.5" stroke-linecap="round" stroke-linejoin="round"/>
<path d="M780.698 460.08C787.068 459.11 790.565 462.445 791.43 464.061C791.776 471.158 781.218 470.638 778.448 469.427C776.233 468.457 774.64 465.792 774.121 464.58C774.929 463.08 777.098 460.772 780.698 460.08Z" fill="#FFF3E1" stroke="#1C0F00" stroke-width="1.5" stroke-linecap="round" stroke-linejoin="round"/>
<path d="M765.293 479.639C758.977 473.667 764.224 465.207 769.071 464.342C773.347 463.578 775.094 465.146 775.975 466.74C779.326 465.647 783.143 466.609 784.13 471.438C786.04 480.786 771.7 485.698 765.293 479.639Z" fill="#FF2F85"/>
<path d="M770.662 471.739C771.318 469.444 773.521 467.541 775.975 466.74M775.975 466.74C779.326 465.647 783.143 466.609 784.13 471.438C786.04 480.786 771.7 485.698 765.293 479.639C758.977 473.667 764.224 465.207 769.071 464.342C773.347 463.578 775.094 465.146 775.975 466.74Z" stroke="#1C0F00" stroke-width="1.5" stroke-linecap="round" stroke-linejoin="round"/>
<path d="M799.752 479.356C808.965 476.105 806.798 463.493 799.028 462.199C793.933 461.35 791.831 463.203 790.446 464.468C787.163 464.319 784.015 466.101 783.677 470.391C783.135 477.253 790.539 482.607 799.752 479.356Z" fill="#FF2F85"/>
<path d="M795.924 466.696C794.434 465.341 792.415 464.557 790.446 464.468M790.446 464.468C787.163 464.319 784.015 466.101 783.677 470.391C783.135 477.253 790.539 482.607 799.752 479.356C808.965 476.105 806.798 463.493 799.028 462.199C793.933 461.35 791.831 463.203 790.446 464.468Z" stroke="#1C0F00" stroke-width="1.5" stroke-linecap="round" stroke-linejoin="round"/>
<path d="M642.18 477.303C637.195 480.211 637.474 485.94 638.34 488.19C640.429 491.122 647.247 495.915 653.892 491.019C655.45 490.788 658.631 487.821 657.939 482.559C657.019 475.57 648.411 473.668 642.18 477.303Z" fill="#8BE3FF" stroke="#1C0F00" stroke-width="1.5" stroke-linecap="round" stroke-linejoin="round"/>
<path d="M638.193 488.155L638.199 488.208L634.391 493.92L623.313 494.439C622.448 494.785 617.794 494.501 616.878 489.575C615.493 482.132 625.044 476.091 631.968 479.553C637.468 482.303 637.882 485.644 638.193 488.155Z" fill="#8BE3FF" stroke="#1C0F00" stroke-width="1.5" stroke-linecap="round" stroke-linejoin="round"/>
<path d="M644.78 488.097C644.664 487.347 646.027 483.676 648.588 482.385" stroke="#1C0F00" stroke-width="1.5" stroke-linecap="round" stroke-linejoin="round"/>
<path d="M634.217 489.939C633.524 489.015 631.381 487.636 627.781 486.805" stroke="#1C0F00" stroke-width="1.5" stroke-linecap="round" stroke-linejoin="round"/>
<path d="M638.717 488.034C645.087 487.065 648.583 490.4 649.449 492.016C649.795 499.112 639.236 498.593 636.467 497.381C634.251 496.412 632.659 493.747 632.139 492.535C632.947 491.035 635.117 488.727 638.717 488.034Z" fill="#FFE900" stroke="#1C0F00" stroke-width="1.5" stroke-linecap="round" stroke-linejoin="round"/>
<path d="M623.311 507.594C616.995 501.622 622.243 493.162 627.089 492.296C631.366 491.533 633.112 493.101 633.994 494.695C637.344 493.601 641.162 494.564 642.149 499.393C644.059 508.74 629.718 513.652 623.311 507.594Z" fill="#8BE3FF"/>
<path d="M628.68 499.694C629.337 497.399 631.54 495.495 633.994 494.695M633.994 494.695C637.344 493.601 641.162 494.564 642.149 499.393C644.059 508.74 629.718 513.652 623.311 507.594C616.995 501.622 622.243 493.162 627.089 492.296C631.366 491.533 633.112 493.101 633.994 494.695Z" stroke="#1C0F00" stroke-width="1.5" stroke-linecap="round" stroke-linejoin="round"/>
<path d="M657.772 507.311C666.985 504.06 664.818 491.448 657.048 490.153C651.952 489.305 649.851 491.158 648.465 492.423C645.182 492.274 642.035 494.056 641.696 498.345C641.154 505.208 648.559 510.561 657.772 507.311Z" fill="#8BE3FF"/>
<path d="M653.944 494.65C652.454 493.296 650.435 492.512 648.465 492.423M648.465 492.423C645.182 492.274 642.035 494.056 641.696 498.345C641.154 505.208 648.559 510.561 657.772 507.311C666.985 504.06 664.818 491.448 657.048 490.153C651.952 489.305 649.851 491.158 648.465 492.423Z" stroke="#1C0F00" stroke-width="1.5" stroke-linecap="round" stroke-linejoin="round"/>
</svg>
