<svg width="836" height="685" viewBox="0 0 836 685" fill="none" xmlns="http://www.w3.org/2000/svg">
<g clip-path="url(#clip0_5027_3317)">
<path d="M377.118 417.283C376.819 429.134 369.177 454.733 340.995 462.32C303.099 472.522 276.895 421.722 301.242 410.839C322.497 401.339 335.235 435.321 321.619 468.931C308.002 502.541 257.919 492.272 264.735 445.498" stroke="#1C0F00" stroke-width="2" stroke-linecap="round" stroke-linejoin="round"/>
<path d="M340.99 462.319C369.172 454.733 376.814 429.134 377.113 417.282C380.449 413.695 386.879 410.524 385.905 426.536C384.705 432.602 378.602 446.001 368.091 456.058C351.028 472.385 309.789 478.001 294.213 437.667C293.882 436.851 293.583 436.034 293.318 435.218C293.606 436.052 293.904 436.869 294.213 437.667C300.551 453.295 318.759 468.304 340.99 462.319Z" fill="#E10000" stroke="#1C0F00" stroke-width="2" stroke-linecap="round" stroke-linejoin="round"/>
<path d="M287.081 462.991C276.359 461.789 265.209 451.752 264.105 449.563C256.528 458.531 245.508 459.878 241.362 459.93C250.855 453.761 264.633 422.715 269.159 404.658C270.706 428.455 277.95 452.149 287.081 462.991Z" fill="#1C0F00" stroke="#1C0F00" stroke-width="2" stroke-linecap="round" stroke-linejoin="round"/>
<ellipse cx="406.019" cy="656.244" rx="224.249" ry="28.7556" fill="#1C0F00"/>
<path d="M533.058 539.681C501.804 539.681 478.943 558.988 463.982 575.216L438.935 410.281C433.963 402.578 422.887 390.871 406.017 401.551C407.903 475.494 408.214 626.256 408.626 639.812C409.14 656.757 417.369 660.352 497.091 664.974C560.868 668.671 588.949 654.19 591.178 647.515C606.608 611.057 599.921 539.681 533.058 539.681Z" fill="#E10000"/>
<path d="M448.193 593.598C459.508 581.103 487.28 539.681 533.058 539.681C599.921 539.681 606.608 611.057 591.178 647.515C588.949 654.19 560.868 668.671 497.091 664.974C417.369 660.352 409.14 656.757 408.626 639.812C408.214 626.256 407.903 475.494 406.017 401.551C422.887 390.871 433.963 402.578 438.935 410.281L464.044 575.626" stroke="#1C0F00" stroke-width="2" stroke-linecap="round" stroke-linejoin="round"/>
<path d="M283.607 540.195C314.995 540.195 338.401 559.426 353.662 575.544L378.759 410.281C383.731 402.578 394.807 390.871 411.677 401.551C409.791 475.494 409.48 626.256 409.068 639.812C408.554 656.757 400.325 660.352 320.603 664.974C256.826 668.671 228.745 654.19 226.516 647.515C211.086 611.057 216.745 540.195 283.607 540.195Z" fill="#E10000"/>
<path d="M369.501 593.598C358.186 581.103 329.385 540.195 283.608 540.195C216.745 540.195 211.086 611.057 226.516 647.515C228.745 654.19 256.826 668.671 320.603 664.974C400.325 660.352 408.554 656.757 409.068 639.812C409.48 626.256 409.791 475.494 411.677 401.551C394.807 390.871 383.731 402.578 378.759 410.281L353.65 575.626" stroke="#1C0F00" stroke-width="2" stroke-linecap="round" stroke-linejoin="round"/>
<path d="M200.533 118.483C158.877 112.967 85.1566 124.093 77.2693 210.006C78.8231 198.293 85.9514 167.231 119.018 171.479C143.001 174.56 143.162 202.888 140.301 215.498C142.208 207.091 148.493 189.397 167.968 193.065C186.303 196.518 192.96 214.747 194.273 224.973C194.32 225.601 194.382 226.205 194.458 226.782C194.416 226.213 194.355 225.609 194.273 224.973C193.43 213.637 197.578 194.815 215.951 199.064C219.343 199.849 222.166 201.335 224.514 203.317C209.727 190.75 195.358 165.332 200.533 118.483Z" fill="#E10000" stroke="#1C0F00" stroke-width="2" stroke-linecap="round" stroke-linejoin="round"/>
<path d="M157.596 313.746C159.241 287.044 177.826 256.063 186.912 243.911C180.329 204.474 157.767 225.767 147.309 241.343C139.765 258.117 125.124 296.251 128.278 321.448C132.136 352.258 151.915 365.609 175.083 365.609C201.314 365.609 227.031 341.988 237.832 299.368C245.238 260.753 231.317 257.09 227.031 255.208C219.83 286.531 217.773 296.801 205.943 315.8C188.699 343.495 155.538 347.123 157.596 313.746Z" fill="#E10000" stroke="#1C0F00" stroke-width="2" stroke-linecap="round" stroke-linejoin="round"/>
<path d="M106.135 216.509C117.998 245.881 146.273 243.552 159.52 238.42L173.162 234.274C179.687 240.394 198.075 251.921 219.429 249.079C246.121 245.526 268.661 223.023 259.763 189.268C256.006 175.013 244.232 166.144 230.755 162.171C231.284 151.394 235.476 135.006 242.562 118.206C252.052 95.7024 242.628 80.1004 225.954 79.1211C210.611 78.2201 189.775 91.7143 184.341 128.73C178.346 119.969 159.471 113.088 144.982 136.097C142.156 132.829 138.421 129.457 129.862 129.457C120.372 129.457 101.983 143.67 102.576 170.318C102.717 176.643 104.729 181.467 107.804 184.932C103.564 194.7 101.86 205.924 106.135 216.509Z" fill="#E10000"/>
<path d="M159.52 238.42C146.273 243.552 117.998 245.881 106.135 216.509C101.86 205.924 103.564 194.7 107.804 184.932M173.162 234.274C179.687 240.394 198.075 251.921 219.429 249.079C246.121 245.526 268.661 223.023 259.763 189.268C256.006 175.013 244.232 166.144 230.755 162.171M229.512 207.626C192.143 228.352 166.045 193.645 182.06 172.095C182.724 171.201 183.464 170.354 184.274 169.555M184.274 169.555C194.006 159.945 213.738 157.155 230.755 162.171M184.274 169.555C182.457 153.572 182.679 140.051 184.341 128.73M230.755 162.171C231.284 151.394 235.476 135.006 242.562 118.206C252.052 95.7024 242.628 80.1004 225.954 79.1211C210.611 78.2201 189.775 91.7143 184.341 128.73M177.457 183.346C145.426 204.072 125.71 167.357 144.691 136.563C144.788 136.406 144.885 136.251 144.982 136.097M184.341 128.73C178.346 119.969 159.471 113.088 144.982 136.097M143.504 180.977C138.528 193.171 117.683 196.066 107.804 184.932M144.982 136.097C142.156 132.829 138.421 129.457 129.862 129.457C120.372 129.457 101.983 143.67 102.576 170.318C102.717 176.643 104.729 181.467 107.804 184.932" stroke="#1C0F00" stroke-width="2" stroke-linecap="round" stroke-linejoin="round"/>
<path d="M350.697 73.3276C342.419 70.0562 320.069 68.2655 303.1 81.0754C291.304 90.4524 285.955 101.345 283.887 111.034C270.459 113.789 241.014 132.212 249.845 172.076C241.386 176.066 231.793 183.635 226.527 196.778C218.249 217.439 225.837 236.379 230.666 243.266C215.352 283.349 234.884 305.077 246.565 310.931C246.874 321.145 249.618 332.351 257.053 342.439C266.097 354.709 277.294 359.77 287.061 361.273C290.786 391.025 320.172 398.225 334.463 395.642C340.624 403.489 349.697 410.696 361.563 413.72C391.142 421.26 407.092 412.343 411.231 407.522C413.818 411.482 423.13 419.609 439.686 420.435C459.554 421.262 469.598 412.171 472.137 407.522C483.513 412.621 498.623 415.034 513.671 407.522C526.202 401.267 533.244 392.337 537.124 383.72C573.961 378.761 580.585 349.772 579.377 335.877C588.553 332.321 598.648 325.643 604.211 314.03C613.317 295.022 608.005 274.43 604.211 266.51C608.867 261.861 617.456 250.291 616.628 228.803C615.8 207.315 606.453 199.142 601.107 195.416C603.881 187.003 605.689 176.336 603.177 166.303C599.038 149.774 584.496 142.198 577.743 140.477C576.898 131.552 573.822 121.354 565.926 110.001C555.578 95.1253 535.401 88.9958 526.605 87.7906C516.672 62.9972 492.114 62.4521 481.076 65.2787C475.531 59.4736 467.063 53.6427 454.69 50.0835C437.7 45.196 423.314 50.9865 414.042 57.8319C408.696 53.8719 395.501 46.7779 378.118 50.0837C360.734 53.3894 352.249 67.1293 350.697 73.3276Z" fill="#E10000"/>
<path d="M283.956 132.212C282.816 127.414 282.037 119.706 283.887 111.034M414.042 57.8319C408.696 53.8719 395.501 46.7779 378.118 50.0837C360.734 53.3894 352.249 67.1293 350.697 73.3276C342.419 70.0562 320.069 68.2655 303.1 81.0754C291.304 90.4524 285.955 101.345 283.887 111.034M414.042 57.8319C423.314 50.9865 437.7 45.196 454.69 50.0835C467.063 53.6427 475.531 59.4736 481.076 65.2787M414.042 57.8319C409.988 60.8253 406.911 64.0204 405.022 66.6126M489.871 80.0423C489.106 76.5597 486.476 70.9314 481.076 65.2787M481.076 65.2787C492.114 62.4521 516.672 62.9972 526.605 87.7906C535.401 88.9958 555.578 95.1253 565.926 110.001C573.822 121.354 576.898 131.552 577.743 140.477M577.308 155.972C577.912 151.345 578.281 146.17 577.743 140.477M577.743 140.477C584.496 142.198 599.038 149.774 603.177 166.303C605.689 176.336 603.881 187.003 601.107 195.416M595.416 208.142C597.11 205.367 599.311 200.864 601.107 195.416M601.107 195.416C606.453 199.142 615.8 207.315 616.628 228.803C617.456 250.291 608.867 261.861 604.211 266.51C608.005 274.43 613.317 295.022 604.211 314.03C598.648 325.643 588.553 332.321 579.377 335.877M564.374 339.34C568.064 339.139 573.534 338.141 579.377 335.877M579.377 335.877C580.585 349.772 573.961 378.761 537.124 383.72M537.124 383.72C533.244 392.337 526.202 401.267 513.671 407.522C498.623 415.034 483.513 412.621 472.137 407.522M537.124 383.72C540.933 375.259 541.695 367.1 541.609 362.068M455.725 396.158C458.919 399.755 464.738 404.206 472.137 407.522M472.137 407.522C469.598 412.171 459.554 421.262 439.686 420.435C423.13 419.609 413.818 411.482 411.231 407.522C407.092 412.343 391.142 421.26 361.563 413.72C349.697 410.696 340.624 403.489 334.463 395.642M324.829 372.915C324.741 378.469 327.999 387.408 334.463 395.642M334.463 395.642C320.172 398.225 290.786 391.025 287.061 361.273M287.061 361.273C277.294 359.77 266.097 354.709 257.053 342.439C249.618 332.351 246.874 321.145 246.565 310.931M287.061 361.273C294.728 362.453 301.514 361.44 305.685 360.001M251.88 282.522C249.182 288.373 246.204 298.972 246.565 310.931M283.887 111.034C270.459 113.789 241.014 132.212 249.845 172.076M249.845 172.076C241.386 176.066 231.793 183.635 226.527 196.778C218.249 217.439 225.837 236.379 230.666 243.266C215.352 283.349 234.884 305.077 246.565 310.931M249.845 172.076C254.684 169.793 259.152 168.682 262.227 168.369" stroke="#1C0F00" stroke-width="2" stroke-linecap="round" stroke-linejoin="round"/>
<path d="M527.128 284.745C527.787 294.868 515.422 313.624 496.96 309.083M483.708 302.159C488.379 305.877 492.823 308.065 496.96 309.083M496.96 309.083C494.442 313.764 486.746 321.335 476.101 314.171" stroke="#1C0F00" stroke-width="2" stroke-linecap="round" stroke-linejoin="round"/>
<path d="M295.055 300.156C302.204 301.427 312.59 313.104 302.895 326.108" stroke="#1C0F00" stroke-width="2" stroke-linecap="round" stroke-linejoin="round"/>
<path d="M586.882 240.967C580.921 245.108 567.045 245.991 564.711 229.949" stroke="#1C0F00" stroke-width="2" stroke-linecap="round" stroke-linejoin="round"/>
<path d="M506.391 190.282C503.066 182.511 507.822 167.518 522.03 163.646M535.058 163.205C530.06 162.385 525.725 162.639 522.03 163.646M522.03 163.646C519.424 159.379 515.909 149.004 522.692 141.642" stroke="#1C0F00" stroke-width="2" stroke-linecap="round" stroke-linejoin="round"/>
<path d="M356.504 319.841C364.106 323.913 383.205 328.504 398.781 314.287" stroke="#1C0F00" stroke-width="2" stroke-linecap="round" stroke-linejoin="round"/>
<path d="M397.532 158.623C401.259 159.113 403.598 160.05 404.907 161.139C406.149 162.171 406.495 163.355 406.226 164.648C405.939 166.028 404.925 167.626 403.203 169.251C401.497 170.861 399.172 172.424 396.419 173.748C390.621 176.535 384.248 177.936 379.127 177.891C376.563 177.868 374.372 177.483 372.737 176.777C371.108 176.072 370.122 175.093 369.745 173.904C369.048 171.706 369.669 169.633 371.308 167.674C372.969 165.688 375.625 163.898 378.768 162.431C385.07 159.486 392.92 158.017 397.532 158.623Z" fill="#6C3712" stroke="#1C0F00" stroke-width="2" stroke-linejoin="round"/>
<path d="M322.922 167.359C321.783 165.745 321.365 164.165 321.666 162.687C321.977 161.447 323.293 159.548 326.557 158.536C329.845 157.516 335.108 157.409 343.131 159.906C348.121 161.459 351.674 163.433 353.986 165.465C356.306 167.503 357.314 169.536 357.402 171.23C357.488 172.88 356.712 174.398 355.03 175.516C353.321 176.652 350.667 177.369 347.126 177.232C339.919 176.954 333.106 174.883 328.314 172.021C325.917 170.589 324.071 168.987 322.922 167.359Z" fill="#6C3712" stroke="#1C0F00" stroke-width="2" stroke-linejoin="round"/>
<path d="M388.209 370.305C391.671 366.697 401.078 362.228 411.009 373.22C410.992 370.14 412.544 363.515 418.891 361.653" stroke="#1C0F00" stroke-width="2" stroke-linecap="round" stroke-linejoin="round"/>
<path d="M331.76 132.26C329.721 129.267 323.105 125.141 312.959 132.581C321.414 126.381 324.809 104.591 305.208 99.8082" stroke="#1C0F00" stroke-width="2" stroke-linecap="round" stroke-linejoin="round"/>
<path d="M388.709 100.704C398.022 95.5388 420.269 95.5393 424.818 115.684M424.925 124.981C425.443 122.915 425.245 117.574 424.818 115.684M424.818 115.684C433.203 112.068 448.724 117.75 447.172 134.795" stroke="#1C0F00" stroke-width="2" stroke-linecap="round" stroke-linejoin="round"/>
<path d="M288.721 217.653C288.721 238.876 305.954 256.084 327.216 256.084C348.478 256.084 366.268 238.321 366.268 217.098C366.268 195.875 349.034 178.667 327.772 178.667C304.985 178.667 288.721 196.404 288.721 217.653Z" fill="#FFF3E1" stroke="#1C0F00" stroke-width="2" stroke-linejoin="round"/>
<ellipse cx="30.0386" cy="29.9896" rx="30.0386" ry="29.9896" transform="matrix(-1 0 0 1 357.178 186.911)" fill="#1C0F00"/>
<ellipse cx="349.955" cy="211.045" rx="10.801" ry="10.7834" fill="#FFF3E1"/>
<path d="M366.232 215.421C365.352 194.975 348.471 178.667 327.772 178.667C320.01 178.667 313.017 180.723 307.167 184.262L366.232 215.421Z" fill="#E10000" stroke="#1C0F00" stroke-width="2" stroke-linejoin="round"/>
<path d="M293.599 230.602C283.363 228.38 273.017 235.6 271.904 241.154L288.592 270.588C291.93 272.254 306.949 268.366 309.174 257.259C311.4 246.152 306.393 233.379 293.599 230.602Z" fill="#E10000"/>
<path d="M270.234 244.827C270.838 237.185 280.036 229.129 291.348 230.131C304.619 231.306 313.065 246.002 309.445 257.759C305.91 269.242 293.158 272.454 289.538 270.691" stroke="#1C0F00" stroke-width="2" stroke-linecap="round" stroke-linejoin="round"/>
<ellipse cx="293.869" cy="242.061" rx="1.543" ry="1.54048" fill="#1C0F00"/>
<ellipse cx="280.496" cy="242.061" rx="1.543" ry="1.54048" fill="#1C0F00"/>
<ellipse cx="288.727" cy="254.384" rx="1.543" ry="1.54048" fill="#1C0F00"/>
<ellipse cx="301.07" cy="254.384" rx="1.543" ry="1.54048" fill="#1C0F00"/>
<path d="M439.5 217.653C439.5 238.876 422.267 256.084 401.005 256.084C379.743 256.084 361.953 238.321 361.953 217.098C361.953 195.875 379.186 178.667 400.448 178.667C423.236 178.667 439.5 196.404 439.5 217.653Z" fill="#FFF3E1" stroke="#1C0F00" stroke-width="2" stroke-linejoin="round"/>
<ellipse cx="401.082" cy="216.901" rx="30.0386" ry="29.9896" fill="#1C0F00"/>
<path d="M361.989 215.421C362.869 194.975 379.749 178.667 400.448 178.667C408.211 178.667 415.204 180.723 421.053 184.262L361.989 215.421Z" fill="#E10000" stroke="#1C0F00" stroke-width="2" stroke-linejoin="round"/>
<ellipse cx="426.076" cy="211.045" rx="10.801" ry="10.7834" fill="#FFF3E1"/>
<path d="M338.147 248.657C341.486 248.101 343.822 248.546 348.717 254.766C354.836 262.541 360.956 264.762 368.187 264.762C377.088 264.762 383.763 260.875 387.656 254.21C391.167 248.199 392.662 243.658 398.781 245.324C404.9 246.99 409.907 256.987 411.019 268.65C411.569 274.412 411.304 285.056 406.533 294.618C401.649 304.409 392.041 313.066 373.749 314.189C358.719 315.113 348.207 309.895 341.213 302.166C331.381 291.3 328.503 275.471 329.804 264.762C331.381 251.783 335.945 249.023 338.147 248.657Z" fill="#FFF3E1"/>
<path d="M348.717 254.766C343.822 248.546 341.486 248.101 338.147 248.657C335.945 249.023 331.381 251.783 329.804 264.762C328.503 275.471 331.381 291.3 341.213 302.166M348.717 254.766C354.836 262.541 360.956 264.762 368.187 264.762M348.717 254.766C345.187 261.932 338.744 281.445 341.213 302.166M368.187 264.762C377.088 264.762 383.763 260.875 387.656 254.21M368.187 264.762C367.685 273.189 368.095 294.872 373.749 314.189M387.656 254.21C391.167 248.199 392.662 243.658 398.781 245.324C404.9 246.99 409.907 256.987 411.019 268.65C411.569 274.412 411.304 285.056 406.533 294.618M387.656 254.21C389.662 261.494 396.246 279.773 406.533 294.618M373.749 314.189C358.719 315.113 348.207 309.895 341.213 302.166M373.749 314.189C392.041 313.066 401.649 304.409 406.533 294.618" stroke="#1C0F00" stroke-width="2" stroke-linecap="round" stroke-linejoin="round"/>
<path d="M448.288 229.316C462.084 230.649 468.128 239.128 469.426 243.2L445.507 272.634C442.17 272.634 430.487 271.524 425.481 259.306C420.475 247.088 431.044 227.65 448.288 229.316Z" fill="#E10000"/>
<path d="M469.428 243.2C468.316 238.202 461.64 230.105 447.734 228.761C430.489 227.094 420.475 246.533 425.482 258.751C430.488 270.969 442.171 272.634 445.509 272.634" stroke="#1C0F00" stroke-width="2" stroke-linecap="round" stroke-linejoin="round"/>
<ellipse cx="452.75" cy="237.747" rx="1.543" ry="1.54048" fill="#1C0F00"/>
<ellipse cx="435.264" cy="246.99" rx="1.543" ry="1.54048" fill="#1C0F00"/>
<ellipse cx="445.551" cy="250.072" rx="1.543" ry="1.54048" fill="#1C0F00"/>
<ellipse cx="459.951" cy="246.99" rx="1.543" ry="1.54048" fill="#1C0F00"/>
<path d="M634.081 114.048C676.084 112.85 748.263 131.507 747.234 217.774C746.898 205.963 743.016 174.332 709.688 175.154C685.514 175.75 682.428 203.91 683.971 216.747C682.942 208.189 678.519 189.942 658.769 191.585C640.174 193.132 631.67 210.579 629.308 220.615C629.196 221.234 629.072 221.829 628.937 222.395C629.038 221.834 629.161 221.239 629.308 220.615C631.318 209.426 629.136 190.277 610.421 192.613C606.967 193.044 604.005 194.231 601.465 195.961C617.472 184.983 634.389 161.18 634.081 114.048Z" fill="#E10000" stroke="#1C0F00" stroke-width="2" stroke-linecap="round" stroke-linejoin="round"/>
<path d="M683.759 216.18C680.467 161.545 649.47 125.292 634.383 113.995C646.213 155.075 634.692 198.208 629.754 218.748" stroke="#1C0F00" stroke-width="2" stroke-linecap="round" stroke-linejoin="round"/>
<path d="M468.253 69.835C471.545 97.769 452.823 123.581 443.051 132.995C443.737 136.931 447.577 145.729 457.452 149.426C471.853 154.356 480.597 143.607 483.169 137.616C488.929 103.52 475.625 78.222 468.253 69.835Z" fill="#FFBAC2" stroke="#1C0F00" stroke-width="2" stroke-linecap="round" stroke-linejoin="round"/>
<path d="M287.569 69.835C284.277 97.769 302.999 123.581 312.771 132.995C312.086 136.931 308.245 145.729 298.37 149.426C283.969 154.356 275.225 143.607 272.654 137.616C266.893 103.52 280.197 78.222 287.569 69.835Z" fill="#FFBAC2" stroke="#1C0F00" stroke-width="2" stroke-linecap="round" stroke-linejoin="round"/>
<path d="M766.051 341.473C736.045 321.602 698.273 345.984 703.301 366.838C707.239 383.171 725.258 385.985 734.322 385.349L792.461 357.272C784.248 356.742 776.837 351.804 773.901 349.384C784.034 352.097 818.887 347.144 836.323 340.551C817.631 355.399 803.422 374.663 797.939 387.688C796.55 377.307 797.779 370.651 798.949 368.497L743.673 395.739C737.467 402.606 728.927 417.885 738.859 430.942C751.854 448.024 793.654 435.35 797.224 399.579L823.881 379.066C815.637 386.953 800.095 410.133 815.169 427.68C808.515 426.003 803.17 419.793 802.639 411.503C799.997 422.092 790.349 442.551 770.68 450.847C746.47 461.059 706.224 445.349 716.288 409.234L643.639 445.038L636.953 432.372L707.231 398.433C670.899 383.066 684.163 343.255 707.573 330.907C726.453 320.949 749.505 326.013 758.732 329.826C752.637 324.17 751.202 316.108 754.111 309.903C758.185 332.659 785.998 335.308 797.332 333.925L766.051 341.473Z" fill="#FFE900" stroke="#1C0F00" stroke-width="2" stroke-linecap="round" stroke-linejoin="round"/>
<path d="M573.422 415.665C558.001 411.712 524.574 418.534 512.3 446.645C504.19 465.219 509.794 480.652 514.66 487.576C519.638 494.658 527.917 497.663 533.067 499.087C526.201 510.98 525.01 527.748 535.494 543.36C553.868 570.718 592.128 555.883 602.133 541.3C606.227 547.251 623.07 555.976 639.806 544.748C649.725 538.094 653.41 528.537 652.993 518.715C665.716 516.614 686.488 500.794 677.313 463.675C665.844 417.277 629.431 406.755 612.01 410.409C601.265 376.615 552.404 239.512 552.404 239.512L526.172 251.323C535.109 281.98 568.449 386.631 573.422 415.665Z" fill="#E10000"/>
<path d="M533.067 499.087C527.917 497.663 519.638 494.658 514.66 487.576C509.794 480.652 504.19 465.219 512.3 446.645C524.574 418.534 558.001 411.712 573.422 415.665C568.449 386.631 535.109 281.98 526.172 251.323M533.067 499.087C526.201 510.98 525.009 527.748 535.494 543.36C553.868 570.718 592.128 555.883 602.133 541.3M533.067 499.087C538.232 490.14 546.609 483.952 555.642 483.091M603.496 501.857C606.816 510.43 610.184 529.565 602.133 541.3M602.133 541.3C606.227 547.251 623.07 555.976 639.806 544.748C649.725 538.094 653.41 528.537 652.993 518.715M555.642 483.091C549.899 470.053 541.083 465.79 536.156 465.476M555.642 483.091C557.959 488.35 559.776 495.038 560.636 503.47M552.404 239.512C552.404 239.512 601.265 376.615 612.01 410.409C629.431 406.755 665.844 417.277 677.313 463.675C686.488 500.794 665.716 516.614 652.993 518.715M652.993 518.715C652.53 507.822 647.021 496.603 639.371 488.658" stroke="#1C0F00" stroke-width="2" stroke-linecap="round" stroke-linejoin="round"/>
<path d="M469.387 530.915C462.182 527.568 461.85 519.965 462.585 516.583L550.545 474.47C552.43 476.432 555.997 481.912 557.231 487.821L469.387 530.915Z" fill="#FFE900" stroke="#1C0F00" stroke-width="2" stroke-linecap="round" stroke-linejoin="round"/>
<path d="M212.311 536.717C217.698 526.846 215.096 517.668 212.311 512.466C215.485 515.284 221.83 521.724 221.429 532.263C220.929 545.437 210.985 557.111 221.052 559.009C230.487 560.788 232.406 541.672 228.229 534.993C234.222 542.115 241.762 555.633 230.403 571.954C221.253 585.102 219.75 602.116 219.488 609.003C219.609 590.118 211.115 585.02 204.124 572.764C196.7 559.749 205.578 549.057 212.311 536.717Z" fill="#FFA41C" stroke="#1C0F00" stroke-width="2" stroke-linecap="round" stroke-linejoin="round"/>
<path d="M600.74 590.517C594.568 574.496 596.797 559.194 598.683 553.546C588.911 575.113 596.111 600.787 597.654 612.598C599.197 624.408 595.596 625.948 594.568 625.948C593.539 625.948 590.967 626.462 590.967 614.138C590.967 604.279 586.853 598.733 584.795 597.193C589.939 606.436 585.393 617.151 583.253 632.11C581.195 646.488 590.11 656.073 594.568 660.866L594.568 660.866C593.539 651.11 609.694 643.921 610.723 628.516C611.579 615.707 608.455 610.544 600.74 590.517Z" fill="#FFA41C" stroke="#1C0F00" stroke-width="2" stroke-linecap="round" stroke-linejoin="round"/>
<path d="M234.006 33.0871C241.128 17.9723 233.157 4.2628 229.174 0C231.714 17.8811 222.386 21.8889 220.121 36.6165C218.309 48.3986 225.401 60.5094 229.174 65.092C227.467 57.6511 225.669 50.7804 234.006 33.0871Z" fill="#FFA41C" stroke="#1C0F00" stroke-width="2" stroke-linecap="round" stroke-linejoin="round"/>
<path d="M342.285 631.425C346.271 614.187 334.908 596.379 329.232 589.49C340.077 606.245 335.979 629.838 326.505 629.716C318.926 629.618 317.08 618.808 317.716 613.764C314.156 619.777 309.99 629.363 318.185 646.77C324.742 660.696 326.949 674.706 327.233 679.97C327.145 650.346 337.303 652.972 342.285 631.425Z" fill="#FFA41C" stroke="#1C0F00" stroke-width="2" stroke-linecap="round" stroke-linejoin="round"/>
<path d="M486.357 591.947C479.886 567.219 489.475 544.391 495.209 536.086C493.419 542.454 492.534 555.231 500.656 579.219C508.778 603.208 501.671 615.895 498.084 620.812C504.702 600.037 496.47 585.185 491.416 584.963C487.374 584.785 486.359 589.545 486.357 591.947Z" fill="#FFA41C" stroke="#1C0F00" stroke-width="2" stroke-linecap="round" stroke-linejoin="round"/>
</g>
<defs>
<clipPath id="clip0_5027_3317">
<rect width="836" height="685" fill="white"/>
</clipPath>
</defs>
</svg>
