<svg width="295" height="306" viewBox="0 0 295 306" fill="none" xmlns="http://www.w3.org/2000/svg">
<g clip-path="url(#clip0_4745_1723)">
<path d="M173.999 231.138C143.982 227.058 140.465 196.514 144.948 178.266L158.549 183.647C156.411 195.11 157.208 215.276 175.405 216.399C198.152 217.803 205.449 183.413 204.98 180.372C213.631 181.495 215.463 187.078 215.298 189.729C213.422 198.151 204.98 235.349 173.999 231.138Z" fill="#EEB36F" stroke="#1C0F00" stroke-linecap="round" stroke-linejoin="round"/>
<path d="M273.188 238.179C266.497 254.991 238.897 271.889 218.712 248.554C213.849 242.932 211.099 236.493 209.777 229.831C207.064 232.718 205.397 237.54 204.607 241.081C203.412 246.432 187.853 234.094 191.023 228.488C192.571 225.752 193.585 223.626 195.821 220.793C194.558 220.066 188.801 214.273 187.13 213.592C196.056 206.34 201.963 195.296 203.883 187.306C197.533 185.987 191.218 175.163 198.698 165.575C203.498 159.423 211.23 158.466 215.772 159.26C217.273 159.522 218.529 160.474 219.553 161.599C242.276 186.565 254.495 202.33 271.661 228.612C273.534 231.481 274.455 234.997 273.188 238.179Z" fill="#FFE900"/>
<path d="M203.883 187.306C197.533 185.987 191.218 175.163 198.698 165.575C203.498 159.423 211.23 158.466 215.772 159.26C217.273 159.522 218.529 160.474 219.553 161.599C242.276 186.565 254.495 202.33 271.661 228.612C273.534 231.481 274.455 234.997 273.188 238.179C266.497 254.991 238.897 271.889 218.712 248.554C213.849 242.932 211.099 236.493 209.777 229.831M203.883 187.306C204.198 185.993 204.455 184.795 204.654 183.734M203.883 187.306C201.963 195.296 196.056 206.34 187.13 213.592C188.801 214.273 194.558 220.066 195.821 220.793M216.606 183.107C214.435 188.695 211.33 197.472 209.762 207.299M209.762 207.299C209.118 211.33 208.733 215.537 208.777 219.774C208.812 223.133 209.117 226.51 209.777 229.831M209.762 207.299C202.148 213.776 198.259 217.705 195.821 220.793M209.777 229.831C207.064 232.718 205.397 237.54 204.607 241.081C203.412 246.432 187.853 234.094 191.023 228.488C192.571 225.752 193.585 223.626 195.821 220.793" stroke="#1C0F00" stroke-linecap="round" stroke-linejoin="round"/>
<path d="M209.686 207.042C208.666 206.743 205.907 205.754 203.034 204.182" stroke="#1C0F00" stroke-linecap="round" stroke-linejoin="round"/>
<path d="M210.424 202.633C209.876 202.563 207.901 201.974 204.388 200.187" stroke="#1C0F00" stroke-linecap="round" stroke-linejoin="round"/>
<path d="M211.719 197.796C210.856 197.574 208.802 197.087 205.455 195.821" stroke="#1C0F00" stroke-linecap="round" stroke-linejoin="round"/>
<path d="M210.142 231.506C206.721 202.823 233.484 189.942 246.423 192.987C254.967 203.865 262.629 214.783 271.662 228.612C273.535 231.48 274.456 234.997 273.189 238.179C266.498 254.99 238.898 271.889 218.713 248.553C214.259 243.405 211.577 237.57 210.142 231.506Z" fill="white" stroke="#1C0F00" stroke-linecap="round" stroke-linejoin="round"/>
<path d="M281.059 230.423C279.267 233.928 275.442 235.926 273.816 235.994C272.725 231.517 259.992 212.361 249.093 197.111C240.375 184.911 222.326 166.694 214.391 159.11C216.344 156.426 219.29 154.849 220.52 154.396C251.906 183.663 274.08 217.18 281.059 230.423Z" fill="white" stroke="#1C0F00" stroke-linecap="round" stroke-linejoin="round"/>
<ellipse cx="91.4547" cy="298.514" rx="69.4118" ry="7.48624" fill="#1C0F00"/>
<ellipse cx="256.072" cy="298.514" rx="38.9269" ry="7.48624" fill="#1C0F00"/>
<path d="M109.276 210.749C108.338 189.039 122.33 176.983 129.209 173.084C130.928 168.795 130.615 160.965 115.608 163.96C106.697 170.744 93.3792 181.739 92.8613 206.304C92.4906 223.886 98.3876 238.494 103.476 246.509C95.3981 240.427 85.7017 236.17 74.565 236.783C46.9878 238.301 41.314 264.133 47.035 280.706C49.4192 287.612 56.7554 290.721 64.0427 291.246C91.2847 293.208 110.483 293.085 140.475 290.751C143.708 290.499 146.991 289.61 149.016 287.077C151.833 283.552 154.27 277.89 152.653 271.641C149.61 259.877 137.162 258.257 132.238 262.468C123.865 252.11 110.128 230.459 109.276 210.749Z" fill="#EEB36F"/>
<path d="M134.602 265.258C133.882 264.453 133.087 263.519 132.238 262.468M127.802 275.084C123.416 267.853 115.13 255.282 103.476 246.509M132.238 262.468C137.162 258.257 149.61 259.877 152.653 271.641C154.27 277.89 151.833 283.552 149.016 287.077C146.991 289.61 143.708 290.499 140.475 290.751C110.483 293.085 91.2847 293.208 64.0427 291.246C56.7554 290.721 49.4192 287.612 47.035 280.706C41.314 264.133 46.9878 238.301 74.565 236.783C85.7017 236.17 95.3981 240.427 103.476 246.509M132.238 262.468C123.865 252.11 110.128 230.459 109.276 210.749C108.338 189.039 122.33 176.983 129.209 173.084C130.928 168.795 130.615 160.965 115.608 163.96C106.697 170.744 93.3792 181.739 92.8613 206.304C92.4906 223.886 98.3876 238.494 103.476 246.509" stroke="#1C0F00" stroke-linecap="round" stroke-linejoin="round"/>
<path d="M3.51713 125.616C-3.79929 107.649 6.01857 95.2807 11.7247 90.9917L32.8296 144.097C25.3256 143.863 9.51888 140.354 3.51713 125.616Z" fill="#EEB36F"/>
<path d="M117.352 25.9221C113.578 24.4317 103.388 23.6158 95.6515 29.452C90.2738 33.7241 87.8347 38.6865 86.8921 43.1012C80.7695 44.3562 67.3451 52.7495 71.3714 70.9112C67.5145 72.729 63.1407 76.1776 60.7398 82.1656C56.9656 91.5787 60.4254 100.207 62.6271 103.345C55.6448 121.607 64.5503 131.506 69.8757 134.173C70.0164 138.826 71.2677 143.932 74.6577 148.528C78.7808 154.118 83.886 156.424 88.3391 157.108C90.0375 170.663 103.435 173.944 109.951 172.767C112.76 176.342 116.897 179.625 122.307 181.003C135.792 184.438 143.065 180.376 144.952 178.179C146.131 179.984 150.377 183.686 157.925 184.063C166.983 184.439 171.563 180.297 172.72 178.179C177.907 180.502 184.796 181.602 191.657 178.179C197.37 175.33 200.581 171.261 202.35 167.335C219.145 165.076 222.165 151.869 221.614 145.538C225.798 143.918 230.401 140.876 232.937 135.585C237.089 126.925 234.667 117.543 232.937 113.935C235.06 111.817 238.975 106.546 238.598 96.756C238.221 86.9663 233.959 83.2423 231.522 81.5451C232.786 77.7119 233.611 72.8521 232.465 68.2813C230.578 60.7508 223.948 57.2993 220.869 56.5149C220.484 52.4487 219.082 47.8028 215.481 42.6305C210.764 35.853 201.564 33.0605 197.554 32.5114C193.025 21.2156 181.828 20.9673 176.796 22.2551C174.268 19.6103 170.407 16.9537 164.766 15.3322C157.02 13.1055 150.461 15.7436 146.233 18.8623C143.796 17.0582 137.78 13.8262 129.854 15.3323C121.929 16.8384 118.06 23.0982 117.352 25.9221Z" fill="#EEB36F"/>
<path d="M86.9235 52.7495C86.4036 50.5638 86.0486 47.0518 86.8921 43.1012M146.233 18.8623C143.796 17.0582 137.78 13.8262 129.854 15.3323C121.929 16.8384 118.06 23.0982 117.352 25.9221C113.578 24.4317 103.388 23.6158 95.6515 29.452C90.2738 33.7241 87.8347 38.6865 86.8921 43.1012M146.233 18.8623C150.461 15.7436 157.02 13.1055 164.766 15.3322C170.407 16.9537 174.268 19.6103 176.796 22.2551M146.233 18.8623C144.385 20.2261 142.982 21.6818 142.121 22.8628M180.806 28.9813C180.457 27.3946 179.258 24.8304 176.796 22.2551M176.796 22.2551C181.828 20.9673 193.025 21.2156 197.554 32.5114C201.564 33.0605 210.764 35.853 215.481 42.6305C219.082 47.8028 220.484 52.4487 220.869 56.5149M220.671 63.5747C220.947 61.4667 221.115 59.1087 220.869 56.5149M220.869 56.5149C223.948 57.2993 230.578 60.7508 232.465 68.2813C233.611 72.8521 232.786 77.7119 231.522 81.5451C233.959 83.2423 238.221 86.9663 238.598 96.756C238.975 106.546 235.06 111.817 232.937 113.935C234.667 117.543 237.089 126.925 232.937 135.585C230.401 140.876 225.798 143.918 221.614 145.538M214.774 147.116C216.456 147.025 218.95 146.57 221.614 145.538M221.614 145.538C222.165 151.869 219.145 165.076 202.35 167.335M202.35 167.335C200.581 171.261 197.37 175.33 191.657 178.179C184.796 181.602 177.907 180.502 172.72 178.179M202.35 167.335C204.087 163.481 204.434 159.763 204.395 157.471M165.238 173.002C166.694 174.641 169.347 176.669 172.72 178.179M172.72 178.179C171.563 180.297 166.983 184.439 157.925 184.063C150.377 183.686 146.131 179.984 144.952 178.179C143.065 180.376 135.792 184.438 122.307 181.003C116.897 179.625 112.76 176.342 109.951 172.767M105.559 162.412C105.519 164.943 107.004 169.016 109.951 172.767M109.951 172.767C103.435 173.944 90.0375 170.663 88.3391 157.108C83.886 156.424 78.7808 154.118 74.6577 148.528C71.2677 143.932 70.0164 138.826 69.8757 134.173M72.2989 121.23C71.069 123.896 69.711 128.724 69.8757 134.173M86.8921 43.1012C80.7695 44.3562 67.3451 52.7495 71.3714 70.9112M71.3714 70.9112C67.5145 72.729 63.1407 76.1776 60.7398 82.1656C56.9656 91.5787 60.4254 100.207 62.6271 103.345C55.6448 121.607 64.5503 131.506 69.8757 134.173M71.3714 70.9112C73.5775 69.8715 75.6145 69.3653 77.0164 69.2226" stroke="#1C0F00" stroke-linecap="round" stroke-linejoin="round"/>
<path d="M136.244 70.9481C132.867 69.8252 131.14 66.9587 130.85 65.8013C130.615 64.8656 130.492 63.5234 131.553 62.994C133.898 61.8238 135.54 64.3976 138.12 65.8013C140.699 67.205 143.513 66.0352 143.982 68.1408C144.451 70.2463 140.465 72.3518 136.244 70.9481Z" fill="#CC8D44" stroke="#1C0F00" stroke-linecap="round" stroke-linejoin="round"/>
<path d="M108.611 70.9481C111.988 69.8252 113.715 66.9587 114.005 65.8013C114.239 64.8656 114.362 63.5234 113.302 62.994C110.957 61.8238 109.314 64.3976 106.735 65.8013C104.155 67.205 101.341 66.0353 100.872 68.1408C100.299 70.7142 104.39 72.3518 108.611 70.9481Z" fill="#CC8D44" stroke="#1C0F00" stroke-linecap="round" stroke-linejoin="round"/>
<path d="M184.941 78.4715C183.425 74.931 185.593 68.1002 192.071 66.3364M198.011 66.1355C195.732 65.7617 193.756 65.8777 192.071 66.3364M192.071 66.3364C190.883 64.3923 189.28 59.6655 192.373 56.3115" stroke="#1C0F00" stroke-linecap="round" stroke-linejoin="round"/>
<path d="M138.618 133.085C129.39 137.09 121.709 130.323 120.931 125.035C120.151 128.232 114.601 128.748 113.432 124.29" stroke="#1C0F00" stroke-linecap="round" stroke-linejoin="round"/>
<path d="M134.456 161.224C136.035 159.58 140.323 157.544 144.851 162.552C144.843 161.149 145.551 158.13 148.445 157.282" stroke="#1C0F00" stroke-linecap="round" stroke-linejoin="round"/>
<path d="M108.719 52.7708C107.789 51.4073 104.773 49.5277 100.147 52.9169C104.002 50.0926 105.55 40.1648 96.6133 37.986" stroke="#1C0F00" stroke-linecap="round" stroke-linejoin="round"/>
<path d="M134.684 38.3943C138.93 36.0409 149.073 36.0411 151.147 45.2189M151.196 49.4548C151.431 48.5135 151.341 46.08 151.147 45.2189M151.147 45.2189C154.97 43.5717 162.046 46.1603 161.339 53.926" stroke="#1C0F00" stroke-linecap="round" stroke-linejoin="round"/>
<path d="M91.3189 97.5741C86.6523 96.562 81.935 99.8512 81.4277 102.382L89.0363 115.791C90.5581 116.551 97.4058 114.779 98.4203 109.719C99.4347 104.659 97.1522 98.8392 91.3189 97.5741Z" fill="#EEB36F"/>
<path d="M80.667 104.055C80.942 100.574 85.1357 96.9034 90.2933 97.3599C96.3441 97.8955 100.195 104.591 98.5444 109.947C96.9325 115.179 91.1184 116.642 89.4682 115.839" stroke="#1C0F00" stroke-linecap="round" stroke-linejoin="round"/>
<ellipse cx="91.4428" cy="102.795" rx="0.703498" ry="0.701835" fill="#1C0F00"/>
<ellipse cx="85.3461" cy="102.795" rx="0.703498" ry="0.701835" fill="#1C0F00"/>
<ellipse cx="89.098" cy="108.409" rx="0.703498" ry="0.701835" fill="#1C0F00"/>
<ellipse cx="94.726" cy="108.409" rx="0.703498" ry="0.701835" fill="#1C0F00"/>
<path d="M89.1405 91.7385C89.1405 92.9975 89.274 94.2249 89.5274 95.4075C91.2167 103.291 98.24 109.203 106.648 109.203C107.995 109.203 109.312 109.046 110.58 108.75C118.419 106.922 124.408 99.782 124.408 91.4855C124.408 81.8412 116.571 74.021 106.901 74.021C96.5368 74.021 89.1405 82.0815 89.1405 91.7385Z" fill="#FFF3E1" stroke="#1C0F00" stroke-linejoin="round"/>
<path d="M157.797 91.7385C157.797 92.9975 157.663 94.2249 157.41 95.4075C155.721 103.291 148.698 109.203 140.29 109.203C138.942 109.203 137.626 109.046 136.358 108.75C128.519 106.922 122.529 99.782 122.529 91.4855C122.529 81.8412 130.366 74.021 140.036 74.021C150.401 74.021 157.797 82.0815 157.797 91.7385Z" fill="#FFF3E1" stroke="#1C0F00" stroke-linejoin="round"/>
<ellipse cx="137.651" cy="88.1974" rx="14.3045" ry="14.2706" fill="#1C0F00"/>
<path d="M127.421 83.0913C128.845 82.5045 129.938 81.3017 130.382 79.8184C130.825 81.3017 131.918 82.5045 133.343 83.0913C131.922 83.6759 130.83 84.8722 130.382 86.3488C129.933 84.8722 128.841 83.6759 127.421 83.0913Z" fill="#FFF3E1" stroke="#FFF3E1" stroke-linejoin="round"/>
<path d="M135.788 87.2855C136.284 86.9862 136.686 86.5522 136.948 86.0352C137.209 86.5522 137.612 86.9862 138.108 87.2855C137.612 87.5841 137.21 88.0168 136.948 88.5324C136.686 88.0168 136.283 87.5841 135.788 87.2855Z" fill="#FFF3E1" stroke="#FFF3E1" stroke-linejoin="round"/>
<ellipse cx="104.351" cy="88.2604" rx="14.3045" ry="14.2706" fill="#1C0F00"/>
<path d="M94.1208 83.0918C95.545 82.5049 96.638 81.3021 97.0818 79.8188C97.5257 81.3022 98.6187 82.5049 100.043 83.0918C98.6226 83.6764 97.5304 84.8727 97.0818 86.3493C96.6333 84.8727 95.5411 83.6764 94.1208 83.0918Z" fill="#FFF3E1" stroke="#FFF3E1" stroke-linejoin="round"/>
<path d="M102.488 87.286C102.984 86.9867 103.387 86.5527 103.648 86.0357C103.909 86.5527 104.312 86.9867 104.808 87.286C104.313 87.5846 103.91 88.0173 103.648 88.5329C103.386 88.0173 102.983 87.5846 102.488 87.286Z" fill="#FFF3E1" stroke="#FFF3E1" stroke-linejoin="round"/>
<path d="M106.647 109.203C107.995 109.203 109.311 109.047 110.58 108.751C113.494 108.071 116.156 106.656 118.349 104.717C114.126 101.546 109.368 100.748 105.27 101.311C101.231 101.867 97.9084 103.732 96.3554 105.868C99.244 107.966 102.8 109.203 106.647 109.203Z" fill="#EEB36F" stroke="#1C0F00" stroke-linejoin="round"/>
<path d="M140.416 109.155C141.763 109.155 143.08 108.999 144.348 108.703C147.263 108.023 149.924 106.608 152.118 104.669C147.895 101.498 143.136 100.7 139.038 101.264C135 101.819 131.677 103.684 130.124 105.821C133.013 107.918 136.569 109.155 140.416 109.155Z" fill="#EEB36F" stroke="#1C0F00" stroke-linejoin="round"/>
<path d="M137.182 107.381C135.681 110.188 134.602 110.812 134.368 110.89C132.96 111.592 130.85 111.124 128.974 112.528C126.457 114.411 128.036 119.312 133.429 119.546C138.583 119.77 143.982 116.505 144.451 110.656C144.92 104.808 139.058 103.872 137.182 107.381Z" fill="#CC8D44" stroke="#1C0F00" stroke-linecap="round" stroke-linejoin="round"/>
<path d="M133.43 115.569C135.306 115.491 139.527 114.54 140.465 110.422" stroke="#1C0F00" stroke-linecap="round" stroke-linejoin="round"/>
<path d="M166.185 29.737C186.007 42.9246 205.396 45.887 212.612 45.7197C218.087 44.336 226.589 36.9159 221.653 29.5054C216.746 22.138 204.475 22.4162 198.853 23.4896C190.477 10.7707 177.419 0.669899 165.515 6.21666C154.234 11.4732 161.261 24.0871 166.185 29.737Z" fill="#00B261"/>
<path d="M202.977 30.7188C201.786 28.2745 200.399 25.8374 198.853 23.4896M198.853 23.4896C204.475 22.4162 216.746 22.138 221.653 29.5054C226.589 36.9159 218.087 44.336 212.612 45.7197C205.396 45.887 186.007 42.9246 166.185 29.737C161.261 24.0871 154.234 11.4732 165.515 6.21666C177.419 0.6699 190.477 10.7707 198.853 23.4896Z" stroke="#1C0F00" stroke-linecap="round" stroke-linejoin="round"/>
<path d="M196.258 10.5111C192.428 14.406 196.701 20.6671 198.901 23.211C197.299 18.5653 200.948 17.1957 202.967 14.1466C205.087 10.945 200.665 6.03028 196.258 10.5111Z" fill="#00B261" stroke="#1C0F00" stroke-linecap="round" stroke-linejoin="round"/>
<path d="M8.2334 204.936L8.73512 187.39C16.6497 194.876 51.8246 202.831 71.1949 189.028L70.6637 206.715C51.2823 220.466 16.1408 212.415 8.2334 204.936Z" fill="#FFE900"/>
<path d="M70.6637 206.715L71.1949 189.028C51.8246 202.831 16.6497 194.876 8.73512 187.39L8.2334 204.936C16.1408 212.415 51.2823 220.466 70.6637 206.715ZM70.6637 206.715C70.6813 206.703 70.6988 206.69 70.7164 206.678" stroke="#1C0F00" stroke-linecap="round" stroke-linejoin="round"/>
<path d="M69.8807 232.775C49.9952 243.443 17.3529 238.858 7.50391 230.436L8.23308 204.936C16.1405 212.415 51.282 220.466 70.6634 206.715L69.8807 232.775Z" fill="#FFBAC2"/>
<path d="M70.6634 206.715L69.8807 232.775C49.9952 243.443 17.3529 238.858 7.50391 230.436L8.23308 204.936C16.1405 212.415 51.282 220.466 70.6634 206.715ZM70.6634 206.715C70.681 206.703 70.6985 206.69 70.7161 206.678" stroke="#1C0F00" stroke-linecap="round" stroke-linejoin="round"/>
<path d="M8.73535 187.39L13.1324 45.3857C13.1324 48.661 15.7119 54.2757 22.9814 54.2757C31.3419 54.2757 33.9843 49.3195 34.0094 46.5944C34.005 46.5007 34.0029 46.4096 34.0029 46.3215C34.0081 46.4096 34.0103 46.5007 34.0094 46.5944C34.1497 49.568 36.5817 55.2114 45.4933 55.2114C52.5283 55.2114 55.1078 49.9087 55.3423 47.2573C55.4205 49.9087 57.6873 55.2114 66.1292 55.2114C72.8229 55.2114 75.2706 49.7048 75.4924 45.9462L75.5092 45.3857C75.5092 45.5674 75.5037 45.7545 75.4924 45.9462L71.1951 189.028C51.8248 202.831 16.6499 194.877 8.73535 187.39Z" fill="#8BE3FF" stroke="#1C0F00" stroke-linecap="round" stroke-linejoin="round"/>
<path d="M45.0242 0.936035L57.3786 18.9498C48.3072 25.2663 36.1733 21.5232 32.0996 18.9498L45.0242 0.936035Z" fill="#B4B4B4" stroke="#1C0F00" stroke-linecap="round" stroke-linejoin="round"/>
<path d="M57.3781 18.9497L75.5086 45.3855C75.5086 49.1286 73.1636 55.2112 66.1287 55.2112C57.6867 55.2112 55.4199 49.9084 55.3417 47.257C55.1072 49.9084 52.5277 55.2112 45.4927 55.2112C40.3498 55.2112 34.2244 52.4522 34.0082 46.64C33.954 49.3745 31.2946 54.2754 22.9808 54.2754C15.7113 54.2754 13.1318 48.6607 13.1318 45.3855L32.0991 18.9497C36.1728 21.5231 48.3067 25.2662 57.3781 18.9497Z" fill="#FFF3E1" stroke="#1C0F00" stroke-linecap="round" stroke-linejoin="round"/>
<path d="M27.6448 124.727C24.6001 117.252 25.7613 100 39.0986 91.9217C47.9108 86.5839 56.0745 88.3467 59.8974 90.3191C63.8076 92.3366 65.8868 96.2893 66.956 98.7785C72.4844 94.5205 80.8576 92.78 89.4442 96.9821C104.491 104.346 99.619 124.57 92.9479 130.588C96.2276 132.239 101.775 140.103 97.2545 149.272C94.5754 154.707 90.0079 157.208 85.0273 157.668C84.8353 164.201 78.2745 175.71 58.9336 173.63C34.7574 171.031 26.97 153.461 27.6249 144.464L27.6448 124.727Z" fill="#EEB36F"/>
<path d="M27.6448 124.727C24.6001 117.252 25.7613 100 39.0986 91.9217C47.9108 86.5839 56.0745 88.3467 59.8974 90.3191C63.8076 92.3366 65.8868 96.2893 66.956 98.7785M66.956 98.7785C72.4844 94.5205 80.8576 92.78 89.4442 96.9821C104.491 104.346 99.619 124.57 92.9479 130.588M66.956 98.7785C62.7968 101.982 60.2477 106.611 60.4294 111.206M73.1536 133.959C77.7023 135.042 87.5797 135.431 92.9479 130.588M92.9479 130.588C96.2276 132.239 101.775 140.103 97.2545 149.272C94.5754 154.707 90.0079 157.208 85.0273 157.668M60.4294 111.206C53.464 109.209 50.7139 105.072 50.2194 102.62M60.4294 111.206C63.2392 112.011 66.7349 112.468 71.0452 112.325M85.0273 157.668C84.8353 164.201 78.2745 175.71 58.9336 173.63C34.7574 171.031 26.5399 153.105 27.3116 143.739M85.0273 157.668C79.5033 158.178 73.4713 156.175 68.9439 152.874" stroke="#1C0F00" stroke-linecap="round" stroke-linejoin="round"/>
<path d="M10.5524 112.281C15.7877 123.789 31.2137 125.87 40.6236 124.796C40.7609 129.882 39.2302 140.855 32.0082 144.064C25.3766 143.292 17.8217 141.29 9.84871 134.974L10.5524 112.281Z" fill="#EEB36F"/>
<path d="M40.6233 124.797C31.2133 125.871 15.7111 124.212 9.61418 110.643" stroke="#1C0F00" stroke-linecap="round" stroke-linejoin="round"/>
<path d="M33.2987 144.098C23.606 144.176 3.42366 138.53 1.17247 117.194C-0.276282 103.463 6.09674 95.2031 11.7639 91.46" stroke="#1C0F00" stroke-linecap="round" stroke-linejoin="round"/>
<path d="M161.847 96.9896C168.136 97.5969 170.892 101.46 171.484 103.315L160.579 116.725C159.057 116.725 153.731 116.219 151.448 110.653C149.166 105.086 153.984 96.2306 161.847 96.9896Z" fill="#EEB36F"/>
<path d="M171.485 103.315C170.978 101.038 167.934 97.3485 161.594 96.7362C153.732 95.977 149.166 104.833 151.449 110.399C153.731 115.966 159.058 116.725 160.579 116.725" stroke="#1C0F00" stroke-linecap="round" stroke-linejoin="round"/>
<ellipse cx="163.881" cy="100.83" rx="0.703498" ry="0.701835" fill="#1C0F00"/>
<ellipse cx="155.909" cy="105.041" rx="0.703498" ry="0.701835" fill="#1C0F00"/>
<ellipse cx="160.598" cy="106.445" rx="0.703498" ry="0.701835" fill="#1C0F00"/>
<ellipse cx="167.164" cy="105.041" rx="0.703498" ry="0.701835" fill="#1C0F00"/>
<path d="M234.589 138.725C239.638 132.422 243.442 115.553 232.957 104.024C226.03 96.4071 217.701 95.7814 213.474 96.5881C209.15 97.4132 206.03 100.613 204.295 102.696C200.209 97.0457 192.677 93.002 183.247 94.595C166.723 97.3866 165.63 118.158 170.311 125.82C166.696 126.472 159.136 132.438 160.857 142.511C161.877 148.482 165.542 152.176 170.187 154.029C168.509 160.347 171.519 173.242 190.654 176.734C214.573 181.1 227.047 166.464 228.983 157.652L234.589 138.725Z" fill="#EEB36F"/>
<path d="M234.589 138.725C239.638 132.422 243.442 115.553 232.957 104.024C226.03 96.4071 217.701 95.7814 213.474 96.5881C209.15 97.4132 206.03 100.613 204.295 102.696M204.295 102.696C200.209 97.0457 192.677 93.002 183.247 94.595C166.723 97.3866 165.63 118.158 170.311 125.82M204.295 102.696C207.37 106.947 208.495 112.108 207.011 116.462M188.327 134.667C183.657 134.415 174.077 131.986 170.311 125.82M170.311 125.82C166.696 126.472 159.136 132.438 160.857 142.511C161.877 148.482 165.542 152.176 170.187 154.029M207.011 116.462C214.258 116.524 218.074 113.337 219.247 111.126M207.011 116.462C204.088 116.437 200.606 115.883 196.514 114.524M170.187 154.029C168.509 160.347 171.519 173.242 190.654 176.734C214.573 181.1 227.56 166.245 229.49 157.046M170.187 154.029C175.337 156.085 181.691 155.876 186.972 153.995" stroke="#1C0F00" stroke-linecap="round" stroke-linejoin="round"/>
<path d="M268.917 131.485C258.249 159.213 232.135 157.611 220.448 156.331C218.312 147.077 221.002 139.347 222.615 136.639C234.092 139.56 254.944 139.176 256.776 118.142C258.349 100.084 238.719 94.0459 226.291 92.6422L230.043 81.8807C260.118 85.9936 276.734 105.393 268.917 131.485Z" fill="#EEB36F"/>
<path d="M222.615 136.64C234.092 139.561 254.387 139.333 256.696 118.346C258.174 104.92 245.99 95.6837 233.796 94.5775M228.168 81.647C260.059 84.4544 276.735 105.393 268.918 131.485C260.292 153.906 241.3 157.211 224.416 156.743" stroke="#1C0F00" stroke-linecap="round" stroke-linejoin="round"/>
<ellipse cx="138.354" cy="278.395" rx="7.03498" ry="7.01835" fill="#ECCCFB" stroke="#1C0F00" stroke-linecap="round" stroke-linejoin="round"/>
<path d="M49.535 286.157C40.276 270.605 43.7159 238.481 74.565 236.783C81.9965 236.374 88.7866 238.133 94.8826 241.156C94.2479 237.251 91.4379 232.989 89.1095 230.202C85.592 225.991 104.887 221.233 107.4 227.161C108.627 230.054 109.695 232.154 110.579 235.65C111.927 235.096 113.327 234.382 114.888 233.477C119.852 245.369 127.067 256.071 132.238 262.467C137.162 258.256 149.61 259.877 152.653 271.641C154.606 279.19 150.644 285.883 147.24 288.986C146.116 290.012 144.594 290.423 143.075 290.545C109.382 293.253 89.4061 293.279 58.0616 290.792C54.6409 290.52 51.2873 289.1 49.535 286.157Z" fill="#ECCCFB"/>
<path d="M132.238 262.467C137.162 258.256 149.61 259.877 152.653 271.641C154.606 279.19 150.644 285.883 147.24 288.986C146.116 290.012 144.594 290.423 143.075 290.545C109.382 293.253 89.4061 293.279 58.0616 290.792C54.6409 290.52 51.2873 289.1 49.535 286.157C40.276 270.605 43.7159 238.481 74.565 236.783C81.9965 236.374 88.7866 238.133 94.8826 241.156M132.238 262.467C133.087 263.518 133.882 264.453 134.602 265.258M132.238 262.467C127.067 256.071 119.852 245.369 114.888 233.477C113.327 234.382 111.927 235.096 110.579 235.65M127.802 275.084C124.692 269.956 119.62 262.143 112.778 254.903M112.778 254.903C109.971 251.934 106.866 249.06 103.476 246.508C100.789 244.485 97.9219 242.664 94.8826 241.156M112.778 254.903C112.286 244.933 111.542 239.462 110.579 235.65M94.8826 241.156C94.2479 237.251 91.4379 232.989 89.1095 230.202C85.592 225.991 104.887 221.233 107.4 227.161C108.627 230.054 109.695 232.154 110.579 235.65" stroke="#1C0F00" stroke-linecap="round" stroke-linejoin="round"/>
<path d="M113.028 255C113.888 254.376 116.358 252.801 119.36 251.491" stroke="#1C0F00" stroke-linecap="round" stroke-linejoin="round"/>
<path d="M116.077 258.275C116.468 257.885 118.141 256.684 121.705 255" stroke="#1C0F00" stroke-linecap="round" stroke-linejoin="round"/>
<path d="M119.125 262.252C119.828 261.707 121.47 260.381 124.518 258.509" stroke="#1C0F00" stroke-linecap="round" stroke-linejoin="round"/>
<path d="M93.3303 240.421C118.187 255.234 112.07 284.244 101.752 292.606C87.8999 292.713 74.5546 292.101 58.0616 290.792C54.6409 290.521 51.2873 289.101 49.535 286.157C40.276 270.605 43.7159 238.481 74.565 236.783C81.3717 236.409 87.6403 237.853 93.3303 240.421Z" fill="white" stroke="#1C0F00" stroke-linecap="round" stroke-linejoin="round"/>
<path d="M50.8861 297.11C49.1977 293.554 49.9481 289.312 50.8861 287.986C55.1072 289.858 78.0879 291.496 96.8478 292.197C111.856 292.759 137.338 289.624 148.203 287.986C149.141 291.168 148.594 294.459 148.203 295.707C105.806 302.631 65.6595 299.684 50.8861 297.11Z" fill="white" stroke="#1C0F00" stroke-linecap="round" stroke-linejoin="round"/>
</g>
<defs>
<clipPath id="clip0_4745_1723">
<rect width="295" height="306" fill="white"/>
</clipPath>
</defs>
</svg>
