<svg width="333" height="378" viewBox="0 0 333 378" fill="none" xmlns="http://www.w3.org/2000/svg">
<path fill-rule="evenodd" clip-rule="evenodd" d="M304.561 193.48C304.561 193.215 304.346 193 304.081 193C303.816 193 303.601 193.215 303.601 193.48L303.601 197.641C303.601 199.232 302.311 200.522 300.721 200.522L298.48 200.522C298.215 200.522 298 200.737 298 201.002C298 201.267 298.215 201.482 298.48 201.482H300.721C302.311 201.482 303.601 202.771 303.601 204.362L303.601 208.523C303.601 208.789 303.816 209.004 304.081 209.004C304.346 209.004 304.561 208.789 304.561 208.523V204.362C304.561 202.771 305.85 201.482 307.441 201.482H309.682C309.947 201.482 310.162 201.267 310.162 201.002C310.162 200.737 309.947 200.522 309.682 200.522L307.441 200.522C305.85 200.522 304.561 199.232 304.561 197.641V193.48Z" fill="#1C0F00"/>
<path fill-rule="evenodd" clip-rule="evenodd" d="M9.56096 6.48004C9.56096 6.21492 9.34604 6 9.08093 6C8.81581 6 8.60089 6.21492 8.60089 6.48004L8.60089 10.6415C8.60089 12.2322 7.31137 13.5217 5.72066 13.5217L3.48004 13.5217C3.21492 13.5217 3 13.7366 3 14.0017C3 14.2668 3.21492 14.4818 3.48004 14.4818H5.72066C7.31137 14.4818 8.60089 15.7713 8.60089 17.362L8.60089 21.5235C8.60089 21.7886 8.81581 22.0035 9.08092 22.0035C9.34604 22.0035 9.56096 21.7886 9.56096 21.5235V17.362C9.56096 15.7713 10.8505 14.4818 12.4412 14.4818H14.6817C14.9468 14.4818 15.1617 14.2668 15.1617 14.0017C15.1617 13.7366 14.9468 13.5217 14.6817 13.5217L12.4412 13.5217C10.8505 13.5217 9.56096 12.2322 9.56096 10.6415V6.48004Z" fill="#1C0F00"/>
<path d="M323.37 5.67532L323.5 4.5072L323.63 5.67532C324.056 9.48454 326.781 12.6108 330.442 13.5813C326.781 14.5513 324.052 17.6749 323.621 21.4833L323.5 22.553L323.379 21.4833C322.948 17.6748 320.219 14.5513 316.558 13.5813C320.219 12.6108 322.944 9.48454 323.37 5.67532Z" fill="#FFE900" stroke="#1C0F00" stroke-linejoin="round"/>
<path d="M9.36961 356.675L9.5 355.507L9.63039 356.675C10.0556 360.485 12.7812 363.611 16.4424 364.581C12.7811 365.551 10.052 368.675 9.62104 372.483L9.5 373.553L9.37896 372.483C8.94803 368.675 6.21889 365.551 2.5576 364.581C6.21879 363.611 8.94442 360.485 9.36961 356.675Z" fill="#FFE900" stroke="#1C0F00" stroke-linejoin="round"/>
</svg>
