<svg width="803" height="685" viewBox="0 0 803 685" fill="none" xmlns="http://www.w3.org/2000/svg">
<ellipse cx="223.405" cy="667.564" rx="185.488" ry="17.4367" fill="#1C0F00"/>
<ellipse cx="668.037" cy="670.106" rx="134.963" ry="14.8948" fill="#1C0F00"/>
<path d="M237.051 527.407C203.375 445.556 231.349 387.065 247.206 367.449C249.422 352.432 260.968 331.407 289.431 367.449C271.435 385.817 249.342 422.552 272.861 502.263C291.308 564.782 333.26 627.982 352.504 640.821L264.391 654.584L237.051 527.407Z" fill="#C9F9B2"/>
<path d="M237.051 527.407C203.375 445.556 231.349 387.065 247.206 367.449C249.422 352.432 260.968 331.407 289.431 367.449C271.435 385.817 249.342 422.552 272.861 502.263C291.308 564.782 333.26 627.982 352.504 640.821L264.391 654.584L237.051 527.407Z" stroke="#1C0F00" stroke-width="2" stroke-linecap="round" stroke-linejoin="round"/>
<path d="M263.508 454.357C242.188 461.915 225.171 458.809 221.43 456.847C222.065 477.603 226.545 501.2 237.219 527.144L259.097 648.59L352.673 640.559C333.429 627.719 291.476 564.519 273.03 502C267.727 484.029 264.743 468.242 263.508 454.357Z" fill="white"/>
<path d="M222.253 467.762C225.994 469.723 240.533 471.399 264.479 464.552" stroke="#1C0F00" stroke-width="2" stroke-linejoin="round"/>
<path d="M263.373 454.733C242.053 462.291 225.172 458.807 221.431 456.846C222.066 477.602 226.546 501.198 237.22 527.142L259.098 648.589L352.674 640.557C333.43 627.718 291.477 564.517 273.031 501.999C267.728 484.027 264.608 468.618 263.373 454.733Z" stroke="#1C0F00" stroke-width="2" stroke-linejoin="round"/>
<path d="M251.98 536.067C292.028 566.398 287.541 623.242 268.833 640.896C257.627 652.63 225.415 648.479 209.947 645.909L152.007 550.122C156.569 528.386 208.429 503.083 251.98 536.067Z" fill="#00B261"/>
<path d="M229.379 584.994C236 613.56 221.693 630.638 209.395 639.869L135.996 643.505C115.384 643.505 96.3876 627.102 95.3456 599.613C94.2005 569.403 119.726 540.562 158.669 538.325C188.442 536.615 220.79 547.944 229.379 584.994Z" fill="white"/>
<path d="M189.924 647.052C216.569 647.052 233.989 617.82 230.403 590.127C225.662 553.527 196.312 536.842 159.825 537.646M140.937 642.034C115.312 644.689 96.3864 627.799 95.3444 600.091C94.1993 569.64 119.214 539.922 155.593 537.816C157.014 537.734 158.424 537.677 159.825 537.646M270.359 638.954C285.742 623.974 291.836 564.179 251.924 535.764C215.793 510.041 175.544 520.955 159.825 537.646" stroke="#1C0F00" stroke-width="2" stroke-linecap="round" stroke-linejoin="round"/>
<path d="M108.747 663.455C105.63 656.813 106.741 648.91 109.663 643.691C111.789 639.892 116.38 638.845 120.734 638.845H345.072C348.192 638.845 351.483 639.225 353.753 641.364C359.466 646.748 360.391 657.316 357.365 664.401C355.471 668.836 350.301 670.128 345.479 670.128H122.715C117.127 670.128 111.121 668.514 108.747 663.455Z" fill="#FFE900" stroke="#1C0F00" stroke-width="2" stroke-linecap="round" stroke-linejoin="round"/>
<path d="M604.197 486.207C583.143 400.232 526.079 369.522 501.714 363.046C491.073 352.228 469.358 342.07 467.62 387.978C492.976 392.183 532.468 408.799 560.461 487.049C582.416 548.421 585.794 624.223 577.823 645.953L657.082 605.039L604.197 486.207Z" fill="#C9F9B2"/>
<path d="M604.197 486.207C583.143 400.232 526.079 369.522 501.714 363.046C491.073 352.228 469.358 342.07 467.62 387.978C492.976 392.183 532.468 408.799 560.461 487.049C582.416 548.421 585.794 624.223 577.823 645.953L657.082 605.039L604.197 486.207Z" stroke="#1C0F00" stroke-width="2" stroke-linecap="round" stroke-linejoin="round"/>
<path d="M539.773 442.846C561.443 436.36 573.352 423.804 575.217 420.011C586.937 437.146 597.229 458.845 603.902 486.095L657.82 597.075L577.528 645.842C585.499 624.112 582.122 548.31 560.166 486.938C553.855 469.296 546.959 454.787 539.773 442.846Z" fill="white"/>
<path d="M580.986 429.311C579.121 433.104 568.37 443.041 544.998 451.651" stroke="#1C0F00" stroke-width="2" stroke-linejoin="round"/>
<path d="M540.063 442.425C561.733 435.939 573.352 423.803 575.216 420.01C586.937 437.144 597.228 458.843 603.902 486.094L657.82 597.073L577.528 645.84C585.499 624.11 582.122 548.308 560.166 486.936C553.855 469.294 547.25 454.365 540.063 442.425Z" stroke="#1C0F00" stroke-width="2" stroke-linejoin="round"/>
<path d="M597.247 502.013C582.788 550.15 619.916 593.4 645.427 596.608C661.393 599.466 684.955 577.095 695.93 565.886L686.254 454.333C669.759 439.476 612.97 449.666 597.247 502.013Z" fill="#00B261"/>
<path d="M644.337 528.177C655.827 555.152 677.446 560.493 692.817 560.685L754.226 520.282C770.869 508.112 776.54 483.652 761.178 460.84C744.296 435.771 706.686 427.554 673.923 448.743C648.875 464.942 629.433 493.189 644.337 528.177Z" fill="white"/>
<path d="M712.771 554.987C691.257 570.719 659.961 557.403 646.534 532.924C628.788 500.572 642.653 469.77 672.589 448.875M749.368 522.01C771.624 509.024 776.95 484.212 761.46 461.224C744.436 435.96 706.721 426.734 676.105 446.514C674.91 447.286 673.738 448.073 672.589 448.875M643.051 595.942C621.8 592.929 581.635 548.246 597.114 501.736C611.126 459.633 650.057 444.679 672.589 448.875" stroke="#1C0F00" stroke-width="2" stroke-linecap="round" stroke-linejoin="round"/>
<path d="M787.986 520.304C786.589 513.098 781.03 507.371 775.593 504.882C771.638 503.072 767.317 504.936 763.805 507.504L582.656 639.971C580.139 641.812 577.708 644.06 577.135 647.126C575.693 654.848 581.178 663.931 587.799 667.865C591.942 670.326 596.874 668.318 600.765 665.472L780.645 533.933C785.154 530.636 789.049 525.79 787.986 520.304Z" fill="#FFE900" stroke="#1C0F00" stroke-width="2" stroke-linecap="round" stroke-linejoin="round"/>
<path d="M705.083 294.077C705.083 297.663 703.013 301.316 698.717 304.997C694.429 308.672 688.044 312.263 679.728 315.711C663.103 322.603 638.986 328.832 609.11 334.07C549.374 344.545 466.811 351.029 375.586 351.029C284.362 351.029 201.798 344.545 142.063 334.07C112.187 328.832 88.0697 322.603 71.4448 315.711C63.1281 312.263 56.7437 308.672 52.455 304.997C48.1592 301.316 46.0898 297.663 46.0898 294.077C46.0898 290.492 48.1592 286.839 52.455 283.158C56.7437 279.483 63.1281 275.892 71.4448 272.444C88.0697 265.552 112.187 259.323 142.063 254.085C201.798 243.61 284.362 237.126 375.586 237.126C466.811 237.126 549.374 243.61 609.11 254.085C638.986 259.323 663.103 265.552 679.728 272.444C688.044 275.892 694.429 279.483 698.717 283.158C703.013 286.839 705.083 290.492 705.083 294.077Z" fill="#FFE900" stroke="#1C0F00" stroke-width="2"/>
<path d="M385.835 24.4551C270.093 24.4551 176.265 117.65 176.265 232.612C176.265 242.928 178.8 268.57 182.413 280.878C210.676 294.428 268.578 309.274 374.995 309.591C491.406 309.937 557.38 295.198 588.695 281.898C592.825 266 595.406 242.57 595.406 232.612C595.406 117.65 501.578 24.4551 385.835 24.4551Z" fill="#B8EEFF"/>
<path d="M316.887 71.0244C308.64 67.7572 286.374 65.9687 269.468 78.7625C257.718 88.1277 252.388 99.0062 250.329 108.684C236.95 111.435 207.617 129.834 216.415 169.648C207.987 173.633 198.43 181.193 193.184 194.319C184.937 214.954 192.497 233.87 197.308 240.748C182.051 280.78 201.51 302.482 213.147 308.328C213.454 318.529 216.188 329.721 223.596 339.797C232.605 352.051 243.76 357.105 253.49 358.606C257.201 388.321 286.477 395.511 300.714 392.932C306.851 400.769 315.891 407.967 327.712 410.988C357.179 418.518 373.069 409.612 377.193 404.797C379.77 408.752 389.048 416.869 405.541 417.694C425.334 418.519 435.34 409.44 437.869 404.797C449.203 409.889 464.256 412.299 479.247 404.797C491.731 398.55 498.747 389.631 502.612 381.025C539.311 376.072 545.909 347.12 544.707 333.242C553.848 329.691 563.905 323.022 569.447 311.423C578.519 292.439 573.227 271.873 569.447 263.963C574.085 259.32 582.642 247.764 581.817 226.304C580.992 204.843 571.681 196.68 566.354 192.959C569.118 184.556 570.919 173.902 568.416 163.883C564.293 147.374 549.806 139.808 543.078 138.089C542.236 129.175 539.172 118.99 531.305 107.652C520.997 92.7947 500.895 86.6729 492.133 85.4692C482.237 60.7071 457.771 60.1627 446.775 62.9858C441.251 57.1879 432.815 51.3644 420.489 47.8097C403.562 42.9284 389.231 48.7116 379.994 55.5484C374.668 51.5933 361.523 44.5083 344.204 47.8099C326.886 51.1115 318.433 64.834 316.887 71.0244Z" fill="#C9F9B2"/>
<path d="M250.397 129.834C249.261 125.043 248.485 117.344 250.329 108.684M379.994 55.5484C374.668 51.5933 361.523 44.5083 344.204 47.8099C326.886 51.1115 318.433 64.834 316.887 71.0244C308.64 67.7572 286.374 65.9687 269.468 78.7625C257.718 88.1277 252.388 99.0062 250.329 108.684M379.994 55.5484C389.231 48.7116 403.562 42.9284 420.489 47.8097C432.815 51.3644 441.251 57.1879 446.775 62.9858M379.994 55.5484C375.954 58.538 372.889 61.729 371.008 64.3179M455.537 77.7307C454.775 74.2525 452.155 68.6313 446.775 62.9858M446.775 62.9858C457.771 60.1627 482.237 60.7071 492.133 85.4692C500.895 86.6729 520.997 92.7947 531.305 107.652C539.172 118.99 542.236 129.175 543.078 138.089M542.645 153.565C543.247 148.944 543.615 143.775 543.078 138.089M543.078 138.089C549.806 139.808 564.293 147.374 568.416 163.883C570.919 173.902 569.118 184.556 566.354 192.959M560.685 205.669C562.373 202.898 564.565 198.4 566.354 192.959M566.354 192.959C571.681 196.68 580.992 204.843 581.817 226.304C582.642 247.764 574.085 259.32 569.447 263.963C573.227 271.873 578.519 292.439 569.447 311.423C563.905 323.022 553.848 329.691 544.707 333.242M529.759 336.701C533.435 336.501 538.885 335.503 544.707 333.242M544.707 333.242C545.909 347.12 539.311 376.072 502.612 381.025M502.612 381.025C498.747 389.631 491.731 398.55 479.247 404.797C464.256 412.299 449.203 409.889 437.869 404.797M502.612 381.025C506.407 372.575 507.165 364.426 507.08 359.4M421.52 393.448C424.702 397.039 430.499 401.485 437.869 404.797M437.869 404.797C435.34 409.44 425.334 418.519 405.541 417.694C389.048 416.869 379.77 408.752 377.193 404.797C373.069 409.612 357.179 418.518 327.712 410.988C315.891 407.967 306.851 400.769 300.714 392.932M291.117 370.233C291.029 375.78 294.274 384.708 300.714 392.932M300.714 392.932C286.477 395.511 257.201 388.321 253.49 358.606M253.49 358.606C243.76 357.105 232.605 352.051 223.596 339.797C216.188 329.721 213.454 318.529 213.147 308.328M253.49 358.606C261.129 359.784 267.889 358.773 272.045 357.336M218.441 279.955C215.754 285.798 212.787 296.384 213.147 308.328M250.329 108.684C236.95 111.435 207.617 129.834 216.415 169.648M216.415 169.648C207.987 173.633 198.43 181.193 193.184 194.319C184.937 214.954 192.497 233.87 197.308 240.748C182.051 280.78 201.51 302.482 213.147 308.328M216.415 169.648C221.235 167.369 225.686 166.259 228.75 165.946" stroke="#1C0F00" stroke-width="2" stroke-linecap="round" stroke-linejoin="round"/>
<path d="M492.655 282.174C493.312 292.285 480.993 311.017 462.601 306.481M449.398 299.566C454.052 303.279 458.479 305.464 462.601 306.481M462.601 306.481C460.093 311.156 452.425 318.718 441.82 311.563" stroke="#1C0F00" stroke-width="2" stroke-linecap="round" stroke-linejoin="round"/>
<path d="M552.185 238.455C546.246 242.59 532.422 243.472 530.097 227.45" stroke="#1C0F00" stroke-width="2" stroke-linecap="round" stroke-linejoin="round"/>
<path d="M471.996 187.832C468.683 180.07 473.421 165.096 487.576 161.23M500.555 160.789C495.576 159.97 491.257 160.224 487.576 161.23M487.576 161.23C484.98 156.968 481.478 146.606 488.236 139.254" stroke="#1C0F00" stroke-width="2" stroke-linecap="round" stroke-linejoin="round"/>
<path d="M298.023 129.882C295.991 126.893 289.4 122.773 279.293 130.203C287.716 124.011 291.098 102.248 271.571 97.4715" stroke="#1C0F00" stroke-width="2" stroke-linecap="round" stroke-linejoin="round"/>
<path d="M354.758 98.3647C364.035 93.2057 386.199 93.2062 390.731 113.325M390.838 122.611C391.353 120.548 391.156 115.213 390.731 113.325M390.731 113.325C399.085 109.714 414.547 115.389 413.001 132.413" stroke="#1C0F00" stroke-width="2" stroke-linecap="round" stroke-linejoin="round"/>
<path d="M363.548 156.21C367.26 156.699 369.59 157.635 370.894 158.722C372.131 159.753 372.475 160.935 372.207 162.227C371.921 163.605 370.912 165.2 369.196 166.823C367.497 168.43 365.182 169.991 362.439 171.313C356.664 174.097 350.316 175.495 345.215 175.45C342.661 175.427 340.479 175.043 338.851 174.338C337.229 173.635 336.246 172.656 335.871 171.469C335.176 169.274 335.795 167.203 337.427 165.247C339.081 163.265 341.727 161.478 344.857 160.012C351.135 157.072 358.954 155.605 363.548 156.21Z" fill="#00B261" stroke="#1C0F00" stroke-width="2" stroke-linejoin="round"/>
<path d="M289.224 164.934C288.09 163.323 287.673 161.745 287.973 160.268C288.283 159.029 289.594 157.133 292.844 156.123C296.119 155.105 301.36 154.998 309.352 157.492C314.323 159.043 317.862 161.014 320.165 163.042C322.476 165.077 323.479 167.107 323.567 168.799C323.652 170.447 322.879 171.963 321.204 173.079C319.503 174.213 316.859 174.929 313.333 174.793C306.154 174.515 299.368 172.447 294.594 169.589C292.206 168.159 290.368 166.559 289.224 164.934Z" fill="#00B261" stroke="#1C0F00" stroke-width="2" stroke-linejoin="round"/>
<path d="M254.152 215.164C254.152 236.914 271.768 254.545 293.499 254.545C315.229 254.545 333.399 236.359 333.399 214.61C333.399 192.86 315.783 175.229 294.053 175.229C270.777 175.229 254.152 193.415 254.152 215.164Z" fill="#1C0F00"/>
<ellipse cx="29.9256" cy="29.9517" rx="29.9256" ry="29.9517" transform="matrix(-1 0 0 1 323.348 184.461)" fill="#1C0F00"/>
<ellipse cx="312.055" cy="200.36" rx="10.7603" ry="10.7697" fill="white"/>
<ellipse cx="300.781" cy="204.461" rx="4.61158" ry="4.61561" fill="white"/>
<path d="M406.355 215.164C406.355 236.914 388.739 254.545 367.008 254.545C345.278 254.545 327.107 236.359 327.107 214.61C327.107 192.86 344.724 175.229 366.454 175.229C389.729 175.229 406.355 193.415 406.355 215.164Z" fill="#1C0F00"/>
<ellipse cx="367.085" cy="214.413" rx="29.9256" ry="29.9517" fill="#1C0F00"/>
<ellipse cx="347.92" cy="210.615" rx="10.7603" ry="10.7697" fill="white"/>
<ellipse cx="358.167" cy="215.745" rx="4.61158" ry="4.61561" fill="white"/>
<path d="M370.977 250.619C369.439 236.772 355.786 234.721 354.068 244.465C351.174 260.876 343.307 249.722 336.647 254.722C331.523 258.568 335.867 269.714 347.407 272.158C357.665 274.331 372.848 267.47 370.977 250.619Z" fill="#FFBAC2" stroke="#1C0F00" stroke-width="2" stroke-linecap="round" stroke-linejoin="round"/>
<path d="M347.408 259.338C343.309 259.748 341.942 255.748 341.771 253.697C347.92 255.748 350.482 253.868 350.995 252.671C351.507 254.722 351.507 258.928 347.408 259.338Z" fill="white" stroke="#1C0F00" stroke-width="2" stroke-linecap="round" stroke-linejoin="round"/>
<path d="M358.168 251.646C356.631 254.723 352.531 254.039 350.994 253.184C354.069 250.62 354.581 247.03 354.581 244.979C356.118 244.979 359.957 248.063 358.168 251.646Z" fill="white" stroke="#1C0F00" stroke-width="2" stroke-linecap="round" stroke-linejoin="round"/>
<path d="M354.684 266.385C350.653 267.129 349.814 270.803 349.969 272.172C351.898 272.444 357.263 272.071 360.602 269.488C360.154 268.365 358.318 265.715 354.684 266.385Z" fill="white" stroke="#1C0F00" stroke-width="2" stroke-linecap="round" stroke-linejoin="round"/>
<path d="M363.094 260.912C364.845 257.203 368.609 257.334 369.891 257.835C369.659 259.771 367.923 264.865 364.572 267.433C363.603 266.712 361.514 264.256 363.094 260.912Z" fill="white" stroke="#1C0F00" stroke-width="2" stroke-linecap="round" stroke-linejoin="round"/>
<path d="M260.007 228.094C249.811 225.876 239.503 233.086 238.395 238.633L255.02 268.03C258.345 269.694 273.308 265.811 275.524 254.718C277.741 243.625 272.754 230.868 260.007 228.094Z" fill="#C9F9B2"/>
<path d="M236.731 242.302C237.332 234.67 246.496 226.624 257.766 227.625C270.987 228.799 279.401 243.476 275.795 255.218C272.273 266.687 259.568 269.895 255.963 268.134" stroke="#1C0F00" stroke-width="2" stroke-linecap="round" stroke-linejoin="round"/>
<ellipse cx="260.277" cy="239.54" rx="1.53682" ry="1.53854" fill="#1C0F00"/>
<ellipse cx="326.401" cy="244.463" rx="1.53682" ry="1.53854" fill="#1C0F00"/>
<ellipse cx="331.523" cy="244.463" rx="1.53682" ry="1.53854" fill="#1C0F00"/>
<ellipse cx="246.956" cy="239.54" rx="1.53682" ry="1.53854" fill="#1C0F00"/>
<ellipse cx="255.154" cy="251.845" rx="1.53682" ry="1.53854" fill="#1C0F00"/>
<ellipse cx="267.451" cy="251.845" rx="1.53682" ry="1.53854" fill="#1C0F00"/>
<path d="M414.113 226.813C427.856 228.144 433.878 236.612 435.171 240.68L411.342 270.077C408.017 270.077 396.379 268.968 391.391 256.765C386.404 244.562 396.933 225.149 414.113 226.813Z" fill="#C9F9B2"/>
<path d="M435.172 240.68C434.065 235.688 427.414 227.601 413.56 226.259C396.381 224.594 386.404 244.008 391.392 256.211C396.379 268.413 408.018 270.077 411.343 270.077" stroke="#1C0F00" stroke-width="2" stroke-linecap="round" stroke-linejoin="round"/>
<ellipse cx="418.558" cy="235.235" rx="1.53682" ry="1.53854" fill="#1C0F00"/>
<ellipse cx="401.136" cy="244.462" rx="1.53682" ry="1.53854" fill="#1C0F00"/>
<ellipse cx="411.384" cy="247.54" rx="1.53682" ry="1.53854" fill="#1C0F00"/>
<ellipse cx="425.733" cy="244.462" rx="1.53682" ry="1.53854" fill="#1C0F00"/>
<path d="M261.454 297.564C268.576 298.833 278.923 310.496 269.264 323.484" stroke="#1C0F00" stroke-width="2" stroke-linecap="round" stroke-linejoin="round"/>
<path d="M322.671 317.224C330.245 321.292 349.271 325.877 364.788 311.678" stroke="#1C0F00" stroke-width="2" stroke-linecap="round" stroke-linejoin="round"/>
<path d="M354.258 367.627C357.707 364.023 367.079 359.561 376.972 370.539C376.955 367.463 378.501 360.846 384.825 358.986" stroke="#1C0F00" stroke-width="2" stroke-linecap="round" stroke-linejoin="round"/>
<path d="M181.901 281.71C178.215 266.134 176.265 249.887 176.265 233.184C176.265 117.341 270.093 23.4307 385.835 23.4307C501.578 23.4307 595.406 117.341 595.406 233.184C595.406 249.957 593.439 266.27 589.723 281.905" stroke="#1C0F00" stroke-width="2"/>
<path d="M595.405 270.998C408.892 332.027 202.396 292.025 175.752 269.972L133.223 267.408L151.669 303.307L192.661 340.232C365.851 372.029 498.05 352.028 618.975 332.027V267.408L595.405 270.998Z" fill="#FFE900"/>
<path d="M161.916 261.768C175.58 275.272 237.136 302.385 374.049 302.795C510.961 303.205 585.839 277.666 606.165 264.845" stroke="#1C0F00" stroke-width="2" stroke-linecap="round" stroke-linejoin="round"/>
<path d="M504.196 76.2541L543.651 45.4834" stroke="#1C0F00" stroke-width="2" stroke-linecap="round" stroke-linejoin="round"/>
<ellipse cx="543.65" cy="45.9954" rx="14.3471" ry="14.3597" fill="#FFE900" stroke="#1C0F00" stroke-width="2" stroke-linecap="round" stroke-linejoin="round"/>
<path d="M285.405 58.8166L245.951 28.0459" stroke="#1C0F00" stroke-width="2" stroke-linecap="round" stroke-linejoin="round"/>
<ellipse cx="14.3471" cy="14.3597" rx="14.3471" ry="14.3597" transform="matrix(-1 0 0 1 260.299 14.1982)" fill="#FFE900" stroke="#1C0F00" stroke-width="2" stroke-linecap="round" stroke-linejoin="round"/>
<path d="M675.952 256.258C715.441 232.788 693.146 190.605 675.537 171.621C690.208 135.62 711.748 150.049 720.684 161.764C734.791 186.524 749.448 229.489 715.329 269.559C678.406 306.779 625.972 298.208 591.28 261.009C592.878 257.094 596.148 248.757 598.489 228.887C615.449 250.6 646.858 273.549 675.952 256.258Z" fill="#C9F9B2"/>
<path d="M675.538 171.621C693.147 190.605 715.442 232.788 675.952 256.258C646.859 273.549 615.449 250.6 598.49 228.887M720.431 160.873C734.778 186.515 749.449 229.489 715.33 269.559C678.898 306.283 627.029 298.379 592.329 262.43" stroke="#1C0F00" stroke-width="2" stroke-linecap="round" stroke-linejoin="round"/>
<path d="M745.539 122.407C740.928 162.922 711.215 164.497 697.754 162.098L689.291 167.128C682.453 174.112 661.913 185.36 634.459 174.48C600.141 160.879 597.069 120.699 598.994 110.611C600.919 100.524 608.698 90.5431 622.051 94.2003C637.499 98.4312 635.665 115.438 638.856 120.723C644.319 129.772 658.396 124.228 657.407 109.073C655.561 80.7966 620.51 89.148 617.44 65.481C613.95 38.5844 657.327 21.2943 682.661 62.6371C690.094 74.767 692.548 88.1843 692.901 93.0667C693.794 92.8464 697.926 93.6327 701.986 94.2003C701.986 71.6351 685.453 66.148 685.076 42.9158C684.807 26.3078 712.574 11.4118 732.433 35.9367C752.293 60.4616 749.599 86.7383 745.539 122.407Z" fill="#C9F9B2"/>
<path d="M696.738 161.952C710.2 164.352 737.555 161.891 744.033 130.763C750.316 100.572 752.87 60.021 733.011 35.4961C713.152 10.9713 684.901 25.1459 685.212 44.349C685.616 69.2609 705.307 74.6028 701.527 94.2694M693.408 93.1343C693.055 88.2518 690.601 74.8345 683.168 62.7046C657.834 21.3618 614.036 39.0587 617.526 65.9553C620.596 89.6223 655.6 81.5788 657.445 109.855C658.434 125.01 643.304 129.627 637.841 120.578C634.65 115.292 637.844 98.3118 622.396 94.0808C609.043 90.4236 600.822 100.386 598.896 110.473C596.971 120.56 599.125 160.734 633.443 174.334C660.898 185.215 681.438 173.967 688.276 166.983" stroke="#1C0F00" stroke-width="2" stroke-linecap="round" stroke-linejoin="round"/>
<path d="M721.708 105.379C714.144 96.5542 695.543 89.7076 676.319 96.9623" stroke="#1C0F00" stroke-width="2" stroke-linecap="round" stroke-linejoin="round"/>
<path d="M595.4 224.332C625.124 221.767 632.297 276.642 590.28 272.539C591.818 264.847 595.913 245.358 595.4 224.332Z" fill="#FFA41C" stroke="#1C0F00" stroke-width="2" stroke-linecap="round" stroke-linejoin="round"/>
<path d="M89.4178 248.746C52.1549 221.875 78.0881 181.829 97.3046 164.477C85.8707 127.319 63.1405 139.786 53.2047 150.664C36.9662 174.08 18.5726 215.58 49.0198 258.512C82.5118 298.852 135.497 294.954 173.339 260.969C172.092 256.928 169.571 248.334 168.994 228.335C150.184 248.463 116.87 268.543 89.4178 248.746Z" fill="#C9F9B2"/>
<path d="M97.304 164.477C78.0874 181.829 52.1543 221.875 89.4171 248.746C116.87 268.543 150.183 248.463 168.994 228.335M54.3123 149.077C36.8916 174.206 18.572 215.581 49.0192 258.512C82.0065 298.244 134.244 295.043 171.967 262.466" stroke="#1C0F00" stroke-width="2" stroke-linecap="round" stroke-linejoin="round"/>
<path d="M30.7434 109.586C31.7987 142.848 62.3954 154.226 76.0163 153.027L84.0012 158.786C90.1959 166.348 109.662 179.369 137.97 170.959C173.355 160.448 179.854 120.317 178.827 110.099C177.8 99.8805 169.685 89.5356 156.061 91.9972C140.3 94.845 143.017 112.296 139.372 117.279C133.131 125.809 118.089 119.979 120.413 104.97C124.748 76.968 158.818 87.7583 163.967 64.4555C169.818 37.9729 128.718 16.3505 99.8329 55.2904C91.3579 66.7154 87.7292 79.8631 86.9461 84.6951C86.0757 84.3967 83.3638 84.8756 79.2698 85.0818C74.8101 68.5583 97.368 60.2368 98.8932 35.2234C99.9041 18.6441 74.2113 1.26867 52.2641 23.9408C30.317 46.6129 29.6841 76.1954 30.7434 109.586Z" fill="#C9F9B2"/>
<path d="M77.0403 152.971C63.4194 154.17 35.4724 146.807 31.7688 115.227C28.1767 84.5985 30.1292 46.4731 52.0763 23.801C74.0235 1.12883 100.912 17.7472 98.9064 36.8475C96.3044 61.6263 76.219 65.2054 78.2468 85.1293M86.4348 84.7169C87.218 79.8849 90.8467 66.7371 99.3217 55.3122C128.207 16.3723 170.271 37.8744 164.42 64.357C159.272 87.6598 125.116 76.5513 120.78 104.554C118.456 119.562 133.12 125.499 139.361 116.969C143.006 111.986 141.324 94.7895 157.085 91.9417C170.709 89.48 178.018 100.13 179.045 110.348C180.072 120.567 174.379 160.392 138.994 170.904C110.686 179.313 91.2199 166.292 85.0252 158.731" stroke="#1C0F00" stroke-width="2" stroke-linecap="round" stroke-linejoin="round"/>
<path d="M57.1645 94.4099C65.478 86.289 84.611 81.1147 103.119 90.0416" stroke="#1C0F00" stroke-width="2" stroke-linecap="round" stroke-linejoin="round"/>
<path d="M176.264 225.359C143.983 225.359 143.646 277.525 181.902 273.566C179.852 264.335 176.173 247.755 176.264 225.359Z" fill="#FFA41C" stroke="#1C0F00" stroke-width="2" stroke-linecap="round" stroke-linejoin="round"/>
<path d="M530.485 376.579C493.353 412.572 442.15 435.136 386.348 435.136C332.306 435.136 282.293 415.028 245.285 380.594C285.971 385.757 330.676 388.529 375.857 388.529C430.149 388.529 483.467 383.892 530.485 376.579Z" fill="#ECCCFB" stroke="#1C0F00" stroke-width="2"/>
<path d="M704.857 298.098C703.774 308.144 696.143 318.072 682.729 327.536C666.35 339.092 641.645 349.727 610.858 358.768C549.304 376.844 463.703 388.469 372.512 388.469C281.32 388.469 199.565 377.133 140.641 359.379C111.173 350.5 87.4691 340.033 71.1549 328.615C58.1507 319.513 49.9754 309.906 47.1748 300.121C48.4051 301.757 49.9793 303.347 51.8619 304.89C56.5205 308.71 63.1859 312.345 71.6051 315.777C88.4502 322.643 112.523 328.78 142.168 333.914C201.472 344.183 283.259 350.468 374.561 350.468C465.862 350.468 549.058 344.345 609.26 333.981C639.352 328.8 663.751 322.551 680.556 315.452C688.953 311.904 695.516 308.119 699.947 304.102C702.071 302.176 703.729 300.173 704.857 298.098Z" fill="#FFA41C" stroke="#1C0F00" stroke-width="2"/>
<path d="M211.619 284.469C199.322 291.136 170.628 315.239 156.793 336.266" stroke="#1C0F00" stroke-width="2" stroke-linecap="round" stroke-linejoin="round"/>
<path d="M314.097 300.879C309.314 307.375 298.212 326.008 297.188 348.573" stroke="#1C0F00" stroke-width="2" stroke-linecap="round" stroke-linejoin="round"/>
<path d="M433.998 301.392C439.464 306.52 448.96 322.623 453.469 348.061" stroke="#1C0F00" stroke-width="2" stroke-linecap="round" stroke-linejoin="round"/>
<path d="M539.04 287.545C552.704 295.067 580.852 314.521 590.28 336.265" stroke="#1C0F00" stroke-width="2" stroke-linecap="round" stroke-linejoin="round"/>
</svg>
