<svg width="327" height="306" viewBox="0 0 327 306" fill="none" xmlns="http://www.w3.org/2000/svg">
<g clip-path="url(#clip0_4745_1547)">
<rect x="71.9297" y="171.682" width="128.245" height="102.631" fill="#1C0F00"/>
<ellipse cx="133.923" cy="292.284" rx="103.164" ry="13.2427" fill="#1C0F00"/>
<path d="M192.366 238.604C177.988 238.604 167.471 247.496 160.589 254.969L149.066 179.012C146.779 175.465 141.683 170.073 133.923 174.992C134.79 209.045 134.933 278.474 135.123 284.717C135.359 292.521 139.145 294.176 175.82 296.304C205.16 298.007 218.078 291.338 219.104 288.264C226.202 271.474 223.126 238.604 192.366 238.604Z" fill="#EEB36F"/>
<path d="M153.325 263.434C158.531 257.68 171.307 238.604 192.366 238.604C223.126 238.604 226.202 271.474 219.104 288.264C218.078 291.338 205.16 298.007 175.82 296.304C139.145 294.176 135.359 292.521 135.123 284.717C134.933 278.474 134.79 209.045 133.923 174.992C141.683 170.073 146.779 175.465 149.066 179.012L160.617 255.158" stroke="#1C0F00" stroke-linecap="round" stroke-linejoin="round"/>
<path d="M77.6087 238.841C92.0481 238.841 102.816 247.697 109.837 255.12L121.382 179.012C123.67 175.465 128.765 170.073 136.526 174.992C135.658 209.045 135.515 278.474 135.326 284.717C135.089 292.521 131.303 294.176 94.6282 296.304C65.2881 298.007 52.3699 291.338 51.3446 288.264C44.2462 271.474 46.8492 238.841 77.6087 238.841Z" fill="#EEB36F"/>
<path d="M117.123 263.434C111.918 257.68 98.6684 238.841 77.6087 238.841C46.8492 238.841 44.2462 271.474 51.3446 288.264C52.3699 291.338 65.2881 298.007 94.6282 296.304C131.303 294.176 135.089 292.521 135.326 284.717C135.515 278.474 135.658 209.045 136.526 174.992C128.765 170.073 123.67 175.465 121.382 179.012L109.831 255.158" stroke="#1C0F00" stroke-linecap="round" stroke-linejoin="round"/>
<path d="M122.669 23.8376C118.861 22.3311 108.579 21.5064 100.772 27.4057C95.3462 31.724 92.8852 36.7402 91.9341 41.2025C85.7562 42.4712 72.2108 50.9552 76.2734 69.3135C72.3817 71.1509 67.9685 74.6368 65.5459 80.6896C61.7377 90.2046 65.2287 98.9266 67.4502 102.098C60.4051 120.557 69.3908 130.564 74.7643 133.26C74.9062 137.964 76.1687 143.124 79.5894 147.77C83.7496 153.421 88.9008 155.751 93.3941 156.443C95.1078 170.145 108.626 173.461 115.201 172.271C118.035 175.885 122.209 179.204 127.668 180.597C141.275 184.069 148.613 179.962 150.517 177.742C151.707 179.566 155.991 183.309 163.608 183.689C172.747 184.07 177.368 179.883 178.536 177.742C183.77 180.09 190.721 181.201 197.644 177.742C203.408 174.861 206.648 170.749 208.433 166.781C225.38 164.497 228.427 151.147 227.871 144.748C232.092 143.11 236.736 140.035 239.296 134.687C243.485 125.933 241.041 116.45 239.296 112.803C241.438 110.662 245.389 105.333 245.008 95.4378C244.627 85.5423 240.327 81.778 237.868 80.0624C239.144 76.1877 239.975 71.2753 238.82 66.6551C236.916 59.0431 230.226 55.5543 227.119 54.7614C226.731 50.6512 225.316 45.955 221.683 40.7268C216.923 33.876 207.64 31.0532 203.594 30.4982C199.024 19.0802 187.726 18.8292 182.649 20.1309C180.098 17.4575 176.202 14.7722 170.51 13.1332C162.694 10.8823 156.076 13.549 151.81 16.7015C149.351 14.8778 143.281 11.6108 135.284 13.1332C127.287 14.6556 123.383 20.9831 122.669 23.8376Z" fill="#EEB36F"/>
<path d="M91.9657 50.9552C91.4412 48.7459 91.083 45.196 91.9341 41.2025M151.81 16.7015C149.351 14.8778 143.281 11.6108 135.284 13.1332C127.287 14.6556 123.383 20.9831 122.669 23.8376C118.861 22.3311 108.579 21.5064 100.772 27.4057C95.3462 31.724 92.8852 36.7402 91.9341 41.2025M151.81 16.7015C156.076 13.549 162.694 10.8823 170.51 13.1332C176.202 14.7722 180.098 17.4575 182.649 20.1309M151.81 16.7015C149.945 18.08 148.53 19.5514 147.661 20.7452M186.695 26.9299C186.343 25.3261 185.133 22.7341 182.649 20.1309M182.649 20.1309C187.726 18.8292 199.024 19.0802 203.594 30.4982C207.64 31.0532 216.923 33.876 221.683 40.7268C225.316 45.955 226.731 50.6512 227.119 54.7614M226.919 61.8976C227.197 59.7667 227.367 57.3833 227.119 54.7614M227.119 54.7614C230.226 55.5543 236.916 59.0431 238.82 66.6551C239.975 71.2753 239.144 76.1877 237.868 80.0624M235.25 85.9229C236.029 84.6451 237.042 82.5713 237.868 80.0624M237.868 80.0624C240.327 81.778 244.627 85.5423 245.008 95.4378C245.389 105.333 241.438 110.662 239.296 112.803C241.041 116.45 243.485 125.933 239.296 134.687C236.737 140.035 232.092 143.11 227.871 144.748M220.969 146.343C222.666 146.25 225.183 145.791 227.871 144.748M227.871 144.748C228.427 151.147 225.38 164.497 208.433 166.781M208.433 166.781C206.648 170.749 203.408 174.861 197.644 177.742C190.721 181.201 183.77 180.09 178.536 177.742M208.433 166.781C210.185 162.884 210.536 159.127 210.496 156.809M170.986 172.509C172.456 174.165 175.133 176.215 178.536 177.742M178.536 177.742C177.368 179.883 172.747 184.07 163.608 183.689C155.991 183.309 151.707 179.566 150.517 177.742C148.613 179.962 141.275 184.069 127.668 180.597C122.209 179.204 118.035 175.885 115.201 172.271M110.769 161.805C110.728 164.362 112.227 168.479 115.201 172.271M115.201 172.271C108.626 173.461 95.1078 170.145 93.3941 156.443M93.3941 156.443C88.9008 155.751 83.7496 153.42 79.5894 147.77C76.1687 143.124 74.9062 137.964 74.7643 133.26M93.3941 156.443C96.9213 156.987 100.043 156.52 101.962 155.858M77.2093 120.177C75.9683 122.871 74.5981 127.752 74.7643 133.26M91.9341 41.2025C85.7562 42.4712 72.2108 50.9552 76.2734 69.3135M76.2734 69.3135C72.3817 71.1509 67.9685 74.6368 65.5459 80.6896C61.7377 90.2046 65.2287 98.9266 67.4502 102.098C60.4051 120.557 69.3908 130.564 74.7643 133.26M76.2734 69.3135C78.4994 68.2625 80.5547 67.7508 81.9693 67.6066" stroke="#1C0F00" stroke-linecap="round" stroke-linejoin="round"/>
<path d="M203.835 121.2C204.138 125.862 198.449 134.499 189.956 132.408M183.86 129.219C186.009 130.931 188.053 131.939 189.956 132.408M189.956 132.408C188.798 134.563 185.257 138.05 180.36 134.751" stroke="#1C0F00" stroke-linecap="round" stroke-linejoin="round"/>
<path d="M97.0718 128.297C100.361 128.882 105.139 134.26 100.679 140.248" stroke="#1C0F00" stroke-linecap="round" stroke-linejoin="round"/>
<path d="M231.324 101.04C228.582 102.947 222.198 103.354 221.125 95.9657" stroke="#1C0F00" stroke-linecap="round" stroke-linejoin="round"/>
<path d="M184.158 67.3392C187.096 64.7853 194.343 64.7464 198.047 70.416M200.081 76.0545C199.735 73.7514 199.011 71.8906 198.047 70.416M198.047 70.416C199.551 68.6725 203.604 65.6674 207.79 67.5947" stroke="#1C0F00" stroke-linecap="round" stroke-linejoin="round"/>
<path d="M125.341 137.362C128.838 139.238 137.624 141.352 144.79 134.805" stroke="#1C0F00" stroke-linecap="round" stroke-linejoin="round"/>
<path d="M149.064 62.9259C150.467 63.561 151.254 64.1932 151.619 64.7448C151.958 65.2567 151.944 65.7051 151.697 66.1306C151.426 66.5982 150.846 67.0765 149.97 67.4867C149.104 67.8918 148 68.2067 146.755 68.3792C144.13 68.7427 141.454 68.5087 139.452 67.8767C138.449 67.5601 137.645 67.1527 137.1 66.6953C136.558 66.239 136.315 65.7718 136.315 65.3167C136.315 64.4432 136.789 63.7535 137.665 63.2122C138.554 62.6627 139.812 62.3018 141.23 62.121C144.074 61.7582 147.338 62.1449 149.064 62.9259Z" fill="#6C3712" stroke="#1C0F00" stroke-linejoin="round"/>
<path d="M106.957 66.6699C106.354 66.1607 106.053 65.6109 106.029 65.048C106.033 64.5835 106.347 63.7497 107.537 63.0582C108.738 62.3601 110.823 61.8195 114.281 62.0298C116.43 62.1606 118.039 62.5904 119.154 63.1554C120.275 63.7235 120.854 64.4035 121.044 65.0177C121.227 65.6072 121.081 66.2319 120.536 66.8059C119.978 67.3923 119.002 67.9181 117.576 68.1991C114.666 68.7726 111.74 68.6125 109.549 67.9569C108.452 67.6287 107.565 67.1844 106.957 66.6699Z" fill="#6C3712" stroke="#1C0F00" stroke-linejoin="round"/>
<path d="M139.927 160.603C141.519 158.941 145.847 156.883 150.416 161.945C150.408 160.527 151.122 157.476 154.042 156.618" stroke="#1C0F00" stroke-linecap="round" stroke-linejoin="round"/>
<path d="M113.959 50.9768C113.02 49.5986 109.977 47.6986 105.309 51.1246C109.199 48.2696 110.761 38.2345 101.744 36.0321" stroke="#1C0F00" stroke-linecap="round" stroke-linejoin="round"/>
<path d="M140.157 36.4446C144.441 34.0658 154.676 34.066 156.769 43.3431M156.818 47.6249C157.056 46.6734 156.965 44.2135 156.769 43.3431M156.769 43.3431C160.626 41.678 167.767 44.2947 167.053 52.1444" stroke="#1C0F00" stroke-linecap="round" stroke-linejoin="round"/>
<path d="M95.6182 90.3028C95.6182 100.055 103.529 107.962 113.288 107.962C123.046 107.962 131.213 99.7994 131.213 90.047C131.213 80.2946 123.302 72.3882 113.544 72.3882C103.084 72.3882 95.6182 80.5375 95.6182 90.3028Z" fill="#FFF3E1" stroke="#1C0F00" stroke-linejoin="round"/>
<path d="M163.483 90.3028C163.483 100.055 155.573 107.962 145.814 107.962C136.055 107.962 127.889 99.7994 127.889 90.047C127.889 80.2946 135.799 72.3882 145.558 72.3882C156.018 72.3882 163.483 80.5375 163.483 90.3028Z" fill="#FFF3E1" stroke="#1C0F00" stroke-linejoin="round"/>
<ellipse cx="141.589" cy="89.4833" rx="13.819" ry="13.8109" fill="#1C0F00"/>
<ellipse cx="109.32" cy="89.4833" rx="13.819" ry="13.8109" fill="#1C0F00"/>
<ellipse cx="151.286" cy="84.4221" rx="4.96889" ry="4.966" fill="#FFF3E1"/>
<ellipse cx="119.016" cy="84.4221" rx="4.96889" ry="4.966" fill="#FFF3E1"/>
<path d="M166.303 94.8929C172.649 95.5068 175.43 99.4113 176.027 101.287L165.024 114.842C163.488 114.842 158.114 114.331 155.811 108.704C153.508 103.077 158.37 94.1257 166.303 94.8929Z" fill="#EEB36F"/>
<path d="M176.028 101.286C175.517 98.9846 172.446 95.2555 166.048 94.6366C158.115 93.8692 153.508 102.821 155.811 108.448C158.114 114.074 163.489 114.841 165.025 114.841" stroke="#1C0F00" stroke-linecap="round" stroke-linejoin="round"/>
<ellipse cx="168.356" cy="98.7749" rx="0.709841" ry="0.709428" fill="#1C0F00"/>
<ellipse cx="160.311" cy="103.032" rx="0.709841" ry="0.709428" fill="#1C0F00"/>
<ellipse cx="165.044" cy="104.451" rx="0.709841" ry="0.709428" fill="#1C0F00"/>
<ellipse cx="171.669" cy="103.032" rx="0.709841" ry="0.709428" fill="#1C0F00"/>
<path d="M97.8222 95.3193C93.1135 94.2962 88.3536 97.621 87.8418 100.179L95.519 113.734C97.0544 114.501 103.964 112.711 104.988 107.596C106.011 102.48 103.708 96.5981 97.8222 95.3193Z" fill="#EEB36F"/>
<path d="M87.0732 101.87C87.3508 98.351 91.5822 94.6411 96.7863 95.1025C102.892 95.6439 106.777 102.412 105.112 107.826C103.485 113.114 97.6189 114.594 95.9538 113.781" stroke="#1C0F00" stroke-linecap="round" stroke-linejoin="round"/>
<ellipse cx="97.9462" cy="100.596" rx="0.709841" ry="0.709428" fill="#1C0F00"/>
<ellipse cx="91.7948" cy="100.596" rx="0.709841" ry="0.709428" fill="#1C0F00"/>
<ellipse cx="95.58" cy="106.271" rx="0.709841" ry="0.709428" fill="#1C0F00"/>
<ellipse cx="101.259" cy="106.271" rx="0.709841" ry="0.709428" fill="#1C0F00"/>
<path d="M137.421 108.923C137.08 112.886 131.787 113.835 129.183 113.814C122.554 113.797 119.826 110.853 119.934 108.017C120.007 106.127 121.761 103.591 126.28 103.054C130.8 102.517 137.848 103.97 137.421 108.923Z" fill="#CC8D44" stroke="#1C0F00" stroke-linecap="round" stroke-linejoin="round"/>
<path d="M131.765 108.233C130.989 107.888 127.3 107.352 125.381 107.989" stroke="#1C0F00" stroke-linecap="round" stroke-linejoin="round"/>
<path d="M112.149 84.1856C106.134 84.1856 101.124 80.8424 99.377 79.2196C102.576 74.9975 107.456 72.3618 113.101 72.3618C119.04 72.3618 124.381 75.0538 127.534 79.2196C124.572 81.7698 119.667 84.1856 112.149 84.1856Z" fill="#CC8D44" stroke="#1C0F00" stroke-linecap="round" stroke-linejoin="round"/>
<path d="M144.329 84.1856C138.314 84.1856 133.303 80.8424 131.557 79.2196C134.755 74.9975 139.636 72.3618 145.28 72.3618C151.219 72.3618 156.561 75.0538 159.714 79.2196C156.752 81.7698 151.847 84.1856 144.329 84.1856Z" fill="#CC8D44" stroke="#1C0F00" stroke-linecap="round" stroke-linejoin="round"/>
<path d="M30.7969 236.949C55.1278 191.309 63.8111 139.302 65.0686 116.819C77.7498 132.381 108.863 151.694 131.084 148.034C120.436 182.323 73.2278 226.923 30.7969 236.949Z" fill="#E10000" stroke="#1C0F00" stroke-linecap="round" stroke-linejoin="round"/>
<path d="M305.467 243.57C259.091 216.139 240.564 145.906 245.131 102.867C244.579 108.07 232.07 121.076 186.451 131.481C163.225 136.778 143.675 141.014 131.083 144.487C129.585 167.091 146.132 221.645 212.951 256.194C241.859 253.391 272.918 249.299 305.467 243.57Z" fill="#E10000" stroke="#1C0F00" stroke-linecap="round" stroke-linejoin="round"/>
<path d="M277.311 185.161C264.061 192.255 235.43 216.515 187.161 201.714C145.517 188.944 135.816 171.445 129.901 143.777C127.61 185.809 136.335 242.638 196.389 259.178C290.316 285.046 331.931 240.496 325.344 210.937C320.498 189.193 295.53 175.406 277.311 185.161Z" fill="white" stroke="#1C0F00" stroke-linecap="round" stroke-linejoin="round"/>
<path d="M49.9247 174.52C-23.5382 161.986 -9.98044 277.15 62.6599 248.537C107.175 231.002 126.114 191.073 129.972 145.669C110.261 186.58 68.5685 179.05 49.9247 174.52Z" fill="white" stroke="#1C0F00" stroke-linecap="round" stroke-linejoin="round"/>
<path d="M77.846 160.804C51.8185 158.439 38.5681 140.94 41.1708 121.549C42.8032 109.387 55.0808 98.4326 65.7786 99.3199C66.3464 100.266 67.1194 101.606 67.4349 102.158C65.8085 106.475 65.1982 109.557 64.8321 111.617C72.3783 118.048 92.0793 126.005 106.476 123.677C122.566 121.076 131.052 126.042 130.611 139.284C129.948 159.148 108.606 163.598 77.846 160.804Z" fill="white"/>
<path d="M62.7026 109.489C63.2254 110.185 63.9447 110.861 64.8321 111.617M64.8321 111.617C72.3783 118.048 92.0793 126.005 106.476 123.677C122.566 121.076 131.052 126.042 130.611 139.284C129.948 159.148 108.606 163.598 77.846 160.804C51.8185 158.439 38.5681 140.94 41.1708 121.549C42.8032 109.387 55.0808 98.4326 65.7786 99.3199C66.3464 100.266 67.1194 101.606 67.4349 102.158C65.8085 106.475 65.1982 109.557 64.8321 111.617Z" stroke="#1C0F00" stroke-linecap="round" stroke-linejoin="round"/>
<path d="M266.9 113.036C263.871 94.8742 249.864 87.2597 243.238 86.5503C245.131 90.8069 245.131 95.2999 245.131 98.6106C228.805 115.4 185.268 129.352 155.455 123.204C141.494 120.325 119.963 131.008 134.632 155.128C154.035 182.56 209.403 171.445 242.765 156.547C253.491 151.758 270.686 135.737 266.9 113.036Z" fill="white"/>
<path d="M247.497 95.7729C246.788 96.7188 246.281 97.4282 245.131 98.6106M245.131 98.6106C228.805 115.4 185.268 129.352 155.455 123.204C141.494 120.325 119.963 131.008 134.632 155.128C154.035 182.56 209.403 171.445 242.765 156.547C253.491 151.758 270.686 135.737 266.9 113.036C263.871 94.8742 249.864 87.2597 243.238 86.5503C245.131 90.8069 245.131 95.2999 245.131 98.6106Z" stroke="#1C0F00" stroke-linecap="round" stroke-linejoin="round"/>
<path d="M77.6087 238.841C98.6684 238.841 111.918 257.68 117.123 263.434L135.326 284.717C135.089 292.521 131.303 294.176 94.6282 296.305C65.2881 298.007 52.3699 291.338 51.3446 288.264C44.2462 271.475 46.8492 238.841 77.6087 238.841Z" fill="#EEB36F"/>
<path d="M117.123 263.434C111.918 257.68 98.6684 238.841 77.6087 238.841C46.8492 238.841 44.2462 271.475 51.3446 288.264C52.3699 291.338 65.2881 298.007 94.6282 296.305C131.303 294.176 135.089 292.521 135.326 284.717" stroke="#1C0F00" stroke-linecap="round" stroke-linejoin="round"/>
<path d="M218.592 1.84162L218.73 1.6926L218.629 1.86918C217.053 4.61793 217.293 8.01357 219.165 10.5017C216.232 9.45252 212.915 10.2279 210.753 12.5442L210.664 12.6399L210.728 12.5262C212.3 9.77516 212.057 6.3796 210.184 3.89185C213.117 4.94041 216.433 4.16132 218.592 1.84162Z" fill="#FFE900" stroke="#1C0F00" stroke-linejoin="round"/>
<path d="M229.949 41.6234C231.233 33.3246 224.685 30.5113 222.057 29.9994C214.518 43.4085 198.992 47.9152 194.547 47.4067L204.806 52.4418C214.69 56.2541 228.388 51.7158 229.949 41.6234Z" fill="#E10000" stroke="#1C0F00" stroke-linecap="round" stroke-linejoin="round"/>
<path d="M222.938 32.5148C222.534 27.7987 216.677 26.5505 214.091 26.9835L191.751 45.0248L197.899 49.7172C214.46 49.4458 223.442 38.4098 222.938 32.5148Z" fill="#FFE900" stroke="#1C0F00" stroke-linecap="round" stroke-linejoin="round"/>
<path d="M182.434 2.44466C189.25 2.32467 192.918 5.80799 193.197 8.405L178.774 37.9684L171.304 29.813C162.956 12.9113 173.914 2.59465 182.434 2.44466Z" fill="#E10000" stroke="#1C0F00" stroke-linecap="round" stroke-linejoin="round"/>
<path d="M178.282 36.7941C172.635 9.9248 190.611 5.30877 196.77 9.7658L185.314 40.2351L178.282 36.7941Z" fill="#FFE900" stroke="#1C0F00" stroke-linecap="round" stroke-linejoin="round"/>
<path d="M186.445 15.1381C179.405 23.6542 182.345 36.5944 183.312 40.4959L193.826 46.7092C197.289 46.4732 207.913 45.2166 213.807 38.577C222.081 28.9019 218.465 19.2207 212.242 13.2426C206.595 7.81754 194.012 5.98478 186.445 15.1381Z" fill="#E10000" stroke="#1C0F00" stroke-linecap="round" stroke-linejoin="round"/>
<path d="M205.125 52.4543C189.138 45.1481 180.663 37.7012 171.529 29.1001C169.303 30.148 168.485 32.7048 168.764 33.639C175.115 42.5573 191.642 52.7655 200.61 56.2949C203.223 55.4188 204.785 53.6534 205.125 52.4543Z" fill="#FFE900" stroke="#1C0F00" stroke-linecap="round" stroke-linejoin="round"/>
<path d="M185.978 117.479C187.57 115.818 191.898 113.76 196.467 118.822C196.459 117.404 197.173 114.353 200.093 113.495" stroke="#1C0F00" stroke-linecap="round" stroke-linejoin="round"/>
</g>
<defs>
<clipPath id="clip0_4745_1547">
<rect width="327" height="306" fill="white"/>
</clipPath>
</defs>
</svg>
