<svg width="691" height="685" viewBox="0 0 691 685" fill="none" xmlns="http://www.w3.org/2000/svg">
<g clip-path="url(#clip0_5027_3565)">
<rect x="165.553" y="393.377" width="278.662" height="222.824" fill="#1C0F00"/>
<ellipse cx="300.255" cy="655.221" rx="224.164" ry="28.7515" fill="#1C0F00"/>
<path d="M427.248 538.674C396.006 538.674 373.154 557.979 358.198 574.205L333.161 409.293C328.19 401.591 317.119 389.885 300.256 400.564C302.141 474.497 302.452 625.237 302.863 638.791C303.377 655.734 311.603 659.328 391.295 663.949C455.048 667.646 483.117 653.167 485.345 646.493C500.769 610.04 494.085 538.674 427.248 538.674Z" fill="#EEB36F"/>
<path d="M342.415 592.584C353.726 580.09 381.487 538.674 427.248 538.674C494.085 538.674 500.769 610.04 485.345 646.493C483.117 653.167 455.048 667.646 391.295 663.949C311.603 659.328 303.377 655.734 302.863 638.791C302.452 625.237 302.141 474.497 300.256 400.564C317.119 389.885 328.19 401.591 333.161 409.293L358.261 574.614" stroke="#1C0F00" stroke-width="2" stroke-linecap="round" stroke-linejoin="round"/>
<path d="M177.892 539.188C209.267 539.188 232.664 558.416 247.919 574.533L273.007 409.293C277.977 401.591 289.049 389.885 305.912 400.564C304.027 474.497 303.716 625.237 303.305 638.791C302.791 655.734 294.564 659.328 214.873 663.949C151.12 667.646 123.05 653.167 120.822 646.493C105.398 610.04 111.054 539.188 177.892 539.188Z" fill="#EEB36F"/>
<path d="M263.752 592.584C252.441 580.09 223.652 539.188 177.892 539.188C111.054 539.188 105.398 610.04 120.822 646.493C123.05 653.167 151.12 667.646 214.873 663.949C294.564 659.328 302.791 655.734 303.305 638.791C303.716 625.237 304.027 474.497 305.912 400.564C289.049 389.885 277.977 401.591 273.007 409.293L247.907 574.614" stroke="#1C0F00" stroke-width="2" stroke-linecap="round" stroke-linejoin="round"/>
<path d="M275.803 72.3884C267.529 69.1176 245.187 67.3271 228.224 80.1352C216.434 89.5108 211.086 100.402 209.019 110.09C195.596 112.844 166.163 131.264 174.99 171.123C166.534 175.112 156.945 182.68 151.681 195.822C143.406 216.48 150.991 235.417 155.819 242.303C140.51 282.38 160.035 304.105 171.711 309.958C172.02 320.171 174.763 331.375 182.196 341.462C191.235 353.73 202.428 358.79 212.192 360.293C215.916 390.04 245.29 397.239 259.576 394.657C265.734 402.503 274.804 409.709 286.665 412.733C316.233 420.272 332.177 411.356 336.314 406.535C338.9 410.495 348.209 418.621 364.759 419.447C384.619 420.273 394.659 411.184 397.197 406.535C408.569 411.633 423.674 414.046 438.715 406.535C451.242 400.281 458.281 391.353 462.16 382.736C498.983 377.778 505.603 348.794 504.397 334.9C513.569 331.345 523.66 324.668 529.221 313.057C538.323 294.051 533.014 273.462 529.221 265.543C533.875 260.895 542.46 249.326 541.633 227.842C540.806 206.357 531.462 198.185 526.118 194.46C528.891 186.047 530.698 175.382 528.187 165.351C524.049 148.824 509.513 141.249 502.763 139.528C501.918 130.604 498.844 120.408 490.95 109.057C480.607 94.1831 460.437 88.0545 451.645 86.8494C441.715 62.0596 417.166 61.5145 406.133 64.3408C400.59 58.5364 392.125 52.7063 379.757 49.1477C362.773 44.2608 348.393 50.0506 339.125 56.895C333.78 52.9355 320.591 45.8425 303.214 49.1478C285.837 52.4532 277.355 66.191 275.803 72.3884Z" fill="#EEB36F"/>
<path d="M209.088 131.264C207.948 126.468 207.17 118.76 209.019 110.09M339.125 56.895C333.78 52.9355 320.591 45.8425 303.214 49.1478C285.837 52.4532 277.355 66.191 275.803 72.3884C267.529 69.1176 245.187 67.3271 228.224 80.1352C216.434 89.5108 211.086 100.402 209.019 110.09M339.125 56.895C348.393 50.0506 362.773 44.2608 379.757 49.1477C392.125 52.7063 400.59 58.5364 406.133 64.3408M339.125 56.895C335.072 59.888 331.996 63.0826 330.108 65.6744M414.925 79.1023C414.159 75.6201 411.531 69.9927 406.133 64.3408M406.133 64.3408C417.166 61.5145 441.715 62.0596 451.645 86.8494C460.437 88.0545 480.607 94.1831 490.95 109.057C498.844 120.408 501.918 130.604 502.763 139.528M502.328 155.022C502.932 150.395 503.301 145.221 502.763 139.528M502.763 139.528C509.513 141.249 524.049 148.824 528.187 165.351C530.698 175.382 528.891 186.047 526.118 194.46M520.429 207.184C522.123 204.41 524.323 199.907 526.118 194.46M526.118 194.46C531.462 198.185 540.806 206.357 541.633 227.842C542.46 249.326 533.875 260.895 529.221 265.543C533.014 273.462 538.323 294.051 529.221 313.057C523.66 324.668 513.569 331.345 504.397 334.9M489.399 338.363C493.087 338.162 498.556 337.164 504.397 334.9M504.397 334.9C505.603 348.794 498.983 377.778 462.16 382.736M462.16 382.736C458.281 391.353 451.242 400.281 438.715 406.535C423.674 414.046 408.569 411.633 397.197 406.535M462.16 382.736C465.967 374.277 466.728 366.119 466.643 361.087M380.792 395.173C383.984 398.769 389.801 403.22 397.197 406.535M397.197 406.535C394.659 411.184 384.619 420.273 364.759 419.447C348.209 418.621 338.9 410.495 336.314 406.535C332.177 411.356 316.233 420.272 286.665 412.733C274.804 409.709 265.734 402.503 259.576 394.657M249.946 371.933C249.858 377.486 253.114 386.424 259.576 394.657M259.576 394.657C245.29 397.239 215.916 390.04 212.192 360.293M212.192 360.293C202.428 358.79 191.235 353.73 182.196 341.462C174.763 331.375 172.02 320.171 171.711 309.958M212.192 360.293C219.856 361.472 226.64 360.46 230.809 359.022M177.024 281.553C174.327 287.403 171.35 298 171.711 309.958M209.019 110.09C195.596 112.844 166.163 131.264 174.99 171.123M174.99 171.123C166.534 175.112 156.945 182.68 151.681 195.822C143.406 216.48 150.991 235.417 155.819 242.303C140.51 282.38 160.035 304.105 171.711 309.958M174.99 171.123C179.827 168.841 184.293 167.73 187.367 167.417" stroke="#1C0F00" stroke-width="2" stroke-linecap="round" stroke-linejoin="round"/>
<path d="M452.168 283.775C452.826 293.897 440.466 312.65 422.011 308.109M408.764 301.187C413.434 304.904 417.876 307.091 422.011 308.109M422.011 308.109C419.495 312.789 411.801 320.36 401.16 313.197" stroke="#1C0F00" stroke-width="2" stroke-linecap="round" stroke-linejoin="round"/>
<path d="M220.184 299.184C227.33 300.455 237.712 312.13 228.021 325.132" stroke="#1C0F00" stroke-width="2" stroke-linecap="round" stroke-linejoin="round"/>
<path d="M511.898 240.005C505.94 244.145 492.069 245.028 489.736 228.988" stroke="#1C0F00" stroke-width="2" stroke-linecap="round" stroke-linejoin="round"/>
<path d="M409.411 166.837C415.795 161.292 431.542 161.207 439.592 173.517M444.01 185.759C443.258 180.758 441.685 176.718 439.592 173.517M439.592 173.517C442.858 169.731 451.665 163.207 460.762 167.391" stroke="#1C0F00" stroke-width="2" stroke-linecap="round" stroke-linejoin="round"/>
<path d="M281.608 318.865C289.208 322.937 308.299 327.528 323.869 313.312" stroke="#1C0F00" stroke-width="2" stroke-linecap="round" stroke-linejoin="round"/>
<path d="M333.192 157.177C336.248 158.559 337.974 159.94 338.781 161.157C339.175 161.752 339.34 162.292 339.357 162.776C339.374 163.259 339.246 163.751 338.953 164.255C338.351 165.292 337.073 166.34 335.162 167.234C333.272 168.118 330.864 168.804 328.151 169.179C322.437 169.97 316.608 169.462 312.245 168.085C310.06 167.396 308.299 166.507 307.105 165.504C305.914 164.503 305.369 163.467 305.369 162.445C305.369 160.511 306.421 158.99 308.341 157.804C310.288 156.602 313.037 155.816 316.123 155.422C322.314 154.633 329.423 155.473 333.192 157.177Z" fill="#6C3712" stroke="#1C0F00" stroke-width="2" stroke-linejoin="round"/>
<path d="M241.605 165.449C240.282 164.332 239.611 163.117 239.56 161.864C239.567 160.82 240.271 158.983 242.878 157.468C245.508 155.941 250.059 154.767 257.582 155.224C262.259 155.508 265.768 156.443 268.205 157.677C270.653 158.917 271.932 160.408 272.354 161.771C272.761 163.085 272.433 164.472 271.23 165.737C270.003 167.028 267.862 168.175 264.753 168.788C258.418 170.035 252.046 169.688 247.268 168.26C244.878 167.545 242.939 166.576 241.605 165.449Z" fill="#6C3712" stroke="#1C0F00" stroke-width="2" stroke-linejoin="round"/>
<path d="M313.302 369.323C316.763 365.716 326.166 361.248 336.093 372.238C336.076 369.159 337.628 362.535 343.972 360.673" stroke="#1C0F00" stroke-width="2" stroke-linecap="round" stroke-linejoin="round"/>
<path d="M256.875 131.311C254.836 128.319 248.222 124.194 238.08 131.632C246.532 125.433 249.926 103.646 230.332 98.8641" stroke="#1C0F00" stroke-width="2" stroke-linecap="round" stroke-linejoin="round"/>
<path d="M313.803 99.7595C323.112 94.5948 345.351 94.5953 349.898 114.737M350.005 124.033C350.522 121.967 350.324 116.627 349.898 114.737M349.898 114.737C358.28 111.122 373.795 116.803 372.244 133.846" stroke="#1C0F00" stroke-width="2" stroke-linecap="round" stroke-linejoin="round"/>
<path d="M216.938 216.692C216.938 237.913 234.165 255.118 255.418 255.118C276.671 255.118 294.454 237.357 294.454 216.137C294.454 194.917 277.227 177.712 255.974 177.712C233.196 177.712 216.938 195.446 216.938 216.692Z" fill="#FFF3E1" stroke="#1C0F00" stroke-width="2" stroke-linejoin="round"/>
<path d="M364.573 216.692C364.573 237.913 347.346 255.118 326.093 255.118C304.84 255.118 287.057 237.357 287.057 216.137C287.057 194.917 304.283 177.712 325.537 177.712C348.315 177.712 364.573 195.446 364.573 216.692Z" fill="#FFF3E1" stroke="#1C0F00" stroke-width="2" stroke-linejoin="round"/>
<ellipse cx="316.916" cy="214.914" rx="30.0272" ry="29.9853" fill="#1C0F00"/>
<ellipse cx="246.796" cy="214.914" rx="30.0272" ry="29.9853" fill="#1C0F00"/>
<ellipse cx="337.984" cy="203.925" rx="10.7969" ry="10.7818" fill="#FFF3E1"/>
<ellipse cx="267.865" cy="203.925" rx="10.7969" ry="10.7818" fill="#FFF3E1"/>
<path d="M370.615 226.659C384.405 227.992 390.448 236.469 391.745 240.541L367.835 269.971C364.499 269.971 352.821 268.861 347.816 256.644C342.812 244.428 353.377 224.993 370.615 226.659Z" fill="#EEB36F"/>
<path d="M391.747 240.541C390.636 235.544 383.963 227.447 370.062 226.103C352.824 224.437 342.813 243.873 347.818 256.089C352.822 268.305 364.501 269.971 367.837 269.971" stroke="#1C0F00" stroke-width="2" stroke-linecap="round" stroke-linejoin="round"/>
<ellipse cx="375.077" cy="235.088" rx="1.54241" ry="1.54026" fill="#1C0F00"/>
<ellipse cx="357.597" cy="244.329" rx="1.54241" ry="1.54026" fill="#1C0F00"/>
<ellipse cx="367.879" cy="247.409" rx="1.54241" ry="1.54026" fill="#1C0F00"/>
<ellipse cx="382.275" cy="244.329" rx="1.54241" ry="1.54026" fill="#1C0F00"/>
<path d="M221.811 227.584C211.58 225.363 201.237 232.582 200.125 238.135L216.807 267.564C220.143 269.23 235.157 265.343 237.381 254.238C239.605 243.132 234.601 230.361 221.811 227.584Z" fill="#EEB36F"/>
<path d="M198.456 241.808C199.059 234.167 208.254 226.112 219.562 227.114C232.828 228.29 241.27 242.983 237.652 254.738C234.118 266.22 221.371 269.432 217.753 267.668" stroke="#1C0F00" stroke-width="2" stroke-linecap="round" stroke-linejoin="round"/>
<ellipse cx="222.081" cy="239.042" rx="1.54241" ry="1.54026" fill="#1C0F00"/>
<ellipse cx="208.714" cy="239.042" rx="1.54241" ry="1.54026" fill="#1C0F00"/>
<ellipse cx="216.941" cy="251.364" rx="1.54241" ry="1.54026" fill="#1C0F00"/>
<ellipse cx="229.28" cy="251.364" rx="1.54241" ry="1.54026" fill="#1C0F00"/>
<path d="M307.858 257.12C307.117 265.723 295.616 267.784 289.958 267.739C275.553 267.702 269.624 261.31 269.86 255.153C270.018 251.049 273.83 245.543 283.65 244.377C293.471 243.211 308.785 246.365 307.858 257.12Z" fill="#CC8D44" stroke="#1C0F00" stroke-width="2" stroke-linecap="round" stroke-linejoin="round"/>
<path d="M295.569 255.623C293.882 254.874 285.866 253.711 281.697 255.093" stroke="#1C0F00" stroke-width="2" stroke-linecap="round" stroke-linejoin="round"/>
<path d="M252.944 203.412C239.876 203.412 228.988 196.154 225.192 192.63C232.143 183.464 242.748 177.741 255.012 177.741C267.917 177.741 279.523 183.586 286.375 192.63C279.939 198.167 269.281 203.412 252.944 203.412Z" fill="#CC8D44" stroke="#1C0F00" stroke-width="2" stroke-linecap="round" stroke-linejoin="round"/>
<path d="M322.867 203.412C309.798 203.412 298.91 196.154 295.115 192.63C302.066 183.464 312.671 177.741 324.935 177.741C337.84 177.741 349.446 183.586 356.298 192.63C349.862 198.167 339.203 203.412 322.867 203.412Z" fill="#CC8D44" stroke="#1C0F00" stroke-width="2" stroke-linecap="round" stroke-linejoin="round"/>
<path d="M76.1729 535.081C129.041 435.991 147.909 323.076 150.642 274.264C178.197 308.05 245.802 349.982 294.086 342.035C270.949 416.481 168.371 513.312 76.1729 535.081Z" fill="#E10000" stroke="#1C0F00" stroke-width="2" stroke-linecap="round" stroke-linejoin="round"/>
<path d="M673.005 549.458C572.234 489.901 531.976 337.415 541.9 243.973C540.701 255.268 513.52 283.506 414.394 306.097C363.927 317.598 321.448 326.795 294.087 334.335C290.831 383.411 326.786 501.856 471.978 576.864C534.791 570.78 602.278 561.895 673.005 549.458Z" fill="#E10000" stroke="#1C0F00" stroke-width="2" stroke-linecap="round" stroke-linejoin="round"/>
<path d="M578.918 435.99C551.901 454.322 515.165 498.628 413.365 463.202C323.986 432.098 304.368 392.863 291.515 332.793C286.536 424.05 303.854 542.782 430.846 585.396C631.52 652.735 707.452 547.916 685.344 476.551C671.03 430.346 619.02 408.779 578.918 435.99Z" fill="white" stroke="#1C0F00" stroke-width="2" stroke-linecap="round" stroke-linejoin="round"/>
<path d="M117.737 399.539C-50.8997 364.626 -30.8484 625.444 145.41 560.239C242.903 524.173 283.289 435.478 291.672 336.901C248.842 425.723 158.249 409.375 117.737 399.539Z" fill="white" stroke="#1C0F00" stroke-width="2" stroke-linecap="round" stroke-linejoin="round"/>
<path d="M178.405 369.761C121.85 364.627 93.0583 326.634 98.7138 284.533C102.261 258.129 128.939 234.345 152.184 236.271C153.418 238.325 155.097 241.235 155.783 242.433C152.249 251.806 150.923 258.498 150.127 262.97C166.524 276.932 209.333 294.207 240.615 289.154C275.577 283.506 294.017 294.288 293.057 323.04C291.618 366.167 245.243 375.829 178.405 369.761Z" fill="white"/>
<path d="M145.5 258.349C146.636 259.861 148.199 261.328 150.127 262.97M150.127 262.97C166.524 276.932 209.333 294.207 240.615 289.154C275.577 283.506 294.017 294.288 293.057 323.04C291.618 366.167 245.243 375.829 178.405 369.761C121.85 364.627 93.0583 326.634 98.7138 284.533C102.261 258.129 128.939 234.345 152.184 236.271C153.418 238.325 155.097 241.235 155.783 242.433C152.249 251.806 150.923 258.498 150.127 262.97Z" stroke="#1C0F00" stroke-width="2" stroke-linecap="round" stroke-linejoin="round"/>
<path d="M589.201 266.049C582.62 226.618 552.183 210.086 537.787 208.546C541.9 217.787 541.9 227.542 541.9 234.73C506.425 271.183 411.824 301.475 347.042 288.126C316.708 281.875 269.922 305.069 301.798 357.438C343.957 416.994 464.266 392.864 536.759 360.518C560.065 350.12 597.427 315.337 589.201 266.049Z" fill="white"/>
<path d="M547.042 228.569C545.499 230.623 544.399 232.163 541.9 234.73M541.9 234.73C506.425 271.183 411.824 301.475 347.042 288.126C316.708 281.875 269.922 305.069 301.798 357.438C343.957 416.994 464.266 392.864 536.759 360.518C560.065 350.12 597.427 315.337 589.201 266.049C582.62 226.618 552.183 210.086 537.787 208.546C541.9 217.787 541.9 227.542 541.9 234.73Z" stroke="#1C0F00" stroke-width="2" stroke-linecap="round" stroke-linejoin="round"/>
<path d="M177.892 539.188C223.652 539.188 252.441 580.091 263.752 592.584L303.305 638.792C302.791 655.735 294.564 659.329 214.873 663.95C151.12 667.646 123.05 653.168 120.822 646.493C105.398 610.04 111.054 539.188 177.892 539.188Z" fill="#EEB36F"/>
<path d="M263.752 592.584C252.441 580.091 223.652 539.188 177.892 539.188C111.054 539.188 105.398 610.04 120.822 646.493C123.05 653.168 151.12 667.646 214.873 663.95C294.564 659.329 302.791 655.735 303.305 638.792" stroke="#1C0F00" stroke-width="2" stroke-linecap="round" stroke-linejoin="round"/>
<path d="M484.173 24.5723L484.984 23.7021L484.392 24.7333C480.934 30.759 481.517 38.2228 485.728 43.6171C479.321 41.2008 472.008 42.8517 467.264 47.9293L466.566 48.6756L467.073 47.7892C470.521 41.7584 469.93 34.2948 465.718 28.9012C472.126 31.3164 479.437 29.6575 484.173 24.5723Z" fill="#FFE900" stroke="#1C0F00" stroke-width="2" stroke-linejoin="round"/>
<path d="M508.914 111.005C511.704 92.9871 497.477 86.8792 491.765 85.7677C475.384 114.881 441.647 124.665 431.99 123.561L454.28 134.493C475.758 142.77 505.522 132.917 508.914 111.005Z" fill="#E10000" stroke="#1C0F00" stroke-width="2" stroke-linecap="round" stroke-linejoin="round"/>
<path d="M493.677 91.2272C492.8 80.988 480.073 78.2781 474.455 79.2182L425.911 118.388L439.271 128.576C475.256 127.987 494.774 104.026 493.677 91.2272Z" fill="#FFE900" stroke="#1C0F00" stroke-width="2" stroke-linecap="round" stroke-linejoin="round"/>
<path d="M405.668 25.9419C420.479 25.6814 428.45 33.2441 429.056 38.8826L397.716 103.069L381.484 85.3621C363.346 48.6664 387.155 26.2675 405.668 25.9419Z" fill="#E10000" stroke="#1C0F00" stroke-width="2" stroke-linecap="round" stroke-linejoin="round"/>
<path d="M396.645 100.518C384.375 42.1817 423.436 32.1597 436.818 41.8365L411.926 107.989L396.645 100.518Z" fill="#FFE900" stroke="#1C0F00" stroke-width="2" stroke-linecap="round" stroke-linejoin="round"/>
<path d="M414.385 53.4999C399.087 71.9894 405.474 100.084 407.575 108.555L430.422 122.045C437.947 121.532 461.032 118.804 473.839 104.389C491.817 83.3827 483.959 62.3637 470.438 49.3845C458.168 37.6059 430.827 33.6268 414.385 53.4999Z" fill="#E10000" stroke="#1C0F00" stroke-width="2" stroke-linecap="round" stroke-linejoin="round"/>
<path d="M454.973 134.52C420.234 118.657 401.819 102.489 381.972 83.8146C377.135 86.0898 375.357 91.6409 375.964 93.6692C389.764 113.032 425.674 135.195 445.161 142.858C450.839 140.956 454.234 137.123 454.973 134.52Z" fill="#FFE900" stroke="#1C0F00" stroke-width="2" stroke-linecap="round" stroke-linejoin="round"/>
<path d="M413.366 275.698C416.827 272.091 426.23 267.623 436.158 278.613C436.14 275.534 437.692 268.91 444.037 267.048" stroke="#1C0F00" stroke-width="2" stroke-linecap="round" stroke-linejoin="round"/>
</g>
<defs>
<clipPath id="clip0_5027_3565">
<rect width="691" height="685" fill="white"/>
</clipPath>
</defs>
</svg>
