<svg width="590" height="685" viewBox="0 0 590 685" fill="none" xmlns="http://www.w3.org/2000/svg">
<g clip-path="url(#clip0_5027_3473)">
<ellipse cx="284.563" cy="663.724" rx="255.331" ry="20.82" fill="#1C0F00"/>
<path d="M238.36 514.188C204.253 431.115 232.586 371.752 248.646 351.843C250.89 336.602 262.585 315.263 291.412 351.843C273.186 370.485 250.809 407.768 274.63 488.669C293.313 552.12 335.803 616.264 355.294 629.295L266.051 643.263L238.36 514.188Z" fill="white"/>
<path d="M238.36 514.188C204.253 431.115 232.586 371.752 248.646 351.843C250.89 336.602 262.585 315.263 291.412 351.843C273.186 370.485 250.809 407.768 274.63 488.669C293.313 552.12 335.803 616.264 355.294 629.295L266.051 643.263L238.36 514.188Z" stroke="#1C0F00" stroke-width="2" stroke-linecap="round" stroke-linejoin="round"/>
<path d="M265.159 440.047C243.565 447.717 226.331 444.565 222.541 442.574C223.185 463.64 227.722 487.589 238.533 513.92L260.691 637.179L355.467 629.027C335.976 615.996 293.486 551.852 274.803 488.401C269.432 470.161 266.41 454.139 265.159 440.047Z" fill="#8BE3FF"/>
<path d="M223.375 453.651C227.165 455.642 241.889 457.343 266.142 450.394" stroke="#1C0F00" stroke-width="2" stroke-linejoin="round"/>
<path d="M265.159 440.047C243.565 447.717 226.331 444.565 222.541 442.574C223.185 463.64 227.722 487.589 238.533 513.92L260.691 637.179L355.467 629.027C335.976 615.996 293.486 551.852 274.803 488.401C269.432 470.161 266.41 454.139 265.159 440.047Z" stroke="#1C0F00" stroke-width="2" stroke-linejoin="round"/>
<path d="M86.6606 337.733C83.703 307.666 98.7785 269.789 106.686 254.608C92.3128 211.819 71.0871 239.608 62.2709 258.851C56.904 278.907 47.4866 324.052 55.5023 351.58C65.3036 385.24 89.6488 396.577 115.362 392.421C144.475 387.715 168.785 356.764 173.137 307.306C174.438 262.923 158.331 261.337 153.236 260.006C150.857 296.223 150.414 308.043 140.688 331.349C126.511 365.322 90.3576 375.316 86.6606 337.733Z" fill="white" stroke="#1C0F00" stroke-width="2" stroke-linecap="round" stroke-linejoin="round"/>
<path d="M331.774 514.188C297.667 431.115 326 371.752 342.06 351.843C344.304 336.602 355.999 315.263 384.826 351.843C366.6 370.485 344.223 407.768 368.044 488.669C386.727 552.12 429.217 616.264 448.708 629.295L359.465 643.263L331.774 514.188Z" fill="white"/>
<path d="M331.774 514.188C297.667 431.115 326 371.752 342.06 351.843C344.304 336.602 355.999 315.263 384.826 351.843C366.6 370.485 344.223 407.768 368.044 488.669C386.727 552.12 429.217 616.264 448.708 629.295L359.465 643.263L331.774 514.188Z" stroke="#1C0F00" stroke-width="2" stroke-linecap="round" stroke-linejoin="round"/>
<path d="M358.573 440.047C336.979 447.717 319.745 444.565 315.955 442.574C316.599 463.64 321.136 487.589 331.947 513.92L354.105 637.179L448.881 629.027C429.39 615.996 386.9 551.852 368.217 488.401C362.846 470.161 359.824 454.139 358.573 440.047Z" fill="#8BE3FF"/>
<path d="M316.789 453.651C320.579 455.642 335.304 457.343 359.556 450.394" stroke="#1C0F00" stroke-width="2" stroke-linejoin="round"/>
<path d="M358.573 440.047C336.979 447.717 319.745 444.565 315.955 442.574C316.599 463.64 321.136 487.589 331.947 513.92L354.105 637.179L448.881 629.027C429.39 615.996 386.9 551.852 368.217 488.401C362.846 470.161 359.824 454.139 358.573 440.047Z" stroke="#1C0F00" stroke-width="2" stroke-linejoin="round"/>
<path d="M152.369 320.357V155.66L488.889 155.08V326.157C488.889 358.825 413.556 380.089 320.629 380.089C227.702 380.089 152.369 353.026 152.369 320.357Z" fill="#274123" stroke="#1C0F00" stroke-width="2" stroke-linecap="round" stroke-linejoin="round"/>
<path d="M400.811 374.328L403.717 189.84L414.76 176.538L444.404 200.25L443.241 364.496C436.848 366.231 413.017 373.749 400.811 374.328Z" fill="#31562B"/>
<path d="M208.896 191.755C207.642 205.471 183.189 217.325 162.498 206.726C146.563 198.564 145.604 177.768 150.253 168.1C138.996 171.323 120.382 168.807 115.404 149.833C109.023 125.508 132.402 101.572 158.317 110.602C155.075 94.1125 168.134 79.9888 186.324 79.5368C195.758 79.4077 205.202 86.1617 207.919 90.8038C204.139 80.9153 203.146 60.4163 226.228 51.0972C250.286 41.384 275.504 55.0791 274.733 75.788C282.929 55.5597 297.932 55.0791 305.576 55.0791C326.268 55.0791 337.972 69.0039 339.435 75.6542C340.062 64.432 348.84 50.7149 370.785 51.9618C382.804 52.6447 392.612 61.4476 394.675 68.7687C401.287 57.5907 416.94 48.3883 438.384 57.0919C461.181 66.3447 461.108 88.4696 456.475 98.0957C459.435 93.9348 466.259 89.0696 475.378 90.1364C494.816 92.6303 499.832 107.593 499.832 115.075C499.832 122.557 497.163 126.012 495.491 127.675C505.873 125.104 521.909 129.138 525.54 144.379C531.009 167.341 509.385 183.276 489.78 174.018C488.3 197.075 461.06 200.982 450.737 192.752C452.063 203.454 442.098 214.832 427.098 214.832C413.053 214.832 407.92 204.232 406.407 195.504C412.677 231.666 367.532 234.783 354.991 221.066C350.015 215.623 348.227 208.932 348.021 202.758C317.701 227.293 277.709 220.106 270.344 204.848C266.164 210.251 252.075 217.14 233.35 215.447C212.657 213.577 210.15 199.86 208.896 191.755Z" fill="white"/>
<path d="M495.491 127.675C497.163 126.012 499.832 122.557 499.832 115.075C499.832 107.593 494.816 92.6303 475.378 90.1364C466.259 89.0696 459.435 93.9348 456.475 98.0957C461.108 88.4696 461.181 66.3447 438.384 57.0919C416.94 48.3883 401.287 57.5907 394.675 68.7687M495.491 127.675C492.963 128.301 490.769 129.319 489.173 130.662M495.491 127.675C505.873 125.104 521.909 129.138 525.54 144.379C531.009 167.341 509.385 183.276 489.78 174.018M391.985 88.2572C390.303 83.6581 391.339 74.4072 394.675 68.7687M268.264 90.8038C272.934 88.0525 274.57 80.1514 274.733 75.788M477.887 156.224C477.887 164.036 482.867 170.753 489.78 174.018M350.602 187.399C349.233 190.75 347.811 196.487 348.021 202.758M449.044 187.399C449.957 189.124 450.511 190.928 450.737 192.752M174.41 128.783C173.222 125.191 169.874 114.629 158.317 110.602M156.161 165.42C154.642 166.499 152.609 167.425 150.253 168.1M450.737 192.752C452.063 203.454 442.098 214.832 427.098 214.832C413.053 214.832 407.92 204.232 406.407 195.504C412.677 231.666 367.532 234.783 354.991 221.066C350.015 215.623 348.227 208.932 348.021 202.758M450.737 192.752C461.06 200.982 488.3 197.075 489.78 174.018M394.675 68.7687C392.612 61.4476 382.804 52.6447 370.785 51.9618C348.84 50.7149 340.062 64.432 339.435 75.6542C337.972 69.0039 326.268 55.0791 305.576 55.0791C297.932 55.0791 282.929 55.5597 274.733 75.788M274.733 75.788C275.504 55.0791 250.286 41.384 226.228 51.0972C203.146 60.4163 204.139 80.9153 207.919 90.8038C205.202 86.1617 195.758 79.4077 186.324 79.5368C168.134 79.9888 155.075 94.1125 158.317 110.602M158.317 110.602C132.402 101.572 109.023 125.508 115.404 149.833C120.382 168.807 138.996 171.323 150.253 168.1M150.253 168.1C145.604 177.768 146.563 198.564 162.498 206.726C183.189 217.325 207.642 205.471 208.896 191.755C210.15 199.86 212.657 213.577 233.35 215.447C252.075 217.14 266.164 210.251 270.344 204.848C277.709 220.106 317.701 227.293 348.021 202.758" stroke="#1C0F00" stroke-width="2" stroke-linecap="round" stroke-linejoin="round"/>
<path d="M190.374 245.628C190.374 248.766 190.705 251.826 191.334 254.774C195.523 274.426 212.936 289.159 233.775 289.159C237.115 289.159 240.379 288.769 243.523 288.032C262.95 283.476 277.801 265.686 277.801 245C277.801 220.956 258.367 201.469 234.4 201.469C208.716 201.469 190.374 221.557 190.374 245.628Z" fill="white" stroke="#1C0F00" stroke-width="2" stroke-linejoin="round"/>
<path d="M274.452 236.848C274.452 256.11 258.883 271.723 239.681 271.723C220.479 271.723 204.91 256.11 204.91 236.848C204.91 217.585 220.479 201.973 239.681 201.973C258.883 201.973 274.452 217.585 274.452 236.848Z" fill="#1C0F00" stroke="#1C0F00"/>
<ellipse cx="215.394" cy="250.769" rx="12.1425" ry="12.1783" fill="white"/>
<path d="M353.188 245.63C353.188 248.768 352.857 251.828 352.229 254.776C348.04 274.428 330.626 289.161 309.788 289.161C306.447 289.161 303.184 288.771 300.04 288.034C280.613 283.478 265.762 265.688 265.762 245.002C265.762 220.958 285.196 201.471 309.162 201.471C334.847 201.471 353.188 221.559 353.188 245.63Z" fill="white" stroke="#1C0F00" stroke-width="2" stroke-linejoin="round"/>
<path d="M336.895 236.852C336.895 256.114 321.327 271.727 302.124 271.727C282.922 271.727 267.354 256.114 267.354 236.852C267.354 217.589 282.922 201.977 302.124 201.977C321.327 201.977 336.895 217.589 336.895 236.852Z" fill="#1C0F00" stroke="#1C0F00"/>
<ellipse cx="326.408" cy="250.769" rx="12.1425" ry="12.1783" fill="white"/>
<path d="M318.545 280.093C334.707 282.599 337.967 294.097 338.405 298.367L324.373 320.534C319.7 321.928 306.549 322.718 299.714 313.92C288.611 299.63 299.549 277.147 318.545 280.093Z" fill="#274123"/>
<path d="M337.972 297.162C337.394 292.909 334.548 282.317 318.313 280.344C299.231 278.025 288.245 300.062 299.81 313.98C306.929 322.548 320.047 321.325 324.672 319.779" stroke="#1C0F00" stroke-width="2" stroke-linecap="round" stroke-linejoin="round"/>
<ellipse cx="309.061" cy="291.366" rx="1.73464" ry="1.73976" fill="#1C0F00"/>
<ellipse cx="303.28" cy="302.962" rx="1.73464" ry="1.73976" fill="#1C0F00"/>
<ellipse cx="317.155" cy="286.725" rx="1.73464" ry="1.73976" fill="#1C0F00"/>
<ellipse cx="326.408" cy="296.004" rx="1.73464" ry="1.73976" fill="#1C0F00"/>
<path d="M220.25 274.295C236.412 276.801 239.672 288.299 240.111 292.569L226.079 314.736C221.405 316.13 208.254 316.921 201.419 308.123C190.316 293.832 201.254 271.349 220.25 274.295Z" fill="#274123"/>
<path d="M240.111 292.569C239.672 288.299 236.412 276.801 220.25 274.295C201.254 271.349 190.316 293.832 201.419 308.123C208.254 316.921 221.405 316.13 226.079 314.736" stroke="#1C0F00" stroke-width="2" stroke-linecap="round" stroke-linejoin="round"/>
<ellipse cx="213.889" cy="288.211" rx="1.73464" ry="1.73976" fill="#1C0F00"/>
<ellipse cx="203.481" cy="296.333" rx="1.73464" ry="1.73976" fill="#1C0F00"/>
<ellipse cx="230.078" cy="290.533" rx="1.73464" ry="1.73976" fill="#1C0F00"/>
<ellipse cx="217.36" cy="281.255" rx="1.73464" ry="1.73976" fill="#1C0F00"/>
<path d="M306.89 170.948C298.859 167.397 290.944 169.787 288.492 171.429C286.509 172.757 284.055 175.016 285.112 177.751C287.449 183.796 294.724 181.802 301.765 183.513C308.806 185.224 312.001 192.049 316.355 188.963C320.709 185.878 316.928 175.388 306.89 170.948Z" fill="#274123" stroke="#1C0F00" stroke-width="2" stroke-linecap="round" stroke-linejoin="round"/>
<path d="M239.343 168.724C230.709 170.302 225.494 176.735 224.383 179.474C223.484 181.689 222.716 184.94 225.121 186.609C230.437 190.298 235.344 184.554 242.13 182.008C248.915 179.463 255.377 183.314 257.256 178.311C259.551 172.195 250.136 166.75 239.343 168.724Z" fill="#274123" stroke="#1C0F00" stroke-width="2" stroke-linecap="round" stroke-linejoin="round"/>
<path d="M514.133 329.089C521.308 312.643 519.754 274.205 490.723 255.453C471.541 243.063 453.377 246.503 444.804 250.665C436.034 254.922 431.202 263.591 428.69 269.065C416.71 259.269 398.289 254.906 379.045 263.747C345.325 279.238 354.914 324.506 369.318 338.283C361.966 341.762 349.231 358.925 358.693 379.585C364.3 391.83 374.258 397.663 385.249 398.978C385.29 413.518 399.128 439.501 442.038 436.014C495.676 431.655 513.937 393.036 513.017 372.987L514.133 329.089Z" fill="white"/>
<path d="M514.133 329.089C521.308 312.643 519.754 274.205 490.723 255.453C471.541 243.063 453.377 246.503 444.804 250.665C436.034 254.922 431.202 263.591 428.69 269.065M428.69 269.065C416.71 259.269 398.289 254.906 379.045 263.747C345.325 279.238 354.914 324.506 369.318 338.283M428.69 269.065C437.704 276.434 443.071 286.878 442.399 297.088M412.911 346.945C402.785 349.087 380.91 349.369 369.318 338.283M369.318 338.283C361.966 341.762 349.231 358.925 358.693 379.585C364.3 391.83 374.258 397.663 385.249 398.978M442.399 297.088C457.926 293.058 464.253 284.018 465.491 278.592M442.399 297.088C436.135 298.713 428.375 299.524 418.848 298.953M385.249 398.978C385.29 413.518 399.128 439.501 442.038 436.014C495.676 431.655 514.909 392.269 513.753 371.392M385.249 398.978C397.44 400.436 410.903 396.336 421.112 389.262" stroke="#1C0F00" stroke-width="2" stroke-linecap="round" stroke-linejoin="round"/>
<path d="M586.027 305.864C569.271 369.772 511.436 372.554 485.417 372.554C478.477 352.605 482.524 334.859 485.416 328.48C511.371 332.159 555.96 328.479 555.96 281.506C555.96 244.391 517.312 233.189 489.466 231.633L488.888 205.536C556.044 207.347 596.906 246.266 586.027 305.864Z" fill="white"/>
<path d="M485.417 328.48C511.372 332.159 555.962 326.739 555.962 279.766C555.962 245.395 516.735 233.188 488.889 231.632L488.889 204.956C556.046 206.767 596.908 246.265 586.028 305.863C572.48 357.54 532.072 369.25 503.344 371.839" stroke="#1C0F00" stroke-width="2" stroke-linecap="round" stroke-linejoin="round"/>
<path d="M280.722 278.465C277.021 285.424 274.362 286.971 273.783 287.164C270.314 288.904 265.11 287.744 260.484 291.224C254.278 295.892 258.171 308.041 271.47 308.621C284.179 309.176 297.49 301.082 298.646 286.584C299.803 272.086 285.348 269.766 280.722 278.465Z" fill="#FFBAC2" stroke="#1C0F00" stroke-width="2" stroke-linecap="round" stroke-linejoin="round"/>
<path d="M271.471 298.762C276.096 298.569 286.504 296.211 288.817 286.004" stroke="#1C0F00" stroke-width="2" stroke-linecap="round" stroke-linejoin="round"/>
<path d="M247.717 510.412C288.278 541.196 285.479 601.907 266.531 619.825C255.181 631.734 221.01 629.495 205.343 626.886L152.746 527.588C157.367 505.527 203.608 476.936 247.717 510.412Z" fill="#FFBAC2"/>
<path d="M245.842 577.323C252.549 606.315 240.9 624.309 233.168 629.708L151.403 632.022C130.527 632.022 111.287 615.375 110.231 587.476C109.072 556.814 133.225 528.397 171.63 524.753C201.7 521.9 237.143 539.72 245.842 577.323Z" fill="#8BE3FF"/>
<path d="M227.16 631.975C234.892 626.533 249.954 604.984 243.248 575.761C234.549 537.858 202.289 522.764 172.149 524.753C132.708 527.355 109.233 556.306 110.393 587.212C111.38 613.534 128.551 633.221 154.505 630.526" stroke="#1C0F00" stroke-width="2" stroke-linecap="round" stroke-linejoin="round"/>
<path d="M266.531 619.825C285.478 601.907 291.31 542.961 249.793 511.452C211.705 482.546 159.493 497.685 153.266 527.874" stroke="#1C0F00" stroke-width="2" stroke-linecap="round" stroke-linejoin="round"/>
<path d="M122.71 652.364C119.482 645.573 120.629 637.459 123.632 632.137C125.775 628.339 130.371 627.289 134.732 627.289H362.07C365.196 627.289 368.49 627.672 370.772 629.809C376.616 635.283 377.548 646.103 374.434 653.31C372.518 657.744 367.343 659.04 362.512 659.04H136.716C131.118 659.04 125.113 657.419 122.71 652.364Z" fill="#FFE900" stroke="#1C0F00" stroke-width="2" stroke-linecap="round" stroke-linejoin="round"/>
<path d="M346.897 522.978C387.458 553.761 382.914 611.454 363.967 629.371C352.616 641.281 319.992 637.067 304.325 634.459L245.643 537.243C250.263 515.182 302.788 489.502 346.897 522.978Z" fill="#FFBAC2"/>
<path d="M324.005 572.637C330.712 601.629 316.221 618.961 303.766 628.33L229.426 632.02C208.55 632.02 189.31 615.373 188.254 587.474C187.094 556.812 212.947 527.541 252.39 525.271C282.544 523.535 315.306 535.033 324.005 572.637Z" fill="#8BE3FF"/>
<path d="M284.045 635.617C311.031 635.617 328.675 605.949 325.043 577.842C320.242 540.696 290.515 523.763 253.56 524.579M234.43 630.524C208.476 633.219 189.308 616.077 188.253 587.955C187.093 557.05 212.429 526.888 249.274 524.751C250.713 524.667 252.142 524.61 253.56 524.579M365.512 627.398C381.092 612.195 387.264 551.508 346.84 522.669C310.246 496.562 269.481 507.638 253.56 524.579" stroke="#1C0F00" stroke-width="2" stroke-linecap="round" stroke-linejoin="round"/>
<path d="M201.872 652.364C198.645 645.573 199.791 637.459 202.794 632.137C204.937 628.339 209.533 627.289 213.894 627.289H441.232C444.358 627.289 447.652 627.672 449.934 629.809C455.778 635.283 456.711 646.103 453.596 653.31C451.68 657.744 446.505 659.04 441.675 659.04H215.878C210.28 659.04 204.275 657.419 201.872 652.364Z" fill="#FFE900" stroke="#1C0F00" stroke-width="2" stroke-linecap="round" stroke-linejoin="round"/>
<path d="M440.792 127.421C437.159 117.012 422.628 112.848 412.251 119.094C399.316 126.88 402.391 142.516 404.467 145.118C393.566 142.516 382.667 149.803 385.783 164.897" stroke="#1C0F00" stroke-width="2" stroke-linecap="round" stroke-linejoin="round"/>
<path d="M230.751 147.447C238.068 139.214 234.655 124.449 224.178 118.373C211.117 110.8 190.862 116.681 191.899 134.377" stroke="#1C0F00" stroke-width="2" stroke-linecap="round" stroke-linejoin="round"/>
<path d="M368.616 133.438C387.278 154.23 240.407 148.326 263.753 131.358C280.515 119.175 303.472 113.985 328.341 117.539C348.236 120.382 360.251 124.118 368.616 133.438Z" fill="#FFBAC2" stroke="#1C0F00" stroke-width="2" stroke-linecap="round" stroke-linejoin="round"/>
<path d="M243.727 124.995C226.178 140.274 295.611 142.006 301.739 140.476C329.873 137.748 289.524 115.443 269.697 115.571C253.836 115.673 251.592 118.147 243.727 124.995Z" fill="#00B261" stroke="#1C0F00" stroke-width="2" stroke-linecap="round" stroke-linejoin="round"/>
<path d="M334.472 139.844C335.984 132.19 357.58 119.028 372.203 129.098C392.359 142.979 381.089 147.057 374.269 147.9C357.375 149.989 332.581 149.411 334.472 139.844Z" fill="#FFA41C" stroke="#1C0F00" stroke-width="2" stroke-linecap="round" stroke-linejoin="round"/>
<path d="M142.907 259.861C119.716 266.861 97.2424 257.307 88.9043 251.654L74.6776 252.901C37.7237 274.616 -2.22356 243.623 2.40213 202.448C4.40478 184.622 15.7914 172.288 32.6524 166.579C27.7606 157.773 15.7136 137.795 17.3916 106.238C19.4673 67.2005 64.0983 65.1185 74.9967 90.6229C84.3382 112.484 79.1484 146.316 82.2623 172.862C77.0726 85.418 107.692 65.2489 132.083 71.3646C152.841 76.5696 158.453 97.3894 148.69 119.771C142.877 133.096 132.531 150.236 130.974 158.044C134.149 157.996 137.338 158.168 140.487 158.572C156.155 160.584 170.875 168.091 177.599 183.311C193.522 219.35 175.286 252.901 142.907 259.861Z" fill="white"/>
<path d="M88.9043 251.654C97.2424 257.307 119.716 266.861 142.907 259.861C175.287 252.902 193.522 219.35 177.599 183.311C170.875 168.091 156.155 160.584 140.487 158.572C137.338 158.168 134.149 157.996 130.974 158.044M147.252 209.476C109.49 239.29 74.3053 205.275 88.2188 178.373C88.7957 177.258 89.4659 176.181 90.2215 175.144C97.8561 164.666 114.202 158.296 130.974 158.044M34.4155 204.463C44.8233 229.399 86.4546 220.121 84.7199 194.604C82.8795 167.532 55.3125 158.907 32.6524 166.579M74.6776 252.901C37.7237 274.616 -2.22356 243.623 2.40213 202.448C4.40478 184.622 15.7914 172.288 32.6524 166.579M130.974 158.044C132.531 150.236 142.877 133.096 148.69 119.771C158.453 97.3895 152.841 76.5697 132.083 71.3647C107.692 65.2489 76.7661 79.1352 81.9558 166.579C78.842 140.034 84.3382 112.484 74.9967 90.623C64.0983 65.1186 19.4673 67.2006 17.3916 106.238C15.7136 137.795 27.7606 157.773 32.6524 166.579" stroke="#1C0F00" stroke-width="2" stroke-linecap="round" stroke-linejoin="round"/>
<path d="M87.5145 236.916C86.9714 233.966 87.5144 219.739 99.0811 215.575" stroke="#1C0F00" stroke-width="2" stroke-linecap="round" stroke-linejoin="round"/>
</g>
<defs>
<clipPath id="clip0_5027_3473">
<rect width="590" height="685" fill="white"/>
</clipPath>
</defs>
</svg>
