<svg width="340" height="306" viewBox="0 0 340 306" fill="none" xmlns="http://www.w3.org/2000/svg">
<g clip-path="url(#clip0_4745_1013)">
<path d="M134.622 186.914C134.49 192.186 131.091 203.573 118.558 206.948C101.705 211.486 90.0509 188.889 100.879 184.048C110.331 179.822 115.996 194.938 109.941 209.888C103.885 224.839 81.6115 220.271 84.643 199.465" stroke="#1C0F00" stroke-linecap="round" stroke-linejoin="round"/>
<path d="M118.556 206.947C131.089 203.573 134.488 192.186 134.621 186.914C136.105 185.318 138.964 183.908 138.531 191.03C137.997 193.729 135.283 199.688 130.609 204.162C123.02 211.425 104.68 213.923 97.7531 195.981C97.606 195.619 97.4733 195.255 97.3554 194.892C97.4834 195.263 97.616 195.626 97.7531 195.981C100.572 202.933 108.669 209.61 118.556 206.947Z" fill="#E10000" stroke="#1C0F00" stroke-linecap="round" stroke-linejoin="round"/>
<path d="M94.5815 207.246C89.8132 206.711 84.8547 202.246 84.3636 201.272C80.994 205.262 76.0929 205.861 74.2489 205.884C78.4707 203.14 84.5982 189.33 86.611 181.298C87.2991 191.883 90.5206 202.423 94.5815 207.246Z" fill="#1C0F00" stroke="#1C0F00" stroke-linecap="round" stroke-linejoin="round"/>
<ellipse cx="147.476" cy="293.209" rx="99.7295" ry="12.791" fill="#1C0F00"/>
<path d="M203.973 241.36C190.074 241.36 179.907 249.948 173.254 257.166L162.114 183.8C159.903 180.374 154.977 175.166 147.475 179.917C148.314 212.808 148.452 279.87 148.635 285.9C148.864 293.437 152.524 295.036 187.978 297.092C216.341 298.737 228.829 292.295 229.821 289.326C236.683 273.109 233.709 241.36 203.973 241.36Z" fill="#E10000"/>
<path d="M166.232 265.343C171.264 259.785 183.615 241.36 203.973 241.36C233.709 241.36 236.683 273.109 229.821 289.326C228.829 292.295 216.341 298.737 187.978 297.092C152.524 295.036 148.864 293.437 148.635 285.9C148.452 279.87 148.314 212.808 147.475 179.917C154.977 175.166 159.903 180.374 162.114 183.8L173.281 257.348" stroke="#1C0F00" stroke-linecap="round" stroke-linejoin="round"/>
<path d="M93.036 241.588C106.995 241.588 117.404 250.142 124.191 257.312L135.352 183.8C137.564 180.374 142.489 175.166 149.992 179.917C149.153 212.808 149.015 279.87 148.832 285.9C148.603 293.437 144.943 295.036 109.489 297.092C81.1255 298.737 68.6373 292.295 67.6461 289.326C60.784 273.109 63.3003 241.588 93.036 241.588Z" fill="#E10000"/>
<path d="M131.235 265.343C126.203 259.785 113.395 241.588 93.036 241.588C63.3003 241.588 60.784 273.109 67.6461 289.326C68.6373 292.295 81.1255 298.737 109.489 297.092C144.943 295.036 148.603 293.437 148.832 285.9C149.015 279.87 149.153 212.808 149.992 179.917C142.489 175.166 137.564 180.374 135.352 183.8L124.186 257.348" stroke="#1C0F00" stroke-linecap="round" stroke-linejoin="round"/>
<path d="M56.0913 54.0029C37.5657 51.5493 4.78035 56.4986 1.27267 94.7142C1.96369 89.5041 5.13383 75.6868 19.8392 77.5766C30.5052 78.9473 30.5768 91.5479 29.3046 97.1569C30.1527 93.4176 32.9475 85.547 41.6087 87.1785C49.763 88.7145 52.7234 96.8232 53.3075 101.372C53.3282 101.651 53.3558 101.92 53.3895 102.176C53.3709 101.923 53.3438 101.654 53.3075 101.372C52.9322 96.329 54.7771 87.9567 62.9482 89.847C64.4566 90.196 65.7122 90.8572 66.7563 91.7388C60.1799 86.1487 53.7898 74.8424 56.0913 54.0029Z" fill="#E10000" stroke="#1C0F00" stroke-linecap="round" stroke-linejoin="round"/>
<path d="M36.9953 140.859C37.7273 128.981 45.9923 115.2 50.0334 109.795C47.1054 92.2528 37.0715 101.724 32.4206 108.653C29.0658 116.114 22.5544 133.077 23.9572 144.285C25.6726 157.99 34.4692 163.928 44.7725 163.928C56.4381 163.928 67.875 153.421 72.6785 134.463C75.9722 117.287 69.7811 115.657 67.875 114.82C64.6727 128.753 63.7577 133.321 58.4966 141.772C50.8277 154.092 36.0804 155.705 36.9953 140.859Z" fill="#E10000" stroke="#1C0F00" stroke-linecap="round" stroke-linejoin="round"/>
<path d="M14.1095 97.6058C19.3853 110.671 31.9595 109.635 37.8509 107.352L43.9181 105.508C46.8198 108.23 54.9974 113.358 64.4939 112.094C76.3646 110.513 86.3887 100.503 82.4318 85.4887C80.7607 79.1476 75.5244 75.2026 69.5312 73.4355C69.7661 68.6416 71.6308 61.3519 74.7819 53.8788C79.0026 43.869 74.8113 36.9289 67.3958 36.4933C60.5724 36.0925 51.3063 42.095 48.8895 58.5601C46.2233 54.6634 37.8293 51.6025 31.3854 61.8371C30.1286 60.3834 28.4675 58.8837 24.6613 58.8837C20.4408 58.8837 12.2629 65.2057 12.5267 77.0594C12.5893 79.873 13.4842 82.0187 14.8515 83.56C12.966 87.9051 12.2082 92.8975 14.1095 97.6058Z" fill="#E10000"/>
<path d="M37.8509 107.352C31.9595 109.635 19.3853 110.671 14.1095 97.6058C12.2082 92.8975 12.966 87.9051 14.8515 83.56M43.9181 105.508C46.8199 108.23 54.9974 113.358 64.4939 112.094C76.3646 110.513 86.3887 100.503 82.4318 85.4887C80.7607 79.1476 75.5244 75.2026 69.5312 73.4355M68.9784 93.6546C52.3595 102.874 40.7526 87.4357 47.875 77.8496C48.1703 77.4522 48.4997 77.0754 48.8598 76.7197M48.8598 76.7197C53.1879 72.4452 61.9631 71.204 69.5312 73.4355M48.8598 76.7197C48.0518 69.6104 48.1503 63.5959 48.8895 58.5601M69.5312 73.4355C69.7661 68.6416 71.6308 61.3519 74.7819 53.8788C79.0026 43.869 74.8113 36.9289 67.3958 36.4933C60.5724 36.0925 51.3063 42.095 48.8895 58.5601M45.8279 82.8545C31.5831 92.074 22.8148 75.7423 31.2561 62.0447C31.2992 61.9749 31.3423 61.9057 31.3854 61.8371M48.8895 58.5601C46.2233 54.6634 37.8293 51.6025 31.3854 61.8371M30.7283 81.8009C28.5154 87.2249 19.2448 88.5124 14.8515 83.56M31.3854 61.8371C30.1286 60.3834 28.4675 58.8837 24.6613 58.8837C20.4409 58.8837 12.2629 65.2057 12.5267 77.0594C12.5893 79.873 13.4842 82.0187 14.8515 83.56" stroke="#1C0F00" stroke-linecap="round" stroke-linejoin="round"/>
<path d="M122.872 33.9172C119.191 32.462 109.251 31.6655 101.705 37.3635C96.459 41.5346 94.0798 46.3797 93.1604 50.6899C87.1882 51.9153 74.0937 60.11 78.021 77.8421C74.2589 79.6169 69.9926 82.9839 67.6507 88.8303C63.9692 98.0208 67.344 106.445 69.4916 109.509C62.6809 127.338 71.3675 137.004 76.5622 139.608C76.6994 144.151 77.9199 149.136 81.2267 153.623C85.2484 159.081 90.2281 161.332 94.5719 162C96.2285 175.235 109.297 178.437 115.653 177.289C118.392 180.779 122.428 183.985 127.705 185.33C140.859 188.684 147.953 184.718 149.793 182.573C150.944 184.335 155.085 187.95 162.448 188.317C171.284 188.685 175.751 184.641 176.88 182.573C181.939 184.841 188.659 185.914 195.351 182.573C200.924 179.791 204.056 175.818 205.782 171.985C222.164 169.78 225.109 156.885 224.573 150.704C228.653 149.122 233.143 146.152 235.617 140.986C239.666 132.531 237.304 123.371 235.617 119.848C237.687 117.78 241.507 112.634 241.139 103.076C240.771 93.5175 236.614 89.8816 234.236 88.2244C235.47 84.4819 236.274 79.7371 235.157 75.2744C233.316 67.922 226.849 64.5522 223.846 63.7863C223.47 59.8164 222.102 55.2803 218.59 50.2304C213.988 43.6132 205.015 40.8867 201.103 40.3506C196.686 29.322 185.764 29.0796 180.856 30.3369C178.389 27.7547 174.623 25.161 169.121 23.5778C161.565 21.4037 155.167 23.9794 151.044 27.0244C148.666 25.2629 142.798 22.1074 135.067 23.5778C127.336 25.0483 123.563 31.16 122.872 33.9172Z" fill="#E10000"/>
<path d="M93.191 60.11C92.6839 57.976 92.3376 54.5471 93.1604 50.6899M151.044 27.0244C148.666 25.2629 142.798 22.1074 135.067 23.5778C127.336 25.0483 123.563 31.16 122.872 33.9172C119.191 32.462 109.251 31.6655 101.705 37.3635C96.459 41.5346 94.0798 46.3797 93.1604 50.6899M151.044 27.0244C155.167 23.9794 161.565 21.4037 169.121 23.5778C174.623 25.161 178.389 27.7547 180.856 30.3369M151.044 27.0244C149.241 28.3559 147.872 29.7772 147.032 30.9302M184.767 36.904C184.426 35.3549 183.257 32.8513 180.856 30.3369M180.856 30.3369C185.764 29.0796 196.686 29.322 201.103 40.3506C205.015 40.8867 213.988 43.6132 218.59 50.2304C222.102 55.2803 223.47 59.8164 223.846 63.7863M223.652 70.6791C223.921 68.621 224.085 66.3188 223.846 63.7863M223.846 63.7863C226.849 64.5522 233.316 67.922 235.157 75.2744C236.274 79.7371 235.47 84.4819 234.236 88.2245M231.705 93.8851C232.459 92.6509 233.438 90.6478 234.236 88.2245M234.236 88.2245C236.614 89.8816 240.771 93.5175 241.139 103.076C241.507 112.634 237.687 117.78 235.617 119.848C237.304 123.371 239.666 132.531 235.617 140.986C233.143 146.152 228.653 149.122 224.573 150.704M217.9 152.245C219.541 152.155 221.974 151.711 224.573 150.704M224.573 150.704C225.109 156.885 222.164 169.78 205.782 171.985M205.782 171.985C204.056 175.819 200.924 179.791 195.351 182.573C188.659 185.914 181.939 184.841 176.88 182.573M205.782 171.985C207.476 168.222 207.814 164.593 207.776 162.354M169.581 177.518C171.002 179.118 173.589 181.098 176.88 182.573M176.88 182.573C175.751 184.641 171.284 188.685 162.448 188.317C155.085 187.95 150.944 184.335 149.793 182.573C147.953 184.718 140.859 188.684 127.705 185.33C122.428 183.985 118.392 180.779 115.653 177.289M111.368 167.179C111.329 169.65 112.778 173.626 115.653 177.289M115.653 177.289C109.297 178.437 96.2285 175.235 94.5719 162M94.5719 162C90.2281 161.332 85.2484 159.081 81.2267 153.623C77.9199 149.136 76.6994 144.151 76.5622 139.608M94.5719 162C97.9817 162.525 101 162.075 102.855 161.435M78.9258 126.971C77.7261 129.573 76.4015 134.288 76.5622 139.608M93.1604 50.6899C87.1882 51.9153 74.0937 60.11 78.021 77.8421M78.021 77.8421C74.2589 79.6169 69.9926 82.9839 67.6507 88.8303C63.9692 98.0208 67.344 106.445 69.4916 109.509C62.6809 127.338 71.3675 137.004 76.5622 139.608M78.021 77.8421C80.1729 76.827 82.1599 76.3328 83.5274 76.1934" stroke="#1C0F00" stroke-linecap="round" stroke-linejoin="round"/>
<path d="M201.336 127.959C201.629 132.462 196.13 140.805 187.919 138.785M182.026 135.705C184.103 137.359 186.079 138.332 187.919 138.785M187.919 138.785C186.8 140.867 183.377 144.235 178.643 141.048" stroke="#1C0F00" stroke-linecap="round" stroke-linejoin="round"/>
<path d="M98.1273 134.814C101.307 135.38 105.926 140.574 101.614 146.358" stroke="#1C0F00" stroke-linecap="round" stroke-linejoin="round"/>
<path d="M227.91 108.487C225.259 110.329 219.088 110.721 218.05 103.585" stroke="#1C0F00" stroke-linecap="round" stroke-linejoin="round"/>
<path d="M192.115 85.9404C190.636 82.4836 192.751 75.8144 199.069 74.0923M204.863 73.8962C202.641 73.5312 200.713 73.6444 199.069 74.0923M199.069 74.0923C197.911 72.1942 196.347 67.5792 199.364 64.3046" stroke="#1C0F00" stroke-linecap="round" stroke-linejoin="round"/>
<path d="M125.455 143.57C128.836 145.382 137.33 147.424 144.257 141.1" stroke="#1C0F00" stroke-linecap="round" stroke-linejoin="round"/>
<path d="M143.694 71.9129C145.347 72.1303 146.375 72.5452 146.946 73.0197C147.483 73.4662 147.629 73.9721 147.513 74.5271C147.389 75.1254 146.947 75.8267 146.185 76.5457C145.431 77.2572 144.402 77.9496 143.182 78.5364C140.611 79.7729 137.785 80.3937 135.516 80.3736C134.381 80.3635 133.414 80.1931 132.696 79.8827C131.981 79.5734 131.557 79.1475 131.396 78.639C131.093 77.6839 131.361 76.7807 132.081 75.9194C132.813 75.0447 133.986 74.2531 135.38 73.6018C138.176 72.2952 141.656 71.645 143.694 71.9129Z" fill="#6C3712" stroke="#1C0F00" stroke-linejoin="round"/>
<path d="M110.566 75.7119C110.066 75.0029 109.887 74.316 110.016 73.6775C110.149 73.1478 110.718 72.3167 112.154 71.8715C113.601 71.4224 115.93 71.3725 119.491 72.4812C121.706 73.1704 123.278 74.0453 124.299 74.9424C125.324 75.8428 125.761 76.7344 125.8 77.4683C125.837 78.1804 125.503 78.8379 124.769 79.3261C124.022 79.823 122.854 80.1408 121.287 80.0803C118.09 79.9569 115.07 79.0377 112.947 77.7698C111.885 77.1354 111.071 76.4277 110.566 75.7119Z" fill="#6C3712" stroke="#1C0F00" stroke-linejoin="round"/>
<path d="M139.555 166.018C141.095 164.413 145.278 162.425 149.695 167.315C149.687 165.945 150.378 162.998 153.2 162.17" stroke="#1C0F00" stroke-linecap="round" stroke-linejoin="round"/>
<path d="M114.451 60.1307C113.544 58.7995 110.602 56.9644 106.09 60.2735C109.85 57.5159 111.36 47.823 102.643 45.6957" stroke="#1C0F00" stroke-linecap="round" stroke-linejoin="round"/>
<path d="M139.778 46.0946C143.919 43.7969 153.813 43.7971 155.836 52.7577M155.884 56.8935C156.114 55.9745 156.026 53.5985 155.836 52.7577M155.836 52.7577C159.566 51.1495 166.468 53.6769 165.778 61.2589" stroke="#1C0F00" stroke-linecap="round" stroke-linejoin="round"/>
<path d="M95.3657 98.1157C95.3657 107.526 103.005 115.155 112.43 115.155C121.855 115.155 129.742 107.279 129.742 97.8686C129.742 88.4586 122.103 80.8291 112.678 80.8291C102.575 80.8291 95.3657 88.6929 95.3657 98.1157Z" fill="#FFF3E1" stroke="#1C0F00" stroke-linejoin="round"/>
<ellipse cx="13.359" cy="13.3399" rx="13.359" ry="13.3399" transform="matrix(-1 0 0 1 125.755 84.4409)" fill="#1C0F00"/>
<ellipse cx="122.543" cy="95.1765" rx="4.80348" ry="4.79664" fill="#FFF3E1"/>
<path d="M129.722 97.0287C129.283 88.0088 121.821 80.8291 112.678 80.8291C109.272 80.8291 106.202 81.7214 103.626 83.2597L129.722 97.0287Z" fill="#E10000" stroke="#1C0F00" stroke-linejoin="round"/>
<path d="M97.4797 103.874C92.9277 102.886 88.3263 106.098 87.8315 108.568L95.2532 121.661C96.7375 122.402 103.417 120.673 104.407 115.732C105.396 110.791 103.17 105.109 97.4797 103.874Z" fill="#E10000"/>
<path d="M87.0889 110.202C87.3571 106.803 91.4477 103.219 96.4786 103.665C102.381 104.188 106.137 110.725 104.527 115.955C102.955 121.063 97.2835 122.492 95.6738 121.707" stroke="#1C0F00" stroke-linecap="round" stroke-linejoin="round"/>
<ellipse cx="97.6003" cy="108.971" rx="0.686212" ry="0.685234" fill="#1C0F00"/>
<ellipse cx="91.653" cy="108.971" rx="0.686212" ry="0.685234" fill="#1C0F00"/>
<ellipse cx="95.3127" cy="114.453" rx="0.686212" ry="0.685234" fill="#1C0F00"/>
<ellipse cx="100.802" cy="114.453" rx="0.686212" ry="0.685234" fill="#1C0F00"/>
<path d="M162.311 98.1157C162.311 107.526 154.671 115.155 145.246 115.155C135.821 115.155 127.934 107.279 127.934 97.8686C127.934 88.4586 135.573 80.8291 144.999 80.8291C155.101 80.8291 162.311 88.6929 162.311 98.1157Z" fill="#FFF3E1" stroke="#1C0F00" stroke-linejoin="round"/>
<ellipse cx="145.28" cy="97.7808" rx="13.359" ry="13.3399" fill="#1C0F00"/>
<path d="M127.954 97.0287C128.393 88.0088 135.856 80.8291 144.999 80.8291C148.404 80.8291 151.474 81.7214 154.05 83.2597L127.954 97.0287Z" fill="#E10000" stroke="#1C0F00" stroke-linejoin="round"/>
<ellipse cx="156.396" cy="95.1765" rx="4.80348" ry="4.79664" fill="#FFF3E1"/>
<path d="M117.291 111.907C118.776 111.66 119.815 111.857 121.992 114.624C124.713 118.082 127.435 119.071 130.651 119.071C134.609 119.071 137.577 117.341 139.309 114.377C140.87 111.703 141.535 109.683 144.257 110.424C146.978 111.165 149.204 115.612 149.699 120.8C149.944 123.363 149.826 128.098 147.704 132.351C145.532 136.706 141.259 140.557 133.124 141.057C126.44 141.467 121.765 139.146 118.654 135.708C114.282 130.875 113.002 123.834 113.58 119.071C114.282 113.297 116.312 112.07 117.291 111.907Z" fill="#FFF3E1"/>
<path d="M121.992 114.624C119.815 111.857 118.776 111.66 117.291 111.907C116.312 112.07 114.282 113.297 113.58 119.071C113.002 123.834 114.282 130.875 118.654 135.708M121.992 114.624C124.713 118.082 127.435 119.071 130.651 119.071M121.992 114.624C120.422 117.812 117.556 126.491 118.654 135.708M130.651 119.071C134.609 119.071 137.577 117.341 139.309 114.377M130.651 119.071C130.427 122.819 130.61 132.464 133.124 141.057M139.309 114.377C140.87 111.703 141.535 109.683 144.257 110.424C146.978 111.165 149.204 115.612 149.699 120.8C149.944 123.363 149.826 128.098 147.704 132.351M139.309 114.377C140.201 117.617 143.129 125.748 147.704 132.351M133.124 141.057C126.44 141.467 121.765 139.146 118.654 135.708M133.124 141.057C141.259 140.557 145.532 136.706 147.704 132.351" stroke="#1C0F00" stroke-linecap="round" stroke-linejoin="round"/>
<path d="M166.273 103.304C172.408 103.897 175.097 107.668 175.674 109.48L165.036 122.573C163.552 122.573 158.357 122.079 156.13 116.644C153.904 111.209 158.604 102.563 166.273 103.304Z" fill="#E10000"/>
<path d="M175.675 109.479C175.18 107.256 172.212 103.654 166.027 103.056C158.358 102.315 153.904 110.962 156.131 116.397C158.357 121.831 163.553 122.572 165.037 122.572" stroke="#1C0F00" stroke-linecap="round" stroke-linejoin="round"/>
<ellipse cx="168.258" cy="107.054" rx="0.686212" ry="0.685234" fill="#1C0F00"/>
<ellipse cx="160.481" cy="111.165" rx="0.686212" ry="0.685234" fill="#1C0F00"/>
<ellipse cx="165.056" cy="112.536" rx="0.686212" ry="0.685234" fill="#1C0F00"/>
<ellipse cx="171.461" cy="111.165" rx="0.686212" ry="0.685234" fill="#1C0F00"/>
<path d="M248.901 52.0304C267.581 51.4974 299.68 59.7964 299.223 98.1695C299.074 92.916 297.347 78.8459 282.525 79.2114C271.774 79.4764 270.402 92.0025 271.088 97.7127C270.631 93.9059 268.663 85.7895 259.88 86.5204C251.611 87.2086 247.829 94.9692 246.778 99.4333C246.728 99.7088 246.673 99.9735 246.613 100.225C246.658 99.9756 246.713 99.7108 246.778 99.4333C247.672 94.4562 246.701 85.9385 238.379 86.9773C236.842 87.1691 235.525 87.6974 234.396 88.4668C241.514 83.5837 249.038 72.9958 248.901 52.0304Z" fill="#E10000" stroke="#1C0F00" stroke-linecap="round" stroke-linejoin="round"/>
<path d="M270.993 97.4607C269.53 73.1577 255.744 57.0319 249.035 52.0068C254.296 70.2797 249.172 89.4663 246.976 98.6027" stroke="#1C0F00" stroke-linecap="round" stroke-linejoin="round"/>
<path d="M175.152 32.3633C176.616 44.7889 168.29 56.2703 163.944 60.4579C164.249 62.209 165.957 66.1225 170.349 67.767C176.754 69.9598 180.642 65.1784 181.786 62.5136C184.348 47.3471 178.431 36.094 175.152 32.3633Z" fill="#FFBAC2" stroke="#1C0F00" stroke-linecap="round" stroke-linejoin="round"/>
<path d="M95.1913 32.3633C93.7274 44.7889 102.053 56.2703 106.399 60.4579C106.094 62.209 104.387 66.1225 99.9948 67.767C93.5901 69.9598 89.7016 65.1784 88.5579 62.5136C85.996 47.3471 91.9127 36.094 95.1913 32.3633Z" fill="#FFBAC2" stroke="#1C0F00" stroke-linecap="round" stroke-linejoin="round"/>
<path d="M307.591 153.193C294.246 144.354 277.448 155.199 279.684 164.476C281.436 171.741 289.449 172.993 293.48 172.71L319.336 160.22C315.684 159.985 312.388 157.788 311.082 156.712C315.588 157.918 331.089 155.715 338.843 152.783C330.53 159.387 324.211 167.956 321.773 173.75C321.155 169.132 321.701 166.172 322.221 165.213L297.639 177.331C294.879 180.386 291.081 187.182 295.498 192.99C301.277 200.588 319.867 194.951 321.455 179.039L333.31 169.915C329.643 173.423 322.731 183.734 329.435 191.539C326.476 190.793 324.099 188.031 323.863 184.343C322.687 189.053 318.397 198.154 309.649 201.844C298.883 206.387 280.984 199.399 285.46 183.334L253.151 199.26L250.178 193.626L281.432 178.529C265.274 171.694 271.173 153.985 281.584 148.493C289.981 144.063 300.232 146.316 304.336 148.012C301.625 145.496 300.987 141.91 302.281 139.15C304.093 149.272 316.462 150.451 321.502 149.835L307.591 153.193Z" fill="#FFE900" stroke="#1C0F00" stroke-linecap="round" stroke-linejoin="round"/>
<path d="M221.924 186.194C215.065 184.435 200.2 187.47 194.741 199.974C191.135 208.236 193.627 215.101 195.791 218.181C198.005 221.332 201.686 222.668 203.977 223.302C200.923 228.592 200.393 236.05 205.056 242.995C213.227 255.164 230.243 248.566 234.692 242.079C236.513 244.726 244.003 248.607 251.446 243.612C255.857 240.652 257.497 236.401 257.311 232.032C262.969 231.098 272.207 224.061 268.127 207.55C263.026 186.911 246.832 182.231 239.085 183.856C234.306 168.824 212.576 107.838 212.576 107.838L200.911 113.091C204.885 126.728 219.712 173.279 221.924 186.194Z" fill="#E10000"/>
<path d="M203.977 223.302C201.686 222.668 198.005 221.332 195.791 218.181C193.627 215.101 191.135 208.236 194.741 199.974C200.2 187.47 215.065 184.435 221.924 186.194C219.712 173.279 204.885 126.728 200.911 113.091M203.977 223.302C200.923 228.592 200.393 236.05 205.056 242.995C213.227 255.164 230.243 248.566 234.692 242.079M203.977 223.302C206.274 219.322 209.999 216.569 214.017 216.186M235.299 224.534C236.775 228.347 238.273 236.859 234.692 242.079M234.692 242.079C236.513 244.726 244.003 248.607 251.446 243.612C255.857 240.652 257.497 236.401 257.311 232.032M214.017 216.186C211.462 210.387 207.542 208.491 205.351 208.351M214.017 216.186C215.047 218.526 215.855 221.5 216.237 225.251M212.576 107.838C212.576 107.838 234.306 168.824 239.085 183.856C246.832 182.231 263.026 186.911 268.127 207.55C272.207 224.061 262.969 231.098 257.311 232.032M257.311 232.032C257.105 227.187 254.655 222.197 251.253 218.663" stroke="#1C0F00" stroke-linecap="round" stroke-linejoin="round"/>
<path d="M175.657 237.46C172.453 235.971 172.305 232.589 172.632 231.084L211.75 212.352C212.589 213.224 214.175 215.662 214.724 218.29L175.657 237.46Z" fill="#FFE900" stroke="#1C0F00" stroke-linecap="round" stroke-linejoin="round"/>
<path d="M61.3295 240.041C63.7249 235.65 62.568 231.568 61.3295 229.254C62.7409 230.507 65.5626 233.372 65.3845 238.06C65.1618 243.92 60.7398 249.113 65.2167 249.957C69.4125 250.749 70.2662 242.245 68.4084 239.274C71.0737 242.442 74.4268 248.455 69.3753 255.715C65.306 261.564 64.6377 269.132 64.5213 272.195C64.575 263.795 60.7973 261.527 57.6882 256.076C54.3866 250.286 58.3352 245.53 61.3295 240.041Z" fill="#FFA41C" stroke="#1C0F00" stroke-linecap="round" stroke-linejoin="round"/>
<path d="M234.073 263.972C231.328 256.846 232.32 250.039 233.158 247.527C228.812 257.12 232.014 268.541 232.701 273.794C233.387 279.048 231.786 279.733 231.328 279.733C230.871 279.733 229.727 279.961 229.727 274.479C229.727 270.094 227.897 267.627 226.982 266.942C229.27 271.053 227.248 275.82 226.296 282.474C225.381 288.869 229.346 293.133 231.328 295.265L231.328 295.265C230.871 290.925 238.055 287.727 238.513 280.875C238.893 275.177 237.504 272.881 234.073 263.972Z" fill="#FFA41C" stroke="#1C0F00" stroke-linecap="round" stroke-linejoin="round"/>
<path d="M70.9766 16.0171C74.144 9.29371 70.5992 3.19549 68.8278 1.29932C69.9576 9.25315 65.8089 11.0359 64.8018 17.587C63.996 22.8279 67.1501 28.215 68.8278 30.2535C68.0686 26.9436 67.269 23.8874 70.9766 16.0171Z" fill="#FFA41C" stroke="#1C0F00" stroke-linecap="round" stroke-linejoin="round"/>
<path d="M119.131 282.169C120.904 274.501 115.85 266.58 113.326 263.516C118.149 270.968 116.327 281.463 112.114 281.409C108.743 281.365 107.922 276.557 108.205 274.313C106.622 276.988 104.769 281.252 108.413 288.995C111.329 295.189 112.311 301.421 112.437 303.763C112.398 290.585 116.916 291.754 119.131 282.169Z" fill="#FFA41C" stroke="#1C0F00" stroke-linecap="round" stroke-linejoin="round"/>
<path d="M183.204 264.609C180.326 253.609 184.591 243.455 187.141 239.761C186.345 242.593 185.951 248.277 189.563 258.947C193.175 269.618 190.015 275.261 188.42 277.449C191.363 268.207 187.702 261.601 185.454 261.502C183.656 261.423 183.205 263.54 183.204 264.609Z" fill="#FFA41C" stroke="#1C0F00" stroke-linecap="round" stroke-linejoin="round"/>
</g>
<defs>
<clipPath id="clip0_4745_1013">
<rect width="340" height="306" fill="white"/>
</clipPath>
</defs>
</svg>
