<svg width="282" height="306" viewBox="0 0 282 306" fill="none" xmlns="http://www.w3.org/2000/svg">
<g clip-path="url(#clip0_4745_1462)">
<ellipse cx="136.011" cy="295.814" rx="122.04" ry="9.9681" fill="#1C0F00"/>
<path d="M113.929 224.22C97.6265 184.446 111.169 156.025 118.845 146.493C119.917 139.196 125.507 128.979 139.285 146.493C130.574 155.418 119.879 173.268 131.264 212.002C140.194 242.381 160.503 273.091 169.819 279.33L127.164 286.018L113.929 224.22Z" fill="white"/>
<path d="M113.929 224.22C97.6265 184.446 111.169 156.025 118.845 146.493C119.917 139.196 125.507 128.979 139.285 146.493C130.574 155.418 119.879 173.268 131.264 212.002C140.194 242.381 160.503 273.091 169.819 279.33L127.164 286.018L113.929 224.22Z" stroke="#1C0F00" stroke-linecap="round" stroke-linejoin="round"/>
<path d="M126.737 188.723C116.416 192.395 108.178 190.886 106.367 189.932C106.675 200.018 108.844 211.485 114.011 224.091L124.602 283.105L169.901 279.202C160.585 272.963 140.276 242.253 131.346 211.873C128.779 203.141 127.335 195.469 126.737 188.723Z" fill="#8BE3FF"/>
<path d="M106.766 195.236C108.577 196.189 115.615 197.004 127.207 193.676" stroke="#1C0F00" stroke-linejoin="round"/>
<path d="M126.737 188.723C116.416 192.395 108.178 190.886 106.367 189.932C106.675 200.018 108.844 211.485 114.011 224.091L124.602 283.105L169.901 279.202C160.585 272.963 140.276 242.253 131.346 211.873C128.779 203.141 127.335 195.469 126.737 188.723Z" stroke="#1C0F00" stroke-linejoin="round"/>
<path d="M41.4208 139.737C40.0072 125.342 47.2127 107.207 50.9922 99.9392C44.1224 79.4527 33.9772 92.7573 29.7634 101.97C27.1982 111.573 22.697 133.187 26.5282 146.367C31.2129 162.483 42.8491 167.911 55.1392 165.92C69.0543 163.667 80.6736 148.849 82.7534 125.17C83.3753 103.92 75.6767 103.161 73.2418 102.524C72.1045 119.863 71.8926 125.522 67.2441 136.681C60.4681 152.946 43.1878 157.731 41.4208 139.737Z" fill="white" stroke="#1C0F00" stroke-linecap="round" stroke-linejoin="round"/>
<path d="M158.577 224.22C142.275 184.446 155.817 156.025 163.493 146.493C164.566 139.196 170.155 128.979 183.934 146.493C175.223 155.418 164.527 173.268 175.913 212.002C184.843 242.381 205.151 273.091 214.467 279.33L171.812 286.018L158.577 224.22Z" fill="white"/>
<path d="M158.577 224.22C142.275 184.446 155.817 156.025 163.493 146.493C164.566 139.196 170.155 128.979 183.934 146.493C175.223 155.418 164.527 173.268 175.913 212.002C184.843 242.381 205.151 273.091 214.467 279.33L171.812 286.018L158.577 224.22Z" stroke="#1C0F00" stroke-linecap="round" stroke-linejoin="round"/>
<path d="M171.385 188.723C161.064 192.395 152.827 190.886 151.016 189.932C151.323 200.018 153.492 211.485 158.659 224.091L169.25 283.105L214.55 279.202C205.234 272.963 184.925 242.253 175.995 211.873C173.428 203.141 171.983 195.469 171.385 188.723Z" fill="#8BE3FF"/>
<path d="M151.414 195.236C153.225 196.189 160.263 197.004 171.855 193.676" stroke="#1C0F00" stroke-linejoin="round"/>
<path d="M171.385 188.723C161.064 192.395 152.827 190.886 151.016 189.932C151.323 200.018 153.492 211.485 158.659 224.091L169.25 283.105L214.55 279.202C205.234 272.963 184.925 242.253 175.995 211.873C173.428 203.141 171.983 195.469 171.385 188.723Z" stroke="#1C0F00" stroke-linejoin="round"/>
<path d="M72.8271 131.418V52.5652L233.672 52.2876V134.195C233.672 149.836 197.666 160.017 153.25 160.017C108.834 160.017 72.8271 147.059 72.8271 131.418Z" fill="#274123" stroke="#1C0F00" stroke-linecap="round" stroke-linejoin="round"/>
<path d="M191.574 157.257L192.963 68.9286L198.242 62.5601L212.41 73.9126L211.855 152.55C208.799 153.381 197.408 156.98 191.574 157.257Z" fill="#31562B"/>
<path d="M99.8452 69.8459C99.2458 76.4131 87.5578 82.0885 77.6682 77.014C70.0518 73.1059 69.5939 63.1493 71.8157 58.5204C66.4352 60.0638 57.5385 58.859 55.1593 49.7748C52.1091 38.1285 63.2834 26.6688 75.6702 30.992C74.1204 23.0971 80.3621 16.335 89.0565 16.1186C93.5656 16.0568 98.0797 19.2905 99.3782 21.513C97.5714 16.7786 97.0966 6.9642 108.129 2.50244C119.628 -2.14804 131.682 4.40888 131.313 14.3238C135.23 4.63897 142.401 4.40888 146.055 4.40888C155.945 4.40888 161.539 11.0757 162.238 14.2597C162.538 8.88681 166.733 2.31937 177.223 2.91639C182.967 3.24334 187.655 7.45795 188.641 10.9631C191.802 5.61137 199.283 1.20546 209.533 5.37253C220.429 9.80259 220.394 20.3954 218.179 25.0042C219.594 23.012 222.856 20.6827 227.215 21.1934C236.505 22.3875 238.903 29.5514 238.903 33.1335C238.903 36.7156 237.627 38.3698 236.828 39.1658C241.79 37.935 249.455 39.8663 251.19 47.1634C253.804 58.1574 243.468 65.7863 234.098 61.3538C233.391 72.3932 220.371 74.2639 215.437 70.3233C216.071 75.4471 211.308 80.8946 204.138 80.8946C197.425 80.8946 194.972 75.82 194.248 71.6409C197.245 88.9543 175.668 90.4468 169.674 83.8797C167.295 81.2735 166.441 78.0699 166.342 75.1142C151.85 86.8606 132.735 83.4197 129.215 76.1146C127.217 78.7017 120.483 81.9996 111.533 81.1892C101.643 80.2937 100.445 73.7265 99.8452 69.8459Z" fill="white"/>
<path d="M236.828 39.1658C237.627 38.3698 238.903 36.7156 238.903 33.1335C238.903 29.5514 236.505 22.3875 227.215 21.1934C222.856 20.6827 219.594 23.012 218.179 25.0042C220.394 20.3954 220.429 9.80259 209.533 5.37253C199.283 1.20546 191.802 5.61137 188.641 10.9631M236.828 39.1658C235.619 39.4656 234.571 39.953 233.808 40.5962M236.828 39.1658C241.79 37.935 249.455 39.8663 251.19 47.1634C253.804 58.1574 243.468 65.7863 234.098 61.3538M187.355 20.2938C186.551 18.0918 187.047 13.6627 188.641 10.9631M128.221 21.513C130.453 20.1957 131.235 16.4129 131.313 14.3238M228.413 52.8348C228.413 56.5748 230.794 59.7906 234.098 61.3538M167.576 67.7603C166.921 69.3649 166.242 72.1116 166.342 75.1142M214.628 67.7603C215.064 68.5862 215.329 69.4501 215.437 70.3233M83.3621 39.6966C82.7941 37.9768 81.1941 32.9199 75.6702 30.992M74.6395 57.2375C73.9135 57.7541 72.9416 58.1974 71.8157 58.5204M215.437 70.3233C216.071 75.4471 211.308 80.8946 204.138 80.8946C197.425 80.8946 194.972 75.82 194.248 71.6409C197.245 88.9543 175.668 90.4468 169.674 83.8797C167.295 81.2735 166.441 78.0699 166.342 75.1142M215.437 70.3233C220.371 74.2639 233.391 72.3932 234.098 61.3538M188.641 10.9631C187.655 7.45795 182.967 3.24334 177.223 2.91639C166.733 2.31937 162.538 8.88681 162.238 14.2597C161.539 11.0757 155.945 4.40888 146.055 4.40888C142.401 4.40888 135.23 4.63897 131.313 14.3238M131.313 14.3238C131.682 4.40888 119.628 -2.14804 108.129 2.50244C97.0966 6.9642 97.5714 16.7786 99.3782 21.513C98.0797 19.2905 93.5656 16.0568 89.0565 16.1186C80.3621 16.335 74.1204 23.0971 75.6702 30.992M75.6702 30.992C63.2834 26.6688 52.1091 38.1285 55.1593 49.7748C57.5385 58.859 66.4352 60.0638 71.8157 58.5204M71.8157 58.5204C69.5939 63.1493 70.0518 73.1059 77.6682 77.014C87.5578 82.0885 99.2458 76.4131 99.8452 69.8459C100.445 73.7265 101.643 80.2937 111.533 81.1892C120.483 81.9996 127.217 78.7016 129.215 76.1146C132.735 83.4197 151.85 86.8606 166.342 75.1142" stroke="#1C0F00" stroke-linecap="round" stroke-linejoin="round"/>
<path d="M91.0151 95.6391C91.0151 97.1402 91.1731 98.6037 91.4732 100.014C93.4734 109.414 101.788 116.46 111.737 116.46C113.332 116.46 114.89 116.273 116.391 115.92C125.666 113.742 132.758 105.233 132.758 95.3388C132.758 83.8376 123.478 74.5181 112.036 74.5181C99.773 74.5181 91.0151 84.1251 91.0151 95.6391Z" fill="white" stroke="#1C0F00" stroke-linejoin="round"/>
<path d="M130.918 91.4358C130.918 100.516 123.592 107.873 114.559 107.873C105.527 107.873 98.2012 100.516 98.2012 91.4358C98.2012 82.3558 105.527 74.999 114.559 74.999C123.592 74.999 130.918 82.3558 130.918 91.4358Z" fill="#1C0F00" stroke="#1C0F00"/>
<ellipse cx="102.951" cy="98.1002" rx="5.80368" ry="5.8307" fill="white"/>
<path d="M168.79 95.64C168.79 97.1412 168.632 98.6047 168.332 100.015C166.331 109.415 158.017 116.461 148.068 116.461C146.473 116.461 144.915 116.274 143.414 115.921C134.138 113.743 127.047 105.234 127.047 95.3398C127.047 83.8386 136.327 74.519 147.769 74.519C160.032 74.519 168.79 84.1261 168.79 95.64Z" fill="white" stroke="#1C0F00" stroke-linejoin="round"/>
<path d="M160.763 91.4368C160.763 100.517 153.436 107.874 144.404 107.874C135.372 107.874 128.046 100.517 128.046 91.4368C128.046 82.3568 135.372 75 144.404 75C153.436 75 160.763 82.3568 160.763 91.4368Z" fill="#1C0F00" stroke="#1C0F00"/>
<ellipse cx="156.012" cy="98.1012" rx="5.80368" ry="5.8307" fill="white"/>
<path d="M152.254 112.14C159.979 113.34 161.537 118.845 161.747 120.889L155.04 131.502C152.806 132.169 146.521 132.548 143.254 128.336C137.947 121.494 143.175 110.73 152.254 112.14Z" fill="#274123"/>
<path d="M161.54 120.313C161.264 118.277 159.904 113.205 152.144 112.261C143.023 111.15 137.772 121.701 143.3 128.365C146.703 132.467 152.972 131.882 155.183 131.141" stroke="#1C0F00" stroke-linecap="round" stroke-linejoin="round"/>
<ellipse cx="147.722" cy="117.537" rx="0.829097" ry="0.832957" fill="#1C0F00"/>
<ellipse cx="144.958" cy="123.09" rx="0.829097" ry="0.832957" fill="#1C0F00"/>
<ellipse cx="151.591" cy="115.315" rx="0.829097" ry="0.832957" fill="#1C0F00"/>
<ellipse cx="156.013" cy="119.757" rx="0.829097" ry="0.832957" fill="#1C0F00"/>
<path d="M105.272 109.363C112.997 110.563 114.555 116.069 114.765 118.113L108.058 128.726C105.824 129.393 99.5385 129.772 96.2713 125.559C90.9644 118.717 96.1927 107.953 105.272 109.363Z" fill="#274123"/>
<path d="M114.765 118.113C114.555 116.069 112.997 110.563 105.272 109.363C96.1927 107.953 90.9644 118.717 96.2713 125.559C99.5385 129.772 105.824 129.393 108.058 128.726" stroke="#1C0F00" stroke-linecap="round" stroke-linejoin="round"/>
<ellipse cx="102.231" cy="116.027" rx="0.829097" ry="0.832957" fill="#1C0F00"/>
<ellipse cx="97.2568" cy="119.914" rx="0.829097" ry="0.832957" fill="#1C0F00"/>
<ellipse cx="109.971" cy="117.138" rx="0.829097" ry="0.832957" fill="#1C0F00"/>
<ellipse cx="103.891" cy="112.695" rx="0.829097" ry="0.832957" fill="#1C0F00"/>
<path d="M146.684 59.8837C142.846 58.1833 139.063 59.3277 137.891 60.1141C136.943 60.7498 135.77 61.8314 136.275 63.1407C137.392 66.035 140.869 65.0803 144.235 65.8996C147.6 66.7188 149.127 69.9861 151.208 68.509C153.289 67.032 151.482 62.0093 146.684 59.8837Z" fill="#274123" stroke="#1C0F00" stroke-linecap="round" stroke-linejoin="round"/>
<path d="M114.398 58.8183C110.271 59.5742 107.779 62.6539 107.248 63.9654C106.818 65.0258 106.451 66.5823 107.601 67.3814C110.142 69.1477 112.487 66.3976 115.73 65.1788C118.974 63.96 122.062 65.804 122.96 63.4084C124.057 60.4803 119.557 57.8735 114.398 58.8183Z" fill="#274123" stroke="#1C0F00" stroke-linecap="round" stroke-linejoin="round"/>
<path d="M245.738 135.598C249.168 127.724 248.425 109.321 234.549 100.343C225.381 94.4108 216.699 96.0579 212.601 98.0506C208.41 100.089 206.1 104.239 204.899 106.86C199.173 102.17 190.368 100.081 181.171 104.314C165.054 111.731 169.637 133.404 176.522 140C173.007 141.665 166.92 149.883 171.443 159.774C174.123 165.637 178.882 168.429 184.136 169.059C184.156 176.021 190.77 188.461 211.279 186.791C236.916 184.704 245.644 166.214 245.205 156.615L245.738 135.598Z" fill="white"/>
<path d="M245.738 135.598C249.168 127.724 248.425 109.321 234.549 100.343C225.381 94.4108 216.699 96.0579 212.601 98.0506C208.41 100.089 206.1 104.239 204.899 106.86M204.899 106.86C199.173 102.17 190.368 100.081 181.171 104.314C165.054 111.731 169.637 133.404 176.522 140M204.899 106.86C209.207 110.388 211.773 115.389 211.452 120.276M197.358 144.147C192.517 145.173 182.062 145.308 176.522 140M176.522 140C173.007 141.665 166.92 149.883 171.443 159.774C174.123 165.637 178.882 168.429 184.136 169.059M211.452 120.276C218.873 118.347 221.897 114.019 222.489 111.421M211.452 120.276C208.458 121.055 204.749 121.443 200.195 121.169M184.136 169.059C184.156 176.021 190.77 188.461 211.279 186.791C236.916 184.704 246.109 165.847 245.556 155.852M184.136 169.059C189.963 169.757 196.397 167.794 201.277 164.407" stroke="#1C0F00" stroke-linecap="round" stroke-linejoin="round"/>
<path d="M280.101 124.478C272.092 155.076 244.449 156.408 232.012 156.408C228.695 146.857 230.63 138.361 232.012 135.306C244.418 137.068 265.73 135.306 265.73 112.816C265.73 95.0464 247.257 89.683 233.948 88.9381L233.671 76.4437C265.77 77.3108 285.301 95.9441 280.101 124.478Z" fill="white"/>
<path d="M232.013 135.306C244.418 137.068 265.73 134.473 265.73 111.983C265.73 95.527 246.981 89.6828 233.672 88.9378L233.672 76.1658C265.771 77.0329 285.301 95.9439 280.101 124.478C273.625 149.219 254.312 154.826 240.581 156.065" stroke="#1C0F00" stroke-linecap="round" stroke-linejoin="round"/>
<path d="M134.176 111.362C132.407 114.693 131.136 115.434 130.859 115.526C129.201 116.359 126.714 115.804 124.503 117.47C121.537 119.705 123.397 125.522 129.754 125.8C135.828 126.065 142.19 122.19 142.743 115.249C143.296 108.308 136.387 107.197 134.176 111.362Z" fill="#FFBAC2" stroke="#1C0F00" stroke-linecap="round" stroke-linejoin="round"/>
<path d="M129.754 121.079C131.965 120.987 136.939 119.857 138.045 114.971" stroke="#1C0F00" stroke-linecap="round" stroke-linejoin="round"/>
<path d="M118.4 222.412C137.787 237.15 136.448 266.217 127.392 274.796C121.967 280.498 105.635 279.425 98.1465 278.176L73.0068 230.635C75.2155 220.073 97.3171 206.384 118.4 222.412Z" fill="#FFBAC2"/>
<path d="M117.503 254.446C120.709 268.327 115.141 276.942 111.446 279.527L72.3648 280.635C62.3866 280.635 53.1905 272.665 52.6861 259.307C52.1318 244.627 63.6764 231.021 82.0324 229.277C96.4048 227.911 113.346 236.443 117.503 254.446Z" fill="#8BE3FF"/>
<path d="M108.574 280.613C112.269 278.007 119.469 267.69 116.263 253.699C112.105 235.551 96.6862 228.325 82.2804 229.277C63.4286 230.523 52.2085 244.384 52.7628 259.181C53.2349 271.783 61.442 281.209 73.8468 279.919" stroke="#1C0F00" stroke-linecap="round" stroke-linejoin="round"/>
<path d="M127.392 274.796C136.448 266.217 139.236 237.995 119.392 222.91C101.187 209.07 76.2315 216.318 73.2549 230.772" stroke="#1C0F00" stroke-linecap="round" stroke-linejoin="round"/>
<path d="M57.7241 285.992C57.7303 285.3 57.8006 284.616 57.9251 283.957C58.7359 279.666 63.5131 278.37 67.8803 278.37H170.579C173.71 278.37 177.248 278.772 178.683 281.555C179.522 283.181 179.877 285.16 179.79 287.066C179.568 291.899 174.231 293.571 169.393 293.571H69.866C64.2617 293.571 57.6737 291.596 57.7241 285.992Z" fill="#FFE900" stroke="#1C0F00" stroke-linecap="round" stroke-linejoin="round"/>
<path d="M165.804 228.428C185.191 243.166 183.019 270.788 173.963 279.367C168.538 285.069 152.945 283.051 145.457 281.802L117.408 235.258C119.617 224.695 144.722 212.4 165.804 228.428Z" fill="#FFBAC2"/>
<path d="M154.863 252.204C158.069 266.084 151.143 274.383 145.189 278.868L109.658 280.635C99.6794 280.635 90.4833 272.665 89.9789 259.307C89.4245 244.627 101.781 230.613 120.633 229.526C135.046 228.695 150.705 234.2 154.863 252.204Z" fill="#8BE3FF"/>
<path d="M135.764 282.357C148.662 282.357 157.095 268.153 155.359 254.696C153.064 236.911 138.856 228.804 121.193 229.194M112.049 279.919C99.6443 281.209 90.4826 273.002 89.9782 259.538C89.4239 244.741 101.533 230.3 119.144 229.277C119.832 229.237 120.515 229.209 121.193 229.194M174.702 278.422C182.149 271.143 185.099 242.087 165.777 228.28C148.286 215.78 128.802 221.083 121.193 229.194" stroke="#1C0F00" stroke-linecap="round" stroke-linejoin="round"/>
<path d="M95.562 285.992C95.5682 285.3 95.6385 284.616 95.763 283.957C96.5738 279.666 101.351 278.37 105.718 278.37H208.417C211.548 278.37 215.086 278.772 216.521 281.555C217.36 283.181 217.715 285.16 217.628 287.066C217.406 291.899 212.068 293.571 207.231 293.571H107.704C102.1 293.571 95.5115 291.596 95.562 285.992Z" fill="#FFE900" stroke="#1C0F00" stroke-linecap="round" stroke-linejoin="round"/>
<path d="M210.684 39.0449C208.947 34.061 202.002 32.0676 197.042 35.0579C190.86 38.7855 192.329 46.2718 193.321 47.5179C188.111 46.2718 182.902 49.7607 184.391 56.9876" stroke="#1C0F00" stroke-linecap="round" stroke-linejoin="round"/>
<path d="M110.292 48.6324C113.789 44.6907 112.158 37.6213 107.15 34.7126C100.908 31.0869 91.2263 33.9023 91.7219 42.375" stroke="#1C0F00" stroke-linecap="round" stroke-linejoin="round"/>
<path d="M176.186 41.9242C185.106 51.8794 114.907 49.0523 126.065 40.9283C134.077 35.0957 145.05 32.611 156.936 34.3124C166.445 35.6735 172.188 37.4622 176.186 41.9242Z" fill="#FFBAC2" stroke="#1C0F00" stroke-linecap="round" stroke-linejoin="round"/>
<path d="M116.494 37.8823C108.106 45.1976 141.293 46.0271 144.222 45.2943C157.669 43.9881 138.383 33.3092 128.907 33.3704C121.326 33.4195 120.253 34.6036 116.494 37.8823Z" fill="#00B261" stroke="#1C0F00" stroke-linecap="round" stroke-linejoin="round"/>
<path d="M159.867 44.9918C160.589 41.3272 170.912 35.0258 177.901 39.8471C187.535 46.4928 182.148 48.4453 178.888 48.849C170.814 49.849 158.963 49.5725 159.867 44.9918Z" fill="#FFA41C" stroke="#1C0F00" stroke-linecap="round" stroke-linejoin="round"/>
<path d="M68.3044 102.454C57.2202 105.806 46.4785 101.231 42.4932 98.5252L35.6933 99.1223C18.0306 109.519 -1.06287 94.6799 1.14806 74.9666C2.10526 66.4318 7.5477 60.5263 15.6067 57.7932C13.2685 53.5772 7.51049 44.012 8.31251 28.9033C9.30464 10.2131 30.6367 9.21628 35.8458 21.4272C40.3107 31.8937 37.8302 48.0919 39.3185 60.8012C36.838 18.9352 51.4729 9.27869 63.131 12.2068C73.053 14.6988 75.735 24.6668 71.0686 35.3825C68.2905 41.7621 63.3455 49.9687 62.6012 53.7068C64.1184 53.6839 65.6428 53.766 67.1478 53.9596C74.6369 54.9227 81.6722 58.5169 84.8864 65.804C92.497 83.0588 83.7809 99.1223 68.3044 102.454Z" fill="white"/>
<path d="M42.4932 98.5249C46.4785 101.231 57.2202 105.805 68.3044 102.454C83.7809 99.122 92.497 83.0586 84.8864 65.8038C81.6722 58.5166 74.6369 54.9225 67.1478 53.9593C65.6428 53.7658 64.1184 53.6837 62.6012 53.7065M70.3812 78.3309C52.3327 92.6052 35.5153 76.3194 42.1655 63.4396C42.4413 62.9056 42.7616 62.3899 43.1227 61.8934C46.7718 56.877 54.5845 53.8271 62.6012 53.7065M16.4493 75.9307C21.4239 87.8697 41.3223 83.4274 40.4932 71.2107C39.6135 58.249 26.4374 54.1197 15.6067 57.7929M35.6933 99.122C18.0306 109.518 -1.06287 94.6796 1.14806 74.9663C2.10526 66.4316 7.5477 60.5261 15.6067 57.7929M62.6012 53.7065C63.3455 49.9685 68.2905 41.7619 71.0686 35.3823C75.735 24.6666 73.053 14.6985 63.131 12.2065C51.4729 9.27845 36.6915 15.9269 39.172 57.7929C37.6837 45.0835 40.3107 31.8934 35.8458 21.4269C30.6367 9.21604 9.30464 10.2128 8.31251 28.903C7.51049 44.0118 13.2685 53.577 15.6067 57.7929" stroke="#1C0F00" stroke-linecap="round" stroke-linejoin="round"/>
<path d="M41.8294 91.4678C41.5698 90.0556 41.8294 83.2441 47.3579 81.2505" stroke="#1C0F00" stroke-linecap="round" stroke-linejoin="round"/>
</g>
<defs>
<clipPath id="clip0_4745_1462">
<rect width="282" height="306" fill="white"/>
</clipPath>
</defs>
</svg>
