<svg width="647" height="685" viewBox="0 0 647 685" fill="none" xmlns="http://www.w3.org/2000/svg">
<path d="M380.832 520.616C315.078 511.675 307.373 444.74 317.194 404.752L346.988 416.543C342.304 441.664 344.051 485.857 383.914 488.317C433.742 491.394 449.727 416.031 448.7 409.366C467.652 411.827 471.665 424.063 471.303 429.873C467.193 448.329 448.699 529.844 380.832 520.616Z" fill="#EEB36F" stroke="#1C0F00" stroke-width="2" stroke-linecap="round" stroke-linejoin="round"/>
<path d="M598.12 536.047C583.462 572.889 523.001 609.92 478.783 558.782C468.131 546.463 462.107 532.353 459.209 517.754C453.267 524.08 449.616 534.646 447.884 542.408C445.266 554.133 411.183 527.095 418.128 514.81C421.518 508.814 423.741 504.155 428.639 497.947C425.872 496.355 413.26 483.66 409.6 482.167C429.153 466.274 442.093 442.073 446.298 424.563C432.388 421.672 418.555 397.953 434.941 376.942C445.456 363.459 462.393 361.363 472.343 363.103C475.631 363.678 478.382 365.763 480.626 368.229C530.404 422.938 557.17 457.488 594.774 515.083C598.878 521.368 600.895 529.074 598.12 536.047Z" fill="#FFE900"/>
<path d="M446.298 424.563C432.388 421.672 418.555 397.953 434.941 376.942C445.456 363.459 462.393 361.363 472.343 363.103C475.631 363.678 478.382 365.763 480.626 368.229C530.404 422.938 557.17 457.488 594.774 515.083C598.878 521.368 600.895 529.074 598.12 536.047C583.462 572.889 523.001 609.92 478.783 558.782C468.131 546.463 462.107 532.353 459.209 517.754M446.298 424.563C446.989 421.686 447.552 419.059 447.988 416.736M446.298 424.563C442.093 442.073 429.153 466.274 409.6 482.167C413.26 483.66 425.872 496.355 428.639 497.947M474.17 415.361C469.414 427.606 462.612 446.842 459.176 468.376M459.176 468.376C457.767 477.21 456.924 486.43 457.02 495.714C457.097 503.075 457.765 510.475 459.209 517.754M459.176 468.376C442.498 482.569 433.978 491.179 428.639 497.947M459.209 517.754C453.267 524.08 449.616 534.646 447.884 542.408C445.266 554.133 411.183 527.095 418.128 514.81C421.518 508.814 423.741 504.155 428.639 497.947" stroke="#1C0F00" stroke-width="2" stroke-linecap="round" stroke-linejoin="round"/>
<path d="M459.009 467.813C456.774 467.159 450.731 464.991 444.438 461.547" stroke="#1C0F00" stroke-width="2" stroke-linecap="round" stroke-linejoin="round"/>
<path d="M460.626 458.151C459.425 457.997 455.099 456.707 447.402 452.79" stroke="#1C0F00" stroke-width="2" stroke-linecap="round" stroke-linejoin="round"/>
<path d="M463.464 447.553C461.574 447.065 457.073 445.997 449.74 443.224" stroke="#1C0F00" stroke-width="2" stroke-linecap="round" stroke-linejoin="round"/>
<path d="M460.008 521.424C452.516 458.567 511.142 430.338 539.485 437.012C558.202 460.851 574.988 484.775 594.775 515.081C598.878 521.367 600.895 529.073 598.121 536.045C583.462 572.887 523.002 609.918 478.783 558.781C469.027 547.498 463.153 534.712 460.008 521.424Z" fill="white" stroke="#1C0F00" stroke-width="2" stroke-linecap="round" stroke-linejoin="round"/>
<path d="M615.36 519.05C611.435 526.732 603.055 531.109 599.495 531.259C597.103 521.447 569.21 479.469 545.336 446.05C526.236 419.316 486.699 379.393 469.317 362.773C473.595 356.892 480.049 353.435 482.742 352.442C551.496 416.579 600.073 490.029 615.36 519.05Z" fill="white" stroke="#1C0F00" stroke-width="2" stroke-linecap="round" stroke-linejoin="round"/>
<ellipse cx="201.039" cy="668.265" rx="152.054" ry="16.4055" fill="#1C0F00"/>
<ellipse cx="561.654" cy="668.265" rx="85.2738" ry="16.4055" fill="#1C0F00"/>
<path d="M239.051 475.935C236.996 428.359 267.647 401.939 282.715 393.395C286.482 383.996 285.797 366.838 252.921 373.401C233.4 388.268 204.227 412.363 203.092 466.194C202.28 504.724 215.198 536.737 226.346 554.3C208.649 540.972 187.408 531.644 163.012 532.988C95.2548 536.718 87.8586 607.478 108.343 641.456C112.115 647.715 119.252 650.739 126.537 651.318C195.43 656.797 239.223 656.745 313.232 650.791C316.466 650.531 319.708 649.654 322.114 647.479C329.593 640.718 338.37 625.994 334.073 609.376C327.407 583.596 300.139 580.045 289.351 589.273C271.009 566.575 240.916 519.128 239.051 475.935Z" fill="#EEB36F"/>
<path d="M294.53 595.388C292.952 593.624 291.212 591.576 289.351 589.273M279.633 616.92C270.026 601.075 251.874 573.526 226.346 554.3M289.351 589.273C300.139 580.045 327.407 583.596 334.073 609.376C338.37 625.994 329.593 640.718 322.114 647.479C319.708 649.654 316.466 650.531 313.232 650.791C239.223 656.745 195.43 656.797 126.537 651.318C119.252 650.739 112.115 647.715 108.343 641.456C87.8586 607.478 95.2548 536.718 163.012 532.988C187.408 531.644 208.649 540.972 226.346 554.3M289.351 589.273C271.009 566.575 240.916 519.128 239.051 475.935C236.996 428.359 267.647 401.939 282.715 393.395C286.482 383.996 285.797 366.838 252.921 373.401C233.4 388.268 204.227 412.363 203.092 466.194C202.28 504.724 215.198 536.737 226.346 554.3" stroke="#1C0F00" stroke-width="2" stroke-linecap="round" stroke-linejoin="round"/>
<path d="M7.37396 289.373C-8.6535 249.999 12.8537 222.896 25.3536 213.497L71.5863 329.874C55.1479 329.361 20.5215 321.671 7.37396 289.373Z" fill="#EEB36F"/>
<path d="M256.743 70.9008C248.475 67.6346 226.153 65.8468 209.204 78.6362C197.424 87.9982 192.081 98.8731 190.016 108.547C176.604 111.298 147.196 129.691 156.016 169.491C147.567 173.474 137.986 181.032 132.726 194.154C124.459 214.782 132.038 233.691 136.861 240.567C121.565 280.586 141.074 302.28 152.74 308.124C153.048 318.322 155.789 329.51 163.215 339.582C172.247 351.832 183.431 356.885 193.186 358.385C196.906 388.09 226.256 395.278 240.529 392.7C246.682 400.534 255.744 407.729 267.596 410.749C297.138 418.277 313.068 409.374 317.202 404.561C319.786 408.515 329.087 416.628 345.623 417.453C365.465 418.279 375.497 409.202 378.033 404.561C389.395 409.651 404.487 412.06 419.516 404.561C432.031 398.315 439.065 389.4 442.94 380.796C479.732 375.846 486.347 346.903 485.141 333.03C494.305 329.48 504.388 322.813 509.944 311.219C519.039 292.241 513.734 271.681 509.944 263.774C514.594 259.133 523.172 247.581 522.345 226.128C521.519 204.674 512.183 196.514 506.844 192.794C509.614 184.394 511.42 173.744 508.911 163.728C504.777 147.225 490.253 139.661 483.508 137.942C482.665 129.032 479.593 118.851 471.706 107.516C461.371 92.6637 441.219 86.544 432.434 85.3407C422.513 60.5869 397.985 60.0427 386.961 62.8648C381.423 57.0689 372.965 51.2473 360.608 47.6939C343.638 42.8142 329.27 48.5954 320.01 55.4299C314.671 51.4762 301.492 44.3935 284.13 47.694C266.768 50.9945 258.293 64.7124 256.743 70.9008Z" fill="#EEB36F"/>
<path d="M190.085 129.691C188.946 124.901 188.168 117.205 190.016 108.547M320.01 55.4299C314.671 51.4762 301.492 44.3935 284.13 47.694C266.768 50.9945 258.293 64.7124 256.743 70.9008C248.475 67.6346 226.153 65.8468 209.204 78.6362C197.424 87.9982 192.081 98.8731 190.016 108.547M320.01 55.4299C329.27 48.5954 343.638 42.8142 360.608 47.6939C372.965 51.2473 381.423 57.0689 386.961 62.8648M320.01 55.4299C315.961 58.4185 312.888 61.6085 311.001 64.1965M395.746 77.6048C394.981 74.1277 392.355 68.5085 386.961 62.8648M386.961 62.8648C397.985 60.0427 422.513 60.5869 432.434 85.3407C441.218 86.544 461.371 92.6637 471.706 107.516C479.593 118.851 482.665 129.032 483.508 137.942M483.074 153.413C483.678 148.794 484.046 143.627 483.508 137.942M483.508 137.942C490.253 139.661 504.777 147.225 508.911 163.728C511.42 173.744 509.614 184.394 506.844 192.794C512.183 196.514 521.519 204.674 522.345 226.128C523.172 247.581 514.594 259.133 509.944 263.774C513.734 271.681 519.039 292.241 509.944 311.219C504.388 322.813 494.305 329.48 485.141 333.03M470.156 336.488C473.841 336.287 479.305 335.291 485.141 333.03M485.141 333.03C486.347 346.903 479.732 375.846 442.94 380.796M442.94 380.796C439.065 389.4 432.031 398.315 419.516 404.561C404.487 412.06 389.395 409.651 378.033 404.561M442.94 380.796C446.744 372.35 447.505 364.203 447.419 359.179M361.641 393.215C364.832 396.806 370.643 401.25 378.033 404.561M378.033 404.561C375.497 409.202 365.465 418.279 345.623 417.453C329.087 416.628 319.786 408.515 317.202 404.561C313.068 409.374 297.138 418.277 267.596 410.749C255.744 407.729 246.682 400.534 240.529 392.7M230.908 370.009C230.819 375.554 234.073 384.479 240.529 392.7M240.529 392.7C226.256 395.278 196.906 388.09 193.186 358.385C183.431 356.885 172.247 351.832 163.215 339.582C155.789 329.51 153.048 318.322 152.74 308.124M158.048 279.761C155.354 285.602 152.379 296.184 152.74 308.124M190.016 108.547C176.604 111.298 147.196 129.691 156.016 169.491M156.016 169.491C147.567 173.474 137.986 181.032 132.726 194.154C124.459 214.782 132.038 233.691 136.861 240.567C121.565 280.586 141.074 302.28 152.74 308.124M156.016 169.491C160.849 167.212 165.311 166.103 168.382 165.79" stroke="#1C0F00" stroke-width="2" stroke-linecap="round" stroke-linejoin="round"/>
<path d="M298.128 169.573C290.731 167.112 286.947 160.831 286.312 158.295C285.798 156.244 285.529 153.303 287.852 152.142C292.989 149.578 296.587 155.218 302.238 158.294C307.888 161.37 314.053 158.807 315.08 163.421C316.108 168.035 307.375 172.649 298.128 169.573Z" fill="#CC8D44" stroke="#1C0F00" stroke-width="2" stroke-linecap="round" stroke-linejoin="round"/>
<path d="M237.593 169.573C244.99 167.112 248.774 160.831 249.409 158.295C249.922 156.244 250.192 153.303 247.868 152.142C242.732 149.578 239.134 155.218 233.483 158.294C227.832 161.37 221.668 158.807 220.641 163.421C219.385 169.061 228.346 172.649 237.593 169.573Z" fill="#CC8D44" stroke="#1C0F00" stroke-width="2" stroke-linecap="round" stroke-linejoin="round"/>
<path d="M404.805 186.06C401.483 178.302 406.233 163.332 420.424 159.467M433.436 159.027C428.444 158.208 424.115 158.462 420.424 159.467M420.424 159.467C417.822 155.207 414.31 144.848 421.086 137.498" stroke="#1C0F00" stroke-width="2" stroke-linecap="round" stroke-linejoin="round"/>
<path d="M303.329 305.742C283.114 314.518 266.286 299.689 264.582 288.101C262.873 295.107 250.716 296.237 248.154 286.468" stroke="#1C0F00" stroke-width="2" stroke-linecap="round" stroke-linejoin="round"/>
<path d="M294.21 367.406C297.668 363.804 307.063 359.343 316.982 370.317C316.965 367.242 318.515 360.628 324.854 358.768" stroke="#1C0F00" stroke-width="2" stroke-linecap="round" stroke-linejoin="round"/>
<path d="M237.83 129.739C235.793 126.751 229.185 122.632 219.052 130.059C227.497 123.87 230.887 102.114 211.311 97.339" stroke="#1C0F00" stroke-width="2" stroke-linecap="round" stroke-linejoin="round"/>
<path d="M294.709 98.2338C304.01 93.0766 326.23 93.0771 330.773 113.189M330.88 122.472C331.397 120.409 331.199 115.076 330.773 113.189M330.773 113.189C339.148 109.58 354.65 115.252 353.1 132.27" stroke="#1C0F00" stroke-width="2" stroke-linecap="round" stroke-linejoin="round"/>
<path d="M199.716 227.921C189.493 225.704 179.159 232.912 178.048 238.457L194.715 267.843C198.049 269.507 213.05 265.626 215.272 254.536C217.494 243.447 212.494 230.694 199.716 227.921Z" fill="#EEB36F"/>
<path d="M176.381 242.125C176.983 234.495 186.17 226.452 197.468 227.453C210.723 228.627 219.158 243.299 215.543 255.037C212.012 266.502 199.276 269.709 195.661 267.948" stroke="#1C0F00" stroke-width="2" stroke-linecap="round" stroke-linejoin="round"/>
<ellipse cx="199.986" cy="239.364" rx="1.54109" ry="1.53802" fill="#1C0F00"/>
<ellipse cx="186.631" cy="239.364" rx="1.54109" ry="1.53802" fill="#1C0F00"/>
<ellipse cx="194.85" cy="251.669" rx="1.54109" ry="1.53802" fill="#1C0F00"/>
<ellipse cx="207.179" cy="251.669" rx="1.54109" ry="1.53802" fill="#1C0F00"/>
<path d="M194.845 215.135C194.845 217.901 195.139 220.597 195.695 223.196C199.405 240.514 214.829 253.503 233.292 253.503C236.251 253.503 239.142 253.159 241.928 252.509C259.141 248.492 272.294 232.808 272.294 214.581C272.294 193.393 255.083 176.213 233.847 176.213C211.089 176.213 194.845 193.921 194.845 215.135Z" fill="#FFF3E1" stroke="#1C0F00" stroke-width="2" stroke-linejoin="round"/>
<path d="M345.436 215.135C345.436 217.901 345.143 220.597 344.586 223.196C340.876 240.514 325.453 253.503 306.989 253.503C304.03 253.503 301.139 253.159 298.353 252.509C281.14 248.492 267.987 232.808 267.987 214.581C267.987 193.393 285.198 176.213 306.434 176.213C329.193 176.213 345.436 193.921 345.436 215.135Z" fill="#FFF3E1" stroke="#1C0F00" stroke-width="2" stroke-linejoin="round"/>
<ellipse cx="301.209" cy="207.373" rx="31.3355" ry="31.273" fill="#1C0F00"/>
<path d="M278.54 196.182C281.846 194.902 284.366 192.108 285.285 188.661C286.204 192.108 288.724 194.902 292.029 196.182C288.734 197.457 286.216 200.235 285.285 203.665C284.353 200.235 281.835 197.457 278.54 196.182Z" fill="#FFF3E1" stroke="#FFF3E1" stroke-width="2" stroke-linejoin="round"/>
<path d="M296.94 205.373C298.131 204.693 299.086 203.658 299.669 202.416C300.252 203.658 301.207 204.693 302.399 205.373C301.209 206.052 300.254 207.083 299.669 208.322C299.084 207.083 298.129 206.052 296.94 205.373Z" fill="#FFF3E1" stroke="#FFF3E1" stroke-width="2" stroke-linejoin="round"/>
<ellipse cx="228.263" cy="207.51" rx="31.3355" ry="31.273" fill="#1C0F00"/>
<path d="M205.593 196.182C208.899 194.902 211.419 192.108 212.337 188.661C213.256 192.108 215.776 194.902 219.082 196.182C215.787 197.457 213.269 200.235 212.337 203.665C211.406 200.235 208.888 197.457 205.593 196.182Z" fill="#FFF3E1" stroke="#FFF3E1" stroke-width="2" stroke-linejoin="round"/>
<path d="M223.991 205.373C225.183 204.693 226.138 203.658 226.721 202.416C227.304 203.658 228.259 204.693 229.451 205.373C228.261 206.052 227.306 207.083 226.721 208.322C226.136 207.083 225.181 206.052 223.991 205.373Z" fill="#FFF3E1" stroke="#FFF3E1" stroke-width="2" stroke-linejoin="round"/>
<path d="M233.293 253.502C236.252 253.502 239.143 253.158 241.929 252.508C248.368 251.005 254.245 247.868 259.079 243.568C249.782 236.545 239.292 234.774 230.263 236.017C221.351 237.244 214.012 241.377 210.614 246.119C216.972 250.762 224.81 253.502 233.293 253.502Z" fill="#EEB36F" stroke="#1C0F00" stroke-width="2" stroke-linejoin="round"/>
<path d="M307.264 253.396C310.224 253.396 313.115 253.052 315.9 252.402C322.34 250.9 328.217 247.762 333.05 243.463C323.754 236.439 313.264 234.669 304.234 235.912C295.322 237.138 287.984 241.272 284.586 246.014C290.944 250.656 298.782 253.396 307.264 253.396Z" fill="#EEB36F" stroke="#1C0F00" stroke-width="2" stroke-linejoin="round"/>
<path d="M300.182 249.412C296.894 255.564 294.531 256.931 294.017 257.102C290.935 258.64 286.311 257.615 282.202 260.691C276.688 264.818 280.147 275.559 291.962 276.071C303.253 276.561 315.079 269.407 316.106 256.59C317.133 243.773 304.291 241.722 300.182 249.412Z" fill="#CC8D44" stroke="#1C0F00" stroke-width="2" stroke-linecap="round" stroke-linejoin="round"/>
<path d="M291.962 267.356C296.071 267.185 305.318 265.1 307.373 256.077" stroke="#1C0F00" stroke-width="2" stroke-linecap="round" stroke-linejoin="round"/>
<path d="M363.715 79.2616C407.139 108.161 449.612 114.653 465.421 114.286C477.413 111.254 496.037 94.9937 485.225 78.754C474.476 62.609 447.595 63.2187 435.279 65.571C416.93 37.6985 388.326 15.5634 362.248 27.7187C337.536 39.2379 352.929 66.8803 363.715 79.2616Z" fill="#00B261"/>
<path d="M444.312 81.4132C441.704 76.0567 438.667 70.7161 435.279 65.571M435.279 65.571C447.595 63.2187 474.476 62.609 485.225 78.754C496.037 94.9937 477.413 111.254 465.421 114.286C449.612 114.653 407.139 108.161 363.715 79.2616C352.929 66.8803 337.536 39.2379 362.248 27.7187C388.326 15.5634 416.93 37.6985 435.279 65.571Z" stroke="#1C0F00" stroke-width="2" stroke-linecap="round" stroke-linejoin="round"/>
<path d="M429.594 37.1302C421.204 45.6656 430.566 59.3864 435.384 64.961C431.875 54.7805 439.868 51.779 444.291 45.0971C448.935 38.0812 439.247 27.3109 429.594 37.1302Z" fill="#00B261" stroke="#1C0F00" stroke-width="2" stroke-linecap="round" stroke-linejoin="round"/>
<path d="M17.7041 463.196L18.8032 424.746C36.141 441.152 113.196 458.582 155.629 428.335L154.465 467.095C112.008 497.229 35.0262 479.587 17.7041 463.196Z" fill="#FFE900"/>
<path d="M154.465 467.095L155.629 428.335C113.196 458.582 36.141 441.152 18.8032 424.746L17.7041 463.196C35.0262 479.587 112.008 497.229 154.465 467.095ZM154.465 467.095C154.503 467.068 154.542 467.041 154.58 467.013" stroke="#1C0F00" stroke-width="2" stroke-linecap="round" stroke-linejoin="round"/>
<path d="M152.75 524.204C109.188 547.582 37.6817 537.534 16.1064 519.078L17.7038 463.196C35.0258 479.587 112.007 497.229 154.465 467.095L152.75 524.204Z" fill="#FFBAC2"/>
<path d="M154.465 467.095L152.75 524.204C109.188 547.582 37.6817 537.534 16.1064 519.078L17.7038 463.196C35.0258 479.587 112.007 497.229 154.465 467.095ZM154.465 467.095C154.503 467.068 154.542 467.041 154.58 467.013" stroke="#1C0F00" stroke-width="2" stroke-linecap="round" stroke-linejoin="round"/>
<path d="M18.8037 424.746L28.436 113.554C28.436 120.731 34.0867 133.035 50.0113 133.035C68.326 133.035 74.1144 122.174 74.1695 116.202C74.1598 115.997 74.1551 115.798 74.1551 115.604C74.1665 115.797 74.1714 115.997 74.1695 116.202C74.4767 122.719 79.8044 135.086 99.3263 135.086C114.737 135.086 120.388 123.465 120.902 117.655C121.073 123.465 126.039 135.086 144.532 135.086C159.195 135.086 164.557 123.019 165.043 114.782L165.08 113.554C165.08 113.952 165.067 114.362 165.043 114.782L155.629 428.334C113.196 458.582 36.1415 441.151 18.8037 424.746Z" fill="#8BE3FF" stroke="#1C0F00" stroke-width="2" stroke-linecap="round" stroke-linejoin="round"/>
<path d="M98.2982 16.1465L125.362 55.6222C105.49 69.4644 78.9093 61.2616 69.9854 55.6222L98.2982 16.1465Z" fill="#B4B4B4" stroke="#1C0F00" stroke-width="2" stroke-linecap="round" stroke-linejoin="round"/>
<path d="M125.361 55.6221L165.078 113.554C165.078 121.757 159.941 135.086 144.53 135.086C126.037 135.086 121.071 123.466 120.9 117.655C120.386 123.466 114.736 135.086 99.3248 135.086C88.0586 135.086 74.6403 129.04 74.1666 116.303C74.0479 122.296 68.2221 133.036 50.0099 133.036C34.0852 133.036 28.4346 120.731 28.4346 113.554L69.9846 55.6221C78.9085 61.2615 105.489 69.4642 125.361 55.6221Z" fill="#FFF3E1" stroke="#1C0F00" stroke-width="2" stroke-linecap="round" stroke-linejoin="round"/>
<path d="M60.2288 287.425C53.5592 271.044 56.1028 233.238 85.3197 215.535C104.624 203.837 122.507 207.7 130.882 212.023C139.448 216.444 144.002 225.106 146.345 230.561C158.455 221.23 176.798 217.416 195.608 226.624C228.569 242.76 217.897 287.081 203.283 300.269C210.468 303.886 222.62 321.119 212.717 341.214C206.848 353.123 196.842 358.606 185.932 359.612C185.511 373.928 171.139 399.15 128.771 394.593C75.8099 388.897 58.7507 350.394 60.1853 330.677L60.2288 287.425Z" fill="#EEB36F"/>
<path d="M60.2288 287.425C53.5592 271.044 56.1028 233.238 85.3197 215.535C104.624 203.837 122.507 207.7 130.882 212.023C139.448 216.444 144.002 225.106 146.345 230.561M146.345 230.561C158.455 221.23 176.798 217.416 195.608 226.624C228.569 242.76 217.897 287.081 203.283 300.269M146.345 230.561C137.233 237.581 131.649 247.724 132.047 257.794M159.921 307.657C169.886 310.03 191.523 310.881 203.283 300.269M203.283 300.269C210.468 303.886 222.62 321.119 212.717 341.214C206.848 353.123 196.842 358.605 185.932 359.612M132.047 257.794C116.789 253.419 110.764 244.353 109.681 238.978M132.047 257.794C138.203 259.558 145.86 260.559 155.303 260.247M185.932 359.612C185.511 373.928 171.139 399.15 128.771 394.593C75.8099 388.897 57.8086 349.613 59.4989 329.087M185.932 359.612C173.831 360.729 160.617 356.34 150.699 349.107" stroke="#1C0F00" stroke-width="2" stroke-linecap="round" stroke-linejoin="round"/>
<path d="M22.7847 260.149C34.2533 285.369 68.0456 289.93 88.6591 287.577C88.96 298.721 85.6067 322.768 69.7863 329.799C55.2589 328.108 38.7091 323.721 21.2432 309.879L22.7847 260.149Z" fill="#EEB36F"/>
<path d="M88.66 287.576C68.0465 289.93 34.087 286.295 20.731 256.561" stroke="#1C0F00" stroke-width="2" stroke-linecap="round" stroke-linejoin="round"/>
<path d="M72.6134 329.874C51.3806 330.045 7.16873 317.672 2.23723 270.916C-0.936416 240.827 13.0244 222.725 25.4389 214.522" stroke="#1C0F00" stroke-width="2" stroke-linecap="round" stroke-linejoin="round"/>
<path d="M354.212 226.639C367.99 227.97 374.027 236.435 375.324 240.501L351.434 269.888C348.101 269.888 336.433 268.779 331.433 256.581C326.432 244.383 336.988 224.976 354.212 226.639Z" fill="#EEB36F"/>
<path d="M375.327 240.501C374.216 235.511 367.549 227.426 353.66 226.085C336.437 224.421 326.435 243.828 331.435 256.027C336.435 268.225 348.104 269.888 351.437 269.888" stroke="#1C0F00" stroke-width="2" stroke-linecap="round" stroke-linejoin="round"/>
<ellipse cx="358.671" cy="235.056" rx="1.54109" ry="1.53802" fill="#1C0F00"/>
<ellipse cx="341.205" cy="244.284" rx="1.54109" ry="1.53802" fill="#1C0F00"/>
<ellipse cx="351.48" cy="247.36" rx="1.54109" ry="1.53802" fill="#1C0F00"/>
<ellipse cx="365.862" cy="244.284" rx="1.54109" ry="1.53802" fill="#1C0F00"/>
<path d="M513.563 318.101C524.624 304.288 532.956 267.321 509.988 242.058C494.813 225.366 476.568 223.994 467.307 225.762C457.836 227.57 451.001 234.583 447.201 239.148C438.249 226.765 421.75 217.904 401.093 221.395C364.895 227.512 362.5 273.032 372.754 289.822C364.835 291.251 348.275 304.325 352.044 326.4C354.278 339.483 362.309 347.578 372.482 351.64C368.807 365.484 375.4 393.743 417.318 401.396C469.716 410.963 497.04 378.89 501.282 359.58L513.563 318.101Z" fill="#EEB36F"/>
<path d="M513.563 318.101C524.624 304.288 532.956 267.321 509.988 242.058C494.813 225.366 476.568 223.994 467.307 225.762C457.836 227.57 451.001 234.583 447.201 239.148M447.201 239.148C438.249 226.765 421.75 217.904 401.093 221.395C364.895 227.512 362.5 273.032 372.754 289.822M447.201 239.148C453.937 248.463 456.4 259.772 453.15 269.313M412.221 309.209C401.992 308.657 381.005 303.333 372.754 289.822M372.754 289.822C364.835 291.251 348.275 304.325 352.044 326.4C354.278 339.483 362.309 347.578 372.482 351.64M453.15 269.313C469.025 269.449 477.384 262.467 479.954 257.621M453.15 269.313C446.746 269.259 439.119 268.046 430.156 265.066M372.482 351.64C368.807 365.484 375.4 393.743 417.318 401.396C469.716 410.963 498.166 378.409 502.393 358.251M372.482 351.64C383.765 356.144 397.684 355.686 409.253 351.566" stroke="#1C0F00" stroke-width="2" stroke-linecap="round" stroke-linejoin="round"/>
<path d="M588.764 302.236C565.395 363.001 508.189 359.49 482.587 356.685C477.907 336.405 483.802 319.467 487.334 313.532C512.475 319.933 558.154 319.091 562.168 272.997C565.614 233.423 522.613 220.192 495.387 217.116L503.606 193.533C569.489 202.546 605.888 245.058 588.764 302.236Z" fill="#EEB36F"/>
<path d="M487.333 313.532C512.475 319.932 556.932 319.433 561.991 273.442C565.227 244.02 538.537 223.779 511.825 221.355M499.496 193.019C569.359 199.171 605.887 245.057 588.764 302.235C569.867 351.37 528.263 358.612 491.277 357.587" stroke="#1C0F00" stroke-width="2" stroke-linecap="round" stroke-linejoin="round"/>
<ellipse cx="302.75" cy="624.177" rx="15.4109" ry="15.3802" fill="#ECCCFB" stroke="#1C0F00" stroke-width="2" stroke-linecap="round" stroke-linejoin="round"/>
<path d="M108.181 641.187C87.8981 607.106 95.4336 536.709 163.012 532.988C179.292 532.092 194.166 535.947 207.52 542.572C206.13 534.013 199.974 524.675 194.873 518.567C187.168 509.338 229.435 498.911 234.942 511.902C237.63 518.243 239.969 522.844 241.905 530.506C244.857 529.292 247.924 527.726 251.344 525.744C262.218 551.805 278.025 575.258 289.351 589.273C300.139 580.045 327.407 583.597 334.073 609.376C338.351 625.92 329.672 640.586 322.216 647.387C319.752 649.635 316.418 650.536 313.09 650.803C239.282 656.737 195.523 656.794 126.859 651.344C119.366 650.75 112.02 647.638 108.181 641.187Z" fill="#ECCCFB"/>
<path d="M289.351 589.273C300.139 580.045 327.407 583.597 334.073 609.376C338.351 625.92 329.672 640.586 322.216 647.387C319.752 649.635 316.418 650.536 313.09 650.803C239.282 656.737 195.523 656.794 126.859 651.344C119.366 650.75 112.02 647.638 108.181 641.187C87.8981 607.106 95.4336 536.709 163.012 532.988C179.292 532.092 194.166 535.947 207.52 542.572M289.351 589.273C291.212 591.577 292.952 593.625 294.53 595.388M289.351 589.273C278.025 575.258 262.218 551.805 251.344 525.744C247.924 527.726 244.857 529.292 241.905 530.506M279.633 616.921C272.82 605.685 261.711 588.563 246.722 572.698M246.722 572.698C240.573 566.19 233.771 559.893 226.346 554.301C220.458 549.867 214.178 545.875 207.52 542.572M246.722 572.698C245.644 550.849 244.014 538.859 241.905 530.506M207.52 542.572C206.13 534.013 199.974 524.675 194.873 518.567C187.168 509.338 229.435 498.911 234.942 511.902C237.63 518.243 239.969 522.844 241.905 530.506" stroke="#1C0F00" stroke-width="2" stroke-linecap="round" stroke-linejoin="round"/>
<path d="M247.27 572.909C249.153 571.542 254.564 568.09 261.139 565.219" stroke="#1C0F00" stroke-width="2" stroke-linecap="round" stroke-linejoin="round"/>
<path d="M253.948 580.086C254.804 579.231 258.469 576.599 266.277 572.908" stroke="#1C0F00" stroke-width="2" stroke-linecap="round" stroke-linejoin="round"/>
<path d="M260.626 588.801C262.167 587.605 265.763 584.7 272.441 580.599" stroke="#1C0F00" stroke-width="2" stroke-linecap="round" stroke-linejoin="round"/>
<path d="M204.12 540.962C258.571 573.423 245.171 636.995 222.568 655.32C192.224 655.555 162.989 654.213 126.859 651.345C119.366 650.75 112.02 647.638 108.181 641.188C87.8981 607.106 95.4336 536.71 163.012 532.989C177.923 532.168 191.655 535.333 204.12 540.962Z" fill="white" stroke="#1C0F00" stroke-width="2" stroke-linecap="round" stroke-linejoin="round"/>
<path d="M111.14 665.19C107.442 657.398 109.086 648.101 111.14 645.196C120.387 649.298 170.729 652.886 211.825 654.424C244.701 655.655 300.523 648.785 324.324 645.196C326.379 652.169 325.181 659.38 324.324 662.114C231.448 677.29 143.503 670.83 111.14 665.19Z" fill="white" stroke="#1C0F00" stroke-width="2" stroke-linecap="round" stroke-linejoin="round"/>
</svg>
