<svg width="682" height="685" viewBox="0 0 682 685" fill="none" xmlns="http://www.w3.org/2000/svg">
<path d="M176.821 212.326C81.7554 286.795 108.042 364.008 139.105 358.679C161.11 349.577 160.988 320.257 158.176 306.736C143.407 320.311 126.535 314.75 139.386 284.299C142.89 277.119 153.434 261.253 160.55 251.173L176.821 212.326Z" fill="#FFDBD8"/>
<path d="M139.105 358.679C108.042 364.008 81.7554 286.795 176.821 212.326M158.176 306.736C143.407 320.311 126.535 314.75 139.386 284.299C142.89 277.119 153.45 256.284 160.55 251.173" stroke="#1C0F00" stroke-width="2" stroke-linecap="round" stroke-linejoin="round"/>
<ellipse cx="351.333" cy="660.695" rx="241.8" ry="24.3059" fill="#1C0F00"/>
<path d="M264.682 566.086C254.983 524.335 278.717 489.797 290.255 475.622L292.68 442.911C284.475 429.338 284.166 390.206 329.669 395.597C370.232 400.402 352.603 438.036 353.916 470.88C355.228 503.724 364.577 511.406 379.675 537.852C394.773 564.297 386.466 588.118 361.454 605.482C336.442 622.846 276.55 617.177 264.682 566.086Z" fill="#FFDBD8" stroke="#1C0F00" stroke-width="2" stroke-linecap="round" stroke-linejoin="round"/>
<path d="M207.148 475.232C202.188 438.825 236.77 402.486 254.681 388.868C271.214 385.145 278.103 396.97 279.481 403.348C268.286 410.588 244.244 431.585 237.631 457.649C229.364 490.229 271.214 502.124 296.531 466.958L303.764 493.332C270.697 530.567 213.348 520.741 207.148 475.232Z" fill="#FFDBD8"/>
<path d="M303.764 493.332C270.697 530.567 213.348 520.741 207.148 475.232C202.188 438.825 236.77 402.486 254.681 388.868C271.214 385.145 278.103 396.97 279.481 403.348C268.286 410.588 244.244 431.585 237.631 457.649C229.364 490.229 271.214 502.124 296.531 466.958" stroke="#1C0F00" stroke-width="2" stroke-linecap="round" stroke-linejoin="round"/>
<path d="M386.984 580.02C369.892 540.717 389.051 502.448 397.834 486.416L391.634 451.768C384.918 444.01 379.751 401.604 422.117 400.57C462.951 399.573 454.151 438.321 461.384 470.385C468.617 502.448 477.401 508.136 497.034 531.408C516.667 554.68 511.447 580.02 491.351 601.223C471.255 622.426 407.9 628.115 386.984 580.02Z" fill="#FFDBD8" stroke="#1C0F00" stroke-width="2" stroke-linecap="round" stroke-linejoin="round"/>
<path d="M319.817 462.704C322.297 434.158 349.784 410.3 363.734 401.164C358.774 389.579 344.077 387.718 337.349 388.235C319.438 401.853 284.855 438.191 289.815 474.599C296.438 523.21 375.617 531.485 407.134 473.047L399.901 435.295C373.034 498.904 316.717 498.387 319.817 462.704Z" fill="#FFDBD8"/>
<path d="M363.733 401.165C349.783 410.301 322.296 434.159 319.816 462.706C316.716 498.389 373.033 498.906 399.9 435.297" stroke="#1C0F00" stroke-width="2" stroke-linecap="round" stroke-linejoin="round"/>
<path d="M337.349 388.235C319.438 401.854 284.855 438.192 289.815 474.599C296.438 523.211 375.617 531.485 407.134 473.048" stroke="#1C0F00" stroke-width="2" stroke-linecap="round" stroke-linejoin="round"/>
<path d="M129.685 170.441C125.537 188.707 143.118 191.644 150.868 188.541C151.694 203.021 147.079 215.605 144.668 220.087C138.595 233.459 128.062 230.063 123.263 226.516C112.543 236.193 95.9865 235.185 87.441 232.226C83.3433 234.003 78.5343 235.084 73.8847 235.084C53.1808 235.084 46.6459 225.157 45.957 221.019C1.26696 225.41 -3.90481 199.374 4.65132 198.367C13.4346 197.333 44.4343 191.127 75.9513 161.649C104.904 134.57 122.968 114.589 132.784 131.138C139.087 141.763 134.851 147.686 129.685 170.441Z" fill="#CCF3FF"/>
<path d="M82.6677 189.575C81.1177 198.367 72.3344 216.881 49.6013 220.604C48.3584 220.765 47.1437 220.903 45.957 221.019M45.957 221.019C46.6459 225.157 53.1808 235.084 73.8847 235.084C78.5343 235.084 83.3433 234.003 87.441 232.226M45.957 221.019C1.26696 225.41 -3.90481 199.374 4.65132 198.367C13.4346 197.333 44.4343 191.127 75.9513 161.649C104.904 134.57 122.968 114.589 132.784 131.138C139.087 141.763 134.851 147.686 129.685 170.441C125.537 188.707 143.118 191.644 150.868 188.541C151.694 203.021 147.079 215.605 144.668 220.087C138.595 233.459 128.062 230.063 123.263 226.516M111.601 207.158C108.608 214.583 100.109 226.731 87.441 232.226M87.441 232.226C95.9865 235.185 112.543 236.193 123.263 226.516M131.235 213.881C129.449 219.341 126.647 223.461 123.263 226.516" stroke="#1C0F00" stroke-width="2" stroke-linecap="round" stroke-linejoin="round"/>
<path d="M547.249 170.441C551.396 188.707 533.816 191.644 526.066 188.541C525.239 203.021 529.855 215.605 532.266 220.087C538.338 233.459 548.871 230.063 553.671 226.516C564.391 236.193 580.947 235.185 589.493 232.226C593.59 234.003 598.399 235.084 603.049 235.084C623.753 235.084 630.288 225.157 630.977 221.019C675.667 225.41 680.838 199.374 672.282 198.367C663.499 197.333 632.499 191.127 600.982 161.649C572.03 134.57 553.966 114.589 544.149 131.138C537.846 141.763 542.083 147.686 547.249 170.441Z" fill="#CCF3FF"/>
<path d="M594.266 189.575C595.816 198.367 604.599 216.881 627.332 220.604C628.575 220.765 629.79 220.903 630.977 221.019M630.977 221.019C630.288 225.157 623.753 235.084 603.049 235.084C598.399 235.084 593.59 234.003 589.493 232.226M630.977 221.019C675.667 225.41 680.838 199.374 672.282 198.367C663.499 197.333 632.499 191.127 600.982 161.649C572.03 134.57 553.966 114.589 544.149 131.138C537.846 141.763 542.083 147.686 547.249 170.441C551.396 188.707 533.816 191.644 526.066 188.541C525.239 203.021 529.855 215.605 532.266 220.087C538.338 233.459 548.871 230.063 553.671 226.516M565.332 207.158C568.325 214.583 576.824 226.731 589.493 232.226M589.493 232.226C580.947 235.185 564.391 236.193 553.671 226.516M545.699 213.881C547.484 219.341 550.287 223.461 553.671 226.516" stroke="#1C0F00" stroke-width="2" stroke-linecap="round" stroke-linejoin="round"/>
<path d="M273.029 70.0108C264.713 66.7162 242.262 64.9127 225.216 77.8137C213.367 87.2575 207.993 98.2273 205.916 107.986C192.427 110.76 162.849 129.314 171.72 169.462C163.222 173.48 153.585 181.103 148.296 194.34C139.98 215.148 147.603 234.222 152.454 241.158C137.07 281.526 156.691 303.41 168.425 309.305C168.734 319.592 171.491 330.878 178.961 341.038C188.045 353.395 199.293 358.491 209.104 360.005C212.846 389.969 242.366 397.22 256.721 394.619C262.91 402.522 272.025 409.78 283.944 412.826C313.657 420.419 329.68 411.439 333.838 406.584C336.436 410.572 345.791 418.756 362.422 419.589C382.38 420.421 392.469 411.266 395.02 406.584C406.447 411.718 421.627 414.149 436.742 406.584C449.331 400.284 456.405 391.291 460.302 382.612C497.306 377.618 503.96 348.423 502.747 334.428C511.965 330.847 522.105 324.122 527.694 312.427C536.841 293.283 531.505 272.544 527.694 264.568C532.371 259.886 540.998 248.233 540.167 226.593C539.335 204.952 529.946 196.72 524.575 192.968C527.361 184.495 529.178 173.752 526.654 163.648C522.496 147.001 507.889 139.372 501.105 137.638C500.256 128.649 497.167 118.379 489.234 106.946C478.84 91.9637 458.571 85.7906 449.735 84.5768C439.757 59.6069 415.087 59.0579 404 61.9047C398.429 56.0582 389.923 50.1858 377.494 46.6013C360.427 41.679 345.976 47.5107 336.662 54.4049C331.291 50.4166 318.037 43.2721 300.574 46.6015C283.112 49.9308 274.588 63.7684 273.029 70.0108Z" fill="#FFDBD8"/>
<path d="M205.985 129.314C204.84 124.482 204.058 116.719 205.916 107.986M336.662 54.4049C331.291 50.4166 318.037 43.2721 300.574 46.6015C283.112 49.9308 274.588 63.7684 273.029 70.0108C264.713 66.7162 242.262 64.9127 225.216 77.8137C213.367 87.2575 207.993 98.2273 205.916 107.986M336.662 54.4049C345.976 47.5107 360.427 41.679 377.494 46.6013C389.923 50.1858 398.429 56.0582 404 61.9047M336.662 54.4049C332.589 57.4196 329.498 60.6374 327.601 63.248M412.835 76.7733C412.066 73.2659 409.425 67.5976 404 61.9047M404 61.9047C415.087 59.0579 439.757 59.6069 449.735 84.5768C458.571 85.7906 478.84 91.9637 489.234 106.946C497.167 118.379 500.256 128.649 501.105 137.638M500.668 153.244C501.275 148.584 501.646 143.372 501.105 137.638M501.105 137.638C507.889 139.372 522.496 147.001 526.654 163.648C529.178 173.752 527.361 184.495 524.575 192.968M518.858 205.785C520.561 202.99 522.771 198.455 524.575 192.968M524.575 192.968C529.946 196.72 539.335 204.952 540.167 226.593C540.998 248.233 532.371 259.886 527.694 264.568C531.505 272.544 536.841 293.283 527.694 312.427C522.105 324.122 511.965 330.847 502.747 334.428M487.675 337.917C491.382 337.714 496.877 336.709 502.747 334.428M502.747 334.428C503.96 348.423 497.306 377.618 460.302 382.612M460.302 382.612C456.405 391.291 449.331 400.284 436.742 406.584C421.627 414.149 406.447 411.718 395.02 406.584M460.302 382.612C464.129 374.091 464.893 365.874 464.807 360.806M378.534 395.139C381.742 398.761 387.588 403.244 395.02 406.584M395.02 406.584C392.469 411.266 382.38 420.421 362.422 419.589C345.791 418.756 336.436 410.572 333.838 406.584C329.68 411.439 313.657 420.419 283.944 412.826C272.025 409.78 262.91 402.522 256.721 394.619C242.366 397.22 212.846 389.969 209.104 360.005M209.104 360.005C199.293 358.491 188.045 353.395 178.961 341.038C171.491 330.878 168.734 319.592 168.425 309.305M209.104 360.005C216.806 361.193 223.623 360.174 227.813 358.725M173.763 280.694C171.054 286.586 168.062 297.261 168.425 309.305M205.916 107.986C192.427 110.76 162.849 129.314 171.72 169.462M171.72 169.462C163.222 173.48 153.585 181.103 148.296 194.34C139.98 215.148 147.603 234.222 152.454 241.158C137.07 281.526 156.691 303.41 168.425 309.305M171.72 169.462C176.58 167.163 181.069 166.044 184.157 165.729" stroke="#1C0F00" stroke-width="2" stroke-linecap="round" stroke-linejoin="round"/>
<path d="M450.259 282.93C450.921 293.125 438.5 312.015 419.954 307.441M406.642 300.468C411.335 304.212 415.798 306.416 419.954 307.441M419.954 307.441C417.425 312.155 409.693 319.78 399 312.566" stroke="#1C0F00" stroke-width="2" stroke-linecap="round" stroke-linejoin="round"/>
<path d="M217.135 298.452C224.317 299.732 234.749 311.493 225.011 324.589" stroke="#1C0F00" stroke-width="2" stroke-linecap="round" stroke-linejoin="round"/>
<path d="M511.638 240.303C517.253 244.964 521.833 258.172 506.905 264.75" stroke="#1C0F00" stroke-width="2" stroke-linecap="round" stroke-linejoin="round"/>
<path d="M429.43 187.797C426.089 179.971 430.867 164.871 445.139 160.972M458.227 160.528C453.206 159.701 448.851 159.958 445.139 160.972M445.139 160.972C442.522 156.674 438.99 146.225 445.805 138.811" stroke="#1C0F00" stroke-width="2" stroke-linecap="round" stroke-linejoin="round"/>
<path d="M310.711 369.103C314.189 365.469 323.638 360.969 333.615 372.039C333.597 368.937 335.156 362.265 341.532 360.389" stroke="#1C0F00" stroke-width="2" stroke-linecap="round" stroke-linejoin="round"/>
<path d="M254.008 129.361C251.959 126.347 245.313 122.193 235.121 129.685C243.614 123.441 247.025 101.495 227.335 96.679" stroke="#1C0F00" stroke-width="2" stroke-linecap="round" stroke-linejoin="round"/>
<path d="M311.213 97.5813C320.568 92.3791 342.916 92.3795 347.485 112.667M347.593 122.031C348.113 119.95 347.914 114.571 347.485 112.667M347.485 112.667C355.909 109.026 371.501 114.748 369.941 131.915" stroke="#1C0F00" stroke-width="2" stroke-linecap="round" stroke-linejoin="round"/>
<path d="M210.768 215.362C210.768 236.743 228.084 254.074 249.443 254.074C270.801 254.074 288.676 236.184 288.676 214.803C288.676 193.423 271.36 176.092 250.001 176.092C227.11 176.092 210.768 193.956 210.768 215.362Z" fill="#FFF3E1" stroke="#1C0F00" stroke-width="2" stroke-linejoin="round"/>
<path d="M362.24 215.362C362.24 236.743 344.924 254.074 323.565 254.074C302.207 254.074 284.332 236.184 284.332 214.803C284.332 193.423 301.648 176.092 323.006 176.092C345.897 176.092 362.24 193.956 362.24 215.362Z" fill="#FFF3E1" stroke="#1C0F00" stroke-width="2" stroke-linejoin="round"/>
<path d="M314.652 169.545C307.212 167.062 303.406 160.726 302.767 158.167C302.251 156.099 301.979 153.132 304.316 151.962C309.483 149.375 313.102 155.064 318.785 158.167C324.468 161.27 330.668 158.684 331.702 163.339C332.735 167.993 323.952 172.647 314.652 169.545Z" fill="#FFBAC2" stroke="#1C0F00" stroke-width="2" stroke-linecap="round" stroke-linejoin="round"/>
<path d="M253.766 169.545C261.206 167.062 265.012 160.726 265.651 158.167C266.167 156.099 266.439 153.132 264.102 151.962C258.935 149.375 255.316 155.064 249.633 158.167C243.95 161.27 237.75 158.684 236.716 163.339C235.453 169.028 244.466 172.647 253.766 169.545Z" fill="#FFBAC2" stroke="#1C0F00" stroke-width="2" stroke-linecap="round" stroke-linejoin="round"/>
<path d="M301.166 258.725C300.002 256.452 297.631 254.46 294.478 254.559" stroke="#1C0F00" stroke-width="2" stroke-linecap="round" stroke-linejoin="round"/>
<path d="M270.072 256.207C271.734 254.269 274.503 252.885 277.547 253.718" stroke="#1C0F00" stroke-width="2" stroke-linecap="round" stroke-linejoin="round"/>
<path d="M273.618 255.053C274.816 273.858 294.85 269.823 297.468 256.49" stroke="#1C0F00" stroke-width="2" stroke-linecap="round" stroke-linejoin="round"/>
<path d="M210.768 215.501C210.768 218.292 211.063 221.013 211.623 223.634C215.355 241.11 230.872 254.213 249.443 254.213C252.419 254.213 255.327 253.865 258.129 253.21C275.443 249.158 288.676 233.335 288.676 214.942C288.676 193.561 271.36 176.23 250.001 176.23C227.11 176.23 210.768 194.095 210.768 215.501Z" fill="#FFF3E1" stroke="#1C0F00" stroke-width="2" stroke-linejoin="round"/>
<ellipse cx="254.718" cy="208.846" rx="31.5167" ry="31.546" fill="#1C0F00"/>
<path d="M211.879 224.748C216.021 241.663 231.269 254.211 249.443 254.211C252.025 254.211 254.556 253.95 257.011 253.453C247.345 228.798 223.702 224.022 211.879 224.748Z" fill="#FFDBD8" stroke="#1C0F00" stroke-width="2" stroke-linejoin="round"/>
<path d="M238.207 196.039L238.207 196.04C238.207 196.04 238.207 196.039 238.207 196.039L238.703 195.98L238.207 196.039ZM231.895 206.869C235.238 205.579 237.784 202.752 238.703 199.265C239.621 202.752 242.168 205.579 245.51 206.869C242.178 208.153 239.635 210.963 238.703 214.433C237.771 210.963 235.227 208.153 231.895 206.869Z" fill="#FFF3E1" stroke="#FFF3E1" stroke-width="2" stroke-linejoin="round"/>
<path d="M362.24 215.501C362.24 218.292 361.945 221.013 361.385 223.634C357.652 241.11 342.136 254.213 323.565 254.213C320.589 254.213 317.68 253.865 314.879 253.21C297.565 249.158 284.332 233.335 284.332 214.942C284.332 193.561 301.648 176.23 323.006 176.23C345.897 176.23 362.24 194.095 362.24 215.501Z" fill="#FFF3E1" stroke="#1C0F00" stroke-width="2" stroke-linejoin="round"/>
<ellipse cx="327.052" cy="208.846" rx="31.5167" ry="31.546" fill="#1C0F00"/>
<path d="M361.131 224.748C356.989 241.663 341.74 254.211 323.567 254.211C320.984 254.211 318.453 253.95 315.999 253.453C325.664 228.798 349.308 224.022 361.131 224.748Z" fill="#FFDBD8" stroke="#1C0F00" stroke-width="2" stroke-linejoin="round"/>
<path d="M310.539 196.039L310.539 196.04C310.539 196.04 310.539 196.039 310.539 196.039L311.035 195.98L310.539 196.039ZM304.227 206.869C307.57 205.579 310.116 202.752 311.035 199.265C311.954 202.752 314.5 205.579 317.842 206.869C314.51 208.153 311.967 210.963 311.035 214.433C310.103 210.963 307.559 208.153 304.227 206.869Z" fill="#FFF3E1" stroke="#FFF3E1" stroke-width="2" stroke-linejoin="round"/>
<path d="M324.808 215.999C326.015 215.313 326.982 214.264 327.569 213.005C328.156 214.264 329.123 215.313 330.33 215.999C329.125 216.684 328.158 217.729 327.569 218.985C326.98 217.729 326.013 216.684 324.808 215.999Z" fill="#FFF3E1" stroke="#FFF3E1" stroke-width="2" stroke-linejoin="round"/>
<path d="M251.441 215.999C252.648 215.313 253.615 214.264 254.202 213.005C254.789 214.264 255.756 215.313 256.963 215.999C255.758 216.684 254.791 217.729 254.202 218.985C253.613 217.729 252.646 216.684 251.441 215.999Z" fill="#FFF3E1" stroke="#FFF3E1" stroke-width="2" stroke-linejoin="round"/>
<path d="M371.059 227.108C384.918 228.45 390.99 236.989 392.294 241.091L368.266 270.734C364.913 270.734 353.178 269.616 348.149 257.311C343.12 245.006 353.737 225.43 371.059 227.108Z" fill="#FFDBD8"/>
<path d="M392.297 241.091C391.18 236.057 384.474 227.902 370.504 226.548C353.182 224.87 343.122 244.447 348.151 256.752C353.181 269.057 364.917 270.734 368.269 270.734" stroke="#1C0F00" stroke-width="2" stroke-linecap="round" stroke-linejoin="round"/>
<ellipse cx="375.544" cy="235.598" rx="1.55" ry="1.55144" fill="#1C0F00"/>
<ellipse cx="357.978" cy="244.907" rx="1.55" ry="1.55144" fill="#1C0F00"/>
<ellipse cx="368.312" cy="248.009" rx="1.55" ry="1.55144" fill="#1C0F00"/>
<ellipse cx="382.777" cy="244.907" rx="1.55" ry="1.55144" fill="#1C0F00"/>
<path d="M215.672 228.402C205.39 226.164 194.996 233.435 193.879 239.029L210.643 268.672C213.996 270.35 229.083 266.435 231.318 255.249C233.553 244.062 228.524 231.198 215.672 228.402Z" fill="#FFDBD8"/>
<path d="M192.201 242.73C192.807 235.033 202.047 226.92 213.411 227.929C226.742 229.113 235.226 243.913 231.59 255.754C228.038 267.319 215.228 270.554 211.593 268.778" stroke="#1C0F00" stroke-width="2" stroke-linecap="round" stroke-linejoin="round"/>
<ellipse cx="215.943" cy="239.944" rx="1.55" ry="1.55144" fill="#1C0F00"/>
<ellipse cx="202.511" cy="239.944" rx="1.55" ry="1.55144" fill="#1C0F00"/>
<ellipse cx="210.777" cy="252.355" rx="1.55" ry="1.55144" fill="#1C0F00"/>
<ellipse cx="223.177" cy="252.355" rx="1.55" ry="1.55144" fill="#1C0F00"/>
<path fill-rule="evenodd" clip-rule="evenodd" d="M425.968 49.6274C459.769 60.5935 490.056 60.5697 493.617 49.5741C497.178 38.5786 472.663 20.7751 438.862 9.80903C405.061 -1.15708 374.774 -1.13323 371.213 9.86231C367.652 20.8578 392.167 38.6613 425.968 49.6274ZM431.961 36.3405C453.509 43.3314 472.032 45.7417 473.333 41.7241C474.634 37.7065 458.221 28.7824 436.673 21.7915C415.125 14.8006 396.602 12.3903 395.301 16.4079C394 20.4255 410.413 29.3496 431.961 36.3405Z" fill="#FFE900" stroke="#1C0F00" stroke-width="2" stroke-linecap="round" stroke-linejoin="round"/>
<path d="M151.779 312.58C153.277 310.786 154.823 309.037 156.395 307.341C174.903 287.365 198.342 281.168 226.242 286.857C228.082 287.137 230.182 287.504 231.925 287.891C238.175 284.54 243.238 280.295 248.301 274.237C262.089 257.738 285.332 286.852 270.651 308.981C270.153 309.732 269.639 310.446 269.112 311.126C282.1 325.887 287.693 343.864 289.287 354.617C292.055 373.295 282.83 404.391 254.704 403.735C252.064 408.921 247.989 413.865 242.111 418.212C224.421 430.901 204.139 425.001 197.369 416.115C191.587 421.434 183.285 424.718 172.191 424.285C145.8 421.719 140.146 392.232 145.991 378.793C142.82 375.84 140.336 372.778 138.456 369.64C134.437 360.574 131.475 336.469 151.779 312.58Z" fill="#FFDBD8"/>
<path d="M159.257 401.631C165.243 391.032 163.583 370.254 152.894 372.119C149.916 372.638 147.57 375.068 146.026 378.618M200.504 367.242C210.672 380.512 210.759 403.654 197.404 415.94M197.404 415.94C191.622 421.259 183.32 424.544 172.226 424.11C145.835 421.544 140.181 392.058 146.026 378.618M197.404 415.94C204.175 424.826 224.456 430.726 242.146 418.037C248.024 413.691 252.1 408.746 254.739 403.56M146.026 378.618C135.879 369.169 133.781 356.768 136.386 345.435M246.048 356.112C255.964 365.191 263.782 385.792 254.739 403.56M254.739 403.56C282.865 404.217 292.09 373.12 289.322 354.442C287.761 343.911 282.274 326.086 269.053 311.072M146.026 325.065C160.166 290.933 195.496 281.799 221.25 285.717C225.016 286.29 228.585 287.061 231.967 288.004M269.053 311.072C269.613 310.356 270.158 309.601 270.685 308.806C285.367 286.677 262.124 257.563 248.336 274.062C243.524 279.819 237.88 284.662 231.967 288.004M269.053 311.072C260.378 301.221 248.375 292.581 231.967 288.004" stroke="#1C0F00" stroke-width="2" stroke-linecap="round" stroke-linejoin="round"/>
<path fill-rule="evenodd" clip-rule="evenodd" d="M434.467 369.581C458.511 389.572 522.955 400.794 556.425 366.603C593.163 329.073 561.428 253.918 527.938 231.12C527.021 243.083 520.618 252.139 517.53 255.172C533.152 271.225 559.794 306.559 537.635 341.302C516.275 374.794 465.107 347.448 421.145 312.522C419.646 310.728 418.101 308.978 416.529 307.282C398.021 287.307 374.582 281.11 346.682 286.798C344.841 287.078 342.742 287.446 340.999 287.833C334.748 284.482 329.686 280.237 324.623 274.178C310.835 257.68 287.592 286.794 302.273 308.923C302.771 309.673 303.285 310.388 303.812 311.068C290.824 325.829 285.23 343.805 283.637 354.558C280.869 373.236 290.094 404.333 318.22 403.676C320.859 408.862 324.935 413.807 330.813 418.153C348.503 430.842 368.784 424.942 375.555 416.056C381.337 421.376 389.639 424.66 400.733 424.227C427.124 421.66 432.778 392.174 426.933 378.734C430.104 375.781 432.588 372.719 434.467 369.581Z" fill="#FFDBD8"/>
<path d="M527.903 230.945C561.394 253.743 593.712 326.242 556.391 366.428C524.999 400.228 462.995 391.403 433.545 370.2M517.496 254.997C533.118 271.05 559.76 306.384 537.601 341.127C516.471 374.257 457.829 346.41 415.462 306.073M413.667 401.572C407.681 390.974 409.341 370.196 420.03 372.06C423.008 372.58 425.354 375.01 426.897 378.559M372.419 367.184C362.252 380.454 362.165 403.596 375.52 415.882M375.52 415.882C381.302 421.201 389.603 424.485 400.698 424.052C427.089 421.486 432.743 391.999 426.897 378.559M375.52 415.882C368.749 424.767 348.468 430.668 330.778 417.979C324.9 413.632 320.824 408.688 318.185 403.502M426.897 378.559C437.045 369.111 439.143 356.709 436.538 345.377M326.876 356.054C316.959 365.133 309.142 385.734 318.185 403.502M318.185 403.502C290.059 404.158 280.834 373.062 283.602 354.384C285.162 343.852 290.65 326.027 303.871 311.013M425.278 320.554C410.812 290.559 377.428 281.741 351.674 285.659C347.908 286.232 344.339 287.003 340.956 287.946M303.871 311.013C303.311 310.297 302.766 309.543 302.238 308.748C287.557 286.619 310.8 257.505 324.588 274.004C329.4 279.761 335.044 284.603 340.956 287.946M303.871 311.013C312.545 301.163 324.549 292.522 340.956 287.946" stroke="#1C0F00" stroke-width="2" stroke-linecap="round" stroke-linejoin="round"/>
</svg>
