<svg width="20" height="20" viewBox="0 0 20 20" fill="none" xmlns="http://www.w3.org/2000/svg">
<g clip-path="url(#clip0_581_26399)">
<path d="M13.1484 1.95271L18.1004 6.90466L7.28228 17.7228L2.33034 17.7228L2.33034 12.7708L13.1484 1.95271Z" stroke="#00525D"/>
<path d="M2.54297 13.271L6.78726 17.5153" stroke="#00525D"/>
<path d="M2.31648 4.53955L4.4389 2.41713L13.6351 11.6134L11.5127 13.7358L2.31648 4.53955Z" fill="#F8FFFE" stroke="#00525D"/>
<path d="M16.1105 12.6738C17.0521 13.6154 17.3848 14.8923 17.4687 15.9839C17.5103 16.5245 17.4895 17.0042 17.4583 17.3482C17.452 17.4177 17.4452 17.4815 17.4385 17.539C17.3811 17.5457 17.3173 17.5524 17.2478 17.5587C16.9038 17.59 16.4241 17.6108 15.8835 17.5692C14.7919 17.4852 13.515 17.1526 12.5734 16.211C11.5966 15.2342 11.5966 13.6506 12.5734 12.6738C13.5501 11.697 15.1338 11.697 16.1105 12.6738Z" fill="#F8FFFE" stroke="#00525D"/>
</g>
<defs>
<clipPath id="clip0_581_26399">
<rect width="20" height="20" rx="2" fill="white"/>
</clipPath>
</defs>
</svg>
