<svg width="26" height="361" viewBox="0 0 26 361" fill="none" xmlns="http://www.w3.org/2000/svg">
<path fill-rule="evenodd" clip-rule="evenodd" d="M6.56096 0.480038C6.56096 0.21492 6.34604 0 6.08093 0C5.81581 0 5.60089 0.21492 5.60089 0.480038L5.60089 4.64146C5.60089 6.23216 4.31137 7.52169 2.72066 7.52169L0.480038 7.52168C0.21492 7.52168 0 7.73661 0 8.00172C0 8.26684 0.21492 8.48176 0.480038 8.48176H2.72066C4.31137 8.48176 5.60089 9.77128 5.60089 11.362L5.60089 15.5235C5.60089 15.7886 5.81581 16.0035 6.08092 16.0035C6.34604 16.0035 6.56096 15.7886 6.56096 15.5235V11.362C6.56096 9.77128 7.85048 8.48176 9.44119 8.48176H11.6817C11.9468 8.48176 12.1617 8.26684 12.1617 8.00172C12.1617 7.73661 11.9468 7.52169 11.6817 7.52169L9.44119 7.52169C7.85048 7.52169 6.56096 6.23216 6.56096 4.64146V0.480038Z" fill="#1C0F00"/>
<path d="M16.3696 339.675L16.5 338.507L16.6304 339.675C17.0556 343.485 19.7812 346.611 23.4424 347.581C19.7811 348.551 17.052 351.675 16.621 355.483L16.5 356.553L16.379 355.483C15.948 351.675 13.2189 348.551 9.5576 347.581C13.2188 346.611 15.9444 343.485 16.3696 339.675Z" fill="#FFE900" stroke="#1C0F00" stroke-linejoin="round"/>
</svg>
