<svg width="340" height="516" viewBox="0 0 340 516" fill="none" xmlns="http://www.w3.org/2000/svg">
<path fill-rule="evenodd" clip-rule="evenodd" d="M6.56096 357.48C6.56096 357.215 6.34604 357 6.08093 357C5.81581 357 5.60089 357.215 5.60089 357.48L5.60089 361.641C5.60089 363.232 4.31137 364.522 2.72066 364.522L0.480038 364.522C0.21492 364.522 0 364.737 0 365.002C0 365.267 0.21492 365.482 0.480038 365.482H2.72066C4.31137 365.482 5.60089 366.771 5.60089 368.362L5.60089 372.523C5.60089 372.789 5.81581 373.004 6.08092 373.004C6.34604 373.004 6.56096 372.789 6.56096 372.523V368.362C6.56096 366.771 7.85048 365.482 9.44119 365.482H11.6817C11.9468 365.482 12.1617 365.267 12.1617 365.002C12.1617 364.737 11.9468 364.522 11.6817 364.522L9.44119 364.522C7.85048 364.522 6.56096 363.232 6.56096 361.641V357.48Z" fill="#1C0F00"/>
<path fill-rule="evenodd" clip-rule="evenodd" d="M170.561 0.480038C170.561 0.21492 170.346 0 170.081 0C169.816 0 169.601 0.21492 169.601 0.480038L169.601 4.64146C169.601 6.23216 168.311 7.52169 166.721 7.52169L164.48 7.52168C164.215 7.52168 164 7.73661 164 8.00172C164 8.26684 164.215 8.48176 164.48 8.48176H166.721C168.311 8.48176 169.601 9.77128 169.601 11.362L169.601 15.5235C169.601 15.7886 169.816 16.0035 170.081 16.0035C170.346 16.0035 170.561 15.7886 170.561 15.5235V11.362C170.561 9.77128 171.85 8.48176 173.441 8.48176H175.682C175.947 8.48176 176.162 8.26684 176.162 8.00172C176.162 7.73661 175.947 7.52169 175.682 7.52169L173.441 7.52169C171.85 7.52169 170.561 6.23216 170.561 4.64146V0.480038Z" fill="#1C0F00"/>
<path fill-rule="evenodd" clip-rule="evenodd" d="M328.707 200.495C328.707 200.221 328.486 200 328.212 200C327.939 200 327.718 200.221 327.718 200.495V210.058C327.718 212.79 325.503 215.004 322.771 215.004L317.495 215.004C317.221 215.004 317 215.226 317 215.499C317 215.772 317.221 215.994 317.495 215.994L322.771 215.994C325.503 215.994 327.718 218.208 327.718 220.94V230.504C327.718 230.777 327.939 230.998 328.212 230.998C328.486 230.998 328.707 230.777 328.707 230.504V220.94C328.707 218.208 330.922 215.994 333.654 215.994L338.93 215.994C339.203 215.994 339.424 215.772 339.424 215.499C339.424 215.226 339.203 215.004 338.93 215.004L333.654 215.004C330.922 215.004 328.707 212.79 328.707 210.058V200.495Z" fill="#1C0F00"/>
<path d="M326.37 494.675L326.5 493.507L326.63 494.675C327.056 498.485 329.781 501.611 333.442 502.581C329.781 503.551 327.052 506.675 326.621 510.483L326.5 511.553L326.379 510.483C325.948 506.675 323.219 503.551 319.558 502.581C323.219 501.611 325.944 498.485 326.37 494.675Z" fill="#FFE900" stroke="#1C0F00" stroke-linejoin="round"/>
</svg>
