<svg width="183" height="616" viewBox="0 0 183 616" fill="none" xmlns="http://www.w3.org/2000/svg">
<path fill-rule="evenodd" clip-rule="evenodd" d="M18.561 0.480038C18.561 0.21492 18.346 0 18.0809 0C17.8158 0 17.6009 0.21492 17.6009 0.480038L17.6009 4.64146C17.6009 6.23216 16.3114 7.52169 14.7207 7.52169L12.48 7.52168C12.2149 7.52168 12 7.73661 12 8.00172C12 8.26684 12.2149 8.48176 12.48 8.48176H14.7207C16.3114 8.48176 17.6009 9.77128 17.6009 11.362L17.6009 15.5235C17.6009 15.7886 17.8158 16.0035 18.0809 16.0035C18.346 16.0035 18.561 15.7886 18.561 15.5235V11.362C18.561 9.77128 19.8505 8.48176 21.4412 8.48176H23.6817C23.9468 8.48176 24.1617 8.26684 24.1617 8.00172C24.1617 7.73661 23.9468 7.52169 23.6817 7.52169L21.4412 7.52169C19.8505 7.52169 18.561 6.23216 18.561 4.64146V0.480038Z" fill="#1C0F00"/>
<path fill-rule="evenodd" clip-rule="evenodd" d="M171.707 95.4947C171.707 95.2215 171.486 95 171.212 95C170.939 95 170.718 95.2215 170.718 95.4947V105.058C170.718 107.79 168.503 110.004 165.771 110.004L160.495 110.004C160.221 110.004 160 110.226 160 110.499C160 110.772 160.221 110.994 160.495 110.994L165.771 110.994C168.503 110.994 170.718 113.208 170.718 115.94V125.504C170.718 125.777 170.939 125.998 171.212 125.998C171.486 125.998 171.707 125.777 171.707 125.504V115.94C171.707 113.208 173.922 110.994 176.654 110.994L181.93 110.994C182.203 110.994 182.424 110.772 182.424 110.499C182.424 110.226 182.203 110.004 181.93 110.004L176.654 110.004C173.922 110.004 171.707 107.79 171.707 105.058V95.4947Z" fill="#1C0F00"/>
<path fill-rule="evenodd" clip-rule="evenodd" d="M11.707 585.495C11.707 585.221 11.4855 585 11.2123 585C10.9391 585 10.7177 585.221 10.7177 585.495V595.058C10.7177 597.79 8.50294 600.004 5.77095 600.004L0.494671 600.004C0.221472 600.004 3.82133e-08 600.226 0 600.499C-3.82133e-08 600.772 0.221472 600.994 0.494671 600.994L5.77095 600.994C8.50294 600.994 10.7177 603.208 10.7177 605.94V615.504C10.7177 615.777 10.9391 615.998 11.2123 615.998C11.4855 615.998 11.707 615.777 11.707 615.504V605.94C11.707 603.208 13.9217 600.994 16.6537 600.994L21.9296 600.994C22.2028 600.994 22.4242 600.772 22.4242 600.499C22.4242 600.226 22.2028 600.004 21.9296 600.004L16.6537 600.004C13.9217 600.004 11.707 597.79 11.707 595.058V585.495Z" fill="#1C0F00"/>
</svg>
