<svg width="1669" height="962" viewBox="0 0 1669 962" fill="none" xmlns="http://www.w3.org/2000/svg">
<path fill-rule="evenodd" clip-rule="evenodd" d="M414.231 19C414.231 18.4477 413.783 18 413.231 18C412.679 18 412.231 18.4477 412.231 19V37.7229C412.231 43.2457 407.754 47.7229 402.231 47.7229L392 47.7229C391.448 47.7229 391 48.1706 391 48.7229C391 49.2752 391.448 49.7229 392 49.7229L402.231 49.7229C407.754 49.7229 412.231 54.2 412.231 59.7229V78.4461C412.231 78.9984 412.679 79.4461 413.231 79.4461C413.783 79.4461 414.231 78.9984 414.231 78.4461V59.7229C414.231 54.2 418.708 49.7229 424.231 49.7229L434.461 49.7229C435.014 49.7229 435.461 49.2752 435.461 48.7229C435.461 48.1706 435.014 47.7229 434.461 47.7229L424.231 47.7229C418.708 47.7229 414.231 43.2457 414.231 37.7229V19Z" fill="#1C0F00"/>
<path fill-rule="evenodd" clip-rule="evenodd" d="M130.231 620C130.231 619.448 129.783 619 129.231 619C128.679 619 128.231 619.448 128.231 620V638.723C128.231 644.246 123.754 648.723 118.231 648.723L108 648.723C107.448 648.723 107 649.171 107 649.723C107 650.275 107.448 650.723 108 650.723L118.231 650.723C123.754 650.723 128.231 655.2 128.231 660.723V679.446C128.231 679.998 128.679 680.446 129.231 680.446C129.783 680.446 130.231 679.998 130.231 679.446V660.723C130.231 655.2 134.708 650.723 140.231 650.723L150.461 650.723C151.014 650.723 151.461 650.275 151.461 649.723C151.461 649.171 151.014 648.723 150.461 648.723L140.231 648.723C134.708 648.723 130.231 644.246 130.231 638.723V620Z" fill="#1C0F00"/>
<path fill-rule="evenodd" clip-rule="evenodd" d="M1264.23 901C1264.23 900.448 1263.78 900 1263.23 900C1262.68 900 1262.23 900.448 1262.23 901V919.723C1262.23 925.246 1257.75 929.723 1252.23 929.723L1242 929.723C1241.45 929.723 1241 930.171 1241 930.723C1241 931.275 1241.45 931.723 1242 931.723L1252.23 931.723C1257.75 931.723 1262.23 936.2 1262.23 941.723V960.446C1262.23 960.998 1262.68 961.446 1263.23 961.446C1263.78 961.446 1264.23 960.998 1264.23 960.446V941.723C1264.23 936.2 1268.71 931.723 1274.23 931.723L1284.46 931.723C1285.01 931.723 1285.46 931.275 1285.46 930.723C1285.46 930.171 1285.01 929.723 1284.46 929.723L1274.23 929.723C1268.71 929.723 1264.23 925.246 1264.23 919.723V901Z" fill="#1C0F00"/>
<path fill-rule="evenodd" clip-rule="evenodd" d="M707.795 753C707.795 752.448 707.347 752 706.795 752C706.243 752 705.795 752.448 705.795 753L705.795 762.513C705.795 765.826 703.109 768.513 699.795 768.513L695 768.513C694.448 768.513 694 768.96 694 769.513C694 770.065 694.448 770.513 695 770.513L699.795 770.513C703.109 770.513 705.795 773.199 705.795 776.513L705.795 786.026C705.795 786.578 706.243 787.026 706.795 787.026C707.347 787.026 707.795 786.578 707.795 786.026L707.795 776.513C707.795 773.199 710.481 770.513 713.795 770.513L718.59 770.513C719.142 770.513 719.59 770.065 719.59 769.513C719.59 768.96 719.142 768.513 718.59 768.513L713.795 768.513C710.481 768.513 707.795 765.826 707.795 762.513L707.795 753Z" fill="#1C0F00"/>
<path fill-rule="evenodd" clip-rule="evenodd" d="M1656.8 181C1656.8 180.448 1656.35 180 1655.8 180C1655.24 180 1654.8 180.448 1654.8 181L1654.8 190.513C1654.8 193.826 1652.11 196.513 1648.8 196.513L1644 196.513C1643.45 196.513 1643 196.96 1643 197.513C1643 198.065 1643.45 198.513 1644 198.513L1648.8 198.513C1652.11 198.513 1654.8 201.199 1654.8 204.513L1654.8 214.026C1654.8 214.578 1655.24 215.026 1655.8 215.026C1656.35 215.026 1656.8 214.578 1656.8 214.026L1656.8 204.513C1656.8 201.199 1659.48 198.513 1662.8 198.513L1667.59 198.513C1668.14 198.513 1668.59 198.065 1668.59 197.513C1668.59 196.96 1668.14 196.513 1667.59 196.513L1662.8 196.513C1659.48 196.513 1656.8 193.826 1656.8 190.513L1656.8 181Z" fill="#1C0F00"/>
<path d="M17.4381 201.669L17.5 201.167L17.5619 201.669C18.3895 208.377 23.1816 213.853 29.588 215.635C23.1812 217.416 18.3822 222.887 17.5435 229.594L17.5 229.942L17.4565 229.594C16.6178 222.887 11.8188 217.416 5.41195 215.635C11.8184 213.853 16.6105 208.377 17.4381 201.669Z" fill="#FFE900" stroke="#1C0F00" stroke-width="2" stroke-linejoin="round"/>
<path d="M846.438 8.66852L846.5 8.167L846.562 8.66852C847.389 15.3767 852.182 20.8534 858.588 22.6355C852.181 24.4162 847.382 29.8875 846.544 36.5938L846.5 36.9417L846.456 36.5938C845.618 29.8875 840.819 24.4162 834.412 22.6355C840.818 20.8534 845.611 15.3767 846.438 8.66852Z" fill="#FFE900" stroke="#1C0F00" stroke-width="2" stroke-linejoin="round"/>
<path d="M1060.44 624.669L1060.5 624.167L1060.56 624.669C1061.39 631.377 1066.18 636.853 1072.59 638.635C1066.18 640.416 1061.38 645.887 1060.54 652.594L1060.5 652.942L1060.46 652.594C1059.62 645.887 1054.82 640.416 1048.41 638.635C1054.82 636.853 1059.61 631.377 1060.44 624.669Z" fill="#FFE900" stroke="#1C0F00" stroke-width="2" stroke-linejoin="round"/>
</svg>
