<svg width="1252" height="707" viewBox="0 0 1252 707" fill="none" xmlns="http://www.w3.org/2000/svg">
<path d="M12.9483 144.654L13 144.228L13.0517 144.654C13.6592 149.663 17.2262 153.759 22.0047 155.102C17.2259 156.445 13.6539 160.537 13.0382 165.544L13 165.855L12.9618 165.544C12.3461 160.537 8.77409 156.445 3.99526 155.102C8.77383 153.759 12.3408 149.663 12.9483 144.654Z" fill="#FFE900" stroke="#1C0F00" stroke-width="1.5" stroke-linejoin="round"/>
<path d="M634.948 6.6544L635 6.2284L635.052 6.6544C635.659 11.6629 639.226 15.7592 644.005 17.1024C639.226 18.4446 635.654 22.5369 635.038 27.5441L635 27.8546L634.962 27.5441C634.346 22.5369 630.774 18.4446 625.995 17.1024C630.774 15.7592 634.341 11.6629 634.948 6.6544Z" fill="#FFE900" stroke="#1C0F00" stroke-width="1.5" stroke-linejoin="round"/>
<path d="M795.948 460.654L796 460.228L796.052 460.654C796.659 465.663 800.226 469.759 805.005 471.102C800.226 472.445 796.654 476.537 796.038 481.544L796 481.855L795.962 481.544C795.346 476.537 791.774 472.445 786.995 471.102C791.774 469.759 795.341 465.663 795.948 460.654Z" fill="#FFE900" stroke="#1C0F00" stroke-width="1.5" stroke-linejoin="round"/>
<path fill-rule="evenodd" clip-rule="evenodd" d="M311.75 8.75C311.75 8.33579 311.414 8 311 8C310.585 8 310.25 8.33579 310.25 8.75V23.249C310.25 27.3912 306.892 30.749 302.75 30.749L294.75 30.749C294.336 30.749 294 31.0848 294 31.499C294 31.9133 294.336 32.249 294.75 32.249L302.75 32.249C306.892 32.249 310.25 35.6069 310.25 39.749V54.2482C310.25 54.6624 310.585 54.9982 311 54.9982C311.414 54.9982 311.75 54.6624 311.75 54.2482V39.749C311.75 35.6069 315.107 32.249 319.25 32.249L327.249 32.2491C327.663 32.2491 327.999 31.9133 327.999 31.4991C327.999 31.0848 327.663 30.7491 327.249 30.7491L319.25 30.749C315.107 30.749 311.75 27.3912 311.75 23.249V8.75Z" fill="#1C0F00"/>
<path fill-rule="evenodd" clip-rule="evenodd" d="M948.75 660.75C948.75 660.336 948.414 660 948 660C947.585 660 947.25 660.336 947.25 660.75V675.249C947.25 679.391 943.892 682.749 939.75 682.749L931.75 682.749C931.336 682.749 931 683.085 931 683.499C931 683.913 931.336 684.249 931.75 684.249L939.75 684.249C943.892 684.249 947.25 687.607 947.25 691.749V706.248C947.25 706.662 947.585 706.998 948 706.998C948.414 706.998 948.75 706.662 948.75 706.248V691.749C948.75 687.607 952.107 684.249 956.25 684.249L964.249 684.249C964.663 684.249 964.999 683.913 964.999 683.499C964.999 683.085 964.663 682.749 964.249 682.749L956.25 682.749C952.107 682.749 948.75 679.391 948.75 675.249V660.75Z" fill="#1C0F00"/>
<path fill-rule="evenodd" clip-rule="evenodd" d="M98.7495 453.75C98.7495 453.336 98.4138 453 97.9995 453C97.5853 453 97.2495 453.336 97.2495 453.75V468.249C97.2495 472.391 93.8917 475.749 89.7495 475.749L81.75 475.749C81.3358 475.749 81 476.085 81 476.499C81 476.913 81.3358 477.249 81.75 477.249L89.7495 477.249C93.8917 477.249 97.2495 480.607 97.2495 484.749V499.248C97.2495 499.662 97.5853 499.998 97.9995 499.998C98.4137 499.998 98.7495 499.662 98.7495 499.248V484.749C98.7495 480.607 102.107 477.249 106.25 477.249L114.249 477.249C114.663 477.249 114.999 476.913 114.999 476.499C114.999 476.085 114.663 475.749 114.249 475.749L106.25 475.749C102.107 475.749 98.7495 472.391 98.7495 468.249V453.75Z" fill="#1C0F00"/>
<path fill-rule="evenodd" clip-rule="evenodd" d="M1243.25 128.75C1243.25 128.336 1242.91 128 1242.5 128C1242.09 128 1241.75 128.336 1241.75 128.75V135.252C1241.75 137.737 1239.74 139.752 1237.25 139.752L1233.75 139.752C1233.34 139.752 1233 140.087 1233 140.502C1233 140.916 1233.34 141.252 1233.75 141.252L1237.25 141.252C1239.74 141.252 1241.75 143.266 1241.75 145.752V152.254C1241.75 152.668 1242.09 153.004 1242.5 153.004C1242.91 153.004 1243.25 152.668 1243.25 152.254V145.752C1243.25 143.266 1245.27 141.252 1247.75 141.252L1251.25 141.252C1251.67 141.252 1252 140.916 1252 140.502C1252 140.087 1251.67 139.752 1251.25 139.752L1247.75 139.752C1245.27 139.752 1243.25 137.737 1243.25 135.252V128.75Z" fill="#1C0F00"/>
<path fill-rule="evenodd" clip-rule="evenodd" d="M531.25 557.75C531.25 557.336 530.915 557 530.5 557C530.086 557 529.75 557.336 529.75 557.75V564.252C529.75 566.737 527.736 568.752 525.25 568.752L521.75 568.752C521.336 568.752 521 569.087 521 569.502C521 569.916 521.336 570.252 521.75 570.252L525.25 570.252C527.736 570.252 529.75 572.266 529.75 574.752V581.254C529.75 581.668 530.086 582.004 530.5 582.004C530.915 582.004 531.25 581.668 531.25 581.254V574.752C531.25 572.266 533.265 570.252 535.75 570.252L539.251 570.252C539.665 570.252 540.001 569.916 540.001 569.502C540.001 569.087 539.665 568.752 539.251 568.752L535.75 568.752C533.265 568.752 531.25 566.737 531.25 564.252V557.75Z" fill="#1C0F00"/>
</svg>
