<svg width="457" height="675" viewBox="0 0 457 675" fill="none" xmlns="http://www.w3.org/2000/svg">
<path fill-rule="evenodd" clip-rule="evenodd" d="M440.75 0.75C440.75 0.335786 440.414 0 440 0C439.585 0 439.25 0.335786 439.25 0.75V15.249C439.25 19.3912 435.892 22.749 431.75 22.749L423.75 22.749C423.336 22.749 423 23.0848 423 23.499C423 23.9133 423.336 24.249 423.75 24.249L431.75 24.249C435.892 24.249 439.25 27.6069 439.25 31.749V46.2482C439.25 46.6624 439.585 46.9982 440 46.9982C440.414 46.9982 440.75 46.6624 440.75 46.2482V31.7491C440.75 27.6069 444.107 24.249 448.25 24.249L456.249 24.2491C456.663 24.2491 456.999 23.9133 456.999 23.4991C456.999 23.0848 456.663 22.7491 456.249 22.7491L448.25 22.749C444.107 22.749 440.75 19.3912 440.75 15.249V0.75Z" fill="#1C0F00"/>
<path fill-rule="evenodd" clip-rule="evenodd" d="M80.2505 188.75C80.2505 188.336 79.9147 188 79.5005 188C79.0862 188 78.7505 188.336 78.7505 188.75V195.252C78.7505 197.737 76.7357 199.752 74.2505 199.752H70.75C70.3358 199.752 70 200.087 70 200.502C70 200.916 70.3358 201.252 70.75 201.252H74.2505C76.7357 201.252 78.7505 203.266 78.7505 205.752V212.254C78.7505 212.668 79.0862 213.004 79.5005 213.004C79.9147 213.004 80.2505 212.668 80.2505 212.254V205.752C80.2505 203.266 82.2652 201.252 84.7505 201.252H88.2512C88.6654 201.252 89.0012 200.916 89.0012 200.502C89.0012 200.087 88.6654 199.752 88.2512 199.752H84.7505C82.2652 199.752 80.2505 197.737 80.2505 195.252V188.75Z" fill="#1C0F00"/>
<path fill-rule="evenodd" clip-rule="evenodd" d="M388.25 513.75C388.25 513.336 387.915 513 387.5 513C387.086 513 386.75 513.336 386.75 513.75V520.252C386.75 522.737 384.736 524.752 382.25 524.752H378.75C378.336 524.752 378 525.087 378 525.502C378 525.916 378.336 526.252 378.75 526.252H382.25C384.736 526.252 386.75 528.266 386.75 530.752V537.254C386.75 537.668 387.086 538.004 387.5 538.004C387.915 538.004 388.25 537.668 388.25 537.254V530.752C388.25 528.266 390.265 526.252 392.75 526.252H396.251C396.665 526.252 397.001 525.916 397.001 525.502C397.001 525.087 396.665 524.752 396.251 524.752H392.75C390.265 524.752 388.25 522.737 388.25 520.252V513.75Z" fill="#1C0F00"/>
<path d="M294.948 289.654L295 289.228L295.052 289.654C295.659 294.663 299.226 298.759 304.005 300.102C299.226 301.445 295.654 305.537 295.038 310.544L295 310.855L294.962 310.544C294.346 305.537 290.774 301.445 285.995 300.102C290.774 298.759 294.341 294.663 294.948 289.654Z" fill="#FFE900" stroke="#1C0F00" stroke-width="1.5" stroke-linejoin="round"/>
<path fill-rule="evenodd" clip-rule="evenodd" d="M17.7495 628.75C17.7495 628.336 17.4138 628 16.9995 628C16.5853 628 16.2495 628.336 16.2495 628.75V643.249C16.2495 647.391 12.8917 650.749 8.74954 650.749L0.75 650.749C0.335785 650.749 0 651.085 0 651.499C0 651.913 0.335785 652.249 0.75 652.249L8.74954 652.249C12.8917 652.249 16.2495 655.607 16.2495 659.749V674.248C16.2495 674.662 16.5853 674.998 16.9995 674.998C17.4137 674.998 17.7495 674.662 17.7495 674.248V659.749C17.7495 655.607 21.1074 652.249 25.2495 652.249L33.2487 652.249C33.6629 652.249 33.9987 651.913 33.9987 651.499C33.9987 651.085 33.6629 650.749 33.2487 650.749L25.2495 650.749C21.1074 650.749 17.7495 647.391 17.7495 643.249V628.75Z" fill="#1C0F00"/>
</svg>
