<svg width="19" height="372" viewBox="0 0 19 372" fill="none" xmlns="http://www.w3.org/2000/svg">
<path fill-rule="evenodd" clip-rule="evenodd" d="M9.56096 0.480038C9.56096 0.21492 9.34604 0 9.08093 0C8.81581 0 8.60089 0.21492 8.60089 0.480038L8.60089 4.64146C8.60089 6.23216 7.31137 7.52169 5.72066 7.52169L3.48004 7.52168C3.21492 7.52168 3 7.73661 3 8.00172C3 8.26684 3.21492 8.48176 3.48004 8.48176H5.72066C7.31137 8.48176 8.60089 9.77128 8.60089 11.362L8.60089 15.5235C8.60089 15.7886 8.81581 16.0035 9.08092 16.0035C9.34604 16.0035 9.56096 15.7886 9.56096 15.5235V11.362C9.56096 9.77128 10.8505 8.48176 12.4412 8.48176H14.6817C14.9468 8.48176 15.1617 8.26684 15.1617 8.00172C15.1617 7.73661 14.9468 7.52169 14.6817 7.52169L12.4412 7.52169C10.8505 7.52169 9.56096 6.23216 9.56096 4.64146V0.480038Z" fill="#1C0F00"/>
<path d="M9.36961 350.675L9.5 349.507L9.63039 350.675C10.0556 354.485 12.7812 357.611 16.4424 358.581C12.7811 359.551 10.052 362.675 9.62104 366.483L9.5 367.553L9.37896 366.483C8.94803 362.675 6.21889 359.551 2.5576 358.581C6.21879 357.611 8.94442 354.485 9.36961 350.675Z" fill="#FFE900" stroke="#1C0F00" stroke-linejoin="round"/>
</svg>
