<svg width="23" height="31" viewBox="0 0 23 31" fill="none" xmlns="http://www.w3.org/2000/svg">
<path fill-rule="evenodd" clip-rule="evenodd" d="M11.707 0.494671C11.707 0.221472 11.4855 0 11.2123 0C10.9391 0 10.7177 0.221472 10.7177 0.494671V10.0577C10.7177 12.7897 8.50294 15.0044 5.77095 15.0044L0.494671 15.0044C0.221472 15.0044 3.82133e-08 15.2258 0 15.499C-3.82133e-08 15.7722 0.221472 15.9937 0.494671 15.9937L5.77095 15.9937C8.50294 15.9937 10.7177 18.2084 10.7177 20.9404V30.5035C10.7177 30.7767 10.9391 30.9982 11.2123 30.9982C11.4855 30.9982 11.707 30.7767 11.707 30.5035V20.9404C11.707 18.2084 13.9217 15.9937 16.6537 15.9937L21.9296 15.9937C22.2028 15.9937 22.4242 15.7722 22.4242 15.499C22.4242 15.2258 22.2028 15.0044 21.9296 15.0044L16.6537 15.0044C13.9217 15.0044 11.707 12.7897 11.707 10.0577V0.494671Z" fill="#1C0F00"/>
</svg>
