<svg width="34" height="47" viewBox="0 0 34 47" fill="none" xmlns="http://www.w3.org/2000/svg">
<path fill-rule="evenodd" clip-rule="evenodd" d="M17.7495 0.75C17.7495 0.335786 17.4138 0 16.9995 0C16.5853 0 16.2495 0.335786 16.2495 0.75V15.249C16.2495 19.3912 12.8917 22.749 8.74954 22.749L0.75 22.749C0.335785 22.749 0 23.0848 0 23.499C0 23.9133 0.335785 24.249 0.75 24.249L8.74954 24.249C12.8917 24.249 16.2495 27.6069 16.2495 31.749V46.2482C16.2495 46.6624 16.5853 46.9982 16.9995 46.9982C17.4137 46.9982 17.7495 46.6624 17.7495 46.2482V31.749C17.7495 27.6069 21.1074 24.249 25.2495 24.249L33.2487 24.2491C33.6629 24.2491 33.9987 23.9133 33.9987 23.4991C33.9987 23.0848 33.6629 22.7491 33.2487 22.7491L25.2495 22.749C21.1074 22.749 17.7495 19.3912 17.7495 15.249V0.75Z" fill="#1C0F00"/>
</svg>
