<svg width="680" height="653" viewBox="0 0 680 653" fill="none" xmlns="http://www.w3.org/2000/svg">
<path fill-rule="evenodd" clip-rule="evenodd" d="M10.2505 495.75C10.2505 495.336 9.91467 495 9.50045 495C9.08624 495 8.75045 495.336 8.75045 495.75V502.252C8.75045 504.737 6.73574 506.752 4.25046 506.752L0.75 506.752C0.335787 506.752 0 507.087 0 507.502C0 507.916 0.335787 508.252 0.75 508.252L4.25045 508.252C6.73573 508.252 8.75045 510.266 8.75045 512.752V519.254C8.75045 519.668 9.08624 520.004 9.50045 520.004C9.91467 520.004 10.2505 519.668 10.2505 519.254V512.752C10.2505 510.266 12.2652 508.252 14.7505 508.252L18.2512 508.252C18.6654 508.252 19.0012 507.916 19.0012 507.502C19.0012 507.087 18.6654 506.752 18.2512 506.752L14.7505 506.752C12.2652 506.752 10.2505 504.737 10.2505 502.252V495.75Z" fill="#1C0F00"/>
<path fill-rule="evenodd" clip-rule="evenodd" d="M671.25 120.75C671.25 120.336 670.915 120 670.5 120C670.086 120 669.75 120.336 669.75 120.75V127.252C669.75 129.737 667.736 131.752 665.25 131.752L661.75 131.752C661.336 131.752 661 132.087 661 132.502C661 132.916 661.336 133.252 661.75 133.252L665.25 133.252C667.736 133.252 669.75 135.266 669.75 137.752V144.254C669.75 144.668 670.086 145.004 670.5 145.004C670.915 145.004 671.25 144.668 671.25 144.254V137.752C671.25 135.266 673.265 133.252 675.75 133.252L679.251 133.252C679.665 133.252 680.001 132.916 680.001 132.502C680.001 132.087 679.665 131.752 679.251 131.752L675.75 131.752C673.265 131.752 671.25 129.737 671.25 127.252V120.75Z" fill="#1C0F00"/>
<path fill-rule="evenodd" clip-rule="evenodd" d="M466.75 606.75C466.75 606.336 466.414 606 466 606C465.585 606 465.25 606.336 465.25 606.75V621.249C465.25 625.391 461.892 628.749 457.75 628.749L449.75 628.749C449.336 628.749 449 629.085 449 629.499C449 629.913 449.336 630.249 449.75 630.249L457.75 630.249C461.892 630.249 465.25 633.607 465.25 637.749V652.248C465.25 652.662 465.585 652.998 466 652.998C466.414 652.998 466.75 652.662 466.75 652.248V637.749C466.75 633.607 470.107 630.249 474.25 630.249L482.249 630.249C482.663 630.249 482.999 629.913 482.999 629.499C482.999 629.085 482.663 628.749 482.249 628.749L474.25 628.749C470.107 628.749 466.75 625.391 466.75 621.249V606.75Z" fill="#1C0F00"/>
<path fill-rule="evenodd" clip-rule="evenodd" d="M332.75 0.75C332.75 0.335786 332.414 0 332 0C331.585 0 331.25 0.335786 331.25 0.75V15.249C331.25 19.3912 327.892 22.749 323.75 22.749L315.75 22.749C315.336 22.749 315 23.0848 315 23.499C315 23.9133 315.336 24.249 315.75 24.249L323.75 24.249C327.892 24.249 331.25 27.6069 331.25 31.749V46.2482C331.25 46.6624 331.585 46.9982 332 46.9982C332.414 46.9982 332.75 46.6624 332.75 46.2482V31.749C332.75 27.6069 336.107 24.249 340.25 24.249L348.249 24.2491C348.663 24.2491 348.999 23.9133 348.999 23.4991C348.999 23.0848 348.663 22.7491 348.249 22.7491L340.25 22.749C336.107 22.749 332.75 19.3912 332.75 15.249V0.75Z" fill="#1C0F00"/>
<path d="M336.948 467.654L337 467.228L337.052 467.654C337.659 472.663 341.226 476.759 346.005 478.102C341.226 479.445 337.654 483.537 337.038 488.544L337 488.855L336.962 488.544C336.346 483.537 332.774 479.445 327.995 478.102C332.774 476.759 336.341 472.663 336.948 467.654Z" fill="#FFE900" stroke="#1C0F00" stroke-width="1.5" stroke-linejoin="round"/>
</svg>
