<svg width="35" height="209" viewBox="0 0 35 209" fill="none" xmlns="http://www.w3.org/2000/svg">
<path fill-rule="evenodd" clip-rule="evenodd" d="M6.56096 193.48C6.56096 193.215 6.34604 193 6.08093 193C5.81581 193 5.60089 193.215 5.60089 193.48L5.60089 197.641C5.60089 199.232 4.31137 200.522 2.72066 200.522L0.480038 200.522C0.21492 200.522 0 200.737 0 201.002C0 201.267 0.21492 201.482 0.480038 201.482H2.72066C4.31137 201.482 5.60089 202.771 5.60089 204.362L5.60089 208.523C5.60089 208.789 5.81581 209.004 6.08092 209.004C6.34604 209.004 6.56096 208.789 6.56096 208.523V204.362C6.56096 202.771 7.85048 201.482 9.44119 201.482H11.6817C11.9468 201.482 12.1617 201.267 12.1617 201.002C12.1617 200.737 11.9468 200.522 11.6817 200.522L9.44119 200.522C7.85048 200.522 6.56096 199.232 6.56096 197.641V193.48Z" fill="#1C0F00"/>
<path d="M25.3696 5.67532L25.5 4.5072L25.6304 5.67532C26.0556 9.48454 28.7812 12.6108 32.4424 13.5813C28.7811 14.5513 26.052 17.6749 25.621 21.4833L25.5 22.553L25.379 21.4833C24.948 17.6748 22.2189 14.5513 18.5576 13.5813C22.2188 12.6108 24.9444 9.48454 25.3696 5.67532Z" fill="#FFE900" stroke="#1C0F00" stroke-linejoin="round"/>
</svg>
