<svg width="714" height="620" viewBox="0 0 714 620" fill="none" xmlns="http://www.w3.org/2000/svg">
<path fill-rule="evenodd" clip-rule="evenodd" d="M649.75 573.75C649.75 573.336 649.414 573 649 573C648.585 573 648.25 573.336 648.25 573.75V588.249C648.25 592.391 644.892 595.749 640.75 595.749L632.75 595.749C632.336 595.749 632 596.085 632 596.499C632 596.913 632.336 597.249 632.75 597.249L640.75 597.249C644.892 597.249 648.25 600.607 648.25 604.749V619.248C648.25 619.662 648.585 619.998 649 619.998C649.414 619.998 649.75 619.662 649.75 619.248V604.749C649.75 600.607 653.107 597.249 657.25 597.249L665.249 597.249C665.663 597.249 665.999 596.913 665.999 596.499C665.999 596.085 665.663 595.749 665.249 595.749L657.25 595.749C653.107 595.749 649.75 592.391 649.75 588.249V573.75Z" fill="#1C0F00"/>
<path d="M418.948 234.654L419 234.228L419.052 234.654C419.659 239.663 423.226 243.759 428.005 245.102C423.226 246.445 419.654 250.537 419.038 255.544L419 255.855L418.962 255.544C418.346 250.537 414.774 246.445 409.995 245.102C414.774 243.759 418.341 239.663 418.948 234.654Z" fill="#FFE900" stroke="#1C0F00" stroke-width="1.5" stroke-linejoin="round"/>
<path fill-rule="evenodd" clip-rule="evenodd" d="M215.75 0.75C215.75 0.335786 215.414 0 215 0C214.585 0 214.25 0.335786 214.25 0.75V15.249C214.25 19.3912 210.892 22.749 206.75 22.749L198.75 22.749C198.336 22.749 198 23.0848 198 23.499C198 23.9133 198.336 24.249 198.75 24.249L206.75 24.249C210.892 24.249 214.25 27.6069 214.25 31.749V46.2482C214.25 46.6624 214.585 46.9982 215 46.9982C215.414 46.9982 215.75 46.6624 215.75 46.2482V31.749C215.75 27.6069 219.107 24.249 223.25 24.249L231.249 24.2491C231.663 24.2491 231.999 23.9133 231.999 23.4991C231.999 23.0848 231.663 22.7491 231.249 22.7491L223.25 22.749C219.107 22.749 215.75 19.3912 215.75 15.249V0.75Z" fill="#1C0F00"/>
<path d="M27.9998 537.93L28.5271 542.524C29.8224 553.808 38.3378 562.922 49.5086 564.98C49.6016 564.997 49.6422 565.034 49.6647 565.063C49.693 565.1 49.7152 565.158 49.7151 565.228C49.715 565.299 49.6928 565.357 49.6641 565.394C49.6412 565.424 49.6002 565.461 49.507 565.478C38.3375 567.536 29.8122 576.641 28.4994 587.923L27.9898 592.302C27.9693 592.479 27.8993 592.574 27.8288 592.631C27.7488 592.696 27.6324 592.738 27.5 592.738C27.3676 592.738 27.2512 592.696 27.1712 592.631C27.1007 592.574 27.0307 592.478 27.0102 592.302L26.5006 587.923C25.1878 576.641 16.6625 567.536 5.49296 565.478C5.39983 565.461 5.35876 565.424 5.33591 565.394C5.3072 565.357 5.28495 565.299 5.28489 565.228C5.28483 565.158 5.30697 565.1 5.33532 565.063C5.35779 565.034 5.39841 564.997 5.49144 564.98C16.6622 562.922 25.1776 553.808 26.4729 542.524L27.0002 537.93C27.0208 537.751 27.0922 537.653 27.1644 537.595C27.2463 537.528 27.365 537.484 27.5 537.484C27.635 537.484 27.7538 537.528 27.8356 537.595C27.9078 537.653 27.9792 537.751 27.9998 537.93Z" fill="#FFE900" stroke="#1C0F00" stroke-width="1.5" stroke-linejoin="round"/>
<path fill-rule="evenodd" clip-rule="evenodd" d="M94.2505 419.75C94.2505 419.336 93.9147 419 93.5005 419C93.0862 419 92.7505 419.336 92.7505 419.75V426.252C92.7505 428.737 90.7357 430.752 88.2505 430.752L84.75 430.752C84.3358 430.752 84 431.087 84 431.502C84 431.916 84.3358 432.252 84.75 432.252L88.2505 432.252C90.7357 432.252 92.7505 434.266 92.7505 436.752V443.254C92.7505 443.668 93.0862 444.004 93.5005 444.004C93.9147 444.004 94.2505 443.668 94.2505 443.254V436.752C94.2505 434.266 96.2652 432.252 98.7505 432.252L102.251 432.252C102.665 432.252 103.001 431.916 103.001 431.502C103.001 431.087 102.665 430.752 102.251 430.752L98.7505 430.752C96.2652 430.752 94.2505 428.737 94.2505 426.252V419.75Z" fill="#1C0F00"/>
<path fill-rule="evenodd" clip-rule="evenodd" d="M705.25 184.75C705.25 184.336 704.915 184 704.5 184C704.086 184 703.75 184.336 703.75 184.75V191.252C703.75 193.737 701.736 195.752 699.25 195.752L695.75 195.752C695.336 195.752 695 196.087 695 196.502C695 196.916 695.336 197.252 695.75 197.252L699.25 197.252C701.736 197.252 703.75 199.266 703.75 201.752V208.254C703.75 208.668 704.086 209.004 704.5 209.004C704.915 209.004 705.25 208.668 705.25 208.254V201.752C705.25 199.266 707.265 197.252 709.75 197.252L713.251 197.252C713.665 197.252 714.001 196.916 714.001 196.502C714.001 196.087 713.665 195.752 713.251 195.752L709.75 195.752C707.265 195.752 705.25 193.737 705.25 191.252V184.75Z" fill="#1C0F00"/>
</svg>
