<svg width="1827" height="963" viewBox="0 0 1827 963" fill="none" xmlns="http://www.w3.org/2000/svg">
<path d="M1065.44 350.669L1065.5 350.167L1065.56 350.669C1066.39 357.377 1071.18 362.853 1077.59 364.635C1071.18 366.416 1066.38 371.887 1065.54 378.594L1065.5 378.942L1065.46 378.594C1064.62 371.887 1059.82 366.416 1053.41 364.635C1059.82 362.853 1064.61 357.377 1065.44 350.669Z" fill="#FFE900" stroke="#1C0F00" stroke-width="2" stroke-linejoin="round"/>
<path d="M1381.44 777.669L1381.5 777.167L1381.56 777.669C1382.39 784.377 1387.18 789.853 1393.59 791.635C1387.18 793.416 1382.38 798.887 1381.54 805.594L1381.5 805.942L1381.46 805.594C1380.62 798.887 1375.82 793.416 1369.41 791.635C1375.82 789.853 1380.61 784.377 1381.44 777.669Z" fill="#FFE900" stroke="#1C0F00" stroke-width="2" stroke-linejoin="round"/>
<path d="M1788.8 589.747C1788.9 588.919 1790.1 588.919 1790.2 589.746L1790.91 595.923C1792.68 611.276 1804.28 623.668 1819.48 626.451C1819.62 626.475 1819.68 626.528 1819.71 626.572C1819.75 626.626 1819.78 626.71 1819.78 626.81C1819.78 626.91 1819.75 626.993 1819.71 627.048C1819.67 627.093 1819.61 627.146 1819.48 627.17C1804.28 629.953 1792.67 642.333 1790.87 657.682L1790.18 663.567C1790.09 664.378 1788.91 664.378 1788.82 663.567L1788.13 657.682C1786.33 642.333 1774.72 629.953 1759.52 627.17C1759.39 627.146 1759.33 627.093 1759.29 627.048C1759.25 626.993 1759.22 626.91 1759.22 626.81C1759.22 626.71 1759.25 626.626 1759.29 626.572C1759.32 626.528 1759.38 626.475 1759.52 626.451C1774.72 623.668 1786.32 611.276 1788.09 595.923L1788.8 589.747Z" fill="#FFE900" stroke="#1C0F00" stroke-width="2" stroke-linejoin="round"/>
<path d="M36.8034 479.747C36.899 478.919 38.101 478.919 38.1966 479.746L38.91 485.923C40.6833 501.276 52.2817 513.668 67.4844 516.451C67.6163 516.475 67.6761 516.528 67.7099 516.572C67.7515 516.626 67.783 516.71 67.7829 516.81C67.7828 516.91 67.7512 516.993 67.709 517.048C67.6748 517.093 67.6143 517.146 67.4823 517.17C52.2811 519.953 40.6692 532.333 38.872 547.682L38.183 553.567C38.0881 554.378 36.9119 554.378 36.817 553.567L36.128 547.682C34.3308 532.333 22.7189 519.953 7.51774 517.17C7.38571 517.146 7.32522 517.093 7.29096 517.048C7.24885 516.993 7.21722 516.91 7.21713 516.81C7.21705 516.71 7.24852 516.626 7.29013 516.572C7.32386 516.528 7.38374 516.475 7.51563 516.451C22.7183 513.668 34.3167 501.276 36.09 485.923L36.8034 479.747Z" fill="#FFE900" stroke="#1C0F00" stroke-width="2" stroke-linejoin="round"/>
<path d="M456.438 651.669L456.5 651.167L456.562 651.669C457.389 658.377 462.182 663.853 468.588 665.635C462.181 667.416 457.382 672.887 456.544 679.594L456.5 679.942L456.456 679.594C455.618 672.887 450.819 667.416 444.412 665.635C450.818 663.853 455.611 658.377 456.438 651.669Z" fill="#FFE900" stroke="#1C0F00" stroke-width="2" stroke-linejoin="round"/>
<path fill-rule="evenodd" clip-rule="evenodd" d="M1685.8 365C1685.8 364.448 1685.35 364 1684.8 364C1684.24 364 1683.8 364.448 1683.8 365L1683.8 374.513C1683.8 377.826 1681.11 380.513 1677.8 380.513H1673C1672.45 380.513 1672 380.96 1672 381.513C1672 382.065 1672.45 382.513 1673 382.513H1677.8C1681.11 382.513 1683.8 385.199 1683.8 388.513L1683.8 398.026C1683.8 398.578 1684.24 399.026 1684.8 399.026C1685.35 399.026 1685.8 398.578 1685.8 398.026L1685.8 388.513C1685.8 385.199 1688.48 382.513 1691.8 382.513H1696.59C1697.14 382.513 1697.59 382.065 1697.59 381.513C1697.59 380.96 1697.14 380.513 1696.59 380.513H1691.8C1688.48 380.513 1685.8 377.826 1685.8 374.513L1685.8 365Z" fill="#1C0F00"/>
<path fill-rule="evenodd" clip-rule="evenodd" d="M95.7951 278C95.7951 277.448 95.3473 277 94.7951 277C94.2428 277 93.7951 277.448 93.7951 278L93.7951 287.513C93.7951 290.826 91.1088 293.513 87.7951 293.513H83C82.4477 293.513 82 293.96 82 294.513C82 295.065 82.4477 295.513 83 295.513H87.7951C91.1088 295.513 93.7951 298.199 93.7951 301.513L93.7951 311.026C93.7951 311.578 94.2428 312.026 94.7951 312.026C95.3473 312.026 95.7951 311.578 95.7951 311.026L95.7951 301.513C95.7951 298.199 98.4814 295.513 101.795 295.513H106.59C107.142 295.513 107.59 295.065 107.59 294.513C107.59 293.96 107.142 293.513 106.59 293.513H101.795C98.4813 293.513 95.7951 290.826 95.7951 287.513L95.7951 278Z" fill="#1C0F00"/>
<path fill-rule="evenodd" clip-rule="evenodd" d="M1633.23 902C1633.23 901.448 1632.78 901 1632.23 901C1631.68 901 1631.23 901.448 1631.23 902V920.723C1631.23 926.246 1626.75 930.723 1621.23 930.723L1611 930.723C1610.45 930.723 1610 931.171 1610 931.723C1610 932.275 1610.45 932.723 1611 932.723L1621.23 932.723C1626.75 932.723 1631.23 937.2 1631.23 942.723V961.446C1631.23 961.998 1631.68 962.446 1632.23 962.446C1632.78 962.446 1633.23 961.998 1633.23 961.446V942.723C1633.23 937.2 1637.71 932.723 1643.23 932.723L1653.46 932.723C1654.01 932.723 1654.46 932.275 1654.46 931.723C1654.46 931.171 1654.01 930.723 1653.46 930.723L1643.23 930.723C1637.71 930.723 1633.23 926.246 1633.23 920.723V902Z" fill="#1C0F00"/>
<path fill-rule="evenodd" clip-rule="evenodd" d="M159.231 902C159.231 901.448 158.783 901 158.231 901C157.679 901 157.231 901.448 157.231 902V920.723C157.231 926.246 152.754 930.723 147.231 930.723L137 930.723C136.448 930.723 136 931.171 136 931.723C136 932.275 136.448 932.723 137 932.723L147.231 932.723C152.754 932.723 157.231 937.2 157.231 942.723V961.446C157.231 961.998 157.679 962.446 158.231 962.446C158.783 962.446 159.231 961.998 159.231 961.446V942.723C159.231 937.2 163.708 932.723 169.231 932.723L179.461 932.723C180.014 932.723 180.461 932.275 180.461 931.723C180.461 931.171 180.014 930.723 179.461 930.723L169.231 930.723C163.708 930.723 159.231 926.246 159.231 920.723V902Z" fill="#1C0F00"/>
<path fill-rule="evenodd" clip-rule="evenodd" d="M1331.8 1C1331.8 0.447715 1331.35 0 1330.8 0C1330.24 0 1329.8 0.447715 1329.8 1L1329.8 10.5127C1329.8 13.8264 1327.11 16.5127 1323.8 16.5127H1319C1318.45 16.5127 1318 16.9604 1318 17.5127C1318 18.065 1318.45 18.5127 1319 18.5127H1323.8C1327.11 18.5127 1329.8 21.199 1329.8 24.5127L1329.8 34.0256C1329.8 34.5779 1330.24 35.0256 1330.8 35.0256C1331.35 35.0256 1331.8 34.5779 1331.8 34.0256L1331.8 24.5127C1331.8 21.199 1334.48 18.5127 1337.8 18.5127H1342.59C1343.14 18.5127 1343.59 18.065 1343.59 17.5127C1343.59 16.9604 1343.14 16.5127 1342.59 16.5127H1337.8C1334.48 16.5127 1331.8 13.8264 1331.8 10.5127L1331.8 1Z" fill="#1C0F00"/>
<path fill-rule="evenodd" clip-rule="evenodd" d="M680.795 388C680.795 387.448 680.347 387 679.795 387C679.243 387 678.795 387.448 678.795 388L678.795 397.513C678.795 400.826 676.109 403.513 672.795 403.513H668C667.448 403.513 667 403.96 667 404.513C667 405.065 667.448 405.513 668 405.513H672.795C676.109 405.513 678.795 408.199 678.795 411.513L678.795 421.026C678.795 421.578 679.243 422.026 679.795 422.026C680.347 422.026 680.795 421.578 680.795 421.026L680.795 411.513C680.795 408.199 683.481 405.513 686.795 405.513H691.59C692.142 405.513 692.59 405.065 692.59 404.513C692.59 403.96 692.142 403.513 691.59 403.513H686.795C683.481 403.513 680.795 400.826 680.795 397.513L680.795 388Z" fill="#1C0F00"/>
<path fill-rule="evenodd" clip-rule="evenodd" d="M569.231 85C569.231 84.4477 568.783 84 568.231 84C567.679 84 567.231 84.4477 567.231 85V103.723C567.231 109.246 562.754 113.723 557.231 113.723L547 113.723C546.448 113.723 546 114.171 546 114.723C546 115.275 546.448 115.723 547 115.723L557.231 115.723C562.754 115.723 567.231 120.2 567.231 125.723V144.446C567.231 144.998 567.679 145.446 568.231 145.446C568.783 145.446 569.231 144.998 569.231 144.446V125.723C569.231 120.2 573.708 115.723 579.231 115.723L589.461 115.723C590.014 115.723 590.461 115.275 590.461 114.723C590.461 114.171 590.014 113.723 589.461 113.723L579.231 113.723C573.708 113.723 569.231 109.246 569.231 103.723V85Z" fill="#1C0F00"/>
</svg>
