<svg width="347" height="616" viewBox="0 0 347 616" fill="none" xmlns="http://www.w3.org/2000/svg">
<path fill-rule="evenodd" clip-rule="evenodd" d="M182.561 0.480038C182.561 0.21492 182.346 0 182.081 0C181.816 0 181.601 0.21492 181.601 0.480038L181.601 4.64146C181.601 6.23216 180.311 7.52169 178.721 7.52169L176.48 7.52168C176.215 7.52168 176 7.73661 176 8.00172C176 8.26684 176.215 8.48176 176.48 8.48176H178.721C180.311 8.48176 181.601 9.77128 181.601 11.362L181.601 15.5235C181.601 15.7886 181.816 16.0035 182.081 16.0035C182.346 16.0035 182.561 15.7886 182.561 15.5235V11.362C182.561 9.77128 183.85 8.48176 185.441 8.48176H187.682C187.947 8.48176 188.162 8.26684 188.162 8.00172C188.162 7.73661 187.947 7.52169 187.682 7.52169L185.441 7.52169C183.85 7.52169 182.561 6.23216 182.561 4.64146V0.480038Z" fill="#1C0F00"/>
<path d="M336.37 292.675L336.5 291.507L336.63 292.675C337.056 296.485 339.781 299.611 343.442 300.581C339.781 301.551 337.052 304.675 336.621 308.483L336.5 309.553L336.379 308.483C335.948 304.675 333.219 301.551 329.558 300.581C333.219 299.611 335.944 296.485 336.37 292.675Z" fill="#FFE900" stroke="#1C0F00" stroke-linejoin="round"/>
<path fill-rule="evenodd" clip-rule="evenodd" d="M335.707 95.4947C335.707 95.2215 335.486 95 335.212 95C334.939 95 334.718 95.2215 334.718 95.4947V105.058C334.718 107.79 332.503 110.004 329.771 110.004L324.495 110.004C324.221 110.004 324 110.226 324 110.499C324 110.772 324.221 110.994 324.495 110.994L329.771 110.994C332.503 110.994 334.718 113.208 334.718 115.94V125.504C334.718 125.777 334.939 125.998 335.212 125.998C335.486 125.998 335.707 125.777 335.707 125.504V115.94C335.707 113.208 337.922 110.994 340.654 110.994L345.93 110.994C346.203 110.994 346.424 110.772 346.424 110.499C346.424 110.226 346.203 110.004 345.93 110.004L340.654 110.004C337.922 110.004 335.707 107.79 335.707 105.058V95.4947Z" fill="#1C0F00"/>
<path fill-rule="evenodd" clip-rule="evenodd" d="M175.707 585.495C175.707 585.221 175.486 585 175.212 585C174.939 585 174.718 585.221 174.718 585.495V595.058C174.718 597.79 172.503 600.004 169.771 600.004L164.495 600.004C164.221 600.004 164 600.226 164 600.499C164 600.772 164.221 600.994 164.495 600.994L169.771 600.994C172.503 600.994 174.718 603.208 174.718 605.94V615.504C174.718 615.777 174.939 615.998 175.212 615.998C175.486 615.998 175.707 615.777 175.707 615.504V605.94C175.707 603.208 177.922 600.994 180.654 600.994L185.93 600.994C186.203 600.994 186.424 600.772 186.424 600.499C186.424 600.226 186.203 600.004 185.93 600.004L180.654 600.004C177.922 600.004 175.707 597.79 175.707 595.058V585.495Z" fill="#1C0F00"/>
<path fill-rule="evenodd" clip-rule="evenodd" d="M6.56096 343.48C6.56096 343.215 6.34604 343 6.08093 343C5.81581 343 5.60089 343.215 5.60089 343.48L5.60089 347.641C5.60089 349.232 4.31137 350.522 2.72066 350.522L0.480038 350.522C0.21492 350.522 0 350.737 0 351.002C0 351.267 0.21492 351.482 0.480038 351.482H2.72066C4.31137 351.482 5.60089 352.771 5.60089 354.362L5.60089 358.523C5.60089 358.789 5.81581 359.004 6.08092 359.004C6.34604 359.004 6.56096 358.789 6.56096 358.523V354.362C6.56096 352.771 7.85048 351.482 9.44119 351.482H11.6817C11.9468 351.482 12.1617 351.267 12.1617 351.002C12.1617 350.737 11.9468 350.522 11.6817 350.522L9.44119 350.522C7.85048 350.522 6.56096 349.232 6.56096 347.641V343.48Z" fill="#1C0F00"/>
</svg>
