<svg width="62" height="616" viewBox="0 0 62 616" fill="none" xmlns="http://www.w3.org/2000/svg">
<path fill-rule="evenodd" clip-rule="evenodd" d="M55.561 0.480038C55.561 0.21492 55.346 0 55.0809 0C54.8158 0 54.6009 0.21492 54.6009 0.480038L54.6009 4.64146C54.6009 6.23216 53.3114 7.52169 51.7207 7.52169L49.48 7.52168C49.2149 7.52168 49 7.73661 49 8.00172C49 8.26684 49.2149 8.48176 49.48 8.48176H51.7207C53.3114 8.48176 54.6009 9.77128 54.6009 11.362L54.6009 15.5235C54.6009 15.7886 54.8158 16.0035 55.0809 16.0035C55.346 16.0035 55.561 15.7886 55.561 15.5235V11.362C55.561 9.77128 56.8505 8.48176 58.4412 8.48176H60.6817C60.9468 8.48176 61.1617 8.26684 61.1617 8.00172C61.1617 7.73661 60.9468 7.52169 60.6817 7.52169L58.4412 7.52169C56.8505 7.52169 55.561 6.23216 55.561 4.64146V0.480038Z" fill="#1C0F00"/>
<path fill-rule="evenodd" clip-rule="evenodd" d="M11.707 585.495C11.707 585.221 11.4855 585 11.2123 585C10.9391 585 10.7177 585.221 10.7177 585.495V595.058C10.7177 597.79 8.50294 600.004 5.77095 600.004L0.494671 600.004C0.221472 600.004 3.82133e-08 600.226 0 600.499C-3.82133e-08 600.772 0.221472 600.994 0.494671 600.994L5.77095 600.994C8.50294 600.994 10.7177 603.208 10.7177 605.94V615.504C10.7177 615.777 10.9391 615.998 11.2123 615.998C11.4855 615.998 11.707 615.777 11.707 615.504V605.94C11.707 603.208 13.9217 600.994 16.6537 600.994L21.9296 600.994C22.2028 600.994 22.4242 600.772 22.4242 600.499C22.4242 600.226 22.2028 600.004 21.9296 600.004L16.6537 600.004C13.9217 600.004 11.707 597.79 11.707 595.058V585.495Z" fill="#1C0F00"/>
</svg>
