<svg width="1369" height="723" viewBox="0 0 1369 723" fill="none" xmlns="http://www.w3.org/2000/svg">
<path d="M27.0002 357.93C27.0208 357.751 27.0922 357.653 27.1644 357.595C27.2463 357.528 27.365 357.484 27.5 357.484C27.635 357.484 27.7538 357.528 27.8356 357.595C27.9078 357.653 27.9792 357.751 27.9998 357.93L28.5271 362.524C29.8224 373.808 38.3378 382.922 49.5086 384.98C49.6016 384.997 49.6422 385.034 49.6647 385.063C49.693 385.1 49.7152 385.158 49.7151 385.228C49.715 385.299 49.6928 385.357 49.6641 385.394C49.6412 385.424 49.6002 385.461 49.507 385.478C38.3375 387.536 29.8122 396.641 28.4994 407.923L27.9898 412.302C27.9693 412.479 27.8993 412.574 27.8288 412.631C27.7488 412.696 27.6324 412.738 27.5 412.738C27.3676 412.738 27.2512 412.696 27.1712 412.631C27.1007 412.574 27.0307 412.479 27.0102 412.302L26.5006 407.923C25.1878 396.641 16.6625 387.536 5.49296 385.478C5.39983 385.461 5.35876 385.424 5.33591 385.394C5.3072 385.357 5.28495 385.299 5.28489 385.228C5.28483 385.158 5.30697 385.1 5.33532 385.063C5.35779 385.034 5.39841 384.997 5.49144 384.98C16.6622 382.922 25.1776 373.808 26.4729 362.524L27.0002 357.93Z" fill="#FFE900" stroke="#1C0F00" stroke-width="1.5" stroke-linejoin="round"/>
<path d="M1341 442.93C1341.02 442.751 1341.09 442.653 1341.16 442.595C1341.25 442.528 1341.37 442.484 1341.5 442.484C1341.63 442.484 1341.75 442.528 1341.84 442.595C1341.91 442.653 1341.98 442.751 1342 442.93L1342.53 447.524C1343.82 458.808 1352.34 467.922 1363.51 469.98C1363.6 469.997 1363.64 470.034 1363.66 470.063C1363.69 470.1 1363.72 470.158 1363.72 470.228C1363.72 470.299 1363.69 470.357 1363.66 470.394C1363.64 470.424 1363.6 470.461 1363.51 470.478C1352.34 472.536 1343.81 481.641 1342.5 492.923L1341.99 497.302C1341.97 497.479 1341.9 497.574 1341.83 497.631C1341.75 497.696 1341.63 497.738 1341.5 497.738C1341.37 497.738 1341.25 497.696 1341.17 497.631C1341.1 497.574 1341.03 497.479 1341.01 497.302L1340.5 492.923C1339.19 481.641 1330.66 472.536 1319.49 470.478C1319.4 470.461 1319.36 470.424 1319.34 470.394C1319.31 470.357 1319.28 470.299 1319.28 470.228C1319.28 470.158 1319.31 470.1 1319.34 470.063C1319.36 470.034 1319.4 469.997 1319.49 469.98C1330.66 467.922 1339.18 458.808 1340.47 447.524L1341 442.93Z" fill="#FFE900" stroke="#1C0F00" stroke-width="1.5" stroke-linejoin="round"/>
<path fill-rule="evenodd" clip-rule="evenodd" d="M71.2505 207.75C71.2505 207.336 70.9147 207 70.5005 207C70.0862 207 69.7505 207.336 69.7505 207.75V214.252C69.7505 216.737 67.7357 218.752 65.2505 218.752H61.75C61.3358 218.752 61 219.087 61 219.502C61 219.916 61.3358 220.252 61.75 220.252H65.2505C67.7357 220.252 69.7505 222.266 69.7505 224.752V231.254C69.7505 231.668 70.0862 232.004 70.5005 232.004C70.9147 232.004 71.2505 231.668 71.2505 231.254V224.752C71.2505 222.266 73.2652 220.252 75.7505 220.252H79.2512C79.6654 220.252 80.0012 219.916 80.0012 219.502C80.0012 219.087 79.6654 218.752 79.2512 218.752H75.7505C73.2652 218.752 71.2505 216.737 71.2505 214.252V207.75Z" fill="#1C0F00"/>
<path fill-rule="evenodd" clip-rule="evenodd" d="M1255.25 267.75C1255.25 267.336 1254.91 267 1254.5 267C1254.09 267 1253.75 267.336 1253.75 267.75V274.252C1253.75 276.737 1251.74 278.752 1249.25 278.752H1245.75C1245.34 278.752 1245 279.087 1245 279.502C1245 279.916 1245.34 280.252 1245.75 280.252H1249.25C1251.74 280.252 1253.75 282.266 1253.75 284.752V291.254C1253.75 291.668 1254.09 292.004 1254.5 292.004C1254.91 292.004 1255.25 291.668 1255.25 291.254V284.752C1255.25 282.266 1257.27 280.252 1259.75 280.252H1263.25C1263.67 280.252 1264 279.916 1264 279.502C1264 279.087 1263.67 278.752 1263.25 278.752H1259.75C1257.27 278.752 1255.25 276.737 1255.25 274.252V267.75Z" fill="#1C0F00"/>
<path fill-rule="evenodd" clip-rule="evenodd" d="M998.25 0.75C998.25 0.335786 997.915 0 997.5 0C997.086 0 996.75 0.335786 996.75 0.75V7.25165C996.75 9.73693 994.736 11.7517 992.25 11.7517H988.75C988.336 11.7517 988 12.0874 988 12.5017C988 12.9159 988.336 13.2517 988.75 13.2517H992.25C994.736 13.2517 996.75 15.2664 996.75 17.7517V24.2535C996.75 24.6677 997.086 25.0035 997.5 25.0035C997.915 25.0035 998.25 24.6677 998.25 24.2535V17.7517C998.25 15.2664 1000.27 13.2517 1002.75 13.2517H1006.25C1006.67 13.2517 1007 12.9159 1007 12.5017C1007 12.0874 1006.67 11.7517 1006.25 11.7517H1002.75C1000.27 11.7517 998.25 9.73693 998.25 7.25165V0.75Z" fill="#1C0F00"/>
<path fill-rule="evenodd" clip-rule="evenodd" d="M391.75 56.75C391.75 56.3358 391.414 56 391 56C390.585 56 390.25 56.3358 390.25 56.75V71.249C390.25 75.3912 386.892 78.749 382.75 78.749L374.75 78.749C374.336 78.749 374 79.0848 374 79.499C374 79.9133 374.336 80.249 374.75 80.249L382.75 80.249C386.892 80.249 390.25 83.6069 390.25 87.749V102.248C390.25 102.662 390.585 102.998 391 102.998C391.414 102.998 391.75 102.662 391.75 102.248V87.7491C391.75 83.6069 395.107 80.249 399.25 80.249L407.249 80.2491C407.663 80.2491 407.999 79.9133 407.999 79.4991C407.999 79.0848 407.663 78.7491 407.249 78.7491L399.25 78.749C395.107 78.749 391.75 75.3912 391.75 71.249V56.75Z" fill="#1C0F00"/>
<path fill-rule="evenodd" clip-rule="evenodd" d="M117.75 669.75C117.75 669.336 117.414 669 117 669C116.585 669 116.25 669.336 116.25 669.75V684.249C116.25 688.391 112.892 691.749 108.75 691.749L100.75 691.749C100.336 691.749 100 692.085 100 692.499C100 692.913 100.336 693.249 100.75 693.249L108.75 693.249C112.892 693.249 116.25 696.607 116.25 700.749V715.248C116.25 715.662 116.585 715.998 117 715.998C117.414 715.998 117.75 715.662 117.75 715.248V700.749C117.75 696.607 121.107 693.249 125.25 693.249L133.249 693.249C133.663 693.249 133.999 692.913 133.999 692.499C133.999 692.085 133.663 691.749 133.249 691.749L125.25 691.749C121.107 691.749 117.75 688.391 117.75 684.249V669.75Z" fill="#1C0F00"/>
<path fill-rule="evenodd" clip-rule="evenodd" d="M1224.75 676.75C1224.75 676.336 1224.41 676 1224 676C1223.59 676 1223.25 676.336 1223.25 676.75V691.249C1223.25 695.391 1219.89 698.749 1215.75 698.749L1207.75 698.749C1207.34 698.749 1207 699.085 1207 699.499C1207 699.913 1207.34 700.249 1207.75 700.249L1215.75 700.249C1219.89 700.249 1223.25 703.607 1223.25 707.749V722.248C1223.25 722.662 1223.59 722.998 1224 722.998C1224.41 722.998 1224.75 722.662 1224.75 722.248V707.749C1224.75 703.607 1228.11 700.249 1232.25 700.249L1240.25 700.249C1240.66 700.249 1241 699.913 1241 699.499C1241 699.085 1240.66 698.749 1240.25 698.749L1232.25 698.749C1228.11 698.749 1224.75 695.391 1224.75 691.249V676.75Z" fill="#1C0F00"/>
<path d="M342.948 488.654L343 488.228L343.052 488.654C343.659 493.663 347.226 497.759 352.005 499.102C347.226 500.445 343.654 504.537 343.038 509.544L343 509.855L342.962 509.544C342.346 504.537 338.774 500.445 333.995 499.102C338.774 497.759 342.341 493.663 342.948 488.654Z" fill="#FFE900" stroke="#1C0F00" stroke-width="1.5" stroke-linejoin="round"/>
<path d="M796.948 274.654L797 274.228L797.052 274.654C797.659 279.663 801.226 283.759 806.005 285.102C801.226 286.445 797.654 290.537 797.038 295.544L797 295.855L796.962 295.544C796.346 290.537 792.774 286.445 787.995 285.102C792.774 283.759 796.341 279.663 796.948 274.654Z" fill="#FFE900" stroke="#1C0F00" stroke-width="1.5" stroke-linejoin="round"/>
<path d="M1032.95 583.654L1033 583.228L1033.05 583.654C1033.66 588.663 1037.23 592.759 1042 594.102C1037.23 595.445 1033.65 599.537 1033.04 604.544L1033 604.855L1032.96 604.544C1032.35 599.537 1028.77 595.445 1024 594.102C1028.77 592.759 1032.34 588.663 1032.95 583.654Z" fill="#FFE900" stroke="#1C0F00" stroke-width="1.5" stroke-linejoin="round"/>
</svg>
