<svg width="35" height="276" viewBox="0 0 35 276" fill="none" xmlns="http://www.w3.org/2000/svg">
<path fill-rule="evenodd" clip-rule="evenodd" d="M6.56096 260.48C6.56096 260.215 6.34604 260 6.08093 260C5.81581 260 5.60089 260.215 5.60089 260.48L5.60089 264.641C5.60089 266.232 4.31137 267.522 2.72066 267.522L0.480038 267.522C0.21492 267.522 0 267.737 0 268.002C0 268.267 0.21492 268.482 0.480038 268.482H2.72066C4.31137 268.482 5.60089 269.771 5.60089 271.362L5.60089 275.523C5.60089 275.789 5.81581 276.004 6.08092 276.004C6.34604 276.004 6.56096 275.789 6.56096 275.523V271.362C6.56096 269.771 7.85048 268.482 9.44119 268.482H11.6817C11.9468 268.482 12.1617 268.267 12.1617 268.002C12.1617 267.737 11.9468 267.522 11.6817 267.522L9.44119 267.522C7.85048 267.522 6.56096 266.232 6.56096 264.641V260.48Z" fill="#1C0F00"/>
<path d="M25.3696 5.67532L25.5 4.5072L25.6304 5.67532C26.0556 9.48454 28.7812 12.6108 32.4424 13.5813C28.7811 14.5513 26.052 17.6749 25.621 21.4833L25.5 22.553L25.379 21.4833C24.948 17.6748 22.2189 14.5513 18.5576 13.5813C22.2188 12.6108 24.9444 9.48454 25.3696 5.67532Z" fill="#FFE900" stroke="#1C0F00" stroke-linejoin="round"/>
</svg>
