<svg width="371" height="477" viewBox="0 0 371 477" fill="none" xmlns="http://www.w3.org/2000/svg">
<path fill-rule="evenodd" clip-rule="evenodd" d="M10.2505 318.75C10.2505 318.336 9.91467 318 9.50045 318C9.08624 318 8.75045 318.336 8.75045 318.75V325.252C8.75045 327.737 6.73574 329.752 4.25046 329.752H0.75C0.335787 329.752 0 330.087 0 330.502C0 330.916 0.335787 331.252 0.75 331.252H4.25045C6.73573 331.252 8.75045 333.266 8.75045 335.752V342.254C8.75045 342.668 9.08624 343.004 9.50045 343.004C9.91467 343.004 10.2505 342.668 10.2505 342.254V335.752C10.2505 333.266 12.2652 331.252 14.7505 331.252H18.2512C18.6654 331.252 19.0012 330.916 19.0012 330.502C19.0012 330.087 18.6654 329.752 18.2512 329.752H14.7505C12.2652 329.752 10.2505 327.737 10.2505 325.252V318.75Z" fill="#1C0F00"/>
<path d="M357.948 151.654L358 151.228L358.052 151.654C358.659 156.663 362.226 160.759 367.005 162.102C362.226 163.445 358.654 167.537 358.038 172.544L358 172.855L357.962 172.544C357.346 167.537 353.774 163.445 348.995 162.102C353.774 160.759 357.341 156.663 357.948 151.654Z" fill="#FFE900" stroke="#1C0F00" stroke-width="1.5" stroke-linejoin="round"/>
<path fill-rule="evenodd" clip-rule="evenodd" d="M119.75 0.75C119.75 0.335786 119.414 0 119 0C118.585 0 118.25 0.335786 118.25 0.75V15.249C118.25 19.3912 114.892 22.749 110.75 22.749L102.75 22.749C102.336 22.749 102 23.0848 102 23.499C102 23.9133 102.336 24.249 102.75 24.249L110.75 24.249C114.892 24.249 118.25 27.6069 118.25 31.749V46.2482C118.25 46.6624 118.585 46.9982 119 46.9982C119.414 46.9982 119.75 46.6624 119.75 46.2482V31.7491C119.75 27.6069 123.107 24.249 127.25 24.249L135.249 24.2491C135.663 24.2491 135.999 23.9133 135.999 23.4991C135.999 23.0848 135.663 22.7491 135.249 22.7491L127.25 22.749C123.107 22.749 119.75 19.3912 119.75 15.249V0.75Z" fill="#1C0F00"/>
<path fill-rule="evenodd" clip-rule="evenodd" d="M289.75 430.75C289.75 430.336 289.414 430 289 430C288.585 430 288.25 430.336 288.25 430.75V445.249C288.25 449.391 284.892 452.749 280.75 452.749L272.75 452.749C272.336 452.749 272 453.085 272 453.499C272 453.913 272.336 454.249 272.75 454.249L280.75 454.249C284.892 454.249 288.25 457.607 288.25 461.749V476.248C288.25 476.662 288.585 476.998 289 476.998C289.414 476.998 289.75 476.662 289.75 476.248V461.749C289.75 457.607 293.107 454.249 297.25 454.249L305.249 454.249C305.663 454.249 305.999 453.913 305.999 453.499C305.999 453.085 305.663 452.749 305.249 452.749L297.25 452.749C293.107 452.749 289.75 449.391 289.75 445.249V430.75Z" fill="#1C0F00"/>
</svg>
