<svg width="82" height="82" viewBox="0 0 82 82" fill="none" xmlns="http://www.w3.org/2000/svg">
<rect x="-1" y="1" width="80" height="80" rx="40" transform="matrix(-1 0 0 1 80 0)" stroke="#1C0F00" stroke-width="2"/>
<path d="M57.6337 53.7421C58.5446 54.081 59 54.7801 59 55.8393C59 56.4324 58.7822 56.9408 58.3465 57.3645C57.9505 57.7882 57.4752 58 56.9208 58C56.2475 57.9576 55.495 57.9153 54.6634 57.8729C53.8317 57.8729 53.0198 57.8517 52.2277 57.8093C51.4752 57.8093 50.7822 57.8093 50.1485 57.8093C49.5545 57.767 49.1584 57.7458 48.9604 57.7458C48.7624 57.7458 48.3267 57.767 47.6535 57.8093C46.9802 57.8093 46.2079 57.8093 45.3366 57.8093C44.505 57.8517 43.6337 57.8941 42.7228 57.9365C41.8119 57.9788 41 58 40.2871 58C39.6931 58 39.198 57.8093 38.802 57.428C38.4455 57.0044 38.2673 56.4959 38.2673 55.9028C38.2673 55.3097 38.4455 54.8224 38.802 54.4411C39.1584 54.0174 39.6139 53.8056 40.1683 53.8056C40.4455 53.8056 40.6238 53.6785 40.703 53.4243C40.7822 53.1701 40.6436 52.7888 40.2871 52.2804L37.3168 47.6411C37.2772 47.7259 37.1188 48.0224 36.8416 48.5308C36.604 48.9969 36.4455 49.2723 36.3663 49.357C35.495 50.8399 35.0594 51.9626 35.0594 52.7252C35.099 53.4455 35.495 53.8056 36.2475 53.8056C36.7624 53.8056 37.198 54.0174 37.5545 54.4411C37.9505 54.8648 38.1485 55.352 38.1485 55.9028C38.1485 56.4959 37.9505 56.9832 37.5545 57.3645C37.198 57.7458 36.7624 57.9365 36.2475 57.9365C35.2574 57.8941 34.2079 57.8517 33.099 57.8093C32.0297 57.767 31.2772 57.7458 30.8416 57.7458C30.6436 57.7458 30.3267 57.767 29.8911 57.8093C29.495 57.8093 29.0198 57.8093 28.4653 57.8093C27.9505 57.8517 27.396 57.8729 26.802 57.8729C26.2079 57.9153 25.6337 57.9365 25.0792 57.9365C24.4851 57.9365 23.9901 57.7246 23.5941 57.3009C23.198 56.8773 23 56.3688 23 55.7757C23 55.2249 23.1584 54.7589 23.4752 54.3776C23.7921 53.9539 24.1881 53.6997 24.6634 53.615C25.4158 53.4878 26.1485 53.2336 26.8614 52.8523C27.5743 52.471 28.3069 51.8991 29.0594 51.1364C29.8515 50.3738 30.6832 49.3994 31.5545 48.2131C32.4653 46.9844 33.5149 45.5016 34.703 43.7645L34.9406 43.3832L28.2277 31.5626C27.8713 30.9695 27.4158 30.3975 26.8614 29.8467C26.3069 29.2536 25.6139 28.8087 24.7822 28.5121C24.2673 28.3427 23.8713 28.0249 23.5941 27.5589C23.3168 27.0928 23.2178 26.5632 23.297 25.9701C23.3762 25.3769 23.6337 24.9109 24.0693 24.572C24.5446 24.1907 25.0594 24.0212 25.6139 24.0636C26.3267 24.0636 27.0792 24.0847 27.8713 24.1271C28.6634 24.1695 29.4158 24.2118 30.1287 24.2542C30.8416 24.2542 31.4752 24.2754 32.0297 24.3178C32.5842 24.3178 32.9604 24.3178 33.1584 24.3178C33.6337 24.3178 34.2277 24.3178 34.9406 24.3178C35.6931 24.2754 36.4653 24.233 37.2574 24.1907C38.0891 24.1483 38.901 24.1271 39.6931 24.1271C40.4851 24.0847 41.198 24.0424 41.8317 24C42.2673 24 42.6634 24.1483 43.0198 24.4449C43.3762 24.6991 43.5941 25.0592 43.6733 25.5252C43.7525 26.0336 43.6535 26.4997 43.3762 26.9234C43.1386 27.347 42.802 27.6012 42.3663 27.686C42.2475 27.7283 42.1683 27.7919 42.1287 27.8766C42.0495 28.0885 42.1485 28.4698 42.4257 29.0206C42.5842 29.2748 42.7822 29.6137 43.0198 30.0374C43.2574 30.4187 43.4752 30.8212 43.6733 31.2449C43.9505 31.7109 44.2277 32.1981 44.5049 32.7065L44.6832 32.3888C45.7525 30.567 46.2673 29.3383 46.2277 28.7028C46.2277 28.0249 45.9307 27.6224 45.3366 27.4953C44.7822 27.3682 44.3465 27.0293 44.0297 26.4785C43.7525 25.9277 43.8317 25.3558 44.2673 24.7626C44.4653 24.5084 44.703 24.3389 44.9802 24.2542C45.2574 24.1695 45.5347 24.1271 45.8119 24.1271C46.8416 24.1695 47.8713 24.2118 48.901 24.2542C49.9307 24.2966 50.6634 24.3178 51.099 24.3178C51.4554 24.3178 52.1287 24.3178 53.1188 24.3178C54.1089 24.2754 55.0594 24.2118 55.9703 24.1271C56.604 24.1271 57.1188 24.3389 57.5149 24.7626C57.9505 25.1863 58.1287 25.7583 58.0495 26.4785C58.0099 26.9445 57.8317 27.347 57.5149 27.686C57.2376 28.0249 56.8812 28.2368 56.4455 28.3215C55.495 28.5333 54.5446 28.957 53.5941 29.5925C52.6832 30.1857 51.8119 30.9059 50.9802 31.7533C50.1881 32.5583 49.4356 33.4268 48.7228 34.3589C48.0495 35.2486 47.4554 36.1171 46.9406 36.9645L55.3168 51.6449C55.5545 52.1109 55.8317 52.5346 56.1485 52.9159C56.4653 53.2548 56.9604 53.5302 57.6337 53.7421Z" fill="#1C0F00"/>
</svg>
