<svg width="57" height="7" viewBox="0 0 57 7" fill="none" xmlns="http://www.w3.org/2000/svg">
<g clip-path="url(#clip0_4420_1608)">
<path d="M-26 6.25673L-23.125 3.38173C-19.9494 0.206091 -14.8006 0.206091 -11.625 3.38173C-8.44936 6.55737 -3.30064 6.55737 -0.125 3.38173C3.05064 0.206091 8.19936 0.206091 11.375 3.38173C14.5506 6.55737 19.6994 6.55737 22.875 3.38173C26.0506 0.206091 31.1994 0.206091 34.375 3.38173C37.5506 6.55737 42.6994 6.55737 45.875 3.38173C49.0506 0.206091 54.1994 0.206091 57.375 3.38173C60.5506 6.55737 65.6994 6.55737 68.875 3.38173C72.0506 0.206091 77.1994 0.206091 80.375 3.38173C83.5506 6.55737 88.6994 6.55737 91.875 3.38173C95.0506 0.206091 100.199 0.206091 103.375 3.38173C106.551 6.55737 111.699 6.55737 114.875 3.38173C118.051 0.206091 123.199 0.206091 126.375 3.38173C129.551 6.55737 134.699 6.55737 137.875 3.38173C141.051 0.206091 146.199 0.206091 149.375 3.38173L152.25 6.25673" stroke="#00B261" stroke-width="2" stroke-linecap="round" stroke-linejoin="round"/>
</g>
<defs>
<clipPath id="clip0_4420_1608">
<rect width="57" height="7" fill="white"/>
</clipPath>
</defs>
</svg>
